G04 #@! TF.FileFunction,Copper,L1,Top,Signal*
%FSLAX46Y46*%
G04 Gerber Fmt 4.6, Leading zero omitted, Abs format (unit mm)*
G04 Created by KiCad (PCBNEW 4.0.2-stable) date 2019-08-21 4:48:51 PM*
%MOMM*%
G01*
G04 APERTURE LIST*
%ADD10C,0.200000*%
%ADD11C,0.010000*%
G04 APERTURE END LIST*
D10*
D11*
G36*
X84421595Y-65606890D02*
X84803203Y-65613154D01*
X85156351Y-65624380D01*
X85464899Y-65640566D01*
X85712707Y-65661711D01*
X85804195Y-65673451D01*
X86735516Y-65855041D01*
X87647432Y-66117250D01*
X88534108Y-66457124D01*
X89389710Y-66871710D01*
X90208403Y-67358054D01*
X90984351Y-67913203D01*
X91711719Y-68534204D01*
X91993690Y-68806310D01*
X92649806Y-69521467D01*
X93236798Y-70284641D01*
X93753222Y-71092984D01*
X94197640Y-71943649D01*
X94568609Y-72833787D01*
X94864689Y-73760550D01*
X95084439Y-74721091D01*
X95135239Y-75015257D01*
X95166221Y-75270855D01*
X95189918Y-75593057D01*
X95206331Y-75964116D01*
X95215458Y-76366285D01*
X95217300Y-76781814D01*
X95211857Y-77192958D01*
X95199128Y-77581966D01*
X95179115Y-77931093D01*
X95151816Y-78222589D01*
X95135239Y-78342409D01*
X94938571Y-79315040D01*
X94665721Y-80252617D01*
X94317361Y-81153381D01*
X93894167Y-82015573D01*
X93438245Y-82774833D01*
X92869212Y-83565372D01*
X92241349Y-84296321D01*
X91558084Y-84965473D01*
X90822843Y-85570617D01*
X90039055Y-86109546D01*
X89210146Y-86580050D01*
X88339544Y-86979920D01*
X87430676Y-87306947D01*
X86486970Y-87558923D01*
X85814500Y-87688328D01*
X85670448Y-87705563D01*
X85462424Y-87722084D01*
X85204928Y-87737472D01*
X84912460Y-87751312D01*
X84599521Y-87763184D01*
X84280612Y-87772673D01*
X83970232Y-87779360D01*
X83682883Y-87782828D01*
X83433065Y-87782659D01*
X83235279Y-87778436D01*
X83104025Y-87769741D01*
X83084000Y-87766937D01*
X82994798Y-87753926D01*
X82847800Y-87734440D01*
X82669293Y-87711924D01*
X82597167Y-87703110D01*
X81785542Y-87566906D01*
X80961938Y-87355793D01*
X80140989Y-87075236D01*
X79337330Y-86730699D01*
X78565597Y-86327648D01*
X78025167Y-85995912D01*
X77233801Y-85426382D01*
X76502361Y-84798308D01*
X75832999Y-84115041D01*
X75227867Y-83379929D01*
X74689116Y-82596322D01*
X74218900Y-81767568D01*
X73819371Y-80897017D01*
X73492681Y-79988019D01*
X73240981Y-79043922D01*
X73107094Y-78342409D01*
X73076112Y-78086812D01*
X73052415Y-77764609D01*
X73036002Y-77393550D01*
X73026875Y-76991382D01*
X73025033Y-76575852D01*
X73030476Y-76164709D01*
X73043205Y-75775700D01*
X73063218Y-75426574D01*
X73090517Y-75135077D01*
X73107094Y-75015257D01*
X73303762Y-74042627D01*
X73331203Y-73948333D01*
X78724086Y-73948333D01*
X78748762Y-74547212D01*
X78823507Y-75079829D01*
X78949109Y-75548774D01*
X79126359Y-75956632D01*
X79356047Y-76305991D01*
X79490429Y-76459155D01*
X79592444Y-76566594D01*
X79666349Y-76647477D01*
X79697175Y-76685392D01*
X79697333Y-76686035D01*
X79668934Y-76718869D01*
X79595397Y-76791315D01*
X79517417Y-76864648D01*
X79277455Y-77141649D01*
X79078472Y-77488466D01*
X78922071Y-77899965D01*
X78809851Y-78371011D01*
X78743414Y-78896469D01*
X78724086Y-79409333D01*
X78749602Y-80023890D01*
X78826066Y-80570996D01*
X78953646Y-81050948D01*
X79132507Y-81464041D01*
X79362817Y-81810573D01*
X79644742Y-82090838D01*
X79978449Y-82305134D01*
X80364105Y-82453756D01*
X80450089Y-82476259D01*
X80646549Y-82508937D01*
X80897031Y-82529342D01*
X81171722Y-82537040D01*
X81440810Y-82531600D01*
X81674482Y-82512588D01*
X81780166Y-82495561D01*
X82159145Y-82375697D01*
X82510915Y-82183772D01*
X82821599Y-81930361D01*
X83077321Y-81626038D01*
X83205894Y-81409115D01*
X83363178Y-81023730D01*
X83480525Y-80576907D01*
X83556141Y-80082796D01*
X83588229Y-79555547D01*
X83574994Y-79009310D01*
X83548303Y-78710833D01*
X83458376Y-78179666D01*
X83315897Y-77711006D01*
X83144978Y-77355294D01*
X84417402Y-77355294D01*
X84417406Y-77931901D01*
X84417958Y-78435803D01*
X84419507Y-78872979D01*
X84422500Y-79249408D01*
X84427382Y-79571072D01*
X84434602Y-79843950D01*
X84444607Y-80074021D01*
X84457843Y-80267267D01*
X84474757Y-80429666D01*
X84495798Y-80567200D01*
X84521411Y-80685847D01*
X84552045Y-80791589D01*
X84588145Y-80890404D01*
X84630160Y-80988273D01*
X84678536Y-81091176D01*
X84733720Y-81205092D01*
X84758111Y-81255732D01*
X84983592Y-81637590D01*
X85262032Y-81956031D01*
X85589351Y-82207736D01*
X85961470Y-82389390D01*
X86259000Y-82475844D01*
X86552958Y-82518926D01*
X86890431Y-82535906D01*
X87234380Y-82526739D01*
X87547763Y-82491379D01*
X87621482Y-82477511D01*
X87950619Y-82387672D01*
X88231714Y-82259086D01*
X88491980Y-82076864D01*
X88696874Y-81889077D01*
X88952001Y-81593748D01*
X89156190Y-81262913D01*
X89319023Y-80879250D01*
X89401038Y-80615833D01*
X89418206Y-80552512D01*
X89433177Y-80490595D01*
X89446129Y-80424015D01*
X89457243Y-80346705D01*
X89466698Y-80252598D01*
X89474674Y-80135626D01*
X89481351Y-79989723D01*
X89486907Y-79808821D01*
X89491524Y-79586854D01*
X89495379Y-79317755D01*
X89498654Y-78995455D01*
X89501527Y-78613889D01*
X89504178Y-78166989D01*
X89506787Y-77648687D01*
X89509534Y-77052918D01*
X89510075Y-76932833D01*
X89512733Y-76244615D01*
X89514106Y-75637085D01*
X89514158Y-75106270D01*
X89512849Y-74648201D01*
X89510144Y-74258907D01*
X89506002Y-73934418D01*
X89500388Y-73670763D01*
X89493264Y-73463971D01*
X89484590Y-73310072D01*
X89474652Y-73207500D01*
X89377945Y-72696645D01*
X89231063Y-72251285D01*
X89032246Y-71867457D01*
X88779737Y-71541201D01*
X88698763Y-71459232D01*
X88389934Y-71206293D01*
X88054853Y-71019772D01*
X87682455Y-70895640D01*
X87261676Y-70829870D01*
X86932522Y-70816402D01*
X86447414Y-70849831D01*
X86011973Y-70951806D01*
X85626495Y-71122092D01*
X85291277Y-71360452D01*
X85006616Y-71666649D01*
X84772809Y-72040447D01*
X84590154Y-72481609D01*
X84514396Y-72741833D01*
X84417500Y-73122833D01*
X84417500Y-76700000D01*
X84417402Y-77355294D01*
X83144978Y-77355294D01*
X83121573Y-77306585D01*
X82876110Y-76968138D01*
X82806941Y-76894143D01*
X82584214Y-76667829D01*
X82812021Y-76442852D01*
X83059828Y-76140653D01*
X83261970Y-75770572D01*
X83417136Y-75336849D01*
X83524011Y-74843721D01*
X83581283Y-74295429D01*
X83591305Y-73927167D01*
X83565572Y-73342475D01*
X83489123Y-72812263D01*
X83363086Y-72340323D01*
X83188586Y-71930443D01*
X82966750Y-71586416D01*
X82858293Y-71460946D01*
X82593785Y-71221099D01*
X82306809Y-71043288D01*
X81982948Y-70921471D01*
X81607788Y-70849604D01*
X81347793Y-70827722D01*
X80852008Y-70832987D01*
X80408959Y-70903237D01*
X80018325Y-71038851D01*
X79679788Y-71240211D01*
X79393027Y-71507695D01*
X79157723Y-71841686D01*
X78973556Y-72242563D01*
X78840206Y-72710705D01*
X78757354Y-73246495D01*
X78724680Y-73850311D01*
X78724086Y-73948333D01*
X73331203Y-73948333D01*
X73576612Y-73105049D01*
X73924972Y-72204285D01*
X74348166Y-71342094D01*
X74804088Y-70582833D01*
X75366422Y-69802211D01*
X75989164Y-69077477D01*
X76667638Y-68411640D01*
X77397164Y-67807708D01*
X78173064Y-67268690D01*
X78990658Y-66797595D01*
X79845269Y-66397432D01*
X80732219Y-66071209D01*
X81646827Y-65821935D01*
X82438138Y-65673451D01*
X82651562Y-65649958D01*
X82933367Y-65631424D01*
X83267413Y-65617850D01*
X83637560Y-65609237D01*
X84027667Y-65605584D01*
X84421595Y-65606890D01*
X84421595Y-65606890D01*
G37*
X84421595Y-65606890D02*
X84803203Y-65613154D01*
X85156351Y-65624380D01*
X85464899Y-65640566D01*
X85712707Y-65661711D01*
X85804195Y-65673451D01*
X86735516Y-65855041D01*
X87647432Y-66117250D01*
X88534108Y-66457124D01*
X89389710Y-66871710D01*
X90208403Y-67358054D01*
X90984351Y-67913203D01*
X91711719Y-68534204D01*
X91993690Y-68806310D01*
X92649806Y-69521467D01*
X93236798Y-70284641D01*
X93753222Y-71092984D01*
X94197640Y-71943649D01*
X94568609Y-72833787D01*
X94864689Y-73760550D01*
X95084439Y-74721091D01*
X95135239Y-75015257D01*
X95166221Y-75270855D01*
X95189918Y-75593057D01*
X95206331Y-75964116D01*
X95215458Y-76366285D01*
X95217300Y-76781814D01*
X95211857Y-77192958D01*
X95199128Y-77581966D01*
X95179115Y-77931093D01*
X95151816Y-78222589D01*
X95135239Y-78342409D01*
X94938571Y-79315040D01*
X94665721Y-80252617D01*
X94317361Y-81153381D01*
X93894167Y-82015573D01*
X93438245Y-82774833D01*
X92869212Y-83565372D01*
X92241349Y-84296321D01*
X91558084Y-84965473D01*
X90822843Y-85570617D01*
X90039055Y-86109546D01*
X89210146Y-86580050D01*
X88339544Y-86979920D01*
X87430676Y-87306947D01*
X86486970Y-87558923D01*
X85814500Y-87688328D01*
X85670448Y-87705563D01*
X85462424Y-87722084D01*
X85204928Y-87737472D01*
X84912460Y-87751312D01*
X84599521Y-87763184D01*
X84280612Y-87772673D01*
X83970232Y-87779360D01*
X83682883Y-87782828D01*
X83433065Y-87782659D01*
X83235279Y-87778436D01*
X83104025Y-87769741D01*
X83084000Y-87766937D01*
X82994798Y-87753926D01*
X82847800Y-87734440D01*
X82669293Y-87711924D01*
X82597167Y-87703110D01*
X81785542Y-87566906D01*
X80961938Y-87355793D01*
X80140989Y-87075236D01*
X79337330Y-86730699D01*
X78565597Y-86327648D01*
X78025167Y-85995912D01*
X77233801Y-85426382D01*
X76502361Y-84798308D01*
X75832999Y-84115041D01*
X75227867Y-83379929D01*
X74689116Y-82596322D01*
X74218900Y-81767568D01*
X73819371Y-80897017D01*
X73492681Y-79988019D01*
X73240981Y-79043922D01*
X73107094Y-78342409D01*
X73076112Y-78086812D01*
X73052415Y-77764609D01*
X73036002Y-77393550D01*
X73026875Y-76991382D01*
X73025033Y-76575852D01*
X73030476Y-76164709D01*
X73043205Y-75775700D01*
X73063218Y-75426574D01*
X73090517Y-75135077D01*
X73107094Y-75015257D01*
X73303762Y-74042627D01*
X73331203Y-73948333D01*
X78724086Y-73948333D01*
X78748762Y-74547212D01*
X78823507Y-75079829D01*
X78949109Y-75548774D01*
X79126359Y-75956632D01*
X79356047Y-76305991D01*
X79490429Y-76459155D01*
X79592444Y-76566594D01*
X79666349Y-76647477D01*
X79697175Y-76685392D01*
X79697333Y-76686035D01*
X79668934Y-76718869D01*
X79595397Y-76791315D01*
X79517417Y-76864648D01*
X79277455Y-77141649D01*
X79078472Y-77488466D01*
X78922071Y-77899965D01*
X78809851Y-78371011D01*
X78743414Y-78896469D01*
X78724086Y-79409333D01*
X78749602Y-80023890D01*
X78826066Y-80570996D01*
X78953646Y-81050948D01*
X79132507Y-81464041D01*
X79362817Y-81810573D01*
X79644742Y-82090838D01*
X79978449Y-82305134D01*
X80364105Y-82453756D01*
X80450089Y-82476259D01*
X80646549Y-82508937D01*
X80897031Y-82529342D01*
X81171722Y-82537040D01*
X81440810Y-82531600D01*
X81674482Y-82512588D01*
X81780166Y-82495561D01*
X82159145Y-82375697D01*
X82510915Y-82183772D01*
X82821599Y-81930361D01*
X83077321Y-81626038D01*
X83205894Y-81409115D01*
X83363178Y-81023730D01*
X83480525Y-80576907D01*
X83556141Y-80082796D01*
X83588229Y-79555547D01*
X83574994Y-79009310D01*
X83548303Y-78710833D01*
X83458376Y-78179666D01*
X83315897Y-77711006D01*
X83144978Y-77355294D01*
X84417402Y-77355294D01*
X84417406Y-77931901D01*
X84417958Y-78435803D01*
X84419507Y-78872979D01*
X84422500Y-79249408D01*
X84427382Y-79571072D01*
X84434602Y-79843950D01*
X84444607Y-80074021D01*
X84457843Y-80267267D01*
X84474757Y-80429666D01*
X84495798Y-80567200D01*
X84521411Y-80685847D01*
X84552045Y-80791589D01*
X84588145Y-80890404D01*
X84630160Y-80988273D01*
X84678536Y-81091176D01*
X84733720Y-81205092D01*
X84758111Y-81255732D01*
X84983592Y-81637590D01*
X85262032Y-81956031D01*
X85589351Y-82207736D01*
X85961470Y-82389390D01*
X86259000Y-82475844D01*
X86552958Y-82518926D01*
X86890431Y-82535906D01*
X87234380Y-82526739D01*
X87547763Y-82491379D01*
X87621482Y-82477511D01*
X87950619Y-82387672D01*
X88231714Y-82259086D01*
X88491980Y-82076864D01*
X88696874Y-81889077D01*
X88952001Y-81593748D01*
X89156190Y-81262913D01*
X89319023Y-80879250D01*
X89401038Y-80615833D01*
X89418206Y-80552512D01*
X89433177Y-80490595D01*
X89446129Y-80424015D01*
X89457243Y-80346705D01*
X89466698Y-80252598D01*
X89474674Y-80135626D01*
X89481351Y-79989723D01*
X89486907Y-79808821D01*
X89491524Y-79586854D01*
X89495379Y-79317755D01*
X89498654Y-78995455D01*
X89501527Y-78613889D01*
X89504178Y-78166989D01*
X89506787Y-77648687D01*
X89509534Y-77052918D01*
X89510075Y-76932833D01*
X89512733Y-76244615D01*
X89514106Y-75637085D01*
X89514158Y-75106270D01*
X89512849Y-74648201D01*
X89510144Y-74258907D01*
X89506002Y-73934418D01*
X89500388Y-73670763D01*
X89493264Y-73463971D01*
X89484590Y-73310072D01*
X89474652Y-73207500D01*
X89377945Y-72696645D01*
X89231063Y-72251285D01*
X89032246Y-71867457D01*
X88779737Y-71541201D01*
X88698763Y-71459232D01*
X88389934Y-71206293D01*
X88054853Y-71019772D01*
X87682455Y-70895640D01*
X87261676Y-70829870D01*
X86932522Y-70816402D01*
X86447414Y-70849831D01*
X86011973Y-70951806D01*
X85626495Y-71122092D01*
X85291277Y-71360452D01*
X85006616Y-71666649D01*
X84772809Y-72040447D01*
X84590154Y-72481609D01*
X84514396Y-72741833D01*
X84417500Y-73122833D01*
X84417500Y-76700000D01*
X84417402Y-77355294D01*
X83144978Y-77355294D01*
X83121573Y-77306585D01*
X82876110Y-76968138D01*
X82806941Y-76894143D01*
X82584214Y-76667829D01*
X82812021Y-76442852D01*
X83059828Y-76140653D01*
X83261970Y-75770572D01*
X83417136Y-75336849D01*
X83524011Y-74843721D01*
X83581283Y-74295429D01*
X83591305Y-73927167D01*
X83565572Y-73342475D01*
X83489123Y-72812263D01*
X83363086Y-72340323D01*
X83188586Y-71930443D01*
X82966750Y-71586416D01*
X82858293Y-71460946D01*
X82593785Y-71221099D01*
X82306809Y-71043288D01*
X81982948Y-70921471D01*
X81607788Y-70849604D01*
X81347793Y-70827722D01*
X80852008Y-70832987D01*
X80408959Y-70903237D01*
X80018325Y-71038851D01*
X79679788Y-71240211D01*
X79393027Y-71507695D01*
X79157723Y-71841686D01*
X78973556Y-72242563D01*
X78840206Y-72710705D01*
X78757354Y-73246495D01*
X78724680Y-73850311D01*
X78724086Y-73948333D01*
X73331203Y-73948333D01*
X73576612Y-73105049D01*
X73924972Y-72204285D01*
X74348166Y-71342094D01*
X74804088Y-70582833D01*
X75366422Y-69802211D01*
X75989164Y-69077477D01*
X76667638Y-68411640D01*
X77397164Y-67807708D01*
X78173064Y-67268690D01*
X78990658Y-66797595D01*
X79845269Y-66397432D01*
X80732219Y-66071209D01*
X81646827Y-65821935D01*
X82438138Y-65673451D01*
X82651562Y-65649958D01*
X82933367Y-65631424D01*
X83267413Y-65617850D01*
X83637560Y-65609237D01*
X84027667Y-65605584D01*
X84421595Y-65606890D01*
G36*
X81473807Y-76943835D02*
X81732811Y-76982005D01*
X81902026Y-77030989D01*
X82170103Y-77168160D01*
X82392755Y-77353637D01*
X82573031Y-77593139D01*
X82713977Y-77892387D01*
X82818642Y-78257099D01*
X82890073Y-78692995D01*
X82913426Y-78928886D01*
X82933823Y-79404107D01*
X82918911Y-79870013D01*
X82870673Y-80309532D01*
X82791091Y-80705596D01*
X82682147Y-81041135D01*
X82662910Y-81086287D01*
X82525581Y-81313777D01*
X82330155Y-81528057D01*
X82102257Y-81703280D01*
X81989381Y-81765673D01*
X81875875Y-81815974D01*
X81769711Y-81849884D01*
X81648512Y-81871177D01*
X81489898Y-81883630D01*
X81271492Y-81891018D01*
X81242500Y-81891692D01*
X81030758Y-81893502D01*
X80838784Y-81889754D01*
X80688834Y-81881211D01*
X80607500Y-81869873D01*
X80283740Y-81747687D01*
X80004955Y-81566833D01*
X79783149Y-81336585D01*
X79662878Y-81140107D01*
X79569270Y-80925621D01*
X79498171Y-80708348D01*
X79446964Y-80472309D01*
X79413032Y-80201526D01*
X79393758Y-79880021D01*
X79386527Y-79491816D01*
X79386373Y-79451667D01*
X79386717Y-79149018D01*
X79390552Y-78913485D01*
X79399210Y-78727547D01*
X79414026Y-78573679D01*
X79436332Y-78434360D01*
X79467462Y-78292067D01*
X79477836Y-78249725D01*
X79597649Y-77870954D01*
X79752922Y-77564193D01*
X79949155Y-77322262D01*
X80191850Y-77137982D01*
X80410773Y-77032062D01*
X80624857Y-76973909D01*
X80891966Y-76939806D01*
X81184238Y-76929775D01*
X81473807Y-76943835D01*
X81473807Y-76943835D01*
G37*
X81473807Y-76943835D02*
X81732811Y-76982005D01*
X81902026Y-77030989D01*
X82170103Y-77168160D01*
X82392755Y-77353637D01*
X82573031Y-77593139D01*
X82713977Y-77892387D01*
X82818642Y-78257099D01*
X82890073Y-78692995D01*
X82913426Y-78928886D01*
X82933823Y-79404107D01*
X82918911Y-79870013D01*
X82870673Y-80309532D01*
X82791091Y-80705596D01*
X82682147Y-81041135D01*
X82662910Y-81086287D01*
X82525581Y-81313777D01*
X82330155Y-81528057D01*
X82102257Y-81703280D01*
X81989381Y-81765673D01*
X81875875Y-81815974D01*
X81769711Y-81849884D01*
X81648512Y-81871177D01*
X81489898Y-81883630D01*
X81271492Y-81891018D01*
X81242500Y-81891692D01*
X81030758Y-81893502D01*
X80838784Y-81889754D01*
X80688834Y-81881211D01*
X80607500Y-81869873D01*
X80283740Y-81747687D01*
X80004955Y-81566833D01*
X79783149Y-81336585D01*
X79662878Y-81140107D01*
X79569270Y-80925621D01*
X79498171Y-80708348D01*
X79446964Y-80472309D01*
X79413032Y-80201526D01*
X79393758Y-79880021D01*
X79386527Y-79491816D01*
X79386373Y-79451667D01*
X79386717Y-79149018D01*
X79390552Y-78913485D01*
X79399210Y-78727547D01*
X79414026Y-78573679D01*
X79436332Y-78434360D01*
X79467462Y-78292067D01*
X79477836Y-78249725D01*
X79597649Y-77870954D01*
X79752922Y-77564193D01*
X79949155Y-77322262D01*
X80191850Y-77137982D01*
X80410773Y-77032062D01*
X80624857Y-76973909D01*
X80891966Y-76939806D01*
X81184238Y-76929775D01*
X81473807Y-76943835D01*
G36*
X81413576Y-71473394D02*
X81583033Y-71478407D01*
X81706910Y-71490237D01*
X81804747Y-71511707D01*
X81896083Y-71545637D01*
X81989381Y-71589409D01*
X82243250Y-71745333D01*
X82451961Y-71945498D01*
X82618948Y-72196774D01*
X82747641Y-72506028D01*
X82841474Y-72880129D01*
X82903877Y-73325947D01*
X82914227Y-73440333D01*
X82934483Y-73892122D01*
X82922413Y-74337208D01*
X82880043Y-74759504D01*
X82809397Y-75142925D01*
X82712500Y-75471382D01*
X82636386Y-75647812D01*
X82451902Y-75922249D01*
X82208351Y-76139450D01*
X81910963Y-76297260D01*
X81564973Y-76393526D01*
X81175610Y-76426091D01*
X80807039Y-76401113D01*
X80450053Y-76318213D01*
X80142716Y-76171830D01*
X79890348Y-75965553D01*
X79698269Y-75702970D01*
X79659277Y-75626803D01*
X79564014Y-75403574D01*
X79491930Y-75179130D01*
X79440489Y-74937363D01*
X79407152Y-74662167D01*
X79389382Y-74337433D01*
X79384644Y-73947055D01*
X79384883Y-73884833D01*
X79392623Y-73487772D01*
X79412880Y-73158584D01*
X79448368Y-72881045D01*
X79501799Y-72638932D01*
X79575887Y-72416020D01*
X79664133Y-72214966D01*
X79818498Y-71979719D01*
X80032157Y-71769880D01*
X80279765Y-71608764D01*
X80365312Y-71569978D01*
X80477100Y-71529095D01*
X80586310Y-71501348D01*
X80713297Y-71484295D01*
X80878417Y-71475495D01*
X81102027Y-71472505D01*
X81179000Y-71472376D01*
X81413576Y-71473394D01*
X81413576Y-71473394D01*
G37*
X81413576Y-71473394D02*
X81583033Y-71478407D01*
X81706910Y-71490237D01*
X81804747Y-71511707D01*
X81896083Y-71545637D01*
X81989381Y-71589409D01*
X82243250Y-71745333D01*
X82451961Y-71945498D01*
X82618948Y-72196774D01*
X82747641Y-72506028D01*
X82841474Y-72880129D01*
X82903877Y-73325947D01*
X82914227Y-73440333D01*
X82934483Y-73892122D01*
X82922413Y-74337208D01*
X82880043Y-74759504D01*
X82809397Y-75142925D01*
X82712500Y-75471382D01*
X82636386Y-75647812D01*
X82451902Y-75922249D01*
X82208351Y-76139450D01*
X81910963Y-76297260D01*
X81564973Y-76393526D01*
X81175610Y-76426091D01*
X80807039Y-76401113D01*
X80450053Y-76318213D01*
X80142716Y-76171830D01*
X79890348Y-75965553D01*
X79698269Y-75702970D01*
X79659277Y-75626803D01*
X79564014Y-75403574D01*
X79491930Y-75179130D01*
X79440489Y-74937363D01*
X79407152Y-74662167D01*
X79389382Y-74337433D01*
X79384644Y-73947055D01*
X79384883Y-73884833D01*
X79392623Y-73487772D01*
X79412880Y-73158584D01*
X79448368Y-72881045D01*
X79501799Y-72638932D01*
X79575887Y-72416020D01*
X79664133Y-72214966D01*
X79818498Y-71979719D01*
X80032157Y-71769880D01*
X80279765Y-71608764D01*
X80365312Y-71569978D01*
X80477100Y-71529095D01*
X80586310Y-71501348D01*
X80713297Y-71484295D01*
X80878417Y-71475495D01*
X81102027Y-71472505D01*
X81179000Y-71472376D01*
X81413576Y-71473394D01*
G36*
X87243209Y-71467688D02*
X87620790Y-71533514D01*
X87942932Y-71659406D01*
X88213652Y-71847383D01*
X88436971Y-72099465D01*
X88587250Y-72354835D01*
X88634755Y-72452076D01*
X88676454Y-72542004D01*
X88712724Y-72630562D01*
X88743945Y-72723696D01*
X88770495Y-72827351D01*
X88792753Y-72947473D01*
X88811096Y-73090005D01*
X88825904Y-73260894D01*
X88837555Y-73466085D01*
X88846427Y-73711522D01*
X88852899Y-74003152D01*
X88857349Y-74346918D01*
X88860155Y-74748766D01*
X88861697Y-75214642D01*
X88862352Y-75750490D01*
X88862499Y-76362256D01*
X88862500Y-76678833D01*
X88862462Y-77328454D01*
X88862096Y-77899355D01*
X88861021Y-78397482D01*
X88858860Y-78828782D01*
X88855232Y-79199201D01*
X88849759Y-79514686D01*
X88842060Y-79781182D01*
X88831758Y-80004637D01*
X88818471Y-80190997D01*
X88801823Y-80346209D01*
X88781432Y-80476218D01*
X88756919Y-80586971D01*
X88727906Y-80684415D01*
X88694014Y-80774496D01*
X88654862Y-80863160D01*
X88610071Y-80956354D01*
X88586625Y-81004102D01*
X88418245Y-81267661D01*
X88193339Y-81504837D01*
X87935077Y-81693987D01*
X87751108Y-81784572D01*
X87539724Y-81843377D01*
X87274430Y-81882134D01*
X86983044Y-81900019D01*
X86693387Y-81896210D01*
X86433278Y-81869884D01*
X86255145Y-81828841D01*
X85934304Y-81685766D01*
X85663684Y-81482186D01*
X85439864Y-81214078D01*
X85259418Y-80877423D01*
X85129701Y-80506977D01*
X85115933Y-80454195D01*
X85103899Y-80395467D01*
X85093482Y-80325053D01*
X85084567Y-80237210D01*
X85077039Y-80126195D01*
X85070780Y-79986265D01*
X85065676Y-79811677D01*
X85061610Y-79596690D01*
X85058468Y-79335561D01*
X85056132Y-79022547D01*
X85054488Y-78651905D01*
X85053419Y-78217893D01*
X85052809Y-77714769D01*
X85052543Y-77136789D01*
X85052500Y-76678833D01*
X85052450Y-76027388D01*
X85052554Y-75454745D01*
X85053191Y-74955041D01*
X85054740Y-74522412D01*
X85057580Y-74150996D01*
X85062091Y-73834928D01*
X85068652Y-73568344D01*
X85077642Y-73345381D01*
X85089440Y-73160175D01*
X85104426Y-73006863D01*
X85122979Y-72879581D01*
X85145479Y-72772465D01*
X85172304Y-72679652D01*
X85203834Y-72595278D01*
X85240448Y-72513479D01*
X85282526Y-72428392D01*
X85330446Y-72334154D01*
X85333976Y-72327167D01*
X85516124Y-72030933D01*
X85733532Y-71801776D01*
X85994535Y-71634786D01*
X86307466Y-71525056D01*
X86680658Y-71467674D01*
X86806169Y-71459910D01*
X87243209Y-71467688D01*
X87243209Y-71467688D01*
G37*
X87243209Y-71467688D02*
X87620790Y-71533514D01*
X87942932Y-71659406D01*
X88213652Y-71847383D01*
X88436971Y-72099465D01*
X88587250Y-72354835D01*
X88634755Y-72452076D01*
X88676454Y-72542004D01*
X88712724Y-72630562D01*
X88743945Y-72723696D01*
X88770495Y-72827351D01*
X88792753Y-72947473D01*
X88811096Y-73090005D01*
X88825904Y-73260894D01*
X88837555Y-73466085D01*
X88846427Y-73711522D01*
X88852899Y-74003152D01*
X88857349Y-74346918D01*
X88860155Y-74748766D01*
X88861697Y-75214642D01*
X88862352Y-75750490D01*
X88862499Y-76362256D01*
X88862500Y-76678833D01*
X88862462Y-77328454D01*
X88862096Y-77899355D01*
X88861021Y-78397482D01*
X88858860Y-78828782D01*
X88855232Y-79199201D01*
X88849759Y-79514686D01*
X88842060Y-79781182D01*
X88831758Y-80004637D01*
X88818471Y-80190997D01*
X88801823Y-80346209D01*
X88781432Y-80476218D01*
X88756919Y-80586971D01*
X88727906Y-80684415D01*
X88694014Y-80774496D01*
X88654862Y-80863160D01*
X88610071Y-80956354D01*
X88586625Y-81004102D01*
X88418245Y-81267661D01*
X88193339Y-81504837D01*
X87935077Y-81693987D01*
X87751108Y-81784572D01*
X87539724Y-81843377D01*
X87274430Y-81882134D01*
X86983044Y-81900019D01*
X86693387Y-81896210D01*
X86433278Y-81869884D01*
X86255145Y-81828841D01*
X85934304Y-81685766D01*
X85663684Y-81482186D01*
X85439864Y-81214078D01*
X85259418Y-80877423D01*
X85129701Y-80506977D01*
X85115933Y-80454195D01*
X85103899Y-80395467D01*
X85093482Y-80325053D01*
X85084567Y-80237210D01*
X85077039Y-80126195D01*
X85070780Y-79986265D01*
X85065676Y-79811677D01*
X85061610Y-79596690D01*
X85058468Y-79335561D01*
X85056132Y-79022547D01*
X85054488Y-78651905D01*
X85053419Y-78217893D01*
X85052809Y-77714769D01*
X85052543Y-77136789D01*
X85052500Y-76678833D01*
X85052450Y-76027388D01*
X85052554Y-75454745D01*
X85053191Y-74955041D01*
X85054740Y-74522412D01*
X85057580Y-74150996D01*
X85062091Y-73834928D01*
X85068652Y-73568344D01*
X85077642Y-73345381D01*
X85089440Y-73160175D01*
X85104426Y-73006863D01*
X85122979Y-72879581D01*
X85145479Y-72772465D01*
X85172304Y-72679652D01*
X85203834Y-72595278D01*
X85240448Y-72513479D01*
X85282526Y-72428392D01*
X85330446Y-72334154D01*
X85333976Y-72327167D01*
X85516124Y-72030933D01*
X85733532Y-71801776D01*
X85994535Y-71634786D01*
X86307466Y-71525056D01*
X86680658Y-71467674D01*
X86806169Y-71459910D01*
X87243209Y-71467688D01*
M02*
