G04 #@! TF.FileFunction,Copper,L1,Top,Signal*
%FSLAX46Y46*%
G04 Gerber Fmt 4.6, Leading zero omitted, Abs format (unit mm)*
G04 Created by KiCad (PCBNEW 4.0.2-stable) date 2019-06-10 11:42:33 PM*
%MOMM*%
G01*
G04 APERTURE LIST*
%ADD10C,0.100000*%
%ADD11C,0.010000*%
G04 APERTURE END LIST*
D10*
D11*
G36*
X123421595Y-51856890D02*
X123803203Y-51863154D01*
X124156351Y-51874380D01*
X124464899Y-51890566D01*
X124712707Y-51911711D01*
X124804195Y-51923451D01*
X125735516Y-52105041D01*
X126647432Y-52367250D01*
X127534108Y-52707124D01*
X128389710Y-53121710D01*
X129208403Y-53608054D01*
X129984351Y-54163203D01*
X130711719Y-54784204D01*
X130993690Y-55056310D01*
X131649806Y-55771467D01*
X132236798Y-56534641D01*
X132753222Y-57342984D01*
X133197640Y-58193649D01*
X133568609Y-59083787D01*
X133864689Y-60010550D01*
X134084439Y-60971091D01*
X134135239Y-61265257D01*
X134166221Y-61520855D01*
X134189918Y-61843057D01*
X134206331Y-62214116D01*
X134215458Y-62616285D01*
X134217300Y-63031814D01*
X134211857Y-63442958D01*
X134199128Y-63831966D01*
X134179115Y-64181093D01*
X134151816Y-64472589D01*
X134135239Y-64592409D01*
X133938571Y-65565040D01*
X133665721Y-66502617D01*
X133317361Y-67403381D01*
X132894167Y-68265573D01*
X132438245Y-69024833D01*
X131869212Y-69815372D01*
X131241349Y-70546321D01*
X130558084Y-71215473D01*
X129822843Y-71820617D01*
X129039055Y-72359546D01*
X128210146Y-72830050D01*
X127339544Y-73229920D01*
X126430676Y-73556947D01*
X125486970Y-73808923D01*
X124814500Y-73938328D01*
X124670448Y-73955563D01*
X124462424Y-73972084D01*
X124204928Y-73987472D01*
X123912460Y-74001312D01*
X123599521Y-74013184D01*
X123280612Y-74022673D01*
X122970232Y-74029360D01*
X122682883Y-74032828D01*
X122433065Y-74032659D01*
X122235279Y-74028436D01*
X122104025Y-74019741D01*
X122084000Y-74016937D01*
X121994798Y-74003926D01*
X121847800Y-73984440D01*
X121669293Y-73961924D01*
X121597167Y-73953110D01*
X120785542Y-73816906D01*
X119961938Y-73605793D01*
X119140989Y-73325236D01*
X118337330Y-72980699D01*
X117565597Y-72577648D01*
X117025167Y-72245912D01*
X116233801Y-71676382D01*
X115502361Y-71048308D01*
X114832999Y-70365041D01*
X114227867Y-69629929D01*
X113689116Y-68846322D01*
X113218900Y-68017568D01*
X112819371Y-67147017D01*
X112492681Y-66238019D01*
X112240981Y-65293922D01*
X112107094Y-64592409D01*
X112076112Y-64336812D01*
X112052415Y-64014609D01*
X112036002Y-63643550D01*
X112026875Y-63241382D01*
X112025033Y-62825852D01*
X112030476Y-62414709D01*
X112043205Y-62025700D01*
X112063218Y-61676574D01*
X112090517Y-61385077D01*
X112107094Y-61265257D01*
X112303762Y-60292627D01*
X112331203Y-60198333D01*
X117724086Y-60198333D01*
X117748762Y-60797212D01*
X117823507Y-61329829D01*
X117949109Y-61798774D01*
X118126359Y-62206632D01*
X118356047Y-62555991D01*
X118490429Y-62709155D01*
X118592444Y-62816594D01*
X118666349Y-62897477D01*
X118697175Y-62935392D01*
X118697333Y-62936035D01*
X118668934Y-62968869D01*
X118595397Y-63041315D01*
X118517417Y-63114648D01*
X118277455Y-63391649D01*
X118078472Y-63738466D01*
X117922071Y-64149965D01*
X117809851Y-64621011D01*
X117743414Y-65146469D01*
X117724086Y-65659333D01*
X117749602Y-66273890D01*
X117826066Y-66820996D01*
X117953646Y-67300948D01*
X118132507Y-67714041D01*
X118362817Y-68060573D01*
X118644742Y-68340838D01*
X118978449Y-68555134D01*
X119364105Y-68703756D01*
X119450089Y-68726259D01*
X119646549Y-68758937D01*
X119897031Y-68779342D01*
X120171722Y-68787040D01*
X120440810Y-68781600D01*
X120674482Y-68762588D01*
X120780166Y-68745561D01*
X121159145Y-68625697D01*
X121510915Y-68433772D01*
X121821599Y-68180361D01*
X122077321Y-67876038D01*
X122205894Y-67659115D01*
X122363178Y-67273730D01*
X122480525Y-66826907D01*
X122556141Y-66332796D01*
X122588229Y-65805547D01*
X122574994Y-65259310D01*
X122548303Y-64960833D01*
X122458376Y-64429666D01*
X122315897Y-63961006D01*
X122144978Y-63605294D01*
X123417402Y-63605294D01*
X123417406Y-64181901D01*
X123417958Y-64685803D01*
X123419507Y-65122979D01*
X123422500Y-65499408D01*
X123427382Y-65821072D01*
X123434602Y-66093950D01*
X123444607Y-66324021D01*
X123457843Y-66517267D01*
X123474757Y-66679666D01*
X123495798Y-66817200D01*
X123521411Y-66935847D01*
X123552045Y-67041589D01*
X123588145Y-67140404D01*
X123630160Y-67238273D01*
X123678536Y-67341176D01*
X123733720Y-67455092D01*
X123758111Y-67505732D01*
X123983592Y-67887590D01*
X124262032Y-68206031D01*
X124589351Y-68457736D01*
X124961470Y-68639390D01*
X125259000Y-68725844D01*
X125552958Y-68768926D01*
X125890431Y-68785906D01*
X126234380Y-68776739D01*
X126547763Y-68741379D01*
X126621482Y-68727511D01*
X126950619Y-68637672D01*
X127231714Y-68509086D01*
X127491980Y-68326864D01*
X127696874Y-68139077D01*
X127952001Y-67843748D01*
X128156190Y-67512913D01*
X128319023Y-67129250D01*
X128401038Y-66865833D01*
X128418206Y-66802512D01*
X128433177Y-66740595D01*
X128446129Y-66674015D01*
X128457243Y-66596705D01*
X128466698Y-66502598D01*
X128474674Y-66385626D01*
X128481351Y-66239723D01*
X128486907Y-66058821D01*
X128491524Y-65836854D01*
X128495379Y-65567755D01*
X128498654Y-65245455D01*
X128501527Y-64863889D01*
X128504178Y-64416989D01*
X128506787Y-63898687D01*
X128509534Y-63302918D01*
X128510075Y-63182833D01*
X128512733Y-62494615D01*
X128514106Y-61887085D01*
X128514158Y-61356270D01*
X128512849Y-60898201D01*
X128510144Y-60508907D01*
X128506002Y-60184418D01*
X128500388Y-59920763D01*
X128493264Y-59713971D01*
X128484590Y-59560072D01*
X128474652Y-59457500D01*
X128377945Y-58946645D01*
X128231063Y-58501285D01*
X128032246Y-58117457D01*
X127779737Y-57791201D01*
X127698763Y-57709232D01*
X127389934Y-57456293D01*
X127054853Y-57269772D01*
X126682455Y-57145640D01*
X126261676Y-57079870D01*
X125932522Y-57066402D01*
X125447414Y-57099831D01*
X125011973Y-57201806D01*
X124626495Y-57372092D01*
X124291277Y-57610452D01*
X124006616Y-57916649D01*
X123772809Y-58290447D01*
X123590154Y-58731609D01*
X123514396Y-58991833D01*
X123417500Y-59372833D01*
X123417500Y-62950000D01*
X123417402Y-63605294D01*
X122144978Y-63605294D01*
X122121573Y-63556585D01*
X121876110Y-63218138D01*
X121806941Y-63144143D01*
X121584214Y-62917829D01*
X121812021Y-62692852D01*
X122059828Y-62390653D01*
X122261970Y-62020572D01*
X122417136Y-61586849D01*
X122524011Y-61093721D01*
X122581283Y-60545429D01*
X122591305Y-60177167D01*
X122565572Y-59592475D01*
X122489123Y-59062263D01*
X122363086Y-58590323D01*
X122188586Y-58180443D01*
X121966750Y-57836416D01*
X121858293Y-57710946D01*
X121593785Y-57471099D01*
X121306809Y-57293288D01*
X120982948Y-57171471D01*
X120607788Y-57099604D01*
X120347793Y-57077722D01*
X119852008Y-57082987D01*
X119408959Y-57153237D01*
X119018325Y-57288851D01*
X118679788Y-57490211D01*
X118393027Y-57757695D01*
X118157723Y-58091686D01*
X117973556Y-58492563D01*
X117840206Y-58960705D01*
X117757354Y-59496495D01*
X117724680Y-60100311D01*
X117724086Y-60198333D01*
X112331203Y-60198333D01*
X112576612Y-59355049D01*
X112924972Y-58454285D01*
X113348166Y-57592094D01*
X113804088Y-56832833D01*
X114366422Y-56052211D01*
X114989164Y-55327477D01*
X115667638Y-54661640D01*
X116397164Y-54057708D01*
X117173064Y-53518690D01*
X117990658Y-53047595D01*
X118845269Y-52647432D01*
X119732219Y-52321209D01*
X120646827Y-52071935D01*
X121438138Y-51923451D01*
X121651562Y-51899958D01*
X121933367Y-51881424D01*
X122267413Y-51867850D01*
X122637560Y-51859237D01*
X123027667Y-51855584D01*
X123421595Y-51856890D01*
X123421595Y-51856890D01*
G37*
X123421595Y-51856890D02*
X123803203Y-51863154D01*
X124156351Y-51874380D01*
X124464899Y-51890566D01*
X124712707Y-51911711D01*
X124804195Y-51923451D01*
X125735516Y-52105041D01*
X126647432Y-52367250D01*
X127534108Y-52707124D01*
X128389710Y-53121710D01*
X129208403Y-53608054D01*
X129984351Y-54163203D01*
X130711719Y-54784204D01*
X130993690Y-55056310D01*
X131649806Y-55771467D01*
X132236798Y-56534641D01*
X132753222Y-57342984D01*
X133197640Y-58193649D01*
X133568609Y-59083787D01*
X133864689Y-60010550D01*
X134084439Y-60971091D01*
X134135239Y-61265257D01*
X134166221Y-61520855D01*
X134189918Y-61843057D01*
X134206331Y-62214116D01*
X134215458Y-62616285D01*
X134217300Y-63031814D01*
X134211857Y-63442958D01*
X134199128Y-63831966D01*
X134179115Y-64181093D01*
X134151816Y-64472589D01*
X134135239Y-64592409D01*
X133938571Y-65565040D01*
X133665721Y-66502617D01*
X133317361Y-67403381D01*
X132894167Y-68265573D01*
X132438245Y-69024833D01*
X131869212Y-69815372D01*
X131241349Y-70546321D01*
X130558084Y-71215473D01*
X129822843Y-71820617D01*
X129039055Y-72359546D01*
X128210146Y-72830050D01*
X127339544Y-73229920D01*
X126430676Y-73556947D01*
X125486970Y-73808923D01*
X124814500Y-73938328D01*
X124670448Y-73955563D01*
X124462424Y-73972084D01*
X124204928Y-73987472D01*
X123912460Y-74001312D01*
X123599521Y-74013184D01*
X123280612Y-74022673D01*
X122970232Y-74029360D01*
X122682883Y-74032828D01*
X122433065Y-74032659D01*
X122235279Y-74028436D01*
X122104025Y-74019741D01*
X122084000Y-74016937D01*
X121994798Y-74003926D01*
X121847800Y-73984440D01*
X121669293Y-73961924D01*
X121597167Y-73953110D01*
X120785542Y-73816906D01*
X119961938Y-73605793D01*
X119140989Y-73325236D01*
X118337330Y-72980699D01*
X117565597Y-72577648D01*
X117025167Y-72245912D01*
X116233801Y-71676382D01*
X115502361Y-71048308D01*
X114832999Y-70365041D01*
X114227867Y-69629929D01*
X113689116Y-68846322D01*
X113218900Y-68017568D01*
X112819371Y-67147017D01*
X112492681Y-66238019D01*
X112240981Y-65293922D01*
X112107094Y-64592409D01*
X112076112Y-64336812D01*
X112052415Y-64014609D01*
X112036002Y-63643550D01*
X112026875Y-63241382D01*
X112025033Y-62825852D01*
X112030476Y-62414709D01*
X112043205Y-62025700D01*
X112063218Y-61676574D01*
X112090517Y-61385077D01*
X112107094Y-61265257D01*
X112303762Y-60292627D01*
X112331203Y-60198333D01*
X117724086Y-60198333D01*
X117748762Y-60797212D01*
X117823507Y-61329829D01*
X117949109Y-61798774D01*
X118126359Y-62206632D01*
X118356047Y-62555991D01*
X118490429Y-62709155D01*
X118592444Y-62816594D01*
X118666349Y-62897477D01*
X118697175Y-62935392D01*
X118697333Y-62936035D01*
X118668934Y-62968869D01*
X118595397Y-63041315D01*
X118517417Y-63114648D01*
X118277455Y-63391649D01*
X118078472Y-63738466D01*
X117922071Y-64149965D01*
X117809851Y-64621011D01*
X117743414Y-65146469D01*
X117724086Y-65659333D01*
X117749602Y-66273890D01*
X117826066Y-66820996D01*
X117953646Y-67300948D01*
X118132507Y-67714041D01*
X118362817Y-68060573D01*
X118644742Y-68340838D01*
X118978449Y-68555134D01*
X119364105Y-68703756D01*
X119450089Y-68726259D01*
X119646549Y-68758937D01*
X119897031Y-68779342D01*
X120171722Y-68787040D01*
X120440810Y-68781600D01*
X120674482Y-68762588D01*
X120780166Y-68745561D01*
X121159145Y-68625697D01*
X121510915Y-68433772D01*
X121821599Y-68180361D01*
X122077321Y-67876038D01*
X122205894Y-67659115D01*
X122363178Y-67273730D01*
X122480525Y-66826907D01*
X122556141Y-66332796D01*
X122588229Y-65805547D01*
X122574994Y-65259310D01*
X122548303Y-64960833D01*
X122458376Y-64429666D01*
X122315897Y-63961006D01*
X122144978Y-63605294D01*
X123417402Y-63605294D01*
X123417406Y-64181901D01*
X123417958Y-64685803D01*
X123419507Y-65122979D01*
X123422500Y-65499408D01*
X123427382Y-65821072D01*
X123434602Y-66093950D01*
X123444607Y-66324021D01*
X123457843Y-66517267D01*
X123474757Y-66679666D01*
X123495798Y-66817200D01*
X123521411Y-66935847D01*
X123552045Y-67041589D01*
X123588145Y-67140404D01*
X123630160Y-67238273D01*
X123678536Y-67341176D01*
X123733720Y-67455092D01*
X123758111Y-67505732D01*
X123983592Y-67887590D01*
X124262032Y-68206031D01*
X124589351Y-68457736D01*
X124961470Y-68639390D01*
X125259000Y-68725844D01*
X125552958Y-68768926D01*
X125890431Y-68785906D01*
X126234380Y-68776739D01*
X126547763Y-68741379D01*
X126621482Y-68727511D01*
X126950619Y-68637672D01*
X127231714Y-68509086D01*
X127491980Y-68326864D01*
X127696874Y-68139077D01*
X127952001Y-67843748D01*
X128156190Y-67512913D01*
X128319023Y-67129250D01*
X128401038Y-66865833D01*
X128418206Y-66802512D01*
X128433177Y-66740595D01*
X128446129Y-66674015D01*
X128457243Y-66596705D01*
X128466698Y-66502598D01*
X128474674Y-66385626D01*
X128481351Y-66239723D01*
X128486907Y-66058821D01*
X128491524Y-65836854D01*
X128495379Y-65567755D01*
X128498654Y-65245455D01*
X128501527Y-64863889D01*
X128504178Y-64416989D01*
X128506787Y-63898687D01*
X128509534Y-63302918D01*
X128510075Y-63182833D01*
X128512733Y-62494615D01*
X128514106Y-61887085D01*
X128514158Y-61356270D01*
X128512849Y-60898201D01*
X128510144Y-60508907D01*
X128506002Y-60184418D01*
X128500388Y-59920763D01*
X128493264Y-59713971D01*
X128484590Y-59560072D01*
X128474652Y-59457500D01*
X128377945Y-58946645D01*
X128231063Y-58501285D01*
X128032246Y-58117457D01*
X127779737Y-57791201D01*
X127698763Y-57709232D01*
X127389934Y-57456293D01*
X127054853Y-57269772D01*
X126682455Y-57145640D01*
X126261676Y-57079870D01*
X125932522Y-57066402D01*
X125447414Y-57099831D01*
X125011973Y-57201806D01*
X124626495Y-57372092D01*
X124291277Y-57610452D01*
X124006616Y-57916649D01*
X123772809Y-58290447D01*
X123590154Y-58731609D01*
X123514396Y-58991833D01*
X123417500Y-59372833D01*
X123417500Y-62950000D01*
X123417402Y-63605294D01*
X122144978Y-63605294D01*
X122121573Y-63556585D01*
X121876110Y-63218138D01*
X121806941Y-63144143D01*
X121584214Y-62917829D01*
X121812021Y-62692852D01*
X122059828Y-62390653D01*
X122261970Y-62020572D01*
X122417136Y-61586849D01*
X122524011Y-61093721D01*
X122581283Y-60545429D01*
X122591305Y-60177167D01*
X122565572Y-59592475D01*
X122489123Y-59062263D01*
X122363086Y-58590323D01*
X122188586Y-58180443D01*
X121966750Y-57836416D01*
X121858293Y-57710946D01*
X121593785Y-57471099D01*
X121306809Y-57293288D01*
X120982948Y-57171471D01*
X120607788Y-57099604D01*
X120347793Y-57077722D01*
X119852008Y-57082987D01*
X119408959Y-57153237D01*
X119018325Y-57288851D01*
X118679788Y-57490211D01*
X118393027Y-57757695D01*
X118157723Y-58091686D01*
X117973556Y-58492563D01*
X117840206Y-58960705D01*
X117757354Y-59496495D01*
X117724680Y-60100311D01*
X117724086Y-60198333D01*
X112331203Y-60198333D01*
X112576612Y-59355049D01*
X112924972Y-58454285D01*
X113348166Y-57592094D01*
X113804088Y-56832833D01*
X114366422Y-56052211D01*
X114989164Y-55327477D01*
X115667638Y-54661640D01*
X116397164Y-54057708D01*
X117173064Y-53518690D01*
X117990658Y-53047595D01*
X118845269Y-52647432D01*
X119732219Y-52321209D01*
X120646827Y-52071935D01*
X121438138Y-51923451D01*
X121651562Y-51899958D01*
X121933367Y-51881424D01*
X122267413Y-51867850D01*
X122637560Y-51859237D01*
X123027667Y-51855584D01*
X123421595Y-51856890D01*
G36*
X120473807Y-63193835D02*
X120732811Y-63232005D01*
X120902026Y-63280989D01*
X121170103Y-63418160D01*
X121392755Y-63603637D01*
X121573031Y-63843139D01*
X121713977Y-64142387D01*
X121818642Y-64507099D01*
X121890073Y-64942995D01*
X121913426Y-65178886D01*
X121933823Y-65654107D01*
X121918911Y-66120013D01*
X121870673Y-66559532D01*
X121791091Y-66955596D01*
X121682147Y-67291135D01*
X121662910Y-67336287D01*
X121525581Y-67563777D01*
X121330155Y-67778057D01*
X121102257Y-67953280D01*
X120989381Y-68015673D01*
X120875875Y-68065974D01*
X120769711Y-68099884D01*
X120648512Y-68121177D01*
X120489898Y-68133630D01*
X120271492Y-68141018D01*
X120242500Y-68141692D01*
X120030758Y-68143502D01*
X119838784Y-68139754D01*
X119688834Y-68131211D01*
X119607500Y-68119873D01*
X119283740Y-67997687D01*
X119004955Y-67816833D01*
X118783149Y-67586585D01*
X118662878Y-67390107D01*
X118569270Y-67175621D01*
X118498171Y-66958348D01*
X118446964Y-66722309D01*
X118413032Y-66451526D01*
X118393758Y-66130021D01*
X118386527Y-65741816D01*
X118386373Y-65701667D01*
X118386717Y-65399018D01*
X118390552Y-65163485D01*
X118399210Y-64977547D01*
X118414026Y-64823679D01*
X118436332Y-64684360D01*
X118467462Y-64542067D01*
X118477836Y-64499725D01*
X118597649Y-64120954D01*
X118752922Y-63814193D01*
X118949155Y-63572262D01*
X119191850Y-63387982D01*
X119410773Y-63282062D01*
X119624857Y-63223909D01*
X119891966Y-63189806D01*
X120184238Y-63179775D01*
X120473807Y-63193835D01*
X120473807Y-63193835D01*
G37*
X120473807Y-63193835D02*
X120732811Y-63232005D01*
X120902026Y-63280989D01*
X121170103Y-63418160D01*
X121392755Y-63603637D01*
X121573031Y-63843139D01*
X121713977Y-64142387D01*
X121818642Y-64507099D01*
X121890073Y-64942995D01*
X121913426Y-65178886D01*
X121933823Y-65654107D01*
X121918911Y-66120013D01*
X121870673Y-66559532D01*
X121791091Y-66955596D01*
X121682147Y-67291135D01*
X121662910Y-67336287D01*
X121525581Y-67563777D01*
X121330155Y-67778057D01*
X121102257Y-67953280D01*
X120989381Y-68015673D01*
X120875875Y-68065974D01*
X120769711Y-68099884D01*
X120648512Y-68121177D01*
X120489898Y-68133630D01*
X120271492Y-68141018D01*
X120242500Y-68141692D01*
X120030758Y-68143502D01*
X119838784Y-68139754D01*
X119688834Y-68131211D01*
X119607500Y-68119873D01*
X119283740Y-67997687D01*
X119004955Y-67816833D01*
X118783149Y-67586585D01*
X118662878Y-67390107D01*
X118569270Y-67175621D01*
X118498171Y-66958348D01*
X118446964Y-66722309D01*
X118413032Y-66451526D01*
X118393758Y-66130021D01*
X118386527Y-65741816D01*
X118386373Y-65701667D01*
X118386717Y-65399018D01*
X118390552Y-65163485D01*
X118399210Y-64977547D01*
X118414026Y-64823679D01*
X118436332Y-64684360D01*
X118467462Y-64542067D01*
X118477836Y-64499725D01*
X118597649Y-64120954D01*
X118752922Y-63814193D01*
X118949155Y-63572262D01*
X119191850Y-63387982D01*
X119410773Y-63282062D01*
X119624857Y-63223909D01*
X119891966Y-63189806D01*
X120184238Y-63179775D01*
X120473807Y-63193835D01*
G36*
X120413576Y-57723394D02*
X120583033Y-57728407D01*
X120706910Y-57740237D01*
X120804747Y-57761707D01*
X120896083Y-57795637D01*
X120989381Y-57839409D01*
X121243250Y-57995333D01*
X121451961Y-58195498D01*
X121618948Y-58446774D01*
X121747641Y-58756028D01*
X121841474Y-59130129D01*
X121903877Y-59575947D01*
X121914227Y-59690333D01*
X121934483Y-60142122D01*
X121922413Y-60587208D01*
X121880043Y-61009504D01*
X121809397Y-61392925D01*
X121712500Y-61721382D01*
X121636386Y-61897812D01*
X121451902Y-62172249D01*
X121208351Y-62389450D01*
X120910963Y-62547260D01*
X120564973Y-62643526D01*
X120175610Y-62676091D01*
X119807039Y-62651113D01*
X119450053Y-62568213D01*
X119142716Y-62421830D01*
X118890348Y-62215553D01*
X118698269Y-61952970D01*
X118659277Y-61876803D01*
X118564014Y-61653574D01*
X118491930Y-61429130D01*
X118440489Y-61187363D01*
X118407152Y-60912167D01*
X118389382Y-60587433D01*
X118384644Y-60197055D01*
X118384883Y-60134833D01*
X118392623Y-59737772D01*
X118412880Y-59408584D01*
X118448368Y-59131045D01*
X118501799Y-58888932D01*
X118575887Y-58666020D01*
X118664133Y-58464966D01*
X118818498Y-58229719D01*
X119032157Y-58019880D01*
X119279765Y-57858764D01*
X119365312Y-57819978D01*
X119477100Y-57779095D01*
X119586310Y-57751348D01*
X119713297Y-57734295D01*
X119878417Y-57725495D01*
X120102027Y-57722505D01*
X120179000Y-57722376D01*
X120413576Y-57723394D01*
X120413576Y-57723394D01*
G37*
X120413576Y-57723394D02*
X120583033Y-57728407D01*
X120706910Y-57740237D01*
X120804747Y-57761707D01*
X120896083Y-57795637D01*
X120989381Y-57839409D01*
X121243250Y-57995333D01*
X121451961Y-58195498D01*
X121618948Y-58446774D01*
X121747641Y-58756028D01*
X121841474Y-59130129D01*
X121903877Y-59575947D01*
X121914227Y-59690333D01*
X121934483Y-60142122D01*
X121922413Y-60587208D01*
X121880043Y-61009504D01*
X121809397Y-61392925D01*
X121712500Y-61721382D01*
X121636386Y-61897812D01*
X121451902Y-62172249D01*
X121208351Y-62389450D01*
X120910963Y-62547260D01*
X120564973Y-62643526D01*
X120175610Y-62676091D01*
X119807039Y-62651113D01*
X119450053Y-62568213D01*
X119142716Y-62421830D01*
X118890348Y-62215553D01*
X118698269Y-61952970D01*
X118659277Y-61876803D01*
X118564014Y-61653574D01*
X118491930Y-61429130D01*
X118440489Y-61187363D01*
X118407152Y-60912167D01*
X118389382Y-60587433D01*
X118384644Y-60197055D01*
X118384883Y-60134833D01*
X118392623Y-59737772D01*
X118412880Y-59408584D01*
X118448368Y-59131045D01*
X118501799Y-58888932D01*
X118575887Y-58666020D01*
X118664133Y-58464966D01*
X118818498Y-58229719D01*
X119032157Y-58019880D01*
X119279765Y-57858764D01*
X119365312Y-57819978D01*
X119477100Y-57779095D01*
X119586310Y-57751348D01*
X119713297Y-57734295D01*
X119878417Y-57725495D01*
X120102027Y-57722505D01*
X120179000Y-57722376D01*
X120413576Y-57723394D01*
G36*
X126243209Y-57717688D02*
X126620790Y-57783514D01*
X126942932Y-57909406D01*
X127213652Y-58097383D01*
X127436971Y-58349465D01*
X127587250Y-58604835D01*
X127634755Y-58702076D01*
X127676454Y-58792004D01*
X127712724Y-58880562D01*
X127743945Y-58973696D01*
X127770495Y-59077351D01*
X127792753Y-59197473D01*
X127811096Y-59340005D01*
X127825904Y-59510894D01*
X127837555Y-59716085D01*
X127846427Y-59961522D01*
X127852899Y-60253152D01*
X127857349Y-60596918D01*
X127860155Y-60998766D01*
X127861697Y-61464642D01*
X127862352Y-62000490D01*
X127862499Y-62612256D01*
X127862500Y-62928833D01*
X127862462Y-63578454D01*
X127862096Y-64149355D01*
X127861021Y-64647482D01*
X127858860Y-65078782D01*
X127855232Y-65449201D01*
X127849759Y-65764686D01*
X127842060Y-66031182D01*
X127831758Y-66254637D01*
X127818471Y-66440997D01*
X127801823Y-66596209D01*
X127781432Y-66726218D01*
X127756919Y-66836971D01*
X127727906Y-66934415D01*
X127694014Y-67024496D01*
X127654862Y-67113160D01*
X127610071Y-67206354D01*
X127586625Y-67254102D01*
X127418245Y-67517661D01*
X127193339Y-67754837D01*
X126935077Y-67943987D01*
X126751108Y-68034572D01*
X126539724Y-68093377D01*
X126274430Y-68132134D01*
X125983044Y-68150019D01*
X125693387Y-68146210D01*
X125433278Y-68119884D01*
X125255145Y-68078841D01*
X124934304Y-67935766D01*
X124663684Y-67732186D01*
X124439864Y-67464078D01*
X124259418Y-67127423D01*
X124129701Y-66756977D01*
X124115933Y-66704195D01*
X124103899Y-66645467D01*
X124093482Y-66575053D01*
X124084567Y-66487210D01*
X124077039Y-66376195D01*
X124070780Y-66236265D01*
X124065676Y-66061677D01*
X124061610Y-65846690D01*
X124058468Y-65585561D01*
X124056132Y-65272547D01*
X124054488Y-64901905D01*
X124053419Y-64467893D01*
X124052809Y-63964769D01*
X124052543Y-63386789D01*
X124052500Y-62928833D01*
X124052450Y-62277388D01*
X124052554Y-61704745D01*
X124053191Y-61205041D01*
X124054740Y-60772412D01*
X124057580Y-60400996D01*
X124062091Y-60084928D01*
X124068652Y-59818344D01*
X124077642Y-59595381D01*
X124089440Y-59410175D01*
X124104426Y-59256863D01*
X124122979Y-59129581D01*
X124145479Y-59022465D01*
X124172304Y-58929652D01*
X124203834Y-58845278D01*
X124240448Y-58763479D01*
X124282526Y-58678392D01*
X124330446Y-58584154D01*
X124333976Y-58577167D01*
X124516124Y-58280933D01*
X124733532Y-58051776D01*
X124994535Y-57884786D01*
X125307466Y-57775056D01*
X125680658Y-57717674D01*
X125806169Y-57709910D01*
X126243209Y-57717688D01*
X126243209Y-57717688D01*
G37*
X126243209Y-57717688D02*
X126620790Y-57783514D01*
X126942932Y-57909406D01*
X127213652Y-58097383D01*
X127436971Y-58349465D01*
X127587250Y-58604835D01*
X127634755Y-58702076D01*
X127676454Y-58792004D01*
X127712724Y-58880562D01*
X127743945Y-58973696D01*
X127770495Y-59077351D01*
X127792753Y-59197473D01*
X127811096Y-59340005D01*
X127825904Y-59510894D01*
X127837555Y-59716085D01*
X127846427Y-59961522D01*
X127852899Y-60253152D01*
X127857349Y-60596918D01*
X127860155Y-60998766D01*
X127861697Y-61464642D01*
X127862352Y-62000490D01*
X127862499Y-62612256D01*
X127862500Y-62928833D01*
X127862462Y-63578454D01*
X127862096Y-64149355D01*
X127861021Y-64647482D01*
X127858860Y-65078782D01*
X127855232Y-65449201D01*
X127849759Y-65764686D01*
X127842060Y-66031182D01*
X127831758Y-66254637D01*
X127818471Y-66440997D01*
X127801823Y-66596209D01*
X127781432Y-66726218D01*
X127756919Y-66836971D01*
X127727906Y-66934415D01*
X127694014Y-67024496D01*
X127654862Y-67113160D01*
X127610071Y-67206354D01*
X127586625Y-67254102D01*
X127418245Y-67517661D01*
X127193339Y-67754837D01*
X126935077Y-67943987D01*
X126751108Y-68034572D01*
X126539724Y-68093377D01*
X126274430Y-68132134D01*
X125983044Y-68150019D01*
X125693387Y-68146210D01*
X125433278Y-68119884D01*
X125255145Y-68078841D01*
X124934304Y-67935766D01*
X124663684Y-67732186D01*
X124439864Y-67464078D01*
X124259418Y-67127423D01*
X124129701Y-66756977D01*
X124115933Y-66704195D01*
X124103899Y-66645467D01*
X124093482Y-66575053D01*
X124084567Y-66487210D01*
X124077039Y-66376195D01*
X124070780Y-66236265D01*
X124065676Y-66061677D01*
X124061610Y-65846690D01*
X124058468Y-65585561D01*
X124056132Y-65272547D01*
X124054488Y-64901905D01*
X124053419Y-64467893D01*
X124052809Y-63964769D01*
X124052543Y-63386789D01*
X124052500Y-62928833D01*
X124052450Y-62277388D01*
X124052554Y-61704745D01*
X124053191Y-61205041D01*
X124054740Y-60772412D01*
X124057580Y-60400996D01*
X124062091Y-60084928D01*
X124068652Y-59818344D01*
X124077642Y-59595381D01*
X124089440Y-59410175D01*
X124104426Y-59256863D01*
X124122979Y-59129581D01*
X124145479Y-59022465D01*
X124172304Y-58929652D01*
X124203834Y-58845278D01*
X124240448Y-58763479D01*
X124282526Y-58678392D01*
X124330446Y-58584154D01*
X124333976Y-58577167D01*
X124516124Y-58280933D01*
X124733532Y-58051776D01*
X124994535Y-57884786D01*
X125307466Y-57775056D01*
X125680658Y-57717674D01*
X125806169Y-57709910D01*
X126243209Y-57717688D01*
M02*
