G04 #@! TF.FileFunction,Soldermask,Bot*
%FSLAX46Y46*%
G04 Gerber Fmt 4.6, Leading zero omitted, Abs format (unit mm)*
G04 Created by KiCad (PCBNEW 4.0.2-stable) date 2017-11-27 2:33:33 PM*
%MOMM*%
G01*
G04 APERTURE LIST*
%ADD10C,0.200000*%
%ADD11R,1.300000X1.300000*%
%ADD12C,1.300000*%
%ADD13O,4.100000X2.600000*%
%ADD14O,2.600000X2.100000*%
%ADD15O,1.600000X3.600000*%
%ADD16R,1.800000X1.800000*%
%ADD17O,1.800000X1.800000*%
%ADD18O,2.900000X3.600000*%
%ADD19C,1.850000*%
%ADD20O,2.300000X1.500000*%
%ADD21O,2.350000X1.500000*%
%ADD22R,2.299640X0.699440*%
%ADD23R,0.801040X1.100760*%
%ADD24R,1.100760X0.801040*%
%ADD25R,1.243000X1.497000*%
%ADD26R,0.900000X0.600000*%
%ADD27R,0.912800X1.243000*%
%ADD28R,1.243000X0.912800*%
%ADD29R,1.400480X0.500000*%
%ADD30R,0.500000X1.400480*%
%ADD31R,1.600000X0.550000*%
%ADD32R,1.550000X0.550000*%
%ADD33R,1.160000X0.750000*%
%ADD34R,3.099740X1.700200*%
%ADD35R,1.700200X3.099740*%
%ADD36R,2.497760X2.497760*%
%ADD37R,1.497000X1.243000*%
%ADD38R,1.700000X1.600000*%
%ADD39R,0.709600X0.862000*%
%ADD40R,0.862000X0.709600*%
G04 APERTURE END LIST*
D10*
D11*
X128710000Y-40730000D03*
D12*
X131250000Y-40730000D03*
D11*
X128710000Y-45730000D03*
D12*
X131250000Y-45730000D03*
D11*
X128710000Y-50730000D03*
D12*
X131250000Y-50730000D03*
D11*
X128710000Y-55730000D03*
D12*
X131250000Y-55730000D03*
D13*
X123100000Y-64950000D03*
D14*
X123100000Y-74350000D03*
D15*
X128000000Y-69650000D03*
X119800000Y-69650000D03*
D13*
X123600000Y-88950000D03*
D14*
X123600000Y-98350000D03*
D15*
X128500000Y-93650000D03*
X120300000Y-93650000D03*
D13*
X137100000Y-133450000D03*
D14*
X137100000Y-142850000D03*
D15*
X142000000Y-138150000D03*
X133800000Y-138150000D03*
D13*
X123100000Y-112950000D03*
D14*
X123100000Y-122350000D03*
D15*
X128000000Y-117650000D03*
X119800000Y-117650000D03*
D13*
X123100000Y-133460000D03*
D14*
X123100000Y-142860000D03*
D15*
X128000000Y-138160000D03*
X119800000Y-138160000D03*
D13*
X151100000Y-142850000D03*
D14*
X151100000Y-133450000D03*
D15*
X146200000Y-138150000D03*
X154400000Y-138150000D03*
D16*
X151500000Y-59250000D03*
D17*
X154040000Y-59250000D03*
X151500000Y-56710000D03*
X154040000Y-56710000D03*
X151500000Y-54170000D03*
X154040000Y-54170000D03*
X151500000Y-51630000D03*
X154040000Y-51630000D03*
X151500000Y-49090000D03*
X154040000Y-49090000D03*
D18*
X148890000Y-45650000D03*
X139290000Y-45650000D03*
D19*
X146590000Y-53150000D03*
X144090000Y-53150000D03*
X141590000Y-53150000D03*
D18*
X148890000Y-69650000D03*
X139290000Y-69650000D03*
D19*
X146590000Y-77150000D03*
X144090000Y-77150000D03*
X141590000Y-77150000D03*
D18*
X148890000Y-93650000D03*
X139290000Y-93650000D03*
D19*
X146590000Y-101150000D03*
X144090000Y-101150000D03*
X141590000Y-101150000D03*
D20*
X119850000Y-46000000D03*
X119850000Y-50500000D03*
D21*
X126350000Y-46000000D03*
X126350000Y-50500000D03*
D22*
X135848420Y-80055000D03*
X135848420Y-81325000D03*
X135848420Y-82595000D03*
X135848420Y-83865000D03*
X135848420Y-85135000D03*
X135848420Y-86405000D03*
X135848420Y-87675000D03*
X135848420Y-88945000D03*
X130651580Y-88945000D03*
X130651580Y-87675000D03*
X130651580Y-86405000D03*
X130651580Y-85135000D03*
X130651580Y-83865000D03*
X130651580Y-82595000D03*
X130651580Y-81325000D03*
X130651580Y-80055000D03*
X130651580Y-105945000D03*
X130651580Y-104675000D03*
X130651580Y-103405000D03*
X130651580Y-102135000D03*
X130651580Y-100865000D03*
X130651580Y-99595000D03*
X130651580Y-98325000D03*
X130651580Y-97055000D03*
X135848420Y-97055000D03*
X135848420Y-98325000D03*
X135848420Y-99595000D03*
X135848420Y-100865000D03*
X135848420Y-102135000D03*
X135848420Y-103405000D03*
X135848420Y-104675000D03*
X135848420Y-105945000D03*
X135848420Y-114805000D03*
X135848420Y-116075000D03*
X135848420Y-117345000D03*
X135848420Y-118615000D03*
X135848420Y-119885000D03*
X135848420Y-121155000D03*
X135848420Y-122425000D03*
X135848420Y-123695000D03*
X130651580Y-123695000D03*
X130651580Y-122425000D03*
X130651580Y-121155000D03*
X130651580Y-119885000D03*
X130651580Y-118615000D03*
X130651580Y-117345000D03*
X130651580Y-116075000D03*
X130651580Y-114805000D03*
X149848420Y-105305000D03*
X149848420Y-106575000D03*
X149848420Y-107845000D03*
X149848420Y-109115000D03*
X149848420Y-110385000D03*
X149848420Y-111655000D03*
X149848420Y-112925000D03*
X149848420Y-114195000D03*
X144651580Y-114195000D03*
X144651580Y-112925000D03*
X144651580Y-111655000D03*
X144651580Y-110385000D03*
X144651580Y-109115000D03*
X144651580Y-107845000D03*
X144651580Y-106575000D03*
X144651580Y-105305000D03*
D23*
X138750000Y-122980000D03*
X137797500Y-125520000D03*
X139702500Y-125520000D03*
X127000000Y-122730000D03*
X126047500Y-125270000D03*
X127952500Y-125270000D03*
D24*
X127020000Y-85500000D03*
X124480000Y-84547500D03*
X124480000Y-86452500D03*
X139480000Y-85500000D03*
X142020000Y-86452500D03*
X142020000Y-84547500D03*
D25*
X139670500Y-83000000D03*
X141829500Y-83000000D03*
X126829500Y-83000000D03*
X124670500Y-83000000D03*
X127329500Y-120750000D03*
X125170500Y-120750000D03*
X139170500Y-121000000D03*
X141329500Y-121000000D03*
D26*
X134250000Y-74100000D03*
X132250000Y-74750000D03*
X134250000Y-75400000D03*
X134250000Y-74750000D03*
X132250000Y-75400000D03*
X132250000Y-74100000D03*
X148000000Y-88100000D03*
X146000000Y-88750000D03*
X148000000Y-89400000D03*
X148000000Y-88750000D03*
X146000000Y-89400000D03*
X146000000Y-88100000D03*
D27*
X137100900Y-59750000D03*
X135399100Y-59750000D03*
D28*
X131750000Y-61649100D03*
X131750000Y-63350900D03*
X130000000Y-63350900D03*
X130000000Y-61649100D03*
D27*
X149350900Y-83000000D03*
X147649100Y-83000000D03*
X151649100Y-84750000D03*
X153350900Y-84750000D03*
X150149100Y-72500000D03*
X151850900Y-72500000D03*
X138149100Y-101750000D03*
X139850900Y-101750000D03*
X138149100Y-98250000D03*
X139850900Y-98250000D03*
X138149100Y-100000000D03*
X139850900Y-100000000D03*
X134399100Y-127000000D03*
X136100900Y-127000000D03*
X135850900Y-113000000D03*
X134149100Y-113000000D03*
X136100900Y-125250000D03*
X134399100Y-125250000D03*
X131350900Y-47750000D03*
X129649100Y-47750000D03*
X135149100Y-111000000D03*
X136850900Y-111000000D03*
D28*
X142000000Y-107649100D03*
X142000000Y-109350900D03*
D27*
X122649100Y-69500000D03*
X124350900Y-69500000D03*
D28*
X140250000Y-112850900D03*
X140250000Y-111149100D03*
X119750000Y-64149100D03*
X119750000Y-65850900D03*
D27*
X132649100Y-49500000D03*
X134350900Y-49500000D03*
X131600900Y-127000000D03*
X129899100Y-127000000D03*
X130649100Y-113000000D03*
X132350900Y-113000000D03*
D28*
X149000000Y-103600900D03*
X149000000Y-101899100D03*
X148250000Y-138100900D03*
X148250000Y-136399100D03*
D27*
X129899100Y-125250000D03*
X131600900Y-125250000D03*
D28*
X128250000Y-113850900D03*
X128250000Y-112149100D03*
X138500000Y-109350900D03*
X138500000Y-107649100D03*
X138500000Y-111149100D03*
X138500000Y-112850900D03*
D27*
X121399100Y-103500000D03*
X123100900Y-103500000D03*
D28*
X128250000Y-110850900D03*
X128250000Y-109149100D03*
D27*
X138149100Y-106000000D03*
X139850900Y-106000000D03*
D28*
X124750000Y-110600900D03*
X124750000Y-108899100D03*
X142500000Y-116649100D03*
X142500000Y-118350900D03*
X124750000Y-107600900D03*
X124750000Y-105899100D03*
X138250000Y-79350900D03*
X138250000Y-77649100D03*
X154250000Y-115600900D03*
X154250000Y-113899100D03*
D27*
X130350900Y-42750000D03*
X128649100Y-42750000D03*
D28*
X152500000Y-115600900D03*
X152500000Y-113899100D03*
D27*
X130899100Y-78250000D03*
X132600900Y-78250000D03*
X124899100Y-81000000D03*
X126600900Y-81000000D03*
X126600900Y-79250000D03*
X124899100Y-79250000D03*
D28*
X154250000Y-105899100D03*
X154250000Y-107600900D03*
X152500000Y-107600900D03*
X152500000Y-105899100D03*
X146000000Y-119649100D03*
X146000000Y-121350900D03*
D27*
X122149100Y-79250000D03*
X123850900Y-79250000D03*
X135850900Y-78250000D03*
X134149100Y-78250000D03*
D28*
X150750000Y-103600900D03*
X150750000Y-101899100D03*
D27*
X141350900Y-81000000D03*
X139649100Y-81000000D03*
D28*
X139750000Y-79350900D03*
X139750000Y-77649100D03*
X130250000Y-71100900D03*
X130250000Y-69399100D03*
X138250000Y-74100900D03*
X138250000Y-72399100D03*
X148750000Y-132100900D03*
X148750000Y-130399100D03*
D27*
X129149100Y-76500000D03*
X130850900Y-76500000D03*
D28*
X152500000Y-110399100D03*
X152500000Y-112100900D03*
D27*
X129149100Y-73000000D03*
X130850900Y-73000000D03*
X152850900Y-127250000D03*
X151149100Y-127250000D03*
D28*
X143750000Y-88149100D03*
X143750000Y-89850900D03*
X150000000Y-86350900D03*
X150000000Y-84649100D03*
D27*
X149850900Y-127250000D03*
X148149100Y-127250000D03*
X129149100Y-74750000D03*
X130850900Y-74750000D03*
X133149100Y-65000000D03*
X134850900Y-65000000D03*
D28*
X146750000Y-74100900D03*
X146750000Y-72399100D03*
D27*
X145350900Y-127250000D03*
X143649100Y-127250000D03*
X136149100Y-65000000D03*
X137850900Y-65000000D03*
D28*
X142500000Y-74100900D03*
X142500000Y-72399100D03*
X144250000Y-74100900D03*
X144250000Y-72399100D03*
X140250000Y-58100900D03*
X140250000Y-56399100D03*
X148500000Y-74100900D03*
X148500000Y-72399100D03*
D27*
X138600900Y-130500000D03*
X136899100Y-130500000D03*
X138600900Y-128750000D03*
X136899100Y-128750000D03*
X140100900Y-59750000D03*
X138399100Y-59750000D03*
D28*
X142000000Y-58100900D03*
X142000000Y-56399100D03*
D27*
X153350900Y-86500000D03*
X151649100Y-86500000D03*
X141399100Y-59750000D03*
X143100900Y-59750000D03*
X153149100Y-72500000D03*
X154850900Y-72500000D03*
X145899100Y-79250000D03*
X147600900Y-79250000D03*
D29*
X130556000Y-109455400D03*
X130556000Y-108820400D03*
X130556000Y-108160000D03*
X130556000Y-107525000D03*
X136144000Y-107525000D03*
X136144000Y-108172700D03*
X136144000Y-108820400D03*
X136144000Y-109468100D03*
X140556000Y-132205400D03*
X140556000Y-131570400D03*
X140556000Y-130910000D03*
X140556000Y-130275000D03*
X146144000Y-130275000D03*
X146144000Y-130922700D03*
X146144000Y-131570400D03*
X146144000Y-132218100D03*
D30*
X150544600Y-74806000D03*
X151179600Y-74806000D03*
X151840000Y-74806000D03*
X152475000Y-74806000D03*
X152475000Y-80394000D03*
X151827300Y-80394000D03*
X151179600Y-80394000D03*
X150531900Y-80394000D03*
D29*
X139694000Y-61544600D03*
X139694000Y-62179600D03*
X139694000Y-62840000D03*
X139694000Y-63475000D03*
X134106000Y-63475000D03*
X134106000Y-62827300D03*
X134106000Y-62179600D03*
X134106000Y-61531900D03*
D31*
X125950000Y-52225000D03*
X125950000Y-52875000D03*
X125950000Y-53525000D03*
X125950000Y-54175000D03*
X125950000Y-54825000D03*
X125950000Y-55475000D03*
X125950000Y-56125000D03*
X125950000Y-56775000D03*
X120050000Y-56775000D03*
X120050000Y-56125000D03*
X120050000Y-55475000D03*
X120050000Y-54825000D03*
X120050000Y-54175000D03*
X120050000Y-53525000D03*
X120050000Y-52875000D03*
X120050000Y-52225000D03*
X125950000Y-39725000D03*
X125950000Y-40375000D03*
X125950000Y-41025000D03*
X125950000Y-41675000D03*
X125950000Y-42325000D03*
X125950000Y-42975000D03*
X125950000Y-43625000D03*
X125950000Y-44275000D03*
X120050000Y-44275000D03*
X120050000Y-43625000D03*
X120050000Y-42975000D03*
X120050000Y-42325000D03*
X120050000Y-41675000D03*
X120050000Y-41025000D03*
X120050000Y-40375000D03*
X120050000Y-39725000D03*
D32*
X125950000Y-58550000D03*
X125950000Y-59200000D03*
X125950000Y-59850000D03*
X125950000Y-60500000D03*
X125950000Y-61150000D03*
X125950000Y-61800000D03*
X125950000Y-62450000D03*
X120050000Y-62450000D03*
X120050000Y-61800000D03*
X120050000Y-61150000D03*
X120050000Y-60500000D03*
X120050000Y-59850000D03*
X120050000Y-59200000D03*
X120050000Y-58550000D03*
D18*
X148890000Y-117650000D03*
X139290000Y-117650000D03*
D19*
X146590000Y-125150000D03*
X144090000Y-125150000D03*
X141590000Y-125150000D03*
D33*
X134350000Y-68300000D03*
X134350000Y-69250000D03*
X134350000Y-70200000D03*
X132150000Y-70200000D03*
X132150000Y-68300000D03*
X145850000Y-84550000D03*
X145850000Y-85500000D03*
X145850000Y-86450000D03*
X143650000Y-86450000D03*
X143650000Y-84550000D03*
D34*
X141800360Y-49000000D03*
X146199640Y-49000000D03*
X146199640Y-41750000D03*
X141800360Y-41750000D03*
D35*
X144000000Y-96949640D03*
X144000000Y-92550360D03*
D36*
X149800360Y-65500000D03*
X154199640Y-65500000D03*
X154199640Y-41750000D03*
X149800360Y-41750000D03*
D37*
X127500000Y-72920500D03*
X127500000Y-75079500D03*
D25*
X151920500Y-46250000D03*
X154079500Y-46250000D03*
X151920500Y-62250000D03*
X154079500Y-62250000D03*
D38*
X144250000Y-70450000D03*
D11*
X143250000Y-67200000D03*
X145250000Y-67200000D03*
D38*
X137250000Y-55950000D03*
D11*
X136250000Y-52700000D03*
X138250000Y-52700000D03*
D27*
X136149100Y-67000000D03*
X137850900Y-67000000D03*
X151399100Y-69500000D03*
X153100900Y-69500000D03*
X139600900Y-90250000D03*
X137899100Y-90250000D03*
X128850900Y-90250000D03*
X127149100Y-90250000D03*
X122649100Y-71250000D03*
X124350900Y-71250000D03*
X132649100Y-47750000D03*
X134350900Y-47750000D03*
D28*
X126500000Y-104600900D03*
X126500000Y-102899100D03*
D27*
X138149100Y-104000000D03*
X139850900Y-104000000D03*
D28*
X154250000Y-76600900D03*
X154250000Y-74899100D03*
X154250000Y-77899100D03*
X154250000Y-79600900D03*
X140500000Y-127149100D03*
X140500000Y-128850900D03*
X146250000Y-133399100D03*
X146250000Y-135100900D03*
D27*
X141350900Y-65000000D03*
X139649100Y-65000000D03*
D28*
X131750000Y-60350900D03*
X131750000Y-58649100D03*
X140250000Y-109350900D03*
X140250000Y-107649100D03*
X128250000Y-107600900D03*
X128250000Y-105899100D03*
X144250000Y-118350900D03*
X144250000Y-116649100D03*
D27*
X134100900Y-71500000D03*
X132399100Y-71500000D03*
X151149100Y-129000000D03*
X152850900Y-129000000D03*
D28*
X154250000Y-112100900D03*
X154250000Y-110399100D03*
X148500000Y-84649100D03*
X148500000Y-86350900D03*
D27*
X145350900Y-128750000D03*
X143649100Y-128750000D03*
D39*
X150755400Y-83000000D03*
X153244600Y-83000000D03*
X122005400Y-67500000D03*
X124494600Y-67500000D03*
D40*
X121300000Y-107744600D03*
X121300000Y-105255400D03*
X123000000Y-105255400D03*
X123000000Y-107744600D03*
M02*
