  0
SECTION
  2
HEADER
  9
$ANGBASE
  50
0.0
  9
$ANGDIR
  70
  1
  9
$MEASUREMENT
  70
0
  0
ENDSEC
  0
SECTION
  2
TABLES
  0
TABLE
  2
LTYPE
  70
1
  0
LTYPE
  2
CONTINUOUS
  70
0
  3
Solid line
  72
65
  73
0
  40
0.0
  0
ENDTAB
  0
TABLE
  2
STYLE
  70
4
  0
STYLE
  2
KICAD
  70
0
  40
0
  41
1
  42
1
  50
0
  71
0
  3
isocp.shx
  0
STYLE
  2
KICADB
  70
0
  40
0
  41
1
  42
1
  50
0
  71
0
  3
isocp.shx
  0
STYLE
  2
KICADI
  70
0
  40
0
  41
1
  42
1
  50
15
  71
0
  3
isocp.shx
  0
STYLE
  2
KICADBI
  70
0
  40
0
  41
1
  42
1
  50
15
  71
0
  3
isocp.shx
  0
ENDTAB
  0
TABLE
  2
LAYER
  70
30
  0
LAYER
  2
BLACK
  70
0
  62
7
  6
CONTINUOUS
  0
LAYER
  2
GRAY1
  70
0
  62
251
  6
CONTINUOUS
  0
LAYER
  2
GRAY2
  70
0
  62
8
  6
CONTINUOUS
  0
LAYER
  2
GRAY3
  70
0
  62
9
  6
CONTINUOUS
  0
LAYER
  2
WHITE
  70
0
  62
7
  6
CONTINUOUS
  0
LAYER
  2
LYELLOW
  70
0
  62
51
  6
CONTINUOUS
  0
LAYER
  2
BLUE1
  70
0
  62
178
  6
CONTINUOUS
  0
LAYER
  2
GREEN1
  70
0
  62
98
  6
CONTINUOUS
  0
LAYER
  2
CYAN1
  70
0
  62
138
  6
CONTINUOUS
  0
LAYER
  2
RED1
  70
0
  62
18
  6
CONTINUOUS
  0
LAYER
  2
MAGENTA1
  70
0
  62
228
  6
CONTINUOUS
  0
LAYER
  2
BROWN1
  70
0
  62
58
  6
CONTINUOUS
  0
LAYER
  2
BLUE2
  70
0
  62
5
  6
CONTINUOUS
  0
LAYER
  2
GREEN2
  70
0
  62
3
  6
CONTINUOUS
  0
LAYER
  2
CYAN2
  70
0
  62
4
  6
CONTINUOUS
  0
LAYER
  2
RED2
  70
0
  62
1
  6
CONTINUOUS
  0
LAYER
  2
MAGENTA2
  70
0
  62
6
  6
CONTINUOUS
  0
LAYER
  2
BROWN2
  70
0
  62
54
  6
CONTINUOUS
  0
LAYER
  2
BLUE3
  70
0
  62
171
  6
CONTINUOUS
  0
LAYER
  2
GREEN3
  70
0
  62
91
  6
CONTINUOUS
  0
LAYER
  2
CYAN3
  70
0
  62
131
  6
CONTINUOUS
  0
LAYER
  2
RED3
  70
0
  62
11
  6
CONTINUOUS
  0
LAYER
  2
MAGENTA3
  70
0
  62
221
  6
CONTINUOUS
  0
LAYER
  2
YELLOW3
  70
0
  62
2
  6
CONTINUOUS
  0
LAYER
  2
BLUE4
  70
0
  62
5
  6
CONTINUOUS
  0
LAYER
  2
GREEN4
  70
0
  62
3
  6
CONTINUOUS
  0
LAYER
  2
CYAN4
  70
0
  62
4
  6
CONTINUOUS
  0
LAYER
  2
RED4
  70
0
  62
1
  6
CONTINUOUS
  0
LAYER
  2
MAGENTA4
  70
0
  62
6
  6
CONTINUOUS
  0
LAYER
  2
YELLOW4
  70
0
  62
2
  6
CONTINUOUS
  0
ENDTAB
  0
ENDSEC
  0
SECTION
  2
ENTITIES
0
LINE
8
Black
10
143.025
20
-118.957
11
143.038
21
-118.968
0
LINE
8
Black
10
143.038
20
-118.968
11
143.047
21
-118.983
0
LINE
8
Black
10
143.047
20
-118.983
11
143.05
21
-119
0
LINE
8
Black
10
143.05
20
-119
11
143.05
21
-119.2
0
LINE
8
Black
10
143.05
20
-119.2
11
143.25
21
-119.2
0
LINE
8
Black
10
143.25
20
-119.2
11
143.267
21
-119.203
0
LINE
8
Black
10
143.267
20
-119.203
11
143.282
21
-119.212
0
LINE
8
Black
10
143.282
20
-119.212
11
143.293
21
-119.225
0
LINE
8
Black
10
143.293
20
-119.225
11
143.299
21
-119.241
0
LINE
8
Black
10
143.299
20
-119.241
11
143.299
21
-119.259
0
LINE
8
Black
10
143.299
20
-119.259
11
143.293
21
-119.275
0
LINE
8
Black
10
143.293
20
-119.275
11
143.282
21
-119.288
0
LINE
8
Black
10
143.282
20
-119.288
11
143.267
21
-119.297
0
LINE
8
Black
10
143.267
20
-119.297
11
143.25
21
-119.3
0
LINE
8
Black
10
143.25
20
-119.3
11
143.05
21
-119.3
0
LINE
8
Black
10
143.05
20
-119.3
11
143.05
21
-119.5
0
LINE
8
Black
10
143.05
20
-119.5
11
143.047
21
-119.517
0
LINE
8
Black
10
143.047
20
-119.517
11
143.038
21
-119.532
0
LINE
8
Black
10
143.038
20
-119.532
11
143.025
21
-119.543
0
LINE
8
Black
10
143.025
20
-119.543
11
143.009
21
-119.549
0
LINE
8
Black
10
143.009
20
-119.549
11
142.991
21
-119.549
0
LINE
8
Black
10
142.991
20
-119.549
11
142.975
21
-119.543
0
LINE
8
Black
10
142.975
20
-119.543
11
142.962
21
-119.532
0
LINE
8
Black
10
142.962
20
-119.532
11
142.953
21
-119.517
0
LINE
8
Black
10
142.953
20
-119.517
11
142.95
21
-119.5
0
LINE
8
Black
10
142.95
20
-119.5
11
142.95
21
-119.3
0
LINE
8
Black
10
142.95
20
-119.3
11
142.75
21
-119.3
0
LINE
8
Black
10
142.75
20
-119.3
11
142.733
21
-119.297
0
LINE
8
Black
10
142.733
20
-119.297
11
142.718
21
-119.288
0
LINE
8
Black
10
142.718
20
-119.288
11
142.707
21
-119.275
0
LINE
8
Black
10
142.707
20
-119.275
11
142.701
21
-119.259
0
LINE
8
Black
10
142.701
20
-119.259
11
142.701
21
-119.241
0
LINE
8
Black
10
142.701
20
-119.241
11
142.707
21
-119.225
0
LINE
8
Black
10
142.707
20
-119.225
11
142.718
21
-119.212
0
LINE
8
Black
10
142.718
20
-119.212
11
142.733
21
-119.203
0
LINE
8
Black
10
142.733
20
-119.203
11
142.75
21
-119.2
0
LINE
8
Black
10
142.75
20
-119.2
11
142.95
21
-119.2
0
LINE
8
Black
10
142.95
20
-119.2
11
142.95
21
-119
0
LINE
8
Black
10
142.95
20
-119
11
142.953
21
-118.983
0
LINE
8
Black
10
142.953
20
-118.983
11
142.962
21
-118.968
0
LINE
8
Black
10
142.962
20
-118.968
11
142.975
21
-118.957
0
LINE
8
Black
10
142.975
20
-118.957
11
142.991
21
-118.951
0
LINE
8
Black
10
142.991
20
-118.951
11
143.009
21
-118.951
0
LINE
8
Black
10
143.009
20
-118.951
11
143.025
21
-118.957
0
LINE
8
Black
10
129.025
20
-118.957
11
129.038
21
-118.968
0
LINE
8
Black
10
129.038
20
-118.968
11
129.047
21
-118.983
0
LINE
8
Black
10
129.047
20
-118.983
11
129.05
21
-119
0
LINE
8
Black
10
129.05
20
-119
11
129.05
21
-119.2
0
LINE
8
Black
10
129.05
20
-119.2
11
129.25
21
-119.2
0
LINE
8
Black
10
129.25
20
-119.2
11
129.267
21
-119.203
0
LINE
8
Black
10
129.267
20
-119.203
11
129.282
21
-119.212
0
LINE
8
Black
10
129.282
20
-119.212
11
129.293
21
-119.225
0
LINE
8
Black
10
129.293
20
-119.225
11
129.299
21
-119.241
0
LINE
8
Black
10
129.299
20
-119.241
11
129.299
21
-119.259
0
LINE
8
Black
10
129.299
20
-119.259
11
129.293
21
-119.275
0
LINE
8
Black
10
129.293
20
-119.275
11
129.282
21
-119.288
0
LINE
8
Black
10
129.282
20
-119.288
11
129.267
21
-119.297
0
LINE
8
Black
10
129.267
20
-119.297
11
129.25
21
-119.3
0
LINE
8
Black
10
129.25
20
-119.3
11
129.05
21
-119.3
0
LINE
8
Black
10
129.05
20
-119.3
11
129.05
21
-119.5
0
LINE
8
Black
10
129.05
20
-119.5
11
129.047
21
-119.517
0
LINE
8
Black
10
129.047
20
-119.517
11
129.038
21
-119.532
0
LINE
8
Black
10
129.038
20
-119.532
11
129.025
21
-119.543
0
LINE
8
Black
10
129.025
20
-119.543
11
129.009
21
-119.549
0
LINE
8
Black
10
129.009
20
-119.549
11
128.991
21
-119.549
0
LINE
8
Black
10
128.991
20
-119.549
11
128.975
21
-119.543
0
LINE
8
Black
10
128.975
20
-119.543
11
128.962
21
-119.532
0
LINE
8
Black
10
128.962
20
-119.532
11
128.953
21
-119.517
0
LINE
8
Black
10
128.953
20
-119.517
11
128.95
21
-119.5
0
LINE
8
Black
10
128.95
20
-119.5
11
128.95
21
-119.3
0
LINE
8
Black
10
128.95
20
-119.3
11
128.75
21
-119.3
0
LINE
8
Black
10
128.75
20
-119.3
11
128.733
21
-119.297
0
LINE
8
Black
10
128.733
20
-119.297
11
128.718
21
-119.288
0
LINE
8
Black
10
128.718
20
-119.288
11
128.707
21
-119.275
0
LINE
8
Black
10
128.707
20
-119.275
11
128.701
21
-119.259
0
LINE
8
Black
10
128.701
20
-119.259
11
128.701
21
-119.241
0
LINE
8
Black
10
128.701
20
-119.241
11
128.707
21
-119.225
0
LINE
8
Black
10
128.707
20
-119.225
11
128.718
21
-119.212
0
LINE
8
Black
10
128.718
20
-119.212
11
128.733
21
-119.203
0
LINE
8
Black
10
128.733
20
-119.203
11
128.75
21
-119.2
0
LINE
8
Black
10
128.75
20
-119.2
11
128.95
21
-119.2
0
LINE
8
Black
10
128.95
20
-119.2
11
128.95
21
-119
0
LINE
8
Black
10
128.95
20
-119
11
128.953
21
-118.983
0
LINE
8
Black
10
128.953
20
-118.983
11
128.962
21
-118.968
0
LINE
8
Black
10
128.962
20
-118.968
11
128.975
21
-118.957
0
LINE
8
Black
10
128.975
20
-118.957
11
128.991
21
-118.951
0
LINE
8
Black
10
128.991
20
-118.951
11
129.009
21
-118.951
0
LINE
8
Black
10
129.009
20
-118.951
11
129.025
21
-118.957
0
LINE
8
Black
10
115.025
20
-118.957
11
115.038
21
-118.968
0
LINE
8
Black
10
115.038
20
-118.968
11
115.047
21
-118.983
0
LINE
8
Black
10
115.047
20
-118.983
11
115.05
21
-119
0
LINE
8
Black
10
115.05
20
-119
11
115.05
21
-119.2
0
LINE
8
Black
10
115.05
20
-119.2
11
115.25
21
-119.2
0
LINE
8
Black
10
115.25
20
-119.2
11
115.267
21
-119.203
0
LINE
8
Black
10
115.267
20
-119.203
11
115.282
21
-119.212
0
LINE
8
Black
10
115.282
20
-119.212
11
115.293
21
-119.225
0
LINE
8
Black
10
115.293
20
-119.225
11
115.299
21
-119.241
0
LINE
8
Black
10
115.299
20
-119.241
11
115.299
21
-119.259
0
LINE
8
Black
10
115.299
20
-119.259
11
115.293
21
-119.275
0
LINE
8
Black
10
115.293
20
-119.275
11
115.282
21
-119.288
0
LINE
8
Black
10
115.282
20
-119.288
11
115.267
21
-119.297
0
LINE
8
Black
10
115.267
20
-119.297
11
115.25
21
-119.3
0
LINE
8
Black
10
115.25
20
-119.3
11
115.05
21
-119.3
0
LINE
8
Black
10
115.05
20
-119.3
11
115.05
21
-119.5
0
LINE
8
Black
10
115.05
20
-119.5
11
115.047
21
-119.517
0
LINE
8
Black
10
115.047
20
-119.517
11
115.038
21
-119.532
0
LINE
8
Black
10
115.038
20
-119.532
11
115.025
21
-119.543
0
LINE
8
Black
10
115.025
20
-119.543
11
115.009
21
-119.549
0
LINE
8
Black
10
115.009
20
-119.549
11
114.991
21
-119.549
0
LINE
8
Black
10
114.991
20
-119.549
11
114.975
21
-119.543
0
LINE
8
Black
10
114.975
20
-119.543
11
114.962
21
-119.532
0
LINE
8
Black
10
114.962
20
-119.532
11
114.953
21
-119.517
0
LINE
8
Black
10
114.953
20
-119.517
11
114.95
21
-119.5
0
LINE
8
Black
10
114.95
20
-119.5
11
114.95
21
-119.3
0
LINE
8
Black
10
114.95
20
-119.3
11
114.75
21
-119.3
0
LINE
8
Black
10
114.75
20
-119.3
11
114.733
21
-119.297
0
LINE
8
Black
10
114.733
20
-119.297
11
114.718
21
-119.288
0
LINE
8
Black
10
114.718
20
-119.288
11
114.707
21
-119.275
0
LINE
8
Black
10
114.707
20
-119.275
11
114.701
21
-119.259
0
LINE
8
Black
10
114.701
20
-119.259
11
114.701
21
-119.241
0
LINE
8
Black
10
114.701
20
-119.241
11
114.707
21
-119.225
0
LINE
8
Black
10
114.707
20
-119.225
11
114.718
21
-119.212
0
LINE
8
Black
10
114.718
20
-119.212
11
114.733
21
-119.203
0
LINE
8
Black
10
114.733
20
-119.203
11
114.75
21
-119.2
0
LINE
8
Black
10
114.75
20
-119.2
11
114.95
21
-119.2
0
LINE
8
Black
10
114.95
20
-119.2
11
114.95
21
-119
0
LINE
8
Black
10
114.95
20
-119
11
114.953
21
-118.983
0
LINE
8
Black
10
114.953
20
-118.983
11
114.962
21
-118.968
0
LINE
8
Black
10
114.962
20
-118.968
11
114.975
21
-118.957
0
LINE
8
Black
10
114.975
20
-118.957
11
114.991
21
-118.951
0
LINE
8
Black
10
114.991
20
-118.951
11
115.009
21
-118.951
0
LINE
8
Black
10
115.009
20
-118.951
11
115.025
21
-118.957
0
LINE
8
Black
10
115.025
20
-99.2067
11
115.038
21
-99.2179
0
LINE
8
Black
10
115.038
20
-99.2179
11
115.047
21
-99.2329
0
LINE
8
Black
10
115.047
20
-99.2329
11
115.05
21
-99.25
0
LINE
8
Black
10
115.05
20
-99.25
11
115.05
21
-99.45
0
LINE
8
Black
10
115.05
20
-99.45
11
115.25
21
-99.45
0
LINE
8
Black
10
115.25
20
-99.45
11
115.267
21
-99.453
0
LINE
8
Black
10
115.267
20
-99.453
11
115.282
21
-99.4617
0
LINE
8
Black
10
115.282
20
-99.4617
11
115.293
21
-99.475
0
LINE
8
Black
10
115.293
20
-99.475
11
115.299
21
-99.4913
0
LINE
8
Black
10
115.299
20
-99.4913
11
115.299
21
-99.5087
0
LINE
8
Black
10
115.299
20
-99.5087
11
115.293
21
-99.525
0
LINE
8
Black
10
115.293
20
-99.525
11
115.282
21
-99.5383
0
LINE
8
Black
10
115.282
20
-99.5383
11
115.267
21
-99.547
0
LINE
8
Black
10
115.267
20
-99.547
11
115.25
21
-99.55
0
LINE
8
Black
10
115.25
20
-99.55
11
115.05
21
-99.55
0
LINE
8
Black
10
115.05
20
-99.55
11
115.05
21
-99.75
0
LINE
8
Black
10
115.05
20
-99.75
11
115.047
21
-99.7671
0
LINE
8
Black
10
115.047
20
-99.7671
11
115.038
21
-99.7821
0
LINE
8
Black
10
115.038
20
-99.7821
11
115.025
21
-99.7933
0
LINE
8
Black
10
115.025
20
-99.7933
11
115.009
21
-99.7992
0
LINE
8
Black
10
115.009
20
-99.7992
11
114.991
21
-99.7992
0
LINE
8
Black
10
114.991
20
-99.7992
11
114.975
21
-99.7933
0
LINE
8
Black
10
114.975
20
-99.7933
11
114.962
21
-99.7821
0
LINE
8
Black
10
114.962
20
-99.7821
11
114.953
21
-99.7671
0
LINE
8
Black
10
114.953
20
-99.7671
11
114.95
21
-99.75
0
LINE
8
Black
10
114.95
20
-99.75
11
114.95
21
-99.55
0
LINE
8
Black
10
114.95
20
-99.55
11
114.75
21
-99.55
0
LINE
8
Black
10
114.75
20
-99.55
11
114.733
21
-99.547
0
LINE
8
Black
10
114.733
20
-99.547
11
114.718
21
-99.5383
0
LINE
8
Black
10
114.718
20
-99.5383
11
114.707
21
-99.525
0
LINE
8
Black
10
114.707
20
-99.525
11
114.701
21
-99.5087
0
LINE
8
Black
10
114.701
20
-99.5087
11
114.701
21
-99.4913
0
LINE
8
Black
10
114.701
20
-99.4913
11
114.707
21
-99.475
0
LINE
8
Black
10
114.707
20
-99.475
11
114.718
21
-99.4617
0
LINE
8
Black
10
114.718
20
-99.4617
11
114.733
21
-99.453
0
LINE
8
Black
10
114.733
20
-99.453
11
114.75
21
-99.45
0
LINE
8
Black
10
114.75
20
-99.45
11
114.95
21
-99.45
0
LINE
8
Black
10
114.95
20
-99.45
11
114.95
21
-99.25
0
LINE
8
Black
10
114.95
20
-99.25
11
114.953
21
-99.2329
0
LINE
8
Black
10
114.953
20
-99.2329
11
114.962
21
-99.2179
0
LINE
8
Black
10
114.962
20
-99.2179
11
114.975
21
-99.2067
0
LINE
8
Black
10
114.975
20
-99.2067
11
114.991
21
-99.2008
0
LINE
8
Black
10
114.991
20
-99.2008
11
115.009
21
-99.2008
0
LINE
8
Black
10
115.009
20
-99.2008
11
115.025
21
-99.2067
0
LINE
8
Black
10
136.025
20
-99.2067
11
136.038
21
-99.2179
0
LINE
8
Black
10
136.038
20
-99.2179
11
136.047
21
-99.2329
0
LINE
8
Black
10
136.047
20
-99.2329
11
136.05
21
-99.25
0
LINE
8
Black
10
136.05
20
-99.25
11
136.05
21
-99.45
0
LINE
8
Black
10
136.05
20
-99.45
11
136.25
21
-99.45
0
LINE
8
Black
10
136.25
20
-99.45
11
136.267
21
-99.453
0
LINE
8
Black
10
136.267
20
-99.453
11
136.282
21
-99.4617
0
LINE
8
Black
10
136.282
20
-99.4617
11
136.293
21
-99.475
0
LINE
8
Black
10
136.293
20
-99.475
11
136.299
21
-99.4913
0
LINE
8
Black
10
136.299
20
-99.4913
11
136.299
21
-99.5087
0
LINE
8
Black
10
136.299
20
-99.5087
11
136.293
21
-99.525
0
LINE
8
Black
10
136.293
20
-99.525
11
136.282
21
-99.5383
0
LINE
8
Black
10
136.282
20
-99.5383
11
136.267
21
-99.547
0
LINE
8
Black
10
136.267
20
-99.547
11
136.25
21
-99.55
0
LINE
8
Black
10
136.25
20
-99.55
11
136.05
21
-99.55
0
LINE
8
Black
10
136.05
20
-99.55
11
136.05
21
-99.75
0
LINE
8
Black
10
136.05
20
-99.75
11
136.047
21
-99.7671
0
LINE
8
Black
10
136.047
20
-99.7671
11
136.038
21
-99.7821
0
LINE
8
Black
10
136.038
20
-99.7821
11
136.025
21
-99.7933
0
LINE
8
Black
10
136.025
20
-99.7933
11
136.009
21
-99.7992
0
LINE
8
Black
10
136.009
20
-99.7992
11
135.991
21
-99.7992
0
LINE
8
Black
10
135.991
20
-99.7992
11
135.975
21
-99.7933
0
LINE
8
Black
10
135.975
20
-99.7933
11
135.962
21
-99.7821
0
LINE
8
Black
10
135.962
20
-99.7821
11
135.953
21
-99.7671
0
LINE
8
Black
10
135.953
20
-99.7671
11
135.95
21
-99.75
0
LINE
8
Black
10
135.95
20
-99.75
11
135.95
21
-99.55
0
LINE
8
Black
10
135.95
20
-99.55
11
135.75
21
-99.55
0
LINE
8
Black
10
135.75
20
-99.55
11
135.733
21
-99.547
0
LINE
8
Black
10
135.733
20
-99.547
11
135.718
21
-99.5383
0
LINE
8
Black
10
135.718
20
-99.5383
11
135.707
21
-99.525
0
LINE
8
Black
10
135.707
20
-99.525
11
135.701
21
-99.5087
0
LINE
8
Black
10
135.701
20
-99.5087
11
135.701
21
-99.4913
0
LINE
8
Black
10
135.701
20
-99.4913
11
135.707
21
-99.475
0
LINE
8
Black
10
135.707
20
-99.475
11
135.718
21
-99.4617
0
LINE
8
Black
10
135.718
20
-99.4617
11
135.733
21
-99.453
0
LINE
8
Black
10
135.733
20
-99.453
11
135.75
21
-99.45
0
LINE
8
Black
10
135.75
20
-99.45
11
135.95
21
-99.45
0
LINE
8
Black
10
135.95
20
-99.45
11
135.95
21
-99.25
0
LINE
8
Black
10
135.95
20
-99.25
11
135.953
21
-99.2329
0
LINE
8
Black
10
135.953
20
-99.2329
11
135.962
21
-99.2179
0
LINE
8
Black
10
135.962
20
-99.2179
11
135.975
21
-99.2067
0
LINE
8
Black
10
135.975
20
-99.2067
11
135.991
21
-99.2008
0
LINE
8
Black
10
135.991
20
-99.2008
11
136.009
21
-99.2008
0
LINE
8
Black
10
136.009
20
-99.2008
11
136.025
21
-99.2067
0
LINE
8
Black
10
136.025
20
-75.2067
11
136.038
21
-75.2179
0
LINE
8
Black
10
136.038
20
-75.2179
11
136.047
21
-75.2329
0
LINE
8
Black
10
136.047
20
-75.2329
11
136.05
21
-75.25
0
LINE
8
Black
10
136.05
20
-75.25
11
136.05
21
-75.45
0
LINE
8
Black
10
136.05
20
-75.45
11
136.25
21
-75.45
0
LINE
8
Black
10
136.25
20
-75.45
11
136.267
21
-75.453
0
LINE
8
Black
10
136.267
20
-75.453
11
136.282
21
-75.4617
0
LINE
8
Black
10
136.282
20
-75.4617
11
136.293
21
-75.475
0
LINE
8
Black
10
136.293
20
-75.475
11
136.299
21
-75.4913
0
LINE
8
Black
10
136.299
20
-75.4913
11
136.299
21
-75.5087
0
LINE
8
Black
10
136.299
20
-75.5087
11
136.293
21
-75.525
0
LINE
8
Black
10
136.293
20
-75.525
11
136.282
21
-75.5383
0
LINE
8
Black
10
136.282
20
-75.5383
11
136.267
21
-75.547
0
LINE
8
Black
10
136.267
20
-75.547
11
136.25
21
-75.55
0
LINE
8
Black
10
136.25
20
-75.55
11
136.05
21
-75.55
0
LINE
8
Black
10
136.05
20
-75.55
11
136.05
21
-75.75
0
LINE
8
Black
10
136.05
20
-75.75
11
136.047
21
-75.7671
0
LINE
8
Black
10
136.047
20
-75.7671
11
136.038
21
-75.7821
0
LINE
8
Black
10
136.038
20
-75.7821
11
136.025
21
-75.7933
0
LINE
8
Black
10
136.025
20
-75.7933
11
136.009
21
-75.7992
0
LINE
8
Black
10
136.009
20
-75.7992
11
135.991
21
-75.7992
0
LINE
8
Black
10
135.991
20
-75.7992
11
135.975
21
-75.7933
0
LINE
8
Black
10
135.975
20
-75.7933
11
135.962
21
-75.7821
0
LINE
8
Black
10
135.962
20
-75.7821
11
135.953
21
-75.7671
0
LINE
8
Black
10
135.953
20
-75.7671
11
135.95
21
-75.75
0
LINE
8
Black
10
135.95
20
-75.75
11
135.95
21
-75.55
0
LINE
8
Black
10
135.95
20
-75.55
11
135.75
21
-75.55
0
LINE
8
Black
10
135.75
20
-75.55
11
135.733
21
-75.547
0
LINE
8
Black
10
135.733
20
-75.547
11
135.718
21
-75.5383
0
LINE
8
Black
10
135.718
20
-75.5383
11
135.707
21
-75.525
0
LINE
8
Black
10
135.707
20
-75.525
11
135.701
21
-75.5087
0
LINE
8
Black
10
135.701
20
-75.5087
11
135.701
21
-75.4913
0
LINE
8
Black
10
135.701
20
-75.4913
11
135.707
21
-75.475
0
LINE
8
Black
10
135.707
20
-75.475
11
135.718
21
-75.4617
0
LINE
8
Black
10
135.718
20
-75.4617
11
135.733
21
-75.453
0
LINE
8
Black
10
135.733
20
-75.453
11
135.75
21
-75.45
0
LINE
8
Black
10
135.75
20
-75.45
11
135.95
21
-75.45
0
LINE
8
Black
10
135.95
20
-75.45
11
135.95
21
-75.25
0
LINE
8
Black
10
135.95
20
-75.25
11
135.953
21
-75.2329
0
LINE
8
Black
10
135.953
20
-75.2329
11
135.962
21
-75.2179
0
LINE
8
Black
10
135.962
20
-75.2179
11
135.975
21
-75.2067
0
LINE
8
Black
10
135.975
20
-75.2067
11
135.991
21
-75.2008
0
LINE
8
Black
10
135.991
20
-75.2008
11
136.009
21
-75.2008
0
LINE
8
Black
10
136.009
20
-75.2008
11
136.025
21
-75.2067
0
LINE
8
Black
10
115.025
20
-75.2067
11
115.038
21
-75.2179
0
LINE
8
Black
10
115.038
20
-75.2179
11
115.047
21
-75.2329
0
LINE
8
Black
10
115.047
20
-75.2329
11
115.05
21
-75.25
0
LINE
8
Black
10
115.05
20
-75.25
11
115.05
21
-75.45
0
LINE
8
Black
10
115.05
20
-75.45
11
115.25
21
-75.45
0
LINE
8
Black
10
115.25
20
-75.45
11
115.267
21
-75.453
0
LINE
8
Black
10
115.267
20
-75.453
11
115.282
21
-75.4617
0
LINE
8
Black
10
115.282
20
-75.4617
11
115.293
21
-75.475
0
LINE
8
Black
10
115.293
20
-75.475
11
115.299
21
-75.4913
0
LINE
8
Black
10
115.299
20
-75.4913
11
115.299
21
-75.5087
0
LINE
8
Black
10
115.299
20
-75.5087
11
115.293
21
-75.525
0
LINE
8
Black
10
115.293
20
-75.525
11
115.282
21
-75.5383
0
LINE
8
Black
10
115.282
20
-75.5383
11
115.267
21
-75.547
0
LINE
8
Black
10
115.267
20
-75.547
11
115.25
21
-75.55
0
LINE
8
Black
10
115.25
20
-75.55
11
115.05
21
-75.55
0
LINE
8
Black
10
115.05
20
-75.55
11
115.05
21
-75.75
0
LINE
8
Black
10
115.05
20
-75.75
11
115.047
21
-75.7671
0
LINE
8
Black
10
115.047
20
-75.7671
11
115.038
21
-75.7821
0
LINE
8
Black
10
115.038
20
-75.7821
11
115.025
21
-75.7933
0
LINE
8
Black
10
115.025
20
-75.7933
11
115.009
21
-75.7992
0
LINE
8
Black
10
115.009
20
-75.7992
11
114.991
21
-75.7992
0
LINE
8
Black
10
114.991
20
-75.7992
11
114.975
21
-75.7933
0
LINE
8
Black
10
114.975
20
-75.7933
11
114.962
21
-75.7821
0
LINE
8
Black
10
114.962
20
-75.7821
11
114.953
21
-75.7671
0
LINE
8
Black
10
114.953
20
-75.7671
11
114.95
21
-75.75
0
LINE
8
Black
10
114.95
20
-75.75
11
114.95
21
-75.55
0
LINE
8
Black
10
114.95
20
-75.55
11
114.75
21
-75.55
0
LINE
8
Black
10
114.75
20
-75.55
11
114.733
21
-75.547
0
LINE
8
Black
10
114.733
20
-75.547
11
114.718
21
-75.5383
0
LINE
8
Black
10
114.718
20
-75.5383
11
114.707
21
-75.525
0
LINE
8
Black
10
114.707
20
-75.525
11
114.701
21
-75.5087
0
LINE
8
Black
10
114.701
20
-75.5087
11
114.701
21
-75.4913
0
LINE
8
Black
10
114.701
20
-75.4913
11
114.707
21
-75.475
0
LINE
8
Black
10
114.707
20
-75.475
11
114.718
21
-75.4617
0
LINE
8
Black
10
114.718
20
-75.4617
11
114.733
21
-75.453
0
LINE
8
Black
10
114.733
20
-75.453
11
114.75
21
-75.45
0
LINE
8
Black
10
114.75
20
-75.45
11
114.95
21
-75.45
0
LINE
8
Black
10
114.95
20
-75.45
11
114.95
21
-75.25
0
LINE
8
Black
10
114.95
20
-75.25
11
114.953
21
-75.2329
0
LINE
8
Black
10
114.953
20
-75.2329
11
114.962
21
-75.2179
0
LINE
8
Black
10
114.962
20
-75.2179
11
114.975
21
-75.2067
0
LINE
8
Black
10
114.975
20
-75.2067
11
114.991
21
-75.2008
0
LINE
8
Black
10
114.991
20
-75.2008
11
115.009
21
-75.2008
0
LINE
8
Black
10
115.009
20
-75.2008
11
115.025
21
-75.2067
0
LINE
8
Black
10
136.025
20
-51.2067
11
136.038
21
-51.2179
0
LINE
8
Black
10
136.038
20
-51.2179
11
136.047
21
-51.2329
0
LINE
8
Black
10
136.047
20
-51.2329
11
136.05
21
-51.25
0
LINE
8
Black
10
136.05
20
-51.25
11
136.05
21
-51.45
0
LINE
8
Black
10
136.05
20
-51.45
11
136.25
21
-51.45
0
LINE
8
Black
10
136.25
20
-51.45
11
136.267
21
-51.453
0
LINE
8
Black
10
136.267
20
-51.453
11
136.282
21
-51.4617
0
LINE
8
Black
10
136.282
20
-51.4617
11
136.293
21
-51.475
0
LINE
8
Black
10
136.293
20
-51.475
11
136.299
21
-51.4913
0
LINE
8
Black
10
136.299
20
-51.4913
11
136.299
21
-51.5087
0
LINE
8
Black
10
136.299
20
-51.5087
11
136.293
21
-51.525
0
LINE
8
Black
10
136.293
20
-51.525
11
136.282
21
-51.5383
0
LINE
8
Black
10
136.282
20
-51.5383
11
136.267
21
-51.547
0
LINE
8
Black
10
136.267
20
-51.547
11
136.25
21
-51.55
0
LINE
8
Black
10
136.25
20
-51.55
11
136.05
21
-51.55
0
LINE
8
Black
10
136.05
20
-51.55
11
136.05
21
-51.75
0
LINE
8
Black
10
136.05
20
-51.75
11
136.047
21
-51.7671
0
LINE
8
Black
10
136.047
20
-51.7671
11
136.038
21
-51.7821
0
LINE
8
Black
10
136.038
20
-51.7821
11
136.025
21
-51.7933
0
LINE
8
Black
10
136.025
20
-51.7933
11
136.009
21
-51.7992
0
LINE
8
Black
10
136.009
20
-51.7992
11
135.991
21
-51.7992
0
LINE
8
Black
10
135.991
20
-51.7992
11
135.975
21
-51.7933
0
LINE
8
Black
10
135.975
20
-51.7933
11
135.962
21
-51.7821
0
LINE
8
Black
10
135.962
20
-51.7821
11
135.953
21
-51.7671
0
LINE
8
Black
10
135.953
20
-51.7671
11
135.95
21
-51.75
0
LINE
8
Black
10
135.95
20
-51.75
11
135.95
21
-51.55
0
LINE
8
Black
10
135.95
20
-51.55
11
135.75
21
-51.55
0
LINE
8
Black
10
135.75
20
-51.55
11
135.733
21
-51.547
0
LINE
8
Black
10
135.733
20
-51.547
11
135.718
21
-51.5383
0
LINE
8
Black
10
135.718
20
-51.5383
11
135.707
21
-51.525
0
LINE
8
Black
10
135.707
20
-51.525
11
135.701
21
-51.5087
0
LINE
8
Black
10
135.701
20
-51.5087
11
135.701
21
-51.4913
0
LINE
8
Black
10
135.701
20
-51.4913
11
135.707
21
-51.475
0
LINE
8
Black
10
135.707
20
-51.475
11
135.718
21
-51.4617
0
LINE
8
Black
10
135.718
20
-51.4617
11
135.733
21
-51.453
0
LINE
8
Black
10
135.733
20
-51.453
11
135.75
21
-51.45
0
LINE
8
Black
10
135.75
20
-51.45
11
135.95
21
-51.45
0
LINE
8
Black
10
135.95
20
-51.45
11
135.95
21
-51.25
0
LINE
8
Black
10
135.95
20
-51.25
11
135.953
21
-51.2329
0
LINE
8
Black
10
135.953
20
-51.2329
11
135.962
21
-51.2179
0
LINE
8
Black
10
135.962
20
-51.2179
11
135.975
21
-51.2067
0
LINE
8
Black
10
135.975
20
-51.2067
11
135.991
21
-51.2008
0
LINE
8
Black
10
135.991
20
-51.2008
11
136.009
21
-51.2008
0
LINE
8
Black
10
136.009
20
-51.2008
11
136.025
21
-51.2067
0
LINE
8
Black
10
115.025
20
-51.2067
11
115.038
21
-51.2179
0
LINE
8
Black
10
115.038
20
-51.2179
11
115.047
21
-51.2329
0
LINE
8
Black
10
115.047
20
-51.2329
11
115.05
21
-51.25
0
LINE
8
Black
10
115.05
20
-51.25
11
115.05
21
-51.45
0
LINE
8
Black
10
115.05
20
-51.45
11
115.25
21
-51.45
0
LINE
8
Black
10
115.25
20
-51.45
11
115.267
21
-51.453
0
LINE
8
Black
10
115.267
20
-51.453
11
115.282
21
-51.4617
0
LINE
8
Black
10
115.282
20
-51.4617
11
115.293
21
-51.475
0
LINE
8
Black
10
115.293
20
-51.475
11
115.299
21
-51.4913
0
LINE
8
Black
10
115.299
20
-51.4913
11
115.299
21
-51.5087
0
LINE
8
Black
10
115.299
20
-51.5087
11
115.293
21
-51.525
0
LINE
8
Black
10
115.293
20
-51.525
11
115.282
21
-51.5383
0
LINE
8
Black
10
115.282
20
-51.5383
11
115.267
21
-51.547
0
LINE
8
Black
10
115.267
20
-51.547
11
115.25
21
-51.55
0
LINE
8
Black
10
115.25
20
-51.55
11
115.05
21
-51.55
0
LINE
8
Black
10
115.05
20
-51.55
11
115.05
21
-51.75
0
LINE
8
Black
10
115.05
20
-51.75
11
115.047
21
-51.7671
0
LINE
8
Black
10
115.047
20
-51.7671
11
115.038
21
-51.7821
0
LINE
8
Black
10
115.038
20
-51.7821
11
115.025
21
-51.7933
0
LINE
8
Black
10
115.025
20
-51.7933
11
115.009
21
-51.7992
0
LINE
8
Black
10
115.009
20
-51.7992
11
114.991
21
-51.7992
0
LINE
8
Black
10
114.991
20
-51.7992
11
114.975
21
-51.7933
0
LINE
8
Black
10
114.975
20
-51.7933
11
114.962
21
-51.7821
0
LINE
8
Black
10
114.962
20
-51.7821
11
114.953
21
-51.7671
0
LINE
8
Black
10
114.953
20
-51.7671
11
114.95
21
-51.75
0
LINE
8
Black
10
114.95
20
-51.75
11
114.95
21
-51.55
0
LINE
8
Black
10
114.95
20
-51.55
11
114.75
21
-51.55
0
LINE
8
Black
10
114.75
20
-51.55
11
114.733
21
-51.547
0
LINE
8
Black
10
114.733
20
-51.547
11
114.718
21
-51.5383
0
LINE
8
Black
10
114.718
20
-51.5383
11
114.707
21
-51.525
0
LINE
8
Black
10
114.707
20
-51.525
11
114.701
21
-51.5087
0
LINE
8
Black
10
114.701
20
-51.5087
11
114.701
21
-51.4913
0
LINE
8
Black
10
114.701
20
-51.4913
11
114.707
21
-51.475
0
LINE
8
Black
10
114.707
20
-51.475
11
114.718
21
-51.4617
0
LINE
8
Black
10
114.718
20
-51.4617
11
114.733
21
-51.453
0
LINE
8
Black
10
114.733
20
-51.453
11
114.75
21
-51.45
0
LINE
8
Black
10
114.75
20
-51.45
11
114.95
21
-51.45
0
LINE
8
Black
10
114.95
20
-51.45
11
114.95
21
-51.25
0
LINE
8
Black
10
114.95
20
-51.25
11
114.953
21
-51.2329
0
LINE
8
Black
10
114.953
20
-51.2329
11
114.962
21
-51.2179
0
LINE
8
Black
10
114.962
20
-51.2179
11
114.975
21
-51.2067
0
LINE
8
Black
10
114.975
20
-51.2067
11
114.991
21
-51.2008
0
LINE
8
Black
10
114.991
20
-51.2008
11
115.009
21
-51.2008
0
LINE
8
Black
10
115.009
20
-51.2008
11
115.025
21
-51.2067
0
LINE
8
Black
10
121.875
20
-37.2067
11
121.888
21
-37.2179
0
LINE
8
Black
10
121.888
20
-37.2179
11
121.897
21
-37.2329
0
LINE
8
Black
10
121.897
20
-37.2329
11
121.9
21
-37.25
0
LINE
8
Black
10
121.9
20
-37.25
11
121.9
21
-37.45
0
LINE
8
Black
10
121.9
20
-37.45
11
122.1
21
-37.45
0
LINE
8
Black
10
122.1
20
-37.45
11
122.117
21
-37.453
0
LINE
8
Black
10
122.117
20
-37.453
11
122.132
21
-37.4617
0
LINE
8
Black
10
122.132
20
-37.4617
11
122.143
21
-37.475
0
LINE
8
Black
10
122.143
20
-37.475
11
122.149
21
-37.4913
0
LINE
8
Black
10
122.149
20
-37.4913
11
122.149
21
-37.5087
0
LINE
8
Black
10
122.149
20
-37.5087
11
122.143
21
-37.525
0
LINE
8
Black
10
122.143
20
-37.525
11
122.132
21
-37.5383
0
LINE
8
Black
10
122.132
20
-37.5383
11
122.117
21
-37.547
0
LINE
8
Black
10
122.117
20
-37.547
11
122.1
21
-37.55
0
LINE
8
Black
10
122.1
20
-37.55
11
121.9
21
-37.55
0
LINE
8
Black
10
121.9
20
-37.55
11
121.9
21
-37.75
0
LINE
8
Black
10
121.9
20
-37.75
11
121.897
21
-37.7671
0
LINE
8
Black
10
121.897
20
-37.7671
11
121.888
21
-37.7821
0
LINE
8
Black
10
121.888
20
-37.7821
11
121.875
21
-37.7933
0
LINE
8
Black
10
121.875
20
-37.7933
11
121.859
21
-37.7992
0
LINE
8
Black
10
121.859
20
-37.7992
11
121.841
21
-37.7992
0
LINE
8
Black
10
121.841
20
-37.7992
11
121.825
21
-37.7933
0
LINE
8
Black
10
121.825
20
-37.7933
11
121.812
21
-37.7821
0
LINE
8
Black
10
121.812
20
-37.7821
11
121.803
21
-37.7671
0
LINE
8
Black
10
121.803
20
-37.7671
11
121.8
21
-37.75
0
LINE
8
Black
10
121.8
20
-37.75
11
121.8
21
-37.55
0
LINE
8
Black
10
121.8
20
-37.55
11
121.6
21
-37.55
0
LINE
8
Black
10
121.6
20
-37.55
11
121.583
21
-37.547
0
LINE
8
Black
10
121.583
20
-37.547
11
121.568
21
-37.5383
0
LINE
8
Black
10
121.568
20
-37.5383
11
121.557
21
-37.525
0
LINE
8
Black
10
121.557
20
-37.525
11
121.551
21
-37.5087
0
LINE
8
Black
10
121.551
20
-37.5087
11
121.551
21
-37.4913
0
LINE
8
Black
10
121.551
20
-37.4913
11
121.557
21
-37.475
0
LINE
8
Black
10
121.557
20
-37.475
11
121.568
21
-37.4617
0
LINE
8
Black
10
121.568
20
-37.4617
11
121.583
21
-37.453
0
LINE
8
Black
10
121.583
20
-37.453
11
121.6
21
-37.45
0
LINE
8
Black
10
121.6
20
-37.45
11
121.8
21
-37.45
0
LINE
8
Black
10
121.8
20
-37.45
11
121.8
21
-37.25
0
LINE
8
Black
10
121.8
20
-37.25
11
121.803
21
-37.2329
0
LINE
8
Black
10
121.803
20
-37.2329
11
121.812
21
-37.2179
0
LINE
8
Black
10
121.812
20
-37.2179
11
121.825
21
-37.2067
0
LINE
8
Black
10
121.825
20
-37.2067
11
121.841
21
-37.2008
0
LINE
8
Black
10
121.841
20
-37.2008
11
121.859
21
-37.2008
0
LINE
8
Black
10
121.859
20
-37.2008
11
121.875
21
-37.2067
0
LINE
8
Black
10
121.875
20
-32.2067
11
121.888
21
-32.2179
0
LINE
8
Black
10
121.888
20
-32.2179
11
121.897
21
-32.2329
0
LINE
8
Black
10
121.897
20
-32.2329
11
121.9
21
-32.25
0
LINE
8
Black
10
121.9
20
-32.25
11
121.9
21
-32.45
0
LINE
8
Black
10
121.9
20
-32.45
11
122.1
21
-32.45
0
LINE
8
Black
10
122.1
20
-32.45
11
122.117
21
-32.453
0
LINE
8
Black
10
122.117
20
-32.453
11
122.132
21
-32.4617
0
LINE
8
Black
10
122.132
20
-32.4617
11
122.143
21
-32.475
0
LINE
8
Black
10
122.143
20
-32.475
11
122.149
21
-32.4913
0
LINE
8
Black
10
122.149
20
-32.4913
11
122.149
21
-32.5087
0
LINE
8
Black
10
122.149
20
-32.5087
11
122.143
21
-32.525
0
LINE
8
Black
10
122.143
20
-32.525
11
122.132
21
-32.5383
0
LINE
8
Black
10
122.132
20
-32.5383
11
122.117
21
-32.547
0
LINE
8
Black
10
122.117
20
-32.547
11
122.1
21
-32.55
0
LINE
8
Black
10
122.1
20
-32.55
11
121.9
21
-32.55
0
LINE
8
Black
10
121.9
20
-32.55
11
121.9
21
-32.75
0
LINE
8
Black
10
121.9
20
-32.75
11
121.897
21
-32.7671
0
LINE
8
Black
10
121.897
20
-32.7671
11
121.888
21
-32.7821
0
LINE
8
Black
10
121.888
20
-32.7821
11
121.875
21
-32.7933
0
LINE
8
Black
10
121.875
20
-32.7933
11
121.859
21
-32.7992
0
LINE
8
Black
10
121.859
20
-32.7992
11
121.841
21
-32.7992
0
LINE
8
Black
10
121.841
20
-32.7992
11
121.825
21
-32.7933
0
LINE
8
Black
10
121.825
20
-32.7933
11
121.812
21
-32.7821
0
LINE
8
Black
10
121.812
20
-32.7821
11
121.803
21
-32.7671
0
LINE
8
Black
10
121.803
20
-32.7671
11
121.8
21
-32.75
0
LINE
8
Black
10
121.8
20
-32.75
11
121.8
21
-32.55
0
LINE
8
Black
10
121.8
20
-32.55
11
121.6
21
-32.55
0
LINE
8
Black
10
121.6
20
-32.55
11
121.583
21
-32.547
0
LINE
8
Black
10
121.583
20
-32.547
11
121.568
21
-32.5383
0
LINE
8
Black
10
121.568
20
-32.5383
11
121.557
21
-32.525
0
LINE
8
Black
10
121.557
20
-32.525
11
121.551
21
-32.5087
0
LINE
8
Black
10
121.551
20
-32.5087
11
121.551
21
-32.4913
0
LINE
8
Black
10
121.551
20
-32.4913
11
121.557
21
-32.475
0
LINE
8
Black
10
121.557
20
-32.475
11
121.568
21
-32.4617
0
LINE
8
Black
10
121.568
20
-32.4617
11
121.583
21
-32.453
0
LINE
8
Black
10
121.583
20
-32.453
11
121.6
21
-32.45
0
LINE
8
Black
10
121.6
20
-32.45
11
121.8
21
-32.45
0
LINE
8
Black
10
121.8
20
-32.45
11
121.8
21
-32.25
0
LINE
8
Black
10
121.8
20
-32.25
11
121.803
21
-32.2329
0
LINE
8
Black
10
121.803
20
-32.2329
11
121.812
21
-32.2179
0
LINE
8
Black
10
121.812
20
-32.2179
11
121.825
21
-32.2067
0
LINE
8
Black
10
121.825
20
-32.2067
11
121.841
21
-32.2008
0
LINE
8
Black
10
121.841
20
-32.2008
11
121.859
21
-32.2008
0
LINE
8
Black
10
121.859
20
-32.2008
11
121.875
21
-32.2067
0
LINE
8
Black
10
115.025
20
-29.7067
11
115.038
21
-29.7179
0
LINE
8
Black
10
115.038
20
-29.7179
11
115.047
21
-29.7329
0
LINE
8
Black
10
115.047
20
-29.7329
11
115.05
21
-29.75
0
LINE
8
Black
10
115.05
20
-29.75
11
115.05
21
-29.95
0
LINE
8
Black
10
115.05
20
-29.95
11
115.25
21
-29.95
0
LINE
8
Black
10
115.25
20
-29.95
11
115.267
21
-29.953
0
LINE
8
Black
10
115.267
20
-29.953
11
115.282
21
-29.9617
0
LINE
8
Black
10
115.282
20
-29.9617
11
115.293
21
-29.975
0
LINE
8
Black
10
115.293
20
-29.975
11
115.299
21
-29.9913
0
LINE
8
Black
10
115.299
20
-29.9913
11
115.299
21
-30.0087
0
LINE
8
Black
10
115.299
20
-30.0087
11
115.293
21
-30.025
0
LINE
8
Black
10
115.293
20
-30.025
11
115.282
21
-30.0383
0
LINE
8
Black
10
115.282
20
-30.0383
11
115.267
21
-30.047
0
LINE
8
Black
10
115.267
20
-30.047
11
115.25
21
-30.05
0
LINE
8
Black
10
115.25
20
-30.05
11
115.05
21
-30.05
0
LINE
8
Black
10
115.05
20
-30.05
11
115.05
21
-30.25
0
LINE
8
Black
10
115.05
20
-30.25
11
115.047
21
-30.2671
0
LINE
8
Black
10
115.047
20
-30.2671
11
115.038
21
-30.2821
0
LINE
8
Black
10
115.038
20
-30.2821
11
115.025
21
-30.2933
0
LINE
8
Black
10
115.025
20
-30.2933
11
115.009
21
-30.2992
0
LINE
8
Black
10
115.009
20
-30.2992
11
114.991
21
-30.2992
0
LINE
8
Black
10
114.991
20
-30.2992
11
114.975
21
-30.2933
0
LINE
8
Black
10
114.975
20
-30.2933
11
114.962
21
-30.2821
0
LINE
8
Black
10
114.962
20
-30.2821
11
114.953
21
-30.2671
0
LINE
8
Black
10
114.953
20
-30.2671
11
114.95
21
-30.25
0
LINE
8
Black
10
114.95
20
-30.25
11
114.95
21
-30.05
0
LINE
8
Black
10
114.95
20
-30.05
11
114.75
21
-30.05
0
LINE
8
Black
10
114.75
20
-30.05
11
114.733
21
-30.047
0
LINE
8
Black
10
114.733
20
-30.047
11
114.718
21
-30.0383
0
LINE
8
Black
10
114.718
20
-30.0383
11
114.707
21
-30.025
0
LINE
8
Black
10
114.707
20
-30.025
11
114.701
21
-30.0087
0
LINE
8
Black
10
114.701
20
-30.0087
11
114.701
21
-29.9913
0
LINE
8
Black
10
114.701
20
-29.9913
11
114.707
21
-29.975
0
LINE
8
Black
10
114.707
20
-29.975
11
114.718
21
-29.9617
0
LINE
8
Black
10
114.718
20
-29.9617
11
114.733
21
-29.953
0
LINE
8
Black
10
114.733
20
-29.953
11
114.75
21
-29.95
0
LINE
8
Black
10
114.75
20
-29.95
11
114.95
21
-29.95
0
LINE
8
Black
10
114.95
20
-29.95
11
114.95
21
-29.75
0
LINE
8
Black
10
114.95
20
-29.75
11
114.953
21
-29.7329
0
LINE
8
Black
10
114.953
20
-29.7329
11
114.962
21
-29.7179
0
LINE
8
Black
10
114.962
20
-29.7179
11
114.975
21
-29.7067
0
LINE
8
Black
10
114.975
20
-29.7067
11
114.991
21
-29.7008
0
LINE
8
Black
10
114.991
20
-29.7008
11
115.009
21
-29.7008
0
LINE
8
Black
10
115.009
20
-29.7008
11
115.025
21
-29.7067
0
LINE
8
Black
10
121.875
20
-27.2067
11
121.888
21
-27.2179
0
LINE
8
Black
10
121.888
20
-27.2179
11
121.897
21
-27.2329
0
LINE
8
Black
10
121.897
20
-27.2329
11
121.9
21
-27.25
0
LINE
8
Black
10
121.9
20
-27.25
11
121.9
21
-27.45
0
LINE
8
Black
10
121.9
20
-27.45
11
122.1
21
-27.45
0
LINE
8
Black
10
122.1
20
-27.45
11
122.117
21
-27.453
0
LINE
8
Black
10
122.117
20
-27.453
11
122.132
21
-27.4617
0
LINE
8
Black
10
122.132
20
-27.4617
11
122.143
21
-27.475
0
LINE
8
Black
10
122.143
20
-27.475
11
122.149
21
-27.4913
0
LINE
8
Black
10
122.149
20
-27.4913
11
122.149
21
-27.5087
0
LINE
8
Black
10
122.149
20
-27.5087
11
122.143
21
-27.525
0
LINE
8
Black
10
122.143
20
-27.525
11
122.132
21
-27.5383
0
LINE
8
Black
10
122.132
20
-27.5383
11
122.117
21
-27.547
0
LINE
8
Black
10
122.117
20
-27.547
11
122.1
21
-27.55
0
LINE
8
Black
10
122.1
20
-27.55
11
121.9
21
-27.55
0
LINE
8
Black
10
121.9
20
-27.55
11
121.9
21
-27.75
0
LINE
8
Black
10
121.9
20
-27.75
11
121.897
21
-27.7671
0
LINE
8
Black
10
121.897
20
-27.7671
11
121.888
21
-27.7821
0
LINE
8
Black
10
121.888
20
-27.7821
11
121.875
21
-27.7933
0
LINE
8
Black
10
121.875
20
-27.7933
11
121.859
21
-27.7992
0
LINE
8
Black
10
121.859
20
-27.7992
11
121.841
21
-27.7992
0
LINE
8
Black
10
121.841
20
-27.7992
11
121.825
21
-27.7933
0
LINE
8
Black
10
121.825
20
-27.7933
11
121.812
21
-27.7821
0
LINE
8
Black
10
121.812
20
-27.7821
11
121.803
21
-27.7671
0
LINE
8
Black
10
121.803
20
-27.7671
11
121.8
21
-27.75
0
LINE
8
Black
10
121.8
20
-27.75
11
121.8
21
-27.55
0
LINE
8
Black
10
121.8
20
-27.55
11
121.6
21
-27.55
0
LINE
8
Black
10
121.6
20
-27.55
11
121.583
21
-27.547
0
LINE
8
Black
10
121.583
20
-27.547
11
121.568
21
-27.5383
0
LINE
8
Black
10
121.568
20
-27.5383
11
121.557
21
-27.525
0
LINE
8
Black
10
121.557
20
-27.525
11
121.551
21
-27.5087
0
LINE
8
Black
10
121.551
20
-27.5087
11
121.551
21
-27.4913
0
LINE
8
Black
10
121.551
20
-27.4913
11
121.557
21
-27.475
0
LINE
8
Black
10
121.557
20
-27.475
11
121.568
21
-27.4617
0
LINE
8
Black
10
121.568
20
-27.4617
11
121.583
21
-27.453
0
LINE
8
Black
10
121.583
20
-27.453
11
121.6
21
-27.45
0
LINE
8
Black
10
121.6
20
-27.45
11
121.8
21
-27.45
0
LINE
8
Black
10
121.8
20
-27.45
11
121.8
21
-27.25
0
LINE
8
Black
10
121.8
20
-27.25
11
121.803
21
-27.2329
0
LINE
8
Black
10
121.803
20
-27.2329
11
121.812
21
-27.2179
0
LINE
8
Black
10
121.812
20
-27.2179
11
121.825
21
-27.2067
0
LINE
8
Black
10
121.825
20
-27.2067
11
121.841
21
-27.2008
0
LINE
8
Black
10
121.841
20
-27.2008
11
121.859
21
-27.2008
0
LINE
8
Black
10
121.859
20
-27.2008
11
121.875
21
-27.2067
0
LINE
8
Black
10
136.025
20
-27.2067
11
136.038
21
-27.2179
0
LINE
8
Black
10
136.038
20
-27.2179
11
136.047
21
-27.2329
0
LINE
8
Black
10
136.047
20
-27.2329
11
136.05
21
-27.25
0
LINE
8
Black
10
136.05
20
-27.25
11
136.05
21
-27.45
0
LINE
8
Black
10
136.05
20
-27.45
11
136.25
21
-27.45
0
LINE
8
Black
10
136.25
20
-27.45
11
136.267
21
-27.453
0
LINE
8
Black
10
136.267
20
-27.453
11
136.282
21
-27.4617
0
LINE
8
Black
10
136.282
20
-27.4617
11
136.293
21
-27.475
0
LINE
8
Black
10
136.293
20
-27.475
11
136.299
21
-27.4913
0
LINE
8
Black
10
136.299
20
-27.4913
11
136.299
21
-27.5087
0
LINE
8
Black
10
136.299
20
-27.5087
11
136.293
21
-27.525
0
LINE
8
Black
10
136.293
20
-27.525
11
136.282
21
-27.5383
0
LINE
8
Black
10
136.282
20
-27.5383
11
136.267
21
-27.547
0
LINE
8
Black
10
136.267
20
-27.547
11
136.25
21
-27.55
0
LINE
8
Black
10
136.25
20
-27.55
11
136.05
21
-27.55
0
LINE
8
Black
10
136.05
20
-27.55
11
136.05
21
-27.75
0
LINE
8
Black
10
136.05
20
-27.75
11
136.047
21
-27.7671
0
LINE
8
Black
10
136.047
20
-27.7671
11
136.038
21
-27.7821
0
LINE
8
Black
10
136.038
20
-27.7821
11
136.025
21
-27.7933
0
LINE
8
Black
10
136.025
20
-27.7933
11
136.009
21
-27.7992
0
LINE
8
Black
10
136.009
20
-27.7992
11
135.991
21
-27.7992
0
LINE
8
Black
10
135.991
20
-27.7992
11
135.975
21
-27.7933
0
LINE
8
Black
10
135.975
20
-27.7933
11
135.962
21
-27.7821
0
LINE
8
Black
10
135.962
20
-27.7821
11
135.953
21
-27.7671
0
LINE
8
Black
10
135.953
20
-27.7671
11
135.95
21
-27.75
0
LINE
8
Black
10
135.95
20
-27.75
11
135.95
21
-27.55
0
LINE
8
Black
10
135.95
20
-27.55
11
135.75
21
-27.55
0
LINE
8
Black
10
135.75
20
-27.55
11
135.733
21
-27.547
0
LINE
8
Black
10
135.733
20
-27.547
11
135.718
21
-27.5383
0
LINE
8
Black
10
135.718
20
-27.5383
11
135.707
21
-27.525
0
LINE
8
Black
10
135.707
20
-27.525
11
135.701
21
-27.5087
0
LINE
8
Black
10
135.701
20
-27.5087
11
135.701
21
-27.4913
0
LINE
8
Black
10
135.701
20
-27.4913
11
135.707
21
-27.475
0
LINE
8
Black
10
135.707
20
-27.475
11
135.718
21
-27.4617
0
LINE
8
Black
10
135.718
20
-27.4617
11
135.733
21
-27.453
0
LINE
8
Black
10
135.733
20
-27.453
11
135.75
21
-27.45
0
LINE
8
Black
10
135.75
20
-27.45
11
135.95
21
-27.45
0
LINE
8
Black
10
135.95
20
-27.45
11
135.95
21
-27.25
0
LINE
8
Black
10
135.95
20
-27.25
11
135.953
21
-27.2329
0
LINE
8
Black
10
135.953
20
-27.2329
11
135.962
21
-27.2179
0
LINE
8
Black
10
135.962
20
-27.2179
11
135.975
21
-27.2067
0
LINE
8
Black
10
135.975
20
-27.2067
11
135.991
21
-27.2008
0
LINE
8
Black
10
135.991
20
-27.2008
11
136.009
21
-27.2008
0
LINE
8
Black
10
136.009
20
-27.2008
11
136.025
21
-27.2067
0
LINE
8
Black
10
121.875
20
-22.2067
11
121.888
21
-22.2179
0
LINE
8
Black
10
121.888
20
-22.2179
11
121.897
21
-22.2329
0
LINE
8
Black
10
121.897
20
-22.2329
11
121.9
21
-22.25
0
LINE
8
Black
10
121.9
20
-22.25
11
121.9
21
-22.45
0
LINE
8
Black
10
121.9
20
-22.45
11
122.1
21
-22.45
0
LINE
8
Black
10
122.1
20
-22.45
11
122.117
21
-22.453
0
LINE
8
Black
10
122.117
20
-22.453
11
122.132
21
-22.4617
0
LINE
8
Black
10
122.132
20
-22.4617
11
122.143
21
-22.475
0
LINE
8
Black
10
122.143
20
-22.475
11
122.149
21
-22.4913
0
LINE
8
Black
10
122.149
20
-22.4913
11
122.149
21
-22.5087
0
LINE
8
Black
10
122.149
20
-22.5087
11
122.143
21
-22.525
0
LINE
8
Black
10
122.143
20
-22.525
11
122.132
21
-22.5383
0
LINE
8
Black
10
122.132
20
-22.5383
11
122.117
21
-22.547
0
LINE
8
Black
10
122.117
20
-22.547
11
122.1
21
-22.55
0
LINE
8
Black
10
122.1
20
-22.55
11
121.9
21
-22.55
0
LINE
8
Black
10
121.9
20
-22.55
11
121.9
21
-22.75
0
LINE
8
Black
10
121.9
20
-22.75
11
121.897
21
-22.7671
0
LINE
8
Black
10
121.897
20
-22.7671
11
121.888
21
-22.7821
0
LINE
8
Black
10
121.888
20
-22.7821
11
121.875
21
-22.7933
0
LINE
8
Black
10
121.875
20
-22.7933
11
121.859
21
-22.7992
0
LINE
8
Black
10
121.859
20
-22.7992
11
121.841
21
-22.7992
0
LINE
8
Black
10
121.841
20
-22.7992
11
121.825
21
-22.7933
0
LINE
8
Black
10
121.825
20
-22.7933
11
121.812
21
-22.7821
0
LINE
8
Black
10
121.812
20
-22.7821
11
121.803
21
-22.7671
0
LINE
8
Black
10
121.803
20
-22.7671
11
121.8
21
-22.75
0
LINE
8
Black
10
121.8
20
-22.75
11
121.8
21
-22.55
0
LINE
8
Black
10
121.8
20
-22.55
11
121.6
21
-22.55
0
LINE
8
Black
10
121.6
20
-22.55
11
121.583
21
-22.547
0
LINE
8
Black
10
121.583
20
-22.547
11
121.568
21
-22.5383
0
LINE
8
Black
10
121.568
20
-22.5383
11
121.557
21
-22.525
0
LINE
8
Black
10
121.557
20
-22.525
11
121.551
21
-22.5087
0
LINE
8
Black
10
121.551
20
-22.5087
11
121.551
21
-22.4913
0
LINE
8
Black
10
121.551
20
-22.4913
11
121.557
21
-22.475
0
LINE
8
Black
10
121.557
20
-22.475
11
121.568
21
-22.4617
0
LINE
8
Black
10
121.568
20
-22.4617
11
121.583
21
-22.453
0
LINE
8
Black
10
121.583
20
-22.453
11
121.6
21
-22.45
0
LINE
8
Black
10
121.6
20
-22.45
11
121.8
21
-22.45
0
LINE
8
Black
10
121.8
20
-22.45
11
121.8
21
-22.25
0
LINE
8
Black
10
121.8
20
-22.25
11
121.803
21
-22.2329
0
LINE
8
Black
10
121.803
20
-22.2329
11
121.812
21
-22.2179
0
LINE
8
Black
10
121.812
20
-22.2179
11
121.825
21
-22.2067
0
LINE
8
Black
10
121.825
20
-22.2067
11
121.841
21
-22.2008
0
LINE
8
Black
10
121.841
20
-22.2008
11
121.859
21
-22.2008
0
LINE
8
Black
10
121.859
20
-22.2008
11
121.875
21
-22.2067
  0
ENDSEC
  0
EOF
