G04 #@! TF.FileFunction,Soldermask,Bot*
%FSLAX46Y46*%
G04 Gerber Fmt 4.6, Leading zero omitted, Abs format (unit mm)*
G04 Created by KiCad (PCBNEW 4.0.2-stable) date 2019-06-10 3:09:26 PM*
%MOMM*%
G01*
G04 APERTURE LIST*
%ADD10C,0.200000*%
%ADD11C,3.275000*%
%ADD12R,1.500000X1.500000*%
%ADD13C,1.500000*%
%ADD14R,1.300000X1.500000*%
%ADD15O,4.100000X2.600000*%
%ADD16O,2.600000X2.100000*%
%ADD17O,1.600000X3.600000*%
%ADD18R,1.800000X1.800000*%
%ADD19O,1.800000X1.800000*%
%ADD20O,2.300000X1.500000*%
%ADD21O,2.350000X1.500000*%
%ADD22R,2.299640X0.699440*%
%ADD23R,0.801040X1.100760*%
%ADD24R,1.100760X0.801040*%
%ADD25R,1.243000X1.497000*%
%ADD26R,0.900000X0.600000*%
%ADD27R,1.000000X0.900000*%
%ADD28R,1.400480X0.500000*%
%ADD29R,0.500000X1.400480*%
%ADD30R,1.600000X0.550000*%
%ADD31R,1.550000X0.550000*%
%ADD32R,1.160000X0.750000*%
%ADD33R,3.099740X1.700200*%
%ADD34R,1.700200X3.099740*%
%ADD35R,2.497760X2.497760*%
%ADD36R,1.497000X1.243000*%
%ADD37R,1.700000X1.600000*%
%ADD38R,1.300000X1.300000*%
%ADD39R,0.900000X1.000000*%
%ADD40R,0.709600X0.862000*%
%ADD41R,0.862000X0.709600*%
%ADD42R,2.600000X3.600000*%
%ADD43R,2.600000X3.100000*%
%ADD44C,1.850000*%
%ADD45R,2.600000X2.850000*%
G04 APERTURE END LIST*
D10*
D11*
X144500000Y-73000000D03*
X119250000Y-111250000D03*
X113250000Y-67500000D03*
D12*
X120580000Y-22500000D03*
D13*
X123120000Y-22500000D03*
D12*
X120580000Y-27500000D03*
D13*
X123120000Y-27500000D03*
D14*
X120580000Y-32500000D03*
D13*
X123120000Y-32500000D03*
D14*
X120580000Y-37500000D03*
D13*
X123120000Y-37500000D03*
D15*
X115000000Y-46800000D03*
D16*
X115000000Y-56200000D03*
D17*
X119900000Y-51500000D03*
X111700000Y-51500000D03*
D15*
X115000000Y-70800000D03*
D16*
X115000000Y-80200000D03*
D17*
X119900000Y-75500000D03*
X111700000Y-75500000D03*
D15*
X129000000Y-114550000D03*
D16*
X129000000Y-123950000D03*
D17*
X133900000Y-119250000D03*
X125700000Y-119250000D03*
D15*
X115000000Y-94800000D03*
D16*
X115000000Y-104200000D03*
D17*
X119900000Y-99500000D03*
X111700000Y-99500000D03*
D15*
X115000000Y-114550000D03*
D16*
X115000000Y-123950000D03*
D17*
X119900000Y-119250000D03*
X111700000Y-119250000D03*
D15*
X143000000Y-123950000D03*
D16*
X143000000Y-114550000D03*
D17*
X138100000Y-119250000D03*
X146300000Y-119250000D03*
D18*
X142300000Y-41800000D03*
D19*
X144840000Y-41800000D03*
X142300000Y-39260000D03*
X144840000Y-39260000D03*
X142300000Y-36720000D03*
X144840000Y-36720000D03*
X142300000Y-34180000D03*
X144840000Y-34180000D03*
X142300000Y-31640000D03*
X144840000Y-31640000D03*
D20*
X111750000Y-27750000D03*
X111750000Y-32250000D03*
D21*
X118250000Y-27750000D03*
X118250000Y-32250000D03*
D22*
X127738420Y-61905000D03*
X127738420Y-63175000D03*
X127738420Y-64445000D03*
X127738420Y-65715000D03*
X127738420Y-66985000D03*
X127738420Y-68255000D03*
X127738420Y-69525000D03*
X127738420Y-70795000D03*
X122541580Y-70795000D03*
X122541580Y-69525000D03*
X122541580Y-68255000D03*
X122541580Y-66985000D03*
X122541580Y-65715000D03*
X122541580Y-64445000D03*
X122541580Y-63175000D03*
X122541580Y-61905000D03*
X122541580Y-87795000D03*
X122541580Y-86525000D03*
X122541580Y-85255000D03*
X122541580Y-83985000D03*
X122541580Y-82715000D03*
X122541580Y-81445000D03*
X122541580Y-80175000D03*
X122541580Y-78905000D03*
X127738420Y-78905000D03*
X127738420Y-80175000D03*
X127738420Y-81445000D03*
X127738420Y-82715000D03*
X127738420Y-83985000D03*
X127738420Y-85255000D03*
X127738420Y-86525000D03*
X127738420Y-87795000D03*
X127738420Y-96655000D03*
X127738420Y-97925000D03*
X127738420Y-99195000D03*
X127738420Y-100465000D03*
X127738420Y-101735000D03*
X127738420Y-103005000D03*
X127738420Y-104275000D03*
X127738420Y-105545000D03*
X122541580Y-105545000D03*
X122541580Y-104275000D03*
X122541580Y-103005000D03*
X122541580Y-101735000D03*
X122541580Y-100465000D03*
X122541580Y-99195000D03*
X122541580Y-97925000D03*
X122541580Y-96655000D03*
X141738420Y-87155000D03*
X141738420Y-88425000D03*
X141738420Y-89695000D03*
X141738420Y-90965000D03*
X141738420Y-92235000D03*
X141738420Y-93505000D03*
X141738420Y-94775000D03*
X141738420Y-96045000D03*
X136541580Y-96045000D03*
X136541580Y-94775000D03*
X136541580Y-93505000D03*
X136541580Y-92235000D03*
X136541580Y-90965000D03*
X136541580Y-89695000D03*
X136541580Y-88425000D03*
X136541580Y-87155000D03*
D23*
X130640000Y-104830000D03*
X129687500Y-107370000D03*
X131592500Y-107370000D03*
X118890000Y-104580000D03*
X117937500Y-107120000D03*
X119842500Y-107120000D03*
D24*
X118910000Y-67350000D03*
X116370000Y-66397500D03*
X116370000Y-68302500D03*
X131370000Y-67350000D03*
X133910000Y-68302500D03*
X133910000Y-66397500D03*
D25*
X131560500Y-64850000D03*
X133719500Y-64850000D03*
X118719500Y-64850000D03*
X116560500Y-64850000D03*
X119219500Y-102600000D03*
X117060500Y-102600000D03*
X131060500Y-102850000D03*
X133219500Y-102850000D03*
D26*
X126140000Y-55950000D03*
X124140000Y-56600000D03*
X126140000Y-57250000D03*
X126140000Y-56600000D03*
X124140000Y-57250000D03*
X124140000Y-55950000D03*
X139890000Y-69950000D03*
X137890000Y-70600000D03*
X139890000Y-71250000D03*
X139890000Y-70600000D03*
X137890000Y-71250000D03*
X137890000Y-69950000D03*
D27*
X128990000Y-41600000D03*
X127290000Y-41600000D03*
X123640000Y-43500000D03*
X123640000Y-45200000D03*
X121890000Y-45200000D03*
X121890000Y-43500000D03*
X141240000Y-64850000D03*
X139540000Y-64850000D03*
X143540000Y-66600000D03*
X145240000Y-66600000D03*
X142040000Y-54350000D03*
X143740000Y-54350000D03*
X130040000Y-83600000D03*
X131740000Y-83600000D03*
X130040000Y-80100000D03*
X131740000Y-80100000D03*
X130040000Y-81850000D03*
X131740000Y-81850000D03*
X126290000Y-108850000D03*
X127990000Y-108850000D03*
X127740000Y-94850000D03*
X126040000Y-94850000D03*
X127990000Y-107100000D03*
X126290000Y-107100000D03*
X123240000Y-29600000D03*
X121540000Y-29600000D03*
X127040000Y-92850000D03*
X128740000Y-92850000D03*
X133890000Y-89500000D03*
X133890000Y-91200000D03*
X114540000Y-51350000D03*
X116240000Y-51350000D03*
X132140000Y-94700000D03*
X132140000Y-93000000D03*
X111640000Y-46000000D03*
X111640000Y-47700000D03*
X124540000Y-31350000D03*
X126240000Y-31350000D03*
X123490000Y-108850000D03*
X121790000Y-108850000D03*
X122540000Y-94850000D03*
X124240000Y-94850000D03*
X140890000Y-85450000D03*
X140890000Y-83750000D03*
X140140000Y-119950000D03*
X140140000Y-118250000D03*
X121790000Y-107100000D03*
X123490000Y-107100000D03*
X120140000Y-95700000D03*
X120140000Y-94000000D03*
X130390000Y-91200000D03*
X130390000Y-89500000D03*
X130390000Y-93000000D03*
X130390000Y-94700000D03*
X113290000Y-85350000D03*
X114990000Y-85350000D03*
X120140000Y-92700000D03*
X120140000Y-91000000D03*
X130040000Y-87850000D03*
X131740000Y-87850000D03*
X116640000Y-92450000D03*
X116640000Y-90750000D03*
X134390000Y-98500000D03*
X134390000Y-100200000D03*
X116640000Y-89450000D03*
X116640000Y-87750000D03*
X130140000Y-61200000D03*
X130140000Y-59500000D03*
X146140000Y-97450000D03*
X146140000Y-95750000D03*
X122240000Y-24600000D03*
X120540000Y-24600000D03*
X144390000Y-97450000D03*
X144390000Y-95750000D03*
X122790000Y-60100000D03*
X124490000Y-60100000D03*
X116790000Y-62850000D03*
X118490000Y-62850000D03*
X118490000Y-61100000D03*
X116790000Y-61100000D03*
X146140000Y-87750000D03*
X146140000Y-89450000D03*
X144390000Y-89450000D03*
X144390000Y-87750000D03*
X137890000Y-101500000D03*
X137890000Y-103200000D03*
X114040000Y-61100000D03*
X115740000Y-61100000D03*
X127740000Y-60100000D03*
X126040000Y-60100000D03*
X142640000Y-85450000D03*
X142640000Y-83750000D03*
X133240000Y-62850000D03*
X131540000Y-62850000D03*
X131640000Y-61200000D03*
X131640000Y-59500000D03*
X122140000Y-52950000D03*
X122140000Y-51250000D03*
X130140000Y-55950000D03*
X130140000Y-54250000D03*
X140640000Y-113950000D03*
X140640000Y-112250000D03*
X121040000Y-58350000D03*
X122740000Y-58350000D03*
X144390000Y-92250000D03*
X144390000Y-93950000D03*
X121040000Y-54850000D03*
X122740000Y-54850000D03*
X144740000Y-109100000D03*
X143040000Y-109100000D03*
X135640000Y-70000000D03*
X135640000Y-71700000D03*
X141890000Y-68200000D03*
X141890000Y-66500000D03*
X141740000Y-109100000D03*
X140040000Y-109100000D03*
X121040000Y-56600000D03*
X122740000Y-56600000D03*
X125040000Y-46850000D03*
X126740000Y-46850000D03*
X138640000Y-55950000D03*
X138640000Y-54250000D03*
X137240000Y-109100000D03*
X135540000Y-109100000D03*
X128040000Y-46850000D03*
X129740000Y-46850000D03*
X134390000Y-55950000D03*
X134390000Y-54250000D03*
X136140000Y-55950000D03*
X136140000Y-54250000D03*
X132140000Y-39950000D03*
X132140000Y-38250000D03*
X140390000Y-55950000D03*
X140390000Y-54250000D03*
X130490000Y-112350000D03*
X128790000Y-112350000D03*
X130490000Y-110600000D03*
X128790000Y-110600000D03*
X131990000Y-41600000D03*
X130290000Y-41600000D03*
X133890000Y-39950000D03*
X133890000Y-38250000D03*
X145240000Y-68350000D03*
X143540000Y-68350000D03*
X133290000Y-41600000D03*
X134990000Y-41600000D03*
X145040000Y-54350000D03*
X146740000Y-54350000D03*
X137790000Y-61100000D03*
X139490000Y-61100000D03*
D28*
X122446000Y-91305400D03*
X122446000Y-90670400D03*
X122446000Y-90010000D03*
X122446000Y-89375000D03*
X128034000Y-89375000D03*
X128034000Y-90022700D03*
X128034000Y-90670400D03*
X128034000Y-91318100D03*
X132446000Y-114055400D03*
X132446000Y-113420400D03*
X132446000Y-112760000D03*
X132446000Y-112125000D03*
X138034000Y-112125000D03*
X138034000Y-112772700D03*
X138034000Y-113420400D03*
X138034000Y-114068100D03*
D29*
X142434600Y-56656000D03*
X143069600Y-56656000D03*
X143730000Y-56656000D03*
X144365000Y-56656000D03*
X144365000Y-62244000D03*
X143717300Y-62244000D03*
X143069600Y-62244000D03*
X142421900Y-62244000D03*
D28*
X131584000Y-43394600D03*
X131584000Y-44029600D03*
X131584000Y-44690000D03*
X131584000Y-45325000D03*
X125996000Y-45325000D03*
X125996000Y-44677300D03*
X125996000Y-44029600D03*
X125996000Y-43381900D03*
D30*
X117840000Y-34075000D03*
X117840000Y-34725000D03*
X117840000Y-35375000D03*
X117840000Y-36025000D03*
X117840000Y-36675000D03*
X117840000Y-37325000D03*
X117840000Y-37975000D03*
X117840000Y-38625000D03*
X111940000Y-38625000D03*
X111940000Y-37975000D03*
X111940000Y-37325000D03*
X111940000Y-36675000D03*
X111940000Y-36025000D03*
X111940000Y-35375000D03*
X111940000Y-34725000D03*
X111940000Y-34075000D03*
X117840000Y-21575000D03*
X117840000Y-22225000D03*
X117840000Y-22875000D03*
X117840000Y-23525000D03*
X117840000Y-24175000D03*
X117840000Y-24825000D03*
X117840000Y-25475000D03*
X117840000Y-26125000D03*
X111940000Y-26125000D03*
X111940000Y-25475000D03*
X111940000Y-24825000D03*
X111940000Y-24175000D03*
X111940000Y-23525000D03*
X111940000Y-22875000D03*
X111940000Y-22225000D03*
X111940000Y-21575000D03*
D31*
X117840000Y-40400000D03*
X117840000Y-41050000D03*
X117840000Y-41700000D03*
X117840000Y-42350000D03*
X117840000Y-43000000D03*
X117840000Y-43650000D03*
X117840000Y-44300000D03*
X111940000Y-44300000D03*
X111940000Y-43650000D03*
X111940000Y-43000000D03*
X111940000Y-42350000D03*
X111940000Y-41700000D03*
X111940000Y-41050000D03*
X111940000Y-40400000D03*
D32*
X126240000Y-50150000D03*
X126240000Y-51100000D03*
X126240000Y-52050000D03*
X124040000Y-52050000D03*
X124040000Y-50150000D03*
X137740000Y-66400000D03*
X137740000Y-67350000D03*
X137740000Y-68300000D03*
X135540000Y-68300000D03*
X135540000Y-66400000D03*
D33*
X133690360Y-30850000D03*
X138089640Y-30850000D03*
X138089640Y-23600000D03*
X133690360Y-23600000D03*
D34*
X135890000Y-78799640D03*
X135890000Y-74400360D03*
D35*
X141500360Y-47900000D03*
X145899640Y-47900000D03*
X146089640Y-23600000D03*
X141690360Y-23600000D03*
D36*
X119390000Y-54770500D03*
X119390000Y-56929500D03*
D25*
X143810500Y-28100000D03*
X145969500Y-28100000D03*
X140820500Y-44800000D03*
X142979500Y-44800000D03*
D37*
X136140000Y-52300000D03*
D38*
X135140000Y-49050000D03*
X137140000Y-49050000D03*
D37*
X129140000Y-37800000D03*
D38*
X128140000Y-34550000D03*
X130140000Y-34550000D03*
D27*
X128040000Y-48850000D03*
X129740000Y-48850000D03*
X143250000Y-52700000D03*
X144950000Y-52700000D03*
X131490000Y-72100000D03*
X129790000Y-72100000D03*
X120740000Y-72100000D03*
X119040000Y-72100000D03*
X114540000Y-53100000D03*
X116240000Y-53100000D03*
D39*
X124700000Y-29450000D03*
X124700000Y-27750000D03*
D27*
X118390000Y-86450000D03*
X118390000Y-84750000D03*
X130040000Y-85850000D03*
X131740000Y-85850000D03*
X146140000Y-58450000D03*
X146140000Y-56750000D03*
X146140000Y-59750000D03*
X146140000Y-61450000D03*
X132390000Y-109000000D03*
X132390000Y-110700000D03*
X138240000Y-115600000D03*
X136540000Y-115600000D03*
X133240000Y-46850000D03*
X131540000Y-46850000D03*
X123640000Y-42200000D03*
X123640000Y-40500000D03*
X132140000Y-91200000D03*
X132140000Y-89500000D03*
X120140000Y-89450000D03*
X120140000Y-87750000D03*
X136140000Y-100200000D03*
X136140000Y-98500000D03*
X125990000Y-53350000D03*
X124290000Y-53350000D03*
X143040000Y-110850000D03*
X144740000Y-110850000D03*
X146140000Y-93950000D03*
X146140000Y-92250000D03*
X140390000Y-66500000D03*
X140390000Y-68200000D03*
X137240000Y-110600000D03*
X135540000Y-110600000D03*
D40*
X142645400Y-64850000D03*
X145134600Y-64850000D03*
X113895400Y-49350000D03*
X116384600Y-49350000D03*
D41*
X113190000Y-89594600D03*
X113190000Y-87105400D03*
X114890000Y-87105400D03*
X114890000Y-89594600D03*
D11*
X127500000Y-27500000D03*
D42*
X140800000Y-99500000D03*
D43*
X131200000Y-99500000D03*
D44*
X138500000Y-107000000D03*
X136000000Y-107000000D03*
X133500000Y-107000000D03*
D42*
X140800000Y-75500000D03*
X131200000Y-75500000D03*
D44*
X138500000Y-83000000D03*
X136000000Y-83000000D03*
X133500000Y-83000000D03*
D43*
X140800000Y-51500000D03*
X131200000Y-51500000D03*
D44*
X138500000Y-59000000D03*
X136000000Y-59000000D03*
X133500000Y-59000000D03*
D42*
X140800000Y-27500000D03*
D45*
X131200000Y-27500000D03*
D44*
X138500000Y-35000000D03*
X136000000Y-35000000D03*
X133500000Y-35000000D03*
M02*
