G04 #@! TF.FileFunction,Copper,L3,Inr,Signal*
%FSLAX46Y46*%
G04 Gerber Fmt 4.6, Leading zero omitted, Abs format (unit mm)*
G04 Created by KiCad (PCBNEW 4.0.2-stable) date 2017-11-27 2:33:33 PM*
%MOMM*%
G01*
G04 APERTURE LIST*
%ADD10C,0.200000*%
%ADD11R,1.200000X1.200000*%
%ADD12C,1.200000*%
%ADD13O,4.000000X2.500000*%
%ADD14O,2.500000X2.000000*%
%ADD15O,1.500000X3.500000*%
%ADD16R,1.700000X1.700000*%
%ADD17O,1.700000X1.700000*%
%ADD18O,2.800000X3.500000*%
%ADD19C,1.750000*%
%ADD20O,2.200000X1.400000*%
%ADD21O,2.250000X1.400000*%
%ADD22C,0.900000*%
%ADD23C,0.250000*%
G04 APERTURE END LIST*
D10*
D11*
X128710000Y-40730000D03*
D12*
X131250000Y-40730000D03*
D11*
X128710000Y-45730000D03*
D12*
X131250000Y-45730000D03*
D11*
X128710000Y-50730000D03*
D12*
X131250000Y-50730000D03*
D11*
X128710000Y-55730000D03*
D12*
X131250000Y-55730000D03*
D13*
X123100000Y-64950000D03*
D14*
X123100000Y-74350000D03*
D15*
X128000000Y-69650000D03*
X119800000Y-69650000D03*
D13*
X123600000Y-88950000D03*
D14*
X123600000Y-98350000D03*
D15*
X128500000Y-93650000D03*
X120300000Y-93650000D03*
D13*
X137100000Y-133450000D03*
D14*
X137100000Y-142850000D03*
D15*
X142000000Y-138150000D03*
X133800000Y-138150000D03*
D13*
X123100000Y-112950000D03*
D14*
X123100000Y-122350000D03*
D15*
X128000000Y-117650000D03*
X119800000Y-117650000D03*
D13*
X123100000Y-133460000D03*
D14*
X123100000Y-142860000D03*
D15*
X128000000Y-138160000D03*
X119800000Y-138160000D03*
D13*
X151100000Y-142850000D03*
D14*
X151100000Y-133450000D03*
D15*
X146200000Y-138150000D03*
X154400000Y-138150000D03*
D16*
X151500000Y-59250000D03*
D17*
X154040000Y-59250000D03*
X151500000Y-56710000D03*
X154040000Y-56710000D03*
X151500000Y-54170000D03*
X154040000Y-54170000D03*
X151500000Y-51630000D03*
X154040000Y-51630000D03*
X151500000Y-49090000D03*
X154040000Y-49090000D03*
D18*
X148890000Y-45650000D03*
X139290000Y-45650000D03*
D19*
X146590000Y-53150000D03*
X144090000Y-53150000D03*
X141590000Y-53150000D03*
D18*
X148890000Y-69650000D03*
X139290000Y-69650000D03*
D19*
X146590000Y-77150000D03*
X144090000Y-77150000D03*
X141590000Y-77150000D03*
D18*
X148890000Y-93650000D03*
X139290000Y-93650000D03*
D19*
X146590000Y-101150000D03*
X144090000Y-101150000D03*
X141590000Y-101150000D03*
D20*
X119850000Y-46000000D03*
X119850000Y-50500000D03*
D21*
X126350000Y-46000000D03*
X126350000Y-50500000D03*
D18*
X148890000Y-117650000D03*
X139290000Y-117650000D03*
D19*
X146590000Y-125150000D03*
X144090000Y-125150000D03*
X141590000Y-125150000D03*
D22*
X142700000Y-103350000D03*
X152500000Y-113000000D03*
X123500000Y-84500000D03*
D12*
X141800000Y-40000000D03*
X154200000Y-44100000D03*
X153350000Y-88700000D03*
X140950000Y-90250019D03*
X134472337Y-104615347D03*
X132600000Y-82600000D03*
X137750000Y-82600000D03*
X122000000Y-57250000D03*
X136150000Y-71300000D03*
X135562999Y-74814910D03*
X152900000Y-125850000D03*
X154700000Y-68100000D03*
X141800000Y-62900000D03*
X134746930Y-107566809D03*
X142300000Y-130650000D03*
X142300000Y-71100000D03*
X127350000Y-44400000D03*
X121538009Y-41678281D03*
X146450000Y-107850000D03*
X141200000Y-104450000D03*
X126500000Y-105900000D03*
X137765870Y-121867016D03*
X132601402Y-114800000D03*
X142550000Y-121050000D03*
X147000000Y-86450000D03*
X134100000Y-117350000D03*
D22*
X144250000Y-119800000D03*
X143050000Y-99350000D03*
X146350000Y-110400000D03*
X126950000Y-109100000D03*
X133535777Y-109110124D03*
X149500000Y-136400000D03*
D12*
X142450000Y-114600000D03*
X132400000Y-104650000D03*
X130700000Y-90250000D03*
X131999967Y-121150000D03*
X134044834Y-103133633D03*
X140250000Y-54750000D03*
X133750000Y-111375020D03*
X145300000Y-62750000D03*
X122527738Y-55500000D03*
X148450000Y-123100000D03*
X133750000Y-60350000D03*
X132150000Y-67400000D03*
X149750000Y-80400000D03*
X139000000Y-86750000D03*
X134999992Y-52750000D03*
X123225020Y-62272237D03*
X122527738Y-51306624D03*
X147800000Y-133400000D03*
X143200000Y-44100000D03*
X144550000Y-44100000D03*
X121700000Y-39800000D03*
X131650000Y-42750000D03*
X145850000Y-44100000D03*
X134400000Y-121200000D03*
X141735565Y-128704760D03*
X126465394Y-101751952D03*
X122150000Y-80600000D03*
X135550000Y-69300000D03*
X139650000Y-66750000D03*
X131600000Y-128300000D03*
X144749987Y-83594430D03*
X133300000Y-95600000D03*
X132056242Y-108000000D03*
X149800000Y-76200000D03*
X136000000Y-90094744D03*
X148150000Y-111650000D03*
X152472460Y-76188006D03*
X149800360Y-62200000D03*
X149800360Y-63650000D03*
D22*
X120400002Y-105250000D03*
X138500000Y-114000000D03*
X151599996Y-87700000D03*
X130000000Y-60700000D03*
X141100000Y-74050002D03*
X148500000Y-75249994D03*
X147250000Y-90600000D03*
X142000000Y-87699980D03*
X152500000Y-104850000D03*
X123850000Y-78100000D03*
X137976943Y-119674980D03*
X129900000Y-128300000D03*
X154150002Y-71050000D03*
X135800000Y-128700000D03*
X138200000Y-76600000D03*
X150550000Y-131600000D03*
X127340414Y-100787720D03*
X151300000Y-123849994D03*
X138200000Y-80550000D03*
X132374980Y-98231268D03*
X130300000Y-110900000D03*
X141350000Y-97500000D03*
X135250016Y-63450014D03*
X132307775Y-105999988D03*
X127189176Y-52221971D03*
X134332839Y-105907853D03*
X121325180Y-52917000D03*
X127514197Y-60500000D03*
X127514197Y-53500000D03*
D23*
X123500000Y-84500000D02*
X130350000Y-91350000D01*
X130350000Y-91350000D02*
X141550000Y-91350000D01*
X141550000Y-91350000D02*
X149550000Y-99350000D01*
X149550000Y-99350000D02*
X149550000Y-102850000D01*
X149550000Y-110050000D02*
X152050001Y-112550001D01*
X149550000Y-102850000D02*
X149550000Y-110050000D01*
X152050001Y-112550001D02*
X152500000Y-113000000D01*
X149550000Y-102850000D02*
X149550000Y-103350000D01*
X149550000Y-103350000D02*
X142700000Y-103350000D01*
X143050000Y-99350000D02*
X140400000Y-99350000D01*
X138850000Y-106900000D02*
X144250000Y-112300000D01*
X140400000Y-99350000D02*
X138850000Y-100900000D01*
X138850000Y-100900000D02*
X138850000Y-106900000D01*
X144250000Y-112300000D02*
X144250000Y-119800000D01*
X133535777Y-109110124D02*
X135010124Y-109110124D01*
X142081999Y-122025001D02*
X146874999Y-122025001D01*
X135010124Y-109110124D02*
X141524999Y-115624999D01*
X141524999Y-115624999D02*
X141524999Y-121468001D01*
X141524999Y-121468001D02*
X142081999Y-122025001D01*
X151750000Y-136400000D02*
X149500000Y-136400000D01*
X146874999Y-122025001D02*
X147800000Y-121100000D01*
X147800000Y-121100000D02*
X149400000Y-121100000D01*
X149400000Y-121100000D02*
X150325001Y-122025001D01*
X150325001Y-122025001D02*
X152525001Y-122025001D01*
X152525001Y-122025001D02*
X154350000Y-123850000D01*
X154350000Y-123850000D02*
X154350000Y-133800000D01*
X154350000Y-133800000D02*
X151750000Y-136400000D01*
X151599996Y-87700000D02*
X143749996Y-79850000D01*
X143749996Y-79850000D02*
X140200000Y-79850000D01*
X128000000Y-72550000D02*
X128000000Y-69650000D01*
X140200000Y-79850000D02*
X138700000Y-78350000D01*
X129000000Y-73550000D02*
X128000000Y-72550000D01*
X138700000Y-78350000D02*
X136100000Y-78350000D01*
X136100000Y-78350000D02*
X131300000Y-73550000D01*
X131300000Y-73550000D02*
X129000000Y-73550000D01*
X138800000Y-84550000D02*
X140150000Y-84550000D01*
X140150000Y-84550000D02*
X142000000Y-86400000D01*
X142000000Y-86400000D02*
X142000000Y-86850000D01*
X142000000Y-86850000D02*
X142000000Y-87699980D01*
X142636396Y-87699980D02*
X142000000Y-87699980D01*
X152500000Y-104850000D02*
X152500000Y-92600000D01*
X147599980Y-87699980D02*
X142636396Y-87699980D01*
X152500000Y-92600000D02*
X147599980Y-87699980D01*
X123850000Y-78100000D02*
X130300000Y-84550000D01*
X130300000Y-84550000D02*
X134050000Y-84550000D01*
X134050000Y-84550000D02*
X138800000Y-84550000D01*
X137250000Y-84550000D02*
X138800000Y-84550000D01*
X144090000Y-77150000D02*
X144090000Y-74810000D01*
X153700003Y-71499999D02*
X154150002Y-71050000D01*
X144090000Y-74810000D02*
X145500000Y-73400000D01*
X145500000Y-73400000D02*
X151800002Y-73400000D01*
X151800002Y-73400000D02*
X153700003Y-71499999D01*
X151300000Y-123849994D02*
X150850001Y-124299993D01*
X150850001Y-124299993D02*
X148206991Y-124299993D01*
X148206991Y-124299993D02*
X147206998Y-123300000D01*
X130150000Y-114050000D02*
X128700000Y-112600000D01*
X147206998Y-123300000D02*
X131300000Y-123300000D01*
X131300000Y-123300000D02*
X130150000Y-122150000D01*
X130150000Y-122150000D02*
X130150000Y-114050000D01*
X128700000Y-112600000D02*
X128700000Y-102147306D01*
X128700000Y-102147306D02*
X127340414Y-100787720D01*
X130300000Y-103100000D02*
X130300000Y-110263604D01*
X135900000Y-97500000D02*
X130300000Y-103100000D01*
X141350000Y-97500000D02*
X135900000Y-97500000D01*
X130300000Y-110263604D02*
X130300000Y-110900000D01*
G36*
X120831554Y-39218626D02*
X120675178Y-39595220D01*
X120674822Y-40002991D01*
X120830541Y-40379857D01*
X121118626Y-40668446D01*
X121495220Y-40824822D01*
X121902991Y-40825178D01*
X122279857Y-40669459D01*
X122568446Y-40381374D01*
X122672825Y-40130000D01*
X127676674Y-40130000D01*
X127676674Y-41330000D01*
X127706309Y-41487496D01*
X127799389Y-41632146D01*
X127941412Y-41729186D01*
X128110000Y-41763326D01*
X129310000Y-41763326D01*
X129467496Y-41733691D01*
X129612146Y-41640611D01*
X129709186Y-41498588D01*
X129718317Y-41453493D01*
X130708941Y-41453493D01*
X130772568Y-41606597D01*
X131144369Y-41722575D01*
X131532252Y-41687442D01*
X131727432Y-41606597D01*
X131791059Y-41453493D01*
X131250000Y-40912434D01*
X130708941Y-41453493D01*
X129718317Y-41453493D01*
X129743326Y-41330000D01*
X129743326Y-40624369D01*
X130257425Y-40624369D01*
X130292558Y-41012252D01*
X130373403Y-41207432D01*
X130526507Y-41271059D01*
X131067566Y-40730000D01*
X131432434Y-40730000D01*
X131973493Y-41271059D01*
X132126597Y-41207432D01*
X132242575Y-40835631D01*
X132207442Y-40447748D01*
X132126597Y-40252568D01*
X131973493Y-40188941D01*
X131432434Y-40730000D01*
X131067566Y-40730000D01*
X130526507Y-40188941D01*
X130373403Y-40252568D01*
X130257425Y-40624369D01*
X129743326Y-40624369D01*
X129743326Y-40130000D01*
X129720090Y-40006507D01*
X130708941Y-40006507D01*
X131250000Y-40547566D01*
X131791059Y-40006507D01*
X131727432Y-39853403D01*
X131355631Y-39737425D01*
X130967748Y-39772558D01*
X130772568Y-39853403D01*
X130708941Y-40006507D01*
X129720090Y-40006507D01*
X129713691Y-39972504D01*
X129620611Y-39827854D01*
X129478588Y-39730814D01*
X129310000Y-39696674D01*
X128110000Y-39696674D01*
X127952504Y-39726309D01*
X127807854Y-39819389D01*
X127710814Y-39961412D01*
X127676674Y-40130000D01*
X122672825Y-40130000D01*
X122724822Y-40004780D01*
X122725178Y-39597009D01*
X122569459Y-39220143D01*
X122374657Y-39025000D01*
X155475000Y-39025000D01*
X155475000Y-136641935D01*
X155230850Y-136276539D01*
X154849653Y-136021831D01*
X154400000Y-135932389D01*
X153950347Y-136021831D01*
X153569150Y-136276539D01*
X153314442Y-136657736D01*
X153225000Y-137107389D01*
X153225000Y-139192611D01*
X153314442Y-139642264D01*
X153569150Y-140023461D01*
X153950347Y-140278169D01*
X154400000Y-140367611D01*
X154849653Y-140278169D01*
X155230850Y-140023461D01*
X155475000Y-139658065D01*
X155475000Y-143975000D01*
X153011561Y-143975000D01*
X153093094Y-143910660D01*
X153404366Y-143354211D01*
X153433711Y-143231443D01*
X153378817Y-142979000D01*
X151229000Y-142979000D01*
X151229000Y-142999000D01*
X150971000Y-142999000D01*
X150971000Y-142979000D01*
X148821183Y-142979000D01*
X148766289Y-143231443D01*
X148795634Y-143354211D01*
X149106906Y-143910660D01*
X149188439Y-143975000D01*
X138123729Y-143975000D01*
X138399074Y-143761761D01*
X138668134Y-143290894D01*
X138685870Y-143192189D01*
X138627755Y-142979000D01*
X137229000Y-142979000D01*
X137229000Y-142999000D01*
X136971000Y-142999000D01*
X136971000Y-142979000D01*
X135572245Y-142979000D01*
X135514130Y-143192189D01*
X135531866Y-143290894D01*
X135800926Y-143761761D01*
X136076271Y-143975000D01*
X124136641Y-143975000D01*
X124399074Y-143771761D01*
X124668134Y-143300894D01*
X124685870Y-143202189D01*
X124627755Y-142989000D01*
X123229000Y-142989000D01*
X123229000Y-143009000D01*
X122971000Y-143009000D01*
X122971000Y-142989000D01*
X121572245Y-142989000D01*
X121514130Y-143202189D01*
X121531866Y-143300894D01*
X121800926Y-143771761D01*
X122063359Y-143975000D01*
X118525000Y-143975000D01*
X118525000Y-142517811D01*
X121514130Y-142517811D01*
X121572245Y-142731000D01*
X122971000Y-142731000D01*
X122971000Y-141570112D01*
X123229000Y-141570112D01*
X123229000Y-142731000D01*
X124627755Y-142731000D01*
X124685870Y-142517811D01*
X124684074Y-142507811D01*
X135514130Y-142507811D01*
X135572245Y-142721000D01*
X136971000Y-142721000D01*
X136971000Y-141560112D01*
X137229000Y-141560112D01*
X137229000Y-142721000D01*
X138627755Y-142721000D01*
X138685870Y-142507811D01*
X138678817Y-142468557D01*
X148766289Y-142468557D01*
X148821183Y-142721000D01*
X150971000Y-142721000D01*
X150971000Y-141221000D01*
X151229000Y-141221000D01*
X151229000Y-142721000D01*
X153378817Y-142721000D01*
X153433711Y-142468557D01*
X153404366Y-142345789D01*
X153093094Y-141789340D01*
X152592572Y-141394366D01*
X151979000Y-141221000D01*
X151229000Y-141221000D01*
X150971000Y-141221000D01*
X150221000Y-141221000D01*
X149607428Y-141394366D01*
X149106906Y-141789340D01*
X148795634Y-142345789D01*
X148766289Y-142468557D01*
X138678817Y-142468557D01*
X138668134Y-142409106D01*
X138399074Y-141938239D01*
X137970302Y-141606180D01*
X137447095Y-141463481D01*
X137229000Y-141560112D01*
X136971000Y-141560112D01*
X136752905Y-141463481D01*
X136229698Y-141606180D01*
X135800926Y-141938239D01*
X135531866Y-142409106D01*
X135514130Y-142507811D01*
X124684074Y-142507811D01*
X124668134Y-142419106D01*
X124399074Y-141948239D01*
X123970302Y-141616180D01*
X123447095Y-141473481D01*
X123229000Y-141570112D01*
X122971000Y-141570112D01*
X122752905Y-141473481D01*
X122229698Y-141616180D01*
X121800926Y-141948239D01*
X121531866Y-142419106D01*
X121514130Y-142517811D01*
X118525000Y-142517811D01*
X118525000Y-137117389D01*
X118625000Y-137117389D01*
X118625000Y-139202611D01*
X118714442Y-139652264D01*
X118969150Y-140033461D01*
X119350347Y-140288169D01*
X119800000Y-140377611D01*
X120249653Y-140288169D01*
X120630850Y-140033461D01*
X120885558Y-139652264D01*
X120975000Y-139202611D01*
X120975000Y-137117389D01*
X126825000Y-137117389D01*
X126825000Y-139202611D01*
X126914442Y-139652264D01*
X127169150Y-140033461D01*
X127550347Y-140288169D01*
X128000000Y-140377611D01*
X128449653Y-140288169D01*
X128830850Y-140033461D01*
X129085558Y-139652264D01*
X129175000Y-139202611D01*
X129175000Y-137117389D01*
X129173011Y-137107389D01*
X132625000Y-137107389D01*
X132625000Y-139192611D01*
X132714442Y-139642264D01*
X132969150Y-140023461D01*
X133350347Y-140278169D01*
X133800000Y-140367611D01*
X134249653Y-140278169D01*
X134630850Y-140023461D01*
X134885558Y-139642264D01*
X134975000Y-139192611D01*
X134975000Y-137107389D01*
X140825000Y-137107389D01*
X140825000Y-139192611D01*
X140914442Y-139642264D01*
X141169150Y-140023461D01*
X141550347Y-140278169D01*
X142000000Y-140367611D01*
X142449653Y-140278169D01*
X142830850Y-140023461D01*
X143085558Y-139642264D01*
X143175000Y-139192611D01*
X143175000Y-137107389D01*
X145025000Y-137107389D01*
X145025000Y-139192611D01*
X145114442Y-139642264D01*
X145369150Y-140023461D01*
X145750347Y-140278169D01*
X146200000Y-140367611D01*
X146649653Y-140278169D01*
X147030850Y-140023461D01*
X147285558Y-139642264D01*
X147375000Y-139192611D01*
X147375000Y-137107389D01*
X147285558Y-136657736D01*
X147030850Y-136276539D01*
X146649653Y-136021831D01*
X146200000Y-135932389D01*
X145750347Y-136021831D01*
X145369150Y-136276539D01*
X145114442Y-136657736D01*
X145025000Y-137107389D01*
X143175000Y-137107389D01*
X143085558Y-136657736D01*
X142830850Y-136276539D01*
X142449653Y-136021831D01*
X142000000Y-135932389D01*
X141550347Y-136021831D01*
X141169150Y-136276539D01*
X140914442Y-136657736D01*
X140825000Y-137107389D01*
X134975000Y-137107389D01*
X134885558Y-136657736D01*
X134630850Y-136276539D01*
X134249653Y-136021831D01*
X133800000Y-135932389D01*
X133350347Y-136021831D01*
X132969150Y-136276539D01*
X132714442Y-136657736D01*
X132625000Y-137107389D01*
X129173011Y-137107389D01*
X129085558Y-136667736D01*
X128830850Y-136286539D01*
X128449653Y-136031831D01*
X128000000Y-135942389D01*
X127550347Y-136031831D01*
X127169150Y-136286539D01*
X126914442Y-136667736D01*
X126825000Y-137117389D01*
X120975000Y-137117389D01*
X120885558Y-136667736D01*
X120630850Y-136286539D01*
X120249653Y-136031831D01*
X119800000Y-135942389D01*
X119350347Y-136031831D01*
X118969150Y-136286539D01*
X118714442Y-136667736D01*
X118625000Y-137117389D01*
X118525000Y-137117389D01*
X118525000Y-133841443D01*
X120766289Y-133841443D01*
X120795634Y-133964211D01*
X121106906Y-134520660D01*
X121607428Y-134915634D01*
X122221000Y-135089000D01*
X122971000Y-135089000D01*
X122971000Y-133589000D01*
X123229000Y-133589000D01*
X123229000Y-135089000D01*
X123979000Y-135089000D01*
X124592572Y-134915634D01*
X125093094Y-134520660D01*
X125404366Y-133964211D01*
X125433711Y-133841443D01*
X125431537Y-133831443D01*
X134766289Y-133831443D01*
X134795634Y-133954211D01*
X135106906Y-134510660D01*
X135607428Y-134905634D01*
X136221000Y-135079000D01*
X136971000Y-135079000D01*
X136971000Y-133579000D01*
X137229000Y-133579000D01*
X137229000Y-135079000D01*
X137979000Y-135079000D01*
X138592572Y-134905634D01*
X139093094Y-134510660D01*
X139404366Y-133954211D01*
X139433711Y-133831443D01*
X139384034Y-133602991D01*
X146774822Y-133602991D01*
X146930541Y-133979857D01*
X147218626Y-134268446D01*
X147595220Y-134424822D01*
X148002991Y-134425178D01*
X148379857Y-134269459D01*
X148668446Y-133981374D01*
X148747002Y-133792189D01*
X149514130Y-133792189D01*
X149531866Y-133890894D01*
X149800926Y-134361761D01*
X150229698Y-134693820D01*
X150752905Y-134836519D01*
X150971000Y-134739888D01*
X150971000Y-133579000D01*
X151229000Y-133579000D01*
X151229000Y-134739888D01*
X151447095Y-134836519D01*
X151970302Y-134693820D01*
X152399074Y-134361761D01*
X152668134Y-133890894D01*
X152685870Y-133792189D01*
X152627755Y-133579000D01*
X151229000Y-133579000D01*
X150971000Y-133579000D01*
X149572245Y-133579000D01*
X149514130Y-133792189D01*
X148747002Y-133792189D01*
X148824822Y-133604780D01*
X148825178Y-133197009D01*
X148788322Y-133107811D01*
X149514130Y-133107811D01*
X149572245Y-133321000D01*
X150971000Y-133321000D01*
X150971000Y-133301000D01*
X151229000Y-133301000D01*
X151229000Y-133321000D01*
X152627755Y-133321000D01*
X152685870Y-133107811D01*
X152668134Y-133009106D01*
X152399074Y-132538239D01*
X151970302Y-132206180D01*
X151447095Y-132063481D01*
X151229002Y-132160111D01*
X151229002Y-132158540D01*
X151291356Y-132096295D01*
X151424848Y-131774812D01*
X151425151Y-131426715D01*
X151292221Y-131105000D01*
X151046295Y-130858644D01*
X150724812Y-130725152D01*
X150376715Y-130724849D01*
X150055000Y-130857779D01*
X149808644Y-131103705D01*
X149675152Y-131425188D01*
X149674849Y-131773285D01*
X149807779Y-132095000D01*
X150053705Y-132341356D01*
X150054647Y-132341747D01*
X149800926Y-132538239D01*
X149531866Y-133009106D01*
X149514130Y-133107811D01*
X148788322Y-133107811D01*
X148669459Y-132820143D01*
X148381374Y-132531554D01*
X148004780Y-132375178D01*
X147597009Y-132374822D01*
X147220143Y-132530541D01*
X146931554Y-132818626D01*
X146775178Y-133195220D01*
X146774822Y-133602991D01*
X139384034Y-133602991D01*
X139378817Y-133579000D01*
X137229000Y-133579000D01*
X136971000Y-133579000D01*
X134821183Y-133579000D01*
X134766289Y-133831443D01*
X125431537Y-133831443D01*
X125378817Y-133589000D01*
X123229000Y-133589000D01*
X122971000Y-133589000D01*
X120821183Y-133589000D01*
X120766289Y-133841443D01*
X118525000Y-133841443D01*
X118525000Y-133078557D01*
X120766289Y-133078557D01*
X120821183Y-133331000D01*
X122971000Y-133331000D01*
X122971000Y-131831000D01*
X123229000Y-131831000D01*
X123229000Y-133331000D01*
X125378817Y-133331000D01*
X125433711Y-133078557D01*
X125431321Y-133068557D01*
X134766289Y-133068557D01*
X134821183Y-133321000D01*
X136971000Y-133321000D01*
X136971000Y-131821000D01*
X137229000Y-131821000D01*
X137229000Y-133321000D01*
X139378817Y-133321000D01*
X139433711Y-133068557D01*
X139404366Y-132945789D01*
X139093094Y-132389340D01*
X138592572Y-131994366D01*
X137979000Y-131821000D01*
X137229000Y-131821000D01*
X136971000Y-131821000D01*
X136221000Y-131821000D01*
X135607428Y-131994366D01*
X135106906Y-132389340D01*
X134795634Y-132945789D01*
X134766289Y-133068557D01*
X125431321Y-133068557D01*
X125404366Y-132955789D01*
X125093094Y-132399340D01*
X124592572Y-132004366D01*
X123979000Y-131831000D01*
X123229000Y-131831000D01*
X122971000Y-131831000D01*
X122221000Y-131831000D01*
X121607428Y-132004366D01*
X121106906Y-132399340D01*
X120795634Y-132955789D01*
X120766289Y-133078557D01*
X118525000Y-133078557D01*
X118525000Y-128473285D01*
X129024849Y-128473285D01*
X129157779Y-128795000D01*
X129403705Y-129041356D01*
X129725188Y-129174848D01*
X130073285Y-129175151D01*
X130395000Y-129042221D01*
X130641356Y-128796295D01*
X130668752Y-128730318D01*
X130730541Y-128879857D01*
X131018626Y-129168446D01*
X131395220Y-129324822D01*
X131802991Y-129325178D01*
X132179857Y-129169459D01*
X132468446Y-128881374D01*
X132471804Y-128873285D01*
X134924849Y-128873285D01*
X135057779Y-129195000D01*
X135303705Y-129441356D01*
X135625188Y-129574848D01*
X135973285Y-129575151D01*
X136295000Y-129442221D01*
X136541356Y-129196295D01*
X136661170Y-128907751D01*
X140710387Y-128907751D01*
X140866106Y-129284617D01*
X141154191Y-129573206D01*
X141530785Y-129729582D01*
X141938556Y-129729938D01*
X142315422Y-129574219D01*
X142604011Y-129286134D01*
X142760387Y-128909540D01*
X142760743Y-128501769D01*
X142605024Y-128124903D01*
X142316939Y-127836314D01*
X141940345Y-127679938D01*
X141532574Y-127679582D01*
X141155708Y-127835301D01*
X140867119Y-128123386D01*
X140710743Y-128499980D01*
X140710387Y-128907751D01*
X136661170Y-128907751D01*
X136674848Y-128874812D01*
X136675151Y-128526715D01*
X136542221Y-128205000D01*
X136296295Y-127958644D01*
X135974812Y-127825152D01*
X135626715Y-127824849D01*
X135305000Y-127957779D01*
X135058644Y-128203705D01*
X134925152Y-128525188D01*
X134924849Y-128873285D01*
X132471804Y-128873285D01*
X132624822Y-128504780D01*
X132625178Y-128097009D01*
X132469459Y-127720143D01*
X132181374Y-127431554D01*
X131804780Y-127275178D01*
X131397009Y-127274822D01*
X131020143Y-127430541D01*
X130731554Y-127718626D01*
X130668889Y-127869541D01*
X130642221Y-127805000D01*
X130396295Y-127558644D01*
X130074812Y-127425152D01*
X129726715Y-127424849D01*
X129405000Y-127557779D01*
X129158644Y-127803705D01*
X129025152Y-128125188D01*
X129024849Y-128473285D01*
X118525000Y-128473285D01*
X118525000Y-126073317D01*
X140849117Y-126073317D01*
X140946675Y-126254929D01*
X141418483Y-126417011D01*
X141916403Y-126386202D01*
X142233325Y-126254929D01*
X142330883Y-126073317D01*
X141590000Y-125332434D01*
X140849117Y-126073317D01*
X118525000Y-126073317D01*
X118525000Y-124978483D01*
X140322989Y-124978483D01*
X140353798Y-125476403D01*
X140485071Y-125793325D01*
X140666683Y-125890883D01*
X141407566Y-125150000D01*
X140666683Y-124409117D01*
X140485071Y-124506675D01*
X140322989Y-124978483D01*
X118525000Y-124978483D01*
X118525000Y-124226683D01*
X140849117Y-124226683D01*
X141590000Y-124967566D01*
X142330883Y-124226683D01*
X142233325Y-124045071D01*
X141761517Y-123882989D01*
X141263597Y-123913798D01*
X140946675Y-124045071D01*
X140849117Y-124226683D01*
X118525000Y-124226683D01*
X118525000Y-122692189D01*
X121514130Y-122692189D01*
X121531866Y-122790894D01*
X121800926Y-123261761D01*
X122229698Y-123593820D01*
X122752905Y-123736519D01*
X122971000Y-123639888D01*
X122971000Y-122479000D01*
X123229000Y-122479000D01*
X123229000Y-123639888D01*
X123447095Y-123736519D01*
X123970302Y-123593820D01*
X124399074Y-123261761D01*
X124668134Y-122790894D01*
X124685870Y-122692189D01*
X124627755Y-122479000D01*
X123229000Y-122479000D01*
X122971000Y-122479000D01*
X121572245Y-122479000D01*
X121514130Y-122692189D01*
X118525000Y-122692189D01*
X118525000Y-122007811D01*
X121514130Y-122007811D01*
X121572245Y-122221000D01*
X122971000Y-122221000D01*
X122971000Y-121060112D01*
X123229000Y-121060112D01*
X123229000Y-122221000D01*
X124627755Y-122221000D01*
X124685870Y-122007811D01*
X124668134Y-121909106D01*
X124399074Y-121438239D01*
X123970302Y-121106180D01*
X123447095Y-120963481D01*
X123229000Y-121060112D01*
X122971000Y-121060112D01*
X122752905Y-120963481D01*
X122229698Y-121106180D01*
X121800926Y-121438239D01*
X121531866Y-121909106D01*
X121514130Y-122007811D01*
X118525000Y-122007811D01*
X118525000Y-116607389D01*
X118625000Y-116607389D01*
X118625000Y-118692611D01*
X118714442Y-119142264D01*
X118969150Y-119523461D01*
X119350347Y-119778169D01*
X119800000Y-119867611D01*
X120249653Y-119778169D01*
X120630850Y-119523461D01*
X120885558Y-119142264D01*
X120975000Y-118692611D01*
X120975000Y-116607389D01*
X126825000Y-116607389D01*
X126825000Y-118692611D01*
X126914442Y-119142264D01*
X127169150Y-119523461D01*
X127550347Y-119778169D01*
X128000000Y-119867611D01*
X128449653Y-119778169D01*
X128830850Y-119523461D01*
X129085558Y-119142264D01*
X129175000Y-118692611D01*
X129175000Y-116607389D01*
X129085558Y-116157736D01*
X128830850Y-115776539D01*
X128449653Y-115521831D01*
X128000000Y-115432389D01*
X127550347Y-115521831D01*
X127169150Y-115776539D01*
X126914442Y-116157736D01*
X126825000Y-116607389D01*
X120975000Y-116607389D01*
X120885558Y-116157736D01*
X120630850Y-115776539D01*
X120249653Y-115521831D01*
X119800000Y-115432389D01*
X119350347Y-115521831D01*
X118969150Y-115776539D01*
X118714442Y-116157736D01*
X118625000Y-116607389D01*
X118525000Y-116607389D01*
X118525000Y-113331443D01*
X120766289Y-113331443D01*
X120795634Y-113454211D01*
X121106906Y-114010660D01*
X121607428Y-114405634D01*
X122221000Y-114579000D01*
X122971000Y-114579000D01*
X122971000Y-113079000D01*
X123229000Y-113079000D01*
X123229000Y-114579000D01*
X123979000Y-114579000D01*
X124592572Y-114405634D01*
X125093094Y-114010660D01*
X125404366Y-113454211D01*
X125433711Y-113331443D01*
X125378817Y-113079000D01*
X123229000Y-113079000D01*
X122971000Y-113079000D01*
X120821183Y-113079000D01*
X120766289Y-113331443D01*
X118525000Y-113331443D01*
X118525000Y-112568557D01*
X120766289Y-112568557D01*
X120821183Y-112821000D01*
X122971000Y-112821000D01*
X122971000Y-111321000D01*
X123229000Y-111321000D01*
X123229000Y-112821000D01*
X125378817Y-112821000D01*
X125433711Y-112568557D01*
X125404366Y-112445789D01*
X125093094Y-111889340D01*
X124592572Y-111494366D01*
X123979000Y-111321000D01*
X123229000Y-111321000D01*
X122971000Y-111321000D01*
X122221000Y-111321000D01*
X121607428Y-111494366D01*
X121106906Y-111889340D01*
X120795634Y-112445789D01*
X120766289Y-112568557D01*
X118525000Y-112568557D01*
X118525000Y-109273285D01*
X126074849Y-109273285D01*
X126207779Y-109595000D01*
X126453705Y-109841356D01*
X126775188Y-109974848D01*
X127123285Y-109975151D01*
X127445000Y-109842221D01*
X127691356Y-109596295D01*
X127824848Y-109274812D01*
X127825151Y-108926715D01*
X127692221Y-108605000D01*
X127446295Y-108358644D01*
X127124812Y-108225152D01*
X126776715Y-108224849D01*
X126455000Y-108357779D01*
X126208644Y-108603705D01*
X126075152Y-108925188D01*
X126074849Y-109273285D01*
X118525000Y-109273285D01*
X118525000Y-105423285D01*
X119524851Y-105423285D01*
X119657781Y-105745000D01*
X119903707Y-105991356D01*
X120225190Y-106124848D01*
X120573287Y-106125151D01*
X120895002Y-105992221D01*
X121141358Y-105746295D01*
X121274850Y-105424812D01*
X121275153Y-105076715D01*
X121142223Y-104755000D01*
X120896297Y-104508644D01*
X120574814Y-104375152D01*
X120226717Y-104374849D01*
X119905002Y-104507779D01*
X119658646Y-104753705D01*
X119525154Y-105075188D01*
X119524851Y-105423285D01*
X118525000Y-105423285D01*
X118525000Y-101954943D01*
X125440216Y-101954943D01*
X125595935Y-102331809D01*
X125884020Y-102620398D01*
X126260614Y-102776774D01*
X126668385Y-102777130D01*
X127045251Y-102621411D01*
X127333840Y-102333326D01*
X127490216Y-101956732D01*
X127490427Y-101715551D01*
X128150000Y-102375124D01*
X128150000Y-112600000D01*
X128191866Y-112810476D01*
X128311091Y-112988909D01*
X129600000Y-114277817D01*
X129600000Y-122150000D01*
X129641866Y-122360476D01*
X129761091Y-122538909D01*
X130911089Y-123688906D01*
X130911091Y-123688909D01*
X131002510Y-123749993D01*
X131089524Y-123808134D01*
X131300000Y-123850001D01*
X131300005Y-123850000D01*
X143832001Y-123850000D01*
X143354571Y-124047271D01*
X142988556Y-124412647D01*
X142822063Y-124813606D01*
X142694929Y-124506675D01*
X142513317Y-124409117D01*
X141772434Y-125150000D01*
X142513317Y-125890883D01*
X142694929Y-125793325D01*
X142810368Y-125457292D01*
X142987271Y-125885429D01*
X143352647Y-126251444D01*
X143830279Y-126449774D01*
X144347452Y-126450226D01*
X144825429Y-126252729D01*
X145191444Y-125887353D01*
X145340121Y-125529300D01*
X145487271Y-125885429D01*
X145852647Y-126251444D01*
X146330279Y-126449774D01*
X146847452Y-126450226D01*
X147325429Y-126252729D01*
X147691444Y-125887353D01*
X147889774Y-125409721D01*
X147890226Y-124892548D01*
X147797630Y-124668449D01*
X147818080Y-124688899D01*
X147818082Y-124688902D01*
X147872324Y-124725145D01*
X147996515Y-124808127D01*
X148206991Y-124849994D01*
X148206996Y-124849993D01*
X150850001Y-124849993D01*
X151060477Y-124808127D01*
X151185044Y-124724894D01*
X151473285Y-124725145D01*
X151795000Y-124592215D01*
X152041356Y-124346289D01*
X152174848Y-124024806D01*
X152175151Y-123676709D01*
X152042221Y-123354994D01*
X151796295Y-123108638D01*
X151474812Y-122975146D01*
X151126715Y-122974843D01*
X150805000Y-123107773D01*
X150558644Y-123353699D01*
X150425152Y-123675182D01*
X150425087Y-123749993D01*
X149249707Y-123749993D01*
X149318446Y-123681374D01*
X149474822Y-123304780D01*
X149475178Y-122897009D01*
X149319459Y-122520143D01*
X149031374Y-122231554D01*
X148654780Y-122075178D01*
X148247009Y-122074822D01*
X147870143Y-122230541D01*
X147581554Y-122518626D01*
X147457100Y-122818343D01*
X147417474Y-122791866D01*
X147206998Y-122750000D01*
X131527817Y-122750000D01*
X130700000Y-121922182D01*
X130700000Y-121352991D01*
X130974789Y-121352991D01*
X131130508Y-121729857D01*
X131418593Y-122018446D01*
X131795187Y-122174822D01*
X132202958Y-122175178D01*
X132579824Y-122019459D01*
X132868413Y-121731374D01*
X133004769Y-121402991D01*
X133374822Y-121402991D01*
X133530541Y-121779857D01*
X133818626Y-122068446D01*
X134195220Y-122224822D01*
X134602991Y-122225178D01*
X134979857Y-122069459D01*
X135268446Y-121781374D01*
X135424822Y-121404780D01*
X135425178Y-120997009D01*
X135269459Y-120620143D01*
X134981374Y-120331554D01*
X134604780Y-120175178D01*
X134197009Y-120174822D01*
X133820143Y-120330541D01*
X133531554Y-120618626D01*
X133375178Y-120995220D01*
X133374822Y-121402991D01*
X133004769Y-121402991D01*
X133024789Y-121354780D01*
X133025145Y-120947009D01*
X132869426Y-120570143D01*
X132581341Y-120281554D01*
X132204747Y-120125178D01*
X131796976Y-120124822D01*
X131420110Y-120280541D01*
X131131521Y-120568626D01*
X130975145Y-120945220D01*
X130974789Y-121352991D01*
X130700000Y-121352991D01*
X130700000Y-114050005D01*
X130700001Y-114050000D01*
X130658134Y-113839524D01*
X130592540Y-113741356D01*
X130538909Y-113661091D01*
X130538906Y-113661089D01*
X129250000Y-112372182D01*
X129250000Y-111073285D01*
X129424849Y-111073285D01*
X129557779Y-111395000D01*
X129803705Y-111641356D01*
X130125188Y-111774848D01*
X130473285Y-111775151D01*
X130795000Y-111642221D01*
X130859322Y-111578011D01*
X132724822Y-111578011D01*
X132880541Y-111954877D01*
X133168626Y-112243466D01*
X133545220Y-112399842D01*
X133952991Y-112400198D01*
X134329857Y-112244479D01*
X134618446Y-111956394D01*
X134774822Y-111579800D01*
X134775178Y-111172029D01*
X134619459Y-110795163D01*
X134331374Y-110506574D01*
X133954780Y-110350198D01*
X133547009Y-110349842D01*
X133170143Y-110505561D01*
X132881554Y-110793646D01*
X132725178Y-111170240D01*
X132724822Y-111578011D01*
X130859322Y-111578011D01*
X131041356Y-111396295D01*
X131174848Y-111074812D01*
X131175151Y-110726715D01*
X131042221Y-110405000D01*
X130850000Y-110212443D01*
X130850000Y-108202991D01*
X131031064Y-108202991D01*
X131186783Y-108579857D01*
X131474868Y-108868446D01*
X131851462Y-109024822D01*
X132259233Y-109025178D01*
X132636099Y-108869459D01*
X132725212Y-108780501D01*
X132660929Y-108935312D01*
X132660626Y-109283409D01*
X132793556Y-109605124D01*
X133039482Y-109851480D01*
X133360965Y-109984972D01*
X133709062Y-109985275D01*
X134030777Y-109852345D01*
X134223334Y-109660124D01*
X134782306Y-109660124D01*
X138270330Y-113148147D01*
X138005000Y-113257779D01*
X137758644Y-113503705D01*
X137625152Y-113825188D01*
X137624849Y-114173285D01*
X137757779Y-114495000D01*
X138003705Y-114741356D01*
X138325188Y-114874848D01*
X138673285Y-114875151D01*
X138995000Y-114742221D01*
X139241356Y-114496295D01*
X139352005Y-114229823D01*
X140974999Y-115852816D01*
X140974999Y-116557374D01*
X140580470Y-115966919D01*
X139988397Y-115571309D01*
X139290000Y-115432389D01*
X138591603Y-115571309D01*
X137999530Y-115966919D01*
X137603920Y-116558992D01*
X137465000Y-117257389D01*
X137465000Y-118042611D01*
X137603920Y-118741008D01*
X137677934Y-118851777D01*
X137481943Y-118932759D01*
X137235587Y-119178685D01*
X137102095Y-119500168D01*
X137101792Y-119848265D01*
X137234722Y-120169980D01*
X137480648Y-120416336D01*
X137802131Y-120549828D01*
X138150228Y-120550131D01*
X138471943Y-120417201D01*
X138718299Y-120171275D01*
X138851791Y-119849792D01*
X138851851Y-119780458D01*
X139290000Y-119867611D01*
X139988397Y-119728691D01*
X140580470Y-119333081D01*
X140974999Y-118742626D01*
X140974999Y-121468001D01*
X141016865Y-121678477D01*
X141136090Y-121856910D01*
X141693090Y-122413910D01*
X141871523Y-122533135D01*
X142081999Y-122575001D01*
X146874999Y-122575001D01*
X147085475Y-122533135D01*
X147263908Y-122413910D01*
X148027818Y-121650000D01*
X149172182Y-121650000D01*
X149936092Y-122413910D01*
X150114525Y-122533135D01*
X150325001Y-122575001D01*
X152297183Y-122575001D01*
X153800000Y-124077817D01*
X153800000Y-133572182D01*
X151522182Y-135850000D01*
X150187317Y-135850000D01*
X149996295Y-135658644D01*
X149674812Y-135525152D01*
X149326715Y-135524849D01*
X149005000Y-135657779D01*
X148758644Y-135903705D01*
X148625152Y-136225188D01*
X148624849Y-136573285D01*
X148757779Y-136895000D01*
X149003705Y-137141356D01*
X149325188Y-137274848D01*
X149673285Y-137275151D01*
X149995000Y-137142221D01*
X150187557Y-136950000D01*
X151750000Y-136950000D01*
X151960476Y-136908134D01*
X152138909Y-136788909D01*
X154738909Y-134188909D01*
X154858134Y-134010476D01*
X154900000Y-133800000D01*
X154900000Y-123850000D01*
X154858134Y-123639524D01*
X154738909Y-123461091D01*
X154738906Y-123461089D01*
X152913910Y-121636092D01*
X152735477Y-121516867D01*
X152525001Y-121475001D01*
X150552819Y-121475001D01*
X149788909Y-120711091D01*
X149610476Y-120591866D01*
X149400000Y-120550000D01*
X147800000Y-120550000D01*
X147589524Y-120591866D01*
X147411091Y-120711091D01*
X146647181Y-121475001D01*
X142309817Y-121475001D01*
X142074999Y-121240183D01*
X142074999Y-115625004D01*
X142075000Y-115624999D01*
X142059636Y-115547761D01*
X142245220Y-115624822D01*
X142652991Y-115625178D01*
X143029857Y-115469459D01*
X143318446Y-115181374D01*
X143474822Y-114804780D01*
X143475178Y-114397009D01*
X143319459Y-114020143D01*
X143031374Y-113731554D01*
X142654780Y-113575178D01*
X142247009Y-113574822D01*
X141870143Y-113730541D01*
X141581554Y-114018626D01*
X141425178Y-114395220D01*
X141424871Y-114747054D01*
X135399033Y-108721215D01*
X135220600Y-108601990D01*
X135010124Y-108560124D01*
X134223094Y-108560124D01*
X134032072Y-108368768D01*
X133710589Y-108235276D01*
X133362492Y-108234973D01*
X133040777Y-108367903D01*
X132993897Y-108414701D01*
X133081064Y-108204780D01*
X133081420Y-107797009D01*
X132925701Y-107420143D01*
X132637616Y-107131554D01*
X132261022Y-106975178D01*
X131853251Y-106974822D01*
X131476385Y-107130541D01*
X131187796Y-107418626D01*
X131031420Y-107795220D01*
X131031064Y-108202991D01*
X130850000Y-108202991D01*
X130850000Y-104852991D01*
X131374822Y-104852991D01*
X131530541Y-105229857D01*
X131685366Y-105384953D01*
X131566419Y-105503693D01*
X131432927Y-105825176D01*
X131432624Y-106173273D01*
X131565554Y-106494988D01*
X131811480Y-106741344D01*
X132132963Y-106874836D01*
X132481060Y-106875139D01*
X132802775Y-106742209D01*
X133049131Y-106496283D01*
X133182623Y-106174800D01*
X133182704Y-106081138D01*
X133457688Y-106081138D01*
X133590618Y-106402853D01*
X133836544Y-106649209D01*
X134158027Y-106782701D01*
X134506124Y-106783004D01*
X134827839Y-106650074D01*
X135074195Y-106404148D01*
X135207687Y-106082665D01*
X135207990Y-105734568D01*
X135075060Y-105412853D01*
X134829134Y-105166497D01*
X134507651Y-105033005D01*
X134159554Y-105032702D01*
X133837839Y-105165632D01*
X133591483Y-105411558D01*
X133457991Y-105733041D01*
X133457688Y-106081138D01*
X133182704Y-106081138D01*
X133182926Y-105826703D01*
X133049996Y-105504988D01*
X133022223Y-105477167D01*
X133268446Y-105231374D01*
X133424822Y-104854780D01*
X133425178Y-104447009D01*
X133269459Y-104070143D01*
X132981374Y-103781554D01*
X132604780Y-103625178D01*
X132197009Y-103624822D01*
X131820143Y-103780541D01*
X131531554Y-104068626D01*
X131375178Y-104445220D01*
X131374822Y-104852991D01*
X130850000Y-104852991D01*
X130850000Y-103336624D01*
X133019656Y-103336624D01*
X133175375Y-103713490D01*
X133463460Y-104002079D01*
X133840054Y-104158455D01*
X134247825Y-104158811D01*
X134624691Y-104003092D01*
X134913280Y-103715007D01*
X135069656Y-103338413D01*
X135070012Y-102930642D01*
X134914293Y-102553776D01*
X134626208Y-102265187D01*
X134249614Y-102108811D01*
X133841843Y-102108455D01*
X133464977Y-102264174D01*
X133176388Y-102552259D01*
X133020012Y-102928853D01*
X133019656Y-103336624D01*
X130850000Y-103336624D01*
X130850000Y-103327818D01*
X133277818Y-100900000D01*
X138300000Y-100900000D01*
X138300000Y-106900000D01*
X138341866Y-107110476D01*
X138461091Y-107288909D01*
X143700000Y-112527818D01*
X143700000Y-119112683D01*
X143508644Y-119303705D01*
X143375152Y-119625188D01*
X143374849Y-119973285D01*
X143507779Y-120295000D01*
X143753705Y-120541356D01*
X144075188Y-120674848D01*
X144423285Y-120675151D01*
X144745000Y-120542221D01*
X144991356Y-120296295D01*
X145124848Y-119974812D01*
X145125151Y-119626715D01*
X144992221Y-119305000D01*
X144800000Y-119112443D01*
X144800000Y-117257389D01*
X147065000Y-117257389D01*
X147065000Y-118042611D01*
X147203920Y-118741008D01*
X147599530Y-119333081D01*
X148191603Y-119728691D01*
X148890000Y-119867611D01*
X149588397Y-119728691D01*
X150180470Y-119333081D01*
X150576080Y-118741008D01*
X150715000Y-118042611D01*
X150715000Y-117257389D01*
X150576080Y-116558992D01*
X150180470Y-115966919D01*
X149588397Y-115571309D01*
X148890000Y-115432389D01*
X148191603Y-115571309D01*
X147599530Y-115966919D01*
X147203920Y-116558992D01*
X147065000Y-117257389D01*
X144800000Y-117257389D01*
X144800000Y-112300000D01*
X144758134Y-112089524D01*
X144638909Y-111911091D01*
X144580809Y-111852991D01*
X147124822Y-111852991D01*
X147280541Y-112229857D01*
X147568626Y-112518446D01*
X147945220Y-112674822D01*
X148352991Y-112675178D01*
X148729857Y-112519459D01*
X149018446Y-112231374D01*
X149174822Y-111854780D01*
X149175178Y-111447009D01*
X149019459Y-111070143D01*
X148731374Y-110781554D01*
X148354780Y-110625178D01*
X147947009Y-110624822D01*
X147570143Y-110780541D01*
X147281554Y-111068626D01*
X147125178Y-111445220D01*
X147124822Y-111852991D01*
X144580809Y-111852991D01*
X143301103Y-110573285D01*
X145474849Y-110573285D01*
X145607779Y-110895000D01*
X145853705Y-111141356D01*
X146175188Y-111274848D01*
X146523285Y-111275151D01*
X146845000Y-111142221D01*
X147091356Y-110896295D01*
X147224848Y-110574812D01*
X147225151Y-110226715D01*
X147092221Y-109905000D01*
X146846295Y-109658644D01*
X146524812Y-109525152D01*
X146176715Y-109524849D01*
X145855000Y-109657779D01*
X145608644Y-109903705D01*
X145475152Y-110225188D01*
X145474849Y-110573285D01*
X143301103Y-110573285D01*
X139400000Y-106672182D01*
X139400000Y-102073317D01*
X140849117Y-102073317D01*
X140946675Y-102254929D01*
X141418483Y-102417011D01*
X141916403Y-102386202D01*
X142233325Y-102254929D01*
X142330883Y-102073317D01*
X141590000Y-101332434D01*
X140849117Y-102073317D01*
X139400000Y-102073317D01*
X139400000Y-101127818D01*
X139549335Y-100978483D01*
X140322989Y-100978483D01*
X140353798Y-101476403D01*
X140485071Y-101793325D01*
X140666683Y-101890883D01*
X141407566Y-101150000D01*
X140666683Y-100409117D01*
X140485071Y-100506675D01*
X140322989Y-100978483D01*
X139549335Y-100978483D01*
X140627818Y-99900000D01*
X141486594Y-99900000D01*
X141263597Y-99913798D01*
X140946675Y-100045071D01*
X140849117Y-100226683D01*
X141590000Y-100967566D01*
X142330883Y-100226683D01*
X142233325Y-100045071D01*
X141811035Y-99900000D01*
X142362683Y-99900000D01*
X142553705Y-100091356D01*
X142875188Y-100224848D01*
X143176421Y-100225110D01*
X142988556Y-100412647D01*
X142822063Y-100813606D01*
X142694929Y-100506675D01*
X142513317Y-100409117D01*
X141772434Y-101150000D01*
X142513317Y-101890883D01*
X142694929Y-101793325D01*
X142810368Y-101457292D01*
X142987271Y-101885429D01*
X143352647Y-102251444D01*
X143830279Y-102449774D01*
X144347452Y-102450226D01*
X144825429Y-102252729D01*
X145191444Y-101887353D01*
X145340121Y-101529300D01*
X145487271Y-101885429D01*
X145852647Y-102251444D01*
X146330279Y-102449774D01*
X146847452Y-102450226D01*
X147325429Y-102252729D01*
X147691444Y-101887353D01*
X147889774Y-101409721D01*
X147890226Y-100892548D01*
X147692729Y-100414571D01*
X147327353Y-100048556D01*
X146849721Y-99850226D01*
X146332548Y-99849774D01*
X145854571Y-100047271D01*
X145488556Y-100412647D01*
X145339879Y-100770700D01*
X145192729Y-100414571D01*
X144827353Y-100048556D01*
X144349721Y-99850226D01*
X143832548Y-99849774D01*
X143756318Y-99881272D01*
X143791356Y-99846295D01*
X143924848Y-99524812D01*
X143925151Y-99176715D01*
X143792221Y-98855000D01*
X143546295Y-98608644D01*
X143224812Y-98475152D01*
X142876715Y-98474849D01*
X142555000Y-98607779D01*
X142362443Y-98800000D01*
X140400000Y-98800000D01*
X140189524Y-98841866D01*
X140011091Y-98961091D01*
X138461091Y-100511091D01*
X138341866Y-100689524D01*
X138300000Y-100900000D01*
X133277818Y-100900000D01*
X136127818Y-98050000D01*
X140662683Y-98050000D01*
X140853705Y-98241356D01*
X141175188Y-98374848D01*
X141523285Y-98375151D01*
X141845000Y-98242221D01*
X142091356Y-97996295D01*
X142224848Y-97674812D01*
X142225151Y-97326715D01*
X142092221Y-97005000D01*
X141846295Y-96758644D01*
X141524812Y-96625152D01*
X141176715Y-96624849D01*
X140855000Y-96757779D01*
X140662443Y-96950000D01*
X135900000Y-96950000D01*
X135689524Y-96991866D01*
X135511091Y-97111091D01*
X129911091Y-102711091D01*
X129791866Y-102889524D01*
X129750000Y-103100000D01*
X129750000Y-110212683D01*
X129558644Y-110403705D01*
X129425152Y-110725188D01*
X129424849Y-111073285D01*
X129250000Y-111073285D01*
X129250000Y-102147306D01*
X129208134Y-101936830D01*
X129088909Y-101758397D01*
X128215330Y-100884818D01*
X128215565Y-100614435D01*
X128082635Y-100292720D01*
X127836709Y-100046364D01*
X127515226Y-99912872D01*
X127167129Y-99912569D01*
X126845414Y-100045499D01*
X126599058Y-100291425D01*
X126465566Y-100612908D01*
X126465467Y-100726951D01*
X126262403Y-100726774D01*
X125885537Y-100882493D01*
X125596948Y-101170578D01*
X125440572Y-101547172D01*
X125440216Y-101954943D01*
X118525000Y-101954943D01*
X118525000Y-98692189D01*
X122014130Y-98692189D01*
X122031866Y-98790894D01*
X122300926Y-99261761D01*
X122729698Y-99593820D01*
X123252905Y-99736519D01*
X123471000Y-99639888D01*
X123471000Y-98479000D01*
X123729000Y-98479000D01*
X123729000Y-99639888D01*
X123947095Y-99736519D01*
X124470302Y-99593820D01*
X124899074Y-99261761D01*
X125168134Y-98790894D01*
X125185870Y-98692189D01*
X125127755Y-98479000D01*
X123729000Y-98479000D01*
X123471000Y-98479000D01*
X122072245Y-98479000D01*
X122014130Y-98692189D01*
X118525000Y-98692189D01*
X118525000Y-98404553D01*
X131499829Y-98404553D01*
X131632759Y-98726268D01*
X131878685Y-98972624D01*
X132200168Y-99106116D01*
X132548265Y-99106419D01*
X132869980Y-98973489D01*
X133116336Y-98727563D01*
X133249828Y-98406080D01*
X133250131Y-98057983D01*
X133117201Y-97736268D01*
X132871275Y-97489912D01*
X132549792Y-97356420D01*
X132201695Y-97356117D01*
X131879980Y-97489047D01*
X131633624Y-97734973D01*
X131500132Y-98056456D01*
X131499829Y-98404553D01*
X118525000Y-98404553D01*
X118525000Y-98007811D01*
X122014130Y-98007811D01*
X122072245Y-98221000D01*
X123471000Y-98221000D01*
X123471000Y-97060112D01*
X123729000Y-97060112D01*
X123729000Y-98221000D01*
X125127755Y-98221000D01*
X125185870Y-98007811D01*
X125168134Y-97909106D01*
X124899074Y-97438239D01*
X124470302Y-97106180D01*
X123947095Y-96963481D01*
X123729000Y-97060112D01*
X123471000Y-97060112D01*
X123252905Y-96963481D01*
X122729698Y-97106180D01*
X122300926Y-97438239D01*
X122031866Y-97909106D01*
X122014130Y-98007811D01*
X118525000Y-98007811D01*
X118525000Y-92607389D01*
X119125000Y-92607389D01*
X119125000Y-94692611D01*
X119214442Y-95142264D01*
X119469150Y-95523461D01*
X119850347Y-95778169D01*
X120300000Y-95867611D01*
X120749653Y-95778169D01*
X121130850Y-95523461D01*
X121385558Y-95142264D01*
X121475000Y-94692611D01*
X121475000Y-92607389D01*
X127325000Y-92607389D01*
X127325000Y-94692611D01*
X127414442Y-95142264D01*
X127669150Y-95523461D01*
X128050347Y-95778169D01*
X128500000Y-95867611D01*
X128824865Y-95802991D01*
X132274822Y-95802991D01*
X132430541Y-96179857D01*
X132718626Y-96468446D01*
X133095220Y-96624822D01*
X133502991Y-96625178D01*
X133879857Y-96469459D01*
X134168446Y-96181374D01*
X134324822Y-95804780D01*
X134325178Y-95397009D01*
X134169459Y-95020143D01*
X133881374Y-94731554D01*
X133504780Y-94575178D01*
X133097009Y-94574822D01*
X132720143Y-94730541D01*
X132431554Y-95018626D01*
X132275178Y-95395220D01*
X132274822Y-95802991D01*
X128824865Y-95802991D01*
X128949653Y-95778169D01*
X129330850Y-95523461D01*
X129585558Y-95142264D01*
X129675000Y-94692611D01*
X129675000Y-92607389D01*
X129585558Y-92157736D01*
X129330850Y-91776539D01*
X128949653Y-91521831D01*
X128500000Y-91432389D01*
X128050347Y-91521831D01*
X127669150Y-91776539D01*
X127414442Y-92157736D01*
X127325000Y-92607389D01*
X121475000Y-92607389D01*
X121385558Y-92157736D01*
X121130850Y-91776539D01*
X120749653Y-91521831D01*
X120300000Y-91432389D01*
X119850347Y-91521831D01*
X119469150Y-91776539D01*
X119214442Y-92157736D01*
X119125000Y-92607389D01*
X118525000Y-92607389D01*
X118525000Y-89331443D01*
X121266289Y-89331443D01*
X121295634Y-89454211D01*
X121606906Y-90010660D01*
X122107428Y-90405634D01*
X122721000Y-90579000D01*
X123471000Y-90579000D01*
X123471000Y-89079000D01*
X123729000Y-89079000D01*
X123729000Y-90579000D01*
X124479000Y-90579000D01*
X125092572Y-90405634D01*
X125593094Y-90010660D01*
X125904366Y-89454211D01*
X125933711Y-89331443D01*
X125878817Y-89079000D01*
X123729000Y-89079000D01*
X123471000Y-89079000D01*
X121321183Y-89079000D01*
X121266289Y-89331443D01*
X118525000Y-89331443D01*
X118525000Y-88568557D01*
X121266289Y-88568557D01*
X121321183Y-88821000D01*
X123471000Y-88821000D01*
X123471000Y-87321000D01*
X123729000Y-87321000D01*
X123729000Y-88821000D01*
X125878817Y-88821000D01*
X125933711Y-88568557D01*
X125904366Y-88445789D01*
X125593094Y-87889340D01*
X125092572Y-87494366D01*
X124479000Y-87321000D01*
X123729000Y-87321000D01*
X123471000Y-87321000D01*
X122721000Y-87321000D01*
X122107428Y-87494366D01*
X121606906Y-87889340D01*
X121295634Y-88445789D01*
X121266289Y-88568557D01*
X118525000Y-88568557D01*
X118525000Y-84673285D01*
X122624849Y-84673285D01*
X122757779Y-84995000D01*
X123003705Y-85241356D01*
X123325188Y-85374848D01*
X123597267Y-85375085D01*
X129961091Y-91738909D01*
X130139524Y-91858134D01*
X130350000Y-91900000D01*
X138099681Y-91900000D01*
X137999530Y-91966919D01*
X137603920Y-92558992D01*
X137465000Y-93257389D01*
X137465000Y-94042611D01*
X137603920Y-94741008D01*
X137999530Y-95333081D01*
X138591603Y-95728691D01*
X139290000Y-95867611D01*
X139988397Y-95728691D01*
X140580470Y-95333081D01*
X140976080Y-94741008D01*
X141115000Y-94042611D01*
X141115000Y-93257389D01*
X140976080Y-92558992D01*
X140580470Y-91966919D01*
X140480319Y-91900000D01*
X141322182Y-91900000D01*
X149000000Y-99577817D01*
X149000000Y-102800000D01*
X143387317Y-102800000D01*
X143196295Y-102608644D01*
X142874812Y-102475152D01*
X142526715Y-102474849D01*
X142205000Y-102607779D01*
X141958644Y-102853705D01*
X141825152Y-103175188D01*
X141824849Y-103523285D01*
X141957779Y-103845000D01*
X142203705Y-104091356D01*
X142525188Y-104224848D01*
X142873285Y-104225151D01*
X143195000Y-104092221D01*
X143387557Y-103900000D01*
X149000000Y-103900000D01*
X149000000Y-110050000D01*
X149041866Y-110260476D01*
X149161091Y-110438909D01*
X151625084Y-112902902D01*
X151624849Y-113173285D01*
X151757779Y-113495000D01*
X152003705Y-113741356D01*
X152325188Y-113874848D01*
X152673285Y-113875151D01*
X152995000Y-113742221D01*
X153241356Y-113496295D01*
X153374848Y-113174812D01*
X153375151Y-112826715D01*
X153242221Y-112505000D01*
X152996295Y-112258644D01*
X152674812Y-112125152D01*
X152402733Y-112124915D01*
X150100000Y-109822182D01*
X150100000Y-99350000D01*
X150058134Y-99139524D01*
X149938909Y-98961091D01*
X149938906Y-98961089D01*
X144235207Y-93257389D01*
X147065000Y-93257389D01*
X147065000Y-94042611D01*
X147203920Y-94741008D01*
X147599530Y-95333081D01*
X148191603Y-95728691D01*
X148890000Y-95867611D01*
X149588397Y-95728691D01*
X150180470Y-95333081D01*
X150576080Y-94741008D01*
X150715000Y-94042611D01*
X150715000Y-93257389D01*
X150576080Y-92558992D01*
X150180470Y-91966919D01*
X149588397Y-91571309D01*
X148890000Y-91432389D01*
X148191603Y-91571309D01*
X147599530Y-91966919D01*
X147203920Y-92558992D01*
X147065000Y-93257389D01*
X144235207Y-93257389D01*
X141938909Y-90961091D01*
X141760476Y-90841866D01*
X141550000Y-90800000D01*
X136744347Y-90800000D01*
X136771108Y-90773285D01*
X146374849Y-90773285D01*
X146507779Y-91095000D01*
X146753705Y-91341356D01*
X147075188Y-91474848D01*
X147423285Y-91475151D01*
X147745000Y-91342221D01*
X147991356Y-91096295D01*
X148124848Y-90774812D01*
X148125151Y-90426715D01*
X147992221Y-90105000D01*
X147746295Y-89858644D01*
X147424812Y-89725152D01*
X147076715Y-89724849D01*
X146755000Y-89857779D01*
X146508644Y-90103705D01*
X146375152Y-90425188D01*
X146374849Y-90773285D01*
X136771108Y-90773285D01*
X136868446Y-90676118D01*
X137024822Y-90299524D01*
X137025178Y-89891753D01*
X136869459Y-89514887D01*
X136581374Y-89226298D01*
X136204780Y-89069922D01*
X135797009Y-89069566D01*
X135420143Y-89225285D01*
X135131554Y-89513370D01*
X134975178Y-89889964D01*
X134974822Y-90297735D01*
X135130541Y-90674601D01*
X135255721Y-90800000D01*
X131581474Y-90800000D01*
X131724822Y-90454780D01*
X131725178Y-90047009D01*
X131569459Y-89670143D01*
X131281374Y-89381554D01*
X130904780Y-89225178D01*
X130497009Y-89224822D01*
X130120143Y-89380541D01*
X129831554Y-89668626D01*
X129718561Y-89940743D01*
X126730809Y-86952991D01*
X137974822Y-86952991D01*
X138130541Y-87329857D01*
X138418626Y-87618446D01*
X138795220Y-87774822D01*
X139202991Y-87775178D01*
X139579857Y-87619459D01*
X139868446Y-87331374D01*
X140024822Y-86954780D01*
X140025178Y-86547009D01*
X139869459Y-86170143D01*
X139581374Y-85881554D01*
X139204780Y-85725178D01*
X138797009Y-85724822D01*
X138420143Y-85880541D01*
X138131554Y-86168626D01*
X137975178Y-86545220D01*
X137974822Y-86952991D01*
X126730809Y-86952991D01*
X124374916Y-84597098D01*
X124375151Y-84326715D01*
X124242221Y-84005000D01*
X123996295Y-83758644D01*
X123674812Y-83625152D01*
X123326715Y-83624849D01*
X123005000Y-83757779D01*
X122758644Y-84003705D01*
X122625152Y-84325188D01*
X122624849Y-84673285D01*
X118525000Y-84673285D01*
X118525000Y-80802991D01*
X121124822Y-80802991D01*
X121280541Y-81179857D01*
X121568626Y-81468446D01*
X121945220Y-81624822D01*
X122352991Y-81625178D01*
X122729857Y-81469459D01*
X123018446Y-81181374D01*
X123174822Y-80804780D01*
X123175178Y-80397009D01*
X123019459Y-80020143D01*
X122731374Y-79731554D01*
X122354780Y-79575178D01*
X121947009Y-79574822D01*
X121570143Y-79730541D01*
X121281554Y-80018626D01*
X121125178Y-80395220D01*
X121124822Y-80802991D01*
X118525000Y-80802991D01*
X118525000Y-78273285D01*
X122974849Y-78273285D01*
X123107779Y-78595000D01*
X123353705Y-78841356D01*
X123675188Y-78974848D01*
X123947267Y-78975085D01*
X129911089Y-84938906D01*
X129911091Y-84938909D01*
X130089524Y-85058134D01*
X130300000Y-85100000D01*
X139922182Y-85100000D01*
X141450000Y-86627818D01*
X141450000Y-87012663D01*
X141258644Y-87203685D01*
X141125152Y-87525168D01*
X141124849Y-87873265D01*
X141257779Y-88194980D01*
X141503705Y-88441336D01*
X141825188Y-88574828D01*
X142173285Y-88575131D01*
X142495000Y-88442201D01*
X142687557Y-88249980D01*
X147372162Y-88249980D01*
X151950000Y-92827818D01*
X151950000Y-104162683D01*
X151758644Y-104353705D01*
X151625152Y-104675188D01*
X151624849Y-105023285D01*
X151757779Y-105345000D01*
X152003705Y-105591356D01*
X152325188Y-105724848D01*
X152673285Y-105725151D01*
X152995000Y-105592221D01*
X153241356Y-105346295D01*
X153374848Y-105024812D01*
X153375151Y-104676715D01*
X153242221Y-104355000D01*
X153050000Y-104162443D01*
X153050000Y-92600005D01*
X153050001Y-92600000D01*
X153008134Y-92389524D01*
X152888909Y-92211091D01*
X147988889Y-87311071D01*
X147810456Y-87191846D01*
X147599980Y-87149980D01*
X142687317Y-87149980D01*
X142550000Y-87012423D01*
X142550000Y-86400000D01*
X142508134Y-86189524D01*
X142388909Y-86011091D01*
X140538909Y-84161091D01*
X140360476Y-84041866D01*
X140150000Y-84000000D01*
X130527817Y-84000000D01*
X130325239Y-83797421D01*
X143724809Y-83797421D01*
X143880528Y-84174287D01*
X144168613Y-84462876D01*
X144545207Y-84619252D01*
X144952978Y-84619608D01*
X145329844Y-84463889D01*
X145618433Y-84175804D01*
X145774809Y-83799210D01*
X145775165Y-83391439D01*
X145619446Y-83014573D01*
X145331361Y-82725984D01*
X144954767Y-82569608D01*
X144546996Y-82569252D01*
X144170130Y-82724971D01*
X143881541Y-83013056D01*
X143725165Y-83389650D01*
X143724809Y-83797421D01*
X130325239Y-83797421D01*
X127251103Y-80723285D01*
X137324849Y-80723285D01*
X137457779Y-81045000D01*
X137703705Y-81291356D01*
X138025188Y-81424848D01*
X138373285Y-81425151D01*
X138695000Y-81292221D01*
X138941356Y-81046295D01*
X139074848Y-80724812D01*
X139075151Y-80376715D01*
X138942221Y-80055000D01*
X138696295Y-79808644D01*
X138374812Y-79675152D01*
X138026715Y-79674849D01*
X137705000Y-79807779D01*
X137458644Y-80053705D01*
X137325152Y-80375188D01*
X137324849Y-80723285D01*
X127251103Y-80723285D01*
X124724916Y-78197098D01*
X124725151Y-77926715D01*
X124592221Y-77605000D01*
X124346295Y-77358644D01*
X124024812Y-77225152D01*
X123676715Y-77224849D01*
X123355000Y-77357779D01*
X123108644Y-77603705D01*
X122975152Y-77925188D01*
X122974849Y-78273285D01*
X118525000Y-78273285D01*
X118525000Y-74692189D01*
X121514130Y-74692189D01*
X121531866Y-74790894D01*
X121800926Y-75261761D01*
X122229698Y-75593820D01*
X122752905Y-75736519D01*
X122971000Y-75639888D01*
X122971000Y-74479000D01*
X123229000Y-74479000D01*
X123229000Y-75639888D01*
X123447095Y-75736519D01*
X123970302Y-75593820D01*
X124399074Y-75261761D01*
X124668134Y-74790894D01*
X124685870Y-74692189D01*
X124627755Y-74479000D01*
X123229000Y-74479000D01*
X122971000Y-74479000D01*
X121572245Y-74479000D01*
X121514130Y-74692189D01*
X118525000Y-74692189D01*
X118525000Y-74007811D01*
X121514130Y-74007811D01*
X121572245Y-74221000D01*
X122971000Y-74221000D01*
X122971000Y-73060112D01*
X123229000Y-73060112D01*
X123229000Y-74221000D01*
X124627755Y-74221000D01*
X124685870Y-74007811D01*
X124668134Y-73909106D01*
X124399074Y-73438239D01*
X123970302Y-73106180D01*
X123447095Y-72963481D01*
X123229000Y-73060112D01*
X122971000Y-73060112D01*
X122752905Y-72963481D01*
X122229698Y-73106180D01*
X121800926Y-73438239D01*
X121531866Y-73909106D01*
X121514130Y-74007811D01*
X118525000Y-74007811D01*
X118525000Y-68607389D01*
X118625000Y-68607389D01*
X118625000Y-70692611D01*
X118714442Y-71142264D01*
X118969150Y-71523461D01*
X119350347Y-71778169D01*
X119800000Y-71867611D01*
X120249653Y-71778169D01*
X120630850Y-71523461D01*
X120885558Y-71142264D01*
X120975000Y-70692611D01*
X120975000Y-68607389D01*
X126825000Y-68607389D01*
X126825000Y-70692611D01*
X126914442Y-71142264D01*
X127169150Y-71523461D01*
X127450000Y-71711119D01*
X127450000Y-72550000D01*
X127491866Y-72760476D01*
X127611091Y-72938909D01*
X128611089Y-73938906D01*
X128611091Y-73938909D01*
X128789524Y-74058134D01*
X129000000Y-74100001D01*
X129000005Y-74100000D01*
X131072182Y-74100000D01*
X135711091Y-78738909D01*
X135889524Y-78858134D01*
X136100000Y-78900000D01*
X138472182Y-78900000D01*
X139811089Y-80238906D01*
X139811091Y-80238909D01*
X139989524Y-80358134D01*
X140200000Y-80400000D01*
X143522178Y-80400000D01*
X150725080Y-87602901D01*
X150724845Y-87873285D01*
X150857775Y-88195000D01*
X151103701Y-88441356D01*
X151425184Y-88574848D01*
X151773281Y-88575151D01*
X152094996Y-88442221D01*
X152341352Y-88196295D01*
X152474844Y-87874812D01*
X152475147Y-87526715D01*
X152342217Y-87205000D01*
X152096291Y-86958644D01*
X151774808Y-86825152D01*
X151502728Y-86824915D01*
X145280805Y-80602991D01*
X148724822Y-80602991D01*
X148880541Y-80979857D01*
X149168626Y-81268446D01*
X149545220Y-81424822D01*
X149952991Y-81425178D01*
X150329857Y-81269459D01*
X150618446Y-80981374D01*
X150774822Y-80604780D01*
X150775178Y-80197009D01*
X150619459Y-79820143D01*
X150331374Y-79531554D01*
X149954780Y-79375178D01*
X149547009Y-79374822D01*
X149170143Y-79530541D01*
X148881554Y-79818626D01*
X148725178Y-80195220D01*
X148724822Y-80602991D01*
X145280805Y-80602991D01*
X144138905Y-79461091D01*
X143960472Y-79341866D01*
X143749996Y-79300000D01*
X140427817Y-79300000D01*
X139201135Y-78073317D01*
X140849117Y-78073317D01*
X140946675Y-78254929D01*
X141418483Y-78417011D01*
X141916403Y-78386202D01*
X142233325Y-78254929D01*
X142330883Y-78073317D01*
X141590000Y-77332434D01*
X140849117Y-78073317D01*
X139201135Y-78073317D01*
X139088909Y-77961091D01*
X138910476Y-77841866D01*
X138700000Y-77800000D01*
X136327818Y-77800000D01*
X135301103Y-76773285D01*
X137324849Y-76773285D01*
X137457779Y-77095000D01*
X137703705Y-77341356D01*
X138025188Y-77474848D01*
X138373285Y-77475151D01*
X138695000Y-77342221D01*
X138941356Y-77096295D01*
X138990276Y-76978483D01*
X140322989Y-76978483D01*
X140353798Y-77476403D01*
X140485071Y-77793325D01*
X140666683Y-77890883D01*
X141407566Y-77150000D01*
X141772434Y-77150000D01*
X142513317Y-77890883D01*
X142694929Y-77793325D01*
X142810368Y-77457292D01*
X142987271Y-77885429D01*
X143352647Y-78251444D01*
X143830279Y-78449774D01*
X144347452Y-78450226D01*
X144825429Y-78252729D01*
X145191444Y-77887353D01*
X145340121Y-77529300D01*
X145487271Y-77885429D01*
X145852647Y-78251444D01*
X146330279Y-78449774D01*
X146847452Y-78450226D01*
X147325429Y-78252729D01*
X147691444Y-77887353D01*
X147889774Y-77409721D01*
X147890226Y-76892548D01*
X147692729Y-76414571D01*
X147327353Y-76048556D01*
X146849721Y-75850226D01*
X146332548Y-75849774D01*
X145854571Y-76047271D01*
X145488556Y-76412647D01*
X145339879Y-76770700D01*
X145192729Y-76414571D01*
X144827353Y-76048556D01*
X144640000Y-75970760D01*
X144640000Y-75423279D01*
X147624849Y-75423279D01*
X147757779Y-75744994D01*
X148003705Y-75991350D01*
X148325188Y-76124842D01*
X148673285Y-76125145D01*
X148775101Y-76083075D01*
X148774822Y-76402991D01*
X148930541Y-76779857D01*
X149218626Y-77068446D01*
X149595220Y-77224822D01*
X150002991Y-77225178D01*
X150379857Y-77069459D01*
X150668446Y-76781374D01*
X150824822Y-76404780D01*
X150824834Y-76390997D01*
X151447282Y-76390997D01*
X151603001Y-76767863D01*
X151891086Y-77056452D01*
X152267680Y-77212828D01*
X152675451Y-77213184D01*
X153052317Y-77057465D01*
X153340906Y-76769380D01*
X153497282Y-76392786D01*
X153497638Y-75985015D01*
X153341919Y-75608149D01*
X153053834Y-75319560D01*
X152677240Y-75163184D01*
X152269469Y-75162828D01*
X151892603Y-75318547D01*
X151604014Y-75606632D01*
X151447638Y-75983226D01*
X151447282Y-76390997D01*
X150824834Y-76390997D01*
X150825178Y-75997009D01*
X150669459Y-75620143D01*
X150381374Y-75331554D01*
X150004780Y-75175178D01*
X149597009Y-75174822D01*
X149374986Y-75266561D01*
X149375151Y-75076709D01*
X149242221Y-74754994D01*
X148996295Y-74508638D01*
X148674812Y-74375146D01*
X148326715Y-74374843D01*
X148005000Y-74507773D01*
X147758644Y-74753699D01*
X147625152Y-75075182D01*
X147624849Y-75423279D01*
X144640000Y-75423279D01*
X144640000Y-75037818D01*
X145727818Y-73950000D01*
X151800002Y-73950000D01*
X152010478Y-73908134D01*
X152188911Y-73788909D01*
X154052904Y-71924916D01*
X154323287Y-71925151D01*
X154645002Y-71792221D01*
X154891358Y-71546295D01*
X155024850Y-71224812D01*
X155025153Y-70876715D01*
X154892223Y-70555000D01*
X154646297Y-70308644D01*
X154324814Y-70175152D01*
X153976717Y-70174849D01*
X153655002Y-70307779D01*
X153408646Y-70553705D01*
X153275154Y-70875188D01*
X153274917Y-71147267D01*
X151572184Y-72850000D01*
X145500000Y-72850000D01*
X145289524Y-72891866D01*
X145111091Y-73011091D01*
X143701091Y-74421091D01*
X143581866Y-74599524D01*
X143540000Y-74810000D01*
X143540000Y-75970653D01*
X143354571Y-76047271D01*
X142988556Y-76412647D01*
X142822063Y-76813606D01*
X142694929Y-76506675D01*
X142513317Y-76409117D01*
X141772434Y-77150000D01*
X141407566Y-77150000D01*
X140666683Y-76409117D01*
X140485071Y-76506675D01*
X140322989Y-76978483D01*
X138990276Y-76978483D01*
X139074848Y-76774812D01*
X139075151Y-76426715D01*
X138992500Y-76226683D01*
X140849117Y-76226683D01*
X141590000Y-76967566D01*
X142330883Y-76226683D01*
X142233325Y-76045071D01*
X141761517Y-75882989D01*
X141263597Y-75913798D01*
X140946675Y-76045071D01*
X140849117Y-76226683D01*
X138992500Y-76226683D01*
X138942221Y-76105000D01*
X138696295Y-75858644D01*
X138374812Y-75725152D01*
X138026715Y-75724849D01*
X137705000Y-75857779D01*
X137458644Y-76103705D01*
X137325152Y-76425188D01*
X137324849Y-76773285D01*
X135301103Y-76773285D01*
X132751105Y-74223287D01*
X140224849Y-74223287D01*
X140357779Y-74545002D01*
X140603705Y-74791358D01*
X140925188Y-74924850D01*
X141273285Y-74925153D01*
X141595000Y-74792223D01*
X141841356Y-74546297D01*
X141974848Y-74224814D01*
X141975151Y-73876717D01*
X141842221Y-73555002D01*
X141596295Y-73308646D01*
X141274812Y-73175154D01*
X140926715Y-73174851D01*
X140605000Y-73307781D01*
X140358644Y-73553707D01*
X140225152Y-73875190D01*
X140224849Y-74223287D01*
X132751105Y-74223287D01*
X131688909Y-73161091D01*
X131510476Y-73041866D01*
X131300000Y-73000000D01*
X129227817Y-73000000D01*
X128550000Y-72322182D01*
X128550000Y-71711119D01*
X128830850Y-71523461D01*
X129085558Y-71142264D01*
X129175000Y-70692611D01*
X129175000Y-69502991D01*
X134524822Y-69502991D01*
X134680541Y-69879857D01*
X134968626Y-70168446D01*
X135345220Y-70324822D01*
X135752991Y-70325178D01*
X136129857Y-70169459D01*
X136418446Y-69881374D01*
X136574822Y-69504780D01*
X136575037Y-69257389D01*
X137465000Y-69257389D01*
X137465000Y-70042611D01*
X137603920Y-70741008D01*
X137999530Y-71333081D01*
X138591603Y-71728691D01*
X139290000Y-71867611D01*
X139988397Y-71728691D01*
X140580470Y-71333081D01*
X140976080Y-70741008D01*
X141115000Y-70042611D01*
X141115000Y-69257389D01*
X147065000Y-69257389D01*
X147065000Y-70042611D01*
X147203920Y-70741008D01*
X147599530Y-71333081D01*
X148191603Y-71728691D01*
X148890000Y-71867611D01*
X149588397Y-71728691D01*
X150180470Y-71333081D01*
X150576080Y-70741008D01*
X150715000Y-70042611D01*
X150715000Y-69257389D01*
X150576080Y-68558992D01*
X150180470Y-67966919D01*
X149588397Y-67571309D01*
X148890000Y-67432389D01*
X148191603Y-67571309D01*
X147599530Y-67966919D01*
X147203920Y-68558992D01*
X147065000Y-69257389D01*
X141115000Y-69257389D01*
X140976080Y-68558992D01*
X140580470Y-67966919D01*
X140125186Y-67662708D01*
X140229857Y-67619459D01*
X140518446Y-67331374D01*
X140674822Y-66954780D01*
X140675178Y-66547009D01*
X140519459Y-66170143D01*
X140231374Y-65881554D01*
X139854780Y-65725178D01*
X139447009Y-65724822D01*
X139070143Y-65880541D01*
X138781554Y-66168626D01*
X138625178Y-66545220D01*
X138624822Y-66952991D01*
X138780541Y-67329857D01*
X138950339Y-67499952D01*
X138591603Y-67571309D01*
X137999530Y-67966919D01*
X137603920Y-68558992D01*
X137465000Y-69257389D01*
X136575037Y-69257389D01*
X136575178Y-69097009D01*
X136419459Y-68720143D01*
X136131374Y-68431554D01*
X135754780Y-68275178D01*
X135347009Y-68274822D01*
X134970143Y-68430541D01*
X134681554Y-68718626D01*
X134525178Y-69095220D01*
X134524822Y-69502991D01*
X129175000Y-69502991D01*
X129175000Y-68607389D01*
X129085558Y-68157736D01*
X128830850Y-67776539D01*
X128571118Y-67602991D01*
X131124822Y-67602991D01*
X131280541Y-67979857D01*
X131568626Y-68268446D01*
X131945220Y-68424822D01*
X132352991Y-68425178D01*
X132729857Y-68269459D01*
X133018446Y-67981374D01*
X133174822Y-67604780D01*
X133175178Y-67197009D01*
X133019459Y-66820143D01*
X132731374Y-66531554D01*
X132354780Y-66375178D01*
X131947009Y-66374822D01*
X131570143Y-66530541D01*
X131281554Y-66818626D01*
X131125178Y-67195220D01*
X131124822Y-67602991D01*
X128571118Y-67602991D01*
X128449653Y-67521831D01*
X128000000Y-67432389D01*
X127550347Y-67521831D01*
X127169150Y-67776539D01*
X126914442Y-68157736D01*
X126825000Y-68607389D01*
X120975000Y-68607389D01*
X120885558Y-68157736D01*
X120630850Y-67776539D01*
X120249653Y-67521831D01*
X119800000Y-67432389D01*
X119350347Y-67521831D01*
X118969150Y-67776539D01*
X118714442Y-68157736D01*
X118625000Y-68607389D01*
X118525000Y-68607389D01*
X118525000Y-65331443D01*
X120766289Y-65331443D01*
X120795634Y-65454211D01*
X121106906Y-66010660D01*
X121607428Y-66405634D01*
X122221000Y-66579000D01*
X122971000Y-66579000D01*
X122971000Y-65079000D01*
X123229000Y-65079000D01*
X123229000Y-66579000D01*
X123979000Y-66579000D01*
X124592572Y-66405634D01*
X125093094Y-66010660D01*
X125404366Y-65454211D01*
X125433711Y-65331443D01*
X125378817Y-65079000D01*
X123229000Y-65079000D01*
X122971000Y-65079000D01*
X120821183Y-65079000D01*
X120766289Y-65331443D01*
X118525000Y-65331443D01*
X118525000Y-64568557D01*
X120766289Y-64568557D01*
X120821183Y-64821000D01*
X122971000Y-64821000D01*
X122971000Y-63321000D01*
X123229000Y-63321000D01*
X123229000Y-64821000D01*
X125378817Y-64821000D01*
X125433711Y-64568557D01*
X125404366Y-64445789D01*
X125093094Y-63889340D01*
X124755960Y-63623299D01*
X134374865Y-63623299D01*
X134507795Y-63945014D01*
X134753721Y-64191370D01*
X135075204Y-64324862D01*
X135423301Y-64325165D01*
X135745016Y-64192235D01*
X135991372Y-63946309D01*
X136124864Y-63624826D01*
X136125167Y-63276729D01*
X135992237Y-62955014D01*
X135990218Y-62952991D01*
X144274822Y-62952991D01*
X144430541Y-63329857D01*
X144718626Y-63618446D01*
X145095220Y-63774822D01*
X145502991Y-63775178D01*
X145879857Y-63619459D01*
X146168446Y-63331374D01*
X146324822Y-62954780D01*
X146325178Y-62547009D01*
X146265671Y-62402991D01*
X148775182Y-62402991D01*
X148930901Y-62779857D01*
X149075791Y-62925000D01*
X148931914Y-63068626D01*
X148775538Y-63445220D01*
X148775182Y-63852991D01*
X148930901Y-64229857D01*
X149218986Y-64518446D01*
X149595580Y-64674822D01*
X150003351Y-64675178D01*
X150380217Y-64519459D01*
X150668806Y-64231374D01*
X150825182Y-63854780D01*
X150825538Y-63447009D01*
X150669819Y-63070143D01*
X150524929Y-62925000D01*
X150668806Y-62781374D01*
X150825182Y-62404780D01*
X150825538Y-61997009D01*
X150669819Y-61620143D01*
X150381734Y-61331554D01*
X150005140Y-61175178D01*
X149597369Y-61174822D01*
X149220503Y-61330541D01*
X148931914Y-61618626D01*
X148775538Y-61995220D01*
X148775182Y-62402991D01*
X146265671Y-62402991D01*
X146169459Y-62170143D01*
X145881374Y-61881554D01*
X145504780Y-61725178D01*
X145097009Y-61724822D01*
X144720143Y-61880541D01*
X144431554Y-62168626D01*
X144275178Y-62545220D01*
X144274822Y-62952991D01*
X135990218Y-62952991D01*
X135746311Y-62708658D01*
X135424828Y-62575166D01*
X135076731Y-62574863D01*
X134755016Y-62707793D01*
X134508660Y-62953719D01*
X134375168Y-63275202D01*
X134374865Y-63623299D01*
X124755960Y-63623299D01*
X124592572Y-63494366D01*
X123979000Y-63321000D01*
X123229000Y-63321000D01*
X122971000Y-63321000D01*
X122221000Y-63321000D01*
X121607428Y-63494366D01*
X121106906Y-63889340D01*
X120795634Y-64445789D01*
X120766289Y-64568557D01*
X118525000Y-64568557D01*
X118525000Y-62475228D01*
X122199842Y-62475228D01*
X122355561Y-62852094D01*
X122643646Y-63140683D01*
X123020240Y-63297059D01*
X123428011Y-63297415D01*
X123804877Y-63141696D01*
X124093466Y-62853611D01*
X124249842Y-62477017D01*
X124250198Y-62069246D01*
X124094479Y-61692380D01*
X123806394Y-61403791D01*
X123429800Y-61247415D01*
X123022029Y-61247059D01*
X122645163Y-61402778D01*
X122356574Y-61690863D01*
X122200198Y-62067457D01*
X122199842Y-62475228D01*
X118525000Y-62475228D01*
X118525000Y-60673285D01*
X126639046Y-60673285D01*
X126771976Y-60995000D01*
X127017902Y-61241356D01*
X127339385Y-61374848D01*
X127687482Y-61375151D01*
X128009197Y-61242221D01*
X128255553Y-60996295D01*
X128306631Y-60873285D01*
X129124849Y-60873285D01*
X129257779Y-61195000D01*
X129503705Y-61441356D01*
X129825188Y-61574848D01*
X130173285Y-61575151D01*
X130495000Y-61442221D01*
X130741356Y-61196295D01*
X130874848Y-60874812D01*
X130875128Y-60552991D01*
X132724822Y-60552991D01*
X132880541Y-60929857D01*
X133168626Y-61218446D01*
X133545220Y-61374822D01*
X133952991Y-61375178D01*
X134329857Y-61219459D01*
X134618446Y-60931374D01*
X134774822Y-60554780D01*
X134775178Y-60147009D01*
X134619459Y-59770143D01*
X134331374Y-59481554D01*
X133954780Y-59325178D01*
X133547009Y-59324822D01*
X133170143Y-59480541D01*
X132881554Y-59768626D01*
X132725178Y-60145220D01*
X132724822Y-60552991D01*
X130875128Y-60552991D01*
X130875151Y-60526715D01*
X130742221Y-60205000D01*
X130496295Y-59958644D01*
X130174812Y-59825152D01*
X129826715Y-59824849D01*
X129505000Y-59957779D01*
X129258644Y-60203705D01*
X129125152Y-60525188D01*
X129124849Y-60873285D01*
X128306631Y-60873285D01*
X128389045Y-60674812D01*
X128389348Y-60326715D01*
X128256418Y-60005000D01*
X128010492Y-59758644D01*
X127689009Y-59625152D01*
X127340912Y-59624849D01*
X127019197Y-59757779D01*
X126772841Y-60003705D01*
X126639349Y-60325188D01*
X126639046Y-60673285D01*
X118525000Y-60673285D01*
X118525000Y-58400000D01*
X150216674Y-58400000D01*
X150216674Y-60100000D01*
X150246309Y-60257496D01*
X150339389Y-60402146D01*
X150481412Y-60499186D01*
X150650000Y-60533326D01*
X152350000Y-60533326D01*
X152507496Y-60503691D01*
X152652146Y-60410611D01*
X152749186Y-60268588D01*
X152783326Y-60100000D01*
X152783326Y-59467708D01*
X152837075Y-59737921D01*
X153113460Y-60151561D01*
X153527100Y-60427946D01*
X154015021Y-60525000D01*
X154064979Y-60525000D01*
X154552900Y-60427946D01*
X154966540Y-60151561D01*
X155242925Y-59737921D01*
X155339979Y-59250000D01*
X155242925Y-58762079D01*
X154966540Y-58348439D01*
X154552900Y-58072054D01*
X154064979Y-57975000D01*
X154015021Y-57975000D01*
X153527100Y-58072054D01*
X153113460Y-58348439D01*
X152837075Y-58762079D01*
X152783326Y-59032292D01*
X152783326Y-58400000D01*
X152753691Y-58242504D01*
X152660611Y-58097854D01*
X152518588Y-58000814D01*
X152350000Y-57966674D01*
X150650000Y-57966674D01*
X150492504Y-57996309D01*
X150347854Y-58089389D01*
X150250814Y-58231412D01*
X150216674Y-58400000D01*
X118525000Y-58400000D01*
X118525000Y-57028608D01*
X150313016Y-57028608D01*
X150435376Y-57324041D01*
X150751399Y-57684714D01*
X151181390Y-57896995D01*
X151371000Y-57837473D01*
X151371000Y-56839000D01*
X151629000Y-56839000D01*
X151629000Y-57837473D01*
X151818610Y-57896995D01*
X152248601Y-57684714D01*
X152564624Y-57324041D01*
X152686984Y-57028608D01*
X152853016Y-57028608D01*
X152975376Y-57324041D01*
X153291399Y-57684714D01*
X153721390Y-57896995D01*
X153911000Y-57837473D01*
X153911000Y-56839000D01*
X154169000Y-56839000D01*
X154169000Y-57837473D01*
X154358610Y-57896995D01*
X154788601Y-57684714D01*
X155104624Y-57324041D01*
X155226984Y-57028608D01*
X155166890Y-56839000D01*
X154169000Y-56839000D01*
X153911000Y-56839000D01*
X152913110Y-56839000D01*
X152853016Y-57028608D01*
X152686984Y-57028608D01*
X152626890Y-56839000D01*
X151629000Y-56839000D01*
X151371000Y-56839000D01*
X150373110Y-56839000D01*
X150313016Y-57028608D01*
X118525000Y-57028608D01*
X118525000Y-55702991D01*
X121502560Y-55702991D01*
X121658279Y-56079857D01*
X121946364Y-56368446D01*
X122322958Y-56524822D01*
X122730729Y-56525178D01*
X123107595Y-56369459D01*
X123396184Y-56081374D01*
X123552560Y-55704780D01*
X123552916Y-55297009D01*
X123483909Y-55130000D01*
X127676674Y-55130000D01*
X127676674Y-56330000D01*
X127706309Y-56487496D01*
X127799389Y-56632146D01*
X127941412Y-56729186D01*
X128110000Y-56763326D01*
X129310000Y-56763326D01*
X129467496Y-56733691D01*
X129612146Y-56640611D01*
X129709186Y-56498588D01*
X129718317Y-56453493D01*
X130708941Y-56453493D01*
X130772568Y-56606597D01*
X131144369Y-56722575D01*
X131532252Y-56687442D01*
X131727432Y-56606597D01*
X131791059Y-56453493D01*
X131728958Y-56391392D01*
X150313016Y-56391392D01*
X150373110Y-56581000D01*
X151371000Y-56581000D01*
X151371000Y-55582527D01*
X151629000Y-55582527D01*
X151629000Y-56581000D01*
X152626890Y-56581000D01*
X152686984Y-56391392D01*
X152853016Y-56391392D01*
X152913110Y-56581000D01*
X153911000Y-56581000D01*
X153911000Y-55582527D01*
X154169000Y-55582527D01*
X154169000Y-56581000D01*
X155166890Y-56581000D01*
X155226984Y-56391392D01*
X155104624Y-56095959D01*
X154788601Y-55735286D01*
X154358610Y-55523005D01*
X154169000Y-55582527D01*
X153911000Y-55582527D01*
X153721390Y-55523005D01*
X153291399Y-55735286D01*
X152975376Y-56095959D01*
X152853016Y-56391392D01*
X152686984Y-56391392D01*
X152564624Y-56095959D01*
X152248601Y-55735286D01*
X151818610Y-55523005D01*
X151629000Y-55582527D01*
X151371000Y-55582527D01*
X151181390Y-55523005D01*
X150751399Y-55735286D01*
X150435376Y-56095959D01*
X150313016Y-56391392D01*
X131728958Y-56391392D01*
X131250000Y-55912434D01*
X130708941Y-56453493D01*
X129718317Y-56453493D01*
X129743326Y-56330000D01*
X129743326Y-55624369D01*
X130257425Y-55624369D01*
X130292558Y-56012252D01*
X130373403Y-56207432D01*
X130526507Y-56271059D01*
X131067566Y-55730000D01*
X131432434Y-55730000D01*
X131973493Y-56271059D01*
X132126597Y-56207432D01*
X132242575Y-55835631D01*
X132207442Y-55447748D01*
X132126597Y-55252568D01*
X131973493Y-55188941D01*
X131432434Y-55730000D01*
X131067566Y-55730000D01*
X130526507Y-55188941D01*
X130373403Y-55252568D01*
X130257425Y-55624369D01*
X129743326Y-55624369D01*
X129743326Y-55130000D01*
X129720090Y-55006507D01*
X130708941Y-55006507D01*
X131250000Y-55547566D01*
X131791059Y-55006507D01*
X131768819Y-54952991D01*
X139224822Y-54952991D01*
X139380541Y-55329857D01*
X139668626Y-55618446D01*
X140045220Y-55774822D01*
X140452991Y-55775178D01*
X140829857Y-55619459D01*
X141118446Y-55331374D01*
X141274822Y-54954780D01*
X141275178Y-54547009D01*
X141251048Y-54488608D01*
X150313016Y-54488608D01*
X150435376Y-54784041D01*
X150751399Y-55144714D01*
X151181390Y-55356995D01*
X151371000Y-55297473D01*
X151371000Y-54299000D01*
X151629000Y-54299000D01*
X151629000Y-55297473D01*
X151818610Y-55356995D01*
X152248601Y-55144714D01*
X152564624Y-54784041D01*
X152686984Y-54488608D01*
X152853016Y-54488608D01*
X152975376Y-54784041D01*
X153291399Y-55144714D01*
X153721390Y-55356995D01*
X153911000Y-55297473D01*
X153911000Y-54299000D01*
X154169000Y-54299000D01*
X154169000Y-55297473D01*
X154358610Y-55356995D01*
X154788601Y-55144714D01*
X155104624Y-54784041D01*
X155226984Y-54488608D01*
X155166890Y-54299000D01*
X154169000Y-54299000D01*
X153911000Y-54299000D01*
X152913110Y-54299000D01*
X152853016Y-54488608D01*
X152686984Y-54488608D01*
X152626890Y-54299000D01*
X151629000Y-54299000D01*
X151371000Y-54299000D01*
X150373110Y-54299000D01*
X150313016Y-54488608D01*
X141251048Y-54488608D01*
X141188871Y-54338131D01*
X141418483Y-54417011D01*
X141916403Y-54386202D01*
X142233325Y-54254929D01*
X142330883Y-54073317D01*
X141590000Y-53332434D01*
X141575858Y-53346576D01*
X141393424Y-53164142D01*
X141407566Y-53150000D01*
X141772434Y-53150000D01*
X142513317Y-53890883D01*
X142694929Y-53793325D01*
X142810368Y-53457292D01*
X142987271Y-53885429D01*
X143352647Y-54251444D01*
X143830279Y-54449774D01*
X144347452Y-54450226D01*
X144825429Y-54252729D01*
X145191444Y-53887353D01*
X145340121Y-53529300D01*
X145487271Y-53885429D01*
X145852647Y-54251444D01*
X146330279Y-54449774D01*
X146847452Y-54450226D01*
X147325429Y-54252729D01*
X147691444Y-53887353D01*
X147706376Y-53851392D01*
X150313016Y-53851392D01*
X150373110Y-54041000D01*
X151371000Y-54041000D01*
X151371000Y-53042527D01*
X151629000Y-53042527D01*
X151629000Y-54041000D01*
X152626890Y-54041000D01*
X152686984Y-53851392D01*
X152853016Y-53851392D01*
X152913110Y-54041000D01*
X153911000Y-54041000D01*
X153911000Y-53042527D01*
X154169000Y-53042527D01*
X154169000Y-54041000D01*
X155166890Y-54041000D01*
X155226984Y-53851392D01*
X155104624Y-53555959D01*
X154788601Y-53195286D01*
X154358610Y-52983005D01*
X154169000Y-53042527D01*
X153911000Y-53042527D01*
X153721390Y-52983005D01*
X153291399Y-53195286D01*
X152975376Y-53555959D01*
X152853016Y-53851392D01*
X152686984Y-53851392D01*
X152564624Y-53555959D01*
X152248601Y-53195286D01*
X151818610Y-52983005D01*
X151629000Y-53042527D01*
X151371000Y-53042527D01*
X151181390Y-52983005D01*
X150751399Y-53195286D01*
X150435376Y-53555959D01*
X150313016Y-53851392D01*
X147706376Y-53851392D01*
X147889774Y-53409721D01*
X147890226Y-52892548D01*
X147692729Y-52414571D01*
X147327353Y-52048556D01*
X147086652Y-51948608D01*
X150313016Y-51948608D01*
X150435376Y-52244041D01*
X150751399Y-52604714D01*
X151181390Y-52816995D01*
X151371000Y-52757473D01*
X151371000Y-51759000D01*
X151629000Y-51759000D01*
X151629000Y-52757473D01*
X151818610Y-52816995D01*
X152248601Y-52604714D01*
X152564624Y-52244041D01*
X152686984Y-51948608D01*
X152853016Y-51948608D01*
X152975376Y-52244041D01*
X153291399Y-52604714D01*
X153721390Y-52816995D01*
X153911000Y-52757473D01*
X153911000Y-51759000D01*
X154169000Y-51759000D01*
X154169000Y-52757473D01*
X154358610Y-52816995D01*
X154788601Y-52604714D01*
X155104624Y-52244041D01*
X155226984Y-51948608D01*
X155166890Y-51759000D01*
X154169000Y-51759000D01*
X153911000Y-51759000D01*
X152913110Y-51759000D01*
X152853016Y-51948608D01*
X152686984Y-51948608D01*
X152626890Y-51759000D01*
X151629000Y-51759000D01*
X151371000Y-51759000D01*
X150373110Y-51759000D01*
X150313016Y-51948608D01*
X147086652Y-51948608D01*
X146849721Y-51850226D01*
X146332548Y-51849774D01*
X145854571Y-52047271D01*
X145488556Y-52412647D01*
X145339879Y-52770700D01*
X145192729Y-52414571D01*
X144827353Y-52048556D01*
X144349721Y-51850226D01*
X143832548Y-51849774D01*
X143354571Y-52047271D01*
X142988556Y-52412647D01*
X142822063Y-52813606D01*
X142694929Y-52506675D01*
X142513317Y-52409117D01*
X141772434Y-53150000D01*
X141407566Y-53150000D01*
X140666683Y-52409117D01*
X140485071Y-52506675D01*
X140322989Y-52978483D01*
X140353798Y-53476403D01*
X140457272Y-53726213D01*
X140454780Y-53725178D01*
X140047009Y-53724822D01*
X139670143Y-53880541D01*
X139381554Y-54168626D01*
X139225178Y-54545220D01*
X139224822Y-54952991D01*
X131768819Y-54952991D01*
X131727432Y-54853403D01*
X131355631Y-54737425D01*
X130967748Y-54772558D01*
X130772568Y-54853403D01*
X130708941Y-55006507D01*
X129720090Y-55006507D01*
X129713691Y-54972504D01*
X129620611Y-54827854D01*
X129478588Y-54730814D01*
X129310000Y-54696674D01*
X128110000Y-54696674D01*
X127952504Y-54726309D01*
X127807854Y-54819389D01*
X127710814Y-54961412D01*
X127676674Y-55130000D01*
X123483909Y-55130000D01*
X123397197Y-54920143D01*
X123109112Y-54631554D01*
X122732518Y-54475178D01*
X122324747Y-54474822D01*
X121947881Y-54630541D01*
X121659292Y-54918626D01*
X121502916Y-55295220D01*
X121502560Y-55702991D01*
X118525000Y-55702991D01*
X118525000Y-53090285D01*
X120450029Y-53090285D01*
X120582959Y-53412000D01*
X120828885Y-53658356D01*
X121150368Y-53791848D01*
X121498465Y-53792151D01*
X121820180Y-53659221D01*
X122066536Y-53413295D01*
X122200028Y-53091812D01*
X122200331Y-52743715D01*
X122067401Y-52422000D01*
X122040704Y-52395256D01*
X126314025Y-52395256D01*
X126446955Y-52716971D01*
X126692881Y-52963327D01*
X126777917Y-52998637D01*
X126772841Y-53003705D01*
X126639349Y-53325188D01*
X126639046Y-53673285D01*
X126771976Y-53995000D01*
X127017902Y-54241356D01*
X127339385Y-54374848D01*
X127687482Y-54375151D01*
X128009197Y-54242221D01*
X128255553Y-53996295D01*
X128389045Y-53674812D01*
X128389348Y-53326715D01*
X128256418Y-53005000D01*
X128204500Y-52952991D01*
X133974814Y-52952991D01*
X134130533Y-53329857D01*
X134418618Y-53618446D01*
X134795212Y-53774822D01*
X135202983Y-53775178D01*
X135579849Y-53619459D01*
X135868438Y-53331374D01*
X136024814Y-52954780D01*
X136025170Y-52547009D01*
X135892814Y-52226683D01*
X140849117Y-52226683D01*
X141590000Y-52967566D01*
X142330883Y-52226683D01*
X142233325Y-52045071D01*
X141761517Y-51882989D01*
X141263597Y-51913798D01*
X140946675Y-52045071D01*
X140849117Y-52226683D01*
X135892814Y-52226683D01*
X135869451Y-52170143D01*
X135581366Y-51881554D01*
X135204772Y-51725178D01*
X134797001Y-51724822D01*
X134420135Y-51880541D01*
X134131546Y-52168626D01*
X133975170Y-52545220D01*
X133974814Y-52952991D01*
X128204500Y-52952991D01*
X128010492Y-52758644D01*
X127925456Y-52723334D01*
X127930532Y-52718266D01*
X128064024Y-52396783D01*
X128064327Y-52048686D01*
X127931397Y-51726971D01*
X127916866Y-51712414D01*
X127941412Y-51729186D01*
X128110000Y-51763326D01*
X129310000Y-51763326D01*
X129467496Y-51733691D01*
X129612146Y-51640611D01*
X129709186Y-51498588D01*
X129718317Y-51453493D01*
X130708941Y-51453493D01*
X130772568Y-51606597D01*
X131144369Y-51722575D01*
X131532252Y-51687442D01*
X131727432Y-51606597D01*
X131791059Y-51453493D01*
X131648958Y-51311392D01*
X150313016Y-51311392D01*
X150373110Y-51501000D01*
X151371000Y-51501000D01*
X151371000Y-50502527D01*
X151629000Y-50502527D01*
X151629000Y-51501000D01*
X152626890Y-51501000D01*
X152686984Y-51311392D01*
X152853016Y-51311392D01*
X152913110Y-51501000D01*
X153911000Y-51501000D01*
X153911000Y-50502527D01*
X154169000Y-50502527D01*
X154169000Y-51501000D01*
X155166890Y-51501000D01*
X155226984Y-51311392D01*
X155104624Y-51015959D01*
X154788601Y-50655286D01*
X154358610Y-50443005D01*
X154169000Y-50502527D01*
X153911000Y-50502527D01*
X153721390Y-50443005D01*
X153291399Y-50655286D01*
X152975376Y-51015959D01*
X152853016Y-51311392D01*
X152686984Y-51311392D01*
X152564624Y-51015959D01*
X152248601Y-50655286D01*
X151818610Y-50443005D01*
X151629000Y-50502527D01*
X151371000Y-50502527D01*
X151181390Y-50443005D01*
X150751399Y-50655286D01*
X150435376Y-51015959D01*
X150313016Y-51311392D01*
X131648958Y-51311392D01*
X131250000Y-50912434D01*
X130708941Y-51453493D01*
X129718317Y-51453493D01*
X129743326Y-51330000D01*
X129743326Y-50624369D01*
X130257425Y-50624369D01*
X130292558Y-51012252D01*
X130373403Y-51207432D01*
X130526507Y-51271059D01*
X131067566Y-50730000D01*
X131432434Y-50730000D01*
X131973493Y-51271059D01*
X132126597Y-51207432D01*
X132242575Y-50835631D01*
X132207442Y-50447748D01*
X132126597Y-50252568D01*
X131973493Y-50188941D01*
X131432434Y-50730000D01*
X131067566Y-50730000D01*
X130526507Y-50188941D01*
X130373403Y-50252568D01*
X130257425Y-50624369D01*
X129743326Y-50624369D01*
X129743326Y-50130000D01*
X129720090Y-50006507D01*
X130708941Y-50006507D01*
X131250000Y-50547566D01*
X131791059Y-50006507D01*
X131727432Y-49853403D01*
X131355631Y-49737425D01*
X130967748Y-49772558D01*
X130772568Y-49853403D01*
X130708941Y-50006507D01*
X129720090Y-50006507D01*
X129713691Y-49972504D01*
X129620611Y-49827854D01*
X129478588Y-49730814D01*
X129310000Y-49696674D01*
X128110000Y-49696674D01*
X127952504Y-49726309D01*
X127807854Y-49819389D01*
X127710814Y-49961412D01*
X127705914Y-49985609D01*
X127629185Y-49828248D01*
X127307096Y-49552500D01*
X126904000Y-49421000D01*
X126479000Y-49421000D01*
X126479000Y-50371000D01*
X126499000Y-50371000D01*
X126499000Y-50629000D01*
X126479000Y-50629000D01*
X126479000Y-51579000D01*
X126594752Y-51579000D01*
X126447820Y-51725676D01*
X126314328Y-52047159D01*
X126314025Y-52395256D01*
X122040704Y-52395256D01*
X121821475Y-52175644D01*
X121499992Y-52042152D01*
X121151895Y-52041849D01*
X120830180Y-52174779D01*
X120583824Y-52420705D01*
X120450332Y-52742188D01*
X120450029Y-53090285D01*
X118525000Y-53090285D01*
X118525000Y-51026520D01*
X118595815Y-51171752D01*
X118917904Y-51447500D01*
X119321000Y-51579000D01*
X119721000Y-51579000D01*
X119721000Y-50629000D01*
X119979000Y-50629000D01*
X119979000Y-51579000D01*
X120379000Y-51579000D01*
X120591690Y-51509615D01*
X121502560Y-51509615D01*
X121658279Y-51886481D01*
X121946364Y-52175070D01*
X122322958Y-52331446D01*
X122730729Y-52331802D01*
X123107595Y-52176083D01*
X123396184Y-51887998D01*
X123552560Y-51511404D01*
X123552916Y-51103633D01*
X123425389Y-50794994D01*
X124887108Y-50794994D01*
X125070815Y-51171752D01*
X125392904Y-51447500D01*
X125796000Y-51579000D01*
X126221000Y-51579000D01*
X126221000Y-50629000D01*
X124949240Y-50629000D01*
X124887108Y-50794994D01*
X123425389Y-50794994D01*
X123397197Y-50726767D01*
X123109112Y-50438178D01*
X122732518Y-50281802D01*
X122324747Y-50281446D01*
X121947881Y-50437165D01*
X121659292Y-50725250D01*
X121502916Y-51101844D01*
X121502560Y-51509615D01*
X120591690Y-51509615D01*
X120782096Y-51447500D01*
X121104185Y-51171752D01*
X121287892Y-50794994D01*
X121225760Y-50629000D01*
X119979000Y-50629000D01*
X119721000Y-50629000D01*
X119701000Y-50629000D01*
X119701000Y-50371000D01*
X119721000Y-50371000D01*
X119721000Y-49421000D01*
X119979000Y-49421000D01*
X119979000Y-50371000D01*
X121225760Y-50371000D01*
X121287892Y-50205006D01*
X124887108Y-50205006D01*
X124949240Y-50371000D01*
X126221000Y-50371000D01*
X126221000Y-49421000D01*
X125796000Y-49421000D01*
X125392904Y-49552500D01*
X125070815Y-49828248D01*
X124887108Y-50205006D01*
X121287892Y-50205006D01*
X121104185Y-49828248D01*
X120782096Y-49552500D01*
X120379000Y-49421000D01*
X119979000Y-49421000D01*
X119721000Y-49421000D01*
X119321000Y-49421000D01*
X118917904Y-49552500D01*
X118595815Y-49828248D01*
X118525000Y-49973480D01*
X118525000Y-49090000D01*
X150200021Y-49090000D01*
X150297075Y-49577921D01*
X150573460Y-49991561D01*
X150987100Y-50267946D01*
X151475021Y-50365000D01*
X151524979Y-50365000D01*
X152012900Y-50267946D01*
X152426540Y-49991561D01*
X152702925Y-49577921D01*
X152770000Y-49240714D01*
X152837075Y-49577921D01*
X153113460Y-49991561D01*
X153527100Y-50267946D01*
X154015021Y-50365000D01*
X154064979Y-50365000D01*
X154552900Y-50267946D01*
X154966540Y-49991561D01*
X155242925Y-49577921D01*
X155339979Y-49090000D01*
X155242925Y-48602079D01*
X154966540Y-48188439D01*
X154552900Y-47912054D01*
X154064979Y-47815000D01*
X154015021Y-47815000D01*
X153527100Y-47912054D01*
X153113460Y-48188439D01*
X152837075Y-48602079D01*
X152770000Y-48939286D01*
X152702925Y-48602079D01*
X152426540Y-48188439D01*
X152012900Y-47912054D01*
X151524979Y-47815000D01*
X151475021Y-47815000D01*
X150987100Y-47912054D01*
X150573460Y-48188439D01*
X150297075Y-48602079D01*
X150200021Y-49090000D01*
X118525000Y-49090000D01*
X118525000Y-46646391D01*
X118624628Y-46795495D01*
X118989604Y-47039364D01*
X119420123Y-47125000D01*
X120279877Y-47125000D01*
X120710396Y-47039364D01*
X121075372Y-46795495D01*
X121319241Y-46430519D01*
X121404877Y-46000000D01*
X124769634Y-46000000D01*
X124855270Y-46430519D01*
X125099139Y-46795495D01*
X125464115Y-47039364D01*
X125894634Y-47125000D01*
X126805366Y-47125000D01*
X127235885Y-47039364D01*
X127600861Y-46795495D01*
X127755539Y-46564002D01*
X127799389Y-46632146D01*
X127941412Y-46729186D01*
X128110000Y-46763326D01*
X129310000Y-46763326D01*
X129467496Y-46733691D01*
X129612146Y-46640611D01*
X129709186Y-46498588D01*
X129718317Y-46453493D01*
X130708941Y-46453493D01*
X130772568Y-46606597D01*
X131144369Y-46722575D01*
X131532252Y-46687442D01*
X131727432Y-46606597D01*
X131791059Y-46453493D01*
X131250000Y-45912434D01*
X130708941Y-46453493D01*
X129718317Y-46453493D01*
X129743326Y-46330000D01*
X129743326Y-45624369D01*
X130257425Y-45624369D01*
X130292558Y-46012252D01*
X130373403Y-46207432D01*
X130526507Y-46271059D01*
X131067566Y-45730000D01*
X131432434Y-45730000D01*
X131973493Y-46271059D01*
X132126597Y-46207432D01*
X132242575Y-45835631D01*
X132207442Y-45447748D01*
X132128594Y-45257389D01*
X137465000Y-45257389D01*
X137465000Y-46042611D01*
X137603920Y-46741008D01*
X137999530Y-47333081D01*
X138591603Y-47728691D01*
X139290000Y-47867611D01*
X139988397Y-47728691D01*
X140580470Y-47333081D01*
X140976080Y-46741008D01*
X141115000Y-46042611D01*
X141115000Y-45257389D01*
X147065000Y-45257389D01*
X147065000Y-46042611D01*
X147203920Y-46741008D01*
X147599530Y-47333081D01*
X148191603Y-47728691D01*
X148890000Y-47867611D01*
X149588397Y-47728691D01*
X150180470Y-47333081D01*
X150576080Y-46741008D01*
X150715000Y-46042611D01*
X150715000Y-45257389D01*
X150576080Y-44558992D01*
X150180470Y-43966919D01*
X149588397Y-43571309D01*
X148890000Y-43432389D01*
X148191603Y-43571309D01*
X147599530Y-43966919D01*
X147203920Y-44558992D01*
X147065000Y-45257389D01*
X141115000Y-45257389D01*
X140976080Y-44558992D01*
X140805026Y-44302991D01*
X142174822Y-44302991D01*
X142330541Y-44679857D01*
X142618626Y-44968446D01*
X142995220Y-45124822D01*
X143402991Y-45125178D01*
X143779857Y-44969459D01*
X143874913Y-44874569D01*
X143968626Y-44968446D01*
X144345220Y-45124822D01*
X144752991Y-45125178D01*
X145129857Y-44969459D01*
X145199869Y-44899569D01*
X145268626Y-44968446D01*
X145645220Y-45124822D01*
X146052991Y-45125178D01*
X146429857Y-44969459D01*
X146718446Y-44681374D01*
X146874822Y-44304780D01*
X146875178Y-43897009D01*
X146719459Y-43520143D01*
X146431374Y-43231554D01*
X146054780Y-43075178D01*
X145647009Y-43074822D01*
X145270143Y-43230541D01*
X145200131Y-43300431D01*
X145131374Y-43231554D01*
X144754780Y-43075178D01*
X144347009Y-43074822D01*
X143970143Y-43230541D01*
X143875087Y-43325431D01*
X143781374Y-43231554D01*
X143404780Y-43075178D01*
X142997009Y-43074822D01*
X142620143Y-43230541D01*
X142331554Y-43518626D01*
X142175178Y-43895220D01*
X142174822Y-44302991D01*
X140805026Y-44302991D01*
X140580470Y-43966919D01*
X139988397Y-43571309D01*
X139290000Y-43432389D01*
X138591603Y-43571309D01*
X137999530Y-43966919D01*
X137603920Y-44558992D01*
X137465000Y-45257389D01*
X132128594Y-45257389D01*
X132126597Y-45252568D01*
X131973493Y-45188941D01*
X131432434Y-45730000D01*
X131067566Y-45730000D01*
X130526507Y-45188941D01*
X130373403Y-45252568D01*
X130257425Y-45624369D01*
X129743326Y-45624369D01*
X129743326Y-45130000D01*
X129720090Y-45006507D01*
X130708941Y-45006507D01*
X131250000Y-45547566D01*
X131791059Y-45006507D01*
X131727432Y-44853403D01*
X131355631Y-44737425D01*
X130967748Y-44772558D01*
X130772568Y-44853403D01*
X130708941Y-45006507D01*
X129720090Y-45006507D01*
X129713691Y-44972504D01*
X129620611Y-44827854D01*
X129478588Y-44730814D01*
X129310000Y-44696674D01*
X128110000Y-44696674D01*
X127952504Y-44726309D01*
X127807854Y-44819389D01*
X127710814Y-44961412D01*
X127676674Y-45130000D01*
X127676674Y-45317967D01*
X127600861Y-45204505D01*
X127235885Y-44960636D01*
X126805366Y-44875000D01*
X125894634Y-44875000D01*
X125464115Y-44960636D01*
X125099139Y-45204505D01*
X124855270Y-45569481D01*
X124769634Y-46000000D01*
X121404877Y-46000000D01*
X121319241Y-45569481D01*
X121075372Y-45204505D01*
X120710396Y-44960636D01*
X120279877Y-44875000D01*
X119420123Y-44875000D01*
X118989604Y-44960636D01*
X118624628Y-45204505D01*
X118525000Y-45353609D01*
X118525000Y-42952991D01*
X130624822Y-42952991D01*
X130780541Y-43329857D01*
X131068626Y-43618446D01*
X131445220Y-43774822D01*
X131852991Y-43775178D01*
X132229857Y-43619459D01*
X132518446Y-43331374D01*
X132674822Y-42954780D01*
X132675178Y-42547009D01*
X132519459Y-42170143D01*
X132231374Y-41881554D01*
X131854780Y-41725178D01*
X131447009Y-41724822D01*
X131070143Y-41880541D01*
X130781554Y-42168626D01*
X130625178Y-42545220D01*
X130624822Y-42952991D01*
X118525000Y-42952991D01*
X118525000Y-39025000D01*
X121025519Y-39025000D01*
X120831554Y-39218626D01*
X120831554Y-39218626D01*
G37*
X120831554Y-39218626D02*
X120675178Y-39595220D01*
X120674822Y-40002991D01*
X120830541Y-40379857D01*
X121118626Y-40668446D01*
X121495220Y-40824822D01*
X121902991Y-40825178D01*
X122279857Y-40669459D01*
X122568446Y-40381374D01*
X122672825Y-40130000D01*
X127676674Y-40130000D01*
X127676674Y-41330000D01*
X127706309Y-41487496D01*
X127799389Y-41632146D01*
X127941412Y-41729186D01*
X128110000Y-41763326D01*
X129310000Y-41763326D01*
X129467496Y-41733691D01*
X129612146Y-41640611D01*
X129709186Y-41498588D01*
X129718317Y-41453493D01*
X130708941Y-41453493D01*
X130772568Y-41606597D01*
X131144369Y-41722575D01*
X131532252Y-41687442D01*
X131727432Y-41606597D01*
X131791059Y-41453493D01*
X131250000Y-40912434D01*
X130708941Y-41453493D01*
X129718317Y-41453493D01*
X129743326Y-41330000D01*
X129743326Y-40624369D01*
X130257425Y-40624369D01*
X130292558Y-41012252D01*
X130373403Y-41207432D01*
X130526507Y-41271059D01*
X131067566Y-40730000D01*
X131432434Y-40730000D01*
X131973493Y-41271059D01*
X132126597Y-41207432D01*
X132242575Y-40835631D01*
X132207442Y-40447748D01*
X132126597Y-40252568D01*
X131973493Y-40188941D01*
X131432434Y-40730000D01*
X131067566Y-40730000D01*
X130526507Y-40188941D01*
X130373403Y-40252568D01*
X130257425Y-40624369D01*
X129743326Y-40624369D01*
X129743326Y-40130000D01*
X129720090Y-40006507D01*
X130708941Y-40006507D01*
X131250000Y-40547566D01*
X131791059Y-40006507D01*
X131727432Y-39853403D01*
X131355631Y-39737425D01*
X130967748Y-39772558D01*
X130772568Y-39853403D01*
X130708941Y-40006507D01*
X129720090Y-40006507D01*
X129713691Y-39972504D01*
X129620611Y-39827854D01*
X129478588Y-39730814D01*
X129310000Y-39696674D01*
X128110000Y-39696674D01*
X127952504Y-39726309D01*
X127807854Y-39819389D01*
X127710814Y-39961412D01*
X127676674Y-40130000D01*
X122672825Y-40130000D01*
X122724822Y-40004780D01*
X122725178Y-39597009D01*
X122569459Y-39220143D01*
X122374657Y-39025000D01*
X155475000Y-39025000D01*
X155475000Y-136641935D01*
X155230850Y-136276539D01*
X154849653Y-136021831D01*
X154400000Y-135932389D01*
X153950347Y-136021831D01*
X153569150Y-136276539D01*
X153314442Y-136657736D01*
X153225000Y-137107389D01*
X153225000Y-139192611D01*
X153314442Y-139642264D01*
X153569150Y-140023461D01*
X153950347Y-140278169D01*
X154400000Y-140367611D01*
X154849653Y-140278169D01*
X155230850Y-140023461D01*
X155475000Y-139658065D01*
X155475000Y-143975000D01*
X153011561Y-143975000D01*
X153093094Y-143910660D01*
X153404366Y-143354211D01*
X153433711Y-143231443D01*
X153378817Y-142979000D01*
X151229000Y-142979000D01*
X151229000Y-142999000D01*
X150971000Y-142999000D01*
X150971000Y-142979000D01*
X148821183Y-142979000D01*
X148766289Y-143231443D01*
X148795634Y-143354211D01*
X149106906Y-143910660D01*
X149188439Y-143975000D01*
X138123729Y-143975000D01*
X138399074Y-143761761D01*
X138668134Y-143290894D01*
X138685870Y-143192189D01*
X138627755Y-142979000D01*
X137229000Y-142979000D01*
X137229000Y-142999000D01*
X136971000Y-142999000D01*
X136971000Y-142979000D01*
X135572245Y-142979000D01*
X135514130Y-143192189D01*
X135531866Y-143290894D01*
X135800926Y-143761761D01*
X136076271Y-143975000D01*
X124136641Y-143975000D01*
X124399074Y-143771761D01*
X124668134Y-143300894D01*
X124685870Y-143202189D01*
X124627755Y-142989000D01*
X123229000Y-142989000D01*
X123229000Y-143009000D01*
X122971000Y-143009000D01*
X122971000Y-142989000D01*
X121572245Y-142989000D01*
X121514130Y-143202189D01*
X121531866Y-143300894D01*
X121800926Y-143771761D01*
X122063359Y-143975000D01*
X118525000Y-143975000D01*
X118525000Y-142517811D01*
X121514130Y-142517811D01*
X121572245Y-142731000D01*
X122971000Y-142731000D01*
X122971000Y-141570112D01*
X123229000Y-141570112D01*
X123229000Y-142731000D01*
X124627755Y-142731000D01*
X124685870Y-142517811D01*
X124684074Y-142507811D01*
X135514130Y-142507811D01*
X135572245Y-142721000D01*
X136971000Y-142721000D01*
X136971000Y-141560112D01*
X137229000Y-141560112D01*
X137229000Y-142721000D01*
X138627755Y-142721000D01*
X138685870Y-142507811D01*
X138678817Y-142468557D01*
X148766289Y-142468557D01*
X148821183Y-142721000D01*
X150971000Y-142721000D01*
X150971000Y-141221000D01*
X151229000Y-141221000D01*
X151229000Y-142721000D01*
X153378817Y-142721000D01*
X153433711Y-142468557D01*
X153404366Y-142345789D01*
X153093094Y-141789340D01*
X152592572Y-141394366D01*
X151979000Y-141221000D01*
X151229000Y-141221000D01*
X150971000Y-141221000D01*
X150221000Y-141221000D01*
X149607428Y-141394366D01*
X149106906Y-141789340D01*
X148795634Y-142345789D01*
X148766289Y-142468557D01*
X138678817Y-142468557D01*
X138668134Y-142409106D01*
X138399074Y-141938239D01*
X137970302Y-141606180D01*
X137447095Y-141463481D01*
X137229000Y-141560112D01*
X136971000Y-141560112D01*
X136752905Y-141463481D01*
X136229698Y-141606180D01*
X135800926Y-141938239D01*
X135531866Y-142409106D01*
X135514130Y-142507811D01*
X124684074Y-142507811D01*
X124668134Y-142419106D01*
X124399074Y-141948239D01*
X123970302Y-141616180D01*
X123447095Y-141473481D01*
X123229000Y-141570112D01*
X122971000Y-141570112D01*
X122752905Y-141473481D01*
X122229698Y-141616180D01*
X121800926Y-141948239D01*
X121531866Y-142419106D01*
X121514130Y-142517811D01*
X118525000Y-142517811D01*
X118525000Y-137117389D01*
X118625000Y-137117389D01*
X118625000Y-139202611D01*
X118714442Y-139652264D01*
X118969150Y-140033461D01*
X119350347Y-140288169D01*
X119800000Y-140377611D01*
X120249653Y-140288169D01*
X120630850Y-140033461D01*
X120885558Y-139652264D01*
X120975000Y-139202611D01*
X120975000Y-137117389D01*
X126825000Y-137117389D01*
X126825000Y-139202611D01*
X126914442Y-139652264D01*
X127169150Y-140033461D01*
X127550347Y-140288169D01*
X128000000Y-140377611D01*
X128449653Y-140288169D01*
X128830850Y-140033461D01*
X129085558Y-139652264D01*
X129175000Y-139202611D01*
X129175000Y-137117389D01*
X129173011Y-137107389D01*
X132625000Y-137107389D01*
X132625000Y-139192611D01*
X132714442Y-139642264D01*
X132969150Y-140023461D01*
X133350347Y-140278169D01*
X133800000Y-140367611D01*
X134249653Y-140278169D01*
X134630850Y-140023461D01*
X134885558Y-139642264D01*
X134975000Y-139192611D01*
X134975000Y-137107389D01*
X140825000Y-137107389D01*
X140825000Y-139192611D01*
X140914442Y-139642264D01*
X141169150Y-140023461D01*
X141550347Y-140278169D01*
X142000000Y-140367611D01*
X142449653Y-140278169D01*
X142830850Y-140023461D01*
X143085558Y-139642264D01*
X143175000Y-139192611D01*
X143175000Y-137107389D01*
X145025000Y-137107389D01*
X145025000Y-139192611D01*
X145114442Y-139642264D01*
X145369150Y-140023461D01*
X145750347Y-140278169D01*
X146200000Y-140367611D01*
X146649653Y-140278169D01*
X147030850Y-140023461D01*
X147285558Y-139642264D01*
X147375000Y-139192611D01*
X147375000Y-137107389D01*
X147285558Y-136657736D01*
X147030850Y-136276539D01*
X146649653Y-136021831D01*
X146200000Y-135932389D01*
X145750347Y-136021831D01*
X145369150Y-136276539D01*
X145114442Y-136657736D01*
X145025000Y-137107389D01*
X143175000Y-137107389D01*
X143085558Y-136657736D01*
X142830850Y-136276539D01*
X142449653Y-136021831D01*
X142000000Y-135932389D01*
X141550347Y-136021831D01*
X141169150Y-136276539D01*
X140914442Y-136657736D01*
X140825000Y-137107389D01*
X134975000Y-137107389D01*
X134885558Y-136657736D01*
X134630850Y-136276539D01*
X134249653Y-136021831D01*
X133800000Y-135932389D01*
X133350347Y-136021831D01*
X132969150Y-136276539D01*
X132714442Y-136657736D01*
X132625000Y-137107389D01*
X129173011Y-137107389D01*
X129085558Y-136667736D01*
X128830850Y-136286539D01*
X128449653Y-136031831D01*
X128000000Y-135942389D01*
X127550347Y-136031831D01*
X127169150Y-136286539D01*
X126914442Y-136667736D01*
X126825000Y-137117389D01*
X120975000Y-137117389D01*
X120885558Y-136667736D01*
X120630850Y-136286539D01*
X120249653Y-136031831D01*
X119800000Y-135942389D01*
X119350347Y-136031831D01*
X118969150Y-136286539D01*
X118714442Y-136667736D01*
X118625000Y-137117389D01*
X118525000Y-137117389D01*
X118525000Y-133841443D01*
X120766289Y-133841443D01*
X120795634Y-133964211D01*
X121106906Y-134520660D01*
X121607428Y-134915634D01*
X122221000Y-135089000D01*
X122971000Y-135089000D01*
X122971000Y-133589000D01*
X123229000Y-133589000D01*
X123229000Y-135089000D01*
X123979000Y-135089000D01*
X124592572Y-134915634D01*
X125093094Y-134520660D01*
X125404366Y-133964211D01*
X125433711Y-133841443D01*
X125431537Y-133831443D01*
X134766289Y-133831443D01*
X134795634Y-133954211D01*
X135106906Y-134510660D01*
X135607428Y-134905634D01*
X136221000Y-135079000D01*
X136971000Y-135079000D01*
X136971000Y-133579000D01*
X137229000Y-133579000D01*
X137229000Y-135079000D01*
X137979000Y-135079000D01*
X138592572Y-134905634D01*
X139093094Y-134510660D01*
X139404366Y-133954211D01*
X139433711Y-133831443D01*
X139384034Y-133602991D01*
X146774822Y-133602991D01*
X146930541Y-133979857D01*
X147218626Y-134268446D01*
X147595220Y-134424822D01*
X148002991Y-134425178D01*
X148379857Y-134269459D01*
X148668446Y-133981374D01*
X148747002Y-133792189D01*
X149514130Y-133792189D01*
X149531866Y-133890894D01*
X149800926Y-134361761D01*
X150229698Y-134693820D01*
X150752905Y-134836519D01*
X150971000Y-134739888D01*
X150971000Y-133579000D01*
X151229000Y-133579000D01*
X151229000Y-134739888D01*
X151447095Y-134836519D01*
X151970302Y-134693820D01*
X152399074Y-134361761D01*
X152668134Y-133890894D01*
X152685870Y-133792189D01*
X152627755Y-133579000D01*
X151229000Y-133579000D01*
X150971000Y-133579000D01*
X149572245Y-133579000D01*
X149514130Y-133792189D01*
X148747002Y-133792189D01*
X148824822Y-133604780D01*
X148825178Y-133197009D01*
X148788322Y-133107811D01*
X149514130Y-133107811D01*
X149572245Y-133321000D01*
X150971000Y-133321000D01*
X150971000Y-133301000D01*
X151229000Y-133301000D01*
X151229000Y-133321000D01*
X152627755Y-133321000D01*
X152685870Y-133107811D01*
X152668134Y-133009106D01*
X152399074Y-132538239D01*
X151970302Y-132206180D01*
X151447095Y-132063481D01*
X151229002Y-132160111D01*
X151229002Y-132158540D01*
X151291356Y-132096295D01*
X151424848Y-131774812D01*
X151425151Y-131426715D01*
X151292221Y-131105000D01*
X151046295Y-130858644D01*
X150724812Y-130725152D01*
X150376715Y-130724849D01*
X150055000Y-130857779D01*
X149808644Y-131103705D01*
X149675152Y-131425188D01*
X149674849Y-131773285D01*
X149807779Y-132095000D01*
X150053705Y-132341356D01*
X150054647Y-132341747D01*
X149800926Y-132538239D01*
X149531866Y-133009106D01*
X149514130Y-133107811D01*
X148788322Y-133107811D01*
X148669459Y-132820143D01*
X148381374Y-132531554D01*
X148004780Y-132375178D01*
X147597009Y-132374822D01*
X147220143Y-132530541D01*
X146931554Y-132818626D01*
X146775178Y-133195220D01*
X146774822Y-133602991D01*
X139384034Y-133602991D01*
X139378817Y-133579000D01*
X137229000Y-133579000D01*
X136971000Y-133579000D01*
X134821183Y-133579000D01*
X134766289Y-133831443D01*
X125431537Y-133831443D01*
X125378817Y-133589000D01*
X123229000Y-133589000D01*
X122971000Y-133589000D01*
X120821183Y-133589000D01*
X120766289Y-133841443D01*
X118525000Y-133841443D01*
X118525000Y-133078557D01*
X120766289Y-133078557D01*
X120821183Y-133331000D01*
X122971000Y-133331000D01*
X122971000Y-131831000D01*
X123229000Y-131831000D01*
X123229000Y-133331000D01*
X125378817Y-133331000D01*
X125433711Y-133078557D01*
X125431321Y-133068557D01*
X134766289Y-133068557D01*
X134821183Y-133321000D01*
X136971000Y-133321000D01*
X136971000Y-131821000D01*
X137229000Y-131821000D01*
X137229000Y-133321000D01*
X139378817Y-133321000D01*
X139433711Y-133068557D01*
X139404366Y-132945789D01*
X139093094Y-132389340D01*
X138592572Y-131994366D01*
X137979000Y-131821000D01*
X137229000Y-131821000D01*
X136971000Y-131821000D01*
X136221000Y-131821000D01*
X135607428Y-131994366D01*
X135106906Y-132389340D01*
X134795634Y-132945789D01*
X134766289Y-133068557D01*
X125431321Y-133068557D01*
X125404366Y-132955789D01*
X125093094Y-132399340D01*
X124592572Y-132004366D01*
X123979000Y-131831000D01*
X123229000Y-131831000D01*
X122971000Y-131831000D01*
X122221000Y-131831000D01*
X121607428Y-132004366D01*
X121106906Y-132399340D01*
X120795634Y-132955789D01*
X120766289Y-133078557D01*
X118525000Y-133078557D01*
X118525000Y-128473285D01*
X129024849Y-128473285D01*
X129157779Y-128795000D01*
X129403705Y-129041356D01*
X129725188Y-129174848D01*
X130073285Y-129175151D01*
X130395000Y-129042221D01*
X130641356Y-128796295D01*
X130668752Y-128730318D01*
X130730541Y-128879857D01*
X131018626Y-129168446D01*
X131395220Y-129324822D01*
X131802991Y-129325178D01*
X132179857Y-129169459D01*
X132468446Y-128881374D01*
X132471804Y-128873285D01*
X134924849Y-128873285D01*
X135057779Y-129195000D01*
X135303705Y-129441356D01*
X135625188Y-129574848D01*
X135973285Y-129575151D01*
X136295000Y-129442221D01*
X136541356Y-129196295D01*
X136661170Y-128907751D01*
X140710387Y-128907751D01*
X140866106Y-129284617D01*
X141154191Y-129573206D01*
X141530785Y-129729582D01*
X141938556Y-129729938D01*
X142315422Y-129574219D01*
X142604011Y-129286134D01*
X142760387Y-128909540D01*
X142760743Y-128501769D01*
X142605024Y-128124903D01*
X142316939Y-127836314D01*
X141940345Y-127679938D01*
X141532574Y-127679582D01*
X141155708Y-127835301D01*
X140867119Y-128123386D01*
X140710743Y-128499980D01*
X140710387Y-128907751D01*
X136661170Y-128907751D01*
X136674848Y-128874812D01*
X136675151Y-128526715D01*
X136542221Y-128205000D01*
X136296295Y-127958644D01*
X135974812Y-127825152D01*
X135626715Y-127824849D01*
X135305000Y-127957779D01*
X135058644Y-128203705D01*
X134925152Y-128525188D01*
X134924849Y-128873285D01*
X132471804Y-128873285D01*
X132624822Y-128504780D01*
X132625178Y-128097009D01*
X132469459Y-127720143D01*
X132181374Y-127431554D01*
X131804780Y-127275178D01*
X131397009Y-127274822D01*
X131020143Y-127430541D01*
X130731554Y-127718626D01*
X130668889Y-127869541D01*
X130642221Y-127805000D01*
X130396295Y-127558644D01*
X130074812Y-127425152D01*
X129726715Y-127424849D01*
X129405000Y-127557779D01*
X129158644Y-127803705D01*
X129025152Y-128125188D01*
X129024849Y-128473285D01*
X118525000Y-128473285D01*
X118525000Y-126073317D01*
X140849117Y-126073317D01*
X140946675Y-126254929D01*
X141418483Y-126417011D01*
X141916403Y-126386202D01*
X142233325Y-126254929D01*
X142330883Y-126073317D01*
X141590000Y-125332434D01*
X140849117Y-126073317D01*
X118525000Y-126073317D01*
X118525000Y-124978483D01*
X140322989Y-124978483D01*
X140353798Y-125476403D01*
X140485071Y-125793325D01*
X140666683Y-125890883D01*
X141407566Y-125150000D01*
X140666683Y-124409117D01*
X140485071Y-124506675D01*
X140322989Y-124978483D01*
X118525000Y-124978483D01*
X118525000Y-124226683D01*
X140849117Y-124226683D01*
X141590000Y-124967566D01*
X142330883Y-124226683D01*
X142233325Y-124045071D01*
X141761517Y-123882989D01*
X141263597Y-123913798D01*
X140946675Y-124045071D01*
X140849117Y-124226683D01*
X118525000Y-124226683D01*
X118525000Y-122692189D01*
X121514130Y-122692189D01*
X121531866Y-122790894D01*
X121800926Y-123261761D01*
X122229698Y-123593820D01*
X122752905Y-123736519D01*
X122971000Y-123639888D01*
X122971000Y-122479000D01*
X123229000Y-122479000D01*
X123229000Y-123639888D01*
X123447095Y-123736519D01*
X123970302Y-123593820D01*
X124399074Y-123261761D01*
X124668134Y-122790894D01*
X124685870Y-122692189D01*
X124627755Y-122479000D01*
X123229000Y-122479000D01*
X122971000Y-122479000D01*
X121572245Y-122479000D01*
X121514130Y-122692189D01*
X118525000Y-122692189D01*
X118525000Y-122007811D01*
X121514130Y-122007811D01*
X121572245Y-122221000D01*
X122971000Y-122221000D01*
X122971000Y-121060112D01*
X123229000Y-121060112D01*
X123229000Y-122221000D01*
X124627755Y-122221000D01*
X124685870Y-122007811D01*
X124668134Y-121909106D01*
X124399074Y-121438239D01*
X123970302Y-121106180D01*
X123447095Y-120963481D01*
X123229000Y-121060112D01*
X122971000Y-121060112D01*
X122752905Y-120963481D01*
X122229698Y-121106180D01*
X121800926Y-121438239D01*
X121531866Y-121909106D01*
X121514130Y-122007811D01*
X118525000Y-122007811D01*
X118525000Y-116607389D01*
X118625000Y-116607389D01*
X118625000Y-118692611D01*
X118714442Y-119142264D01*
X118969150Y-119523461D01*
X119350347Y-119778169D01*
X119800000Y-119867611D01*
X120249653Y-119778169D01*
X120630850Y-119523461D01*
X120885558Y-119142264D01*
X120975000Y-118692611D01*
X120975000Y-116607389D01*
X126825000Y-116607389D01*
X126825000Y-118692611D01*
X126914442Y-119142264D01*
X127169150Y-119523461D01*
X127550347Y-119778169D01*
X128000000Y-119867611D01*
X128449653Y-119778169D01*
X128830850Y-119523461D01*
X129085558Y-119142264D01*
X129175000Y-118692611D01*
X129175000Y-116607389D01*
X129085558Y-116157736D01*
X128830850Y-115776539D01*
X128449653Y-115521831D01*
X128000000Y-115432389D01*
X127550347Y-115521831D01*
X127169150Y-115776539D01*
X126914442Y-116157736D01*
X126825000Y-116607389D01*
X120975000Y-116607389D01*
X120885558Y-116157736D01*
X120630850Y-115776539D01*
X120249653Y-115521831D01*
X119800000Y-115432389D01*
X119350347Y-115521831D01*
X118969150Y-115776539D01*
X118714442Y-116157736D01*
X118625000Y-116607389D01*
X118525000Y-116607389D01*
X118525000Y-113331443D01*
X120766289Y-113331443D01*
X120795634Y-113454211D01*
X121106906Y-114010660D01*
X121607428Y-114405634D01*
X122221000Y-114579000D01*
X122971000Y-114579000D01*
X122971000Y-113079000D01*
X123229000Y-113079000D01*
X123229000Y-114579000D01*
X123979000Y-114579000D01*
X124592572Y-114405634D01*
X125093094Y-114010660D01*
X125404366Y-113454211D01*
X125433711Y-113331443D01*
X125378817Y-113079000D01*
X123229000Y-113079000D01*
X122971000Y-113079000D01*
X120821183Y-113079000D01*
X120766289Y-113331443D01*
X118525000Y-113331443D01*
X118525000Y-112568557D01*
X120766289Y-112568557D01*
X120821183Y-112821000D01*
X122971000Y-112821000D01*
X122971000Y-111321000D01*
X123229000Y-111321000D01*
X123229000Y-112821000D01*
X125378817Y-112821000D01*
X125433711Y-112568557D01*
X125404366Y-112445789D01*
X125093094Y-111889340D01*
X124592572Y-111494366D01*
X123979000Y-111321000D01*
X123229000Y-111321000D01*
X122971000Y-111321000D01*
X122221000Y-111321000D01*
X121607428Y-111494366D01*
X121106906Y-111889340D01*
X120795634Y-112445789D01*
X120766289Y-112568557D01*
X118525000Y-112568557D01*
X118525000Y-109273285D01*
X126074849Y-109273285D01*
X126207779Y-109595000D01*
X126453705Y-109841356D01*
X126775188Y-109974848D01*
X127123285Y-109975151D01*
X127445000Y-109842221D01*
X127691356Y-109596295D01*
X127824848Y-109274812D01*
X127825151Y-108926715D01*
X127692221Y-108605000D01*
X127446295Y-108358644D01*
X127124812Y-108225152D01*
X126776715Y-108224849D01*
X126455000Y-108357779D01*
X126208644Y-108603705D01*
X126075152Y-108925188D01*
X126074849Y-109273285D01*
X118525000Y-109273285D01*
X118525000Y-105423285D01*
X119524851Y-105423285D01*
X119657781Y-105745000D01*
X119903707Y-105991356D01*
X120225190Y-106124848D01*
X120573287Y-106125151D01*
X120895002Y-105992221D01*
X121141358Y-105746295D01*
X121274850Y-105424812D01*
X121275153Y-105076715D01*
X121142223Y-104755000D01*
X120896297Y-104508644D01*
X120574814Y-104375152D01*
X120226717Y-104374849D01*
X119905002Y-104507779D01*
X119658646Y-104753705D01*
X119525154Y-105075188D01*
X119524851Y-105423285D01*
X118525000Y-105423285D01*
X118525000Y-101954943D01*
X125440216Y-101954943D01*
X125595935Y-102331809D01*
X125884020Y-102620398D01*
X126260614Y-102776774D01*
X126668385Y-102777130D01*
X127045251Y-102621411D01*
X127333840Y-102333326D01*
X127490216Y-101956732D01*
X127490427Y-101715551D01*
X128150000Y-102375124D01*
X128150000Y-112600000D01*
X128191866Y-112810476D01*
X128311091Y-112988909D01*
X129600000Y-114277817D01*
X129600000Y-122150000D01*
X129641866Y-122360476D01*
X129761091Y-122538909D01*
X130911089Y-123688906D01*
X130911091Y-123688909D01*
X131002510Y-123749993D01*
X131089524Y-123808134D01*
X131300000Y-123850001D01*
X131300005Y-123850000D01*
X143832001Y-123850000D01*
X143354571Y-124047271D01*
X142988556Y-124412647D01*
X142822063Y-124813606D01*
X142694929Y-124506675D01*
X142513317Y-124409117D01*
X141772434Y-125150000D01*
X142513317Y-125890883D01*
X142694929Y-125793325D01*
X142810368Y-125457292D01*
X142987271Y-125885429D01*
X143352647Y-126251444D01*
X143830279Y-126449774D01*
X144347452Y-126450226D01*
X144825429Y-126252729D01*
X145191444Y-125887353D01*
X145340121Y-125529300D01*
X145487271Y-125885429D01*
X145852647Y-126251444D01*
X146330279Y-126449774D01*
X146847452Y-126450226D01*
X147325429Y-126252729D01*
X147691444Y-125887353D01*
X147889774Y-125409721D01*
X147890226Y-124892548D01*
X147797630Y-124668449D01*
X147818080Y-124688899D01*
X147818082Y-124688902D01*
X147872324Y-124725145D01*
X147996515Y-124808127D01*
X148206991Y-124849994D01*
X148206996Y-124849993D01*
X150850001Y-124849993D01*
X151060477Y-124808127D01*
X151185044Y-124724894D01*
X151473285Y-124725145D01*
X151795000Y-124592215D01*
X152041356Y-124346289D01*
X152174848Y-124024806D01*
X152175151Y-123676709D01*
X152042221Y-123354994D01*
X151796295Y-123108638D01*
X151474812Y-122975146D01*
X151126715Y-122974843D01*
X150805000Y-123107773D01*
X150558644Y-123353699D01*
X150425152Y-123675182D01*
X150425087Y-123749993D01*
X149249707Y-123749993D01*
X149318446Y-123681374D01*
X149474822Y-123304780D01*
X149475178Y-122897009D01*
X149319459Y-122520143D01*
X149031374Y-122231554D01*
X148654780Y-122075178D01*
X148247009Y-122074822D01*
X147870143Y-122230541D01*
X147581554Y-122518626D01*
X147457100Y-122818343D01*
X147417474Y-122791866D01*
X147206998Y-122750000D01*
X131527817Y-122750000D01*
X130700000Y-121922182D01*
X130700000Y-121352991D01*
X130974789Y-121352991D01*
X131130508Y-121729857D01*
X131418593Y-122018446D01*
X131795187Y-122174822D01*
X132202958Y-122175178D01*
X132579824Y-122019459D01*
X132868413Y-121731374D01*
X133004769Y-121402991D01*
X133374822Y-121402991D01*
X133530541Y-121779857D01*
X133818626Y-122068446D01*
X134195220Y-122224822D01*
X134602991Y-122225178D01*
X134979857Y-122069459D01*
X135268446Y-121781374D01*
X135424822Y-121404780D01*
X135425178Y-120997009D01*
X135269459Y-120620143D01*
X134981374Y-120331554D01*
X134604780Y-120175178D01*
X134197009Y-120174822D01*
X133820143Y-120330541D01*
X133531554Y-120618626D01*
X133375178Y-120995220D01*
X133374822Y-121402991D01*
X133004769Y-121402991D01*
X133024789Y-121354780D01*
X133025145Y-120947009D01*
X132869426Y-120570143D01*
X132581341Y-120281554D01*
X132204747Y-120125178D01*
X131796976Y-120124822D01*
X131420110Y-120280541D01*
X131131521Y-120568626D01*
X130975145Y-120945220D01*
X130974789Y-121352991D01*
X130700000Y-121352991D01*
X130700000Y-114050005D01*
X130700001Y-114050000D01*
X130658134Y-113839524D01*
X130592540Y-113741356D01*
X130538909Y-113661091D01*
X130538906Y-113661089D01*
X129250000Y-112372182D01*
X129250000Y-111073285D01*
X129424849Y-111073285D01*
X129557779Y-111395000D01*
X129803705Y-111641356D01*
X130125188Y-111774848D01*
X130473285Y-111775151D01*
X130795000Y-111642221D01*
X130859322Y-111578011D01*
X132724822Y-111578011D01*
X132880541Y-111954877D01*
X133168626Y-112243466D01*
X133545220Y-112399842D01*
X133952991Y-112400198D01*
X134329857Y-112244479D01*
X134618446Y-111956394D01*
X134774822Y-111579800D01*
X134775178Y-111172029D01*
X134619459Y-110795163D01*
X134331374Y-110506574D01*
X133954780Y-110350198D01*
X133547009Y-110349842D01*
X133170143Y-110505561D01*
X132881554Y-110793646D01*
X132725178Y-111170240D01*
X132724822Y-111578011D01*
X130859322Y-111578011D01*
X131041356Y-111396295D01*
X131174848Y-111074812D01*
X131175151Y-110726715D01*
X131042221Y-110405000D01*
X130850000Y-110212443D01*
X130850000Y-108202991D01*
X131031064Y-108202991D01*
X131186783Y-108579857D01*
X131474868Y-108868446D01*
X131851462Y-109024822D01*
X132259233Y-109025178D01*
X132636099Y-108869459D01*
X132725212Y-108780501D01*
X132660929Y-108935312D01*
X132660626Y-109283409D01*
X132793556Y-109605124D01*
X133039482Y-109851480D01*
X133360965Y-109984972D01*
X133709062Y-109985275D01*
X134030777Y-109852345D01*
X134223334Y-109660124D01*
X134782306Y-109660124D01*
X138270330Y-113148147D01*
X138005000Y-113257779D01*
X137758644Y-113503705D01*
X137625152Y-113825188D01*
X137624849Y-114173285D01*
X137757779Y-114495000D01*
X138003705Y-114741356D01*
X138325188Y-114874848D01*
X138673285Y-114875151D01*
X138995000Y-114742221D01*
X139241356Y-114496295D01*
X139352005Y-114229823D01*
X140974999Y-115852816D01*
X140974999Y-116557374D01*
X140580470Y-115966919D01*
X139988397Y-115571309D01*
X139290000Y-115432389D01*
X138591603Y-115571309D01*
X137999530Y-115966919D01*
X137603920Y-116558992D01*
X137465000Y-117257389D01*
X137465000Y-118042611D01*
X137603920Y-118741008D01*
X137677934Y-118851777D01*
X137481943Y-118932759D01*
X137235587Y-119178685D01*
X137102095Y-119500168D01*
X137101792Y-119848265D01*
X137234722Y-120169980D01*
X137480648Y-120416336D01*
X137802131Y-120549828D01*
X138150228Y-120550131D01*
X138471943Y-120417201D01*
X138718299Y-120171275D01*
X138851791Y-119849792D01*
X138851851Y-119780458D01*
X139290000Y-119867611D01*
X139988397Y-119728691D01*
X140580470Y-119333081D01*
X140974999Y-118742626D01*
X140974999Y-121468001D01*
X141016865Y-121678477D01*
X141136090Y-121856910D01*
X141693090Y-122413910D01*
X141871523Y-122533135D01*
X142081999Y-122575001D01*
X146874999Y-122575001D01*
X147085475Y-122533135D01*
X147263908Y-122413910D01*
X148027818Y-121650000D01*
X149172182Y-121650000D01*
X149936092Y-122413910D01*
X150114525Y-122533135D01*
X150325001Y-122575001D01*
X152297183Y-122575001D01*
X153800000Y-124077817D01*
X153800000Y-133572182D01*
X151522182Y-135850000D01*
X150187317Y-135850000D01*
X149996295Y-135658644D01*
X149674812Y-135525152D01*
X149326715Y-135524849D01*
X149005000Y-135657779D01*
X148758644Y-135903705D01*
X148625152Y-136225188D01*
X148624849Y-136573285D01*
X148757779Y-136895000D01*
X149003705Y-137141356D01*
X149325188Y-137274848D01*
X149673285Y-137275151D01*
X149995000Y-137142221D01*
X150187557Y-136950000D01*
X151750000Y-136950000D01*
X151960476Y-136908134D01*
X152138909Y-136788909D01*
X154738909Y-134188909D01*
X154858134Y-134010476D01*
X154900000Y-133800000D01*
X154900000Y-123850000D01*
X154858134Y-123639524D01*
X154738909Y-123461091D01*
X154738906Y-123461089D01*
X152913910Y-121636092D01*
X152735477Y-121516867D01*
X152525001Y-121475001D01*
X150552819Y-121475001D01*
X149788909Y-120711091D01*
X149610476Y-120591866D01*
X149400000Y-120550000D01*
X147800000Y-120550000D01*
X147589524Y-120591866D01*
X147411091Y-120711091D01*
X146647181Y-121475001D01*
X142309817Y-121475001D01*
X142074999Y-121240183D01*
X142074999Y-115625004D01*
X142075000Y-115624999D01*
X142059636Y-115547761D01*
X142245220Y-115624822D01*
X142652991Y-115625178D01*
X143029857Y-115469459D01*
X143318446Y-115181374D01*
X143474822Y-114804780D01*
X143475178Y-114397009D01*
X143319459Y-114020143D01*
X143031374Y-113731554D01*
X142654780Y-113575178D01*
X142247009Y-113574822D01*
X141870143Y-113730541D01*
X141581554Y-114018626D01*
X141425178Y-114395220D01*
X141424871Y-114747054D01*
X135399033Y-108721215D01*
X135220600Y-108601990D01*
X135010124Y-108560124D01*
X134223094Y-108560124D01*
X134032072Y-108368768D01*
X133710589Y-108235276D01*
X133362492Y-108234973D01*
X133040777Y-108367903D01*
X132993897Y-108414701D01*
X133081064Y-108204780D01*
X133081420Y-107797009D01*
X132925701Y-107420143D01*
X132637616Y-107131554D01*
X132261022Y-106975178D01*
X131853251Y-106974822D01*
X131476385Y-107130541D01*
X131187796Y-107418626D01*
X131031420Y-107795220D01*
X131031064Y-108202991D01*
X130850000Y-108202991D01*
X130850000Y-104852991D01*
X131374822Y-104852991D01*
X131530541Y-105229857D01*
X131685366Y-105384953D01*
X131566419Y-105503693D01*
X131432927Y-105825176D01*
X131432624Y-106173273D01*
X131565554Y-106494988D01*
X131811480Y-106741344D01*
X132132963Y-106874836D01*
X132481060Y-106875139D01*
X132802775Y-106742209D01*
X133049131Y-106496283D01*
X133182623Y-106174800D01*
X133182704Y-106081138D01*
X133457688Y-106081138D01*
X133590618Y-106402853D01*
X133836544Y-106649209D01*
X134158027Y-106782701D01*
X134506124Y-106783004D01*
X134827839Y-106650074D01*
X135074195Y-106404148D01*
X135207687Y-106082665D01*
X135207990Y-105734568D01*
X135075060Y-105412853D01*
X134829134Y-105166497D01*
X134507651Y-105033005D01*
X134159554Y-105032702D01*
X133837839Y-105165632D01*
X133591483Y-105411558D01*
X133457991Y-105733041D01*
X133457688Y-106081138D01*
X133182704Y-106081138D01*
X133182926Y-105826703D01*
X133049996Y-105504988D01*
X133022223Y-105477167D01*
X133268446Y-105231374D01*
X133424822Y-104854780D01*
X133425178Y-104447009D01*
X133269459Y-104070143D01*
X132981374Y-103781554D01*
X132604780Y-103625178D01*
X132197009Y-103624822D01*
X131820143Y-103780541D01*
X131531554Y-104068626D01*
X131375178Y-104445220D01*
X131374822Y-104852991D01*
X130850000Y-104852991D01*
X130850000Y-103336624D01*
X133019656Y-103336624D01*
X133175375Y-103713490D01*
X133463460Y-104002079D01*
X133840054Y-104158455D01*
X134247825Y-104158811D01*
X134624691Y-104003092D01*
X134913280Y-103715007D01*
X135069656Y-103338413D01*
X135070012Y-102930642D01*
X134914293Y-102553776D01*
X134626208Y-102265187D01*
X134249614Y-102108811D01*
X133841843Y-102108455D01*
X133464977Y-102264174D01*
X133176388Y-102552259D01*
X133020012Y-102928853D01*
X133019656Y-103336624D01*
X130850000Y-103336624D01*
X130850000Y-103327818D01*
X133277818Y-100900000D01*
X138300000Y-100900000D01*
X138300000Y-106900000D01*
X138341866Y-107110476D01*
X138461091Y-107288909D01*
X143700000Y-112527818D01*
X143700000Y-119112683D01*
X143508644Y-119303705D01*
X143375152Y-119625188D01*
X143374849Y-119973285D01*
X143507779Y-120295000D01*
X143753705Y-120541356D01*
X144075188Y-120674848D01*
X144423285Y-120675151D01*
X144745000Y-120542221D01*
X144991356Y-120296295D01*
X145124848Y-119974812D01*
X145125151Y-119626715D01*
X144992221Y-119305000D01*
X144800000Y-119112443D01*
X144800000Y-117257389D01*
X147065000Y-117257389D01*
X147065000Y-118042611D01*
X147203920Y-118741008D01*
X147599530Y-119333081D01*
X148191603Y-119728691D01*
X148890000Y-119867611D01*
X149588397Y-119728691D01*
X150180470Y-119333081D01*
X150576080Y-118741008D01*
X150715000Y-118042611D01*
X150715000Y-117257389D01*
X150576080Y-116558992D01*
X150180470Y-115966919D01*
X149588397Y-115571309D01*
X148890000Y-115432389D01*
X148191603Y-115571309D01*
X147599530Y-115966919D01*
X147203920Y-116558992D01*
X147065000Y-117257389D01*
X144800000Y-117257389D01*
X144800000Y-112300000D01*
X144758134Y-112089524D01*
X144638909Y-111911091D01*
X144580809Y-111852991D01*
X147124822Y-111852991D01*
X147280541Y-112229857D01*
X147568626Y-112518446D01*
X147945220Y-112674822D01*
X148352991Y-112675178D01*
X148729857Y-112519459D01*
X149018446Y-112231374D01*
X149174822Y-111854780D01*
X149175178Y-111447009D01*
X149019459Y-111070143D01*
X148731374Y-110781554D01*
X148354780Y-110625178D01*
X147947009Y-110624822D01*
X147570143Y-110780541D01*
X147281554Y-111068626D01*
X147125178Y-111445220D01*
X147124822Y-111852991D01*
X144580809Y-111852991D01*
X143301103Y-110573285D01*
X145474849Y-110573285D01*
X145607779Y-110895000D01*
X145853705Y-111141356D01*
X146175188Y-111274848D01*
X146523285Y-111275151D01*
X146845000Y-111142221D01*
X147091356Y-110896295D01*
X147224848Y-110574812D01*
X147225151Y-110226715D01*
X147092221Y-109905000D01*
X146846295Y-109658644D01*
X146524812Y-109525152D01*
X146176715Y-109524849D01*
X145855000Y-109657779D01*
X145608644Y-109903705D01*
X145475152Y-110225188D01*
X145474849Y-110573285D01*
X143301103Y-110573285D01*
X139400000Y-106672182D01*
X139400000Y-102073317D01*
X140849117Y-102073317D01*
X140946675Y-102254929D01*
X141418483Y-102417011D01*
X141916403Y-102386202D01*
X142233325Y-102254929D01*
X142330883Y-102073317D01*
X141590000Y-101332434D01*
X140849117Y-102073317D01*
X139400000Y-102073317D01*
X139400000Y-101127818D01*
X139549335Y-100978483D01*
X140322989Y-100978483D01*
X140353798Y-101476403D01*
X140485071Y-101793325D01*
X140666683Y-101890883D01*
X141407566Y-101150000D01*
X140666683Y-100409117D01*
X140485071Y-100506675D01*
X140322989Y-100978483D01*
X139549335Y-100978483D01*
X140627818Y-99900000D01*
X141486594Y-99900000D01*
X141263597Y-99913798D01*
X140946675Y-100045071D01*
X140849117Y-100226683D01*
X141590000Y-100967566D01*
X142330883Y-100226683D01*
X142233325Y-100045071D01*
X141811035Y-99900000D01*
X142362683Y-99900000D01*
X142553705Y-100091356D01*
X142875188Y-100224848D01*
X143176421Y-100225110D01*
X142988556Y-100412647D01*
X142822063Y-100813606D01*
X142694929Y-100506675D01*
X142513317Y-100409117D01*
X141772434Y-101150000D01*
X142513317Y-101890883D01*
X142694929Y-101793325D01*
X142810368Y-101457292D01*
X142987271Y-101885429D01*
X143352647Y-102251444D01*
X143830279Y-102449774D01*
X144347452Y-102450226D01*
X144825429Y-102252729D01*
X145191444Y-101887353D01*
X145340121Y-101529300D01*
X145487271Y-101885429D01*
X145852647Y-102251444D01*
X146330279Y-102449774D01*
X146847452Y-102450226D01*
X147325429Y-102252729D01*
X147691444Y-101887353D01*
X147889774Y-101409721D01*
X147890226Y-100892548D01*
X147692729Y-100414571D01*
X147327353Y-100048556D01*
X146849721Y-99850226D01*
X146332548Y-99849774D01*
X145854571Y-100047271D01*
X145488556Y-100412647D01*
X145339879Y-100770700D01*
X145192729Y-100414571D01*
X144827353Y-100048556D01*
X144349721Y-99850226D01*
X143832548Y-99849774D01*
X143756318Y-99881272D01*
X143791356Y-99846295D01*
X143924848Y-99524812D01*
X143925151Y-99176715D01*
X143792221Y-98855000D01*
X143546295Y-98608644D01*
X143224812Y-98475152D01*
X142876715Y-98474849D01*
X142555000Y-98607779D01*
X142362443Y-98800000D01*
X140400000Y-98800000D01*
X140189524Y-98841866D01*
X140011091Y-98961091D01*
X138461091Y-100511091D01*
X138341866Y-100689524D01*
X138300000Y-100900000D01*
X133277818Y-100900000D01*
X136127818Y-98050000D01*
X140662683Y-98050000D01*
X140853705Y-98241356D01*
X141175188Y-98374848D01*
X141523285Y-98375151D01*
X141845000Y-98242221D01*
X142091356Y-97996295D01*
X142224848Y-97674812D01*
X142225151Y-97326715D01*
X142092221Y-97005000D01*
X141846295Y-96758644D01*
X141524812Y-96625152D01*
X141176715Y-96624849D01*
X140855000Y-96757779D01*
X140662443Y-96950000D01*
X135900000Y-96950000D01*
X135689524Y-96991866D01*
X135511091Y-97111091D01*
X129911091Y-102711091D01*
X129791866Y-102889524D01*
X129750000Y-103100000D01*
X129750000Y-110212683D01*
X129558644Y-110403705D01*
X129425152Y-110725188D01*
X129424849Y-111073285D01*
X129250000Y-111073285D01*
X129250000Y-102147306D01*
X129208134Y-101936830D01*
X129088909Y-101758397D01*
X128215330Y-100884818D01*
X128215565Y-100614435D01*
X128082635Y-100292720D01*
X127836709Y-100046364D01*
X127515226Y-99912872D01*
X127167129Y-99912569D01*
X126845414Y-100045499D01*
X126599058Y-100291425D01*
X126465566Y-100612908D01*
X126465467Y-100726951D01*
X126262403Y-100726774D01*
X125885537Y-100882493D01*
X125596948Y-101170578D01*
X125440572Y-101547172D01*
X125440216Y-101954943D01*
X118525000Y-101954943D01*
X118525000Y-98692189D01*
X122014130Y-98692189D01*
X122031866Y-98790894D01*
X122300926Y-99261761D01*
X122729698Y-99593820D01*
X123252905Y-99736519D01*
X123471000Y-99639888D01*
X123471000Y-98479000D01*
X123729000Y-98479000D01*
X123729000Y-99639888D01*
X123947095Y-99736519D01*
X124470302Y-99593820D01*
X124899074Y-99261761D01*
X125168134Y-98790894D01*
X125185870Y-98692189D01*
X125127755Y-98479000D01*
X123729000Y-98479000D01*
X123471000Y-98479000D01*
X122072245Y-98479000D01*
X122014130Y-98692189D01*
X118525000Y-98692189D01*
X118525000Y-98404553D01*
X131499829Y-98404553D01*
X131632759Y-98726268D01*
X131878685Y-98972624D01*
X132200168Y-99106116D01*
X132548265Y-99106419D01*
X132869980Y-98973489D01*
X133116336Y-98727563D01*
X133249828Y-98406080D01*
X133250131Y-98057983D01*
X133117201Y-97736268D01*
X132871275Y-97489912D01*
X132549792Y-97356420D01*
X132201695Y-97356117D01*
X131879980Y-97489047D01*
X131633624Y-97734973D01*
X131500132Y-98056456D01*
X131499829Y-98404553D01*
X118525000Y-98404553D01*
X118525000Y-98007811D01*
X122014130Y-98007811D01*
X122072245Y-98221000D01*
X123471000Y-98221000D01*
X123471000Y-97060112D01*
X123729000Y-97060112D01*
X123729000Y-98221000D01*
X125127755Y-98221000D01*
X125185870Y-98007811D01*
X125168134Y-97909106D01*
X124899074Y-97438239D01*
X124470302Y-97106180D01*
X123947095Y-96963481D01*
X123729000Y-97060112D01*
X123471000Y-97060112D01*
X123252905Y-96963481D01*
X122729698Y-97106180D01*
X122300926Y-97438239D01*
X122031866Y-97909106D01*
X122014130Y-98007811D01*
X118525000Y-98007811D01*
X118525000Y-92607389D01*
X119125000Y-92607389D01*
X119125000Y-94692611D01*
X119214442Y-95142264D01*
X119469150Y-95523461D01*
X119850347Y-95778169D01*
X120300000Y-95867611D01*
X120749653Y-95778169D01*
X121130850Y-95523461D01*
X121385558Y-95142264D01*
X121475000Y-94692611D01*
X121475000Y-92607389D01*
X127325000Y-92607389D01*
X127325000Y-94692611D01*
X127414442Y-95142264D01*
X127669150Y-95523461D01*
X128050347Y-95778169D01*
X128500000Y-95867611D01*
X128824865Y-95802991D01*
X132274822Y-95802991D01*
X132430541Y-96179857D01*
X132718626Y-96468446D01*
X133095220Y-96624822D01*
X133502991Y-96625178D01*
X133879857Y-96469459D01*
X134168446Y-96181374D01*
X134324822Y-95804780D01*
X134325178Y-95397009D01*
X134169459Y-95020143D01*
X133881374Y-94731554D01*
X133504780Y-94575178D01*
X133097009Y-94574822D01*
X132720143Y-94730541D01*
X132431554Y-95018626D01*
X132275178Y-95395220D01*
X132274822Y-95802991D01*
X128824865Y-95802991D01*
X128949653Y-95778169D01*
X129330850Y-95523461D01*
X129585558Y-95142264D01*
X129675000Y-94692611D01*
X129675000Y-92607389D01*
X129585558Y-92157736D01*
X129330850Y-91776539D01*
X128949653Y-91521831D01*
X128500000Y-91432389D01*
X128050347Y-91521831D01*
X127669150Y-91776539D01*
X127414442Y-92157736D01*
X127325000Y-92607389D01*
X121475000Y-92607389D01*
X121385558Y-92157736D01*
X121130850Y-91776539D01*
X120749653Y-91521831D01*
X120300000Y-91432389D01*
X119850347Y-91521831D01*
X119469150Y-91776539D01*
X119214442Y-92157736D01*
X119125000Y-92607389D01*
X118525000Y-92607389D01*
X118525000Y-89331443D01*
X121266289Y-89331443D01*
X121295634Y-89454211D01*
X121606906Y-90010660D01*
X122107428Y-90405634D01*
X122721000Y-90579000D01*
X123471000Y-90579000D01*
X123471000Y-89079000D01*
X123729000Y-89079000D01*
X123729000Y-90579000D01*
X124479000Y-90579000D01*
X125092572Y-90405634D01*
X125593094Y-90010660D01*
X125904366Y-89454211D01*
X125933711Y-89331443D01*
X125878817Y-89079000D01*
X123729000Y-89079000D01*
X123471000Y-89079000D01*
X121321183Y-89079000D01*
X121266289Y-89331443D01*
X118525000Y-89331443D01*
X118525000Y-88568557D01*
X121266289Y-88568557D01*
X121321183Y-88821000D01*
X123471000Y-88821000D01*
X123471000Y-87321000D01*
X123729000Y-87321000D01*
X123729000Y-88821000D01*
X125878817Y-88821000D01*
X125933711Y-88568557D01*
X125904366Y-88445789D01*
X125593094Y-87889340D01*
X125092572Y-87494366D01*
X124479000Y-87321000D01*
X123729000Y-87321000D01*
X123471000Y-87321000D01*
X122721000Y-87321000D01*
X122107428Y-87494366D01*
X121606906Y-87889340D01*
X121295634Y-88445789D01*
X121266289Y-88568557D01*
X118525000Y-88568557D01*
X118525000Y-84673285D01*
X122624849Y-84673285D01*
X122757779Y-84995000D01*
X123003705Y-85241356D01*
X123325188Y-85374848D01*
X123597267Y-85375085D01*
X129961091Y-91738909D01*
X130139524Y-91858134D01*
X130350000Y-91900000D01*
X138099681Y-91900000D01*
X137999530Y-91966919D01*
X137603920Y-92558992D01*
X137465000Y-93257389D01*
X137465000Y-94042611D01*
X137603920Y-94741008D01*
X137999530Y-95333081D01*
X138591603Y-95728691D01*
X139290000Y-95867611D01*
X139988397Y-95728691D01*
X140580470Y-95333081D01*
X140976080Y-94741008D01*
X141115000Y-94042611D01*
X141115000Y-93257389D01*
X140976080Y-92558992D01*
X140580470Y-91966919D01*
X140480319Y-91900000D01*
X141322182Y-91900000D01*
X149000000Y-99577817D01*
X149000000Y-102800000D01*
X143387317Y-102800000D01*
X143196295Y-102608644D01*
X142874812Y-102475152D01*
X142526715Y-102474849D01*
X142205000Y-102607779D01*
X141958644Y-102853705D01*
X141825152Y-103175188D01*
X141824849Y-103523285D01*
X141957779Y-103845000D01*
X142203705Y-104091356D01*
X142525188Y-104224848D01*
X142873285Y-104225151D01*
X143195000Y-104092221D01*
X143387557Y-103900000D01*
X149000000Y-103900000D01*
X149000000Y-110050000D01*
X149041866Y-110260476D01*
X149161091Y-110438909D01*
X151625084Y-112902902D01*
X151624849Y-113173285D01*
X151757779Y-113495000D01*
X152003705Y-113741356D01*
X152325188Y-113874848D01*
X152673285Y-113875151D01*
X152995000Y-113742221D01*
X153241356Y-113496295D01*
X153374848Y-113174812D01*
X153375151Y-112826715D01*
X153242221Y-112505000D01*
X152996295Y-112258644D01*
X152674812Y-112125152D01*
X152402733Y-112124915D01*
X150100000Y-109822182D01*
X150100000Y-99350000D01*
X150058134Y-99139524D01*
X149938909Y-98961091D01*
X149938906Y-98961089D01*
X144235207Y-93257389D01*
X147065000Y-93257389D01*
X147065000Y-94042611D01*
X147203920Y-94741008D01*
X147599530Y-95333081D01*
X148191603Y-95728691D01*
X148890000Y-95867611D01*
X149588397Y-95728691D01*
X150180470Y-95333081D01*
X150576080Y-94741008D01*
X150715000Y-94042611D01*
X150715000Y-93257389D01*
X150576080Y-92558992D01*
X150180470Y-91966919D01*
X149588397Y-91571309D01*
X148890000Y-91432389D01*
X148191603Y-91571309D01*
X147599530Y-91966919D01*
X147203920Y-92558992D01*
X147065000Y-93257389D01*
X144235207Y-93257389D01*
X141938909Y-90961091D01*
X141760476Y-90841866D01*
X141550000Y-90800000D01*
X136744347Y-90800000D01*
X136771108Y-90773285D01*
X146374849Y-90773285D01*
X146507779Y-91095000D01*
X146753705Y-91341356D01*
X147075188Y-91474848D01*
X147423285Y-91475151D01*
X147745000Y-91342221D01*
X147991356Y-91096295D01*
X148124848Y-90774812D01*
X148125151Y-90426715D01*
X147992221Y-90105000D01*
X147746295Y-89858644D01*
X147424812Y-89725152D01*
X147076715Y-89724849D01*
X146755000Y-89857779D01*
X146508644Y-90103705D01*
X146375152Y-90425188D01*
X146374849Y-90773285D01*
X136771108Y-90773285D01*
X136868446Y-90676118D01*
X137024822Y-90299524D01*
X137025178Y-89891753D01*
X136869459Y-89514887D01*
X136581374Y-89226298D01*
X136204780Y-89069922D01*
X135797009Y-89069566D01*
X135420143Y-89225285D01*
X135131554Y-89513370D01*
X134975178Y-89889964D01*
X134974822Y-90297735D01*
X135130541Y-90674601D01*
X135255721Y-90800000D01*
X131581474Y-90800000D01*
X131724822Y-90454780D01*
X131725178Y-90047009D01*
X131569459Y-89670143D01*
X131281374Y-89381554D01*
X130904780Y-89225178D01*
X130497009Y-89224822D01*
X130120143Y-89380541D01*
X129831554Y-89668626D01*
X129718561Y-89940743D01*
X126730809Y-86952991D01*
X137974822Y-86952991D01*
X138130541Y-87329857D01*
X138418626Y-87618446D01*
X138795220Y-87774822D01*
X139202991Y-87775178D01*
X139579857Y-87619459D01*
X139868446Y-87331374D01*
X140024822Y-86954780D01*
X140025178Y-86547009D01*
X139869459Y-86170143D01*
X139581374Y-85881554D01*
X139204780Y-85725178D01*
X138797009Y-85724822D01*
X138420143Y-85880541D01*
X138131554Y-86168626D01*
X137975178Y-86545220D01*
X137974822Y-86952991D01*
X126730809Y-86952991D01*
X124374916Y-84597098D01*
X124375151Y-84326715D01*
X124242221Y-84005000D01*
X123996295Y-83758644D01*
X123674812Y-83625152D01*
X123326715Y-83624849D01*
X123005000Y-83757779D01*
X122758644Y-84003705D01*
X122625152Y-84325188D01*
X122624849Y-84673285D01*
X118525000Y-84673285D01*
X118525000Y-80802991D01*
X121124822Y-80802991D01*
X121280541Y-81179857D01*
X121568626Y-81468446D01*
X121945220Y-81624822D01*
X122352991Y-81625178D01*
X122729857Y-81469459D01*
X123018446Y-81181374D01*
X123174822Y-80804780D01*
X123175178Y-80397009D01*
X123019459Y-80020143D01*
X122731374Y-79731554D01*
X122354780Y-79575178D01*
X121947009Y-79574822D01*
X121570143Y-79730541D01*
X121281554Y-80018626D01*
X121125178Y-80395220D01*
X121124822Y-80802991D01*
X118525000Y-80802991D01*
X118525000Y-78273285D01*
X122974849Y-78273285D01*
X123107779Y-78595000D01*
X123353705Y-78841356D01*
X123675188Y-78974848D01*
X123947267Y-78975085D01*
X129911089Y-84938906D01*
X129911091Y-84938909D01*
X130089524Y-85058134D01*
X130300000Y-85100000D01*
X139922182Y-85100000D01*
X141450000Y-86627818D01*
X141450000Y-87012663D01*
X141258644Y-87203685D01*
X141125152Y-87525168D01*
X141124849Y-87873265D01*
X141257779Y-88194980D01*
X141503705Y-88441336D01*
X141825188Y-88574828D01*
X142173285Y-88575131D01*
X142495000Y-88442201D01*
X142687557Y-88249980D01*
X147372162Y-88249980D01*
X151950000Y-92827818D01*
X151950000Y-104162683D01*
X151758644Y-104353705D01*
X151625152Y-104675188D01*
X151624849Y-105023285D01*
X151757779Y-105345000D01*
X152003705Y-105591356D01*
X152325188Y-105724848D01*
X152673285Y-105725151D01*
X152995000Y-105592221D01*
X153241356Y-105346295D01*
X153374848Y-105024812D01*
X153375151Y-104676715D01*
X153242221Y-104355000D01*
X153050000Y-104162443D01*
X153050000Y-92600005D01*
X153050001Y-92600000D01*
X153008134Y-92389524D01*
X152888909Y-92211091D01*
X147988889Y-87311071D01*
X147810456Y-87191846D01*
X147599980Y-87149980D01*
X142687317Y-87149980D01*
X142550000Y-87012423D01*
X142550000Y-86400000D01*
X142508134Y-86189524D01*
X142388909Y-86011091D01*
X140538909Y-84161091D01*
X140360476Y-84041866D01*
X140150000Y-84000000D01*
X130527817Y-84000000D01*
X130325239Y-83797421D01*
X143724809Y-83797421D01*
X143880528Y-84174287D01*
X144168613Y-84462876D01*
X144545207Y-84619252D01*
X144952978Y-84619608D01*
X145329844Y-84463889D01*
X145618433Y-84175804D01*
X145774809Y-83799210D01*
X145775165Y-83391439D01*
X145619446Y-83014573D01*
X145331361Y-82725984D01*
X144954767Y-82569608D01*
X144546996Y-82569252D01*
X144170130Y-82724971D01*
X143881541Y-83013056D01*
X143725165Y-83389650D01*
X143724809Y-83797421D01*
X130325239Y-83797421D01*
X127251103Y-80723285D01*
X137324849Y-80723285D01*
X137457779Y-81045000D01*
X137703705Y-81291356D01*
X138025188Y-81424848D01*
X138373285Y-81425151D01*
X138695000Y-81292221D01*
X138941356Y-81046295D01*
X139074848Y-80724812D01*
X139075151Y-80376715D01*
X138942221Y-80055000D01*
X138696295Y-79808644D01*
X138374812Y-79675152D01*
X138026715Y-79674849D01*
X137705000Y-79807779D01*
X137458644Y-80053705D01*
X137325152Y-80375188D01*
X137324849Y-80723285D01*
X127251103Y-80723285D01*
X124724916Y-78197098D01*
X124725151Y-77926715D01*
X124592221Y-77605000D01*
X124346295Y-77358644D01*
X124024812Y-77225152D01*
X123676715Y-77224849D01*
X123355000Y-77357779D01*
X123108644Y-77603705D01*
X122975152Y-77925188D01*
X122974849Y-78273285D01*
X118525000Y-78273285D01*
X118525000Y-74692189D01*
X121514130Y-74692189D01*
X121531866Y-74790894D01*
X121800926Y-75261761D01*
X122229698Y-75593820D01*
X122752905Y-75736519D01*
X122971000Y-75639888D01*
X122971000Y-74479000D01*
X123229000Y-74479000D01*
X123229000Y-75639888D01*
X123447095Y-75736519D01*
X123970302Y-75593820D01*
X124399074Y-75261761D01*
X124668134Y-74790894D01*
X124685870Y-74692189D01*
X124627755Y-74479000D01*
X123229000Y-74479000D01*
X122971000Y-74479000D01*
X121572245Y-74479000D01*
X121514130Y-74692189D01*
X118525000Y-74692189D01*
X118525000Y-74007811D01*
X121514130Y-74007811D01*
X121572245Y-74221000D01*
X122971000Y-74221000D01*
X122971000Y-73060112D01*
X123229000Y-73060112D01*
X123229000Y-74221000D01*
X124627755Y-74221000D01*
X124685870Y-74007811D01*
X124668134Y-73909106D01*
X124399074Y-73438239D01*
X123970302Y-73106180D01*
X123447095Y-72963481D01*
X123229000Y-73060112D01*
X122971000Y-73060112D01*
X122752905Y-72963481D01*
X122229698Y-73106180D01*
X121800926Y-73438239D01*
X121531866Y-73909106D01*
X121514130Y-74007811D01*
X118525000Y-74007811D01*
X118525000Y-68607389D01*
X118625000Y-68607389D01*
X118625000Y-70692611D01*
X118714442Y-71142264D01*
X118969150Y-71523461D01*
X119350347Y-71778169D01*
X119800000Y-71867611D01*
X120249653Y-71778169D01*
X120630850Y-71523461D01*
X120885558Y-71142264D01*
X120975000Y-70692611D01*
X120975000Y-68607389D01*
X126825000Y-68607389D01*
X126825000Y-70692611D01*
X126914442Y-71142264D01*
X127169150Y-71523461D01*
X127450000Y-71711119D01*
X127450000Y-72550000D01*
X127491866Y-72760476D01*
X127611091Y-72938909D01*
X128611089Y-73938906D01*
X128611091Y-73938909D01*
X128789524Y-74058134D01*
X129000000Y-74100001D01*
X129000005Y-74100000D01*
X131072182Y-74100000D01*
X135711091Y-78738909D01*
X135889524Y-78858134D01*
X136100000Y-78900000D01*
X138472182Y-78900000D01*
X139811089Y-80238906D01*
X139811091Y-80238909D01*
X139989524Y-80358134D01*
X140200000Y-80400000D01*
X143522178Y-80400000D01*
X150725080Y-87602901D01*
X150724845Y-87873285D01*
X150857775Y-88195000D01*
X151103701Y-88441356D01*
X151425184Y-88574848D01*
X151773281Y-88575151D01*
X152094996Y-88442221D01*
X152341352Y-88196295D01*
X152474844Y-87874812D01*
X152475147Y-87526715D01*
X152342217Y-87205000D01*
X152096291Y-86958644D01*
X151774808Y-86825152D01*
X151502728Y-86824915D01*
X145280805Y-80602991D01*
X148724822Y-80602991D01*
X148880541Y-80979857D01*
X149168626Y-81268446D01*
X149545220Y-81424822D01*
X149952991Y-81425178D01*
X150329857Y-81269459D01*
X150618446Y-80981374D01*
X150774822Y-80604780D01*
X150775178Y-80197009D01*
X150619459Y-79820143D01*
X150331374Y-79531554D01*
X149954780Y-79375178D01*
X149547009Y-79374822D01*
X149170143Y-79530541D01*
X148881554Y-79818626D01*
X148725178Y-80195220D01*
X148724822Y-80602991D01*
X145280805Y-80602991D01*
X144138905Y-79461091D01*
X143960472Y-79341866D01*
X143749996Y-79300000D01*
X140427817Y-79300000D01*
X139201135Y-78073317D01*
X140849117Y-78073317D01*
X140946675Y-78254929D01*
X141418483Y-78417011D01*
X141916403Y-78386202D01*
X142233325Y-78254929D01*
X142330883Y-78073317D01*
X141590000Y-77332434D01*
X140849117Y-78073317D01*
X139201135Y-78073317D01*
X139088909Y-77961091D01*
X138910476Y-77841866D01*
X138700000Y-77800000D01*
X136327818Y-77800000D01*
X135301103Y-76773285D01*
X137324849Y-76773285D01*
X137457779Y-77095000D01*
X137703705Y-77341356D01*
X138025188Y-77474848D01*
X138373285Y-77475151D01*
X138695000Y-77342221D01*
X138941356Y-77096295D01*
X138990276Y-76978483D01*
X140322989Y-76978483D01*
X140353798Y-77476403D01*
X140485071Y-77793325D01*
X140666683Y-77890883D01*
X141407566Y-77150000D01*
X141772434Y-77150000D01*
X142513317Y-77890883D01*
X142694929Y-77793325D01*
X142810368Y-77457292D01*
X142987271Y-77885429D01*
X143352647Y-78251444D01*
X143830279Y-78449774D01*
X144347452Y-78450226D01*
X144825429Y-78252729D01*
X145191444Y-77887353D01*
X145340121Y-77529300D01*
X145487271Y-77885429D01*
X145852647Y-78251444D01*
X146330279Y-78449774D01*
X146847452Y-78450226D01*
X147325429Y-78252729D01*
X147691444Y-77887353D01*
X147889774Y-77409721D01*
X147890226Y-76892548D01*
X147692729Y-76414571D01*
X147327353Y-76048556D01*
X146849721Y-75850226D01*
X146332548Y-75849774D01*
X145854571Y-76047271D01*
X145488556Y-76412647D01*
X145339879Y-76770700D01*
X145192729Y-76414571D01*
X144827353Y-76048556D01*
X144640000Y-75970760D01*
X144640000Y-75423279D01*
X147624849Y-75423279D01*
X147757779Y-75744994D01*
X148003705Y-75991350D01*
X148325188Y-76124842D01*
X148673285Y-76125145D01*
X148775101Y-76083075D01*
X148774822Y-76402991D01*
X148930541Y-76779857D01*
X149218626Y-77068446D01*
X149595220Y-77224822D01*
X150002991Y-77225178D01*
X150379857Y-77069459D01*
X150668446Y-76781374D01*
X150824822Y-76404780D01*
X150824834Y-76390997D01*
X151447282Y-76390997D01*
X151603001Y-76767863D01*
X151891086Y-77056452D01*
X152267680Y-77212828D01*
X152675451Y-77213184D01*
X153052317Y-77057465D01*
X153340906Y-76769380D01*
X153497282Y-76392786D01*
X153497638Y-75985015D01*
X153341919Y-75608149D01*
X153053834Y-75319560D01*
X152677240Y-75163184D01*
X152269469Y-75162828D01*
X151892603Y-75318547D01*
X151604014Y-75606632D01*
X151447638Y-75983226D01*
X151447282Y-76390997D01*
X150824834Y-76390997D01*
X150825178Y-75997009D01*
X150669459Y-75620143D01*
X150381374Y-75331554D01*
X150004780Y-75175178D01*
X149597009Y-75174822D01*
X149374986Y-75266561D01*
X149375151Y-75076709D01*
X149242221Y-74754994D01*
X148996295Y-74508638D01*
X148674812Y-74375146D01*
X148326715Y-74374843D01*
X148005000Y-74507773D01*
X147758644Y-74753699D01*
X147625152Y-75075182D01*
X147624849Y-75423279D01*
X144640000Y-75423279D01*
X144640000Y-75037818D01*
X145727818Y-73950000D01*
X151800002Y-73950000D01*
X152010478Y-73908134D01*
X152188911Y-73788909D01*
X154052904Y-71924916D01*
X154323287Y-71925151D01*
X154645002Y-71792221D01*
X154891358Y-71546295D01*
X155024850Y-71224812D01*
X155025153Y-70876715D01*
X154892223Y-70555000D01*
X154646297Y-70308644D01*
X154324814Y-70175152D01*
X153976717Y-70174849D01*
X153655002Y-70307779D01*
X153408646Y-70553705D01*
X153275154Y-70875188D01*
X153274917Y-71147267D01*
X151572184Y-72850000D01*
X145500000Y-72850000D01*
X145289524Y-72891866D01*
X145111091Y-73011091D01*
X143701091Y-74421091D01*
X143581866Y-74599524D01*
X143540000Y-74810000D01*
X143540000Y-75970653D01*
X143354571Y-76047271D01*
X142988556Y-76412647D01*
X142822063Y-76813606D01*
X142694929Y-76506675D01*
X142513317Y-76409117D01*
X141772434Y-77150000D01*
X141407566Y-77150000D01*
X140666683Y-76409117D01*
X140485071Y-76506675D01*
X140322989Y-76978483D01*
X138990276Y-76978483D01*
X139074848Y-76774812D01*
X139075151Y-76426715D01*
X138992500Y-76226683D01*
X140849117Y-76226683D01*
X141590000Y-76967566D01*
X142330883Y-76226683D01*
X142233325Y-76045071D01*
X141761517Y-75882989D01*
X141263597Y-75913798D01*
X140946675Y-76045071D01*
X140849117Y-76226683D01*
X138992500Y-76226683D01*
X138942221Y-76105000D01*
X138696295Y-75858644D01*
X138374812Y-75725152D01*
X138026715Y-75724849D01*
X137705000Y-75857779D01*
X137458644Y-76103705D01*
X137325152Y-76425188D01*
X137324849Y-76773285D01*
X135301103Y-76773285D01*
X132751105Y-74223287D01*
X140224849Y-74223287D01*
X140357779Y-74545002D01*
X140603705Y-74791358D01*
X140925188Y-74924850D01*
X141273285Y-74925153D01*
X141595000Y-74792223D01*
X141841356Y-74546297D01*
X141974848Y-74224814D01*
X141975151Y-73876717D01*
X141842221Y-73555002D01*
X141596295Y-73308646D01*
X141274812Y-73175154D01*
X140926715Y-73174851D01*
X140605000Y-73307781D01*
X140358644Y-73553707D01*
X140225152Y-73875190D01*
X140224849Y-74223287D01*
X132751105Y-74223287D01*
X131688909Y-73161091D01*
X131510476Y-73041866D01*
X131300000Y-73000000D01*
X129227817Y-73000000D01*
X128550000Y-72322182D01*
X128550000Y-71711119D01*
X128830850Y-71523461D01*
X129085558Y-71142264D01*
X129175000Y-70692611D01*
X129175000Y-69502991D01*
X134524822Y-69502991D01*
X134680541Y-69879857D01*
X134968626Y-70168446D01*
X135345220Y-70324822D01*
X135752991Y-70325178D01*
X136129857Y-70169459D01*
X136418446Y-69881374D01*
X136574822Y-69504780D01*
X136575037Y-69257389D01*
X137465000Y-69257389D01*
X137465000Y-70042611D01*
X137603920Y-70741008D01*
X137999530Y-71333081D01*
X138591603Y-71728691D01*
X139290000Y-71867611D01*
X139988397Y-71728691D01*
X140580470Y-71333081D01*
X140976080Y-70741008D01*
X141115000Y-70042611D01*
X141115000Y-69257389D01*
X147065000Y-69257389D01*
X147065000Y-70042611D01*
X147203920Y-70741008D01*
X147599530Y-71333081D01*
X148191603Y-71728691D01*
X148890000Y-71867611D01*
X149588397Y-71728691D01*
X150180470Y-71333081D01*
X150576080Y-70741008D01*
X150715000Y-70042611D01*
X150715000Y-69257389D01*
X150576080Y-68558992D01*
X150180470Y-67966919D01*
X149588397Y-67571309D01*
X148890000Y-67432389D01*
X148191603Y-67571309D01*
X147599530Y-67966919D01*
X147203920Y-68558992D01*
X147065000Y-69257389D01*
X141115000Y-69257389D01*
X140976080Y-68558992D01*
X140580470Y-67966919D01*
X140125186Y-67662708D01*
X140229857Y-67619459D01*
X140518446Y-67331374D01*
X140674822Y-66954780D01*
X140675178Y-66547009D01*
X140519459Y-66170143D01*
X140231374Y-65881554D01*
X139854780Y-65725178D01*
X139447009Y-65724822D01*
X139070143Y-65880541D01*
X138781554Y-66168626D01*
X138625178Y-66545220D01*
X138624822Y-66952991D01*
X138780541Y-67329857D01*
X138950339Y-67499952D01*
X138591603Y-67571309D01*
X137999530Y-67966919D01*
X137603920Y-68558992D01*
X137465000Y-69257389D01*
X136575037Y-69257389D01*
X136575178Y-69097009D01*
X136419459Y-68720143D01*
X136131374Y-68431554D01*
X135754780Y-68275178D01*
X135347009Y-68274822D01*
X134970143Y-68430541D01*
X134681554Y-68718626D01*
X134525178Y-69095220D01*
X134524822Y-69502991D01*
X129175000Y-69502991D01*
X129175000Y-68607389D01*
X129085558Y-68157736D01*
X128830850Y-67776539D01*
X128571118Y-67602991D01*
X131124822Y-67602991D01*
X131280541Y-67979857D01*
X131568626Y-68268446D01*
X131945220Y-68424822D01*
X132352991Y-68425178D01*
X132729857Y-68269459D01*
X133018446Y-67981374D01*
X133174822Y-67604780D01*
X133175178Y-67197009D01*
X133019459Y-66820143D01*
X132731374Y-66531554D01*
X132354780Y-66375178D01*
X131947009Y-66374822D01*
X131570143Y-66530541D01*
X131281554Y-66818626D01*
X131125178Y-67195220D01*
X131124822Y-67602991D01*
X128571118Y-67602991D01*
X128449653Y-67521831D01*
X128000000Y-67432389D01*
X127550347Y-67521831D01*
X127169150Y-67776539D01*
X126914442Y-68157736D01*
X126825000Y-68607389D01*
X120975000Y-68607389D01*
X120885558Y-68157736D01*
X120630850Y-67776539D01*
X120249653Y-67521831D01*
X119800000Y-67432389D01*
X119350347Y-67521831D01*
X118969150Y-67776539D01*
X118714442Y-68157736D01*
X118625000Y-68607389D01*
X118525000Y-68607389D01*
X118525000Y-65331443D01*
X120766289Y-65331443D01*
X120795634Y-65454211D01*
X121106906Y-66010660D01*
X121607428Y-66405634D01*
X122221000Y-66579000D01*
X122971000Y-66579000D01*
X122971000Y-65079000D01*
X123229000Y-65079000D01*
X123229000Y-66579000D01*
X123979000Y-66579000D01*
X124592572Y-66405634D01*
X125093094Y-66010660D01*
X125404366Y-65454211D01*
X125433711Y-65331443D01*
X125378817Y-65079000D01*
X123229000Y-65079000D01*
X122971000Y-65079000D01*
X120821183Y-65079000D01*
X120766289Y-65331443D01*
X118525000Y-65331443D01*
X118525000Y-64568557D01*
X120766289Y-64568557D01*
X120821183Y-64821000D01*
X122971000Y-64821000D01*
X122971000Y-63321000D01*
X123229000Y-63321000D01*
X123229000Y-64821000D01*
X125378817Y-64821000D01*
X125433711Y-64568557D01*
X125404366Y-64445789D01*
X125093094Y-63889340D01*
X124755960Y-63623299D01*
X134374865Y-63623299D01*
X134507795Y-63945014D01*
X134753721Y-64191370D01*
X135075204Y-64324862D01*
X135423301Y-64325165D01*
X135745016Y-64192235D01*
X135991372Y-63946309D01*
X136124864Y-63624826D01*
X136125167Y-63276729D01*
X135992237Y-62955014D01*
X135990218Y-62952991D01*
X144274822Y-62952991D01*
X144430541Y-63329857D01*
X144718626Y-63618446D01*
X145095220Y-63774822D01*
X145502991Y-63775178D01*
X145879857Y-63619459D01*
X146168446Y-63331374D01*
X146324822Y-62954780D01*
X146325178Y-62547009D01*
X146265671Y-62402991D01*
X148775182Y-62402991D01*
X148930901Y-62779857D01*
X149075791Y-62925000D01*
X148931914Y-63068626D01*
X148775538Y-63445220D01*
X148775182Y-63852991D01*
X148930901Y-64229857D01*
X149218986Y-64518446D01*
X149595580Y-64674822D01*
X150003351Y-64675178D01*
X150380217Y-64519459D01*
X150668806Y-64231374D01*
X150825182Y-63854780D01*
X150825538Y-63447009D01*
X150669819Y-63070143D01*
X150524929Y-62925000D01*
X150668806Y-62781374D01*
X150825182Y-62404780D01*
X150825538Y-61997009D01*
X150669819Y-61620143D01*
X150381734Y-61331554D01*
X150005140Y-61175178D01*
X149597369Y-61174822D01*
X149220503Y-61330541D01*
X148931914Y-61618626D01*
X148775538Y-61995220D01*
X148775182Y-62402991D01*
X146265671Y-62402991D01*
X146169459Y-62170143D01*
X145881374Y-61881554D01*
X145504780Y-61725178D01*
X145097009Y-61724822D01*
X144720143Y-61880541D01*
X144431554Y-62168626D01*
X144275178Y-62545220D01*
X144274822Y-62952991D01*
X135990218Y-62952991D01*
X135746311Y-62708658D01*
X135424828Y-62575166D01*
X135076731Y-62574863D01*
X134755016Y-62707793D01*
X134508660Y-62953719D01*
X134375168Y-63275202D01*
X134374865Y-63623299D01*
X124755960Y-63623299D01*
X124592572Y-63494366D01*
X123979000Y-63321000D01*
X123229000Y-63321000D01*
X122971000Y-63321000D01*
X122221000Y-63321000D01*
X121607428Y-63494366D01*
X121106906Y-63889340D01*
X120795634Y-64445789D01*
X120766289Y-64568557D01*
X118525000Y-64568557D01*
X118525000Y-62475228D01*
X122199842Y-62475228D01*
X122355561Y-62852094D01*
X122643646Y-63140683D01*
X123020240Y-63297059D01*
X123428011Y-63297415D01*
X123804877Y-63141696D01*
X124093466Y-62853611D01*
X124249842Y-62477017D01*
X124250198Y-62069246D01*
X124094479Y-61692380D01*
X123806394Y-61403791D01*
X123429800Y-61247415D01*
X123022029Y-61247059D01*
X122645163Y-61402778D01*
X122356574Y-61690863D01*
X122200198Y-62067457D01*
X122199842Y-62475228D01*
X118525000Y-62475228D01*
X118525000Y-60673285D01*
X126639046Y-60673285D01*
X126771976Y-60995000D01*
X127017902Y-61241356D01*
X127339385Y-61374848D01*
X127687482Y-61375151D01*
X128009197Y-61242221D01*
X128255553Y-60996295D01*
X128306631Y-60873285D01*
X129124849Y-60873285D01*
X129257779Y-61195000D01*
X129503705Y-61441356D01*
X129825188Y-61574848D01*
X130173285Y-61575151D01*
X130495000Y-61442221D01*
X130741356Y-61196295D01*
X130874848Y-60874812D01*
X130875128Y-60552991D01*
X132724822Y-60552991D01*
X132880541Y-60929857D01*
X133168626Y-61218446D01*
X133545220Y-61374822D01*
X133952991Y-61375178D01*
X134329857Y-61219459D01*
X134618446Y-60931374D01*
X134774822Y-60554780D01*
X134775178Y-60147009D01*
X134619459Y-59770143D01*
X134331374Y-59481554D01*
X133954780Y-59325178D01*
X133547009Y-59324822D01*
X133170143Y-59480541D01*
X132881554Y-59768626D01*
X132725178Y-60145220D01*
X132724822Y-60552991D01*
X130875128Y-60552991D01*
X130875151Y-60526715D01*
X130742221Y-60205000D01*
X130496295Y-59958644D01*
X130174812Y-59825152D01*
X129826715Y-59824849D01*
X129505000Y-59957779D01*
X129258644Y-60203705D01*
X129125152Y-60525188D01*
X129124849Y-60873285D01*
X128306631Y-60873285D01*
X128389045Y-60674812D01*
X128389348Y-60326715D01*
X128256418Y-60005000D01*
X128010492Y-59758644D01*
X127689009Y-59625152D01*
X127340912Y-59624849D01*
X127019197Y-59757779D01*
X126772841Y-60003705D01*
X126639349Y-60325188D01*
X126639046Y-60673285D01*
X118525000Y-60673285D01*
X118525000Y-58400000D01*
X150216674Y-58400000D01*
X150216674Y-60100000D01*
X150246309Y-60257496D01*
X150339389Y-60402146D01*
X150481412Y-60499186D01*
X150650000Y-60533326D01*
X152350000Y-60533326D01*
X152507496Y-60503691D01*
X152652146Y-60410611D01*
X152749186Y-60268588D01*
X152783326Y-60100000D01*
X152783326Y-59467708D01*
X152837075Y-59737921D01*
X153113460Y-60151561D01*
X153527100Y-60427946D01*
X154015021Y-60525000D01*
X154064979Y-60525000D01*
X154552900Y-60427946D01*
X154966540Y-60151561D01*
X155242925Y-59737921D01*
X155339979Y-59250000D01*
X155242925Y-58762079D01*
X154966540Y-58348439D01*
X154552900Y-58072054D01*
X154064979Y-57975000D01*
X154015021Y-57975000D01*
X153527100Y-58072054D01*
X153113460Y-58348439D01*
X152837075Y-58762079D01*
X152783326Y-59032292D01*
X152783326Y-58400000D01*
X152753691Y-58242504D01*
X152660611Y-58097854D01*
X152518588Y-58000814D01*
X152350000Y-57966674D01*
X150650000Y-57966674D01*
X150492504Y-57996309D01*
X150347854Y-58089389D01*
X150250814Y-58231412D01*
X150216674Y-58400000D01*
X118525000Y-58400000D01*
X118525000Y-57028608D01*
X150313016Y-57028608D01*
X150435376Y-57324041D01*
X150751399Y-57684714D01*
X151181390Y-57896995D01*
X151371000Y-57837473D01*
X151371000Y-56839000D01*
X151629000Y-56839000D01*
X151629000Y-57837473D01*
X151818610Y-57896995D01*
X152248601Y-57684714D01*
X152564624Y-57324041D01*
X152686984Y-57028608D01*
X152853016Y-57028608D01*
X152975376Y-57324041D01*
X153291399Y-57684714D01*
X153721390Y-57896995D01*
X153911000Y-57837473D01*
X153911000Y-56839000D01*
X154169000Y-56839000D01*
X154169000Y-57837473D01*
X154358610Y-57896995D01*
X154788601Y-57684714D01*
X155104624Y-57324041D01*
X155226984Y-57028608D01*
X155166890Y-56839000D01*
X154169000Y-56839000D01*
X153911000Y-56839000D01*
X152913110Y-56839000D01*
X152853016Y-57028608D01*
X152686984Y-57028608D01*
X152626890Y-56839000D01*
X151629000Y-56839000D01*
X151371000Y-56839000D01*
X150373110Y-56839000D01*
X150313016Y-57028608D01*
X118525000Y-57028608D01*
X118525000Y-55702991D01*
X121502560Y-55702991D01*
X121658279Y-56079857D01*
X121946364Y-56368446D01*
X122322958Y-56524822D01*
X122730729Y-56525178D01*
X123107595Y-56369459D01*
X123396184Y-56081374D01*
X123552560Y-55704780D01*
X123552916Y-55297009D01*
X123483909Y-55130000D01*
X127676674Y-55130000D01*
X127676674Y-56330000D01*
X127706309Y-56487496D01*
X127799389Y-56632146D01*
X127941412Y-56729186D01*
X128110000Y-56763326D01*
X129310000Y-56763326D01*
X129467496Y-56733691D01*
X129612146Y-56640611D01*
X129709186Y-56498588D01*
X129718317Y-56453493D01*
X130708941Y-56453493D01*
X130772568Y-56606597D01*
X131144369Y-56722575D01*
X131532252Y-56687442D01*
X131727432Y-56606597D01*
X131791059Y-56453493D01*
X131728958Y-56391392D01*
X150313016Y-56391392D01*
X150373110Y-56581000D01*
X151371000Y-56581000D01*
X151371000Y-55582527D01*
X151629000Y-55582527D01*
X151629000Y-56581000D01*
X152626890Y-56581000D01*
X152686984Y-56391392D01*
X152853016Y-56391392D01*
X152913110Y-56581000D01*
X153911000Y-56581000D01*
X153911000Y-55582527D01*
X154169000Y-55582527D01*
X154169000Y-56581000D01*
X155166890Y-56581000D01*
X155226984Y-56391392D01*
X155104624Y-56095959D01*
X154788601Y-55735286D01*
X154358610Y-55523005D01*
X154169000Y-55582527D01*
X153911000Y-55582527D01*
X153721390Y-55523005D01*
X153291399Y-55735286D01*
X152975376Y-56095959D01*
X152853016Y-56391392D01*
X152686984Y-56391392D01*
X152564624Y-56095959D01*
X152248601Y-55735286D01*
X151818610Y-55523005D01*
X151629000Y-55582527D01*
X151371000Y-55582527D01*
X151181390Y-55523005D01*
X150751399Y-55735286D01*
X150435376Y-56095959D01*
X150313016Y-56391392D01*
X131728958Y-56391392D01*
X131250000Y-55912434D01*
X130708941Y-56453493D01*
X129718317Y-56453493D01*
X129743326Y-56330000D01*
X129743326Y-55624369D01*
X130257425Y-55624369D01*
X130292558Y-56012252D01*
X130373403Y-56207432D01*
X130526507Y-56271059D01*
X131067566Y-55730000D01*
X131432434Y-55730000D01*
X131973493Y-56271059D01*
X132126597Y-56207432D01*
X132242575Y-55835631D01*
X132207442Y-55447748D01*
X132126597Y-55252568D01*
X131973493Y-55188941D01*
X131432434Y-55730000D01*
X131067566Y-55730000D01*
X130526507Y-55188941D01*
X130373403Y-55252568D01*
X130257425Y-55624369D01*
X129743326Y-55624369D01*
X129743326Y-55130000D01*
X129720090Y-55006507D01*
X130708941Y-55006507D01*
X131250000Y-55547566D01*
X131791059Y-55006507D01*
X131768819Y-54952991D01*
X139224822Y-54952991D01*
X139380541Y-55329857D01*
X139668626Y-55618446D01*
X140045220Y-55774822D01*
X140452991Y-55775178D01*
X140829857Y-55619459D01*
X141118446Y-55331374D01*
X141274822Y-54954780D01*
X141275178Y-54547009D01*
X141251048Y-54488608D01*
X150313016Y-54488608D01*
X150435376Y-54784041D01*
X150751399Y-55144714D01*
X151181390Y-55356995D01*
X151371000Y-55297473D01*
X151371000Y-54299000D01*
X151629000Y-54299000D01*
X151629000Y-55297473D01*
X151818610Y-55356995D01*
X152248601Y-55144714D01*
X152564624Y-54784041D01*
X152686984Y-54488608D01*
X152853016Y-54488608D01*
X152975376Y-54784041D01*
X153291399Y-55144714D01*
X153721390Y-55356995D01*
X153911000Y-55297473D01*
X153911000Y-54299000D01*
X154169000Y-54299000D01*
X154169000Y-55297473D01*
X154358610Y-55356995D01*
X154788601Y-55144714D01*
X155104624Y-54784041D01*
X155226984Y-54488608D01*
X155166890Y-54299000D01*
X154169000Y-54299000D01*
X153911000Y-54299000D01*
X152913110Y-54299000D01*
X152853016Y-54488608D01*
X152686984Y-54488608D01*
X152626890Y-54299000D01*
X151629000Y-54299000D01*
X151371000Y-54299000D01*
X150373110Y-54299000D01*
X150313016Y-54488608D01*
X141251048Y-54488608D01*
X141188871Y-54338131D01*
X141418483Y-54417011D01*
X141916403Y-54386202D01*
X142233325Y-54254929D01*
X142330883Y-54073317D01*
X141590000Y-53332434D01*
X141575858Y-53346576D01*
X141393424Y-53164142D01*
X141407566Y-53150000D01*
X141772434Y-53150000D01*
X142513317Y-53890883D01*
X142694929Y-53793325D01*
X142810368Y-53457292D01*
X142987271Y-53885429D01*
X143352647Y-54251444D01*
X143830279Y-54449774D01*
X144347452Y-54450226D01*
X144825429Y-54252729D01*
X145191444Y-53887353D01*
X145340121Y-53529300D01*
X145487271Y-53885429D01*
X145852647Y-54251444D01*
X146330279Y-54449774D01*
X146847452Y-54450226D01*
X147325429Y-54252729D01*
X147691444Y-53887353D01*
X147706376Y-53851392D01*
X150313016Y-53851392D01*
X150373110Y-54041000D01*
X151371000Y-54041000D01*
X151371000Y-53042527D01*
X151629000Y-53042527D01*
X151629000Y-54041000D01*
X152626890Y-54041000D01*
X152686984Y-53851392D01*
X152853016Y-53851392D01*
X152913110Y-54041000D01*
X153911000Y-54041000D01*
X153911000Y-53042527D01*
X154169000Y-53042527D01*
X154169000Y-54041000D01*
X155166890Y-54041000D01*
X155226984Y-53851392D01*
X155104624Y-53555959D01*
X154788601Y-53195286D01*
X154358610Y-52983005D01*
X154169000Y-53042527D01*
X153911000Y-53042527D01*
X153721390Y-52983005D01*
X153291399Y-53195286D01*
X152975376Y-53555959D01*
X152853016Y-53851392D01*
X152686984Y-53851392D01*
X152564624Y-53555959D01*
X152248601Y-53195286D01*
X151818610Y-52983005D01*
X151629000Y-53042527D01*
X151371000Y-53042527D01*
X151181390Y-52983005D01*
X150751399Y-53195286D01*
X150435376Y-53555959D01*
X150313016Y-53851392D01*
X147706376Y-53851392D01*
X147889774Y-53409721D01*
X147890226Y-52892548D01*
X147692729Y-52414571D01*
X147327353Y-52048556D01*
X147086652Y-51948608D01*
X150313016Y-51948608D01*
X150435376Y-52244041D01*
X150751399Y-52604714D01*
X151181390Y-52816995D01*
X151371000Y-52757473D01*
X151371000Y-51759000D01*
X151629000Y-51759000D01*
X151629000Y-52757473D01*
X151818610Y-52816995D01*
X152248601Y-52604714D01*
X152564624Y-52244041D01*
X152686984Y-51948608D01*
X152853016Y-51948608D01*
X152975376Y-52244041D01*
X153291399Y-52604714D01*
X153721390Y-52816995D01*
X153911000Y-52757473D01*
X153911000Y-51759000D01*
X154169000Y-51759000D01*
X154169000Y-52757473D01*
X154358610Y-52816995D01*
X154788601Y-52604714D01*
X155104624Y-52244041D01*
X155226984Y-51948608D01*
X155166890Y-51759000D01*
X154169000Y-51759000D01*
X153911000Y-51759000D01*
X152913110Y-51759000D01*
X152853016Y-51948608D01*
X152686984Y-51948608D01*
X152626890Y-51759000D01*
X151629000Y-51759000D01*
X151371000Y-51759000D01*
X150373110Y-51759000D01*
X150313016Y-51948608D01*
X147086652Y-51948608D01*
X146849721Y-51850226D01*
X146332548Y-51849774D01*
X145854571Y-52047271D01*
X145488556Y-52412647D01*
X145339879Y-52770700D01*
X145192729Y-52414571D01*
X144827353Y-52048556D01*
X144349721Y-51850226D01*
X143832548Y-51849774D01*
X143354571Y-52047271D01*
X142988556Y-52412647D01*
X142822063Y-52813606D01*
X142694929Y-52506675D01*
X142513317Y-52409117D01*
X141772434Y-53150000D01*
X141407566Y-53150000D01*
X140666683Y-52409117D01*
X140485071Y-52506675D01*
X140322989Y-52978483D01*
X140353798Y-53476403D01*
X140457272Y-53726213D01*
X140454780Y-53725178D01*
X140047009Y-53724822D01*
X139670143Y-53880541D01*
X139381554Y-54168626D01*
X139225178Y-54545220D01*
X139224822Y-54952991D01*
X131768819Y-54952991D01*
X131727432Y-54853403D01*
X131355631Y-54737425D01*
X130967748Y-54772558D01*
X130772568Y-54853403D01*
X130708941Y-55006507D01*
X129720090Y-55006507D01*
X129713691Y-54972504D01*
X129620611Y-54827854D01*
X129478588Y-54730814D01*
X129310000Y-54696674D01*
X128110000Y-54696674D01*
X127952504Y-54726309D01*
X127807854Y-54819389D01*
X127710814Y-54961412D01*
X127676674Y-55130000D01*
X123483909Y-55130000D01*
X123397197Y-54920143D01*
X123109112Y-54631554D01*
X122732518Y-54475178D01*
X122324747Y-54474822D01*
X121947881Y-54630541D01*
X121659292Y-54918626D01*
X121502916Y-55295220D01*
X121502560Y-55702991D01*
X118525000Y-55702991D01*
X118525000Y-53090285D01*
X120450029Y-53090285D01*
X120582959Y-53412000D01*
X120828885Y-53658356D01*
X121150368Y-53791848D01*
X121498465Y-53792151D01*
X121820180Y-53659221D01*
X122066536Y-53413295D01*
X122200028Y-53091812D01*
X122200331Y-52743715D01*
X122067401Y-52422000D01*
X122040704Y-52395256D01*
X126314025Y-52395256D01*
X126446955Y-52716971D01*
X126692881Y-52963327D01*
X126777917Y-52998637D01*
X126772841Y-53003705D01*
X126639349Y-53325188D01*
X126639046Y-53673285D01*
X126771976Y-53995000D01*
X127017902Y-54241356D01*
X127339385Y-54374848D01*
X127687482Y-54375151D01*
X128009197Y-54242221D01*
X128255553Y-53996295D01*
X128389045Y-53674812D01*
X128389348Y-53326715D01*
X128256418Y-53005000D01*
X128204500Y-52952991D01*
X133974814Y-52952991D01*
X134130533Y-53329857D01*
X134418618Y-53618446D01*
X134795212Y-53774822D01*
X135202983Y-53775178D01*
X135579849Y-53619459D01*
X135868438Y-53331374D01*
X136024814Y-52954780D01*
X136025170Y-52547009D01*
X135892814Y-52226683D01*
X140849117Y-52226683D01*
X141590000Y-52967566D01*
X142330883Y-52226683D01*
X142233325Y-52045071D01*
X141761517Y-51882989D01*
X141263597Y-51913798D01*
X140946675Y-52045071D01*
X140849117Y-52226683D01*
X135892814Y-52226683D01*
X135869451Y-52170143D01*
X135581366Y-51881554D01*
X135204772Y-51725178D01*
X134797001Y-51724822D01*
X134420135Y-51880541D01*
X134131546Y-52168626D01*
X133975170Y-52545220D01*
X133974814Y-52952991D01*
X128204500Y-52952991D01*
X128010492Y-52758644D01*
X127925456Y-52723334D01*
X127930532Y-52718266D01*
X128064024Y-52396783D01*
X128064327Y-52048686D01*
X127931397Y-51726971D01*
X127916866Y-51712414D01*
X127941412Y-51729186D01*
X128110000Y-51763326D01*
X129310000Y-51763326D01*
X129467496Y-51733691D01*
X129612146Y-51640611D01*
X129709186Y-51498588D01*
X129718317Y-51453493D01*
X130708941Y-51453493D01*
X130772568Y-51606597D01*
X131144369Y-51722575D01*
X131532252Y-51687442D01*
X131727432Y-51606597D01*
X131791059Y-51453493D01*
X131648958Y-51311392D01*
X150313016Y-51311392D01*
X150373110Y-51501000D01*
X151371000Y-51501000D01*
X151371000Y-50502527D01*
X151629000Y-50502527D01*
X151629000Y-51501000D01*
X152626890Y-51501000D01*
X152686984Y-51311392D01*
X152853016Y-51311392D01*
X152913110Y-51501000D01*
X153911000Y-51501000D01*
X153911000Y-50502527D01*
X154169000Y-50502527D01*
X154169000Y-51501000D01*
X155166890Y-51501000D01*
X155226984Y-51311392D01*
X155104624Y-51015959D01*
X154788601Y-50655286D01*
X154358610Y-50443005D01*
X154169000Y-50502527D01*
X153911000Y-50502527D01*
X153721390Y-50443005D01*
X153291399Y-50655286D01*
X152975376Y-51015959D01*
X152853016Y-51311392D01*
X152686984Y-51311392D01*
X152564624Y-51015959D01*
X152248601Y-50655286D01*
X151818610Y-50443005D01*
X151629000Y-50502527D01*
X151371000Y-50502527D01*
X151181390Y-50443005D01*
X150751399Y-50655286D01*
X150435376Y-51015959D01*
X150313016Y-51311392D01*
X131648958Y-51311392D01*
X131250000Y-50912434D01*
X130708941Y-51453493D01*
X129718317Y-51453493D01*
X129743326Y-51330000D01*
X129743326Y-50624369D01*
X130257425Y-50624369D01*
X130292558Y-51012252D01*
X130373403Y-51207432D01*
X130526507Y-51271059D01*
X131067566Y-50730000D01*
X131432434Y-50730000D01*
X131973493Y-51271059D01*
X132126597Y-51207432D01*
X132242575Y-50835631D01*
X132207442Y-50447748D01*
X132126597Y-50252568D01*
X131973493Y-50188941D01*
X131432434Y-50730000D01*
X131067566Y-50730000D01*
X130526507Y-50188941D01*
X130373403Y-50252568D01*
X130257425Y-50624369D01*
X129743326Y-50624369D01*
X129743326Y-50130000D01*
X129720090Y-50006507D01*
X130708941Y-50006507D01*
X131250000Y-50547566D01*
X131791059Y-50006507D01*
X131727432Y-49853403D01*
X131355631Y-49737425D01*
X130967748Y-49772558D01*
X130772568Y-49853403D01*
X130708941Y-50006507D01*
X129720090Y-50006507D01*
X129713691Y-49972504D01*
X129620611Y-49827854D01*
X129478588Y-49730814D01*
X129310000Y-49696674D01*
X128110000Y-49696674D01*
X127952504Y-49726309D01*
X127807854Y-49819389D01*
X127710814Y-49961412D01*
X127705914Y-49985609D01*
X127629185Y-49828248D01*
X127307096Y-49552500D01*
X126904000Y-49421000D01*
X126479000Y-49421000D01*
X126479000Y-50371000D01*
X126499000Y-50371000D01*
X126499000Y-50629000D01*
X126479000Y-50629000D01*
X126479000Y-51579000D01*
X126594752Y-51579000D01*
X126447820Y-51725676D01*
X126314328Y-52047159D01*
X126314025Y-52395256D01*
X122040704Y-52395256D01*
X121821475Y-52175644D01*
X121499992Y-52042152D01*
X121151895Y-52041849D01*
X120830180Y-52174779D01*
X120583824Y-52420705D01*
X120450332Y-52742188D01*
X120450029Y-53090285D01*
X118525000Y-53090285D01*
X118525000Y-51026520D01*
X118595815Y-51171752D01*
X118917904Y-51447500D01*
X119321000Y-51579000D01*
X119721000Y-51579000D01*
X119721000Y-50629000D01*
X119979000Y-50629000D01*
X119979000Y-51579000D01*
X120379000Y-51579000D01*
X120591690Y-51509615D01*
X121502560Y-51509615D01*
X121658279Y-51886481D01*
X121946364Y-52175070D01*
X122322958Y-52331446D01*
X122730729Y-52331802D01*
X123107595Y-52176083D01*
X123396184Y-51887998D01*
X123552560Y-51511404D01*
X123552916Y-51103633D01*
X123425389Y-50794994D01*
X124887108Y-50794994D01*
X125070815Y-51171752D01*
X125392904Y-51447500D01*
X125796000Y-51579000D01*
X126221000Y-51579000D01*
X126221000Y-50629000D01*
X124949240Y-50629000D01*
X124887108Y-50794994D01*
X123425389Y-50794994D01*
X123397197Y-50726767D01*
X123109112Y-50438178D01*
X122732518Y-50281802D01*
X122324747Y-50281446D01*
X121947881Y-50437165D01*
X121659292Y-50725250D01*
X121502916Y-51101844D01*
X121502560Y-51509615D01*
X120591690Y-51509615D01*
X120782096Y-51447500D01*
X121104185Y-51171752D01*
X121287892Y-50794994D01*
X121225760Y-50629000D01*
X119979000Y-50629000D01*
X119721000Y-50629000D01*
X119701000Y-50629000D01*
X119701000Y-50371000D01*
X119721000Y-50371000D01*
X119721000Y-49421000D01*
X119979000Y-49421000D01*
X119979000Y-50371000D01*
X121225760Y-50371000D01*
X121287892Y-50205006D01*
X124887108Y-50205006D01*
X124949240Y-50371000D01*
X126221000Y-50371000D01*
X126221000Y-49421000D01*
X125796000Y-49421000D01*
X125392904Y-49552500D01*
X125070815Y-49828248D01*
X124887108Y-50205006D01*
X121287892Y-50205006D01*
X121104185Y-49828248D01*
X120782096Y-49552500D01*
X120379000Y-49421000D01*
X119979000Y-49421000D01*
X119721000Y-49421000D01*
X119321000Y-49421000D01*
X118917904Y-49552500D01*
X118595815Y-49828248D01*
X118525000Y-49973480D01*
X118525000Y-49090000D01*
X150200021Y-49090000D01*
X150297075Y-49577921D01*
X150573460Y-49991561D01*
X150987100Y-50267946D01*
X151475021Y-50365000D01*
X151524979Y-50365000D01*
X152012900Y-50267946D01*
X152426540Y-49991561D01*
X152702925Y-49577921D01*
X152770000Y-49240714D01*
X152837075Y-49577921D01*
X153113460Y-49991561D01*
X153527100Y-50267946D01*
X154015021Y-50365000D01*
X154064979Y-50365000D01*
X154552900Y-50267946D01*
X154966540Y-49991561D01*
X155242925Y-49577921D01*
X155339979Y-49090000D01*
X155242925Y-48602079D01*
X154966540Y-48188439D01*
X154552900Y-47912054D01*
X154064979Y-47815000D01*
X154015021Y-47815000D01*
X153527100Y-47912054D01*
X153113460Y-48188439D01*
X152837075Y-48602079D01*
X152770000Y-48939286D01*
X152702925Y-48602079D01*
X152426540Y-48188439D01*
X152012900Y-47912054D01*
X151524979Y-47815000D01*
X151475021Y-47815000D01*
X150987100Y-47912054D01*
X150573460Y-48188439D01*
X150297075Y-48602079D01*
X150200021Y-49090000D01*
X118525000Y-49090000D01*
X118525000Y-46646391D01*
X118624628Y-46795495D01*
X118989604Y-47039364D01*
X119420123Y-47125000D01*
X120279877Y-47125000D01*
X120710396Y-47039364D01*
X121075372Y-46795495D01*
X121319241Y-46430519D01*
X121404877Y-46000000D01*
X124769634Y-46000000D01*
X124855270Y-46430519D01*
X125099139Y-46795495D01*
X125464115Y-47039364D01*
X125894634Y-47125000D01*
X126805366Y-47125000D01*
X127235885Y-47039364D01*
X127600861Y-46795495D01*
X127755539Y-46564002D01*
X127799389Y-46632146D01*
X127941412Y-46729186D01*
X128110000Y-46763326D01*
X129310000Y-46763326D01*
X129467496Y-46733691D01*
X129612146Y-46640611D01*
X129709186Y-46498588D01*
X129718317Y-46453493D01*
X130708941Y-46453493D01*
X130772568Y-46606597D01*
X131144369Y-46722575D01*
X131532252Y-46687442D01*
X131727432Y-46606597D01*
X131791059Y-46453493D01*
X131250000Y-45912434D01*
X130708941Y-46453493D01*
X129718317Y-46453493D01*
X129743326Y-46330000D01*
X129743326Y-45624369D01*
X130257425Y-45624369D01*
X130292558Y-46012252D01*
X130373403Y-46207432D01*
X130526507Y-46271059D01*
X131067566Y-45730000D01*
X131432434Y-45730000D01*
X131973493Y-46271059D01*
X132126597Y-46207432D01*
X132242575Y-45835631D01*
X132207442Y-45447748D01*
X132128594Y-45257389D01*
X137465000Y-45257389D01*
X137465000Y-46042611D01*
X137603920Y-46741008D01*
X137999530Y-47333081D01*
X138591603Y-47728691D01*
X139290000Y-47867611D01*
X139988397Y-47728691D01*
X140580470Y-47333081D01*
X140976080Y-46741008D01*
X141115000Y-46042611D01*
X141115000Y-45257389D01*
X147065000Y-45257389D01*
X147065000Y-46042611D01*
X147203920Y-46741008D01*
X147599530Y-47333081D01*
X148191603Y-47728691D01*
X148890000Y-47867611D01*
X149588397Y-47728691D01*
X150180470Y-47333081D01*
X150576080Y-46741008D01*
X150715000Y-46042611D01*
X150715000Y-45257389D01*
X150576080Y-44558992D01*
X150180470Y-43966919D01*
X149588397Y-43571309D01*
X148890000Y-43432389D01*
X148191603Y-43571309D01*
X147599530Y-43966919D01*
X147203920Y-44558992D01*
X147065000Y-45257389D01*
X141115000Y-45257389D01*
X140976080Y-44558992D01*
X140805026Y-44302991D01*
X142174822Y-44302991D01*
X142330541Y-44679857D01*
X142618626Y-44968446D01*
X142995220Y-45124822D01*
X143402991Y-45125178D01*
X143779857Y-44969459D01*
X143874913Y-44874569D01*
X143968626Y-44968446D01*
X144345220Y-45124822D01*
X144752991Y-45125178D01*
X145129857Y-44969459D01*
X145199869Y-44899569D01*
X145268626Y-44968446D01*
X145645220Y-45124822D01*
X146052991Y-45125178D01*
X146429857Y-44969459D01*
X146718446Y-44681374D01*
X146874822Y-44304780D01*
X146875178Y-43897009D01*
X146719459Y-43520143D01*
X146431374Y-43231554D01*
X146054780Y-43075178D01*
X145647009Y-43074822D01*
X145270143Y-43230541D01*
X145200131Y-43300431D01*
X145131374Y-43231554D01*
X144754780Y-43075178D01*
X144347009Y-43074822D01*
X143970143Y-43230541D01*
X143875087Y-43325431D01*
X143781374Y-43231554D01*
X143404780Y-43075178D01*
X142997009Y-43074822D01*
X142620143Y-43230541D01*
X142331554Y-43518626D01*
X142175178Y-43895220D01*
X142174822Y-44302991D01*
X140805026Y-44302991D01*
X140580470Y-43966919D01*
X139988397Y-43571309D01*
X139290000Y-43432389D01*
X138591603Y-43571309D01*
X137999530Y-43966919D01*
X137603920Y-44558992D01*
X137465000Y-45257389D01*
X132128594Y-45257389D01*
X132126597Y-45252568D01*
X131973493Y-45188941D01*
X131432434Y-45730000D01*
X131067566Y-45730000D01*
X130526507Y-45188941D01*
X130373403Y-45252568D01*
X130257425Y-45624369D01*
X129743326Y-45624369D01*
X129743326Y-45130000D01*
X129720090Y-45006507D01*
X130708941Y-45006507D01*
X131250000Y-45547566D01*
X131791059Y-45006507D01*
X131727432Y-44853403D01*
X131355631Y-44737425D01*
X130967748Y-44772558D01*
X130772568Y-44853403D01*
X130708941Y-45006507D01*
X129720090Y-45006507D01*
X129713691Y-44972504D01*
X129620611Y-44827854D01*
X129478588Y-44730814D01*
X129310000Y-44696674D01*
X128110000Y-44696674D01*
X127952504Y-44726309D01*
X127807854Y-44819389D01*
X127710814Y-44961412D01*
X127676674Y-45130000D01*
X127676674Y-45317967D01*
X127600861Y-45204505D01*
X127235885Y-44960636D01*
X126805366Y-44875000D01*
X125894634Y-44875000D01*
X125464115Y-44960636D01*
X125099139Y-45204505D01*
X124855270Y-45569481D01*
X124769634Y-46000000D01*
X121404877Y-46000000D01*
X121319241Y-45569481D01*
X121075372Y-45204505D01*
X120710396Y-44960636D01*
X120279877Y-44875000D01*
X119420123Y-44875000D01*
X118989604Y-44960636D01*
X118624628Y-45204505D01*
X118525000Y-45353609D01*
X118525000Y-42952991D01*
X130624822Y-42952991D01*
X130780541Y-43329857D01*
X131068626Y-43618446D01*
X131445220Y-43774822D01*
X131852991Y-43775178D01*
X132229857Y-43619459D01*
X132518446Y-43331374D01*
X132674822Y-42954780D01*
X132675178Y-42547009D01*
X132519459Y-42170143D01*
X132231374Y-41881554D01*
X131854780Y-41725178D01*
X131447009Y-41724822D01*
X131070143Y-41880541D01*
X130781554Y-42168626D01*
X130625178Y-42545220D01*
X130624822Y-42952991D01*
X118525000Y-42952991D01*
X118525000Y-39025000D01*
X121025519Y-39025000D01*
X120831554Y-39218626D01*
M02*
