G04 #@! TF.FileFunction,Copper,L1,Top,Signal*
%FSLAX46Y46*%
G04 Gerber Fmt 4.6, Leading zero omitted, Abs format (unit mm)*
G04 Created by KiCad (PCBNEW 4.0.2-stable) date 2017-11-27 2:33:33 PM*
%MOMM*%
G01*
G04 APERTURE LIST*
%ADD10C,0.200000*%
%ADD11R,1.200000X1.200000*%
%ADD12C,1.200000*%
%ADD13O,4.000000X2.500000*%
%ADD14O,2.500000X2.000000*%
%ADD15O,1.500000X3.500000*%
%ADD16R,1.700000X1.700000*%
%ADD17O,1.700000X1.700000*%
%ADD18O,2.800000X3.500000*%
%ADD19C,1.750000*%
%ADD20O,2.200000X1.400000*%
%ADD21O,2.250000X1.400000*%
%ADD22C,0.900000*%
%ADD23C,0.250000*%
G04 APERTURE END LIST*
D10*
D11*
X128710000Y-40730000D03*
D12*
X131250000Y-40730000D03*
D11*
X128710000Y-45730000D03*
D12*
X131250000Y-45730000D03*
D11*
X128710000Y-50730000D03*
D12*
X131250000Y-50730000D03*
D11*
X128710000Y-55730000D03*
D12*
X131250000Y-55730000D03*
D13*
X123100000Y-64950000D03*
D14*
X123100000Y-74350000D03*
D15*
X128000000Y-69650000D03*
X119800000Y-69650000D03*
D13*
X123600000Y-88950000D03*
D14*
X123600000Y-98350000D03*
D15*
X128500000Y-93650000D03*
X120300000Y-93650000D03*
D13*
X137100000Y-133450000D03*
D14*
X137100000Y-142850000D03*
D15*
X142000000Y-138150000D03*
X133800000Y-138150000D03*
D13*
X123100000Y-112950000D03*
D14*
X123100000Y-122350000D03*
D15*
X128000000Y-117650000D03*
X119800000Y-117650000D03*
D13*
X123100000Y-133460000D03*
D14*
X123100000Y-142860000D03*
D15*
X128000000Y-138160000D03*
X119800000Y-138160000D03*
D13*
X151100000Y-142850000D03*
D14*
X151100000Y-133450000D03*
D15*
X146200000Y-138150000D03*
X154400000Y-138150000D03*
D16*
X151500000Y-59250000D03*
D17*
X154040000Y-59250000D03*
X151500000Y-56710000D03*
X154040000Y-56710000D03*
X151500000Y-54170000D03*
X154040000Y-54170000D03*
X151500000Y-51630000D03*
X154040000Y-51630000D03*
X151500000Y-49090000D03*
X154040000Y-49090000D03*
D18*
X148890000Y-45650000D03*
X139290000Y-45650000D03*
D19*
X146590000Y-53150000D03*
X144090000Y-53150000D03*
X141590000Y-53150000D03*
D18*
X148890000Y-69650000D03*
X139290000Y-69650000D03*
D19*
X146590000Y-77150000D03*
X144090000Y-77150000D03*
X141590000Y-77150000D03*
D18*
X148890000Y-93650000D03*
X139290000Y-93650000D03*
D19*
X146590000Y-101150000D03*
X144090000Y-101150000D03*
X141590000Y-101150000D03*
D20*
X119850000Y-46000000D03*
X119850000Y-50500000D03*
D21*
X126350000Y-46000000D03*
X126350000Y-50500000D03*
D18*
X148890000Y-117650000D03*
X139290000Y-117650000D03*
D19*
X146590000Y-125150000D03*
X144090000Y-125150000D03*
X141590000Y-125150000D03*
D22*
X142700000Y-103350000D03*
X152500000Y-113000000D03*
X123500000Y-84500000D03*
D12*
X141800000Y-40000000D03*
X154200000Y-44100000D03*
X153350000Y-88700000D03*
X140950000Y-90250019D03*
X134472337Y-104615347D03*
X132600000Y-82600000D03*
X137750000Y-82600000D03*
X122000000Y-57250000D03*
X136150000Y-71300000D03*
X135562999Y-74814910D03*
X152900000Y-125850000D03*
X154700000Y-68100000D03*
X141800000Y-62900000D03*
X134746930Y-107566809D03*
X142300000Y-130650000D03*
X142300000Y-71100000D03*
X127350000Y-44400000D03*
X121538009Y-41678281D03*
X146450000Y-107850000D03*
X141200000Y-104450000D03*
X126500000Y-105900000D03*
X137765870Y-121867016D03*
X132601402Y-114800000D03*
X142550000Y-121050000D03*
X147000000Y-86450000D03*
X134100000Y-117350000D03*
D22*
X144250000Y-119800000D03*
X143050000Y-99350000D03*
X146350000Y-110400000D03*
X126950000Y-109100000D03*
X133535777Y-109110124D03*
X149500000Y-136400000D03*
D12*
X142450000Y-114600000D03*
X132400000Y-104650000D03*
X130700000Y-90250000D03*
X131999967Y-121150000D03*
X134044834Y-103133633D03*
X140250000Y-54750000D03*
X133750000Y-111375020D03*
X145300000Y-62750000D03*
X122527738Y-55500000D03*
X148450000Y-123100000D03*
X133750000Y-60350000D03*
X132150000Y-67400000D03*
X149750000Y-80400000D03*
X139000000Y-86750000D03*
X134999992Y-52750000D03*
X123225020Y-62272237D03*
X122527738Y-51306624D03*
X147800000Y-133400000D03*
X143200000Y-44100000D03*
X144550000Y-44100000D03*
X121700000Y-39800000D03*
X131650000Y-42750000D03*
X145850000Y-44100000D03*
X134400000Y-121200000D03*
X141735565Y-128704760D03*
X126465394Y-101751952D03*
X122150000Y-80600000D03*
X135550000Y-69300000D03*
X139650000Y-66750000D03*
X131600000Y-128300000D03*
X144749987Y-83594430D03*
X133300000Y-95600000D03*
X132056242Y-108000000D03*
X149800000Y-76200000D03*
X136000000Y-90094744D03*
X148150000Y-111650000D03*
X152472460Y-76188006D03*
X149800360Y-62200000D03*
X149800360Y-63650000D03*
D22*
X120400002Y-105250000D03*
X138500000Y-114000000D03*
X151599996Y-87700000D03*
X130000000Y-60700000D03*
X141100000Y-74050002D03*
X148500000Y-75249994D03*
X147250000Y-90600000D03*
X142000000Y-87699980D03*
X152500000Y-104850000D03*
X123850000Y-78100000D03*
X137976943Y-119674980D03*
X129900000Y-128300000D03*
X154150002Y-71050000D03*
X135800000Y-128700000D03*
X138200000Y-76600000D03*
X150550000Y-131600000D03*
X127340414Y-100787720D03*
X151300000Y-123849994D03*
X138200000Y-80550000D03*
X132374980Y-98231268D03*
X130300000Y-110900000D03*
X141350000Y-97500000D03*
X135250016Y-63450014D03*
X132307775Y-105999988D03*
X127189176Y-52221971D03*
X134332839Y-105907853D03*
X121325180Y-52917000D03*
X127514197Y-60500000D03*
X127514197Y-53500000D03*
D23*
X150250000Y-97250000D02*
X150250000Y-97500000D01*
X145713604Y-110400000D02*
X146350000Y-110400000D01*
X126950000Y-109100000D02*
X129897002Y-109100000D01*
X131197002Y-110400000D02*
X145713604Y-110400000D01*
X129897002Y-109100000D02*
X131197002Y-110400000D01*
X128700003Y-113550001D02*
X120850001Y-105699999D01*
X120850001Y-105699999D02*
X120400002Y-105250000D01*
X138500000Y-114000000D02*
X138050001Y-113550001D01*
X138050001Y-113550001D02*
X128700003Y-113550001D01*
X130000000Y-60700000D02*
X130000000Y-89400000D01*
X130000000Y-89400000D02*
X128500000Y-90900000D01*
X128500000Y-90900000D02*
X128500000Y-93650000D01*
X145715001Y-102024999D02*
X146590000Y-101150000D01*
X142314999Y-105425001D02*
X145715001Y-102024999D01*
X131000011Y-98150011D02*
X138275001Y-105425001D01*
X131000011Y-97150011D02*
X131000011Y-98150011D01*
X128500000Y-94650000D02*
X131000011Y-97150011D01*
X138275001Y-105425001D02*
X142314999Y-105425001D01*
X128500000Y-93650000D02*
X128500000Y-94650000D01*
X142000000Y-136150000D02*
X142000000Y-138150000D01*
X143750000Y-129802998D02*
X143750000Y-134400000D01*
X150754011Y-87092989D02*
X150754011Y-122798987D01*
X151472001Y-86374999D02*
X150754011Y-87092989D01*
X150754011Y-122798987D02*
X143750000Y-129802998D01*
X151472001Y-76135605D02*
X151472001Y-86374999D01*
X149386398Y-74050002D02*
X151472001Y-76135605D01*
X141100000Y-74050002D02*
X149386398Y-74050002D01*
X143750000Y-134400000D02*
X142000000Y-136150000D01*
X128000000Y-117650000D02*
X128000000Y-120250000D01*
X129025001Y-129825001D02*
X141681997Y-129825001D01*
X128000000Y-120250000D02*
X127350000Y-120900000D01*
X127350000Y-120900000D02*
X125700000Y-120900000D01*
X125700000Y-120900000D02*
X125300000Y-121300000D01*
X125300000Y-121300000D02*
X125300000Y-126100000D01*
X145715001Y-126328001D02*
X145715001Y-126024999D01*
X125300000Y-126100000D02*
X129025001Y-129825001D01*
X142368003Y-129674999D02*
X145715001Y-126328001D01*
X141681997Y-129825001D02*
X141831999Y-129674999D01*
X141831999Y-129674999D02*
X142368003Y-129674999D01*
X145715001Y-126024999D02*
X146590000Y-125150000D01*
X148500000Y-75886390D02*
X148500000Y-75249994D01*
X148500000Y-89350000D02*
X148500000Y-75886390D01*
X147250000Y-90600000D02*
X148500000Y-89350000D01*
X129900000Y-128300000D02*
X137976943Y-120223057D01*
X137976943Y-120223057D02*
X137976943Y-119674980D01*
X136249999Y-128250001D02*
X135800000Y-128700000D01*
X136770241Y-127729759D02*
X136249999Y-128250001D01*
X144090000Y-125150000D02*
X141510241Y-127729759D01*
X141510241Y-127729759D02*
X136770241Y-127729759D01*
X138200000Y-75963604D02*
X138200000Y-76600000D01*
X141831999Y-72075001D02*
X138200000Y-75707000D01*
X151425001Y-72075001D02*
X141831999Y-72075001D01*
X154375001Y-127774999D02*
X154375001Y-75025001D01*
X138200000Y-75707000D02*
X138200000Y-75963604D01*
X150550000Y-131600000D02*
X154375001Y-127774999D01*
X154375001Y-75025001D02*
X151425001Y-72075001D01*
X134650000Y-83463604D02*
X137563604Y-80550000D01*
X134650000Y-95956248D02*
X134650000Y-83463604D01*
X132374980Y-98231268D02*
X134650000Y-95956248D01*
X137563604Y-80550000D02*
X138200000Y-80550000D01*
X119850000Y-46000000D02*
X126350000Y-46000000D01*
X135250016Y-63450014D02*
X134574999Y-64125031D01*
X142100000Y-91200000D02*
X146000000Y-95100000D01*
X134574999Y-64125031D02*
X134574999Y-75427997D01*
X134574999Y-75427997D02*
X140800000Y-81652998D01*
X146000000Y-95100000D02*
X146000000Y-96650000D01*
X140800000Y-81652998D02*
X140800000Y-88450000D01*
X140800000Y-88450000D02*
X142100000Y-89750000D01*
X142100000Y-89750000D02*
X142100000Y-91200000D01*
X146000000Y-96650000D02*
X146450000Y-97100000D01*
X145900000Y-99100000D02*
X144350000Y-99100000D01*
X146450000Y-97100000D02*
X146450000Y-98550000D01*
X146450000Y-98550000D02*
X145900000Y-99100000D01*
X144350000Y-99100000D02*
X144090000Y-99360000D01*
X144090000Y-99360000D02*
X144090000Y-101150000D01*
X130550000Y-98150000D02*
X130550000Y-105550000D01*
X125600000Y-53811147D02*
X125600000Y-63765479D01*
X127100000Y-97150000D02*
X129550000Y-97150000D01*
X127189176Y-52221971D02*
X125600000Y-53811147D01*
X125600000Y-63765479D02*
X125925021Y-64090499D01*
X129550000Y-97150000D02*
X130550000Y-98150000D01*
X125925021Y-64090499D02*
X125925021Y-65809501D01*
X126050000Y-90184521D02*
X126050000Y-96100000D01*
X125925021Y-65809501D02*
X125600000Y-66134521D01*
X126050000Y-96100000D02*
X127100000Y-97150000D01*
X130999988Y-105999988D02*
X132307775Y-105999988D01*
X125600000Y-66134521D02*
X125600000Y-87265478D01*
X125600000Y-87265478D02*
X126425021Y-88090499D01*
X126425021Y-88090499D02*
X126425021Y-89809501D01*
X126425021Y-89809501D02*
X126050000Y-90184521D01*
X130550000Y-105550000D02*
X130999988Y-105999988D01*
X133882840Y-106357852D02*
X134332839Y-105907853D01*
X125399989Y-103356987D02*
X128993002Y-106950000D01*
X125475010Y-64276899D02*
X125475010Y-65623101D01*
X125149989Y-87451878D02*
X125975010Y-88276899D01*
X125975010Y-88276899D02*
X125975010Y-89623101D01*
X128993002Y-106950000D02*
X133290692Y-106950000D01*
X125149989Y-56741809D02*
X125149989Y-63951878D01*
X125475010Y-65623101D02*
X125149989Y-65948122D01*
X125399989Y-90198122D02*
X125399989Y-103356987D01*
X133290692Y-106950000D02*
X133882840Y-106357852D01*
X125975010Y-89623101D02*
X125399989Y-90198122D01*
X121325180Y-52917000D02*
X125149989Y-56741809D01*
X125149989Y-63951878D02*
X125475010Y-64276899D01*
X125149989Y-65948122D02*
X125149989Y-87451878D01*
X127514197Y-54136396D02*
X127514197Y-60500000D01*
X127514197Y-53500000D02*
X127514197Y-54136396D01*
M02*
