G04 #@! TF.FileFunction,Legend,Top*
%FSLAX46Y46*%
G04 Gerber Fmt 4.6, Leading zero omitted, Abs format (unit mm)*
G04 Created by KiCad (PCBNEW 4.0.2-stable) date 2017-11-27 2:33:33 PM*
%MOMM*%
G01*
G04 APERTURE LIST*
%ADD10C,0.200000*%
%ADD11C,0.150000*%
%ADD12C,0.381000*%
%ADD13R,1.300000X1.300000*%
%ADD14C,1.300000*%
%ADD15O,4.100000X2.600000*%
%ADD16O,2.600000X2.100000*%
%ADD17O,1.600000X3.600000*%
%ADD18R,1.800000X1.800000*%
%ADD19O,1.800000X1.800000*%
%ADD20O,2.900000X3.600000*%
%ADD21C,1.850000*%
%ADD22O,2.300000X1.500000*%
%ADD23O,2.350000X1.500000*%
G04 APERTURE END LIST*
D10*
D11*
X131280000Y-40730000D02*
X131480000Y-40730000D01*
X128780000Y-40730000D02*
X128480000Y-40730000D01*
X130380000Y-40730000D02*
X131280000Y-40730000D01*
X128780000Y-40730000D02*
X129680000Y-40730000D01*
X130380000Y-40230000D02*
X130380000Y-41230000D01*
X129680000Y-40230000D02*
X129680000Y-41230000D01*
X129680000Y-41230000D02*
X130380000Y-40730000D01*
X130380000Y-40730000D02*
X129680000Y-40230000D01*
X131480000Y-40730000D02*
G75*
G03X131480000Y-40730000I-1500000J0D01*
G01*
X131280000Y-45730000D02*
X131480000Y-45730000D01*
X128780000Y-45730000D02*
X128480000Y-45730000D01*
X130380000Y-45730000D02*
X131280000Y-45730000D01*
X128780000Y-45730000D02*
X129680000Y-45730000D01*
X130380000Y-45230000D02*
X130380000Y-46230000D01*
X129680000Y-45230000D02*
X129680000Y-46230000D01*
X129680000Y-46230000D02*
X130380000Y-45730000D01*
X130380000Y-45730000D02*
X129680000Y-45230000D01*
X131480000Y-45730000D02*
G75*
G03X131480000Y-45730000I-1500000J0D01*
G01*
X131280000Y-50730000D02*
X131480000Y-50730000D01*
X128780000Y-50730000D02*
X128480000Y-50730000D01*
X130380000Y-50730000D02*
X131280000Y-50730000D01*
X128780000Y-50730000D02*
X129680000Y-50730000D01*
X130380000Y-50230000D02*
X130380000Y-51230000D01*
X129680000Y-50230000D02*
X129680000Y-51230000D01*
X129680000Y-51230000D02*
X130380000Y-50730000D01*
X130380000Y-50730000D02*
X129680000Y-50230000D01*
X131480000Y-50730000D02*
G75*
G03X131480000Y-50730000I-1500000J0D01*
G01*
X131280000Y-55730000D02*
X131480000Y-55730000D01*
X128780000Y-55730000D02*
X128480000Y-55730000D01*
X130380000Y-55730000D02*
X131280000Y-55730000D01*
X128780000Y-55730000D02*
X129680000Y-55730000D01*
X130380000Y-55230000D02*
X130380000Y-56230000D01*
X129680000Y-55230000D02*
X129680000Y-56230000D01*
X129680000Y-56230000D02*
X130380000Y-55730000D01*
X130380000Y-55730000D02*
X129680000Y-55230000D01*
X131480000Y-55730000D02*
G75*
G03X131480000Y-55730000I-1500000J0D01*
G01*
X126015476Y-69650000D02*
G75*
G03X126015476Y-69650000I-2915476J0D01*
G01*
X118100000Y-74650000D02*
X118100000Y-64650000D01*
X118100000Y-64650000D02*
X129100000Y-64650000D01*
X129100000Y-64650000D02*
X129100000Y-74650000D01*
X129100000Y-74650000D02*
X118100000Y-74650000D01*
X125100000Y-69650000D02*
G75*
G03X125100000Y-69650000I-2000000J0D01*
G01*
X126515476Y-93650000D02*
G75*
G03X126515476Y-93650000I-2915476J0D01*
G01*
X118600000Y-98650000D02*
X118600000Y-88650000D01*
X118600000Y-88650000D02*
X129600000Y-88650000D01*
X129600000Y-88650000D02*
X129600000Y-98650000D01*
X129600000Y-98650000D02*
X118600000Y-98650000D01*
X125600000Y-93650000D02*
G75*
G03X125600000Y-93650000I-2000000J0D01*
G01*
X140015476Y-138150000D02*
G75*
G03X140015476Y-138150000I-2915476J0D01*
G01*
X132100000Y-143150000D02*
X132100000Y-133150000D01*
X132100000Y-133150000D02*
X143100000Y-133150000D01*
X143100000Y-133150000D02*
X143100000Y-143150000D01*
X143100000Y-143150000D02*
X132100000Y-143150000D01*
X139100000Y-138150000D02*
G75*
G03X139100000Y-138150000I-2000000J0D01*
G01*
X126015476Y-117650000D02*
G75*
G03X126015476Y-117650000I-2915476J0D01*
G01*
X118100000Y-122650000D02*
X118100000Y-112650000D01*
X118100000Y-112650000D02*
X129100000Y-112650000D01*
X129100000Y-112650000D02*
X129100000Y-122650000D01*
X129100000Y-122650000D02*
X118100000Y-122650000D01*
X125100000Y-117650000D02*
G75*
G03X125100000Y-117650000I-2000000J0D01*
G01*
X126015476Y-138160000D02*
G75*
G03X126015476Y-138160000I-2915476J0D01*
G01*
X118100000Y-143160000D02*
X118100000Y-133160000D01*
X118100000Y-133160000D02*
X129100000Y-133160000D01*
X129100000Y-133160000D02*
X129100000Y-143160000D01*
X129100000Y-143160000D02*
X118100000Y-143160000D01*
X125100000Y-138160000D02*
G75*
G03X125100000Y-138160000I-2000000J0D01*
G01*
X154015476Y-138150000D02*
G75*
G03X154015476Y-138150000I-2915476J0D01*
G01*
X156100000Y-133150000D02*
X156100000Y-143150000D01*
X156100000Y-143150000D02*
X145100000Y-143150000D01*
X145100000Y-143150000D02*
X145100000Y-133150000D01*
X145100000Y-133150000D02*
X156100000Y-133150000D01*
X153100000Y-138150000D02*
G75*
G03X153100000Y-138150000I-2000000J0D01*
G01*
D12*
X146326068Y-45650000D02*
G75*
G03X146326068Y-45650000I-2236068J0D01*
G01*
X139090000Y-45650000D02*
X139090000Y-40650000D01*
X139090000Y-40650000D02*
X149090000Y-40650000D01*
X149090000Y-40650000D02*
X149090000Y-51650000D01*
X149090000Y-51650000D02*
X139090000Y-51650000D01*
X139090000Y-51650000D02*
X139090000Y-45650000D01*
X146326068Y-69650000D02*
G75*
G03X146326068Y-69650000I-2236068J0D01*
G01*
X139090000Y-69650000D02*
X139090000Y-64650000D01*
X139090000Y-64650000D02*
X149090000Y-64650000D01*
X149090000Y-64650000D02*
X149090000Y-75650000D01*
X149090000Y-75650000D02*
X139090000Y-75650000D01*
X139090000Y-75650000D02*
X139090000Y-69650000D01*
X146326068Y-93650000D02*
G75*
G03X146326068Y-93650000I-2236068J0D01*
G01*
X139090000Y-93650000D02*
X139090000Y-88650000D01*
X139090000Y-88650000D02*
X149090000Y-88650000D01*
X149090000Y-88650000D02*
X149090000Y-99650000D01*
X149090000Y-99650000D02*
X139090000Y-99650000D01*
X139090000Y-99650000D02*
X139090000Y-93650000D01*
D11*
X121850000Y-47000000D02*
X124350000Y-47000000D01*
X124350000Y-47000000D02*
X124350000Y-49500000D01*
X124350000Y-49500000D02*
X121850000Y-49500000D01*
X121850000Y-49500000D02*
X121850000Y-47000000D01*
X124920027Y-48250000D02*
G75*
G03X124920027Y-48250000I-1820027J0D01*
G01*
X120100000Y-45250000D02*
X126100000Y-45250000D01*
X126100000Y-45250000D02*
X126100000Y-51250000D01*
X126100000Y-51250000D02*
X120100000Y-51250000D01*
X120100000Y-51250000D02*
X120100000Y-45250000D01*
D12*
X146326068Y-117650000D02*
G75*
G03X146326068Y-117650000I-2236068J0D01*
G01*
X139090000Y-117650000D02*
X139090000Y-112650000D01*
X139090000Y-112650000D02*
X149090000Y-112650000D01*
X149090000Y-112650000D02*
X149090000Y-123650000D01*
X149090000Y-123650000D02*
X139090000Y-123650000D01*
X139090000Y-123650000D02*
X139090000Y-117650000D01*
D11*
X132400077Y-41117695D02*
X132400077Y-40304895D01*
X132593601Y-40304895D01*
X132709715Y-40343600D01*
X132787124Y-40421010D01*
X132825829Y-40498419D01*
X132864534Y-40653238D01*
X132864534Y-40769352D01*
X132825829Y-40924171D01*
X132787124Y-41001581D01*
X132709715Y-41078990D01*
X132593601Y-41117695D01*
X132400077Y-41117695D01*
X133638629Y-41117695D02*
X133174172Y-41117695D01*
X133406401Y-41117695D02*
X133406401Y-40304895D01*
X133328991Y-40421010D01*
X133251582Y-40498419D01*
X133174172Y-40537124D01*
X132400077Y-46117695D02*
X132400077Y-45304895D01*
X132593601Y-45304895D01*
X132709715Y-45343600D01*
X132787124Y-45421010D01*
X132825829Y-45498419D01*
X132864534Y-45653238D01*
X132864534Y-45769352D01*
X132825829Y-45924171D01*
X132787124Y-46001581D01*
X132709715Y-46078990D01*
X132593601Y-46117695D01*
X132400077Y-46117695D01*
X133174172Y-45382305D02*
X133212877Y-45343600D01*
X133290286Y-45304895D01*
X133483810Y-45304895D01*
X133561220Y-45343600D01*
X133599924Y-45382305D01*
X133638629Y-45459714D01*
X133638629Y-45537124D01*
X133599924Y-45653238D01*
X133135467Y-46117695D01*
X133638629Y-46117695D01*
X132400077Y-51117695D02*
X132400077Y-50304895D01*
X132593601Y-50304895D01*
X132709715Y-50343600D01*
X132787124Y-50421010D01*
X132825829Y-50498419D01*
X132864534Y-50653238D01*
X132864534Y-50769352D01*
X132825829Y-50924171D01*
X132787124Y-51001581D01*
X132709715Y-51078990D01*
X132593601Y-51117695D01*
X132400077Y-51117695D01*
X133135467Y-50304895D02*
X133638629Y-50304895D01*
X133367696Y-50614533D01*
X133483810Y-50614533D01*
X133561220Y-50653238D01*
X133599924Y-50691943D01*
X133638629Y-50769352D01*
X133638629Y-50962876D01*
X133599924Y-51040286D01*
X133561220Y-51078990D01*
X133483810Y-51117695D01*
X133251582Y-51117695D01*
X133174172Y-51078990D01*
X133135467Y-51040286D01*
X132400077Y-56117695D02*
X132400077Y-55304895D01*
X132593601Y-55304895D01*
X132709715Y-55343600D01*
X132787124Y-55421010D01*
X132825829Y-55498419D01*
X132864534Y-55653238D01*
X132864534Y-55769352D01*
X132825829Y-55924171D01*
X132787124Y-56001581D01*
X132709715Y-56078990D01*
X132593601Y-56117695D01*
X132400077Y-56117695D01*
X133561220Y-55575829D02*
X133561220Y-56117695D01*
X133367696Y-55266190D02*
X133174172Y-55846762D01*
X133677334Y-55846762D01*
X119000000Y-72928571D02*
X119000000Y-74000000D01*
X118928572Y-74214286D01*
X118785715Y-74357143D01*
X118571429Y-74428571D01*
X118428572Y-74428571D01*
X120500000Y-74428571D02*
X119642857Y-74428571D01*
X120071429Y-74428571D02*
X120071429Y-72928571D01*
X119928572Y-73142857D01*
X119785714Y-73285714D01*
X119642857Y-73357143D01*
X119500000Y-96928571D02*
X119500000Y-98000000D01*
X119428572Y-98214286D01*
X119285715Y-98357143D01*
X119071429Y-98428571D01*
X118928572Y-98428571D01*
X120142857Y-97071429D02*
X120214286Y-97000000D01*
X120357143Y-96928571D01*
X120714286Y-96928571D01*
X120857143Y-97000000D01*
X120928572Y-97071429D01*
X121000000Y-97214286D01*
X121000000Y-97357143D01*
X120928572Y-97571429D01*
X120071429Y-98428571D01*
X121000000Y-98428571D01*
X133000000Y-141428571D02*
X133000000Y-142500000D01*
X132928572Y-142714286D01*
X132785715Y-142857143D01*
X132571429Y-142928571D01*
X132428572Y-142928571D01*
X133571429Y-141428571D02*
X134500000Y-141428571D01*
X134000000Y-142000000D01*
X134214286Y-142000000D01*
X134357143Y-142071429D01*
X134428572Y-142142857D01*
X134500000Y-142285714D01*
X134500000Y-142642857D01*
X134428572Y-142785714D01*
X134357143Y-142857143D01*
X134214286Y-142928571D01*
X133785714Y-142928571D01*
X133642857Y-142857143D01*
X133571429Y-142785714D01*
X119000000Y-120928571D02*
X119000000Y-122000000D01*
X118928572Y-122214286D01*
X118785715Y-122357143D01*
X118571429Y-122428571D01*
X118428572Y-122428571D01*
X120357143Y-121428571D02*
X120357143Y-122428571D01*
X120000000Y-120857143D02*
X119642857Y-121928571D01*
X120571429Y-121928571D01*
X119000000Y-141178571D02*
X119000000Y-142250000D01*
X118928572Y-142464286D01*
X118785715Y-142607143D01*
X118571429Y-142678571D01*
X118428572Y-142678571D01*
X120428572Y-141178571D02*
X119714286Y-141178571D01*
X119642857Y-141892857D01*
X119714286Y-141821429D01*
X119857143Y-141750000D01*
X120214286Y-141750000D01*
X120357143Y-141821429D01*
X120428572Y-141892857D01*
X120500000Y-142035714D01*
X120500000Y-142392857D01*
X120428572Y-142535714D01*
X120357143Y-142607143D01*
X120214286Y-142678571D01*
X119857143Y-142678571D01*
X119714286Y-142607143D01*
X119642857Y-142535714D01*
X146000000Y-141428571D02*
X146000000Y-142500000D01*
X145928572Y-142714286D01*
X145785715Y-142857143D01*
X145571429Y-142928571D01*
X145428572Y-142928571D01*
X147357143Y-141428571D02*
X147071429Y-141428571D01*
X146928572Y-141500000D01*
X146857143Y-141571429D01*
X146714286Y-141785714D01*
X146642857Y-142071429D01*
X146642857Y-142642857D01*
X146714286Y-142785714D01*
X146785714Y-142857143D01*
X146928572Y-142928571D01*
X147214286Y-142928571D01*
X147357143Y-142857143D01*
X147428572Y-142785714D01*
X147500000Y-142642857D01*
X147500000Y-142285714D01*
X147428572Y-142142857D01*
X147357143Y-142071429D01*
X147214286Y-142000000D01*
X146928572Y-142000000D01*
X146785714Y-142071429D01*
X146714286Y-142142857D01*
X146642857Y-142285714D01*
X142125715Y-54328571D02*
X142625715Y-55828571D01*
X143125715Y-54328571D01*
X144482858Y-55828571D02*
X143982858Y-55114286D01*
X143625715Y-55828571D02*
X143625715Y-54328571D01*
X144197143Y-54328571D01*
X144340001Y-54400000D01*
X144411429Y-54471429D01*
X144482858Y-54614286D01*
X144482858Y-54828571D01*
X144411429Y-54971429D01*
X144340001Y-55042857D01*
X144197143Y-55114286D01*
X143625715Y-55114286D01*
X145911429Y-55828571D02*
X145054286Y-55828571D01*
X145482858Y-55828571D02*
X145482858Y-54328571D01*
X145340001Y-54542857D01*
X145197143Y-54685714D01*
X145054286Y-54757143D01*
X142125715Y-78328571D02*
X142625715Y-79828571D01*
X143125715Y-78328571D01*
X144482858Y-79828571D02*
X143982858Y-79114286D01*
X143625715Y-79828571D02*
X143625715Y-78328571D01*
X144197143Y-78328571D01*
X144340001Y-78400000D01*
X144411429Y-78471429D01*
X144482858Y-78614286D01*
X144482858Y-78828571D01*
X144411429Y-78971429D01*
X144340001Y-79042857D01*
X144197143Y-79114286D01*
X143625715Y-79114286D01*
X145054286Y-78471429D02*
X145125715Y-78400000D01*
X145268572Y-78328571D01*
X145625715Y-78328571D01*
X145768572Y-78400000D01*
X145840001Y-78471429D01*
X145911429Y-78614286D01*
X145911429Y-78757143D01*
X145840001Y-78971429D01*
X144982858Y-79828571D01*
X145911429Y-79828571D01*
X142125715Y-102328571D02*
X142625715Y-103828571D01*
X143125715Y-102328571D01*
X144482858Y-103828571D02*
X143982858Y-103114286D01*
X143625715Y-103828571D02*
X143625715Y-102328571D01*
X144197143Y-102328571D01*
X144340001Y-102400000D01*
X144411429Y-102471429D01*
X144482858Y-102614286D01*
X144482858Y-102828571D01*
X144411429Y-102971429D01*
X144340001Y-103042857D01*
X144197143Y-103114286D01*
X143625715Y-103114286D01*
X144982858Y-102328571D02*
X145911429Y-102328571D01*
X145411429Y-102900000D01*
X145625715Y-102900000D01*
X145768572Y-102971429D01*
X145840001Y-103042857D01*
X145911429Y-103185714D01*
X145911429Y-103542857D01*
X145840001Y-103685714D01*
X145768572Y-103757143D01*
X145625715Y-103828571D01*
X145197143Y-103828571D01*
X145054286Y-103757143D01*
X144982858Y-103685714D01*
X121666667Y-52654762D02*
X121809524Y-52702381D01*
X122047620Y-52702381D01*
X122142858Y-52654762D01*
X122190477Y-52607143D01*
X122238096Y-52511905D01*
X122238096Y-52416667D01*
X122190477Y-52321429D01*
X122142858Y-52273810D01*
X122047620Y-52226190D01*
X121857143Y-52178571D01*
X121761905Y-52130952D01*
X121714286Y-52083333D01*
X121666667Y-51988095D01*
X121666667Y-51892857D01*
X121714286Y-51797619D01*
X121761905Y-51750000D01*
X121857143Y-51702381D01*
X122095239Y-51702381D01*
X122238096Y-51750000D01*
X122571429Y-51702381D02*
X122809524Y-52702381D01*
X123000001Y-51988095D01*
X123190477Y-52702381D01*
X123428572Y-51702381D01*
X124333334Y-52702381D02*
X123761905Y-52702381D01*
X124047619Y-52702381D02*
X124047619Y-51702381D01*
X123952381Y-51845238D01*
X123857143Y-51940476D01*
X123761905Y-51988095D01*
X142125715Y-126328571D02*
X142625715Y-127828571D01*
X143125715Y-126328571D01*
X144482858Y-127828571D02*
X143982858Y-127114286D01*
X143625715Y-127828571D02*
X143625715Y-126328571D01*
X144197143Y-126328571D01*
X144340001Y-126400000D01*
X144411429Y-126471429D01*
X144482858Y-126614286D01*
X144482858Y-126828571D01*
X144411429Y-126971429D01*
X144340001Y-127042857D01*
X144197143Y-127114286D01*
X143625715Y-127114286D01*
X145768572Y-126328571D02*
X145482858Y-126328571D01*
X145340001Y-126400000D01*
X145268572Y-126471429D01*
X145125715Y-126685714D01*
X145054286Y-126971429D01*
X145054286Y-127542857D01*
X145125715Y-127685714D01*
X145197143Y-127757143D01*
X145340001Y-127828571D01*
X145625715Y-127828571D01*
X145768572Y-127757143D01*
X145840001Y-127685714D01*
X145911429Y-127542857D01*
X145911429Y-127185714D01*
X145840001Y-127042857D01*
X145768572Y-126971429D01*
X145625715Y-126900000D01*
X145340001Y-126900000D01*
X145197143Y-126971429D01*
X145125715Y-127042857D01*
X145054286Y-127185714D01*
%LPC*%
D13*
X128710000Y-40730000D03*
D14*
X131250000Y-40730000D03*
D13*
X128710000Y-45730000D03*
D14*
X131250000Y-45730000D03*
D13*
X128710000Y-50730000D03*
D14*
X131250000Y-50730000D03*
D13*
X128710000Y-55730000D03*
D14*
X131250000Y-55730000D03*
D15*
X123100000Y-64950000D03*
D16*
X123100000Y-74350000D03*
D17*
X128000000Y-69650000D03*
X119800000Y-69650000D03*
D15*
X123600000Y-88950000D03*
D16*
X123600000Y-98350000D03*
D17*
X128500000Y-93650000D03*
X120300000Y-93650000D03*
D15*
X137100000Y-133450000D03*
D16*
X137100000Y-142850000D03*
D17*
X142000000Y-138150000D03*
X133800000Y-138150000D03*
D15*
X123100000Y-112950000D03*
D16*
X123100000Y-122350000D03*
D17*
X128000000Y-117650000D03*
X119800000Y-117650000D03*
D15*
X123100000Y-133460000D03*
D16*
X123100000Y-142860000D03*
D17*
X128000000Y-138160000D03*
X119800000Y-138160000D03*
D15*
X151100000Y-142850000D03*
D16*
X151100000Y-133450000D03*
D17*
X146200000Y-138150000D03*
X154400000Y-138150000D03*
D18*
X151500000Y-59250000D03*
D19*
X154040000Y-59250000D03*
X151500000Y-56710000D03*
X154040000Y-56710000D03*
X151500000Y-54170000D03*
X154040000Y-54170000D03*
X151500000Y-51630000D03*
X154040000Y-51630000D03*
X151500000Y-49090000D03*
X154040000Y-49090000D03*
D20*
X148890000Y-45650000D03*
X139290000Y-45650000D03*
D21*
X146590000Y-53150000D03*
X144090000Y-53150000D03*
X141590000Y-53150000D03*
D20*
X148890000Y-69650000D03*
X139290000Y-69650000D03*
D21*
X146590000Y-77150000D03*
X144090000Y-77150000D03*
X141590000Y-77150000D03*
D20*
X148890000Y-93650000D03*
X139290000Y-93650000D03*
D21*
X146590000Y-101150000D03*
X144090000Y-101150000D03*
X141590000Y-101150000D03*
D22*
X119850000Y-46000000D03*
X119850000Y-50500000D03*
D23*
X126350000Y-46000000D03*
X126350000Y-50500000D03*
D20*
X148890000Y-117650000D03*
X139290000Y-117650000D03*
D21*
X146590000Y-125150000D03*
X144090000Y-125150000D03*
X141590000Y-125150000D03*
M02*
