<?xml version="1.0" standalone="no"?>
 <!DOCTYPE svg PUBLIC "-//W3C//DTD SVG 1.1//EN" 
 "http://www.w3.org/Graphics/SVG/1.1/DTD/svg11.dtd"> 
<svg xmlns="http://www.w3.org/2000/svg" version="1.1" 
    width="29.7002cm" height="21.0007cm" viewBox="0 0 116930 82680 ">
<title>SVG Picture created as 860-Eco1.User.svg date 2018/02/08 11:13:33 </title>
  <desc>Picture generated by PCBNEW </desc>
<g style="fill:#000000; fill-opacity:1;stroke:#000000; stroke-opacity:1;
stroke-linecap:round; stroke-linejoin:round; "
 transform="translate(0 0) scale(1 1)">
</g>
<g style="fill:#000000; fill-opacity:0.0; 
stroke:#000000; stroke-width:-0.000393701; stroke-opacity:1; 
stroke-linecap:round; stroke-linejoin:round;">
</g>
<g style="fill:#000000; fill-opacity:0.0; 
stroke:#000000; stroke-width:39.3701; stroke-opacity:1; 
stroke-linecap:round; stroke-linejoin:round;">
<path d="M55741 17972
L57709 17972
" />
<path d="M51172 18987
L51172 18987
" />
<path d="M56725 18956
L56725 18956
" />
<path d="M51172 18987
L51172 18987
" />
<path d="M51172 17019
L51172 15050
" />
<path d="M56725 28405
L56725 28405
" />
<path d="M51172 17019
L51172 17019
" />
<path d="M50188 18003
L52157 18003
" />
<path d="M52157 19972
L52157 19972
" />
<path d="M52157 18003
L52157 18003
" />
<path d="M56725 28405
L56725 28405
" />
<path d="M51172 15050
L51172 15050
" />
<path d="M52157 19972
L52157 19972
" />
<path d="M57709 27421
L57709 27421
" />
<path d="M56725 16988
L56725 18956
" />
<path d="M56725 16988
L56725 18956
" />
<path d="M51172 20956
L51172 20956
" />
<path d="M56725 26436
L56725 28405
" />
<path d="M52157 18003
L52157 18003
" />
<path d="M50188 19972
L52157 19972
" />
<path d="M55741 17972
L57709 17972
" />
<path d="M51172 15050
L51172 15050
" />
<path d="M51172 22924
L51172 20956
" />
<path d="M52157 21940
L52157 21940
" />
<path d="M50188 16035
L52157 16035
" />
<path d="M52157 16035
L52157 16035
" />
<path d="M55741 27421
L57709 27421
" />
<path d="M51172 17019
L51172 17019
" />
<path d="M51172 18987
L51172 17019
" />
<path d="M56725 18956
L56725 18956
" />
<path d="M52157 21940
L52157 21940
" />
<path d="M51172 20956
L51172 18987
" />
<path d="M57709 27421
L57709 27421
" />
<path d="M57709 17972
L57709 17972
" />
<path d="M50188 21940
L52157 21940
" />
<path d="M52157 16035
L52157 16035
" />
<path d="M51172 20956
L51172 20956
" />
<path d="M57709 17972
L57709 17972
" />
<path d="M54960 54389
L54960 54389
" />
<path d="M56725 47303
L56725 47303
" />
<path d="M47480 27421
L49448 27421
" />
<path d="M53976 55374
L53976 55374
" />
<path d="M47677 36870
L49645 36870
" />
<path d="M48464 53405
L48464 55374
" />
<path d="M48464 47303
L48464 47303
" />
<path d="M49645 36870
L49645 36870
" />
<path d="M49645 36870
L49645 36870
" />
<path d="M56725 37854
L56725 37854
" />
<path d="M48464 19976
L48464 19976
" />
<path d="M57709 36870
L57709 36870
" />
<path d="M59488 53405
L59488 55374
" />
<path d="M48464 28405
L48464 28405
" />
<path d="M54960 54389
L54960 54389
" />
<path d="M49448 27421
L49448 27421
" />
<path d="M49448 18992
L49448 18992
" />
<path d="M52992 54389
L54960 54389
" />
<path d="M53976 55374
L53976 55374
" />
<path d="M47480 54389
L49448 54389
" />
<path d="M57709 46318
L57709 46318
" />
<path d="M56725 45334
L56725 47303
" />
<path d="M48661 37854
L48661 37854
" />
<path d="M49448 18992
L49448 18992
" />
<path d="M47480 18992
L49448 18992
" />
<path d="M48464 26437
L48464 28405
" />
<path d="M48464 18008
L48464 19976
" />
<path d="M49448 54389
L49448 54389
" />
<path d="M49448 54389
L49448 54389
" />
<path d="M48464 55374
L48464 55374
" />
<path d="M55741 46318
L57709 46318
" />
<path d="M48464 45334
L48464 47303
" />
<path d="M56725 47303
L56725 47303
" />
<path d="M48464 47303
L48464 47303
" />
<path d="M55741 36870
L57709 36870
" />
<path d="M60472 54389
L60472 54389
" />
<path d="M57709 36870
L57709 36870
" />
<path d="M53976 53405
L53976 55374
" />
<path d="M48464 55374
L48464 55374
" />
<path d="M56725 37854
L56725 37854
" />
<path d="M49448 46318
L49448 46318
" />
<path d="M47480 46318
L49448 46318
" />
<path d="M48661 37854
L48661 37854
" />
<path d="M56725 35885
L56725 37854
" />
<path d="M48464 28405
L48464 28405
" />
<path d="M49448 27421
L49448 27421
" />
<path d="M48464 19976
L48464 19976
" />
<path d="M60472 54389
L60472 54389
" />
<path d="M58503 54389
L60472 54389
" />
<path d="M57709 46318
L57709 46318
" />
<path d="M59488 55374
L59488 55374
" />
<path d="M49448 46318
L49448 46318
" />
<path d="M59488 55374
L59488 55374
" />
<path d="M48661 35885
L48661 37854
" />
</g> 
</svg>
