G04 #@! TF.FileFunction,Copper,L2,Inr,Signal*
%FSLAX46Y46*%
G04 Gerber Fmt 4.6, Leading zero omitted, Abs format (unit mm)*
G04 Created by KiCad (PCBNEW 4.0.2-stable) date 2017-11-27 2:33:33 PM*
%MOMM*%
G01*
G04 APERTURE LIST*
%ADD10C,0.200000*%
%ADD11R,1.200000X1.200000*%
%ADD12C,1.200000*%
%ADD13O,4.000000X2.500000*%
%ADD14O,2.500000X2.000000*%
%ADD15O,1.500000X3.500000*%
%ADD16R,1.700000X1.700000*%
%ADD17O,1.700000X1.700000*%
%ADD18O,2.800000X3.500000*%
%ADD19C,1.750000*%
%ADD20O,2.200000X1.400000*%
%ADD21O,2.250000X1.400000*%
%ADD22C,0.900000*%
%ADD23C,1.000000*%
%ADD24C,0.350000*%
G04 APERTURE END LIST*
D10*
D11*
X128710000Y-40730000D03*
D12*
X131250000Y-40730000D03*
D11*
X128710000Y-45730000D03*
D12*
X131250000Y-45730000D03*
D11*
X128710000Y-50730000D03*
D12*
X131250000Y-50730000D03*
D11*
X128710000Y-55730000D03*
D12*
X131250000Y-55730000D03*
D13*
X123100000Y-64950000D03*
D14*
X123100000Y-74350000D03*
D15*
X128000000Y-69650000D03*
X119800000Y-69650000D03*
D13*
X123600000Y-88950000D03*
D14*
X123600000Y-98350000D03*
D15*
X128500000Y-93650000D03*
X120300000Y-93650000D03*
D13*
X137100000Y-133450000D03*
D14*
X137100000Y-142850000D03*
D15*
X142000000Y-138150000D03*
X133800000Y-138150000D03*
D13*
X123100000Y-112950000D03*
D14*
X123100000Y-122350000D03*
D15*
X128000000Y-117650000D03*
X119800000Y-117650000D03*
D13*
X123100000Y-133460000D03*
D14*
X123100000Y-142860000D03*
D15*
X128000000Y-138160000D03*
X119800000Y-138160000D03*
D13*
X151100000Y-142850000D03*
D14*
X151100000Y-133450000D03*
D15*
X146200000Y-138150000D03*
X154400000Y-138150000D03*
D16*
X151500000Y-59250000D03*
D17*
X154040000Y-59250000D03*
X151500000Y-56710000D03*
X154040000Y-56710000D03*
X151500000Y-54170000D03*
X154040000Y-54170000D03*
X151500000Y-51630000D03*
X154040000Y-51630000D03*
X151500000Y-49090000D03*
X154040000Y-49090000D03*
D18*
X148890000Y-45650000D03*
X139290000Y-45650000D03*
D19*
X146590000Y-53150000D03*
X144090000Y-53150000D03*
X141590000Y-53150000D03*
D18*
X148890000Y-69650000D03*
X139290000Y-69650000D03*
D19*
X146590000Y-77150000D03*
X144090000Y-77150000D03*
X141590000Y-77150000D03*
D18*
X148890000Y-93650000D03*
X139290000Y-93650000D03*
D19*
X146590000Y-101150000D03*
X144090000Y-101150000D03*
X141590000Y-101150000D03*
D20*
X119850000Y-46000000D03*
X119850000Y-50500000D03*
D21*
X126350000Y-46000000D03*
X126350000Y-50500000D03*
D18*
X148890000Y-117650000D03*
X139290000Y-117650000D03*
D19*
X146590000Y-125150000D03*
X144090000Y-125150000D03*
X141590000Y-125150000D03*
D22*
X142700000Y-103350000D03*
X152500000Y-113000000D03*
X123500000Y-84500000D03*
D12*
X141800000Y-40000000D03*
X154200000Y-44100000D03*
X153350000Y-88700000D03*
X140950000Y-90250019D03*
X134472337Y-104615347D03*
X132600000Y-82600000D03*
X137750000Y-82600000D03*
X122000000Y-57250000D03*
X136150000Y-71300000D03*
X135562999Y-74814910D03*
X152900000Y-125850000D03*
X154700000Y-68100000D03*
X141800000Y-62900000D03*
X134746930Y-107566809D03*
X142300000Y-130650000D03*
X142300000Y-71100000D03*
X127350000Y-44400000D03*
X121538009Y-41678281D03*
X146450000Y-107850000D03*
X141200000Y-104450000D03*
X126500000Y-105900000D03*
X137765870Y-121867016D03*
X132601402Y-114800000D03*
X142550000Y-121050000D03*
X147000000Y-86450000D03*
X134100000Y-117350000D03*
D22*
X144250000Y-119800000D03*
X143050000Y-99350000D03*
X146350000Y-110400000D03*
X126950000Y-109100000D03*
X133535777Y-109110124D03*
X149500000Y-136400000D03*
D12*
X142450000Y-114600000D03*
X132400000Y-104650000D03*
X130700000Y-90250000D03*
X131999967Y-121150000D03*
X134044834Y-103133633D03*
X140250000Y-54750000D03*
X133750000Y-111375020D03*
X145300000Y-62750000D03*
X122527738Y-55500000D03*
X148450000Y-123100000D03*
X133750000Y-60350000D03*
X132150000Y-67400000D03*
X149750000Y-80400000D03*
X139000000Y-86750000D03*
X134999992Y-52750000D03*
X123225020Y-62272237D03*
X122527738Y-51306624D03*
X147800000Y-133400000D03*
X143200000Y-44100000D03*
X144550000Y-44100000D03*
X121700000Y-39800000D03*
X131650000Y-42750000D03*
X145850000Y-44100000D03*
X134400000Y-121200000D03*
X141735565Y-128704760D03*
X126465394Y-101751952D03*
X122150000Y-80600000D03*
X135550000Y-69300000D03*
X139650000Y-66750000D03*
X131600000Y-128300000D03*
X144749987Y-83594430D03*
X133300000Y-95600000D03*
X132056242Y-108000000D03*
X149800000Y-76200000D03*
X136000000Y-90094744D03*
X148150000Y-111650000D03*
X152472460Y-76188006D03*
X149800360Y-62200000D03*
X149800360Y-63650000D03*
D22*
X120400002Y-105250000D03*
X138500000Y-114000000D03*
X151599996Y-87700000D03*
X130000000Y-60700000D03*
X141100000Y-74050002D03*
X148500000Y-75249994D03*
X147250000Y-90600000D03*
X142000000Y-87699980D03*
X152500000Y-104850000D03*
X123850000Y-78100000D03*
X137976943Y-119674980D03*
X129900000Y-128300000D03*
X154150002Y-71050000D03*
X135800000Y-128700000D03*
X138200000Y-76600000D03*
X150550000Y-131600000D03*
X127340414Y-100787720D03*
X151300000Y-123849994D03*
X138200000Y-80550000D03*
X132374980Y-98231268D03*
X130300000Y-110900000D03*
X141350000Y-97500000D03*
X135250016Y-63450014D03*
X132307775Y-105999988D03*
X127189176Y-52221971D03*
X134332839Y-105907853D03*
X121325180Y-52917000D03*
X127514197Y-60500000D03*
X127514197Y-53500000D03*
D23*
X142450000Y-115448528D02*
X142450000Y-114600000D01*
X148450000Y-121850000D02*
X142450000Y-115850000D01*
X148450000Y-123100000D02*
X148450000Y-121850000D01*
X142450000Y-115850000D02*
X142450000Y-115448528D01*
X131100000Y-104650000D02*
X128300000Y-107450000D01*
X132400000Y-104650000D02*
X131100000Y-104650000D01*
X128300000Y-107450000D02*
X128300000Y-108521114D01*
X128300000Y-108521114D02*
X128314443Y-108535557D01*
X128314443Y-108535557D02*
X128314443Y-109600000D01*
X132400000Y-104650000D02*
X132528467Y-104650000D01*
X132528467Y-104650000D02*
X134044834Y-103133633D01*
X130700000Y-90250000D02*
X130700000Y-99788799D01*
X130700000Y-99788799D02*
X134044834Y-103133633D01*
D24*
X134044834Y-103133633D02*
X133916367Y-103133633D01*
D23*
X130700000Y-86750000D02*
X130700000Y-90250000D01*
X130700000Y-71050000D02*
X130700000Y-86750000D01*
X139000000Y-86750000D02*
X138151472Y-86750000D01*
X138151472Y-86750000D02*
X130700000Y-86750000D01*
X130700000Y-71050000D02*
X132150000Y-69600000D01*
X132150000Y-69600000D02*
X132150000Y-67400000D01*
X143101472Y-133400000D02*
X131999967Y-122298495D01*
X131999967Y-122298495D02*
X131999967Y-121998528D01*
X131999967Y-120301472D02*
X131999967Y-121150000D01*
X128314443Y-113114443D02*
X131999967Y-116799967D01*
X128314443Y-109600000D02*
X128314443Y-113114443D01*
X131999967Y-121998528D02*
X131999967Y-121150000D01*
X131999967Y-116799967D02*
X131999967Y-120301472D01*
X147800000Y-133400000D02*
X143101472Y-133400000D01*
X123825019Y-61672238D02*
X123225020Y-62272237D01*
X123825019Y-56797281D02*
X123825019Y-61672238D01*
X122527738Y-55500000D02*
X123825019Y-56797281D01*
X141750000Y-56250000D02*
X140250000Y-54750000D01*
X140250000Y-54750000D02*
X138200000Y-52700000D01*
X146590000Y-56250000D02*
X141750000Y-56250000D01*
X138200000Y-52700000D02*
X135049992Y-52700000D01*
X135049992Y-52700000D02*
X134999992Y-52750000D01*
D24*
X133150001Y-110775021D02*
X133750000Y-111375020D01*
X131974980Y-109600000D02*
X133150001Y-110775021D01*
X128314443Y-109600000D02*
X131974980Y-109600000D01*
D23*
X146590000Y-56250000D02*
X146590000Y-61460000D01*
X145899999Y-62150001D02*
X145300000Y-62750000D01*
X146590000Y-61460000D02*
X145899999Y-62150001D01*
X122527738Y-51306624D02*
X122527738Y-55500000D01*
X148450000Y-123948528D02*
X148450000Y-123100000D01*
X148450000Y-132750000D02*
X148450000Y-123948528D01*
X147800000Y-133400000D02*
X148450000Y-132750000D01*
X134999992Y-59100008D02*
X133750000Y-60350000D01*
X133750000Y-60350000D02*
X132150000Y-61950000D01*
X132150000Y-61950000D02*
X132150000Y-67400000D01*
X134999992Y-52750000D02*
X134999992Y-59100008D01*
D24*
X139599999Y-86150001D02*
X139000000Y-86750000D01*
X145350000Y-80400000D02*
X139599999Y-86150001D01*
X149750000Y-80400000D02*
X145350000Y-80400000D01*
D23*
X122527738Y-44872262D02*
X122527738Y-50458096D01*
X122527738Y-50458096D02*
X122527738Y-51306624D01*
X124650000Y-42750000D02*
X122527738Y-44872262D01*
X146590000Y-53150000D02*
X146590000Y-56250000D01*
X142400000Y-44100000D02*
X143200000Y-44100000D01*
X143200000Y-44100000D02*
X145850000Y-44100000D01*
X131650000Y-42750000D02*
X141050000Y-42750000D01*
X141050000Y-42750000D02*
X142400000Y-44100000D01*
X131650000Y-42750000D02*
X124650000Y-42750000D01*
X124650000Y-42750000D02*
X121700000Y-39800000D01*
X146590000Y-53150000D02*
X146590000Y-44840000D01*
X146590000Y-44840000D02*
X145850000Y-44100000D01*
X149800360Y-62200000D02*
X149800360Y-63650000D01*
X152472460Y-76188006D02*
X152472460Y-81327540D01*
X152472460Y-81327540D02*
X150350000Y-83450000D01*
X150350000Y-83450000D02*
X148000000Y-83450000D01*
X148000000Y-83450000D02*
X146351999Y-85098001D01*
X146351999Y-85098001D02*
X146351999Y-85099999D01*
X146351999Y-85099999D02*
X142551998Y-88900000D01*
X142551998Y-88900000D02*
X137194745Y-88899999D01*
X137194745Y-88899999D02*
X136599999Y-89494745D01*
X136599999Y-89494745D02*
X136000000Y-90094744D01*
D24*
X131600000Y-128300000D02*
X126074999Y-122774999D01*
X126074999Y-122774999D02*
X126074999Y-108275001D01*
X126074999Y-108275001D02*
X127525001Y-106824999D01*
X127525001Y-102811559D02*
X127065393Y-102351951D01*
X127525001Y-106824999D02*
X127525001Y-102811559D01*
X127065393Y-102351951D02*
X126465394Y-101751952D01*
D23*
X136500000Y-105700000D02*
X136500000Y-99500000D01*
X136500000Y-99500000D02*
X136000000Y-99000000D01*
X136000000Y-99000000D02*
X136000000Y-95600000D01*
X136500000Y-105700000D02*
X138700000Y-105700000D01*
X138700000Y-105700000D02*
X144650000Y-111650000D01*
X144650000Y-111650000D02*
X147301472Y-111650000D01*
X147301472Y-111650000D02*
X148150000Y-111650000D01*
X136500000Y-119100000D02*
X134999999Y-120600001D01*
D24*
X134400000Y-121369195D02*
X134400000Y-121200000D01*
D23*
X136500000Y-108150000D02*
X136500000Y-119100000D01*
D24*
X141735565Y-128704760D02*
X134400000Y-121369195D01*
D23*
X134999999Y-120600001D02*
X134400000Y-121200000D01*
D24*
X132056242Y-108000000D02*
X133663119Y-108000000D01*
X136058190Y-108591810D02*
X136500000Y-108150000D01*
X134254929Y-108591810D02*
X136058190Y-108591810D01*
X133663119Y-108000000D02*
X134254929Y-108591810D01*
X121174990Y-90324990D02*
X126465394Y-95615394D01*
X126465394Y-95615394D02*
X126465394Y-101751952D01*
X122150000Y-80600000D02*
X122150000Y-81448528D01*
X121174990Y-82423538D02*
X121174990Y-90324990D01*
X122150000Y-81448528D02*
X121174990Y-82423538D01*
X149200361Y-64249999D02*
X149800360Y-63650000D01*
X140425002Y-67525002D02*
X145925358Y-67525002D01*
X145925358Y-67525002D02*
X149200361Y-64249999D01*
X139650000Y-66750000D02*
X140425002Y-67525002D01*
X135550000Y-69300000D02*
X138100000Y-66750000D01*
X138100000Y-66750000D02*
X139650000Y-66750000D01*
X144749987Y-83594430D02*
X146255556Y-85099999D01*
X146255556Y-85099999D02*
X146351999Y-85099999D01*
D23*
X136000000Y-95600000D02*
X136000000Y-90943272D01*
X133300000Y-95600000D02*
X136000000Y-95600000D01*
X136500000Y-105700000D02*
X136500000Y-108150000D01*
D24*
X149800000Y-76200000D02*
X152460466Y-76200000D01*
X152460466Y-76200000D02*
X152472460Y-76188006D01*
D23*
X136000000Y-90943272D02*
X136000000Y-90094744D01*
X149800360Y-63650000D02*
X152472460Y-66322100D01*
X152472460Y-66322100D02*
X152472460Y-76188006D01*
M02*
