M48
INCH,TZ
T1C0.018
T2C0.020
T3C0.024
T4C0.026
T5C0.039
T6C0.087
%
G90
G05
T1
X47402Y-41437
X47766Y-20833
X48622Y-33268
X48760Y-30748
X49980Y-42953
X50074Y-20560
X50134Y-39680
X50202Y-21063
X50202Y-23819
X51142Y-50512
X51181Y-23898
X51299Y-43661
X52090Y-41732
X52116Y-38674
X52573Y-42957
X52887Y-41696
X53248Y-24980
X53465Y-50669
X54322Y-47116
X54409Y-30157
X54409Y-31713
X54528Y-44882
X55551Y-29154
X55650Y-38386
X55906Y-34528
X56181Y-40689
X56319Y-39114
X56791Y-47165
X57618Y-43465
X57972Y-35669
X58465Y-29626
X58858Y-53701
X59272Y-51811
X59567Y-48760
X59685Y-34528
X60039Y-41280
X60039Y-44488
X60689Y-27972
T3
X47850Y-16409
X47913Y-15669
X48031Y-22539
X48091Y-31732
X48239Y-20199
X48239Y-21850
X48514Y-24517
X49790Y-40060
X49803Y-41693
X50138Y-17480
X51457Y-35531
X51811Y-50512
X51831Y-16831
X51968Y-47697
X51991Y-42520
X52028Y-26535
X52126Y-41201
X52205Y-32520
X52205Y-45197
X52480Y-37638
X52657Y-23760
X52657Y-43848
X52774Y-40604
X52795Y-46201
X52913Y-47717
X52942Y-41187
X53050Y-42349
X53150Y-20768
X53366Y-27283
X53371Y-29455
X53543Y-35470
X53602Y-28071
X54232Y-32520
X54239Y-47979
X54724Y-34154
X54980Y-26280
X55217Y-21555
X55492Y-35532
X55591Y-41122
X55801Y-50671
X55827Y-15748
X55827Y-24764
X56024Y-27992
X56024Y-51437
X56083Y-45118
X56122Y-47657
X56378Y-17362
X56909Y-17362
X56988Y-32911
X57205Y-24705
X57421Y-17362
X57657Y-42461
X57874Y-34035
X58189Y-52520
X58327Y-43957
X58445Y-48465
X58957Y-31654
X58976Y-30000
X58977Y-24488
X58977Y-25059
X60029Y-29995
X60197Y-49547
X60374Y-34921
X60709Y-17362
X60906Y-26811
T4
X50673Y-16035
X50673Y-18004
X50673Y-19972
X50673Y-21941
X51673Y-16035
X51673Y-18004
X51673Y-19972
X51673Y-21941
T5
X47185Y-18110
X47185Y-19882
X49744Y-18110
X49744Y-19882
X55744Y-20925
X55744Y-30374
X55744Y-39823
X55744Y-49272
X56728Y-20925
X56728Y-30374
X56728Y-39823
X56728Y-49272
X57713Y-20925
X57713Y-30374
X57713Y-39823
X57713Y-49272
X59646Y-19327
X59646Y-20327
X59646Y-21327
X59646Y-22327
X59646Y-23327
X60646Y-19327
X60646Y-20327
X60646Y-21327
X60646Y-22327
X60646Y-23327
T6
X54839Y-17972
X54839Y-27421
X54839Y-36870
X54839Y-46319
X58618Y-17972
X58618Y-27421
X58618Y-36870
X58618Y-46319
T2
X47165Y-27028G85X47165Y-27815
G05
X47165Y-45925G85X47165Y-46713
G05
X47165Y-54000G85X47165Y-54787
G05
X47362Y-36476G85X47362Y-37264
G05
X50394Y-27028G85X50394Y-27815
G05
X50394Y-45925G85X50394Y-46713
G05
X50394Y-54000G85X50394Y-54787
G05
X50591Y-36476G85X50591Y-37264
G05
X52677Y-53996G85X52677Y-54783
G05
X55906Y-53996G85X55906Y-54783
G05
X57559Y-54783G85X57559Y-53996
G05
X60787Y-54783G85X60787Y-53996
G05
T5
X48760Y-25571G85X48169Y-25571
G05
X48563Y-29272G85X48366Y-29272
G05
X48760Y-44469G85X48169Y-44469
G05
X48563Y-48169G85X48366Y-48169
G05
X48760Y-52543G85X48169Y-52543
G05
X48563Y-56244G85X48366Y-56244
G05
X48957Y-35020G85X48366Y-35020
G05
X48760Y-38720G85X48563Y-38720
G05
X54272Y-52539G85X53681Y-52539
G05
X54075Y-56240G85X53878Y-56240
G05
X59390Y-52539G85X59587Y-52539
G05
X59193Y-56240G85X59783Y-56240
G05
T0
M30
