M48
;DRILL file {KiCad 4.0.2-stable} date 2019-06-10 3:09:28 PM
;FORMAT={2:4/ absolute / inch / suppress leading zeros}
FMAT,2
INCH,TZ
T1C0.018
T2C0.020
T3C0.024
T4C0.026
T5C0.039
T6C0.047
T7C0.125
%
G90
G05
M72
T1
X44209Y-34291
X44573Y-13688
X45567Y-23602
X46299Y-26142
X46787Y-35807
X47001Y-13522
X47010Y-16673
X47014Y-13954
X47516Y-32579
X47988Y-16752
X48053Y-43343
X48118Y-36498
X48884Y-31528
X48897Y-34587
X49380Y-35811
X49642Y-34587
X50079Y-17854
X50272Y-43524
X51024Y-38228
X51209Y-24596
X51217Y-23012
X51335Y-37736
X52280Y-31516
X52358Y-22008
X52717Y-27283
X52913Y-33465
X53126Y-31969
X53598Y-40020
X54425Y-36319
X54780Y-28524
X55272Y-22480
X55665Y-46555
X56571Y-41673
X56650Y-27421
X56846Y-34134
X56846Y-37343
X57087Y-44764
X57283Y-19921
T3
X44657Y-9263
X44720Y-8524
X44839Y-15394
X44898Y-24587
X45046Y-13054
X45046Y-14705
X45321Y-17371
X46597Y-32914
X46610Y-34547
X46978Y-10298
X48304Y-28421
X48638Y-9685
X48776Y-40551
X48798Y-35374
X48815Y-43524
X48884Y-19390
X48933Y-34055
X49012Y-38051
X49061Y-30492
X49465Y-16614
X49465Y-36703
X49581Y-33458
X49602Y-39055
X49720Y-40571
X49749Y-34041
X49857Y-35203
X49957Y-13622
X50193Y-20138
X50193Y-22309
X50350Y-28325
X50409Y-20925
X51039Y-25374
X51046Y-40833
X51531Y-27008
X51787Y-19134
X52024Y-14409
X52315Y-28370
X52398Y-33976
X52608Y-43525
X52634Y-8602
X52634Y-17618
X52713Y-37933
X52831Y-20846
X52831Y-44291
X52929Y-40512
X53185Y-10217
X53228Y-24724
X53717Y-10217
X53795Y-25766
X54012Y-17559
X54228Y-10217
X54465Y-35315
X54681Y-26890
X55075Y-45689
X55134Y-36811
X55252Y-41319
X55276Y-15394
X55276Y-15906
X55276Y-16417
X55764Y-24508
X55783Y-22854
X55827Y-27913
X56836Y-22850
X57004Y-42402
X57244Y-30315
X57244Y-30906
X57244Y-31496
X57516Y-10217
T4
X47472Y-8858
X47472Y-10827
X47472Y-12795
X47472Y-14764
X48472Y-8858
X48472Y-10827
X48472Y-12795
X48472Y-14764
T5
X43996Y-10925
X43996Y-12697
X46555Y-10925
X46555Y-12697
X52559Y-13780
X52559Y-23228
X52559Y-32677
X52559Y-42126
X53543Y-13780
X53543Y-23228
X53543Y-32677
X53543Y-42126
X54528Y-13780
X54528Y-23228
X54528Y-32677
X54528Y-42126
X56024Y-12457
X56024Y-13457
X56024Y-14457
X56024Y-15457
X56024Y-16457
X57024Y-12457
X57024Y-13457
X57024Y-14457
X57024Y-15457
X57024Y-16457
T7
X44587Y-26575
X46949Y-43799
X50197Y-10827
X56890Y-28740
T2
X43976Y-19882G85X43976Y-20669
G05
X43976Y-29331G85X43976Y-30118
G05
X43976Y-38780G85X43976Y-39567
G05
X43976Y-46555G85X43976Y-47343
G05
X47205Y-19882G85X47205Y-20669
G05
X47205Y-29331G85X47205Y-30118
G05
X47205Y-38780G85X47205Y-39567
G05
X47205Y-46555G85X47205Y-47343
G05
X49488Y-46555G85X49488Y-47343
G05
X52717Y-46555G85X52717Y-47343
G05
X54370Y-47343G85X54370Y-46555
G05
X57598Y-47343G85X57598Y-46555
G05
T5
X45571Y-18425G85X44980Y-18425
G05
X45374Y-22126G85X45177Y-22126
G05
X45571Y-27874G85X44980Y-27874
G05
X45374Y-31575G85X45177Y-31575
G05
X45571Y-37323G85X44980Y-37323
G05
X45374Y-41024G85X45177Y-41024
G05
X45571Y-45098G85X44980Y-45098
G05
X45374Y-48799G85X45177Y-48799
G05
X51083Y-45098G85X50492Y-45098
G05
X50886Y-48799G85X50689Y-48799
G05
X56201Y-45098G85X56398Y-45098
G05
X56004Y-48799G85X56594Y-48799
G05
T6
X51516Y-10827G85X51791Y-10827
G05
X51516Y-20276G85X51791Y-20276
G05
X51516Y-29724G85X51791Y-29724
G05
X51516Y-39173G85X51791Y-39173
G05
X55295Y-10827G85X55571Y-10827
G05
X55295Y-20276G85X55571Y-20276
G05
X55295Y-29724G85X55571Y-29724
G05
X55295Y-39173G85X55571Y-39173
G05
T0
M30
