M48
;DRILL file {KiCad 4.0.2-stable} date 2019-06-28 9:32:33 PM
;FORMAT={2:4/ absolute / inch / suppress leading zeros}
FMAT,2
INCH,TZ
T1C0.018
T2C0.020
T3C0.024
T4C0.026
T5C0.039
T6C0.047
T7C0.079
T8C0.125
%
G90
G05
M72
T1
X13500Y-44429
X13864Y-23826
X14858Y-33740
X15591Y-36280
X16079Y-45945
X16292Y-23659
X16301Y-26811
X16305Y-24092
X16807Y-42717
X17280Y-26890
X17344Y-53480
X17409Y-46636
X18175Y-41666
X18188Y-44724
X18672Y-45949
X18933Y-44724
X19370Y-27992
X19563Y-53661
X20315Y-48366
X20501Y-34734
X20508Y-33150
X20626Y-47874
X21571Y-41654
X21650Y-32146
X22008Y-37421
X22205Y-43602
X22417Y-42106
X22890Y-50157
X23717Y-46457
X24071Y-38661
X24563Y-32618
X24957Y-56693
X25862Y-51811
X25941Y-37559
X26138Y-44272
X26138Y-47480
X26378Y-54902
X26575Y-30059
X28461Y-44429
X28825Y-23826
X29819Y-33740
X30551Y-36280
X31039Y-45945
X31253Y-23659
X31261Y-26811
X31266Y-24092
X31768Y-42717
X32240Y-26890
X32305Y-53480
X32370Y-46636
X33136Y-41666
X33149Y-44724
X33632Y-45949
X33894Y-44724
X34331Y-27992
X34524Y-53661
X35276Y-48366
X35461Y-34734
X35469Y-33150
X35587Y-47874
X36531Y-41654
X36610Y-32146
X36969Y-37421
X37165Y-43602
X37378Y-42106
X37850Y-50157
X38677Y-46457
X39031Y-38661
X39524Y-32618
X39917Y-56693
X40823Y-51811
X40902Y-37559
X41098Y-44272
X41098Y-47480
X41339Y-54902
X41535Y-30059
X43421Y-44429
X43786Y-23826
X44780Y-33740
X45512Y-36280
X46000Y-45945
X46214Y-23659
X46222Y-26811
X46226Y-24092
X46728Y-42717
X47201Y-26890
X47266Y-53480
X47331Y-46636
X48096Y-41666
X48109Y-44724
X48593Y-45949
X48854Y-44724
X49291Y-27992
X49484Y-53661
X50236Y-48366
X50422Y-34734
X50429Y-33150
X50547Y-47874
X51492Y-41654
X51571Y-32146
X51929Y-37421
X52126Y-43602
X52339Y-42106
X52811Y-50157
X53638Y-46457
X53992Y-38661
X54484Y-32618
X54878Y-56693
X55783Y-51811
X55862Y-37559
X56059Y-44272
X56059Y-47480
X56299Y-54902
X56496Y-30059
X58382Y-44429
X58746Y-23826
X59740Y-33740
X60472Y-36280
X60961Y-45945
X61174Y-23659
X61183Y-26811
X61187Y-24092
X61689Y-42717
X62161Y-26890
X62226Y-53480
X62291Y-46636
X63057Y-41666
X63070Y-44724
X63553Y-45949
X63815Y-44724
X64252Y-27992
X64445Y-53661
X65197Y-48366
X65383Y-34734
X65390Y-33150
X65508Y-47874
X66453Y-41654
X66531Y-32146
X66890Y-37421
X67087Y-43602
X67299Y-42106
X67772Y-50157
X68598Y-46457
X68953Y-38661
X69445Y-32618
X69839Y-56693
X70744Y-51811
X70823Y-37559
X71020Y-44272
X71020Y-47480
X71260Y-54902
X71457Y-30059
X73343Y-44429
X73707Y-23826
X74701Y-33740
X75433Y-36280
X75921Y-45945
X76135Y-23659
X76143Y-26811
X76148Y-24092
X76650Y-42717
X77122Y-26890
X77187Y-53480
X77252Y-46636
X78018Y-41666
X78031Y-44724
X78514Y-45949
X78776Y-44724
X79213Y-27992
X79406Y-53661
X80157Y-48366
X80343Y-34734
X80350Y-33150
X80469Y-47874
X81413Y-41654
X81492Y-32146
X81850Y-37421
X82047Y-43602
X82260Y-42106
X82732Y-50157
X83559Y-46457
X83913Y-38661
X84406Y-32618
X84799Y-56693
X85705Y-51811
X85783Y-37559
X85980Y-44272
X85980Y-47480
X86220Y-54902
X86417Y-30059
X88303Y-44429
X88667Y-23826
X89661Y-33740
X90394Y-36280
X90882Y-45945
X91096Y-23659
X91104Y-26811
X91108Y-24092
X91610Y-42717
X92083Y-26890
X92148Y-53480
X92213Y-46636
X92978Y-41666
X92991Y-44724
X93475Y-45949
X93736Y-44724
X94173Y-27992
X94366Y-53661
X95118Y-48366
X95304Y-34734
X95311Y-33150
X95429Y-47874
X96374Y-41654
X96453Y-32146
X96811Y-37421
X97008Y-43602
X97220Y-42106
X97693Y-50157
X98520Y-46457
X98874Y-38661
X99366Y-32618
X99760Y-56693
X100665Y-51811
X100744Y-37559
X100941Y-44272
X100941Y-47480
X101181Y-54902
X101378Y-30059
T3
X13948Y-19401
X14012Y-18661
X14130Y-25531
X14189Y-34724
X14338Y-23192
X14338Y-24843
X14612Y-27509
X15888Y-43052
X15902Y-44685
X16269Y-20436
X17595Y-38558
X17929Y-19823
X18067Y-50689
X18089Y-45512
X18106Y-53661
X18175Y-29528
X18224Y-44193
X18304Y-48189
X18352Y-40630
X18756Y-26752
X18756Y-46841
X18872Y-43596
X18894Y-49193
X19012Y-50709
X19148Y-45341
X19248Y-23760
X19484Y-30276
X19484Y-32447
X19642Y-38462
X19701Y-31063
X20325Y-35512
X20337Y-50971
X20823Y-37146
X21079Y-29272
X21315Y-24547
X21606Y-38508
X21689Y-44114
X21900Y-53663
X21925Y-18740
X21925Y-27756
X22004Y-48071
X22122Y-30984
X22122Y-54429
X22220Y-50650
X22476Y-20354
X22520Y-34862
X23008Y-20354
X23087Y-35903
X23303Y-27697
X23520Y-20354
X23756Y-45453
X23972Y-37028
X24366Y-55827
X24425Y-46949
X24543Y-51457
X24567Y-25531
X24567Y-26043
X24567Y-26555
X25055Y-34646
X25075Y-32992
X25118Y-38051
X26127Y-32987
X26295Y-52539
X26535Y-40453
X26535Y-41043
X26535Y-41634
X26807Y-20354
X28909Y-19401
X28972Y-18661
X29091Y-25531
X29150Y-34724
X29298Y-23192
X29298Y-24843
X29573Y-27509
X30849Y-43052
X30862Y-44685
X31230Y-20436
X32556Y-38558
X32890Y-19823
X33028Y-50689
X33050Y-45512
X33067Y-53661
X33136Y-29528
X33185Y-44193
X33264Y-48189
X33313Y-40630
X33717Y-26752
X33717Y-46841
X33833Y-43596
X33854Y-49193
X33972Y-50709
X34109Y-45341
X34209Y-23760
X34445Y-30276
X34445Y-32447
X34602Y-38462
X34661Y-31063
X35285Y-35512
X35298Y-50971
X35783Y-37146
X36039Y-29272
X36276Y-24547
X36567Y-38508
X36650Y-44114
X36860Y-53663
X36886Y-18740
X36886Y-27756
X36965Y-48071
X37083Y-30984
X37083Y-54429
X37181Y-50650
X37437Y-20354
X37480Y-34862
X37969Y-20354
X38047Y-35903
X38264Y-27697
X38480Y-20354
X38717Y-45453
X38933Y-37028
X39327Y-55827
X39386Y-46949
X39504Y-51457
X39528Y-25531
X39528Y-26043
X39528Y-26555
X40016Y-34646
X40035Y-32992
X40079Y-38051
X41088Y-32987
X41256Y-52539
X41496Y-40453
X41496Y-41043
X41496Y-41634
X41768Y-20354
X43869Y-19401
X43933Y-18661
X44051Y-25531
X44110Y-34724
X44259Y-23192
X44259Y-24843
X44533Y-27509
X45809Y-43052
X45823Y-44685
X46190Y-20436
X47517Y-38558
X47850Y-19823
X47988Y-50689
X48010Y-45512
X48028Y-53661
X48096Y-29528
X48146Y-44193
X48225Y-48189
X48274Y-40630
X48677Y-26752
X48677Y-46841
X48793Y-43596
X48815Y-49193
X48933Y-50709
X49070Y-45341
X49169Y-23760
X49406Y-30276
X49406Y-32447
X49563Y-38462
X49622Y-31063
X50246Y-35512
X50258Y-50971
X50744Y-37146
X51000Y-29272
X51236Y-24547
X51527Y-38508
X51610Y-44114
X51821Y-53663
X51846Y-18740
X51846Y-27756
X51925Y-48071
X52043Y-30984
X52043Y-54429
X52142Y-50650
X52398Y-20354
X52441Y-34862
X52929Y-20354
X53008Y-35903
X53224Y-27697
X53441Y-20354
X53677Y-45453
X53894Y-37028
X54287Y-55827
X54346Y-46949
X54465Y-51457
X54488Y-25531
X54488Y-26043
X54488Y-26555
X54976Y-34646
X54996Y-32992
X55039Y-38051
X56048Y-32987
X56217Y-52539
X56457Y-40453
X56457Y-41043
X56457Y-41634
X56728Y-20354
X58830Y-19401
X58894Y-18661
X59012Y-25531
X59071Y-34724
X59220Y-23192
X59220Y-24843
X59494Y-27509
X60770Y-43052
X60783Y-44685
X61151Y-20436
X62477Y-38558
X62811Y-19823
X62949Y-50689
X62971Y-45512
X62988Y-53661
X63057Y-29528
X63106Y-44193
X63186Y-48189
X63234Y-40630
X63638Y-26752
X63638Y-46841
X63754Y-43596
X63776Y-49193
X63894Y-50709
X64030Y-45341
X64130Y-23760
X64366Y-30276
X64366Y-32447
X64524Y-38462
X64583Y-31063
X65207Y-35512
X65219Y-50971
X65705Y-37146
X65961Y-29272
X66197Y-24547
X66488Y-38508
X66571Y-44114
X66782Y-53663
X66807Y-18740
X66807Y-27756
X66886Y-48071
X67004Y-30984
X67004Y-54429
X67102Y-50650
X67358Y-20354
X67402Y-34862
X67890Y-20354
X67968Y-35903
X68185Y-27697
X68402Y-20354
X68638Y-45453
X68854Y-37028
X69248Y-55827
X69307Y-46949
X69425Y-51457
X69449Y-25531
X69449Y-26043
X69449Y-26555
X69937Y-34646
X69957Y-32992
X70000Y-38051
X71009Y-32987
X71177Y-52539
X71417Y-40453
X71417Y-41043
X71417Y-41634
X71689Y-20354
X73791Y-19401
X73854Y-18661
X73972Y-25531
X74031Y-34724
X74180Y-23192
X74180Y-24843
X74455Y-27509
X75730Y-43052
X75744Y-44685
X76111Y-20436
X77438Y-38558
X77772Y-19823
X77909Y-50689
X77932Y-45512
X77949Y-53661
X78018Y-29528
X78067Y-44193
X78146Y-48189
X78195Y-40630
X78598Y-26752
X78598Y-46841
X78715Y-43596
X78736Y-49193
X78854Y-50709
X78991Y-45341
X79091Y-23760
X79327Y-30276
X79327Y-32447
X79484Y-38462
X79543Y-31063
X80167Y-35512
X80179Y-50971
X80665Y-37146
X80921Y-29272
X81157Y-24547
X81449Y-38508
X81531Y-44114
X81742Y-53663
X81768Y-18740
X81768Y-27756
X81846Y-48071
X81965Y-30984
X81965Y-54429
X82063Y-50650
X82319Y-20354
X82362Y-34862
X82850Y-20354
X82929Y-35903
X83146Y-27697
X83362Y-20354
X83598Y-45453
X83815Y-37028
X84209Y-55827
X84268Y-46949
X84386Y-51457
X84409Y-25531
X84409Y-26043
X84409Y-26555
X84898Y-34646
X84917Y-32992
X84961Y-38051
X85969Y-32987
X86138Y-52539
X86378Y-40453
X86378Y-41043
X86378Y-41634
X86650Y-20354
X88751Y-19401
X88815Y-18661
X88933Y-25531
X88992Y-34724
X89141Y-23192
X89141Y-24843
X89415Y-27509
X90691Y-43052
X90705Y-44685
X91072Y-20436
X92398Y-38558
X92732Y-19823
X92870Y-50689
X92892Y-45512
X92909Y-53661
X92978Y-29528
X93028Y-44193
X93107Y-48189
X93156Y-40630
X93559Y-26752
X93559Y-46841
X93675Y-43596
X93697Y-49193
X93815Y-50709
X93952Y-45341
X94051Y-23760
X94287Y-30276
X94287Y-32447
X94445Y-38462
X94504Y-31063
X95128Y-35512
X95140Y-50971
X95626Y-37146
X95882Y-29272
X96118Y-24547
X96409Y-38508
X96492Y-44114
X96703Y-53663
X96728Y-18740
X96728Y-27756
X96807Y-48071
X96925Y-30984
X96925Y-54429
X97024Y-50650
X97280Y-20354
X97323Y-34862
X97811Y-20354
X97890Y-35903
X98106Y-27697
X98323Y-20354
X98559Y-45453
X98776Y-37028
X99169Y-55827
X99228Y-46949
X99346Y-51457
X99370Y-25531
X99370Y-26043
X99370Y-26555
X99858Y-34646
X99878Y-32992
X99921Y-38051
X100930Y-32987
X101098Y-52539
X101339Y-40453
X101339Y-41043
X101339Y-41634
X101610Y-20354
T4
X16764Y-18996
X16764Y-20965
X16764Y-22933
X16764Y-24902
X17764Y-18996
X17764Y-20965
X17764Y-22933
X17764Y-24902
X31724Y-18996
X31724Y-20965
X31724Y-22933
X31724Y-24902
X32724Y-18996
X32724Y-20965
X32724Y-22933
X32724Y-24902
X46685Y-18996
X46685Y-20965
X46685Y-22933
X46685Y-24902
X47685Y-18996
X47685Y-20965
X47685Y-22933
X47685Y-24902
X61646Y-18996
X61646Y-20965
X61646Y-22933
X61646Y-24902
X62646Y-18996
X62646Y-20965
X62646Y-22933
X62646Y-24902
X76606Y-18996
X76606Y-20965
X76606Y-22933
X76606Y-24902
X77606Y-18996
X77606Y-20965
X77606Y-22933
X77606Y-24902
X91567Y-18996
X91567Y-20965
X91567Y-22933
X91567Y-24902
X92567Y-18996
X92567Y-20965
X92567Y-22933
X92567Y-24902
T5
X13287Y-21063
X13287Y-22835
X15846Y-21063
X15846Y-22835
X21850Y-23917
X21850Y-33366
X21850Y-42815
X21850Y-52264
X22835Y-23917
X22835Y-33366
X22835Y-42815
X22835Y-52264
X23819Y-23917
X23819Y-33366
X23819Y-42815
X23819Y-52264
X25315Y-22594
X25315Y-23594
X25315Y-24594
X25315Y-25594
X25315Y-26594
X26315Y-22594
X26315Y-23594
X26315Y-24594
X26315Y-25594
X26315Y-26594
X28248Y-21063
X28248Y-22835
X30807Y-21063
X30807Y-22835
X36811Y-23917
X36811Y-33366
X36811Y-42815
X36811Y-52264
X37795Y-23917
X37795Y-33366
X37795Y-42815
X37795Y-52264
X38780Y-23917
X38780Y-33366
X38780Y-42815
X38780Y-52264
X40276Y-22594
X40276Y-23594
X40276Y-24594
X40276Y-25594
X40276Y-26594
X41276Y-22594
X41276Y-23594
X41276Y-24594
X41276Y-25594
X41276Y-26594
X43209Y-21063
X43209Y-22835
X45768Y-21063
X45768Y-22835
X51772Y-23917
X51772Y-33366
X51772Y-42815
X51772Y-52264
X52756Y-23917
X52756Y-33366
X52756Y-42815
X52756Y-52264
X53740Y-23917
X53740Y-33366
X53740Y-42815
X53740Y-52264
X55236Y-22594
X55236Y-23594
X55236Y-24594
X55236Y-25594
X55236Y-26594
X56236Y-22594
X56236Y-23594
X56236Y-24594
X56236Y-25594
X56236Y-26594
X58169Y-21063
X58169Y-22835
X60728Y-21063
X60728Y-22835
X66732Y-23917
X66732Y-33366
X66732Y-42815
X66732Y-52264
X67717Y-23917
X67717Y-33366
X67717Y-42815
X67717Y-52264
X68701Y-23917
X68701Y-33366
X68701Y-42815
X68701Y-52264
X70197Y-22594
X70197Y-23594
X70197Y-24594
X70197Y-25594
X70197Y-26594
X71197Y-22594
X71197Y-23594
X71197Y-24594
X71197Y-25594
X71197Y-26594
X73130Y-21063
X73130Y-22835
X75689Y-21063
X75689Y-22835
X81693Y-23917
X81693Y-33366
X81693Y-42815
X81693Y-52264
X82677Y-23917
X82677Y-33366
X82677Y-42815
X82677Y-52264
X83661Y-23917
X83661Y-33366
X83661Y-42815
X83661Y-52264
X85157Y-22594
X85157Y-23594
X85157Y-24594
X85157Y-25594
X85157Y-26594
X86157Y-22594
X86157Y-23594
X86157Y-24594
X86157Y-25594
X86157Y-26594
X88091Y-21063
X88091Y-22835
X90650Y-21063
X90650Y-22835
X96654Y-23917
X96654Y-33366
X96654Y-42815
X96654Y-52264
X97638Y-23917
X97638Y-33366
X97638Y-42815
X97638Y-52264
X98622Y-23917
X98622Y-33366
X98622Y-42815
X98622Y-52264
X100118Y-22594
X100118Y-23594
X100118Y-24594
X100118Y-25594
X100118Y-26594
X101118Y-22594
X101118Y-23594
X101118Y-24594
X101118Y-25594
X101118Y-26594
T7
X13780Y-16929
X13780Y-61024
X101181Y-16929
X101181Y-61024
T8
X13878Y-36713
X16240Y-53937
X19488Y-20965
X26181Y-38878
X28839Y-36713
X31201Y-53937
X34449Y-20965
X41142Y-38878
X43799Y-36713
X46161Y-53937
X49409Y-20965
X56102Y-38878
X58760Y-36713
X61122Y-53937
X64370Y-20965
X71063Y-38878
X73720Y-36713
X76083Y-53937
X79331Y-20965
X86024Y-38878
X88681Y-36713
X91043Y-53937
X94291Y-20965
X100984Y-38878
T2
X13268Y-30020G85X13268Y-30807
G05
X13268Y-39469G85X13268Y-40256
G05
X13268Y-48917G85X13268Y-49705
G05
X13268Y-56693G85X13268Y-57480
G05
X16496Y-30020G85X16496Y-30807
G05
X16496Y-39469G85X16496Y-40256
G05
X16496Y-48917G85X16496Y-49705
G05
X16496Y-56693G85X16496Y-57480
G05
X18780Y-56693G85X18780Y-57480
G05
X22008Y-56693G85X22008Y-57480
G05
X23661Y-57480G85X23661Y-56693
G05
X26890Y-57480G85X26890Y-56693
G05
X28228Y-30020G85X28228Y-30807
G05
X28228Y-39469G85X28228Y-40256
G05
X28228Y-48917G85X28228Y-49705
G05
X28228Y-56693G85X28228Y-57480
G05
X31457Y-30020G85X31457Y-30807
G05
X31457Y-39469G85X31457Y-40256
G05
X31457Y-48917G85X31457Y-49705
G05
X31457Y-56693G85X31457Y-57480
G05
X33740Y-56693G85X33740Y-57480
G05
X36969Y-56693G85X36969Y-57480
G05
X38622Y-57480G85X38622Y-56693
G05
X41850Y-57480G85X41850Y-56693
G05
X43189Y-30020G85X43189Y-30807
G05
X43189Y-39469G85X43189Y-40256
G05
X43189Y-48917G85X43189Y-49705
G05
X43189Y-56693G85X43189Y-57480
G05
X46417Y-30020G85X46417Y-30807
G05
X46417Y-39469G85X46417Y-40256
G05
X46417Y-48917G85X46417Y-49705
G05
X46417Y-56693G85X46417Y-57480
G05
X48701Y-56693G85X48701Y-57480
G05
X51929Y-56693G85X51929Y-57480
G05
X53583Y-57480G85X53583Y-56693
G05
X56811Y-57480G85X56811Y-56693
G05
X58150Y-30020G85X58150Y-30807
G05
X58150Y-39469G85X58150Y-40256
G05
X58150Y-48917G85X58150Y-49705
G05
X58150Y-56693G85X58150Y-57480
G05
X61378Y-30020G85X61378Y-30807
G05
X61378Y-39469G85X61378Y-40256
G05
X61378Y-48917G85X61378Y-49705
G05
X61378Y-56693G85X61378Y-57480
G05
X63661Y-56693G85X63661Y-57480
G05
X66890Y-56693G85X66890Y-57480
G05
X68543Y-57480G85X68543Y-56693
G05
X71772Y-57480G85X71772Y-56693
G05
X73110Y-30020G85X73110Y-30807
G05
X73110Y-39469G85X73110Y-40256
G05
X73110Y-48917G85X73110Y-49705
G05
X73110Y-56693G85X73110Y-57480
G05
X76339Y-30020G85X76339Y-30807
G05
X76339Y-39469G85X76339Y-40256
G05
X76339Y-48917G85X76339Y-49705
G05
X76339Y-56693G85X76339Y-57480
G05
X78622Y-56693G85X78622Y-57480
G05
X81850Y-56693G85X81850Y-57480
G05
X83504Y-57480G85X83504Y-56693
G05
X86732Y-57480G85X86732Y-56693
G05
X88071Y-30020G85X88071Y-30807
G05
X88071Y-39469G85X88071Y-40256
G05
X88071Y-48917G85X88071Y-49705
G05
X88071Y-56693G85X88071Y-57480
G05
X91299Y-30020G85X91299Y-30807
G05
X91299Y-39469G85X91299Y-40256
G05
X91299Y-48917G85X91299Y-49705
G05
X91299Y-56693G85X91299Y-57480
G05
X93583Y-56693G85X93583Y-57480
G05
X96811Y-56693G85X96811Y-57480
G05
X98465Y-57480G85X98465Y-56693
G05
X101693Y-57480G85X101693Y-56693
G05
T5
X14862Y-28563G85X14272Y-28563
G05
X14665Y-32264G85X14469Y-32264
G05
X14862Y-38012G85X14272Y-38012
G05
X14665Y-41713G85X14469Y-41713
G05
X14862Y-47461G85X14272Y-47461
G05
X14665Y-51161G85X14469Y-51161
G05
X14862Y-55236G85X14272Y-55236
G05
X14665Y-58937G85X14469Y-58937
G05
X20374Y-55236G85X19783Y-55236
G05
X20177Y-58937G85X19980Y-58937
G05
X25492Y-55236G85X25689Y-55236
G05
X25295Y-58937G85X25886Y-58937
G05
X29823Y-28563G85X29232Y-28563
G05
X29626Y-32264G85X29429Y-32264
G05
X29823Y-38012G85X29232Y-38012
G05
X29626Y-41713G85X29429Y-41713
G05
X29823Y-47461G85X29232Y-47461
G05
X29626Y-51161G85X29429Y-51161
G05
X29823Y-55236G85X29232Y-55236
G05
X29626Y-58937G85X29429Y-58937
G05
X35335Y-55236G85X34744Y-55236
G05
X35138Y-58937G85X34941Y-58937
G05
X40453Y-55236G85X40650Y-55236
G05
X40256Y-58937G85X40846Y-58937
G05
X44783Y-28563G85X44193Y-28563
G05
X44587Y-32264G85X44390Y-32264
G05
X44783Y-38012G85X44193Y-38012
G05
X44587Y-41713G85X44390Y-41713
G05
X44783Y-47461G85X44193Y-47461
G05
X44587Y-51161G85X44390Y-51161
G05
X44783Y-55236G85X44193Y-55236
G05
X44587Y-58937G85X44390Y-58937
G05
X50295Y-55236G85X49705Y-55236
G05
X50098Y-58937G85X49902Y-58937
G05
X55413Y-55236G85X55610Y-55236
G05
X55217Y-58937G85X55807Y-58937
G05
X59744Y-28563G85X59154Y-28563
G05
X59547Y-32264G85X59350Y-32264
G05
X59744Y-38012G85X59154Y-38012
G05
X59547Y-41713G85X59350Y-41713
G05
X59744Y-47461G85X59154Y-47461
G05
X59547Y-51161G85X59350Y-51161
G05
X59744Y-55236G85X59154Y-55236
G05
X59547Y-58937G85X59350Y-58937
G05
X65256Y-55236G85X64665Y-55236
G05
X65059Y-58937G85X64862Y-58937
G05
X70374Y-55236G85X70571Y-55236
G05
X70177Y-58937G85X70768Y-58937
G05
X74705Y-28563G85X74114Y-28563
G05
X74508Y-32264G85X74311Y-32264
G05
X74705Y-38012G85X74114Y-38012
G05
X74508Y-41713G85X74311Y-41713
G05
X74705Y-47461G85X74114Y-47461
G05
X74508Y-51161G85X74311Y-51161
G05
X74705Y-55236G85X74114Y-55236
G05
X74508Y-58937G85X74311Y-58937
G05
X80217Y-55236G85X79626Y-55236
G05
X80020Y-58937G85X79823Y-58937
G05
X85335Y-55236G85X85531Y-55236
G05
X85138Y-58937G85X85728Y-58937
G05
X89665Y-28563G85X89075Y-28563
G05
X89469Y-32264G85X89272Y-32264
G05
X89665Y-38012G85X89075Y-38012
G05
X89469Y-41713G85X89272Y-41713
G05
X89665Y-47461G85X89075Y-47461
G05
X89469Y-51161G85X89272Y-51161
G05
X89665Y-55236G85X89075Y-55236
G05
X89469Y-58937G85X89272Y-58937
G05
X95177Y-55236G85X94587Y-55236
G05
X94980Y-58937G85X94783Y-58937
G05
X100295Y-55236G85X100492Y-55236
G05
X100098Y-58937G85X100689Y-58937
G05
T6
X20807Y-20965G85X21083Y-20965
G05
X20807Y-30413G85X21083Y-30413
G05
X20807Y-39862G85X21083Y-39862
G05
X20807Y-49311G85X21083Y-49311
G05
X24587Y-20965G85X24862Y-20965
G05
X24587Y-30413G85X24862Y-30413
G05
X24587Y-39862G85X24862Y-39862
G05
X24587Y-49311G85X24862Y-49311
G05
X35768Y-20965G85X36043Y-20965
G05
X35768Y-30413G85X36043Y-30413
G05
X35768Y-39862G85X36043Y-39862
G05
X35768Y-49311G85X36043Y-49311
G05
X39547Y-20965G85X39823Y-20965
G05
X39547Y-30413G85X39823Y-30413
G05
X39547Y-39862G85X39823Y-39862
G05
X39547Y-49311G85X39823Y-49311
G05
X50728Y-20965G85X51004Y-20965
G05
X50728Y-30413G85X51004Y-30413
G05
X50728Y-39862G85X51004Y-39862
G05
X50728Y-49311G85X51004Y-49311
G05
X54508Y-20965G85X54783Y-20965
G05
X54508Y-30413G85X54783Y-30413
G05
X54508Y-39862G85X54783Y-39862
G05
X54508Y-49311G85X54783Y-49311
G05
X65689Y-20965G85X65965Y-20965
G05
X65689Y-30413G85X65965Y-30413
G05
X65689Y-39862G85X65965Y-39862
G05
X65689Y-49311G85X65965Y-49311
G05
X69469Y-20965G85X69744Y-20965
G05
X69469Y-30413G85X69744Y-30413
G05
X69469Y-39862G85X69744Y-39862
G05
X69469Y-49311G85X69744Y-49311
G05
X80650Y-20965G85X80925Y-20965
G05
X80650Y-30413G85X80925Y-30413
G05
X80650Y-39862G85X80925Y-39862
G05
X80650Y-49311G85X80925Y-49311
G05
X84429Y-20965G85X84705Y-20965
G05
X84429Y-30413G85X84705Y-30413
G05
X84429Y-39862G85X84705Y-39862
G05
X84429Y-49311G85X84705Y-49311
G05
X95610Y-20965G85X95886Y-20965
G05
X95610Y-30413G85X95886Y-30413
G05
X95610Y-39862G85X95886Y-39862
G05
X95610Y-49311G85X95886Y-49311
G05
X99390Y-20965G85X99665Y-20965
G05
X99390Y-30413G85X99665Y-30413
G05
X99390Y-39862G85X99665Y-39862
G05
X99390Y-49311G85X99665Y-49311
G05
T0
M30
