G04 #@! TF.FileFunction,Legend,Top*
%FSLAX46Y46*%
G04 Gerber Fmt 4.6, Leading zero omitted, Abs format (unit mm)*
G04 Created by KiCad (PCBNEW 4.0.2-stable) date 2019-06-26 1:43:45 PM*
%MOMM*%
G01*
G04 APERTURE LIST*
%ADD10C,0.200000*%
%ADD11C,0.150000*%
%ADD12C,0.381000*%
%ADD13R,1.800000X1.800000*%
%ADD14O,1.800000X1.800000*%
%ADD15R,2.600000X3.600000*%
%ADD16R,2.600000X2.850000*%
%ADD17C,1.850000*%
%ADD18C,3.275000*%
%ADD19O,4.100000X2.600000*%
%ADD20O,2.600000X2.100000*%
%ADD21O,1.600000X3.600000*%
%ADD22R,2.600000X3.100000*%
%ADD23R,1.300000X1.500000*%
%ADD24C,1.500000*%
%ADD25R,1.500000X1.500000*%
%ADD26O,2.300000X1.500000*%
%ADD27O,2.350000X1.500000*%
%ADD28C,2.100000*%
G04 APERTURE END LIST*
D10*
D11*
X208904762Y-63202381D02*
X208428571Y-63202381D01*
X208428571Y-62202381D01*
X209428571Y-62202381D02*
X209619048Y-62202381D01*
X209714286Y-62250000D01*
X209809524Y-62345238D01*
X209857143Y-62535714D01*
X209857143Y-62869048D01*
X209809524Y-63059524D01*
X209714286Y-63154762D01*
X209619048Y-63202381D01*
X209428571Y-63202381D01*
X209333333Y-63154762D01*
X209238095Y-63059524D01*
X209190476Y-62869048D01*
X209190476Y-62535714D01*
X209238095Y-62345238D01*
X209333333Y-62250000D01*
X209428571Y-62202381D01*
X210142857Y-62202381D02*
X210476190Y-63202381D01*
X210809524Y-62202381D01*
X211142857Y-62678571D02*
X211476191Y-62678571D01*
X211619048Y-63202381D02*
X211142857Y-63202381D01*
X211142857Y-62202381D01*
X211619048Y-62202381D01*
X210071429Y-53178571D02*
X210214286Y-53226190D01*
X210261905Y-53273810D01*
X210309524Y-53369048D01*
X210309524Y-53511905D01*
X210261905Y-53607143D01*
X210214286Y-53654762D01*
X210119048Y-53702381D01*
X209738095Y-53702381D01*
X209738095Y-52702381D01*
X210071429Y-52702381D01*
X210166667Y-52750000D01*
X210214286Y-52797619D01*
X210261905Y-52892857D01*
X210261905Y-52988095D01*
X210214286Y-53083333D01*
X210166667Y-53130952D01*
X210071429Y-53178571D01*
X209738095Y-53178571D01*
X210071429Y-77178571D02*
X210214286Y-77226190D01*
X210261905Y-77273810D01*
X210309524Y-77369048D01*
X210309524Y-77511905D01*
X210261905Y-77607143D01*
X210214286Y-77654762D01*
X210119048Y-77702381D01*
X209738095Y-77702381D01*
X209738095Y-76702381D01*
X210071429Y-76702381D01*
X210166667Y-76750000D01*
X210214286Y-76797619D01*
X210261905Y-76892857D01*
X210261905Y-76988095D01*
X210214286Y-77083333D01*
X210166667Y-77130952D01*
X210071429Y-77178571D01*
X209738095Y-77178571D01*
X208452381Y-87202381D02*
X208452381Y-86202381D01*
X208452381Y-86678571D02*
X209023810Y-86678571D01*
X209023810Y-87202381D02*
X209023810Y-86202381D01*
X209452381Y-86916667D02*
X209928572Y-86916667D01*
X209357143Y-87202381D02*
X209690476Y-86202381D01*
X210023810Y-87202381D01*
X210214286Y-86202381D02*
X210785715Y-86202381D01*
X210500000Y-87202381D02*
X210500000Y-86202381D01*
X211119048Y-86678571D02*
X211452382Y-86678571D01*
X211595239Y-87202381D02*
X211119048Y-87202381D01*
X211119048Y-86202381D01*
X211595239Y-86202381D01*
X210071429Y-101178571D02*
X210214286Y-101226190D01*
X210261905Y-101273810D01*
X210309524Y-101369048D01*
X210309524Y-101511905D01*
X210261905Y-101607143D01*
X210214286Y-101654762D01*
X210119048Y-101702381D01*
X209738095Y-101702381D01*
X209738095Y-100702381D01*
X210071429Y-100702381D01*
X210166667Y-100750000D01*
X210214286Y-100797619D01*
X210261905Y-100892857D01*
X210261905Y-100988095D01*
X210214286Y-101083333D01*
X210166667Y-101130952D01*
X210071429Y-101178571D01*
X209738095Y-101178571D01*
X208857143Y-134678571D02*
X208523809Y-134678571D01*
X208523809Y-135202381D02*
X208523809Y-134202381D01*
X209000000Y-134202381D01*
X209333333Y-134916667D02*
X209809524Y-134916667D01*
X209238095Y-135202381D02*
X209571428Y-134202381D01*
X209904762Y-135202381D01*
X210190476Y-135154762D02*
X210333333Y-135202381D01*
X210571429Y-135202381D01*
X210666667Y-135154762D01*
X210714286Y-135107143D01*
X210761905Y-135011905D01*
X210761905Y-134916667D01*
X210714286Y-134821429D01*
X210666667Y-134773810D01*
X210571429Y-134726190D01*
X210380952Y-134678571D01*
X210285714Y-134630952D01*
X210238095Y-134583333D01*
X210190476Y-134488095D01*
X210190476Y-134392857D01*
X210238095Y-134297619D01*
X210285714Y-134250000D01*
X210380952Y-134202381D01*
X210619048Y-134202381D01*
X210761905Y-134250000D01*
X211047619Y-134202381D02*
X211619048Y-134202381D01*
X211333333Y-135202381D02*
X211333333Y-134202381D01*
X209761905Y-125416667D02*
X210238096Y-125416667D01*
X209666667Y-125702381D02*
X210000000Y-124702381D01*
X210333334Y-125702381D01*
X208285714Y-110952381D02*
X208285714Y-109952381D01*
X208285714Y-110428571D02*
X208857143Y-110428571D01*
X208857143Y-110952381D02*
X208857143Y-109952381D01*
X209523809Y-109952381D02*
X209714286Y-109952381D01*
X209809524Y-110000000D01*
X209904762Y-110095238D01*
X209952381Y-110285714D01*
X209952381Y-110619048D01*
X209904762Y-110809524D01*
X209809524Y-110904762D01*
X209714286Y-110952381D01*
X209523809Y-110952381D01*
X209428571Y-110904762D01*
X209333333Y-110809524D01*
X209285714Y-110619048D01*
X209285714Y-110285714D01*
X209333333Y-110095238D01*
X209428571Y-110000000D01*
X209523809Y-109952381D01*
X210857143Y-110952381D02*
X210380952Y-110952381D01*
X210380952Y-109952381D01*
X211190476Y-110952381D02*
X211190476Y-109952381D01*
X211428571Y-109952381D01*
X211571429Y-110000000D01*
X211666667Y-110095238D01*
X211714286Y-110190476D01*
X211761905Y-110380952D01*
X211761905Y-110523810D01*
X211714286Y-110714286D01*
X211666667Y-110809524D01*
X211571429Y-110904762D01*
X211428571Y-110952381D01*
X211190476Y-110952381D01*
X246904762Y-63202381D02*
X246428571Y-63202381D01*
X246428571Y-62202381D01*
X247428571Y-62202381D02*
X247619048Y-62202381D01*
X247714286Y-62250000D01*
X247809524Y-62345238D01*
X247857143Y-62535714D01*
X247857143Y-62869048D01*
X247809524Y-63059524D01*
X247714286Y-63154762D01*
X247619048Y-63202381D01*
X247428571Y-63202381D01*
X247333333Y-63154762D01*
X247238095Y-63059524D01*
X247190476Y-62869048D01*
X247190476Y-62535714D01*
X247238095Y-62345238D01*
X247333333Y-62250000D01*
X247428571Y-62202381D01*
X248142857Y-62202381D02*
X248476190Y-63202381D01*
X248809524Y-62202381D01*
X249142857Y-62678571D02*
X249476191Y-62678571D01*
X249619048Y-63202381D02*
X249142857Y-63202381D01*
X249142857Y-62202381D01*
X249619048Y-62202381D01*
X248071429Y-77178571D02*
X248214286Y-77226190D01*
X248261905Y-77273810D01*
X248309524Y-77369048D01*
X248309524Y-77511905D01*
X248261905Y-77607143D01*
X248214286Y-77654762D01*
X248119048Y-77702381D01*
X247738095Y-77702381D01*
X247738095Y-76702381D01*
X248071429Y-76702381D01*
X248166667Y-76750000D01*
X248214286Y-76797619D01*
X248261905Y-76892857D01*
X248261905Y-76988095D01*
X248214286Y-77083333D01*
X248166667Y-77130952D01*
X248071429Y-77178571D01*
X247738095Y-77178571D01*
X248071429Y-53178571D02*
X248214286Y-53226190D01*
X248261905Y-53273810D01*
X248309524Y-53369048D01*
X248309524Y-53511905D01*
X248261905Y-53607143D01*
X248214286Y-53654762D01*
X248119048Y-53702381D01*
X247738095Y-53702381D01*
X247738095Y-52702381D01*
X248071429Y-52702381D01*
X248166667Y-52750000D01*
X248214286Y-52797619D01*
X248261905Y-52892857D01*
X248261905Y-52988095D01*
X248214286Y-53083333D01*
X248166667Y-53130952D01*
X248071429Y-53178571D01*
X247738095Y-53178571D01*
X246857143Y-134678571D02*
X246523809Y-134678571D01*
X246523809Y-135202381D02*
X246523809Y-134202381D01*
X247000000Y-134202381D01*
X247333333Y-134916667D02*
X247809524Y-134916667D01*
X247238095Y-135202381D02*
X247571428Y-134202381D01*
X247904762Y-135202381D01*
X248190476Y-135154762D02*
X248333333Y-135202381D01*
X248571429Y-135202381D01*
X248666667Y-135154762D01*
X248714286Y-135107143D01*
X248761905Y-135011905D01*
X248761905Y-134916667D01*
X248714286Y-134821429D01*
X248666667Y-134773810D01*
X248571429Y-134726190D01*
X248380952Y-134678571D01*
X248285714Y-134630952D01*
X248238095Y-134583333D01*
X248190476Y-134488095D01*
X248190476Y-134392857D01*
X248238095Y-134297619D01*
X248285714Y-134250000D01*
X248380952Y-134202381D01*
X248619048Y-134202381D01*
X248761905Y-134250000D01*
X249047619Y-134202381D02*
X249619048Y-134202381D01*
X249333333Y-135202381D02*
X249333333Y-134202381D01*
X248071429Y-101178571D02*
X248214286Y-101226190D01*
X248261905Y-101273810D01*
X248309524Y-101369048D01*
X248309524Y-101511905D01*
X248261905Y-101607143D01*
X248214286Y-101654762D01*
X248119048Y-101702381D01*
X247738095Y-101702381D01*
X247738095Y-100702381D01*
X248071429Y-100702381D01*
X248166667Y-100750000D01*
X248214286Y-100797619D01*
X248261905Y-100892857D01*
X248261905Y-100988095D01*
X248214286Y-101083333D01*
X248166667Y-101130952D01*
X248071429Y-101178571D01*
X247738095Y-101178571D01*
X246452381Y-87202381D02*
X246452381Y-86202381D01*
X246452381Y-86678571D02*
X247023810Y-86678571D01*
X247023810Y-87202381D02*
X247023810Y-86202381D01*
X247452381Y-86916667D02*
X247928572Y-86916667D01*
X247357143Y-87202381D02*
X247690476Y-86202381D01*
X248023810Y-87202381D01*
X248214286Y-86202381D02*
X248785715Y-86202381D01*
X248500000Y-87202381D02*
X248500000Y-86202381D01*
X249119048Y-86678571D02*
X249452382Y-86678571D01*
X249595239Y-87202381D02*
X249119048Y-87202381D01*
X249119048Y-86202381D01*
X249595239Y-86202381D01*
X246285714Y-110952381D02*
X246285714Y-109952381D01*
X246285714Y-110428571D02*
X246857143Y-110428571D01*
X246857143Y-110952381D02*
X246857143Y-109952381D01*
X247523809Y-109952381D02*
X247714286Y-109952381D01*
X247809524Y-110000000D01*
X247904762Y-110095238D01*
X247952381Y-110285714D01*
X247952381Y-110619048D01*
X247904762Y-110809524D01*
X247809524Y-110904762D01*
X247714286Y-110952381D01*
X247523809Y-110952381D01*
X247428571Y-110904762D01*
X247333333Y-110809524D01*
X247285714Y-110619048D01*
X247285714Y-110285714D01*
X247333333Y-110095238D01*
X247428571Y-110000000D01*
X247523809Y-109952381D01*
X248857143Y-110952381D02*
X248380952Y-110952381D01*
X248380952Y-109952381D01*
X249190476Y-110952381D02*
X249190476Y-109952381D01*
X249428571Y-109952381D01*
X249571429Y-110000000D01*
X249666667Y-110095238D01*
X249714286Y-110190476D01*
X249761905Y-110380952D01*
X249761905Y-110523810D01*
X249714286Y-110714286D01*
X249666667Y-110809524D01*
X249571429Y-110904762D01*
X249428571Y-110952381D01*
X249190476Y-110952381D01*
X247761905Y-125416667D02*
X248238096Y-125416667D01*
X247666667Y-125702381D02*
X248000000Y-124702381D01*
X248333334Y-125702381D01*
X132904762Y-63202381D02*
X132428571Y-63202381D01*
X132428571Y-62202381D01*
X133428571Y-62202381D02*
X133619048Y-62202381D01*
X133714286Y-62250000D01*
X133809524Y-62345238D01*
X133857143Y-62535714D01*
X133857143Y-62869048D01*
X133809524Y-63059524D01*
X133714286Y-63154762D01*
X133619048Y-63202381D01*
X133428571Y-63202381D01*
X133333333Y-63154762D01*
X133238095Y-63059524D01*
X133190476Y-62869048D01*
X133190476Y-62535714D01*
X133238095Y-62345238D01*
X133333333Y-62250000D01*
X133428571Y-62202381D01*
X134142857Y-62202381D02*
X134476190Y-63202381D01*
X134809524Y-62202381D01*
X135142857Y-62678571D02*
X135476191Y-62678571D01*
X135619048Y-63202381D02*
X135142857Y-63202381D01*
X135142857Y-62202381D01*
X135619048Y-62202381D01*
X134071429Y-53178571D02*
X134214286Y-53226190D01*
X134261905Y-53273810D01*
X134309524Y-53369048D01*
X134309524Y-53511905D01*
X134261905Y-53607143D01*
X134214286Y-53654762D01*
X134119048Y-53702381D01*
X133738095Y-53702381D01*
X133738095Y-52702381D01*
X134071429Y-52702381D01*
X134166667Y-52750000D01*
X134214286Y-52797619D01*
X134261905Y-52892857D01*
X134261905Y-52988095D01*
X134214286Y-53083333D01*
X134166667Y-53130952D01*
X134071429Y-53178571D01*
X133738095Y-53178571D01*
X134071429Y-77178571D02*
X134214286Y-77226190D01*
X134261905Y-77273810D01*
X134309524Y-77369048D01*
X134309524Y-77511905D01*
X134261905Y-77607143D01*
X134214286Y-77654762D01*
X134119048Y-77702381D01*
X133738095Y-77702381D01*
X133738095Y-76702381D01*
X134071429Y-76702381D01*
X134166667Y-76750000D01*
X134214286Y-76797619D01*
X134261905Y-76892857D01*
X134261905Y-76988095D01*
X134214286Y-77083333D01*
X134166667Y-77130952D01*
X134071429Y-77178571D01*
X133738095Y-77178571D01*
X132452381Y-87202381D02*
X132452381Y-86202381D01*
X132452381Y-86678571D02*
X133023810Y-86678571D01*
X133023810Y-87202381D02*
X133023810Y-86202381D01*
X133452381Y-86916667D02*
X133928572Y-86916667D01*
X133357143Y-87202381D02*
X133690476Y-86202381D01*
X134023810Y-87202381D01*
X134214286Y-86202381D02*
X134785715Y-86202381D01*
X134500000Y-87202381D02*
X134500000Y-86202381D01*
X135119048Y-86678571D02*
X135452382Y-86678571D01*
X135595239Y-87202381D02*
X135119048Y-87202381D01*
X135119048Y-86202381D01*
X135595239Y-86202381D01*
X134071429Y-101178571D02*
X134214286Y-101226190D01*
X134261905Y-101273810D01*
X134309524Y-101369048D01*
X134309524Y-101511905D01*
X134261905Y-101607143D01*
X134214286Y-101654762D01*
X134119048Y-101702381D01*
X133738095Y-101702381D01*
X133738095Y-100702381D01*
X134071429Y-100702381D01*
X134166667Y-100750000D01*
X134214286Y-100797619D01*
X134261905Y-100892857D01*
X134261905Y-100988095D01*
X134214286Y-101083333D01*
X134166667Y-101130952D01*
X134071429Y-101178571D01*
X133738095Y-101178571D01*
X132857143Y-134678571D02*
X132523809Y-134678571D01*
X132523809Y-135202381D02*
X132523809Y-134202381D01*
X133000000Y-134202381D01*
X133333333Y-134916667D02*
X133809524Y-134916667D01*
X133238095Y-135202381D02*
X133571428Y-134202381D01*
X133904762Y-135202381D01*
X134190476Y-135154762D02*
X134333333Y-135202381D01*
X134571429Y-135202381D01*
X134666667Y-135154762D01*
X134714286Y-135107143D01*
X134761905Y-135011905D01*
X134761905Y-134916667D01*
X134714286Y-134821429D01*
X134666667Y-134773810D01*
X134571429Y-134726190D01*
X134380952Y-134678571D01*
X134285714Y-134630952D01*
X134238095Y-134583333D01*
X134190476Y-134488095D01*
X134190476Y-134392857D01*
X134238095Y-134297619D01*
X134285714Y-134250000D01*
X134380952Y-134202381D01*
X134619048Y-134202381D01*
X134761905Y-134250000D01*
X135047619Y-134202381D02*
X135619048Y-134202381D01*
X135333333Y-135202381D02*
X135333333Y-134202381D01*
X133761905Y-125416667D02*
X134238096Y-125416667D01*
X133666667Y-125702381D02*
X134000000Y-124702381D01*
X134333334Y-125702381D01*
X132285714Y-110952381D02*
X132285714Y-109952381D01*
X132285714Y-110428571D02*
X132857143Y-110428571D01*
X132857143Y-110952381D02*
X132857143Y-109952381D01*
X133523809Y-109952381D02*
X133714286Y-109952381D01*
X133809524Y-110000000D01*
X133904762Y-110095238D01*
X133952381Y-110285714D01*
X133952381Y-110619048D01*
X133904762Y-110809524D01*
X133809524Y-110904762D01*
X133714286Y-110952381D01*
X133523809Y-110952381D01*
X133428571Y-110904762D01*
X133333333Y-110809524D01*
X133285714Y-110619048D01*
X133285714Y-110285714D01*
X133333333Y-110095238D01*
X133428571Y-110000000D01*
X133523809Y-109952381D01*
X134857143Y-110952381D02*
X134380952Y-110952381D01*
X134380952Y-109952381D01*
X135190476Y-110952381D02*
X135190476Y-109952381D01*
X135428571Y-109952381D01*
X135571429Y-110000000D01*
X135666667Y-110095238D01*
X135714286Y-110190476D01*
X135761905Y-110380952D01*
X135761905Y-110523810D01*
X135714286Y-110714286D01*
X135666667Y-110809524D01*
X135571429Y-110904762D01*
X135428571Y-110952381D01*
X135190476Y-110952381D01*
X170904762Y-63202381D02*
X170428571Y-63202381D01*
X170428571Y-62202381D01*
X171428571Y-62202381D02*
X171619048Y-62202381D01*
X171714286Y-62250000D01*
X171809524Y-62345238D01*
X171857143Y-62535714D01*
X171857143Y-62869048D01*
X171809524Y-63059524D01*
X171714286Y-63154762D01*
X171619048Y-63202381D01*
X171428571Y-63202381D01*
X171333333Y-63154762D01*
X171238095Y-63059524D01*
X171190476Y-62869048D01*
X171190476Y-62535714D01*
X171238095Y-62345238D01*
X171333333Y-62250000D01*
X171428571Y-62202381D01*
X172142857Y-62202381D02*
X172476190Y-63202381D01*
X172809524Y-62202381D01*
X173142857Y-62678571D02*
X173476191Y-62678571D01*
X173619048Y-63202381D02*
X173142857Y-63202381D01*
X173142857Y-62202381D01*
X173619048Y-62202381D01*
X172071429Y-77178571D02*
X172214286Y-77226190D01*
X172261905Y-77273810D01*
X172309524Y-77369048D01*
X172309524Y-77511905D01*
X172261905Y-77607143D01*
X172214286Y-77654762D01*
X172119048Y-77702381D01*
X171738095Y-77702381D01*
X171738095Y-76702381D01*
X172071429Y-76702381D01*
X172166667Y-76750000D01*
X172214286Y-76797619D01*
X172261905Y-76892857D01*
X172261905Y-76988095D01*
X172214286Y-77083333D01*
X172166667Y-77130952D01*
X172071429Y-77178571D01*
X171738095Y-77178571D01*
X172071429Y-53178571D02*
X172214286Y-53226190D01*
X172261905Y-53273810D01*
X172309524Y-53369048D01*
X172309524Y-53511905D01*
X172261905Y-53607143D01*
X172214286Y-53654762D01*
X172119048Y-53702381D01*
X171738095Y-53702381D01*
X171738095Y-52702381D01*
X172071429Y-52702381D01*
X172166667Y-52750000D01*
X172214286Y-52797619D01*
X172261905Y-52892857D01*
X172261905Y-52988095D01*
X172214286Y-53083333D01*
X172166667Y-53130952D01*
X172071429Y-53178571D01*
X171738095Y-53178571D01*
X170857143Y-134678571D02*
X170523809Y-134678571D01*
X170523809Y-135202381D02*
X170523809Y-134202381D01*
X171000000Y-134202381D01*
X171333333Y-134916667D02*
X171809524Y-134916667D01*
X171238095Y-135202381D02*
X171571428Y-134202381D01*
X171904762Y-135202381D01*
X172190476Y-135154762D02*
X172333333Y-135202381D01*
X172571429Y-135202381D01*
X172666667Y-135154762D01*
X172714286Y-135107143D01*
X172761905Y-135011905D01*
X172761905Y-134916667D01*
X172714286Y-134821429D01*
X172666667Y-134773810D01*
X172571429Y-134726190D01*
X172380952Y-134678571D01*
X172285714Y-134630952D01*
X172238095Y-134583333D01*
X172190476Y-134488095D01*
X172190476Y-134392857D01*
X172238095Y-134297619D01*
X172285714Y-134250000D01*
X172380952Y-134202381D01*
X172619048Y-134202381D01*
X172761905Y-134250000D01*
X173047619Y-134202381D02*
X173619048Y-134202381D01*
X173333333Y-135202381D02*
X173333333Y-134202381D01*
X172071429Y-101178571D02*
X172214286Y-101226190D01*
X172261905Y-101273810D01*
X172309524Y-101369048D01*
X172309524Y-101511905D01*
X172261905Y-101607143D01*
X172214286Y-101654762D01*
X172119048Y-101702381D01*
X171738095Y-101702381D01*
X171738095Y-100702381D01*
X172071429Y-100702381D01*
X172166667Y-100750000D01*
X172214286Y-100797619D01*
X172261905Y-100892857D01*
X172261905Y-100988095D01*
X172214286Y-101083333D01*
X172166667Y-101130952D01*
X172071429Y-101178571D01*
X171738095Y-101178571D01*
X170452381Y-87202381D02*
X170452381Y-86202381D01*
X170452381Y-86678571D02*
X171023810Y-86678571D01*
X171023810Y-87202381D02*
X171023810Y-86202381D01*
X171452381Y-86916667D02*
X171928572Y-86916667D01*
X171357143Y-87202381D02*
X171690476Y-86202381D01*
X172023810Y-87202381D01*
X172214286Y-86202381D02*
X172785715Y-86202381D01*
X172500000Y-87202381D02*
X172500000Y-86202381D01*
X173119048Y-86678571D02*
X173452382Y-86678571D01*
X173595239Y-87202381D02*
X173119048Y-87202381D01*
X173119048Y-86202381D01*
X173595239Y-86202381D01*
X170285714Y-110952381D02*
X170285714Y-109952381D01*
X170285714Y-110428571D02*
X170857143Y-110428571D01*
X170857143Y-110952381D02*
X170857143Y-109952381D01*
X171523809Y-109952381D02*
X171714286Y-109952381D01*
X171809524Y-110000000D01*
X171904762Y-110095238D01*
X171952381Y-110285714D01*
X171952381Y-110619048D01*
X171904762Y-110809524D01*
X171809524Y-110904762D01*
X171714286Y-110952381D01*
X171523809Y-110952381D01*
X171428571Y-110904762D01*
X171333333Y-110809524D01*
X171285714Y-110619048D01*
X171285714Y-110285714D01*
X171333333Y-110095238D01*
X171428571Y-110000000D01*
X171523809Y-109952381D01*
X172857143Y-110952381D02*
X172380952Y-110952381D01*
X172380952Y-109952381D01*
X173190476Y-110952381D02*
X173190476Y-109952381D01*
X173428571Y-109952381D01*
X173571429Y-110000000D01*
X173666667Y-110095238D01*
X173714286Y-110190476D01*
X173761905Y-110380952D01*
X173761905Y-110523810D01*
X173714286Y-110714286D01*
X173666667Y-110809524D01*
X173571429Y-110904762D01*
X173428571Y-110952381D01*
X173190476Y-110952381D01*
X171761905Y-125416667D02*
X172238096Y-125416667D01*
X171666667Y-125702381D02*
X172000000Y-124702381D01*
X172333334Y-125702381D01*
X96071429Y-53178571D02*
X96214286Y-53226190D01*
X96261905Y-53273810D01*
X96309524Y-53369048D01*
X96309524Y-53511905D01*
X96261905Y-53607143D01*
X96214286Y-53654762D01*
X96119048Y-53702381D01*
X95738095Y-53702381D01*
X95738095Y-52702381D01*
X96071429Y-52702381D01*
X96166667Y-52750000D01*
X96214286Y-52797619D01*
X96261905Y-52892857D01*
X96261905Y-52988095D01*
X96214286Y-53083333D01*
X96166667Y-53130952D01*
X96071429Y-53178571D01*
X95738095Y-53178571D01*
X94904762Y-63202381D02*
X94428571Y-63202381D01*
X94428571Y-62202381D01*
X95428571Y-62202381D02*
X95619048Y-62202381D01*
X95714286Y-62250000D01*
X95809524Y-62345238D01*
X95857143Y-62535714D01*
X95857143Y-62869048D01*
X95809524Y-63059524D01*
X95714286Y-63154762D01*
X95619048Y-63202381D01*
X95428571Y-63202381D01*
X95333333Y-63154762D01*
X95238095Y-63059524D01*
X95190476Y-62869048D01*
X95190476Y-62535714D01*
X95238095Y-62345238D01*
X95333333Y-62250000D01*
X95428571Y-62202381D01*
X96142857Y-62202381D02*
X96476190Y-63202381D01*
X96809524Y-62202381D01*
X97142857Y-62678571D02*
X97476191Y-62678571D01*
X97619048Y-63202381D02*
X97142857Y-63202381D01*
X97142857Y-62202381D01*
X97619048Y-62202381D01*
X95761905Y-125416667D02*
X96238096Y-125416667D01*
X95666667Y-125702381D02*
X96000000Y-124702381D01*
X96333334Y-125702381D01*
X94857143Y-134678571D02*
X94523809Y-134678571D01*
X94523809Y-135202381D02*
X94523809Y-134202381D01*
X95000000Y-134202381D01*
X95333333Y-134916667D02*
X95809524Y-134916667D01*
X95238095Y-135202381D02*
X95571428Y-134202381D01*
X95904762Y-135202381D01*
X96190476Y-135154762D02*
X96333333Y-135202381D01*
X96571429Y-135202381D01*
X96666667Y-135154762D01*
X96714286Y-135107143D01*
X96761905Y-135011905D01*
X96761905Y-134916667D01*
X96714286Y-134821429D01*
X96666667Y-134773810D01*
X96571429Y-134726190D01*
X96380952Y-134678571D01*
X96285714Y-134630952D01*
X96238095Y-134583333D01*
X96190476Y-134488095D01*
X96190476Y-134392857D01*
X96238095Y-134297619D01*
X96285714Y-134250000D01*
X96380952Y-134202381D01*
X96619048Y-134202381D01*
X96761905Y-134250000D01*
X97047619Y-134202381D02*
X97619048Y-134202381D01*
X97333333Y-135202381D02*
X97333333Y-134202381D01*
X94285714Y-110952381D02*
X94285714Y-109952381D01*
X94285714Y-110428571D02*
X94857143Y-110428571D01*
X94857143Y-110952381D02*
X94857143Y-109952381D01*
X95523809Y-109952381D02*
X95714286Y-109952381D01*
X95809524Y-110000000D01*
X95904762Y-110095238D01*
X95952381Y-110285714D01*
X95952381Y-110619048D01*
X95904762Y-110809524D01*
X95809524Y-110904762D01*
X95714286Y-110952381D01*
X95523809Y-110952381D01*
X95428571Y-110904762D01*
X95333333Y-110809524D01*
X95285714Y-110619048D01*
X95285714Y-110285714D01*
X95333333Y-110095238D01*
X95428571Y-110000000D01*
X95523809Y-109952381D01*
X96857143Y-110952381D02*
X96380952Y-110952381D01*
X96380952Y-109952381D01*
X97190476Y-110952381D02*
X97190476Y-109952381D01*
X97428571Y-109952381D01*
X97571429Y-110000000D01*
X97666667Y-110095238D01*
X97714286Y-110190476D01*
X97761905Y-110380952D01*
X97761905Y-110523810D01*
X97714286Y-110714286D01*
X97666667Y-110809524D01*
X97571429Y-110904762D01*
X97428571Y-110952381D01*
X97190476Y-110952381D01*
X96071429Y-77178571D02*
X96214286Y-77226190D01*
X96261905Y-77273810D01*
X96309524Y-77369048D01*
X96309524Y-77511905D01*
X96261905Y-77607143D01*
X96214286Y-77654762D01*
X96119048Y-77702381D01*
X95738095Y-77702381D01*
X95738095Y-76702381D01*
X96071429Y-76702381D01*
X96166667Y-76750000D01*
X96214286Y-76797619D01*
X96261905Y-76892857D01*
X96261905Y-76988095D01*
X96214286Y-77083333D01*
X96166667Y-77130952D01*
X96071429Y-77178571D01*
X95738095Y-77178571D01*
X94452381Y-87202381D02*
X94452381Y-86202381D01*
X94452381Y-86678571D02*
X95023810Y-86678571D01*
X95023810Y-87202381D02*
X95023810Y-86202381D01*
X95452381Y-86916667D02*
X95928572Y-86916667D01*
X95357143Y-87202381D02*
X95690476Y-86202381D01*
X96023810Y-87202381D01*
X96214286Y-86202381D02*
X96785715Y-86202381D01*
X96500000Y-87202381D02*
X96500000Y-86202381D01*
X97119048Y-86678571D02*
X97452382Y-86678571D01*
X97595239Y-87202381D02*
X97119048Y-87202381D01*
X97119048Y-86202381D01*
X97595239Y-86202381D01*
X96071429Y-101178571D02*
X96214286Y-101226190D01*
X96261905Y-101273810D01*
X96309524Y-101369048D01*
X96309524Y-101511905D01*
X96261905Y-101607143D01*
X96214286Y-101654762D01*
X96119048Y-101702381D01*
X95738095Y-101702381D01*
X95738095Y-100702381D01*
X96071429Y-100702381D01*
X96166667Y-100750000D01*
X96214286Y-100797619D01*
X96261905Y-100892857D01*
X96261905Y-100988095D01*
X96214286Y-101083333D01*
X96166667Y-101130952D01*
X96071429Y-101178571D01*
X95738095Y-101178571D01*
X56857143Y-134678571D02*
X56523809Y-134678571D01*
X56523809Y-135202381D02*
X56523809Y-134202381D01*
X57000000Y-134202381D01*
X57333333Y-134916667D02*
X57809524Y-134916667D01*
X57238095Y-135202381D02*
X57571428Y-134202381D01*
X57904762Y-135202381D01*
X58190476Y-135154762D02*
X58333333Y-135202381D01*
X58571429Y-135202381D01*
X58666667Y-135154762D01*
X58714286Y-135107143D01*
X58761905Y-135011905D01*
X58761905Y-134916667D01*
X58714286Y-134821429D01*
X58666667Y-134773810D01*
X58571429Y-134726190D01*
X58380952Y-134678571D01*
X58285714Y-134630952D01*
X58238095Y-134583333D01*
X58190476Y-134488095D01*
X58190476Y-134392857D01*
X58238095Y-134297619D01*
X58285714Y-134250000D01*
X58380952Y-134202381D01*
X58619048Y-134202381D01*
X58761905Y-134250000D01*
X59047619Y-134202381D02*
X59619048Y-134202381D01*
X59333333Y-135202381D02*
X59333333Y-134202381D01*
X56285714Y-110952381D02*
X56285714Y-109952381D01*
X56285714Y-110428571D02*
X56857143Y-110428571D01*
X56857143Y-110952381D02*
X56857143Y-109952381D01*
X57523809Y-109952381D02*
X57714286Y-109952381D01*
X57809524Y-110000000D01*
X57904762Y-110095238D01*
X57952381Y-110285714D01*
X57952381Y-110619048D01*
X57904762Y-110809524D01*
X57809524Y-110904762D01*
X57714286Y-110952381D01*
X57523809Y-110952381D01*
X57428571Y-110904762D01*
X57333333Y-110809524D01*
X57285714Y-110619048D01*
X57285714Y-110285714D01*
X57333333Y-110095238D01*
X57428571Y-110000000D01*
X57523809Y-109952381D01*
X58857143Y-110952381D02*
X58380952Y-110952381D01*
X58380952Y-109952381D01*
X59190476Y-110952381D02*
X59190476Y-109952381D01*
X59428571Y-109952381D01*
X59571429Y-110000000D01*
X59666667Y-110095238D01*
X59714286Y-110190476D01*
X59761905Y-110380952D01*
X59761905Y-110523810D01*
X59714286Y-110714286D01*
X59666667Y-110809524D01*
X59571429Y-110904762D01*
X59428571Y-110952381D01*
X59190476Y-110952381D01*
X56452381Y-87202381D02*
X56452381Y-86202381D01*
X56452381Y-86678571D02*
X57023810Y-86678571D01*
X57023810Y-87202381D02*
X57023810Y-86202381D01*
X57452381Y-86916667D02*
X57928572Y-86916667D01*
X57357143Y-87202381D02*
X57690476Y-86202381D01*
X58023810Y-87202381D01*
X58214286Y-86202381D02*
X58785715Y-86202381D01*
X58500000Y-87202381D02*
X58500000Y-86202381D01*
X59119048Y-86678571D02*
X59452382Y-86678571D01*
X59595239Y-87202381D02*
X59119048Y-87202381D01*
X59119048Y-86202381D01*
X59595239Y-86202381D01*
X56904762Y-63202381D02*
X56428571Y-63202381D01*
X56428571Y-62202381D01*
X57428571Y-62202381D02*
X57619048Y-62202381D01*
X57714286Y-62250000D01*
X57809524Y-62345238D01*
X57857143Y-62535714D01*
X57857143Y-62869048D01*
X57809524Y-63059524D01*
X57714286Y-63154762D01*
X57619048Y-63202381D01*
X57428571Y-63202381D01*
X57333333Y-63154762D01*
X57238095Y-63059524D01*
X57190476Y-62869048D01*
X57190476Y-62535714D01*
X57238095Y-62345238D01*
X57333333Y-62250000D01*
X57428571Y-62202381D01*
X58142857Y-62202381D02*
X58476190Y-63202381D01*
X58809524Y-62202381D01*
X59142857Y-62678571D02*
X59476191Y-62678571D01*
X59619048Y-63202381D02*
X59142857Y-63202381D01*
X59142857Y-62202381D01*
X59619048Y-62202381D01*
X58071429Y-53178571D02*
X58214286Y-53226190D01*
X58261905Y-53273810D01*
X58309524Y-53369048D01*
X58309524Y-53511905D01*
X58261905Y-53607143D01*
X58214286Y-53654762D01*
X58119048Y-53702381D01*
X57738095Y-53702381D01*
X57738095Y-52702381D01*
X58071429Y-52702381D01*
X58166667Y-52750000D01*
X58214286Y-52797619D01*
X58261905Y-52892857D01*
X58261905Y-52988095D01*
X58214286Y-53083333D01*
X58166667Y-53130952D01*
X58071429Y-53178571D01*
X57738095Y-53178571D01*
X58071429Y-77178571D02*
X58214286Y-77226190D01*
X58261905Y-77273810D01*
X58309524Y-77369048D01*
X58309524Y-77511905D01*
X58261905Y-77607143D01*
X58214286Y-77654762D01*
X58119048Y-77702381D01*
X57738095Y-77702381D01*
X57738095Y-76702381D01*
X58071429Y-76702381D01*
X58166667Y-76750000D01*
X58214286Y-76797619D01*
X58261905Y-76892857D01*
X58261905Y-76988095D01*
X58214286Y-77083333D01*
X58166667Y-77130952D01*
X58071429Y-77178571D01*
X57738095Y-77178571D01*
X58071429Y-101178571D02*
X58214286Y-101226190D01*
X58261905Y-101273810D01*
X58309524Y-101369048D01*
X58309524Y-101511905D01*
X58261905Y-101607143D01*
X58214286Y-101654762D01*
X58119048Y-101702381D01*
X57738095Y-101702381D01*
X57738095Y-100702381D01*
X58071429Y-100702381D01*
X58166667Y-100750000D01*
X58214286Y-100797619D01*
X58261905Y-100892857D01*
X58261905Y-100988095D01*
X58214286Y-101083333D01*
X58166667Y-101130952D01*
X58071429Y-101178571D01*
X57738095Y-101178571D01*
X57761905Y-125416667D02*
X58238096Y-125416667D01*
X57666667Y-125702381D02*
X58000000Y-124702381D01*
X58333334Y-125702381D01*
D12*
X250236068Y-53250000D02*
G75*
G03X250236068Y-53250000I-2236068J0D01*
G01*
X243000000Y-53250000D02*
X243000000Y-48250000D01*
X243000000Y-48250000D02*
X253000000Y-48250000D01*
X253000000Y-48250000D02*
X253000000Y-59250000D01*
X253000000Y-59250000D02*
X243000000Y-59250000D01*
X243000000Y-59250000D02*
X243000000Y-53250000D01*
D11*
X257915476Y-145000000D02*
G75*
G03X257915476Y-145000000I-2915476J0D01*
G01*
X260000000Y-140000000D02*
X260000000Y-150000000D01*
X260000000Y-150000000D02*
X249000000Y-150000000D01*
X249000000Y-150000000D02*
X249000000Y-140000000D01*
X249000000Y-140000000D02*
X260000000Y-140000000D01*
X257000000Y-145000000D02*
G75*
G03X257000000Y-145000000I-2000000J0D01*
G01*
D12*
X250236068Y-125250000D02*
G75*
G03X250236068Y-125250000I-2236068J0D01*
G01*
X243000000Y-125250000D02*
X243000000Y-120250000D01*
X243000000Y-120250000D02*
X253000000Y-120250000D01*
X253000000Y-120250000D02*
X253000000Y-131250000D01*
X253000000Y-131250000D02*
X243000000Y-131250000D01*
X243000000Y-131250000D02*
X243000000Y-125250000D01*
D11*
X243915476Y-145000000D02*
G75*
G03X243915476Y-145000000I-2915476J0D01*
G01*
X236000000Y-150000000D02*
X236000000Y-140000000D01*
X236000000Y-140000000D02*
X247000000Y-140000000D01*
X247000000Y-140000000D02*
X247000000Y-150000000D01*
X247000000Y-150000000D02*
X236000000Y-150000000D01*
X243000000Y-145000000D02*
G75*
G03X243000000Y-145000000I-2000000J0D01*
G01*
D12*
X212236068Y-53250000D02*
G75*
G03X212236068Y-53250000I-2236068J0D01*
G01*
X205000000Y-53250000D02*
X205000000Y-48250000D01*
X205000000Y-48250000D02*
X215000000Y-48250000D01*
X215000000Y-48250000D02*
X215000000Y-59250000D01*
X215000000Y-59250000D02*
X205000000Y-59250000D01*
X205000000Y-59250000D02*
X205000000Y-53250000D01*
D11*
X197150000Y-58250000D02*
X197350000Y-58250000D01*
X194650000Y-58250000D02*
X194350000Y-58250000D01*
X196250000Y-58250000D02*
X197150000Y-58250000D01*
X194650000Y-58250000D02*
X195550000Y-58250000D01*
X196250000Y-57750000D02*
X196250000Y-58750000D01*
X195550000Y-57750000D02*
X195550000Y-58750000D01*
X195550000Y-58750000D02*
X196250000Y-58250000D01*
X196250000Y-58250000D02*
X195550000Y-57750000D01*
X197350000Y-58250000D02*
G75*
G03X197350000Y-58250000I-1500000J0D01*
G01*
X197150000Y-48250000D02*
X197350000Y-48250000D01*
X194650000Y-48250000D02*
X194350000Y-48250000D01*
X196250000Y-48250000D02*
X197150000Y-48250000D01*
X194650000Y-48250000D02*
X195550000Y-48250000D01*
X196250000Y-47750000D02*
X196250000Y-48750000D01*
X195550000Y-47750000D02*
X195550000Y-48750000D01*
X195550000Y-48750000D02*
X196250000Y-48250000D01*
X196250000Y-48250000D02*
X195550000Y-47750000D01*
X197350000Y-48250000D02*
G75*
G03X197350000Y-48250000I-1500000J0D01*
G01*
X197150000Y-53250000D02*
X197350000Y-53250000D01*
X194650000Y-53250000D02*
X194350000Y-53250000D01*
X196250000Y-53250000D02*
X197150000Y-53250000D01*
X194650000Y-53250000D02*
X195550000Y-53250000D01*
X196250000Y-52750000D02*
X196250000Y-53750000D01*
X195550000Y-52750000D02*
X195550000Y-53750000D01*
X195550000Y-53750000D02*
X196250000Y-53250000D01*
X196250000Y-53250000D02*
X195550000Y-52750000D01*
X197350000Y-53250000D02*
G75*
G03X197350000Y-53250000I-1500000J0D01*
G01*
X187750000Y-54500000D02*
X190250000Y-54500000D01*
X190250000Y-54500000D02*
X190250000Y-57000000D01*
X190250000Y-57000000D02*
X187750000Y-57000000D01*
X187750000Y-57000000D02*
X187750000Y-54500000D01*
X190820027Y-55750000D02*
G75*
G03X190820027Y-55750000I-1820027J0D01*
G01*
X186000000Y-52750000D02*
X192000000Y-52750000D01*
X192000000Y-52750000D02*
X192000000Y-58750000D01*
X192000000Y-58750000D02*
X186000000Y-58750000D01*
X186000000Y-58750000D02*
X186000000Y-52750000D01*
X191915476Y-125250000D02*
G75*
G03X191915476Y-125250000I-2915476J0D01*
G01*
X184000000Y-130250000D02*
X184000000Y-120250000D01*
X184000000Y-120250000D02*
X195000000Y-120250000D01*
X195000000Y-120250000D02*
X195000000Y-130250000D01*
X195000000Y-130250000D02*
X184000000Y-130250000D01*
X191000000Y-125250000D02*
G75*
G03X191000000Y-125250000I-2000000J0D01*
G01*
X191915476Y-145000000D02*
G75*
G03X191915476Y-145000000I-2915476J0D01*
G01*
X184000000Y-150000000D02*
X184000000Y-140000000D01*
X184000000Y-140000000D02*
X195000000Y-140000000D01*
X195000000Y-140000000D02*
X195000000Y-150000000D01*
X195000000Y-150000000D02*
X184000000Y-150000000D01*
X191000000Y-145000000D02*
G75*
G03X191000000Y-145000000I-2000000J0D01*
G01*
X205915476Y-145000000D02*
G75*
G03X205915476Y-145000000I-2915476J0D01*
G01*
X198000000Y-150000000D02*
X198000000Y-140000000D01*
X198000000Y-140000000D02*
X209000000Y-140000000D01*
X209000000Y-140000000D02*
X209000000Y-150000000D01*
X209000000Y-150000000D02*
X198000000Y-150000000D01*
X205000000Y-145000000D02*
G75*
G03X205000000Y-145000000I-2000000J0D01*
G01*
X229915476Y-77250000D02*
G75*
G03X229915476Y-77250000I-2915476J0D01*
G01*
X222000000Y-82250000D02*
X222000000Y-72250000D01*
X222000000Y-72250000D02*
X233000000Y-72250000D01*
X233000000Y-72250000D02*
X233000000Y-82250000D01*
X233000000Y-82250000D02*
X222000000Y-82250000D01*
X229000000Y-77250000D02*
G75*
G03X229000000Y-77250000I-2000000J0D01*
G01*
D12*
X250236068Y-101250000D02*
G75*
G03X250236068Y-101250000I-2236068J0D01*
G01*
X243000000Y-101250000D02*
X243000000Y-96250000D01*
X243000000Y-96250000D02*
X253000000Y-96250000D01*
X253000000Y-96250000D02*
X253000000Y-107250000D01*
X253000000Y-107250000D02*
X243000000Y-107250000D01*
X243000000Y-107250000D02*
X243000000Y-101250000D01*
D11*
X235150000Y-63250000D02*
X235350000Y-63250000D01*
X232650000Y-63250000D02*
X232350000Y-63250000D01*
X234250000Y-63250000D02*
X235150000Y-63250000D01*
X232650000Y-63250000D02*
X233550000Y-63250000D01*
X234250000Y-62750000D02*
X234250000Y-63750000D01*
X233550000Y-62750000D02*
X233550000Y-63750000D01*
X233550000Y-63750000D02*
X234250000Y-63250000D01*
X234250000Y-63250000D02*
X233550000Y-62750000D01*
X235350000Y-63250000D02*
G75*
G03X235350000Y-63250000I-1500000J0D01*
G01*
X229915476Y-101250000D02*
G75*
G03X229915476Y-101250000I-2915476J0D01*
G01*
X222000000Y-106250000D02*
X222000000Y-96250000D01*
X222000000Y-96250000D02*
X233000000Y-96250000D01*
X233000000Y-96250000D02*
X233000000Y-106250000D01*
X233000000Y-106250000D02*
X222000000Y-106250000D01*
X229000000Y-101250000D02*
G75*
G03X229000000Y-101250000I-2000000J0D01*
G01*
D12*
X250236068Y-77250000D02*
G75*
G03X250236068Y-77250000I-2236068J0D01*
G01*
X243000000Y-77250000D02*
X243000000Y-72250000D01*
X243000000Y-72250000D02*
X253000000Y-72250000D01*
X253000000Y-72250000D02*
X253000000Y-83250000D01*
X253000000Y-83250000D02*
X243000000Y-83250000D01*
X243000000Y-83250000D02*
X243000000Y-77250000D01*
D11*
X225750000Y-54500000D02*
X228250000Y-54500000D01*
X228250000Y-54500000D02*
X228250000Y-57000000D01*
X228250000Y-57000000D02*
X225750000Y-57000000D01*
X225750000Y-57000000D02*
X225750000Y-54500000D01*
X228820027Y-55750000D02*
G75*
G03X228820027Y-55750000I-1820027J0D01*
G01*
X224000000Y-52750000D02*
X230000000Y-52750000D01*
X230000000Y-52750000D02*
X230000000Y-58750000D01*
X230000000Y-58750000D02*
X224000000Y-58750000D01*
X224000000Y-58750000D02*
X224000000Y-52750000D01*
X235150000Y-48250000D02*
X235350000Y-48250000D01*
X232650000Y-48250000D02*
X232350000Y-48250000D01*
X234250000Y-48250000D02*
X235150000Y-48250000D01*
X232650000Y-48250000D02*
X233550000Y-48250000D01*
X234250000Y-47750000D02*
X234250000Y-48750000D01*
X233550000Y-47750000D02*
X233550000Y-48750000D01*
X233550000Y-48750000D02*
X234250000Y-48250000D01*
X234250000Y-48250000D02*
X233550000Y-47750000D01*
X235350000Y-48250000D02*
G75*
G03X235350000Y-48250000I-1500000J0D01*
G01*
X235150000Y-58250000D02*
X235350000Y-58250000D01*
X232650000Y-58250000D02*
X232350000Y-58250000D01*
X234250000Y-58250000D02*
X235150000Y-58250000D01*
X232650000Y-58250000D02*
X233550000Y-58250000D01*
X234250000Y-57750000D02*
X234250000Y-58750000D01*
X233550000Y-57750000D02*
X233550000Y-58750000D01*
X233550000Y-58750000D02*
X234250000Y-58250000D01*
X234250000Y-58250000D02*
X233550000Y-57750000D01*
X235350000Y-58250000D02*
G75*
G03X235350000Y-58250000I-1500000J0D01*
G01*
X235150000Y-53250000D02*
X235350000Y-53250000D01*
X232650000Y-53250000D02*
X232350000Y-53250000D01*
X234250000Y-53250000D02*
X235150000Y-53250000D01*
X232650000Y-53250000D02*
X233550000Y-53250000D01*
X234250000Y-52750000D02*
X234250000Y-53750000D01*
X233550000Y-52750000D02*
X233550000Y-53750000D01*
X233550000Y-53750000D02*
X234250000Y-53250000D01*
X234250000Y-53250000D02*
X233550000Y-52750000D01*
X235350000Y-53250000D02*
G75*
G03X235350000Y-53250000I-1500000J0D01*
G01*
X229915476Y-145000000D02*
G75*
G03X229915476Y-145000000I-2915476J0D01*
G01*
X222000000Y-150000000D02*
X222000000Y-140000000D01*
X222000000Y-140000000D02*
X233000000Y-140000000D01*
X233000000Y-140000000D02*
X233000000Y-150000000D01*
X233000000Y-150000000D02*
X222000000Y-150000000D01*
X229000000Y-145000000D02*
G75*
G03X229000000Y-145000000I-2000000J0D01*
G01*
D12*
X212236068Y-125250000D02*
G75*
G03X212236068Y-125250000I-2236068J0D01*
G01*
X205000000Y-125250000D02*
X205000000Y-120250000D01*
X205000000Y-120250000D02*
X215000000Y-120250000D01*
X215000000Y-120250000D02*
X215000000Y-131250000D01*
X215000000Y-131250000D02*
X205000000Y-131250000D01*
X205000000Y-131250000D02*
X205000000Y-125250000D01*
D11*
X219915476Y-145000000D02*
G75*
G03X219915476Y-145000000I-2915476J0D01*
G01*
X222000000Y-140000000D02*
X222000000Y-150000000D01*
X222000000Y-150000000D02*
X211000000Y-150000000D01*
X211000000Y-150000000D02*
X211000000Y-140000000D01*
X211000000Y-140000000D02*
X222000000Y-140000000D01*
X219000000Y-145000000D02*
G75*
G03X219000000Y-145000000I-2000000J0D01*
G01*
X229915476Y-125250000D02*
G75*
G03X229915476Y-125250000I-2915476J0D01*
G01*
X222000000Y-130250000D02*
X222000000Y-120250000D01*
X222000000Y-120250000D02*
X233000000Y-120250000D01*
X233000000Y-120250000D02*
X233000000Y-130250000D01*
X233000000Y-130250000D02*
X222000000Y-130250000D01*
X229000000Y-125250000D02*
G75*
G03X229000000Y-125250000I-2000000J0D01*
G01*
D12*
X212236068Y-77250000D02*
G75*
G03X212236068Y-77250000I-2236068J0D01*
G01*
X205000000Y-77250000D02*
X205000000Y-72250000D01*
X205000000Y-72250000D02*
X215000000Y-72250000D01*
X215000000Y-72250000D02*
X215000000Y-83250000D01*
X215000000Y-83250000D02*
X205000000Y-83250000D01*
X205000000Y-83250000D02*
X205000000Y-77250000D01*
D11*
X191915476Y-101250000D02*
G75*
G03X191915476Y-101250000I-2915476J0D01*
G01*
X184000000Y-106250000D02*
X184000000Y-96250000D01*
X184000000Y-96250000D02*
X195000000Y-96250000D01*
X195000000Y-96250000D02*
X195000000Y-106250000D01*
X195000000Y-106250000D02*
X184000000Y-106250000D01*
X191000000Y-101250000D02*
G75*
G03X191000000Y-101250000I-2000000J0D01*
G01*
D12*
X212236068Y-101250000D02*
G75*
G03X212236068Y-101250000I-2236068J0D01*
G01*
X205000000Y-101250000D02*
X205000000Y-96250000D01*
X205000000Y-96250000D02*
X215000000Y-96250000D01*
X215000000Y-96250000D02*
X215000000Y-107250000D01*
X215000000Y-107250000D02*
X205000000Y-107250000D01*
X205000000Y-107250000D02*
X205000000Y-101250000D01*
D11*
X197150000Y-63250000D02*
X197350000Y-63250000D01*
X194650000Y-63250000D02*
X194350000Y-63250000D01*
X196250000Y-63250000D02*
X197150000Y-63250000D01*
X194650000Y-63250000D02*
X195550000Y-63250000D01*
X196250000Y-62750000D02*
X196250000Y-63750000D01*
X195550000Y-62750000D02*
X195550000Y-63750000D01*
X195550000Y-63750000D02*
X196250000Y-63250000D01*
X196250000Y-63250000D02*
X195550000Y-62750000D01*
X197350000Y-63250000D02*
G75*
G03X197350000Y-63250000I-1500000J0D01*
G01*
X191915476Y-77250000D02*
G75*
G03X191915476Y-77250000I-2915476J0D01*
G01*
X184000000Y-82250000D02*
X184000000Y-72250000D01*
X184000000Y-72250000D02*
X195000000Y-72250000D01*
X195000000Y-72250000D02*
X195000000Y-82250000D01*
X195000000Y-82250000D02*
X184000000Y-82250000D01*
X191000000Y-77250000D02*
G75*
G03X191000000Y-77250000I-2000000J0D01*
G01*
D12*
X174236068Y-53250000D02*
G75*
G03X174236068Y-53250000I-2236068J0D01*
G01*
X167000000Y-53250000D02*
X167000000Y-48250000D01*
X167000000Y-48250000D02*
X177000000Y-48250000D01*
X177000000Y-48250000D02*
X177000000Y-59250000D01*
X177000000Y-59250000D02*
X167000000Y-59250000D01*
X167000000Y-59250000D02*
X167000000Y-53250000D01*
D11*
X181915476Y-145000000D02*
G75*
G03X181915476Y-145000000I-2915476J0D01*
G01*
X184000000Y-140000000D02*
X184000000Y-150000000D01*
X184000000Y-150000000D02*
X173000000Y-150000000D01*
X173000000Y-150000000D02*
X173000000Y-140000000D01*
X173000000Y-140000000D02*
X184000000Y-140000000D01*
X181000000Y-145000000D02*
G75*
G03X181000000Y-145000000I-2000000J0D01*
G01*
D12*
X174236068Y-125250000D02*
G75*
G03X174236068Y-125250000I-2236068J0D01*
G01*
X167000000Y-125250000D02*
X167000000Y-120250000D01*
X167000000Y-120250000D02*
X177000000Y-120250000D01*
X177000000Y-120250000D02*
X177000000Y-131250000D01*
X177000000Y-131250000D02*
X167000000Y-131250000D01*
X167000000Y-131250000D02*
X167000000Y-125250000D01*
D11*
X167915476Y-145000000D02*
G75*
G03X167915476Y-145000000I-2915476J0D01*
G01*
X160000000Y-150000000D02*
X160000000Y-140000000D01*
X160000000Y-140000000D02*
X171000000Y-140000000D01*
X171000000Y-140000000D02*
X171000000Y-150000000D01*
X171000000Y-150000000D02*
X160000000Y-150000000D01*
X167000000Y-145000000D02*
G75*
G03X167000000Y-145000000I-2000000J0D01*
G01*
D12*
X136236068Y-53250000D02*
G75*
G03X136236068Y-53250000I-2236068J0D01*
G01*
X129000000Y-53250000D02*
X129000000Y-48250000D01*
X129000000Y-48250000D02*
X139000000Y-48250000D01*
X139000000Y-48250000D02*
X139000000Y-59250000D01*
X139000000Y-59250000D02*
X129000000Y-59250000D01*
X129000000Y-59250000D02*
X129000000Y-53250000D01*
D11*
X121150000Y-58250000D02*
X121350000Y-58250000D01*
X118650000Y-58250000D02*
X118350000Y-58250000D01*
X120250000Y-58250000D02*
X121150000Y-58250000D01*
X118650000Y-58250000D02*
X119550000Y-58250000D01*
X120250000Y-57750000D02*
X120250000Y-58750000D01*
X119550000Y-57750000D02*
X119550000Y-58750000D01*
X119550000Y-58750000D02*
X120250000Y-58250000D01*
X120250000Y-58250000D02*
X119550000Y-57750000D01*
X121350000Y-58250000D02*
G75*
G03X121350000Y-58250000I-1500000J0D01*
G01*
X121150000Y-48250000D02*
X121350000Y-48250000D01*
X118650000Y-48250000D02*
X118350000Y-48250000D01*
X120250000Y-48250000D02*
X121150000Y-48250000D01*
X118650000Y-48250000D02*
X119550000Y-48250000D01*
X120250000Y-47750000D02*
X120250000Y-48750000D01*
X119550000Y-47750000D02*
X119550000Y-48750000D01*
X119550000Y-48750000D02*
X120250000Y-48250000D01*
X120250000Y-48250000D02*
X119550000Y-47750000D01*
X121350000Y-48250000D02*
G75*
G03X121350000Y-48250000I-1500000J0D01*
G01*
X121150000Y-53250000D02*
X121350000Y-53250000D01*
X118650000Y-53250000D02*
X118350000Y-53250000D01*
X120250000Y-53250000D02*
X121150000Y-53250000D01*
X118650000Y-53250000D02*
X119550000Y-53250000D01*
X120250000Y-52750000D02*
X120250000Y-53750000D01*
X119550000Y-52750000D02*
X119550000Y-53750000D01*
X119550000Y-53750000D02*
X120250000Y-53250000D01*
X120250000Y-53250000D02*
X119550000Y-52750000D01*
X121350000Y-53250000D02*
G75*
G03X121350000Y-53250000I-1500000J0D01*
G01*
X111750000Y-54500000D02*
X114250000Y-54500000D01*
X114250000Y-54500000D02*
X114250000Y-57000000D01*
X114250000Y-57000000D02*
X111750000Y-57000000D01*
X111750000Y-57000000D02*
X111750000Y-54500000D01*
X114820027Y-55750000D02*
G75*
G03X114820027Y-55750000I-1820027J0D01*
G01*
X110000000Y-52750000D02*
X116000000Y-52750000D01*
X116000000Y-52750000D02*
X116000000Y-58750000D01*
X116000000Y-58750000D02*
X110000000Y-58750000D01*
X110000000Y-58750000D02*
X110000000Y-52750000D01*
X115915476Y-125250000D02*
G75*
G03X115915476Y-125250000I-2915476J0D01*
G01*
X108000000Y-130250000D02*
X108000000Y-120250000D01*
X108000000Y-120250000D02*
X119000000Y-120250000D01*
X119000000Y-120250000D02*
X119000000Y-130250000D01*
X119000000Y-130250000D02*
X108000000Y-130250000D01*
X115000000Y-125250000D02*
G75*
G03X115000000Y-125250000I-2000000J0D01*
G01*
X115915476Y-145000000D02*
G75*
G03X115915476Y-145000000I-2915476J0D01*
G01*
X108000000Y-150000000D02*
X108000000Y-140000000D01*
X108000000Y-140000000D02*
X119000000Y-140000000D01*
X119000000Y-140000000D02*
X119000000Y-150000000D01*
X119000000Y-150000000D02*
X108000000Y-150000000D01*
X115000000Y-145000000D02*
G75*
G03X115000000Y-145000000I-2000000J0D01*
G01*
X129915476Y-145000000D02*
G75*
G03X129915476Y-145000000I-2915476J0D01*
G01*
X122000000Y-150000000D02*
X122000000Y-140000000D01*
X122000000Y-140000000D02*
X133000000Y-140000000D01*
X133000000Y-140000000D02*
X133000000Y-150000000D01*
X133000000Y-150000000D02*
X122000000Y-150000000D01*
X129000000Y-145000000D02*
G75*
G03X129000000Y-145000000I-2000000J0D01*
G01*
X153915476Y-77250000D02*
G75*
G03X153915476Y-77250000I-2915476J0D01*
G01*
X146000000Y-82250000D02*
X146000000Y-72250000D01*
X146000000Y-72250000D02*
X157000000Y-72250000D01*
X157000000Y-72250000D02*
X157000000Y-82250000D01*
X157000000Y-82250000D02*
X146000000Y-82250000D01*
X153000000Y-77250000D02*
G75*
G03X153000000Y-77250000I-2000000J0D01*
G01*
D12*
X174236068Y-101250000D02*
G75*
G03X174236068Y-101250000I-2236068J0D01*
G01*
X167000000Y-101250000D02*
X167000000Y-96250000D01*
X167000000Y-96250000D02*
X177000000Y-96250000D01*
X177000000Y-96250000D02*
X177000000Y-107250000D01*
X177000000Y-107250000D02*
X167000000Y-107250000D01*
X167000000Y-107250000D02*
X167000000Y-101250000D01*
D11*
X159150000Y-63250000D02*
X159350000Y-63250000D01*
X156650000Y-63250000D02*
X156350000Y-63250000D01*
X158250000Y-63250000D02*
X159150000Y-63250000D01*
X156650000Y-63250000D02*
X157550000Y-63250000D01*
X158250000Y-62750000D02*
X158250000Y-63750000D01*
X157550000Y-62750000D02*
X157550000Y-63750000D01*
X157550000Y-63750000D02*
X158250000Y-63250000D01*
X158250000Y-63250000D02*
X157550000Y-62750000D01*
X159350000Y-63250000D02*
G75*
G03X159350000Y-63250000I-1500000J0D01*
G01*
X153915476Y-101250000D02*
G75*
G03X153915476Y-101250000I-2915476J0D01*
G01*
X146000000Y-106250000D02*
X146000000Y-96250000D01*
X146000000Y-96250000D02*
X157000000Y-96250000D01*
X157000000Y-96250000D02*
X157000000Y-106250000D01*
X157000000Y-106250000D02*
X146000000Y-106250000D01*
X153000000Y-101250000D02*
G75*
G03X153000000Y-101250000I-2000000J0D01*
G01*
D12*
X174236068Y-77250000D02*
G75*
G03X174236068Y-77250000I-2236068J0D01*
G01*
X167000000Y-77250000D02*
X167000000Y-72250000D01*
X167000000Y-72250000D02*
X177000000Y-72250000D01*
X177000000Y-72250000D02*
X177000000Y-83250000D01*
X177000000Y-83250000D02*
X167000000Y-83250000D01*
X167000000Y-83250000D02*
X167000000Y-77250000D01*
D11*
X149750000Y-54500000D02*
X152250000Y-54500000D01*
X152250000Y-54500000D02*
X152250000Y-57000000D01*
X152250000Y-57000000D02*
X149750000Y-57000000D01*
X149750000Y-57000000D02*
X149750000Y-54500000D01*
X152820027Y-55750000D02*
G75*
G03X152820027Y-55750000I-1820027J0D01*
G01*
X148000000Y-52750000D02*
X154000000Y-52750000D01*
X154000000Y-52750000D02*
X154000000Y-58750000D01*
X154000000Y-58750000D02*
X148000000Y-58750000D01*
X148000000Y-58750000D02*
X148000000Y-52750000D01*
X159150000Y-48250000D02*
X159350000Y-48250000D01*
X156650000Y-48250000D02*
X156350000Y-48250000D01*
X158250000Y-48250000D02*
X159150000Y-48250000D01*
X156650000Y-48250000D02*
X157550000Y-48250000D01*
X158250000Y-47750000D02*
X158250000Y-48750000D01*
X157550000Y-47750000D02*
X157550000Y-48750000D01*
X157550000Y-48750000D02*
X158250000Y-48250000D01*
X158250000Y-48250000D02*
X157550000Y-47750000D01*
X159350000Y-48250000D02*
G75*
G03X159350000Y-48250000I-1500000J0D01*
G01*
X159150000Y-58250000D02*
X159350000Y-58250000D01*
X156650000Y-58250000D02*
X156350000Y-58250000D01*
X158250000Y-58250000D02*
X159150000Y-58250000D01*
X156650000Y-58250000D02*
X157550000Y-58250000D01*
X158250000Y-57750000D02*
X158250000Y-58750000D01*
X157550000Y-57750000D02*
X157550000Y-58750000D01*
X157550000Y-58750000D02*
X158250000Y-58250000D01*
X158250000Y-58250000D02*
X157550000Y-57750000D01*
X159350000Y-58250000D02*
G75*
G03X159350000Y-58250000I-1500000J0D01*
G01*
X159150000Y-53250000D02*
X159350000Y-53250000D01*
X156650000Y-53250000D02*
X156350000Y-53250000D01*
X158250000Y-53250000D02*
X159150000Y-53250000D01*
X156650000Y-53250000D02*
X157550000Y-53250000D01*
X158250000Y-52750000D02*
X158250000Y-53750000D01*
X157550000Y-52750000D02*
X157550000Y-53750000D01*
X157550000Y-53750000D02*
X158250000Y-53250000D01*
X158250000Y-53250000D02*
X157550000Y-52750000D01*
X159350000Y-53250000D02*
G75*
G03X159350000Y-53250000I-1500000J0D01*
G01*
X153915476Y-145000000D02*
G75*
G03X153915476Y-145000000I-2915476J0D01*
G01*
X146000000Y-150000000D02*
X146000000Y-140000000D01*
X146000000Y-140000000D02*
X157000000Y-140000000D01*
X157000000Y-140000000D02*
X157000000Y-150000000D01*
X157000000Y-150000000D02*
X146000000Y-150000000D01*
X153000000Y-145000000D02*
G75*
G03X153000000Y-145000000I-2000000J0D01*
G01*
D12*
X136236068Y-125250000D02*
G75*
G03X136236068Y-125250000I-2236068J0D01*
G01*
X129000000Y-125250000D02*
X129000000Y-120250000D01*
X129000000Y-120250000D02*
X139000000Y-120250000D01*
X139000000Y-120250000D02*
X139000000Y-131250000D01*
X139000000Y-131250000D02*
X129000000Y-131250000D01*
X129000000Y-131250000D02*
X129000000Y-125250000D01*
D11*
X143915476Y-145000000D02*
G75*
G03X143915476Y-145000000I-2915476J0D01*
G01*
X146000000Y-140000000D02*
X146000000Y-150000000D01*
X146000000Y-150000000D02*
X135000000Y-150000000D01*
X135000000Y-150000000D02*
X135000000Y-140000000D01*
X135000000Y-140000000D02*
X146000000Y-140000000D01*
X143000000Y-145000000D02*
G75*
G03X143000000Y-145000000I-2000000J0D01*
G01*
X153915476Y-125250000D02*
G75*
G03X153915476Y-125250000I-2915476J0D01*
G01*
X146000000Y-130250000D02*
X146000000Y-120250000D01*
X146000000Y-120250000D02*
X157000000Y-120250000D01*
X157000000Y-120250000D02*
X157000000Y-130250000D01*
X157000000Y-130250000D02*
X146000000Y-130250000D01*
X153000000Y-125250000D02*
G75*
G03X153000000Y-125250000I-2000000J0D01*
G01*
D12*
X136236068Y-77250000D02*
G75*
G03X136236068Y-77250000I-2236068J0D01*
G01*
X129000000Y-77250000D02*
X129000000Y-72250000D01*
X129000000Y-72250000D02*
X139000000Y-72250000D01*
X139000000Y-72250000D02*
X139000000Y-83250000D01*
X139000000Y-83250000D02*
X129000000Y-83250000D01*
X129000000Y-83250000D02*
X129000000Y-77250000D01*
D11*
X115915476Y-101250000D02*
G75*
G03X115915476Y-101250000I-2915476J0D01*
G01*
X108000000Y-106250000D02*
X108000000Y-96250000D01*
X108000000Y-96250000D02*
X119000000Y-96250000D01*
X119000000Y-96250000D02*
X119000000Y-106250000D01*
X119000000Y-106250000D02*
X108000000Y-106250000D01*
X115000000Y-101250000D02*
G75*
G03X115000000Y-101250000I-2000000J0D01*
G01*
D12*
X136236068Y-101250000D02*
G75*
G03X136236068Y-101250000I-2236068J0D01*
G01*
X129000000Y-101250000D02*
X129000000Y-96250000D01*
X129000000Y-96250000D02*
X139000000Y-96250000D01*
X139000000Y-96250000D02*
X139000000Y-107250000D01*
X139000000Y-107250000D02*
X129000000Y-107250000D01*
X129000000Y-107250000D02*
X129000000Y-101250000D01*
D11*
X121150000Y-63250000D02*
X121350000Y-63250000D01*
X118650000Y-63250000D02*
X118350000Y-63250000D01*
X120250000Y-63250000D02*
X121150000Y-63250000D01*
X118650000Y-63250000D02*
X119550000Y-63250000D01*
X120250000Y-62750000D02*
X120250000Y-63750000D01*
X119550000Y-62750000D02*
X119550000Y-63750000D01*
X119550000Y-63750000D02*
X120250000Y-63250000D01*
X120250000Y-63250000D02*
X119550000Y-62750000D01*
X121350000Y-63250000D02*
G75*
G03X121350000Y-63250000I-1500000J0D01*
G01*
X115915476Y-77250000D02*
G75*
G03X115915476Y-77250000I-2915476J0D01*
G01*
X108000000Y-82250000D02*
X108000000Y-72250000D01*
X108000000Y-72250000D02*
X119000000Y-72250000D01*
X119000000Y-72250000D02*
X119000000Y-82250000D01*
X119000000Y-82250000D02*
X108000000Y-82250000D01*
X115000000Y-77250000D02*
G75*
G03X115000000Y-77250000I-2000000J0D01*
G01*
D12*
X98236068Y-53250000D02*
G75*
G03X98236068Y-53250000I-2236068J0D01*
G01*
X91000000Y-53250000D02*
X91000000Y-48250000D01*
X91000000Y-48250000D02*
X101000000Y-48250000D01*
X101000000Y-48250000D02*
X101000000Y-59250000D01*
X101000000Y-59250000D02*
X91000000Y-59250000D01*
X91000000Y-59250000D02*
X91000000Y-53250000D01*
X98236068Y-125250000D02*
G75*
G03X98236068Y-125250000I-2236068J0D01*
G01*
X91000000Y-125250000D02*
X91000000Y-120250000D01*
X91000000Y-120250000D02*
X101000000Y-120250000D01*
X101000000Y-120250000D02*
X101000000Y-131250000D01*
X101000000Y-131250000D02*
X91000000Y-131250000D01*
X91000000Y-131250000D02*
X91000000Y-125250000D01*
D11*
X105915476Y-145000000D02*
G75*
G03X105915476Y-145000000I-2915476J0D01*
G01*
X108000000Y-140000000D02*
X108000000Y-150000000D01*
X108000000Y-150000000D02*
X97000000Y-150000000D01*
X97000000Y-150000000D02*
X97000000Y-140000000D01*
X97000000Y-140000000D02*
X108000000Y-140000000D01*
X105000000Y-145000000D02*
G75*
G03X105000000Y-145000000I-2000000J0D01*
G01*
D12*
X98236068Y-101250000D02*
G75*
G03X98236068Y-101250000I-2236068J0D01*
G01*
X91000000Y-101250000D02*
X91000000Y-96250000D01*
X91000000Y-96250000D02*
X101000000Y-96250000D01*
X101000000Y-96250000D02*
X101000000Y-107250000D01*
X101000000Y-107250000D02*
X91000000Y-107250000D01*
X91000000Y-107250000D02*
X91000000Y-101250000D01*
X98236068Y-77250000D02*
G75*
G03X98236068Y-77250000I-2236068J0D01*
G01*
X91000000Y-77250000D02*
X91000000Y-72250000D01*
X91000000Y-72250000D02*
X101000000Y-72250000D01*
X101000000Y-72250000D02*
X101000000Y-83250000D01*
X101000000Y-83250000D02*
X91000000Y-83250000D01*
X91000000Y-83250000D02*
X91000000Y-77250000D01*
D11*
X77915476Y-77250000D02*
G75*
G03X77915476Y-77250000I-2915476J0D01*
G01*
X70000000Y-82250000D02*
X70000000Y-72250000D01*
X70000000Y-72250000D02*
X81000000Y-72250000D01*
X81000000Y-72250000D02*
X81000000Y-82250000D01*
X81000000Y-82250000D02*
X70000000Y-82250000D01*
X77000000Y-77250000D02*
G75*
G03X77000000Y-77250000I-2000000J0D01*
G01*
X77915476Y-101250000D02*
G75*
G03X77915476Y-101250000I-2915476J0D01*
G01*
X70000000Y-106250000D02*
X70000000Y-96250000D01*
X70000000Y-96250000D02*
X81000000Y-96250000D01*
X81000000Y-96250000D02*
X81000000Y-106250000D01*
X81000000Y-106250000D02*
X70000000Y-106250000D01*
X77000000Y-101250000D02*
G75*
G03X77000000Y-101250000I-2000000J0D01*
G01*
X83150000Y-63250000D02*
X83350000Y-63250000D01*
X80650000Y-63250000D02*
X80350000Y-63250000D01*
X82250000Y-63250000D02*
X83150000Y-63250000D01*
X80650000Y-63250000D02*
X81550000Y-63250000D01*
X82250000Y-62750000D02*
X82250000Y-63750000D01*
X81550000Y-62750000D02*
X81550000Y-63750000D01*
X81550000Y-63750000D02*
X82250000Y-63250000D01*
X82250000Y-63250000D02*
X81550000Y-62750000D01*
X83350000Y-63250000D02*
G75*
G03X83350000Y-63250000I-1500000J0D01*
G01*
X73750000Y-54500000D02*
X76250000Y-54500000D01*
X76250000Y-54500000D02*
X76250000Y-57000000D01*
X76250000Y-57000000D02*
X73750000Y-57000000D01*
X73750000Y-57000000D02*
X73750000Y-54500000D01*
X76820027Y-55750000D02*
G75*
G03X76820027Y-55750000I-1820027J0D01*
G01*
X72000000Y-52750000D02*
X78000000Y-52750000D01*
X78000000Y-52750000D02*
X78000000Y-58750000D01*
X78000000Y-58750000D02*
X72000000Y-58750000D01*
X72000000Y-58750000D02*
X72000000Y-52750000D01*
X83150000Y-53250000D02*
X83350000Y-53250000D01*
X80650000Y-53250000D02*
X80350000Y-53250000D01*
X82250000Y-53250000D02*
X83150000Y-53250000D01*
X80650000Y-53250000D02*
X81550000Y-53250000D01*
X82250000Y-52750000D02*
X82250000Y-53750000D01*
X81550000Y-52750000D02*
X81550000Y-53750000D01*
X81550000Y-53750000D02*
X82250000Y-53250000D01*
X82250000Y-53250000D02*
X81550000Y-52750000D01*
X83350000Y-53250000D02*
G75*
G03X83350000Y-53250000I-1500000J0D01*
G01*
X83150000Y-48250000D02*
X83350000Y-48250000D01*
X80650000Y-48250000D02*
X80350000Y-48250000D01*
X82250000Y-48250000D02*
X83150000Y-48250000D01*
X80650000Y-48250000D02*
X81550000Y-48250000D01*
X82250000Y-47750000D02*
X82250000Y-48750000D01*
X81550000Y-47750000D02*
X81550000Y-48750000D01*
X81550000Y-48750000D02*
X82250000Y-48250000D01*
X82250000Y-48250000D02*
X81550000Y-47750000D01*
X83350000Y-48250000D02*
G75*
G03X83350000Y-48250000I-1500000J0D01*
G01*
X83150000Y-58250000D02*
X83350000Y-58250000D01*
X80650000Y-58250000D02*
X80350000Y-58250000D01*
X82250000Y-58250000D02*
X83150000Y-58250000D01*
X80650000Y-58250000D02*
X81550000Y-58250000D01*
X82250000Y-57750000D02*
X82250000Y-58750000D01*
X81550000Y-57750000D02*
X81550000Y-58750000D01*
X81550000Y-58750000D02*
X82250000Y-58250000D01*
X82250000Y-58250000D02*
X81550000Y-57750000D01*
X83350000Y-58250000D02*
G75*
G03X83350000Y-58250000I-1500000J0D01*
G01*
X77915476Y-145000000D02*
G75*
G03X77915476Y-145000000I-2915476J0D01*
G01*
X70000000Y-150000000D02*
X70000000Y-140000000D01*
X70000000Y-140000000D02*
X81000000Y-140000000D01*
X81000000Y-140000000D02*
X81000000Y-150000000D01*
X81000000Y-150000000D02*
X70000000Y-150000000D01*
X77000000Y-145000000D02*
G75*
G03X77000000Y-145000000I-2000000J0D01*
G01*
X77915476Y-125250000D02*
G75*
G03X77915476Y-125250000I-2915476J0D01*
G01*
X70000000Y-130250000D02*
X70000000Y-120250000D01*
X70000000Y-120250000D02*
X81000000Y-120250000D01*
X81000000Y-120250000D02*
X81000000Y-130250000D01*
X81000000Y-130250000D02*
X70000000Y-130250000D01*
X77000000Y-125250000D02*
G75*
G03X77000000Y-125250000I-2000000J0D01*
G01*
X91915476Y-145000000D02*
G75*
G03X91915476Y-145000000I-2915476J0D01*
G01*
X84000000Y-150000000D02*
X84000000Y-140000000D01*
X84000000Y-140000000D02*
X95000000Y-140000000D01*
X95000000Y-140000000D02*
X95000000Y-150000000D01*
X95000000Y-150000000D02*
X84000000Y-150000000D01*
X91000000Y-145000000D02*
G75*
G03X91000000Y-145000000I-2000000J0D01*
G01*
X45150000Y-48250000D02*
X45350000Y-48250000D01*
X42650000Y-48250000D02*
X42350000Y-48250000D01*
X44250000Y-48250000D02*
X45150000Y-48250000D01*
X42650000Y-48250000D02*
X43550000Y-48250000D01*
X44250000Y-47750000D02*
X44250000Y-48750000D01*
X43550000Y-47750000D02*
X43550000Y-48750000D01*
X43550000Y-48750000D02*
X44250000Y-48250000D01*
X44250000Y-48250000D02*
X43550000Y-47750000D01*
X45350000Y-48250000D02*
G75*
G03X45350000Y-48250000I-1500000J0D01*
G01*
X45150000Y-53250000D02*
X45350000Y-53250000D01*
X42650000Y-53250000D02*
X42350000Y-53250000D01*
X44250000Y-53250000D02*
X45150000Y-53250000D01*
X42650000Y-53250000D02*
X43550000Y-53250000D01*
X44250000Y-52750000D02*
X44250000Y-53750000D01*
X43550000Y-52750000D02*
X43550000Y-53750000D01*
X43550000Y-53750000D02*
X44250000Y-53250000D01*
X44250000Y-53250000D02*
X43550000Y-52750000D01*
X45350000Y-53250000D02*
G75*
G03X45350000Y-53250000I-1500000J0D01*
G01*
X45150000Y-58250000D02*
X45350000Y-58250000D01*
X42650000Y-58250000D02*
X42350000Y-58250000D01*
X44250000Y-58250000D02*
X45150000Y-58250000D01*
X42650000Y-58250000D02*
X43550000Y-58250000D01*
X44250000Y-57750000D02*
X44250000Y-58750000D01*
X43550000Y-57750000D02*
X43550000Y-58750000D01*
X43550000Y-58750000D02*
X44250000Y-58250000D01*
X44250000Y-58250000D02*
X43550000Y-57750000D01*
X45350000Y-58250000D02*
G75*
G03X45350000Y-58250000I-1500000J0D01*
G01*
X45150000Y-63250000D02*
X45350000Y-63250000D01*
X42650000Y-63250000D02*
X42350000Y-63250000D01*
X44250000Y-63250000D02*
X45150000Y-63250000D01*
X42650000Y-63250000D02*
X43550000Y-63250000D01*
X44250000Y-62750000D02*
X44250000Y-63750000D01*
X43550000Y-62750000D02*
X43550000Y-63750000D01*
X43550000Y-63750000D02*
X44250000Y-63250000D01*
X44250000Y-63250000D02*
X43550000Y-62750000D01*
X45350000Y-63250000D02*
G75*
G03X45350000Y-63250000I-1500000J0D01*
G01*
X39915476Y-77250000D02*
G75*
G03X39915476Y-77250000I-2915476J0D01*
G01*
X32000000Y-82250000D02*
X32000000Y-72250000D01*
X32000000Y-72250000D02*
X43000000Y-72250000D01*
X43000000Y-72250000D02*
X43000000Y-82250000D01*
X43000000Y-82250000D02*
X32000000Y-82250000D01*
X39000000Y-77250000D02*
G75*
G03X39000000Y-77250000I-2000000J0D01*
G01*
X39915476Y-101250000D02*
G75*
G03X39915476Y-101250000I-2915476J0D01*
G01*
X32000000Y-106250000D02*
X32000000Y-96250000D01*
X32000000Y-96250000D02*
X43000000Y-96250000D01*
X43000000Y-96250000D02*
X43000000Y-106250000D01*
X43000000Y-106250000D02*
X32000000Y-106250000D01*
X39000000Y-101250000D02*
G75*
G03X39000000Y-101250000I-2000000J0D01*
G01*
X53915476Y-145000000D02*
G75*
G03X53915476Y-145000000I-2915476J0D01*
G01*
X46000000Y-150000000D02*
X46000000Y-140000000D01*
X46000000Y-140000000D02*
X57000000Y-140000000D01*
X57000000Y-140000000D02*
X57000000Y-150000000D01*
X57000000Y-150000000D02*
X46000000Y-150000000D01*
X53000000Y-145000000D02*
G75*
G03X53000000Y-145000000I-2000000J0D01*
G01*
X39915476Y-125250000D02*
G75*
G03X39915476Y-125250000I-2915476J0D01*
G01*
X32000000Y-130250000D02*
X32000000Y-120250000D01*
X32000000Y-120250000D02*
X43000000Y-120250000D01*
X43000000Y-120250000D02*
X43000000Y-130250000D01*
X43000000Y-130250000D02*
X32000000Y-130250000D01*
X39000000Y-125250000D02*
G75*
G03X39000000Y-125250000I-2000000J0D01*
G01*
X39915476Y-145000000D02*
G75*
G03X39915476Y-145000000I-2915476J0D01*
G01*
X32000000Y-150000000D02*
X32000000Y-140000000D01*
X32000000Y-140000000D02*
X43000000Y-140000000D01*
X43000000Y-140000000D02*
X43000000Y-150000000D01*
X43000000Y-150000000D02*
X32000000Y-150000000D01*
X39000000Y-145000000D02*
G75*
G03X39000000Y-145000000I-2000000J0D01*
G01*
X67915476Y-145000000D02*
G75*
G03X67915476Y-145000000I-2915476J0D01*
G01*
X70000000Y-140000000D02*
X70000000Y-150000000D01*
X70000000Y-150000000D02*
X59000000Y-150000000D01*
X59000000Y-150000000D02*
X59000000Y-140000000D01*
X59000000Y-140000000D02*
X70000000Y-140000000D01*
X67000000Y-145000000D02*
G75*
G03X67000000Y-145000000I-2000000J0D01*
G01*
X35750000Y-54500000D02*
X38250000Y-54500000D01*
X38250000Y-54500000D02*
X38250000Y-57000000D01*
X38250000Y-57000000D02*
X35750000Y-57000000D01*
X35750000Y-57000000D02*
X35750000Y-54500000D01*
X38820027Y-55750000D02*
G75*
G03X38820027Y-55750000I-1820027J0D01*
G01*
X34000000Y-52750000D02*
X40000000Y-52750000D01*
X40000000Y-52750000D02*
X40000000Y-58750000D01*
X40000000Y-58750000D02*
X34000000Y-58750000D01*
X34000000Y-58750000D02*
X34000000Y-52750000D01*
D12*
X60236068Y-125250000D02*
G75*
G03X60236068Y-125250000I-2236068J0D01*
G01*
X53000000Y-125250000D02*
X53000000Y-120250000D01*
X53000000Y-120250000D02*
X63000000Y-120250000D01*
X63000000Y-120250000D02*
X63000000Y-131250000D01*
X63000000Y-131250000D02*
X53000000Y-131250000D01*
X53000000Y-131250000D02*
X53000000Y-125250000D01*
X60236068Y-101250000D02*
G75*
G03X60236068Y-101250000I-2236068J0D01*
G01*
X53000000Y-101250000D02*
X53000000Y-96250000D01*
X53000000Y-96250000D02*
X63000000Y-96250000D01*
X63000000Y-96250000D02*
X63000000Y-107250000D01*
X63000000Y-107250000D02*
X53000000Y-107250000D01*
X53000000Y-107250000D02*
X53000000Y-101250000D01*
X60236068Y-77250000D02*
G75*
G03X60236068Y-77250000I-2236068J0D01*
G01*
X53000000Y-77250000D02*
X53000000Y-72250000D01*
X53000000Y-72250000D02*
X63000000Y-72250000D01*
X63000000Y-72250000D02*
X63000000Y-83250000D01*
X63000000Y-83250000D02*
X53000000Y-83250000D01*
X53000000Y-83250000D02*
X53000000Y-77250000D01*
X60236068Y-53250000D02*
G75*
G03X60236068Y-53250000I-2236068J0D01*
G01*
X53000000Y-53250000D02*
X53000000Y-48250000D01*
X53000000Y-48250000D02*
X63000000Y-48250000D01*
X63000000Y-48250000D02*
X63000000Y-59250000D01*
X63000000Y-59250000D02*
X53000000Y-59250000D01*
X53000000Y-59250000D02*
X53000000Y-53250000D01*
D11*
X246690476Y-57702381D02*
X247023809Y-58702381D01*
X247357143Y-57702381D01*
X248261905Y-58702381D02*
X247928571Y-58226190D01*
X247690476Y-58702381D02*
X247690476Y-57702381D01*
X248071429Y-57702381D01*
X248166667Y-57750000D01*
X248214286Y-57797619D01*
X248261905Y-57892857D01*
X248261905Y-58035714D01*
X248214286Y-58130952D01*
X248166667Y-58178571D01*
X248071429Y-58226190D01*
X247690476Y-58226190D01*
X249214286Y-58702381D02*
X248642857Y-58702381D01*
X248928571Y-58702381D02*
X248928571Y-57702381D01*
X248833333Y-57845238D01*
X248738095Y-57940476D01*
X248642857Y-57988095D01*
X249900000Y-148278571D02*
X249900000Y-149350000D01*
X249828572Y-149564286D01*
X249685715Y-149707143D01*
X249471429Y-149778571D01*
X249328572Y-149778571D01*
X251257143Y-148278571D02*
X250971429Y-148278571D01*
X250828572Y-148350000D01*
X250757143Y-148421429D01*
X250614286Y-148635714D01*
X250542857Y-148921429D01*
X250542857Y-149492857D01*
X250614286Y-149635714D01*
X250685714Y-149707143D01*
X250828572Y-149778571D01*
X251114286Y-149778571D01*
X251257143Y-149707143D01*
X251328572Y-149635714D01*
X251400000Y-149492857D01*
X251400000Y-149135714D01*
X251328572Y-148992857D01*
X251257143Y-148921429D01*
X251114286Y-148850000D01*
X250828572Y-148850000D01*
X250685714Y-148921429D01*
X250614286Y-148992857D01*
X250542857Y-149135714D01*
X246690476Y-129452381D02*
X247023809Y-130452381D01*
X247357143Y-129452381D01*
X248261905Y-130452381D02*
X247928571Y-129976190D01*
X247690476Y-130452381D02*
X247690476Y-129452381D01*
X248071429Y-129452381D01*
X248166667Y-129500000D01*
X248214286Y-129547619D01*
X248261905Y-129642857D01*
X248261905Y-129785714D01*
X248214286Y-129880952D01*
X248166667Y-129928571D01*
X248071429Y-129976190D01*
X247690476Y-129976190D01*
X249119048Y-129452381D02*
X248928571Y-129452381D01*
X248833333Y-129500000D01*
X248785714Y-129547619D01*
X248690476Y-129690476D01*
X248642857Y-129880952D01*
X248642857Y-130261905D01*
X248690476Y-130357143D01*
X248738095Y-130404762D01*
X248833333Y-130452381D01*
X249023810Y-130452381D01*
X249119048Y-130404762D01*
X249166667Y-130357143D01*
X249214286Y-130261905D01*
X249214286Y-130023810D01*
X249166667Y-129928571D01*
X249119048Y-129880952D01*
X249023810Y-129833333D01*
X248833333Y-129833333D01*
X248738095Y-129880952D01*
X248690476Y-129928571D01*
X248642857Y-130023810D01*
X236900000Y-148278571D02*
X236900000Y-149350000D01*
X236828572Y-149564286D01*
X236685715Y-149707143D01*
X236471429Y-149778571D01*
X236328572Y-149778571D01*
X237471429Y-148278571D02*
X238400000Y-148278571D01*
X237900000Y-148850000D01*
X238114286Y-148850000D01*
X238257143Y-148921429D01*
X238328572Y-148992857D01*
X238400000Y-149135714D01*
X238400000Y-149492857D01*
X238328572Y-149635714D01*
X238257143Y-149707143D01*
X238114286Y-149778571D01*
X237685714Y-149778571D01*
X237542857Y-149707143D01*
X237471429Y-149635714D01*
X208690476Y-57702381D02*
X209023809Y-58702381D01*
X209357143Y-57702381D01*
X210261905Y-58702381D02*
X209928571Y-58226190D01*
X209690476Y-58702381D02*
X209690476Y-57702381D01*
X210071429Y-57702381D01*
X210166667Y-57750000D01*
X210214286Y-57797619D01*
X210261905Y-57892857D01*
X210261905Y-58035714D01*
X210214286Y-58130952D01*
X210166667Y-58178571D01*
X210071429Y-58226190D01*
X209690476Y-58226190D01*
X211214286Y-58702381D02*
X210642857Y-58702381D01*
X210928571Y-58702381D02*
X210928571Y-57702381D01*
X210833333Y-57845238D01*
X210738095Y-57940476D01*
X210642857Y-57988095D01*
X198270077Y-58637695D02*
X198270077Y-57824895D01*
X198463601Y-57824895D01*
X198579715Y-57863600D01*
X198657124Y-57941010D01*
X198695829Y-58018419D01*
X198734534Y-58173238D01*
X198734534Y-58289352D01*
X198695829Y-58444171D01*
X198657124Y-58521581D01*
X198579715Y-58598990D01*
X198463601Y-58637695D01*
X198270077Y-58637695D01*
X199005467Y-57824895D02*
X199508629Y-57824895D01*
X199237696Y-58134533D01*
X199353810Y-58134533D01*
X199431220Y-58173238D01*
X199469924Y-58211943D01*
X199508629Y-58289352D01*
X199508629Y-58482876D01*
X199469924Y-58560286D01*
X199431220Y-58598990D01*
X199353810Y-58637695D01*
X199121582Y-58637695D01*
X199044172Y-58598990D01*
X199005467Y-58560286D01*
X198270077Y-48637695D02*
X198270077Y-47824895D01*
X198463601Y-47824895D01*
X198579715Y-47863600D01*
X198657124Y-47941010D01*
X198695829Y-48018419D01*
X198734534Y-48173238D01*
X198734534Y-48289352D01*
X198695829Y-48444171D01*
X198657124Y-48521581D01*
X198579715Y-48598990D01*
X198463601Y-48637695D01*
X198270077Y-48637695D01*
X199508629Y-48637695D02*
X199044172Y-48637695D01*
X199276401Y-48637695D02*
X199276401Y-47824895D01*
X199198991Y-47941010D01*
X199121582Y-48018419D01*
X199044172Y-48057124D01*
X198270077Y-53637695D02*
X198270077Y-52824895D01*
X198463601Y-52824895D01*
X198579715Y-52863600D01*
X198657124Y-52941010D01*
X198695829Y-53018419D01*
X198734534Y-53173238D01*
X198734534Y-53289352D01*
X198695829Y-53444171D01*
X198657124Y-53521581D01*
X198579715Y-53598990D01*
X198463601Y-53637695D01*
X198270077Y-53637695D01*
X199044172Y-52902305D02*
X199082877Y-52863600D01*
X199160286Y-52824895D01*
X199353810Y-52824895D01*
X199431220Y-52863600D01*
X199469924Y-52902305D01*
X199508629Y-52979714D01*
X199508629Y-53057124D01*
X199469924Y-53173238D01*
X199005467Y-53637695D01*
X199508629Y-53637695D01*
X187566667Y-60154762D02*
X187709524Y-60202381D01*
X187947620Y-60202381D01*
X188042858Y-60154762D01*
X188090477Y-60107143D01*
X188138096Y-60011905D01*
X188138096Y-59916667D01*
X188090477Y-59821429D01*
X188042858Y-59773810D01*
X187947620Y-59726190D01*
X187757143Y-59678571D01*
X187661905Y-59630952D01*
X187614286Y-59583333D01*
X187566667Y-59488095D01*
X187566667Y-59392857D01*
X187614286Y-59297619D01*
X187661905Y-59250000D01*
X187757143Y-59202381D01*
X187995239Y-59202381D01*
X188138096Y-59250000D01*
X188471429Y-59202381D02*
X188709524Y-60202381D01*
X188900001Y-59488095D01*
X189090477Y-60202381D01*
X189328572Y-59202381D01*
X190233334Y-60202381D02*
X189661905Y-60202381D01*
X189947619Y-60202381D02*
X189947619Y-59202381D01*
X189852381Y-59345238D01*
X189757143Y-59440476D01*
X189661905Y-59488095D01*
X184900000Y-128528571D02*
X184900000Y-129600000D01*
X184828572Y-129814286D01*
X184685715Y-129957143D01*
X184471429Y-130028571D01*
X184328572Y-130028571D01*
X186257143Y-129028571D02*
X186257143Y-130028571D01*
X185900000Y-128457143D02*
X185542857Y-129528571D01*
X186471429Y-129528571D01*
X184900000Y-148298571D02*
X184900000Y-149370000D01*
X184828572Y-149584286D01*
X184685715Y-149727143D01*
X184471429Y-149798571D01*
X184328572Y-149798571D01*
X186328572Y-148298571D02*
X185614286Y-148298571D01*
X185542857Y-149012857D01*
X185614286Y-148941429D01*
X185757143Y-148870000D01*
X186114286Y-148870000D01*
X186257143Y-148941429D01*
X186328572Y-149012857D01*
X186400000Y-149155714D01*
X186400000Y-149512857D01*
X186328572Y-149655714D01*
X186257143Y-149727143D01*
X186114286Y-149798571D01*
X185757143Y-149798571D01*
X185614286Y-149727143D01*
X185542857Y-149655714D01*
X198900000Y-148278571D02*
X198900000Y-149350000D01*
X198828572Y-149564286D01*
X198685715Y-149707143D01*
X198471429Y-149778571D01*
X198328572Y-149778571D01*
X199471429Y-148278571D02*
X200400000Y-148278571D01*
X199900000Y-148850000D01*
X200114286Y-148850000D01*
X200257143Y-148921429D01*
X200328572Y-148992857D01*
X200400000Y-149135714D01*
X200400000Y-149492857D01*
X200328572Y-149635714D01*
X200257143Y-149707143D01*
X200114286Y-149778571D01*
X199685714Y-149778571D01*
X199542857Y-149707143D01*
X199471429Y-149635714D01*
X222900000Y-80528571D02*
X222900000Y-81600000D01*
X222828572Y-81814286D01*
X222685715Y-81957143D01*
X222471429Y-82028571D01*
X222328572Y-82028571D01*
X224400000Y-82028571D02*
X223542857Y-82028571D01*
X223971429Y-82028571D02*
X223971429Y-80528571D01*
X223828572Y-80742857D01*
X223685714Y-80885714D01*
X223542857Y-80957143D01*
X246690476Y-105202381D02*
X247023809Y-106202381D01*
X247357143Y-105202381D01*
X248261905Y-106202381D02*
X247928571Y-105726190D01*
X247690476Y-106202381D02*
X247690476Y-105202381D01*
X248071429Y-105202381D01*
X248166667Y-105250000D01*
X248214286Y-105297619D01*
X248261905Y-105392857D01*
X248261905Y-105535714D01*
X248214286Y-105630952D01*
X248166667Y-105678571D01*
X248071429Y-105726190D01*
X247690476Y-105726190D01*
X248595238Y-105202381D02*
X249214286Y-105202381D01*
X248880952Y-105583333D01*
X249023810Y-105583333D01*
X249119048Y-105630952D01*
X249166667Y-105678571D01*
X249214286Y-105773810D01*
X249214286Y-106011905D01*
X249166667Y-106107143D01*
X249119048Y-106154762D01*
X249023810Y-106202381D01*
X248738095Y-106202381D01*
X248642857Y-106154762D01*
X248595238Y-106107143D01*
X236270077Y-63637695D02*
X236270077Y-62824895D01*
X236463601Y-62824895D01*
X236579715Y-62863600D01*
X236657124Y-62941010D01*
X236695829Y-63018419D01*
X236734534Y-63173238D01*
X236734534Y-63289352D01*
X236695829Y-63444171D01*
X236657124Y-63521581D01*
X236579715Y-63598990D01*
X236463601Y-63637695D01*
X236270077Y-63637695D01*
X237431220Y-63095829D02*
X237431220Y-63637695D01*
X237237696Y-62786190D02*
X237044172Y-63366762D01*
X237547334Y-63366762D01*
X222900000Y-104528571D02*
X222900000Y-105600000D01*
X222828572Y-105814286D01*
X222685715Y-105957143D01*
X222471429Y-106028571D01*
X222328572Y-106028571D01*
X223542857Y-104671429D02*
X223614286Y-104600000D01*
X223757143Y-104528571D01*
X224114286Y-104528571D01*
X224257143Y-104600000D01*
X224328572Y-104671429D01*
X224400000Y-104814286D01*
X224400000Y-104957143D01*
X224328572Y-105171429D01*
X223471429Y-106028571D01*
X224400000Y-106028571D01*
X246690476Y-81702381D02*
X247023809Y-82702381D01*
X247357143Y-81702381D01*
X248261905Y-82702381D02*
X247928571Y-82226190D01*
X247690476Y-82702381D02*
X247690476Y-81702381D01*
X248071429Y-81702381D01*
X248166667Y-81750000D01*
X248214286Y-81797619D01*
X248261905Y-81892857D01*
X248261905Y-82035714D01*
X248214286Y-82130952D01*
X248166667Y-82178571D01*
X248071429Y-82226190D01*
X247690476Y-82226190D01*
X248642857Y-81797619D02*
X248690476Y-81750000D01*
X248785714Y-81702381D01*
X249023810Y-81702381D01*
X249119048Y-81750000D01*
X249166667Y-81797619D01*
X249214286Y-81892857D01*
X249214286Y-81988095D01*
X249166667Y-82130952D01*
X248595238Y-82702381D01*
X249214286Y-82702381D01*
X225566667Y-60154762D02*
X225709524Y-60202381D01*
X225947620Y-60202381D01*
X226042858Y-60154762D01*
X226090477Y-60107143D01*
X226138096Y-60011905D01*
X226138096Y-59916667D01*
X226090477Y-59821429D01*
X226042858Y-59773810D01*
X225947620Y-59726190D01*
X225757143Y-59678571D01*
X225661905Y-59630952D01*
X225614286Y-59583333D01*
X225566667Y-59488095D01*
X225566667Y-59392857D01*
X225614286Y-59297619D01*
X225661905Y-59250000D01*
X225757143Y-59202381D01*
X225995239Y-59202381D01*
X226138096Y-59250000D01*
X226471429Y-59202381D02*
X226709524Y-60202381D01*
X226900001Y-59488095D01*
X227090477Y-60202381D01*
X227328572Y-59202381D01*
X228233334Y-60202381D02*
X227661905Y-60202381D01*
X227947619Y-60202381D02*
X227947619Y-59202381D01*
X227852381Y-59345238D01*
X227757143Y-59440476D01*
X227661905Y-59488095D01*
X236270077Y-48637695D02*
X236270077Y-47824895D01*
X236463601Y-47824895D01*
X236579715Y-47863600D01*
X236657124Y-47941010D01*
X236695829Y-48018419D01*
X236734534Y-48173238D01*
X236734534Y-48289352D01*
X236695829Y-48444171D01*
X236657124Y-48521581D01*
X236579715Y-48598990D01*
X236463601Y-48637695D01*
X236270077Y-48637695D01*
X237508629Y-48637695D02*
X237044172Y-48637695D01*
X237276401Y-48637695D02*
X237276401Y-47824895D01*
X237198991Y-47941010D01*
X237121582Y-48018419D01*
X237044172Y-48057124D01*
X236270077Y-58637695D02*
X236270077Y-57824895D01*
X236463601Y-57824895D01*
X236579715Y-57863600D01*
X236657124Y-57941010D01*
X236695829Y-58018419D01*
X236734534Y-58173238D01*
X236734534Y-58289352D01*
X236695829Y-58444171D01*
X236657124Y-58521581D01*
X236579715Y-58598990D01*
X236463601Y-58637695D01*
X236270077Y-58637695D01*
X237005467Y-57824895D02*
X237508629Y-57824895D01*
X237237696Y-58134533D01*
X237353810Y-58134533D01*
X237431220Y-58173238D01*
X237469924Y-58211943D01*
X237508629Y-58289352D01*
X237508629Y-58482876D01*
X237469924Y-58560286D01*
X237431220Y-58598990D01*
X237353810Y-58637695D01*
X237121582Y-58637695D01*
X237044172Y-58598990D01*
X237005467Y-58560286D01*
X236270077Y-53637695D02*
X236270077Y-52824895D01*
X236463601Y-52824895D01*
X236579715Y-52863600D01*
X236657124Y-52941010D01*
X236695829Y-53018419D01*
X236734534Y-53173238D01*
X236734534Y-53289352D01*
X236695829Y-53444171D01*
X236657124Y-53521581D01*
X236579715Y-53598990D01*
X236463601Y-53637695D01*
X236270077Y-53637695D01*
X237044172Y-52902305D02*
X237082877Y-52863600D01*
X237160286Y-52824895D01*
X237353810Y-52824895D01*
X237431220Y-52863600D01*
X237469924Y-52902305D01*
X237508629Y-52979714D01*
X237508629Y-53057124D01*
X237469924Y-53173238D01*
X237005467Y-53637695D01*
X237508629Y-53637695D01*
X222900000Y-148298571D02*
X222900000Y-149370000D01*
X222828572Y-149584286D01*
X222685715Y-149727143D01*
X222471429Y-149798571D01*
X222328572Y-149798571D01*
X224328572Y-148298571D02*
X223614286Y-148298571D01*
X223542857Y-149012857D01*
X223614286Y-148941429D01*
X223757143Y-148870000D01*
X224114286Y-148870000D01*
X224257143Y-148941429D01*
X224328572Y-149012857D01*
X224400000Y-149155714D01*
X224400000Y-149512857D01*
X224328572Y-149655714D01*
X224257143Y-149727143D01*
X224114286Y-149798571D01*
X223757143Y-149798571D01*
X223614286Y-149727143D01*
X223542857Y-149655714D01*
X208690476Y-129452381D02*
X209023809Y-130452381D01*
X209357143Y-129452381D01*
X210261905Y-130452381D02*
X209928571Y-129976190D01*
X209690476Y-130452381D02*
X209690476Y-129452381D01*
X210071429Y-129452381D01*
X210166667Y-129500000D01*
X210214286Y-129547619D01*
X210261905Y-129642857D01*
X210261905Y-129785714D01*
X210214286Y-129880952D01*
X210166667Y-129928571D01*
X210071429Y-129976190D01*
X209690476Y-129976190D01*
X211119048Y-129452381D02*
X210928571Y-129452381D01*
X210833333Y-129500000D01*
X210785714Y-129547619D01*
X210690476Y-129690476D01*
X210642857Y-129880952D01*
X210642857Y-130261905D01*
X210690476Y-130357143D01*
X210738095Y-130404762D01*
X210833333Y-130452381D01*
X211023810Y-130452381D01*
X211119048Y-130404762D01*
X211166667Y-130357143D01*
X211214286Y-130261905D01*
X211214286Y-130023810D01*
X211166667Y-129928571D01*
X211119048Y-129880952D01*
X211023810Y-129833333D01*
X210833333Y-129833333D01*
X210738095Y-129880952D01*
X210690476Y-129928571D01*
X210642857Y-130023810D01*
X211900000Y-148278571D02*
X211900000Y-149350000D01*
X211828572Y-149564286D01*
X211685715Y-149707143D01*
X211471429Y-149778571D01*
X211328572Y-149778571D01*
X213257143Y-148278571D02*
X212971429Y-148278571D01*
X212828572Y-148350000D01*
X212757143Y-148421429D01*
X212614286Y-148635714D01*
X212542857Y-148921429D01*
X212542857Y-149492857D01*
X212614286Y-149635714D01*
X212685714Y-149707143D01*
X212828572Y-149778571D01*
X213114286Y-149778571D01*
X213257143Y-149707143D01*
X213328572Y-149635714D01*
X213400000Y-149492857D01*
X213400000Y-149135714D01*
X213328572Y-148992857D01*
X213257143Y-148921429D01*
X213114286Y-148850000D01*
X212828572Y-148850000D01*
X212685714Y-148921429D01*
X212614286Y-148992857D01*
X212542857Y-149135714D01*
X222900000Y-128528571D02*
X222900000Y-129600000D01*
X222828572Y-129814286D01*
X222685715Y-129957143D01*
X222471429Y-130028571D01*
X222328572Y-130028571D01*
X224257143Y-129028571D02*
X224257143Y-130028571D01*
X223900000Y-128457143D02*
X223542857Y-129528571D01*
X224471429Y-129528571D01*
X208690476Y-81702381D02*
X209023809Y-82702381D01*
X209357143Y-81702381D01*
X210261905Y-82702381D02*
X209928571Y-82226190D01*
X209690476Y-82702381D02*
X209690476Y-81702381D01*
X210071429Y-81702381D01*
X210166667Y-81750000D01*
X210214286Y-81797619D01*
X210261905Y-81892857D01*
X210261905Y-82035714D01*
X210214286Y-82130952D01*
X210166667Y-82178571D01*
X210071429Y-82226190D01*
X209690476Y-82226190D01*
X210642857Y-81797619D02*
X210690476Y-81750000D01*
X210785714Y-81702381D01*
X211023810Y-81702381D01*
X211119048Y-81750000D01*
X211166667Y-81797619D01*
X211214286Y-81892857D01*
X211214286Y-81988095D01*
X211166667Y-82130952D01*
X210595238Y-82702381D01*
X211214286Y-82702381D01*
X184900000Y-104528571D02*
X184900000Y-105600000D01*
X184828572Y-105814286D01*
X184685715Y-105957143D01*
X184471429Y-106028571D01*
X184328572Y-106028571D01*
X185542857Y-104671429D02*
X185614286Y-104600000D01*
X185757143Y-104528571D01*
X186114286Y-104528571D01*
X186257143Y-104600000D01*
X186328572Y-104671429D01*
X186400000Y-104814286D01*
X186400000Y-104957143D01*
X186328572Y-105171429D01*
X185471429Y-106028571D01*
X186400000Y-106028571D01*
X208690476Y-105202381D02*
X209023809Y-106202381D01*
X209357143Y-105202381D01*
X210261905Y-106202381D02*
X209928571Y-105726190D01*
X209690476Y-106202381D02*
X209690476Y-105202381D01*
X210071429Y-105202381D01*
X210166667Y-105250000D01*
X210214286Y-105297619D01*
X210261905Y-105392857D01*
X210261905Y-105535714D01*
X210214286Y-105630952D01*
X210166667Y-105678571D01*
X210071429Y-105726190D01*
X209690476Y-105726190D01*
X210595238Y-105202381D02*
X211214286Y-105202381D01*
X210880952Y-105583333D01*
X211023810Y-105583333D01*
X211119048Y-105630952D01*
X211166667Y-105678571D01*
X211214286Y-105773810D01*
X211214286Y-106011905D01*
X211166667Y-106107143D01*
X211119048Y-106154762D01*
X211023810Y-106202381D01*
X210738095Y-106202381D01*
X210642857Y-106154762D01*
X210595238Y-106107143D01*
X198270077Y-63637695D02*
X198270077Y-62824895D01*
X198463601Y-62824895D01*
X198579715Y-62863600D01*
X198657124Y-62941010D01*
X198695829Y-63018419D01*
X198734534Y-63173238D01*
X198734534Y-63289352D01*
X198695829Y-63444171D01*
X198657124Y-63521581D01*
X198579715Y-63598990D01*
X198463601Y-63637695D01*
X198270077Y-63637695D01*
X199431220Y-63095829D02*
X199431220Y-63637695D01*
X199237696Y-62786190D02*
X199044172Y-63366762D01*
X199547334Y-63366762D01*
X184900000Y-80528571D02*
X184900000Y-81600000D01*
X184828572Y-81814286D01*
X184685715Y-81957143D01*
X184471429Y-82028571D01*
X184328572Y-82028571D01*
X186400000Y-82028571D02*
X185542857Y-82028571D01*
X185971429Y-82028571D02*
X185971429Y-80528571D01*
X185828572Y-80742857D01*
X185685714Y-80885714D01*
X185542857Y-80957143D01*
X170690476Y-57702381D02*
X171023809Y-58702381D01*
X171357143Y-57702381D01*
X172261905Y-58702381D02*
X171928571Y-58226190D01*
X171690476Y-58702381D02*
X171690476Y-57702381D01*
X172071429Y-57702381D01*
X172166667Y-57750000D01*
X172214286Y-57797619D01*
X172261905Y-57892857D01*
X172261905Y-58035714D01*
X172214286Y-58130952D01*
X172166667Y-58178571D01*
X172071429Y-58226190D01*
X171690476Y-58226190D01*
X173214286Y-58702381D02*
X172642857Y-58702381D01*
X172928571Y-58702381D02*
X172928571Y-57702381D01*
X172833333Y-57845238D01*
X172738095Y-57940476D01*
X172642857Y-57988095D01*
X173900000Y-148278571D02*
X173900000Y-149350000D01*
X173828572Y-149564286D01*
X173685715Y-149707143D01*
X173471429Y-149778571D01*
X173328572Y-149778571D01*
X175257143Y-148278571D02*
X174971429Y-148278571D01*
X174828572Y-148350000D01*
X174757143Y-148421429D01*
X174614286Y-148635714D01*
X174542857Y-148921429D01*
X174542857Y-149492857D01*
X174614286Y-149635714D01*
X174685714Y-149707143D01*
X174828572Y-149778571D01*
X175114286Y-149778571D01*
X175257143Y-149707143D01*
X175328572Y-149635714D01*
X175400000Y-149492857D01*
X175400000Y-149135714D01*
X175328572Y-148992857D01*
X175257143Y-148921429D01*
X175114286Y-148850000D01*
X174828572Y-148850000D01*
X174685714Y-148921429D01*
X174614286Y-148992857D01*
X174542857Y-149135714D01*
X170690476Y-129452381D02*
X171023809Y-130452381D01*
X171357143Y-129452381D01*
X172261905Y-130452381D02*
X171928571Y-129976190D01*
X171690476Y-130452381D02*
X171690476Y-129452381D01*
X172071429Y-129452381D01*
X172166667Y-129500000D01*
X172214286Y-129547619D01*
X172261905Y-129642857D01*
X172261905Y-129785714D01*
X172214286Y-129880952D01*
X172166667Y-129928571D01*
X172071429Y-129976190D01*
X171690476Y-129976190D01*
X173119048Y-129452381D02*
X172928571Y-129452381D01*
X172833333Y-129500000D01*
X172785714Y-129547619D01*
X172690476Y-129690476D01*
X172642857Y-129880952D01*
X172642857Y-130261905D01*
X172690476Y-130357143D01*
X172738095Y-130404762D01*
X172833333Y-130452381D01*
X173023810Y-130452381D01*
X173119048Y-130404762D01*
X173166667Y-130357143D01*
X173214286Y-130261905D01*
X173214286Y-130023810D01*
X173166667Y-129928571D01*
X173119048Y-129880952D01*
X173023810Y-129833333D01*
X172833333Y-129833333D01*
X172738095Y-129880952D01*
X172690476Y-129928571D01*
X172642857Y-130023810D01*
X160900000Y-148278571D02*
X160900000Y-149350000D01*
X160828572Y-149564286D01*
X160685715Y-149707143D01*
X160471429Y-149778571D01*
X160328572Y-149778571D01*
X161471429Y-148278571D02*
X162400000Y-148278571D01*
X161900000Y-148850000D01*
X162114286Y-148850000D01*
X162257143Y-148921429D01*
X162328572Y-148992857D01*
X162400000Y-149135714D01*
X162400000Y-149492857D01*
X162328572Y-149635714D01*
X162257143Y-149707143D01*
X162114286Y-149778571D01*
X161685714Y-149778571D01*
X161542857Y-149707143D01*
X161471429Y-149635714D01*
X132690476Y-57702381D02*
X133023809Y-58702381D01*
X133357143Y-57702381D01*
X134261905Y-58702381D02*
X133928571Y-58226190D01*
X133690476Y-58702381D02*
X133690476Y-57702381D01*
X134071429Y-57702381D01*
X134166667Y-57750000D01*
X134214286Y-57797619D01*
X134261905Y-57892857D01*
X134261905Y-58035714D01*
X134214286Y-58130952D01*
X134166667Y-58178571D01*
X134071429Y-58226190D01*
X133690476Y-58226190D01*
X135214286Y-58702381D02*
X134642857Y-58702381D01*
X134928571Y-58702381D02*
X134928571Y-57702381D01*
X134833333Y-57845238D01*
X134738095Y-57940476D01*
X134642857Y-57988095D01*
X122270077Y-58637695D02*
X122270077Y-57824895D01*
X122463601Y-57824895D01*
X122579715Y-57863600D01*
X122657124Y-57941010D01*
X122695829Y-58018419D01*
X122734534Y-58173238D01*
X122734534Y-58289352D01*
X122695829Y-58444171D01*
X122657124Y-58521581D01*
X122579715Y-58598990D01*
X122463601Y-58637695D01*
X122270077Y-58637695D01*
X123005467Y-57824895D02*
X123508629Y-57824895D01*
X123237696Y-58134533D01*
X123353810Y-58134533D01*
X123431220Y-58173238D01*
X123469924Y-58211943D01*
X123508629Y-58289352D01*
X123508629Y-58482876D01*
X123469924Y-58560286D01*
X123431220Y-58598990D01*
X123353810Y-58637695D01*
X123121582Y-58637695D01*
X123044172Y-58598990D01*
X123005467Y-58560286D01*
X122270077Y-48637695D02*
X122270077Y-47824895D01*
X122463601Y-47824895D01*
X122579715Y-47863600D01*
X122657124Y-47941010D01*
X122695829Y-48018419D01*
X122734534Y-48173238D01*
X122734534Y-48289352D01*
X122695829Y-48444171D01*
X122657124Y-48521581D01*
X122579715Y-48598990D01*
X122463601Y-48637695D01*
X122270077Y-48637695D01*
X123508629Y-48637695D02*
X123044172Y-48637695D01*
X123276401Y-48637695D02*
X123276401Y-47824895D01*
X123198991Y-47941010D01*
X123121582Y-48018419D01*
X123044172Y-48057124D01*
X122270077Y-53637695D02*
X122270077Y-52824895D01*
X122463601Y-52824895D01*
X122579715Y-52863600D01*
X122657124Y-52941010D01*
X122695829Y-53018419D01*
X122734534Y-53173238D01*
X122734534Y-53289352D01*
X122695829Y-53444171D01*
X122657124Y-53521581D01*
X122579715Y-53598990D01*
X122463601Y-53637695D01*
X122270077Y-53637695D01*
X123044172Y-52902305D02*
X123082877Y-52863600D01*
X123160286Y-52824895D01*
X123353810Y-52824895D01*
X123431220Y-52863600D01*
X123469924Y-52902305D01*
X123508629Y-52979714D01*
X123508629Y-53057124D01*
X123469924Y-53173238D01*
X123005467Y-53637695D01*
X123508629Y-53637695D01*
X111566667Y-60154762D02*
X111709524Y-60202381D01*
X111947620Y-60202381D01*
X112042858Y-60154762D01*
X112090477Y-60107143D01*
X112138096Y-60011905D01*
X112138096Y-59916667D01*
X112090477Y-59821429D01*
X112042858Y-59773810D01*
X111947620Y-59726190D01*
X111757143Y-59678571D01*
X111661905Y-59630952D01*
X111614286Y-59583333D01*
X111566667Y-59488095D01*
X111566667Y-59392857D01*
X111614286Y-59297619D01*
X111661905Y-59250000D01*
X111757143Y-59202381D01*
X111995239Y-59202381D01*
X112138096Y-59250000D01*
X112471429Y-59202381D02*
X112709524Y-60202381D01*
X112900001Y-59488095D01*
X113090477Y-60202381D01*
X113328572Y-59202381D01*
X114233334Y-60202381D02*
X113661905Y-60202381D01*
X113947619Y-60202381D02*
X113947619Y-59202381D01*
X113852381Y-59345238D01*
X113757143Y-59440476D01*
X113661905Y-59488095D01*
X108900000Y-128528571D02*
X108900000Y-129600000D01*
X108828572Y-129814286D01*
X108685715Y-129957143D01*
X108471429Y-130028571D01*
X108328572Y-130028571D01*
X110257143Y-129028571D02*
X110257143Y-130028571D01*
X109900000Y-128457143D02*
X109542857Y-129528571D01*
X110471429Y-129528571D01*
X108900000Y-148298571D02*
X108900000Y-149370000D01*
X108828572Y-149584286D01*
X108685715Y-149727143D01*
X108471429Y-149798571D01*
X108328572Y-149798571D01*
X110328572Y-148298571D02*
X109614286Y-148298571D01*
X109542857Y-149012857D01*
X109614286Y-148941429D01*
X109757143Y-148870000D01*
X110114286Y-148870000D01*
X110257143Y-148941429D01*
X110328572Y-149012857D01*
X110400000Y-149155714D01*
X110400000Y-149512857D01*
X110328572Y-149655714D01*
X110257143Y-149727143D01*
X110114286Y-149798571D01*
X109757143Y-149798571D01*
X109614286Y-149727143D01*
X109542857Y-149655714D01*
X122900000Y-148278571D02*
X122900000Y-149350000D01*
X122828572Y-149564286D01*
X122685715Y-149707143D01*
X122471429Y-149778571D01*
X122328572Y-149778571D01*
X123471429Y-148278571D02*
X124400000Y-148278571D01*
X123900000Y-148850000D01*
X124114286Y-148850000D01*
X124257143Y-148921429D01*
X124328572Y-148992857D01*
X124400000Y-149135714D01*
X124400000Y-149492857D01*
X124328572Y-149635714D01*
X124257143Y-149707143D01*
X124114286Y-149778571D01*
X123685714Y-149778571D01*
X123542857Y-149707143D01*
X123471429Y-149635714D01*
X146900000Y-80528571D02*
X146900000Y-81600000D01*
X146828572Y-81814286D01*
X146685715Y-81957143D01*
X146471429Y-82028571D01*
X146328572Y-82028571D01*
X148400000Y-82028571D02*
X147542857Y-82028571D01*
X147971429Y-82028571D02*
X147971429Y-80528571D01*
X147828572Y-80742857D01*
X147685714Y-80885714D01*
X147542857Y-80957143D01*
X170690476Y-105202381D02*
X171023809Y-106202381D01*
X171357143Y-105202381D01*
X172261905Y-106202381D02*
X171928571Y-105726190D01*
X171690476Y-106202381D02*
X171690476Y-105202381D01*
X172071429Y-105202381D01*
X172166667Y-105250000D01*
X172214286Y-105297619D01*
X172261905Y-105392857D01*
X172261905Y-105535714D01*
X172214286Y-105630952D01*
X172166667Y-105678571D01*
X172071429Y-105726190D01*
X171690476Y-105726190D01*
X172595238Y-105202381D02*
X173214286Y-105202381D01*
X172880952Y-105583333D01*
X173023810Y-105583333D01*
X173119048Y-105630952D01*
X173166667Y-105678571D01*
X173214286Y-105773810D01*
X173214286Y-106011905D01*
X173166667Y-106107143D01*
X173119048Y-106154762D01*
X173023810Y-106202381D01*
X172738095Y-106202381D01*
X172642857Y-106154762D01*
X172595238Y-106107143D01*
X160270077Y-63637695D02*
X160270077Y-62824895D01*
X160463601Y-62824895D01*
X160579715Y-62863600D01*
X160657124Y-62941010D01*
X160695829Y-63018419D01*
X160734534Y-63173238D01*
X160734534Y-63289352D01*
X160695829Y-63444171D01*
X160657124Y-63521581D01*
X160579715Y-63598990D01*
X160463601Y-63637695D01*
X160270077Y-63637695D01*
X161431220Y-63095829D02*
X161431220Y-63637695D01*
X161237696Y-62786190D02*
X161044172Y-63366762D01*
X161547334Y-63366762D01*
X146900000Y-104528571D02*
X146900000Y-105600000D01*
X146828572Y-105814286D01*
X146685715Y-105957143D01*
X146471429Y-106028571D01*
X146328572Y-106028571D01*
X147542857Y-104671429D02*
X147614286Y-104600000D01*
X147757143Y-104528571D01*
X148114286Y-104528571D01*
X148257143Y-104600000D01*
X148328572Y-104671429D01*
X148400000Y-104814286D01*
X148400000Y-104957143D01*
X148328572Y-105171429D01*
X147471429Y-106028571D01*
X148400000Y-106028571D01*
X170690476Y-81702381D02*
X171023809Y-82702381D01*
X171357143Y-81702381D01*
X172261905Y-82702381D02*
X171928571Y-82226190D01*
X171690476Y-82702381D02*
X171690476Y-81702381D01*
X172071429Y-81702381D01*
X172166667Y-81750000D01*
X172214286Y-81797619D01*
X172261905Y-81892857D01*
X172261905Y-82035714D01*
X172214286Y-82130952D01*
X172166667Y-82178571D01*
X172071429Y-82226190D01*
X171690476Y-82226190D01*
X172642857Y-81797619D02*
X172690476Y-81750000D01*
X172785714Y-81702381D01*
X173023810Y-81702381D01*
X173119048Y-81750000D01*
X173166667Y-81797619D01*
X173214286Y-81892857D01*
X173214286Y-81988095D01*
X173166667Y-82130952D01*
X172595238Y-82702381D01*
X173214286Y-82702381D01*
X149566667Y-60154762D02*
X149709524Y-60202381D01*
X149947620Y-60202381D01*
X150042858Y-60154762D01*
X150090477Y-60107143D01*
X150138096Y-60011905D01*
X150138096Y-59916667D01*
X150090477Y-59821429D01*
X150042858Y-59773810D01*
X149947620Y-59726190D01*
X149757143Y-59678571D01*
X149661905Y-59630952D01*
X149614286Y-59583333D01*
X149566667Y-59488095D01*
X149566667Y-59392857D01*
X149614286Y-59297619D01*
X149661905Y-59250000D01*
X149757143Y-59202381D01*
X149995239Y-59202381D01*
X150138096Y-59250000D01*
X150471429Y-59202381D02*
X150709524Y-60202381D01*
X150900001Y-59488095D01*
X151090477Y-60202381D01*
X151328572Y-59202381D01*
X152233334Y-60202381D02*
X151661905Y-60202381D01*
X151947619Y-60202381D02*
X151947619Y-59202381D01*
X151852381Y-59345238D01*
X151757143Y-59440476D01*
X151661905Y-59488095D01*
X160270077Y-48637695D02*
X160270077Y-47824895D01*
X160463601Y-47824895D01*
X160579715Y-47863600D01*
X160657124Y-47941010D01*
X160695829Y-48018419D01*
X160734534Y-48173238D01*
X160734534Y-48289352D01*
X160695829Y-48444171D01*
X160657124Y-48521581D01*
X160579715Y-48598990D01*
X160463601Y-48637695D01*
X160270077Y-48637695D01*
X161508629Y-48637695D02*
X161044172Y-48637695D01*
X161276401Y-48637695D02*
X161276401Y-47824895D01*
X161198991Y-47941010D01*
X161121582Y-48018419D01*
X161044172Y-48057124D01*
X160270077Y-58637695D02*
X160270077Y-57824895D01*
X160463601Y-57824895D01*
X160579715Y-57863600D01*
X160657124Y-57941010D01*
X160695829Y-58018419D01*
X160734534Y-58173238D01*
X160734534Y-58289352D01*
X160695829Y-58444171D01*
X160657124Y-58521581D01*
X160579715Y-58598990D01*
X160463601Y-58637695D01*
X160270077Y-58637695D01*
X161005467Y-57824895D02*
X161508629Y-57824895D01*
X161237696Y-58134533D01*
X161353810Y-58134533D01*
X161431220Y-58173238D01*
X161469924Y-58211943D01*
X161508629Y-58289352D01*
X161508629Y-58482876D01*
X161469924Y-58560286D01*
X161431220Y-58598990D01*
X161353810Y-58637695D01*
X161121582Y-58637695D01*
X161044172Y-58598990D01*
X161005467Y-58560286D01*
X160270077Y-53637695D02*
X160270077Y-52824895D01*
X160463601Y-52824895D01*
X160579715Y-52863600D01*
X160657124Y-52941010D01*
X160695829Y-53018419D01*
X160734534Y-53173238D01*
X160734534Y-53289352D01*
X160695829Y-53444171D01*
X160657124Y-53521581D01*
X160579715Y-53598990D01*
X160463601Y-53637695D01*
X160270077Y-53637695D01*
X161044172Y-52902305D02*
X161082877Y-52863600D01*
X161160286Y-52824895D01*
X161353810Y-52824895D01*
X161431220Y-52863600D01*
X161469924Y-52902305D01*
X161508629Y-52979714D01*
X161508629Y-53057124D01*
X161469924Y-53173238D01*
X161005467Y-53637695D01*
X161508629Y-53637695D01*
X146900000Y-148298571D02*
X146900000Y-149370000D01*
X146828572Y-149584286D01*
X146685715Y-149727143D01*
X146471429Y-149798571D01*
X146328572Y-149798571D01*
X148328572Y-148298571D02*
X147614286Y-148298571D01*
X147542857Y-149012857D01*
X147614286Y-148941429D01*
X147757143Y-148870000D01*
X148114286Y-148870000D01*
X148257143Y-148941429D01*
X148328572Y-149012857D01*
X148400000Y-149155714D01*
X148400000Y-149512857D01*
X148328572Y-149655714D01*
X148257143Y-149727143D01*
X148114286Y-149798571D01*
X147757143Y-149798571D01*
X147614286Y-149727143D01*
X147542857Y-149655714D01*
X132690476Y-129452381D02*
X133023809Y-130452381D01*
X133357143Y-129452381D01*
X134261905Y-130452381D02*
X133928571Y-129976190D01*
X133690476Y-130452381D02*
X133690476Y-129452381D01*
X134071429Y-129452381D01*
X134166667Y-129500000D01*
X134214286Y-129547619D01*
X134261905Y-129642857D01*
X134261905Y-129785714D01*
X134214286Y-129880952D01*
X134166667Y-129928571D01*
X134071429Y-129976190D01*
X133690476Y-129976190D01*
X135119048Y-129452381D02*
X134928571Y-129452381D01*
X134833333Y-129500000D01*
X134785714Y-129547619D01*
X134690476Y-129690476D01*
X134642857Y-129880952D01*
X134642857Y-130261905D01*
X134690476Y-130357143D01*
X134738095Y-130404762D01*
X134833333Y-130452381D01*
X135023810Y-130452381D01*
X135119048Y-130404762D01*
X135166667Y-130357143D01*
X135214286Y-130261905D01*
X135214286Y-130023810D01*
X135166667Y-129928571D01*
X135119048Y-129880952D01*
X135023810Y-129833333D01*
X134833333Y-129833333D01*
X134738095Y-129880952D01*
X134690476Y-129928571D01*
X134642857Y-130023810D01*
X135900000Y-148278571D02*
X135900000Y-149350000D01*
X135828572Y-149564286D01*
X135685715Y-149707143D01*
X135471429Y-149778571D01*
X135328572Y-149778571D01*
X137257143Y-148278571D02*
X136971429Y-148278571D01*
X136828572Y-148350000D01*
X136757143Y-148421429D01*
X136614286Y-148635714D01*
X136542857Y-148921429D01*
X136542857Y-149492857D01*
X136614286Y-149635714D01*
X136685714Y-149707143D01*
X136828572Y-149778571D01*
X137114286Y-149778571D01*
X137257143Y-149707143D01*
X137328572Y-149635714D01*
X137400000Y-149492857D01*
X137400000Y-149135714D01*
X137328572Y-148992857D01*
X137257143Y-148921429D01*
X137114286Y-148850000D01*
X136828572Y-148850000D01*
X136685714Y-148921429D01*
X136614286Y-148992857D01*
X136542857Y-149135714D01*
X146900000Y-128528571D02*
X146900000Y-129600000D01*
X146828572Y-129814286D01*
X146685715Y-129957143D01*
X146471429Y-130028571D01*
X146328572Y-130028571D01*
X148257143Y-129028571D02*
X148257143Y-130028571D01*
X147900000Y-128457143D02*
X147542857Y-129528571D01*
X148471429Y-129528571D01*
X132690476Y-81702381D02*
X133023809Y-82702381D01*
X133357143Y-81702381D01*
X134261905Y-82702381D02*
X133928571Y-82226190D01*
X133690476Y-82702381D02*
X133690476Y-81702381D01*
X134071429Y-81702381D01*
X134166667Y-81750000D01*
X134214286Y-81797619D01*
X134261905Y-81892857D01*
X134261905Y-82035714D01*
X134214286Y-82130952D01*
X134166667Y-82178571D01*
X134071429Y-82226190D01*
X133690476Y-82226190D01*
X134642857Y-81797619D02*
X134690476Y-81750000D01*
X134785714Y-81702381D01*
X135023810Y-81702381D01*
X135119048Y-81750000D01*
X135166667Y-81797619D01*
X135214286Y-81892857D01*
X135214286Y-81988095D01*
X135166667Y-82130952D01*
X134595238Y-82702381D01*
X135214286Y-82702381D01*
X108900000Y-104528571D02*
X108900000Y-105600000D01*
X108828572Y-105814286D01*
X108685715Y-105957143D01*
X108471429Y-106028571D01*
X108328572Y-106028571D01*
X109542857Y-104671429D02*
X109614286Y-104600000D01*
X109757143Y-104528571D01*
X110114286Y-104528571D01*
X110257143Y-104600000D01*
X110328572Y-104671429D01*
X110400000Y-104814286D01*
X110400000Y-104957143D01*
X110328572Y-105171429D01*
X109471429Y-106028571D01*
X110400000Y-106028571D01*
X132690476Y-105202381D02*
X133023809Y-106202381D01*
X133357143Y-105202381D01*
X134261905Y-106202381D02*
X133928571Y-105726190D01*
X133690476Y-106202381D02*
X133690476Y-105202381D01*
X134071429Y-105202381D01*
X134166667Y-105250000D01*
X134214286Y-105297619D01*
X134261905Y-105392857D01*
X134261905Y-105535714D01*
X134214286Y-105630952D01*
X134166667Y-105678571D01*
X134071429Y-105726190D01*
X133690476Y-105726190D01*
X134595238Y-105202381D02*
X135214286Y-105202381D01*
X134880952Y-105583333D01*
X135023810Y-105583333D01*
X135119048Y-105630952D01*
X135166667Y-105678571D01*
X135214286Y-105773810D01*
X135214286Y-106011905D01*
X135166667Y-106107143D01*
X135119048Y-106154762D01*
X135023810Y-106202381D01*
X134738095Y-106202381D01*
X134642857Y-106154762D01*
X134595238Y-106107143D01*
X122270077Y-63637695D02*
X122270077Y-62824895D01*
X122463601Y-62824895D01*
X122579715Y-62863600D01*
X122657124Y-62941010D01*
X122695829Y-63018419D01*
X122734534Y-63173238D01*
X122734534Y-63289352D01*
X122695829Y-63444171D01*
X122657124Y-63521581D01*
X122579715Y-63598990D01*
X122463601Y-63637695D01*
X122270077Y-63637695D01*
X123431220Y-63095829D02*
X123431220Y-63637695D01*
X123237696Y-62786190D02*
X123044172Y-63366762D01*
X123547334Y-63366762D01*
X108900000Y-80528571D02*
X108900000Y-81600000D01*
X108828572Y-81814286D01*
X108685715Y-81957143D01*
X108471429Y-82028571D01*
X108328572Y-82028571D01*
X110400000Y-82028571D02*
X109542857Y-82028571D01*
X109971429Y-82028571D02*
X109971429Y-80528571D01*
X109828572Y-80742857D01*
X109685714Y-80885714D01*
X109542857Y-80957143D01*
X94690476Y-57702381D02*
X95023809Y-58702381D01*
X95357143Y-57702381D01*
X96261905Y-58702381D02*
X95928571Y-58226190D01*
X95690476Y-58702381D02*
X95690476Y-57702381D01*
X96071429Y-57702381D01*
X96166667Y-57750000D01*
X96214286Y-57797619D01*
X96261905Y-57892857D01*
X96261905Y-58035714D01*
X96214286Y-58130952D01*
X96166667Y-58178571D01*
X96071429Y-58226190D01*
X95690476Y-58226190D01*
X97214286Y-58702381D02*
X96642857Y-58702381D01*
X96928571Y-58702381D02*
X96928571Y-57702381D01*
X96833333Y-57845238D01*
X96738095Y-57940476D01*
X96642857Y-57988095D01*
X94690476Y-129452381D02*
X95023809Y-130452381D01*
X95357143Y-129452381D01*
X96261905Y-130452381D02*
X95928571Y-129976190D01*
X95690476Y-130452381D02*
X95690476Y-129452381D01*
X96071429Y-129452381D01*
X96166667Y-129500000D01*
X96214286Y-129547619D01*
X96261905Y-129642857D01*
X96261905Y-129785714D01*
X96214286Y-129880952D01*
X96166667Y-129928571D01*
X96071429Y-129976190D01*
X95690476Y-129976190D01*
X97119048Y-129452381D02*
X96928571Y-129452381D01*
X96833333Y-129500000D01*
X96785714Y-129547619D01*
X96690476Y-129690476D01*
X96642857Y-129880952D01*
X96642857Y-130261905D01*
X96690476Y-130357143D01*
X96738095Y-130404762D01*
X96833333Y-130452381D01*
X97023810Y-130452381D01*
X97119048Y-130404762D01*
X97166667Y-130357143D01*
X97214286Y-130261905D01*
X97214286Y-130023810D01*
X97166667Y-129928571D01*
X97119048Y-129880952D01*
X97023810Y-129833333D01*
X96833333Y-129833333D01*
X96738095Y-129880952D01*
X96690476Y-129928571D01*
X96642857Y-130023810D01*
X97900000Y-148278571D02*
X97900000Y-149350000D01*
X97828572Y-149564286D01*
X97685715Y-149707143D01*
X97471429Y-149778571D01*
X97328572Y-149778571D01*
X99257143Y-148278571D02*
X98971429Y-148278571D01*
X98828572Y-148350000D01*
X98757143Y-148421429D01*
X98614286Y-148635714D01*
X98542857Y-148921429D01*
X98542857Y-149492857D01*
X98614286Y-149635714D01*
X98685714Y-149707143D01*
X98828572Y-149778571D01*
X99114286Y-149778571D01*
X99257143Y-149707143D01*
X99328572Y-149635714D01*
X99400000Y-149492857D01*
X99400000Y-149135714D01*
X99328572Y-148992857D01*
X99257143Y-148921429D01*
X99114286Y-148850000D01*
X98828572Y-148850000D01*
X98685714Y-148921429D01*
X98614286Y-148992857D01*
X98542857Y-149135714D01*
X94690476Y-105202381D02*
X95023809Y-106202381D01*
X95357143Y-105202381D01*
X96261905Y-106202381D02*
X95928571Y-105726190D01*
X95690476Y-106202381D02*
X95690476Y-105202381D01*
X96071429Y-105202381D01*
X96166667Y-105250000D01*
X96214286Y-105297619D01*
X96261905Y-105392857D01*
X96261905Y-105535714D01*
X96214286Y-105630952D01*
X96166667Y-105678571D01*
X96071429Y-105726190D01*
X95690476Y-105726190D01*
X96595238Y-105202381D02*
X97214286Y-105202381D01*
X96880952Y-105583333D01*
X97023810Y-105583333D01*
X97119048Y-105630952D01*
X97166667Y-105678571D01*
X97214286Y-105773810D01*
X97214286Y-106011905D01*
X97166667Y-106107143D01*
X97119048Y-106154762D01*
X97023810Y-106202381D01*
X96738095Y-106202381D01*
X96642857Y-106154762D01*
X96595238Y-106107143D01*
X94690476Y-81702381D02*
X95023809Y-82702381D01*
X95357143Y-81702381D01*
X96261905Y-82702381D02*
X95928571Y-82226190D01*
X95690476Y-82702381D02*
X95690476Y-81702381D01*
X96071429Y-81702381D01*
X96166667Y-81750000D01*
X96214286Y-81797619D01*
X96261905Y-81892857D01*
X96261905Y-82035714D01*
X96214286Y-82130952D01*
X96166667Y-82178571D01*
X96071429Y-82226190D01*
X95690476Y-82226190D01*
X96642857Y-81797619D02*
X96690476Y-81750000D01*
X96785714Y-81702381D01*
X97023810Y-81702381D01*
X97119048Y-81750000D01*
X97166667Y-81797619D01*
X97214286Y-81892857D01*
X97214286Y-81988095D01*
X97166667Y-82130952D01*
X96595238Y-82702381D01*
X97214286Y-82702381D01*
X70900000Y-80528571D02*
X70900000Y-81600000D01*
X70828572Y-81814286D01*
X70685715Y-81957143D01*
X70471429Y-82028571D01*
X70328572Y-82028571D01*
X72400000Y-82028571D02*
X71542857Y-82028571D01*
X71971429Y-82028571D02*
X71971429Y-80528571D01*
X71828572Y-80742857D01*
X71685714Y-80885714D01*
X71542857Y-80957143D01*
X70900000Y-104528571D02*
X70900000Y-105600000D01*
X70828572Y-105814286D01*
X70685715Y-105957143D01*
X70471429Y-106028571D01*
X70328572Y-106028571D01*
X71542857Y-104671429D02*
X71614286Y-104600000D01*
X71757143Y-104528571D01*
X72114286Y-104528571D01*
X72257143Y-104600000D01*
X72328572Y-104671429D01*
X72400000Y-104814286D01*
X72400000Y-104957143D01*
X72328572Y-105171429D01*
X71471429Y-106028571D01*
X72400000Y-106028571D01*
X84270077Y-63637695D02*
X84270077Y-62824895D01*
X84463601Y-62824895D01*
X84579715Y-62863600D01*
X84657124Y-62941010D01*
X84695829Y-63018419D01*
X84734534Y-63173238D01*
X84734534Y-63289352D01*
X84695829Y-63444171D01*
X84657124Y-63521581D01*
X84579715Y-63598990D01*
X84463601Y-63637695D01*
X84270077Y-63637695D01*
X85431220Y-63095829D02*
X85431220Y-63637695D01*
X85237696Y-62786190D02*
X85044172Y-63366762D01*
X85547334Y-63366762D01*
X73566667Y-60154762D02*
X73709524Y-60202381D01*
X73947620Y-60202381D01*
X74042858Y-60154762D01*
X74090477Y-60107143D01*
X74138096Y-60011905D01*
X74138096Y-59916667D01*
X74090477Y-59821429D01*
X74042858Y-59773810D01*
X73947620Y-59726190D01*
X73757143Y-59678571D01*
X73661905Y-59630952D01*
X73614286Y-59583333D01*
X73566667Y-59488095D01*
X73566667Y-59392857D01*
X73614286Y-59297619D01*
X73661905Y-59250000D01*
X73757143Y-59202381D01*
X73995239Y-59202381D01*
X74138096Y-59250000D01*
X74471429Y-59202381D02*
X74709524Y-60202381D01*
X74900001Y-59488095D01*
X75090477Y-60202381D01*
X75328572Y-59202381D01*
X76233334Y-60202381D02*
X75661905Y-60202381D01*
X75947619Y-60202381D02*
X75947619Y-59202381D01*
X75852381Y-59345238D01*
X75757143Y-59440476D01*
X75661905Y-59488095D01*
X84270077Y-53637695D02*
X84270077Y-52824895D01*
X84463601Y-52824895D01*
X84579715Y-52863600D01*
X84657124Y-52941010D01*
X84695829Y-53018419D01*
X84734534Y-53173238D01*
X84734534Y-53289352D01*
X84695829Y-53444171D01*
X84657124Y-53521581D01*
X84579715Y-53598990D01*
X84463601Y-53637695D01*
X84270077Y-53637695D01*
X85044172Y-52902305D02*
X85082877Y-52863600D01*
X85160286Y-52824895D01*
X85353810Y-52824895D01*
X85431220Y-52863600D01*
X85469924Y-52902305D01*
X85508629Y-52979714D01*
X85508629Y-53057124D01*
X85469924Y-53173238D01*
X85005467Y-53637695D01*
X85508629Y-53637695D01*
X84270077Y-48637695D02*
X84270077Y-47824895D01*
X84463601Y-47824895D01*
X84579715Y-47863600D01*
X84657124Y-47941010D01*
X84695829Y-48018419D01*
X84734534Y-48173238D01*
X84734534Y-48289352D01*
X84695829Y-48444171D01*
X84657124Y-48521581D01*
X84579715Y-48598990D01*
X84463601Y-48637695D01*
X84270077Y-48637695D01*
X85508629Y-48637695D02*
X85044172Y-48637695D01*
X85276401Y-48637695D02*
X85276401Y-47824895D01*
X85198991Y-47941010D01*
X85121582Y-48018419D01*
X85044172Y-48057124D01*
X84270077Y-58637695D02*
X84270077Y-57824895D01*
X84463601Y-57824895D01*
X84579715Y-57863600D01*
X84657124Y-57941010D01*
X84695829Y-58018419D01*
X84734534Y-58173238D01*
X84734534Y-58289352D01*
X84695829Y-58444171D01*
X84657124Y-58521581D01*
X84579715Y-58598990D01*
X84463601Y-58637695D01*
X84270077Y-58637695D01*
X85005467Y-57824895D02*
X85508629Y-57824895D01*
X85237696Y-58134533D01*
X85353810Y-58134533D01*
X85431220Y-58173238D01*
X85469924Y-58211943D01*
X85508629Y-58289352D01*
X85508629Y-58482876D01*
X85469924Y-58560286D01*
X85431220Y-58598990D01*
X85353810Y-58637695D01*
X85121582Y-58637695D01*
X85044172Y-58598990D01*
X85005467Y-58560286D01*
X70900000Y-148298571D02*
X70900000Y-149370000D01*
X70828572Y-149584286D01*
X70685715Y-149727143D01*
X70471429Y-149798571D01*
X70328572Y-149798571D01*
X72328572Y-148298571D02*
X71614286Y-148298571D01*
X71542857Y-149012857D01*
X71614286Y-148941429D01*
X71757143Y-148870000D01*
X72114286Y-148870000D01*
X72257143Y-148941429D01*
X72328572Y-149012857D01*
X72400000Y-149155714D01*
X72400000Y-149512857D01*
X72328572Y-149655714D01*
X72257143Y-149727143D01*
X72114286Y-149798571D01*
X71757143Y-149798571D01*
X71614286Y-149727143D01*
X71542857Y-149655714D01*
X70900000Y-128528571D02*
X70900000Y-129600000D01*
X70828572Y-129814286D01*
X70685715Y-129957143D01*
X70471429Y-130028571D01*
X70328572Y-130028571D01*
X72257143Y-129028571D02*
X72257143Y-130028571D01*
X71900000Y-128457143D02*
X71542857Y-129528571D01*
X72471429Y-129528571D01*
X84900000Y-148278571D02*
X84900000Y-149350000D01*
X84828572Y-149564286D01*
X84685715Y-149707143D01*
X84471429Y-149778571D01*
X84328572Y-149778571D01*
X85471429Y-148278571D02*
X86400000Y-148278571D01*
X85900000Y-148850000D01*
X86114286Y-148850000D01*
X86257143Y-148921429D01*
X86328572Y-148992857D01*
X86400000Y-149135714D01*
X86400000Y-149492857D01*
X86328572Y-149635714D01*
X86257143Y-149707143D01*
X86114286Y-149778571D01*
X85685714Y-149778571D01*
X85542857Y-149707143D01*
X85471429Y-149635714D01*
X46270077Y-48637695D02*
X46270077Y-47824895D01*
X46463601Y-47824895D01*
X46579715Y-47863600D01*
X46657124Y-47941010D01*
X46695829Y-48018419D01*
X46734534Y-48173238D01*
X46734534Y-48289352D01*
X46695829Y-48444171D01*
X46657124Y-48521581D01*
X46579715Y-48598990D01*
X46463601Y-48637695D01*
X46270077Y-48637695D01*
X47508629Y-48637695D02*
X47044172Y-48637695D01*
X47276401Y-48637695D02*
X47276401Y-47824895D01*
X47198991Y-47941010D01*
X47121582Y-48018419D01*
X47044172Y-48057124D01*
X46270077Y-53637695D02*
X46270077Y-52824895D01*
X46463601Y-52824895D01*
X46579715Y-52863600D01*
X46657124Y-52941010D01*
X46695829Y-53018419D01*
X46734534Y-53173238D01*
X46734534Y-53289352D01*
X46695829Y-53444171D01*
X46657124Y-53521581D01*
X46579715Y-53598990D01*
X46463601Y-53637695D01*
X46270077Y-53637695D01*
X47044172Y-52902305D02*
X47082877Y-52863600D01*
X47160286Y-52824895D01*
X47353810Y-52824895D01*
X47431220Y-52863600D01*
X47469924Y-52902305D01*
X47508629Y-52979714D01*
X47508629Y-53057124D01*
X47469924Y-53173238D01*
X47005467Y-53637695D01*
X47508629Y-53637695D01*
X46270077Y-58637695D02*
X46270077Y-57824895D01*
X46463601Y-57824895D01*
X46579715Y-57863600D01*
X46657124Y-57941010D01*
X46695829Y-58018419D01*
X46734534Y-58173238D01*
X46734534Y-58289352D01*
X46695829Y-58444171D01*
X46657124Y-58521581D01*
X46579715Y-58598990D01*
X46463601Y-58637695D01*
X46270077Y-58637695D01*
X47005467Y-57824895D02*
X47508629Y-57824895D01*
X47237696Y-58134533D01*
X47353810Y-58134533D01*
X47431220Y-58173238D01*
X47469924Y-58211943D01*
X47508629Y-58289352D01*
X47508629Y-58482876D01*
X47469924Y-58560286D01*
X47431220Y-58598990D01*
X47353810Y-58637695D01*
X47121582Y-58637695D01*
X47044172Y-58598990D01*
X47005467Y-58560286D01*
X46270077Y-63637695D02*
X46270077Y-62824895D01*
X46463601Y-62824895D01*
X46579715Y-62863600D01*
X46657124Y-62941010D01*
X46695829Y-63018419D01*
X46734534Y-63173238D01*
X46734534Y-63289352D01*
X46695829Y-63444171D01*
X46657124Y-63521581D01*
X46579715Y-63598990D01*
X46463601Y-63637695D01*
X46270077Y-63637695D01*
X47431220Y-63095829D02*
X47431220Y-63637695D01*
X47237696Y-62786190D02*
X47044172Y-63366762D01*
X47547334Y-63366762D01*
X32900000Y-80528571D02*
X32900000Y-81600000D01*
X32828572Y-81814286D01*
X32685715Y-81957143D01*
X32471429Y-82028571D01*
X32328572Y-82028571D01*
X34400000Y-82028571D02*
X33542857Y-82028571D01*
X33971429Y-82028571D02*
X33971429Y-80528571D01*
X33828572Y-80742857D01*
X33685714Y-80885714D01*
X33542857Y-80957143D01*
X32900000Y-104528571D02*
X32900000Y-105600000D01*
X32828572Y-105814286D01*
X32685715Y-105957143D01*
X32471429Y-106028571D01*
X32328572Y-106028571D01*
X33542857Y-104671429D02*
X33614286Y-104600000D01*
X33757143Y-104528571D01*
X34114286Y-104528571D01*
X34257143Y-104600000D01*
X34328572Y-104671429D01*
X34400000Y-104814286D01*
X34400000Y-104957143D01*
X34328572Y-105171429D01*
X33471429Y-106028571D01*
X34400000Y-106028571D01*
X46900000Y-148278571D02*
X46900000Y-149350000D01*
X46828572Y-149564286D01*
X46685715Y-149707143D01*
X46471429Y-149778571D01*
X46328572Y-149778571D01*
X47471429Y-148278571D02*
X48400000Y-148278571D01*
X47900000Y-148850000D01*
X48114286Y-148850000D01*
X48257143Y-148921429D01*
X48328572Y-148992857D01*
X48400000Y-149135714D01*
X48400000Y-149492857D01*
X48328572Y-149635714D01*
X48257143Y-149707143D01*
X48114286Y-149778571D01*
X47685714Y-149778571D01*
X47542857Y-149707143D01*
X47471429Y-149635714D01*
X32900000Y-128528571D02*
X32900000Y-129600000D01*
X32828572Y-129814286D01*
X32685715Y-129957143D01*
X32471429Y-130028571D01*
X32328572Y-130028571D01*
X34257143Y-129028571D02*
X34257143Y-130028571D01*
X33900000Y-128457143D02*
X33542857Y-129528571D01*
X34471429Y-129528571D01*
X32900000Y-148298571D02*
X32900000Y-149370000D01*
X32828572Y-149584286D01*
X32685715Y-149727143D01*
X32471429Y-149798571D01*
X32328572Y-149798571D01*
X34328572Y-148298571D02*
X33614286Y-148298571D01*
X33542857Y-149012857D01*
X33614286Y-148941429D01*
X33757143Y-148870000D01*
X34114286Y-148870000D01*
X34257143Y-148941429D01*
X34328572Y-149012857D01*
X34400000Y-149155714D01*
X34400000Y-149512857D01*
X34328572Y-149655714D01*
X34257143Y-149727143D01*
X34114286Y-149798571D01*
X33757143Y-149798571D01*
X33614286Y-149727143D01*
X33542857Y-149655714D01*
X59900000Y-148278571D02*
X59900000Y-149350000D01*
X59828572Y-149564286D01*
X59685715Y-149707143D01*
X59471429Y-149778571D01*
X59328572Y-149778571D01*
X61257143Y-148278571D02*
X60971429Y-148278571D01*
X60828572Y-148350000D01*
X60757143Y-148421429D01*
X60614286Y-148635714D01*
X60542857Y-148921429D01*
X60542857Y-149492857D01*
X60614286Y-149635714D01*
X60685714Y-149707143D01*
X60828572Y-149778571D01*
X61114286Y-149778571D01*
X61257143Y-149707143D01*
X61328572Y-149635714D01*
X61400000Y-149492857D01*
X61400000Y-149135714D01*
X61328572Y-148992857D01*
X61257143Y-148921429D01*
X61114286Y-148850000D01*
X60828572Y-148850000D01*
X60685714Y-148921429D01*
X60614286Y-148992857D01*
X60542857Y-149135714D01*
X35566667Y-60154762D02*
X35709524Y-60202381D01*
X35947620Y-60202381D01*
X36042858Y-60154762D01*
X36090477Y-60107143D01*
X36138096Y-60011905D01*
X36138096Y-59916667D01*
X36090477Y-59821429D01*
X36042858Y-59773810D01*
X35947620Y-59726190D01*
X35757143Y-59678571D01*
X35661905Y-59630952D01*
X35614286Y-59583333D01*
X35566667Y-59488095D01*
X35566667Y-59392857D01*
X35614286Y-59297619D01*
X35661905Y-59250000D01*
X35757143Y-59202381D01*
X35995239Y-59202381D01*
X36138096Y-59250000D01*
X36471429Y-59202381D02*
X36709524Y-60202381D01*
X36900001Y-59488095D01*
X37090477Y-60202381D01*
X37328572Y-59202381D01*
X38233334Y-60202381D02*
X37661905Y-60202381D01*
X37947619Y-60202381D02*
X37947619Y-59202381D01*
X37852381Y-59345238D01*
X37757143Y-59440476D01*
X37661905Y-59488095D01*
X56690476Y-129452381D02*
X57023809Y-130452381D01*
X57357143Y-129452381D01*
X58261905Y-130452381D02*
X57928571Y-129976190D01*
X57690476Y-130452381D02*
X57690476Y-129452381D01*
X58071429Y-129452381D01*
X58166667Y-129500000D01*
X58214286Y-129547619D01*
X58261905Y-129642857D01*
X58261905Y-129785714D01*
X58214286Y-129880952D01*
X58166667Y-129928571D01*
X58071429Y-129976190D01*
X57690476Y-129976190D01*
X59119048Y-129452381D02*
X58928571Y-129452381D01*
X58833333Y-129500000D01*
X58785714Y-129547619D01*
X58690476Y-129690476D01*
X58642857Y-129880952D01*
X58642857Y-130261905D01*
X58690476Y-130357143D01*
X58738095Y-130404762D01*
X58833333Y-130452381D01*
X59023810Y-130452381D01*
X59119048Y-130404762D01*
X59166667Y-130357143D01*
X59214286Y-130261905D01*
X59214286Y-130023810D01*
X59166667Y-129928571D01*
X59119048Y-129880952D01*
X59023810Y-129833333D01*
X58833333Y-129833333D01*
X58738095Y-129880952D01*
X58690476Y-129928571D01*
X58642857Y-130023810D01*
X56690476Y-105202381D02*
X57023809Y-106202381D01*
X57357143Y-105202381D01*
X58261905Y-106202381D02*
X57928571Y-105726190D01*
X57690476Y-106202381D02*
X57690476Y-105202381D01*
X58071429Y-105202381D01*
X58166667Y-105250000D01*
X58214286Y-105297619D01*
X58261905Y-105392857D01*
X58261905Y-105535714D01*
X58214286Y-105630952D01*
X58166667Y-105678571D01*
X58071429Y-105726190D01*
X57690476Y-105726190D01*
X58595238Y-105202381D02*
X59214286Y-105202381D01*
X58880952Y-105583333D01*
X59023810Y-105583333D01*
X59119048Y-105630952D01*
X59166667Y-105678571D01*
X59214286Y-105773810D01*
X59214286Y-106011905D01*
X59166667Y-106107143D01*
X59119048Y-106154762D01*
X59023810Y-106202381D01*
X58738095Y-106202381D01*
X58642857Y-106154762D01*
X58595238Y-106107143D01*
X56690476Y-81702381D02*
X57023809Y-82702381D01*
X57357143Y-81702381D01*
X58261905Y-82702381D02*
X57928571Y-82226190D01*
X57690476Y-82702381D02*
X57690476Y-81702381D01*
X58071429Y-81702381D01*
X58166667Y-81750000D01*
X58214286Y-81797619D01*
X58261905Y-81892857D01*
X58261905Y-82035714D01*
X58214286Y-82130952D01*
X58166667Y-82178571D01*
X58071429Y-82226190D01*
X57690476Y-82226190D01*
X58642857Y-81797619D02*
X58690476Y-81750000D01*
X58785714Y-81702381D01*
X59023810Y-81702381D01*
X59119048Y-81750000D01*
X59166667Y-81797619D01*
X59214286Y-81892857D01*
X59214286Y-81988095D01*
X59166667Y-82130952D01*
X58595238Y-82702381D01*
X59214286Y-82702381D01*
X56690476Y-57702381D02*
X57023809Y-58702381D01*
X57357143Y-57702381D01*
X58261905Y-58702381D02*
X57928571Y-58226190D01*
X57690476Y-58702381D02*
X57690476Y-57702381D01*
X58071429Y-57702381D01*
X58166667Y-57750000D01*
X58214286Y-57797619D01*
X58261905Y-57892857D01*
X58261905Y-58035714D01*
X58214286Y-58130952D01*
X58166667Y-58178571D01*
X58071429Y-58226190D01*
X57690476Y-58226190D01*
X59214286Y-58702381D02*
X58642857Y-58702381D01*
X58928571Y-58702381D02*
X58928571Y-57702381D01*
X58833333Y-57845238D01*
X58738095Y-57940476D01*
X58642857Y-57988095D01*
%LPC*%
D13*
X254300000Y-67550000D03*
D14*
X256840000Y-67550000D03*
X254300000Y-65010000D03*
X256840000Y-65010000D03*
X254300000Y-62470000D03*
X256840000Y-62470000D03*
X254300000Y-59930000D03*
X256840000Y-59930000D03*
X254300000Y-57390000D03*
X256840000Y-57390000D03*
D13*
X216300000Y-67550000D03*
D14*
X218840000Y-67550000D03*
X216300000Y-65010000D03*
X218840000Y-65010000D03*
X216300000Y-62470000D03*
X218840000Y-62470000D03*
X216300000Y-59930000D03*
X218840000Y-59930000D03*
X216300000Y-57390000D03*
X218840000Y-57390000D03*
D15*
X252800000Y-53250000D03*
D16*
X243200000Y-53250000D03*
D17*
X250500000Y-60750000D03*
X248000000Y-60750000D03*
X245500000Y-60750000D03*
D18*
X256500000Y-98750000D03*
D19*
X255000000Y-149700000D03*
D20*
X255000000Y-140300000D03*
D21*
X250100000Y-145000000D03*
X258300000Y-145000000D03*
D15*
X252800000Y-125250000D03*
D22*
X243200000Y-125250000D03*
D17*
X250500000Y-132750000D03*
X248000000Y-132750000D03*
X245500000Y-132750000D03*
D19*
X241000000Y-140300000D03*
D20*
X241000000Y-149700000D03*
D21*
X245900000Y-145000000D03*
X237700000Y-145000000D03*
D18*
X201500000Y-53250000D03*
D15*
X214800000Y-53250000D03*
D16*
X205200000Y-53250000D03*
D17*
X212500000Y-60750000D03*
X210000000Y-60750000D03*
X207500000Y-60750000D03*
D23*
X194580000Y-58250000D03*
D24*
X197120000Y-58250000D03*
D25*
X194580000Y-48250000D03*
D24*
X197120000Y-48250000D03*
D25*
X194580000Y-53250000D03*
D24*
X197120000Y-53250000D03*
D26*
X185750000Y-53500000D03*
X185750000Y-58000000D03*
D27*
X192250000Y-53500000D03*
X192250000Y-58000000D03*
D19*
X189000000Y-120550000D03*
D20*
X189000000Y-129950000D03*
D21*
X193900000Y-125250000D03*
X185700000Y-125250000D03*
D18*
X193250000Y-137000000D03*
D19*
X189000000Y-140300000D03*
D20*
X189000000Y-149700000D03*
D21*
X193900000Y-145000000D03*
X185700000Y-145000000D03*
D19*
X203000000Y-140300000D03*
D20*
X203000000Y-149700000D03*
D21*
X207900000Y-145000000D03*
X199700000Y-145000000D03*
D19*
X227000000Y-72550000D03*
D20*
X227000000Y-81950000D03*
D21*
X231900000Y-77250000D03*
X223700000Y-77250000D03*
D15*
X252800000Y-101250000D03*
X243200000Y-101250000D03*
D17*
X250500000Y-108750000D03*
X248000000Y-108750000D03*
X245500000Y-108750000D03*
D23*
X232580000Y-63250000D03*
D24*
X235120000Y-63250000D03*
D19*
X227000000Y-96550000D03*
D20*
X227000000Y-105950000D03*
D21*
X231900000Y-101250000D03*
X223700000Y-101250000D03*
D18*
X225250000Y-93250000D03*
D22*
X252800000Y-77250000D03*
X243200000Y-77250000D03*
D17*
X250500000Y-84750000D03*
X248000000Y-84750000D03*
X245500000Y-84750000D03*
D26*
X223750000Y-53500000D03*
X223750000Y-58000000D03*
D27*
X230250000Y-53500000D03*
X230250000Y-58000000D03*
D25*
X232580000Y-48250000D03*
D24*
X235120000Y-48250000D03*
D23*
X232580000Y-58250000D03*
D24*
X235120000Y-58250000D03*
D18*
X239500000Y-53250000D03*
D25*
X232580000Y-53250000D03*
D24*
X235120000Y-53250000D03*
D18*
X231250000Y-137000000D03*
D19*
X227000000Y-140300000D03*
D20*
X227000000Y-149700000D03*
D21*
X231900000Y-145000000D03*
X223700000Y-145000000D03*
D15*
X214800000Y-125250000D03*
D22*
X205200000Y-125250000D03*
D17*
X212500000Y-132750000D03*
X210000000Y-132750000D03*
X207500000Y-132750000D03*
D19*
X217000000Y-149700000D03*
D20*
X217000000Y-140300000D03*
D21*
X212100000Y-145000000D03*
X220300000Y-145000000D03*
D19*
X227000000Y-120550000D03*
D20*
X227000000Y-129950000D03*
D21*
X231900000Y-125250000D03*
X223700000Y-125250000D03*
D22*
X214800000Y-77250000D03*
X205200000Y-77250000D03*
D17*
X212500000Y-84750000D03*
X210000000Y-84750000D03*
X207500000Y-84750000D03*
D19*
X189000000Y-96550000D03*
D20*
X189000000Y-105950000D03*
D21*
X193900000Y-101250000D03*
X185700000Y-101250000D03*
D15*
X214800000Y-101250000D03*
X205200000Y-101250000D03*
D17*
X212500000Y-108750000D03*
X210000000Y-108750000D03*
X207500000Y-108750000D03*
D23*
X194580000Y-63250000D03*
D24*
X197120000Y-63250000D03*
D18*
X187250000Y-93250000D03*
X218500000Y-98750000D03*
D19*
X189000000Y-72550000D03*
D20*
X189000000Y-81950000D03*
D21*
X193900000Y-77250000D03*
X185700000Y-77250000D03*
D13*
X178300000Y-67550000D03*
D14*
X180840000Y-67550000D03*
X178300000Y-65010000D03*
X180840000Y-65010000D03*
X178300000Y-62470000D03*
X180840000Y-62470000D03*
X178300000Y-59930000D03*
X180840000Y-59930000D03*
X178300000Y-57390000D03*
X180840000Y-57390000D03*
D13*
X140300000Y-67550000D03*
D14*
X142840000Y-67550000D03*
X140300000Y-65010000D03*
X142840000Y-65010000D03*
X140300000Y-62470000D03*
X142840000Y-62470000D03*
X140300000Y-59930000D03*
X142840000Y-59930000D03*
X140300000Y-57390000D03*
X142840000Y-57390000D03*
D15*
X176800000Y-53250000D03*
D16*
X167200000Y-53250000D03*
D17*
X174500000Y-60750000D03*
X172000000Y-60750000D03*
X169500000Y-60750000D03*
D18*
X180500000Y-98750000D03*
D19*
X179000000Y-149700000D03*
D20*
X179000000Y-140300000D03*
D21*
X174100000Y-145000000D03*
X182300000Y-145000000D03*
D15*
X176800000Y-125250000D03*
D22*
X167200000Y-125250000D03*
D17*
X174500000Y-132750000D03*
X172000000Y-132750000D03*
X169500000Y-132750000D03*
D19*
X165000000Y-140300000D03*
D20*
X165000000Y-149700000D03*
D21*
X169900000Y-145000000D03*
X161700000Y-145000000D03*
D18*
X125500000Y-53250000D03*
D15*
X138800000Y-53250000D03*
D16*
X129200000Y-53250000D03*
D17*
X136500000Y-60750000D03*
X134000000Y-60750000D03*
X131500000Y-60750000D03*
D23*
X118580000Y-58250000D03*
D24*
X121120000Y-58250000D03*
D25*
X118580000Y-48250000D03*
D24*
X121120000Y-48250000D03*
D25*
X118580000Y-53250000D03*
D24*
X121120000Y-53250000D03*
D26*
X109750000Y-53500000D03*
X109750000Y-58000000D03*
D27*
X116250000Y-53500000D03*
X116250000Y-58000000D03*
D19*
X113000000Y-120550000D03*
D20*
X113000000Y-129950000D03*
D21*
X117900000Y-125250000D03*
X109700000Y-125250000D03*
D18*
X117250000Y-137000000D03*
D19*
X113000000Y-140300000D03*
D20*
X113000000Y-149700000D03*
D21*
X117900000Y-145000000D03*
X109700000Y-145000000D03*
D19*
X127000000Y-140300000D03*
D20*
X127000000Y-149700000D03*
D21*
X131900000Y-145000000D03*
X123700000Y-145000000D03*
D19*
X151000000Y-72550000D03*
D20*
X151000000Y-81950000D03*
D21*
X155900000Y-77250000D03*
X147700000Y-77250000D03*
D15*
X176800000Y-101250000D03*
X167200000Y-101250000D03*
D17*
X174500000Y-108750000D03*
X172000000Y-108750000D03*
X169500000Y-108750000D03*
D23*
X156580000Y-63250000D03*
D24*
X159120000Y-63250000D03*
D19*
X151000000Y-96550000D03*
D20*
X151000000Y-105950000D03*
D21*
X155900000Y-101250000D03*
X147700000Y-101250000D03*
D18*
X149250000Y-93250000D03*
D22*
X176800000Y-77250000D03*
X167200000Y-77250000D03*
D17*
X174500000Y-84750000D03*
X172000000Y-84750000D03*
X169500000Y-84750000D03*
D26*
X147750000Y-53500000D03*
X147750000Y-58000000D03*
D27*
X154250000Y-53500000D03*
X154250000Y-58000000D03*
D25*
X156580000Y-48250000D03*
D24*
X159120000Y-48250000D03*
D23*
X156580000Y-58250000D03*
D24*
X159120000Y-58250000D03*
D18*
X163500000Y-53250000D03*
D25*
X156580000Y-53250000D03*
D24*
X159120000Y-53250000D03*
D18*
X155250000Y-137000000D03*
D19*
X151000000Y-140300000D03*
D20*
X151000000Y-149700000D03*
D21*
X155900000Y-145000000D03*
X147700000Y-145000000D03*
D15*
X138800000Y-125250000D03*
D22*
X129200000Y-125250000D03*
D17*
X136500000Y-132750000D03*
X134000000Y-132750000D03*
X131500000Y-132750000D03*
D19*
X141000000Y-149700000D03*
D20*
X141000000Y-140300000D03*
D21*
X136100000Y-145000000D03*
X144300000Y-145000000D03*
D19*
X151000000Y-120550000D03*
D20*
X151000000Y-129950000D03*
D21*
X155900000Y-125250000D03*
X147700000Y-125250000D03*
D22*
X138800000Y-77250000D03*
X129200000Y-77250000D03*
D17*
X136500000Y-84750000D03*
X134000000Y-84750000D03*
X131500000Y-84750000D03*
D19*
X113000000Y-96550000D03*
D20*
X113000000Y-105950000D03*
D21*
X117900000Y-101250000D03*
X109700000Y-101250000D03*
D15*
X138800000Y-101250000D03*
X129200000Y-101250000D03*
D17*
X136500000Y-108750000D03*
X134000000Y-108750000D03*
X131500000Y-108750000D03*
D23*
X118580000Y-63250000D03*
D24*
X121120000Y-63250000D03*
D18*
X111250000Y-93250000D03*
X142500000Y-98750000D03*
D19*
X113000000Y-72550000D03*
D20*
X113000000Y-81950000D03*
D21*
X117900000Y-77250000D03*
X109700000Y-77250000D03*
D13*
X102300000Y-67550000D03*
D14*
X104840000Y-67550000D03*
X102300000Y-65010000D03*
X104840000Y-65010000D03*
X102300000Y-62470000D03*
X104840000Y-62470000D03*
X102300000Y-59930000D03*
X104840000Y-59930000D03*
X102300000Y-57390000D03*
X104840000Y-57390000D03*
D15*
X100800000Y-53250000D03*
D16*
X91200000Y-53250000D03*
D17*
X98500000Y-60750000D03*
X96000000Y-60750000D03*
X93500000Y-60750000D03*
D15*
X100800000Y-125250000D03*
D22*
X91200000Y-125250000D03*
D17*
X98500000Y-132750000D03*
X96000000Y-132750000D03*
X93500000Y-132750000D03*
D19*
X103000000Y-149700000D03*
D20*
X103000000Y-140300000D03*
D21*
X98100000Y-145000000D03*
X106300000Y-145000000D03*
D15*
X100800000Y-101250000D03*
X91200000Y-101250000D03*
D17*
X98500000Y-108750000D03*
X96000000Y-108750000D03*
X93500000Y-108750000D03*
D22*
X100800000Y-77250000D03*
X91200000Y-77250000D03*
D17*
X98500000Y-84750000D03*
X96000000Y-84750000D03*
X93500000Y-84750000D03*
D19*
X75000000Y-72550000D03*
D20*
X75000000Y-81950000D03*
D21*
X79900000Y-77250000D03*
X71700000Y-77250000D03*
D18*
X104500000Y-98750000D03*
X73250000Y-93250000D03*
D19*
X75000000Y-96550000D03*
D20*
X75000000Y-105950000D03*
D21*
X79900000Y-101250000D03*
X71700000Y-101250000D03*
D23*
X80580000Y-63250000D03*
D24*
X83120000Y-63250000D03*
D18*
X87500000Y-53250000D03*
D26*
X71750000Y-53500000D03*
X71750000Y-58000000D03*
D27*
X78250000Y-53500000D03*
X78250000Y-58000000D03*
D25*
X80580000Y-53250000D03*
D24*
X83120000Y-53250000D03*
D25*
X80580000Y-48250000D03*
D24*
X83120000Y-48250000D03*
D23*
X80580000Y-58250000D03*
D24*
X83120000Y-58250000D03*
D18*
X79250000Y-137000000D03*
D19*
X75000000Y-140300000D03*
D20*
X75000000Y-149700000D03*
D21*
X79900000Y-145000000D03*
X71700000Y-145000000D03*
D19*
X75000000Y-120550000D03*
D20*
X75000000Y-129950000D03*
D21*
X79900000Y-125250000D03*
X71700000Y-125250000D03*
D19*
X89000000Y-140300000D03*
D20*
X89000000Y-149700000D03*
D21*
X93900000Y-145000000D03*
X85700000Y-145000000D03*
D28*
X35000000Y-155000000D03*
X257000000Y-155000000D03*
X257000000Y-43000000D03*
X35000000Y-43000000D03*
D18*
X66500000Y-98750000D03*
X41250000Y-137000000D03*
X35250000Y-93250000D03*
D25*
X42580000Y-48250000D03*
D24*
X45120000Y-48250000D03*
D25*
X42580000Y-53250000D03*
D24*
X45120000Y-53250000D03*
D23*
X42580000Y-58250000D03*
D24*
X45120000Y-58250000D03*
D23*
X42580000Y-63250000D03*
D24*
X45120000Y-63250000D03*
D19*
X37000000Y-72550000D03*
D20*
X37000000Y-81950000D03*
D21*
X41900000Y-77250000D03*
X33700000Y-77250000D03*
D19*
X37000000Y-96550000D03*
D20*
X37000000Y-105950000D03*
D21*
X41900000Y-101250000D03*
X33700000Y-101250000D03*
D19*
X51000000Y-140300000D03*
D20*
X51000000Y-149700000D03*
D21*
X55900000Y-145000000D03*
X47700000Y-145000000D03*
D19*
X37000000Y-120550000D03*
D20*
X37000000Y-129950000D03*
D21*
X41900000Y-125250000D03*
X33700000Y-125250000D03*
D19*
X37000000Y-140300000D03*
D20*
X37000000Y-149700000D03*
D21*
X41900000Y-145000000D03*
X33700000Y-145000000D03*
D19*
X65000000Y-149700000D03*
D20*
X65000000Y-140300000D03*
D21*
X60100000Y-145000000D03*
X68300000Y-145000000D03*
D13*
X64300000Y-67550000D03*
D14*
X66840000Y-67550000D03*
X64300000Y-65010000D03*
X66840000Y-65010000D03*
X64300000Y-62470000D03*
X66840000Y-62470000D03*
X64300000Y-59930000D03*
X66840000Y-59930000D03*
X64300000Y-57390000D03*
X66840000Y-57390000D03*
D26*
X33750000Y-53500000D03*
X33750000Y-58000000D03*
D27*
X40250000Y-53500000D03*
X40250000Y-58000000D03*
D18*
X49500000Y-53250000D03*
D15*
X62800000Y-125250000D03*
D22*
X53200000Y-125250000D03*
D17*
X60500000Y-132750000D03*
X58000000Y-132750000D03*
X55500000Y-132750000D03*
D15*
X62800000Y-101250000D03*
X53200000Y-101250000D03*
D17*
X60500000Y-108750000D03*
X58000000Y-108750000D03*
X55500000Y-108750000D03*
D22*
X62800000Y-77250000D03*
X53200000Y-77250000D03*
D17*
X60500000Y-84750000D03*
X58000000Y-84750000D03*
X55500000Y-84750000D03*
D15*
X62800000Y-53250000D03*
D16*
X53200000Y-53250000D03*
D17*
X60500000Y-60750000D03*
X58000000Y-60750000D03*
X55500000Y-60750000D03*
M02*
