G04 #@! TF.FileFunction,Paste,Bot*
%FSLAX46Y46*%
G04 Gerber Fmt 4.6, Leading zero omitted, Abs format (unit mm)*
G04 Created by KiCad (PCBNEW 4.0.2-stable) date 2019-08-20 11:57:39 AM*
%MOMM*%
G01*
G04 APERTURE LIST*
%ADD10C,0.200000*%
%ADD11R,0.900000X0.800000*%
%ADD12R,0.609600X0.762000*%
%ADD13R,0.400000X1.300480*%
%ADD14R,1.397000X1.143000*%
%ADD15R,1.060000X0.650000*%
%ADD16R,0.800000X0.500000*%
%ADD17R,0.701040X1.000760*%
%ADD18R,1.143000X1.397000*%
%ADD19R,2.199640X0.599440*%
%ADD20R,1.300480X0.400000*%
%ADD21R,1.000760X0.701040*%
%ADD22R,1.600200X2.999740*%
%ADD23R,0.762000X0.609600*%
%ADD24O,1.000000X1.000000*%
%ADD25R,2.397760X2.397760*%
%ADD26R,2.999740X1.600200*%
%ADD27R,1.600000X1.500000*%
%ADD28R,1.200000X1.200000*%
%ADD29R,0.800000X0.900000*%
%ADD30R,1.500000X0.450000*%
%ADD31R,1.450000X0.450000*%
G04 APERTURE END LIST*
D10*
D11*
X219240000Y-94100000D03*
X217540000Y-94100000D03*
X217540000Y-92350000D03*
X219240000Y-92350000D03*
D12*
X216645400Y-90600000D03*
X219134600Y-90600000D03*
D11*
X220140000Y-84200000D03*
X220140000Y-82500000D03*
D13*
X216434600Y-82406000D03*
X217069600Y-82406000D03*
X217730000Y-82406000D03*
X218365000Y-82406000D03*
X218365000Y-87994000D03*
X217717300Y-87994000D03*
X217069600Y-87994000D03*
X216421900Y-87994000D03*
D11*
X226040000Y-86850000D03*
X227740000Y-86850000D03*
X226540000Y-78850000D03*
X228240000Y-78850000D03*
X226540000Y-77100000D03*
X228240000Y-77100000D03*
X219040000Y-80100000D03*
X220740000Y-80100000D03*
X220140000Y-85500000D03*
X220140000Y-87200000D03*
D12*
X225895400Y-75100000D03*
X228384600Y-75100000D03*
D11*
X212640000Y-81700000D03*
X212640000Y-80000000D03*
X211790000Y-86850000D03*
X213490000Y-86850000D03*
X210140000Y-81700000D03*
X210140000Y-80000000D03*
X214390000Y-81700000D03*
X214390000Y-80000000D03*
X216040000Y-80100000D03*
X217740000Y-80100000D03*
X217250000Y-78450000D03*
X218950000Y-78450000D03*
X204140000Y-81700000D03*
X204140000Y-80000000D03*
X208390000Y-81700000D03*
X208390000Y-80000000D03*
X188040000Y-86850000D03*
X189740000Y-86850000D03*
X188540000Y-78850000D03*
X190240000Y-78850000D03*
D12*
X187895400Y-75100000D03*
X190384600Y-75100000D03*
D11*
X188540000Y-77100000D03*
X190240000Y-77100000D03*
D14*
X193390000Y-80520500D03*
X193390000Y-82679500D03*
D11*
X192490000Y-86850000D03*
X190790000Y-86850000D03*
X204140000Y-86950000D03*
X204140000Y-85250000D03*
X205640000Y-86950000D03*
X205640000Y-85250000D03*
X196790000Y-85850000D03*
X198490000Y-85850000D03*
X201740000Y-85850000D03*
X200040000Y-85850000D03*
X195040000Y-80600000D03*
X196740000Y-80600000D03*
X195040000Y-84100000D03*
X196740000Y-84100000D03*
X195040000Y-82350000D03*
X196740000Y-82350000D03*
X196140000Y-78700000D03*
X196140000Y-77000000D03*
D15*
X200240000Y-75900000D03*
X200240000Y-76850000D03*
X200240000Y-77800000D03*
X198040000Y-77800000D03*
X198040000Y-75900000D03*
D11*
X199990000Y-79100000D03*
X198290000Y-79100000D03*
D16*
X200140000Y-81700000D03*
X198140000Y-82350000D03*
X200140000Y-83000000D03*
X200140000Y-82350000D03*
X198140000Y-83000000D03*
X198140000Y-81700000D03*
D17*
X192890000Y-130330000D03*
X191937500Y-132870000D03*
X193842500Y-132870000D03*
D11*
X197490000Y-134600000D03*
X195790000Y-134600000D03*
D18*
X193219500Y-128350000D03*
X191060500Y-128350000D03*
D11*
X195790000Y-132850000D03*
X197490000Y-132850000D03*
X204040000Y-113600000D03*
X205740000Y-113600000D03*
X204390000Y-116950000D03*
X204390000Y-115250000D03*
X207890000Y-115250000D03*
X207890000Y-116950000D03*
X206140000Y-116950000D03*
X206140000Y-115250000D03*
X218390000Y-123200000D03*
X218390000Y-121500000D03*
X220140000Y-123200000D03*
X220140000Y-121500000D03*
X218390000Y-118000000D03*
X218390000Y-119700000D03*
D19*
X215738420Y-112905000D03*
X215738420Y-114175000D03*
X215738420Y-115445000D03*
X215738420Y-116715000D03*
X215738420Y-117985000D03*
X215738420Y-119255000D03*
X215738420Y-120525000D03*
X215738420Y-121795000D03*
X210541580Y-121795000D03*
X210541580Y-120525000D03*
X210541580Y-119255000D03*
X210541580Y-117985000D03*
X210541580Y-116715000D03*
X210541580Y-115445000D03*
X210541580Y-114175000D03*
X210541580Y-112905000D03*
D11*
X220140000Y-113500000D03*
X220140000Y-115200000D03*
X220140000Y-119700000D03*
X220140000Y-118000000D03*
X218390000Y-115200000D03*
X218390000Y-113500000D03*
X196540000Y-120600000D03*
X198240000Y-120600000D03*
D20*
X196446000Y-117055400D03*
X196446000Y-116420400D03*
X196446000Y-115760000D03*
X196446000Y-115125000D03*
X202034000Y-115125000D03*
X202034000Y-115772700D03*
X202034000Y-116420400D03*
X202034000Y-117068100D03*
D11*
X201740000Y-120600000D03*
X200040000Y-120600000D03*
X201040000Y-118600000D03*
X202740000Y-118600000D03*
X194140000Y-115200000D03*
X194140000Y-113500000D03*
X194140000Y-118450000D03*
X194140000Y-116750000D03*
X190640000Y-118200000D03*
X190640000Y-116500000D03*
X194140000Y-121450000D03*
X194140000Y-119750000D03*
X190640000Y-115200000D03*
X190640000Y-113500000D03*
D19*
X201738420Y-122405000D03*
X201738420Y-123675000D03*
X201738420Y-124945000D03*
X201738420Y-126215000D03*
X201738420Y-127485000D03*
X201738420Y-128755000D03*
X201738420Y-130025000D03*
X201738420Y-131295000D03*
X196541580Y-131295000D03*
X196541580Y-130025000D03*
X196541580Y-128755000D03*
X196541580Y-127485000D03*
X196541580Y-126215000D03*
X196541580Y-124945000D03*
X196541580Y-123675000D03*
X196541580Y-122405000D03*
D17*
X204640000Y-130580000D03*
X203687500Y-133120000D03*
X205592500Y-133120000D03*
D11*
X211890000Y-127250000D03*
X211890000Y-128950000D03*
D18*
X205060500Y-128600000D03*
X207219500Y-128600000D03*
D11*
X200290000Y-134600000D03*
X201990000Y-134600000D03*
X201990000Y-132850000D03*
X200290000Y-132850000D03*
X210140000Y-125950000D03*
X210140000Y-124250000D03*
X207240000Y-88600000D03*
X205540000Y-88600000D03*
D21*
X205370000Y-93100000D03*
X207910000Y-94052500D03*
X207910000Y-92147500D03*
D18*
X205560500Y-90600000D03*
X207719500Y-90600000D03*
D11*
X205490000Y-97850000D03*
X203790000Y-97850000D03*
X215890000Y-93950000D03*
X215890000Y-92250000D03*
X214390000Y-92250000D03*
X214390000Y-93950000D03*
X215240000Y-90600000D03*
X213540000Y-90600000D03*
D15*
X211740000Y-92150000D03*
X211740000Y-93100000D03*
X211740000Y-94050000D03*
X209540000Y-94050000D03*
X209540000Y-92150000D03*
D11*
X209640000Y-95750000D03*
X209640000Y-97450000D03*
D16*
X213890000Y-95700000D03*
X211890000Y-96350000D03*
X213890000Y-97000000D03*
X213890000Y-96350000D03*
X211890000Y-97000000D03*
X211890000Y-95700000D03*
D22*
X209890000Y-104549640D03*
X209890000Y-100150360D03*
D11*
X204050000Y-111050000D03*
X205750000Y-111050000D03*
D19*
X196541580Y-113545000D03*
X196541580Y-112275000D03*
X196541580Y-111005000D03*
X196541580Y-109735000D03*
X196541580Y-108465000D03*
X196541580Y-107195000D03*
X196541580Y-105925000D03*
X196541580Y-104655000D03*
X201738420Y-104655000D03*
X201738420Y-105925000D03*
X201738420Y-107195000D03*
X201738420Y-108465000D03*
X201738420Y-109735000D03*
X201738420Y-111005000D03*
X201738420Y-112275000D03*
X201738420Y-113545000D03*
D11*
X204040000Y-109350000D03*
X205740000Y-109350000D03*
X204040000Y-105850000D03*
X205740000Y-105850000D03*
X204040000Y-107600000D03*
X205740000Y-107600000D03*
D18*
X192719500Y-90600000D03*
X190560500Y-90600000D03*
D11*
X190790000Y-88600000D03*
X192490000Y-88600000D03*
D21*
X192910000Y-93100000D03*
X190370000Y-92147500D03*
X190370000Y-94052500D03*
D19*
X201738420Y-87655000D03*
X201738420Y-88925000D03*
X201738420Y-90195000D03*
X201738420Y-91465000D03*
X201738420Y-92735000D03*
X201738420Y-94005000D03*
X201738420Y-95275000D03*
X201738420Y-96545000D03*
X196541580Y-96545000D03*
X196541580Y-95275000D03*
X196541580Y-94005000D03*
X196541580Y-92735000D03*
X196541580Y-91465000D03*
X196541580Y-90195000D03*
X196541580Y-88925000D03*
X196541580Y-87655000D03*
D11*
X194740000Y-97850000D03*
X193040000Y-97850000D03*
D23*
X188890000Y-112855400D03*
X188890000Y-115344600D03*
D11*
X187290000Y-111100000D03*
X188990000Y-111100000D03*
D23*
X187190000Y-115344600D03*
X187190000Y-112855400D03*
D11*
X192390000Y-112200000D03*
X192390000Y-110500000D03*
X225290000Y-111100000D03*
X226990000Y-111100000D03*
D23*
X226890000Y-112855400D03*
X226890000Y-115344600D03*
D11*
X228640000Y-115200000D03*
X228640000Y-113500000D03*
X228640000Y-118200000D03*
X228640000Y-116500000D03*
D23*
X225190000Y-115344600D03*
X225190000Y-112855400D03*
D11*
X211240000Y-136350000D03*
X209540000Y-136350000D03*
X211240000Y-134850000D03*
X209540000Y-134850000D03*
X214640000Y-139700000D03*
X214640000Y-138000000D03*
D20*
X206446000Y-139805400D03*
X206446000Y-139170400D03*
X206446000Y-138510000D03*
X206446000Y-137875000D03*
X212034000Y-137875000D03*
X212034000Y-138522700D03*
X212034000Y-139170400D03*
X212034000Y-139818100D03*
D11*
X214890000Y-111200000D03*
X214890000Y-109500000D03*
X216640000Y-111200000D03*
X216640000Y-109500000D03*
X206140000Y-120450000D03*
X206140000Y-118750000D03*
X204390000Y-118750000D03*
X204390000Y-120450000D03*
X208390000Y-124250000D03*
X208390000Y-125950000D03*
X204490000Y-138100000D03*
X202790000Y-138100000D03*
X204490000Y-136350000D03*
X202790000Y-136350000D03*
X212240000Y-141350000D03*
X210540000Y-141350000D03*
X206390000Y-134750000D03*
X206390000Y-136450000D03*
X214140000Y-145700000D03*
X214140000Y-144000000D03*
X217040000Y-136600000D03*
X218740000Y-136600000D03*
D24*
X220250000Y-148250000D03*
D11*
X218740000Y-134850000D03*
X217040000Y-134850000D03*
X215740000Y-134850000D03*
X214040000Y-134850000D03*
D18*
X255810500Y-53850000D03*
X257969500Y-53850000D03*
X252820500Y-70550000D03*
X254979500Y-70550000D03*
D25*
X253500360Y-73650000D03*
X257899640Y-73650000D03*
D11*
X254040000Y-80100000D03*
X255740000Y-80100000D03*
X257040000Y-80100000D03*
X258740000Y-80100000D03*
D25*
X258089640Y-49350000D03*
X253690360Y-49350000D03*
D11*
X245290000Y-67350000D03*
X246990000Y-67350000D03*
D26*
X245690360Y-56600000D03*
X250089640Y-56600000D03*
D11*
X245890000Y-65700000D03*
X245890000Y-64000000D03*
D26*
X250089640Y-49350000D03*
X245690360Y-49350000D03*
D11*
X240990000Y-67350000D03*
X239290000Y-67350000D03*
D27*
X241140000Y-63550000D03*
D28*
X240140000Y-60300000D03*
X242140000Y-60300000D03*
D11*
X244140000Y-65700000D03*
X244140000Y-64000000D03*
X236540000Y-57100000D03*
X238240000Y-57100000D03*
D29*
X236700000Y-55200000D03*
X236700000Y-53500000D03*
D11*
X235240000Y-55350000D03*
X233540000Y-55350000D03*
X234240000Y-50350000D03*
X232540000Y-50350000D03*
D30*
X229840000Y-47325000D03*
X229840000Y-47975000D03*
X229840000Y-48625000D03*
X229840000Y-49275000D03*
X229840000Y-49925000D03*
X229840000Y-50575000D03*
X229840000Y-51225000D03*
X229840000Y-51875000D03*
X223940000Y-51875000D03*
X223940000Y-51225000D03*
X223940000Y-50575000D03*
X223940000Y-49925000D03*
X223940000Y-49275000D03*
X223940000Y-48625000D03*
X223940000Y-47975000D03*
X223940000Y-47325000D03*
D24*
X223750000Y-55750000D03*
D30*
X229840000Y-59825000D03*
X229840000Y-60475000D03*
X229840000Y-61125000D03*
X229840000Y-61775000D03*
X229840000Y-62425000D03*
X229840000Y-63075000D03*
X229840000Y-63725000D03*
X229840000Y-64375000D03*
X223940000Y-64375000D03*
X223940000Y-63725000D03*
X223940000Y-63075000D03*
X223940000Y-62425000D03*
X223940000Y-61775000D03*
X223940000Y-61125000D03*
X223940000Y-60475000D03*
X223940000Y-59825000D03*
D31*
X229840000Y-66150000D03*
X229840000Y-66800000D03*
X229840000Y-67450000D03*
X229840000Y-68100000D03*
X229840000Y-68750000D03*
X229840000Y-69400000D03*
X229840000Y-70050000D03*
X223940000Y-70050000D03*
X223940000Y-69400000D03*
X223940000Y-68750000D03*
X223940000Y-68100000D03*
X223940000Y-67450000D03*
X223940000Y-66800000D03*
X223940000Y-66150000D03*
D11*
X223640000Y-71750000D03*
X223640000Y-73450000D03*
X233890000Y-70950000D03*
X233890000Y-69250000D03*
X235640000Y-69250000D03*
X235640000Y-70950000D03*
D20*
X243584000Y-69144600D03*
X243584000Y-69779600D03*
X243584000Y-70440000D03*
X243584000Y-71075000D03*
X237996000Y-71075000D03*
X237996000Y-70427300D03*
X237996000Y-69779600D03*
X237996000Y-69131900D03*
D11*
X235640000Y-67950000D03*
X235640000Y-66250000D03*
X243990000Y-67350000D03*
X242290000Y-67350000D03*
X245240000Y-72600000D03*
X243540000Y-72600000D03*
X242050000Y-111050000D03*
X243750000Y-111050000D03*
X242040000Y-105850000D03*
X243740000Y-105850000D03*
X242040000Y-113600000D03*
X243740000Y-113600000D03*
X242040000Y-109350000D03*
X243740000Y-109350000D03*
D22*
X247890000Y-104549640D03*
X247890000Y-100150360D03*
D11*
X242040000Y-107600000D03*
X243740000Y-107600000D03*
X245890000Y-115250000D03*
X245890000Y-116950000D03*
X242390000Y-116950000D03*
X242390000Y-115250000D03*
X242390000Y-118750000D03*
X242390000Y-120450000D03*
X244140000Y-116950000D03*
X244140000Y-115250000D03*
X244140000Y-120450000D03*
X244140000Y-118750000D03*
X233790000Y-132850000D03*
X235490000Y-132850000D03*
D18*
X231219500Y-128350000D03*
X229060500Y-128350000D03*
D17*
X230890000Y-130330000D03*
X229937500Y-132870000D03*
X231842500Y-132870000D03*
D11*
X235490000Y-134600000D03*
X233790000Y-134600000D03*
X239990000Y-132850000D03*
X238290000Y-132850000D03*
X238290000Y-134600000D03*
X239990000Y-134600000D03*
D19*
X239738420Y-122405000D03*
X239738420Y-123675000D03*
X239738420Y-124945000D03*
X239738420Y-126215000D03*
X239738420Y-127485000D03*
X239738420Y-128755000D03*
X239738420Y-130025000D03*
X239738420Y-131295000D03*
X234541580Y-131295000D03*
X234541580Y-130025000D03*
X234541580Y-128755000D03*
X234541580Y-127485000D03*
X234541580Y-126215000D03*
X234541580Y-124945000D03*
X234541580Y-123675000D03*
X234541580Y-122405000D03*
D11*
X230390000Y-112200000D03*
X230390000Y-110500000D03*
D19*
X234541580Y-113545000D03*
X234541580Y-112275000D03*
X234541580Y-111005000D03*
X234541580Y-109735000D03*
X234541580Y-108465000D03*
X234541580Y-107195000D03*
X234541580Y-105925000D03*
X234541580Y-104655000D03*
X239738420Y-104655000D03*
X239738420Y-105925000D03*
X239738420Y-107195000D03*
X239738420Y-108465000D03*
X239738420Y-109735000D03*
X239738420Y-111005000D03*
X239738420Y-112275000D03*
X239738420Y-113545000D03*
D11*
X232140000Y-115200000D03*
X232140000Y-113500000D03*
X232140000Y-118450000D03*
X232140000Y-116750000D03*
X239040000Y-118600000D03*
X240740000Y-118600000D03*
X232140000Y-121450000D03*
X232140000Y-119750000D03*
X239740000Y-120600000D03*
X238040000Y-120600000D03*
D20*
X234446000Y-117055400D03*
X234446000Y-116420400D03*
X234446000Y-115760000D03*
X234446000Y-115125000D03*
X240034000Y-115125000D03*
X240034000Y-115772700D03*
X240034000Y-116420400D03*
X240034000Y-117068100D03*
D11*
X234540000Y-120600000D03*
X236240000Y-120600000D03*
X255250000Y-78450000D03*
X256950000Y-78450000D03*
X252390000Y-81700000D03*
X252390000Y-80000000D03*
X258140000Y-85500000D03*
X258140000Y-87200000D03*
X258140000Y-84200000D03*
X258140000Y-82500000D03*
D13*
X254434600Y-82406000D03*
X255069600Y-82406000D03*
X255730000Y-82406000D03*
X256365000Y-82406000D03*
X256365000Y-87994000D03*
X255717300Y-87994000D03*
X255069600Y-87994000D03*
X254421900Y-87994000D03*
D12*
X254645400Y-90600000D03*
X257134600Y-90600000D03*
D11*
X253240000Y-90600000D03*
X251540000Y-90600000D03*
X257240000Y-94100000D03*
X255540000Y-94100000D03*
X253890000Y-93950000D03*
X253890000Y-92250000D03*
X255540000Y-92350000D03*
X257240000Y-92350000D03*
X252390000Y-92250000D03*
X252390000Y-93950000D03*
X237040000Y-72600000D03*
X238740000Y-72600000D03*
X234140000Y-78700000D03*
X234140000Y-77000000D03*
D15*
X238240000Y-75900000D03*
X238240000Y-76850000D03*
X238240000Y-77800000D03*
X236040000Y-77800000D03*
X236040000Y-75900000D03*
D11*
X240040000Y-72600000D03*
X241740000Y-72600000D03*
X237990000Y-79100000D03*
X236290000Y-79100000D03*
X248140000Y-81700000D03*
X248140000Y-80000000D03*
X246390000Y-81700000D03*
X246390000Y-80000000D03*
X250640000Y-81700000D03*
X250640000Y-80000000D03*
X240040000Y-74600000D03*
X241740000Y-74600000D03*
D27*
X248140000Y-78050000D03*
D28*
X247140000Y-74800000D03*
X249140000Y-74800000D03*
D11*
X233040000Y-84100000D03*
X234740000Y-84100000D03*
X233040000Y-82350000D03*
X234740000Y-82350000D03*
D14*
X231390000Y-80520500D03*
X231390000Y-82679500D03*
D11*
X233040000Y-80600000D03*
X234740000Y-80600000D03*
X249790000Y-86850000D03*
X251490000Y-86850000D03*
D21*
X243370000Y-93100000D03*
X245910000Y-94052500D03*
X245910000Y-92147500D03*
D11*
X245240000Y-88600000D03*
X243540000Y-88600000D03*
D16*
X251890000Y-95700000D03*
X249890000Y-96350000D03*
X251890000Y-97000000D03*
X251890000Y-96350000D03*
X249890000Y-97000000D03*
X249890000Y-95700000D03*
D15*
X249740000Y-92150000D03*
X249740000Y-93100000D03*
X249740000Y-94050000D03*
X247540000Y-94050000D03*
X247540000Y-92150000D03*
D11*
X247640000Y-95750000D03*
X247640000Y-97450000D03*
D18*
X243560500Y-90600000D03*
X245719500Y-90600000D03*
D11*
X243490000Y-97850000D03*
X241790000Y-97850000D03*
X242140000Y-81700000D03*
X242140000Y-80000000D03*
X243640000Y-86950000D03*
X243640000Y-85250000D03*
X242140000Y-86950000D03*
X242140000Y-85250000D03*
X239740000Y-85850000D03*
X238040000Y-85850000D03*
D16*
X238140000Y-81700000D03*
X236140000Y-82350000D03*
X238140000Y-83000000D03*
X238140000Y-82350000D03*
X236140000Y-83000000D03*
X236140000Y-81700000D03*
D11*
X234790000Y-85850000D03*
X236490000Y-85850000D03*
D21*
X230910000Y-93100000D03*
X228370000Y-92147500D03*
X228370000Y-94052500D03*
D19*
X239738420Y-87655000D03*
X239738420Y-88925000D03*
X239738420Y-90195000D03*
X239738420Y-91465000D03*
X239738420Y-92735000D03*
X239738420Y-94005000D03*
X239738420Y-95275000D03*
X239738420Y-96545000D03*
X234541580Y-96545000D03*
X234541580Y-95275000D03*
X234541580Y-94005000D03*
X234541580Y-92735000D03*
X234541580Y-91465000D03*
X234541580Y-90195000D03*
X234541580Y-88925000D03*
X234541580Y-87655000D03*
D18*
X230719500Y-90600000D03*
X228560500Y-90600000D03*
D11*
X228790000Y-88600000D03*
X230490000Y-88600000D03*
X230490000Y-86850000D03*
X228790000Y-86850000D03*
X232740000Y-97850000D03*
X231040000Y-97850000D03*
X254640000Y-111200000D03*
X254640000Y-109500000D03*
D19*
X253738420Y-112905000D03*
X253738420Y-114175000D03*
X253738420Y-115445000D03*
X253738420Y-116715000D03*
X253738420Y-117985000D03*
X253738420Y-119255000D03*
X253738420Y-120525000D03*
X253738420Y-121795000D03*
X248541580Y-121795000D03*
X248541580Y-120525000D03*
X248541580Y-119255000D03*
X248541580Y-117985000D03*
X248541580Y-116715000D03*
X248541580Y-115445000D03*
X248541580Y-114175000D03*
X248541580Y-112905000D03*
D11*
X256390000Y-115200000D03*
X256390000Y-113500000D03*
X248140000Y-125950000D03*
X248140000Y-124250000D03*
X246390000Y-124250000D03*
X246390000Y-125950000D03*
X252890000Y-111200000D03*
X252890000Y-109500000D03*
X258140000Y-113500000D03*
X258140000Y-115200000D03*
X244390000Y-134750000D03*
X244390000Y-136450000D03*
X242490000Y-136350000D03*
X240790000Y-136350000D03*
D18*
X243060500Y-128600000D03*
X245219500Y-128600000D03*
D17*
X242640000Y-130580000D03*
X241687500Y-133120000D03*
X243592500Y-133120000D03*
D11*
X258140000Y-123200000D03*
X258140000Y-121500000D03*
X256390000Y-118000000D03*
X256390000Y-119700000D03*
X258140000Y-119700000D03*
X258140000Y-118000000D03*
X256390000Y-123200000D03*
X256390000Y-121500000D03*
X249890000Y-127250000D03*
X249890000Y-128950000D03*
X242490000Y-138100000D03*
X240790000Y-138100000D03*
X252640000Y-139700000D03*
X252640000Y-138000000D03*
D24*
X258250000Y-148250000D03*
D11*
X252140000Y-145700000D03*
X252140000Y-144000000D03*
D20*
X244446000Y-139805400D03*
X244446000Y-139170400D03*
X244446000Y-138510000D03*
X244446000Y-137875000D03*
X250034000Y-137875000D03*
X250034000Y-138522700D03*
X250034000Y-139170400D03*
X250034000Y-139818100D03*
D11*
X250240000Y-141350000D03*
X248540000Y-141350000D03*
X249240000Y-136350000D03*
X247540000Y-136350000D03*
X249240000Y-134850000D03*
X247540000Y-134850000D03*
X253740000Y-134850000D03*
X252040000Y-134850000D03*
X256740000Y-134850000D03*
X255040000Y-134850000D03*
X255040000Y-136600000D03*
X256740000Y-136600000D03*
D25*
X220089640Y-49350000D03*
X215690360Y-49350000D03*
D11*
X207890000Y-65700000D03*
X207890000Y-64000000D03*
D26*
X207690360Y-56600000D03*
X212089640Y-56600000D03*
D11*
X207290000Y-67350000D03*
X208990000Y-67350000D03*
D26*
X212089640Y-49350000D03*
X207690360Y-49350000D03*
D18*
X217810500Y-53850000D03*
X219969500Y-53850000D03*
D25*
X215500360Y-73650000D03*
X219899640Y-73650000D03*
D18*
X214820500Y-70550000D03*
X216979500Y-70550000D03*
D27*
X210140000Y-78050000D03*
D28*
X209140000Y-74800000D03*
X211140000Y-74800000D03*
D11*
X207240000Y-72600000D03*
X205540000Y-72600000D03*
X202040000Y-74600000D03*
X203740000Y-74600000D03*
X199040000Y-72600000D03*
X200740000Y-72600000D03*
X202040000Y-72600000D03*
X203740000Y-72600000D03*
D29*
X198700000Y-55200000D03*
X198700000Y-53500000D03*
D24*
X185750000Y-55750000D03*
D30*
X191840000Y-47325000D03*
X191840000Y-47975000D03*
X191840000Y-48625000D03*
X191840000Y-49275000D03*
X191840000Y-49925000D03*
X191840000Y-50575000D03*
X191840000Y-51225000D03*
X191840000Y-51875000D03*
X185940000Y-51875000D03*
X185940000Y-51225000D03*
X185940000Y-50575000D03*
X185940000Y-49925000D03*
X185940000Y-49275000D03*
X185940000Y-48625000D03*
X185940000Y-47975000D03*
X185940000Y-47325000D03*
D11*
X196240000Y-50350000D03*
X194540000Y-50350000D03*
X197240000Y-55350000D03*
X195540000Y-55350000D03*
D30*
X191840000Y-59825000D03*
X191840000Y-60475000D03*
X191840000Y-61125000D03*
X191840000Y-61775000D03*
X191840000Y-62425000D03*
X191840000Y-63075000D03*
X191840000Y-63725000D03*
X191840000Y-64375000D03*
X185940000Y-64375000D03*
X185940000Y-63725000D03*
X185940000Y-63075000D03*
X185940000Y-62425000D03*
X185940000Y-61775000D03*
X185940000Y-61125000D03*
X185940000Y-60475000D03*
X185940000Y-59825000D03*
D31*
X191840000Y-66150000D03*
X191840000Y-66800000D03*
X191840000Y-67450000D03*
X191840000Y-68100000D03*
X191840000Y-68750000D03*
X191840000Y-69400000D03*
X191840000Y-70050000D03*
X185940000Y-70050000D03*
X185940000Y-69400000D03*
X185940000Y-68750000D03*
X185940000Y-68100000D03*
X185940000Y-67450000D03*
X185940000Y-66800000D03*
X185940000Y-66150000D03*
D11*
X197640000Y-67950000D03*
X197640000Y-66250000D03*
X195890000Y-70950000D03*
X195890000Y-69250000D03*
X185640000Y-71750000D03*
X185640000Y-73450000D03*
X197640000Y-69250000D03*
X197640000Y-70950000D03*
X198540000Y-57100000D03*
X200240000Y-57100000D03*
X206140000Y-65700000D03*
X206140000Y-64000000D03*
D27*
X203140000Y-63550000D03*
D28*
X202140000Y-60300000D03*
X204140000Y-60300000D03*
D11*
X205990000Y-67350000D03*
X204290000Y-67350000D03*
D20*
X205584000Y-69144600D03*
X205584000Y-69779600D03*
X205584000Y-70440000D03*
X205584000Y-71075000D03*
X199996000Y-71075000D03*
X199996000Y-70427300D03*
X199996000Y-69779600D03*
X199996000Y-69131900D03*
D11*
X202990000Y-67350000D03*
X201290000Y-67350000D03*
X143240000Y-94100000D03*
X141540000Y-94100000D03*
X141540000Y-92350000D03*
X143240000Y-92350000D03*
D12*
X140645400Y-90600000D03*
X143134600Y-90600000D03*
D11*
X144140000Y-84200000D03*
X144140000Y-82500000D03*
D13*
X140434600Y-82406000D03*
X141069600Y-82406000D03*
X141730000Y-82406000D03*
X142365000Y-82406000D03*
X142365000Y-87994000D03*
X141717300Y-87994000D03*
X141069600Y-87994000D03*
X140421900Y-87994000D03*
D11*
X150040000Y-86850000D03*
X151740000Y-86850000D03*
X150540000Y-78850000D03*
X152240000Y-78850000D03*
X150540000Y-77100000D03*
X152240000Y-77100000D03*
X143040000Y-80100000D03*
X144740000Y-80100000D03*
X144140000Y-85500000D03*
X144140000Y-87200000D03*
D12*
X149895400Y-75100000D03*
X152384600Y-75100000D03*
D11*
X136640000Y-81700000D03*
X136640000Y-80000000D03*
X135790000Y-86850000D03*
X137490000Y-86850000D03*
X134140000Y-81700000D03*
X134140000Y-80000000D03*
X138390000Y-81700000D03*
X138390000Y-80000000D03*
X140040000Y-80100000D03*
X141740000Y-80100000D03*
X141250000Y-78450000D03*
X142950000Y-78450000D03*
X128140000Y-81700000D03*
X128140000Y-80000000D03*
X132390000Y-81700000D03*
X132390000Y-80000000D03*
X112040000Y-86850000D03*
X113740000Y-86850000D03*
X112540000Y-78850000D03*
X114240000Y-78850000D03*
D12*
X111895400Y-75100000D03*
X114384600Y-75100000D03*
D11*
X112540000Y-77100000D03*
X114240000Y-77100000D03*
D14*
X117390000Y-80520500D03*
X117390000Y-82679500D03*
D11*
X116490000Y-86850000D03*
X114790000Y-86850000D03*
X128140000Y-86950000D03*
X128140000Y-85250000D03*
X129640000Y-86950000D03*
X129640000Y-85250000D03*
X120790000Y-85850000D03*
X122490000Y-85850000D03*
X125740000Y-85850000D03*
X124040000Y-85850000D03*
X119040000Y-80600000D03*
X120740000Y-80600000D03*
X119040000Y-84100000D03*
X120740000Y-84100000D03*
X119040000Y-82350000D03*
X120740000Y-82350000D03*
X120140000Y-78700000D03*
X120140000Y-77000000D03*
D15*
X124240000Y-75900000D03*
X124240000Y-76850000D03*
X124240000Y-77800000D03*
X122040000Y-77800000D03*
X122040000Y-75900000D03*
D11*
X123990000Y-79100000D03*
X122290000Y-79100000D03*
D16*
X124140000Y-81700000D03*
X122140000Y-82350000D03*
X124140000Y-83000000D03*
X124140000Y-82350000D03*
X122140000Y-83000000D03*
X122140000Y-81700000D03*
D17*
X116890000Y-130330000D03*
X115937500Y-132870000D03*
X117842500Y-132870000D03*
D11*
X121490000Y-134600000D03*
X119790000Y-134600000D03*
D18*
X117219500Y-128350000D03*
X115060500Y-128350000D03*
D11*
X119790000Y-132850000D03*
X121490000Y-132850000D03*
X128040000Y-113600000D03*
X129740000Y-113600000D03*
X128390000Y-116950000D03*
X128390000Y-115250000D03*
X131890000Y-115250000D03*
X131890000Y-116950000D03*
X130140000Y-116950000D03*
X130140000Y-115250000D03*
X142390000Y-123200000D03*
X142390000Y-121500000D03*
X144140000Y-123200000D03*
X144140000Y-121500000D03*
X142390000Y-118000000D03*
X142390000Y-119700000D03*
D19*
X139738420Y-112905000D03*
X139738420Y-114175000D03*
X139738420Y-115445000D03*
X139738420Y-116715000D03*
X139738420Y-117985000D03*
X139738420Y-119255000D03*
X139738420Y-120525000D03*
X139738420Y-121795000D03*
X134541580Y-121795000D03*
X134541580Y-120525000D03*
X134541580Y-119255000D03*
X134541580Y-117985000D03*
X134541580Y-116715000D03*
X134541580Y-115445000D03*
X134541580Y-114175000D03*
X134541580Y-112905000D03*
D11*
X144140000Y-113500000D03*
X144140000Y-115200000D03*
X144140000Y-119700000D03*
X144140000Y-118000000D03*
X142390000Y-115200000D03*
X142390000Y-113500000D03*
X120540000Y-120600000D03*
X122240000Y-120600000D03*
D20*
X120446000Y-117055400D03*
X120446000Y-116420400D03*
X120446000Y-115760000D03*
X120446000Y-115125000D03*
X126034000Y-115125000D03*
X126034000Y-115772700D03*
X126034000Y-116420400D03*
X126034000Y-117068100D03*
D11*
X125740000Y-120600000D03*
X124040000Y-120600000D03*
X125040000Y-118600000D03*
X126740000Y-118600000D03*
X118140000Y-115200000D03*
X118140000Y-113500000D03*
X118140000Y-118450000D03*
X118140000Y-116750000D03*
X114640000Y-118200000D03*
X114640000Y-116500000D03*
X118140000Y-121450000D03*
X118140000Y-119750000D03*
X114640000Y-115200000D03*
X114640000Y-113500000D03*
D19*
X125738420Y-122405000D03*
X125738420Y-123675000D03*
X125738420Y-124945000D03*
X125738420Y-126215000D03*
X125738420Y-127485000D03*
X125738420Y-128755000D03*
X125738420Y-130025000D03*
X125738420Y-131295000D03*
X120541580Y-131295000D03*
X120541580Y-130025000D03*
X120541580Y-128755000D03*
X120541580Y-127485000D03*
X120541580Y-126215000D03*
X120541580Y-124945000D03*
X120541580Y-123675000D03*
X120541580Y-122405000D03*
D17*
X128640000Y-130580000D03*
X127687500Y-133120000D03*
X129592500Y-133120000D03*
D11*
X135890000Y-127250000D03*
X135890000Y-128950000D03*
D18*
X129060500Y-128600000D03*
X131219500Y-128600000D03*
D11*
X124290000Y-134600000D03*
X125990000Y-134600000D03*
X125990000Y-132850000D03*
X124290000Y-132850000D03*
X134140000Y-125950000D03*
X134140000Y-124250000D03*
X131240000Y-88600000D03*
X129540000Y-88600000D03*
D21*
X129370000Y-93100000D03*
X131910000Y-94052500D03*
X131910000Y-92147500D03*
D18*
X129560500Y-90600000D03*
X131719500Y-90600000D03*
D11*
X129490000Y-97850000D03*
X127790000Y-97850000D03*
X139890000Y-93950000D03*
X139890000Y-92250000D03*
X138390000Y-92250000D03*
X138390000Y-93950000D03*
X139240000Y-90600000D03*
X137540000Y-90600000D03*
D15*
X135740000Y-92150000D03*
X135740000Y-93100000D03*
X135740000Y-94050000D03*
X133540000Y-94050000D03*
X133540000Y-92150000D03*
D11*
X133640000Y-95750000D03*
X133640000Y-97450000D03*
D16*
X137890000Y-95700000D03*
X135890000Y-96350000D03*
X137890000Y-97000000D03*
X137890000Y-96350000D03*
X135890000Y-97000000D03*
X135890000Y-95700000D03*
D22*
X133890000Y-104549640D03*
X133890000Y-100150360D03*
D11*
X128050000Y-111050000D03*
X129750000Y-111050000D03*
D19*
X120541580Y-113545000D03*
X120541580Y-112275000D03*
X120541580Y-111005000D03*
X120541580Y-109735000D03*
X120541580Y-108465000D03*
X120541580Y-107195000D03*
X120541580Y-105925000D03*
X120541580Y-104655000D03*
X125738420Y-104655000D03*
X125738420Y-105925000D03*
X125738420Y-107195000D03*
X125738420Y-108465000D03*
X125738420Y-109735000D03*
X125738420Y-111005000D03*
X125738420Y-112275000D03*
X125738420Y-113545000D03*
D11*
X128040000Y-109350000D03*
X129740000Y-109350000D03*
X128040000Y-105850000D03*
X129740000Y-105850000D03*
X128040000Y-107600000D03*
X129740000Y-107600000D03*
D18*
X116719500Y-90600000D03*
X114560500Y-90600000D03*
D11*
X114790000Y-88600000D03*
X116490000Y-88600000D03*
D21*
X116910000Y-93100000D03*
X114370000Y-92147500D03*
X114370000Y-94052500D03*
D19*
X125738420Y-87655000D03*
X125738420Y-88925000D03*
X125738420Y-90195000D03*
X125738420Y-91465000D03*
X125738420Y-92735000D03*
X125738420Y-94005000D03*
X125738420Y-95275000D03*
X125738420Y-96545000D03*
X120541580Y-96545000D03*
X120541580Y-95275000D03*
X120541580Y-94005000D03*
X120541580Y-92735000D03*
X120541580Y-91465000D03*
X120541580Y-90195000D03*
X120541580Y-88925000D03*
X120541580Y-87655000D03*
D11*
X118740000Y-97850000D03*
X117040000Y-97850000D03*
D23*
X112890000Y-112855400D03*
X112890000Y-115344600D03*
D11*
X111290000Y-111100000D03*
X112990000Y-111100000D03*
D23*
X111190000Y-115344600D03*
X111190000Y-112855400D03*
D11*
X116390000Y-112200000D03*
X116390000Y-110500000D03*
X149290000Y-111100000D03*
X150990000Y-111100000D03*
D23*
X150890000Y-112855400D03*
X150890000Y-115344600D03*
D11*
X152640000Y-115200000D03*
X152640000Y-113500000D03*
X152640000Y-118200000D03*
X152640000Y-116500000D03*
D23*
X149190000Y-115344600D03*
X149190000Y-112855400D03*
D11*
X135240000Y-136350000D03*
X133540000Y-136350000D03*
X135240000Y-134850000D03*
X133540000Y-134850000D03*
X138640000Y-139700000D03*
X138640000Y-138000000D03*
D20*
X130446000Y-139805400D03*
X130446000Y-139170400D03*
X130446000Y-138510000D03*
X130446000Y-137875000D03*
X136034000Y-137875000D03*
X136034000Y-138522700D03*
X136034000Y-139170400D03*
X136034000Y-139818100D03*
D11*
X138890000Y-111200000D03*
X138890000Y-109500000D03*
X140640000Y-111200000D03*
X140640000Y-109500000D03*
X130140000Y-120450000D03*
X130140000Y-118750000D03*
X128390000Y-118750000D03*
X128390000Y-120450000D03*
X132390000Y-124250000D03*
X132390000Y-125950000D03*
X128490000Y-138100000D03*
X126790000Y-138100000D03*
X128490000Y-136350000D03*
X126790000Y-136350000D03*
X136240000Y-141350000D03*
X134540000Y-141350000D03*
X130390000Y-134750000D03*
X130390000Y-136450000D03*
X138140000Y-145700000D03*
X138140000Y-144000000D03*
X141040000Y-136600000D03*
X142740000Y-136600000D03*
D24*
X144250000Y-148250000D03*
D11*
X142740000Y-134850000D03*
X141040000Y-134850000D03*
X139740000Y-134850000D03*
X138040000Y-134850000D03*
D18*
X179810500Y-53850000D03*
X181969500Y-53850000D03*
X176820500Y-70550000D03*
X178979500Y-70550000D03*
D25*
X177500360Y-73650000D03*
X181899640Y-73650000D03*
D11*
X178040000Y-80100000D03*
X179740000Y-80100000D03*
X181040000Y-80100000D03*
X182740000Y-80100000D03*
D25*
X182089640Y-49350000D03*
X177690360Y-49350000D03*
D11*
X169290000Y-67350000D03*
X170990000Y-67350000D03*
D26*
X169690360Y-56600000D03*
X174089640Y-56600000D03*
D11*
X169890000Y-65700000D03*
X169890000Y-64000000D03*
D26*
X174089640Y-49350000D03*
X169690360Y-49350000D03*
D11*
X164990000Y-67350000D03*
X163290000Y-67350000D03*
D27*
X165140000Y-63550000D03*
D28*
X164140000Y-60300000D03*
X166140000Y-60300000D03*
D11*
X168140000Y-65700000D03*
X168140000Y-64000000D03*
X160540000Y-57100000D03*
X162240000Y-57100000D03*
D29*
X160700000Y-55200000D03*
X160700000Y-53500000D03*
D11*
X159240000Y-55350000D03*
X157540000Y-55350000D03*
X158240000Y-50350000D03*
X156540000Y-50350000D03*
D30*
X153840000Y-47325000D03*
X153840000Y-47975000D03*
X153840000Y-48625000D03*
X153840000Y-49275000D03*
X153840000Y-49925000D03*
X153840000Y-50575000D03*
X153840000Y-51225000D03*
X153840000Y-51875000D03*
X147940000Y-51875000D03*
X147940000Y-51225000D03*
X147940000Y-50575000D03*
X147940000Y-49925000D03*
X147940000Y-49275000D03*
X147940000Y-48625000D03*
X147940000Y-47975000D03*
X147940000Y-47325000D03*
D24*
X147750000Y-55750000D03*
D30*
X153840000Y-59825000D03*
X153840000Y-60475000D03*
X153840000Y-61125000D03*
X153840000Y-61775000D03*
X153840000Y-62425000D03*
X153840000Y-63075000D03*
X153840000Y-63725000D03*
X153840000Y-64375000D03*
X147940000Y-64375000D03*
X147940000Y-63725000D03*
X147940000Y-63075000D03*
X147940000Y-62425000D03*
X147940000Y-61775000D03*
X147940000Y-61125000D03*
X147940000Y-60475000D03*
X147940000Y-59825000D03*
D31*
X153840000Y-66150000D03*
X153840000Y-66800000D03*
X153840000Y-67450000D03*
X153840000Y-68100000D03*
X153840000Y-68750000D03*
X153840000Y-69400000D03*
X153840000Y-70050000D03*
X147940000Y-70050000D03*
X147940000Y-69400000D03*
X147940000Y-68750000D03*
X147940000Y-68100000D03*
X147940000Y-67450000D03*
X147940000Y-66800000D03*
X147940000Y-66150000D03*
D11*
X147640000Y-71750000D03*
X147640000Y-73450000D03*
X157890000Y-70950000D03*
X157890000Y-69250000D03*
X159640000Y-69250000D03*
X159640000Y-70950000D03*
D20*
X167584000Y-69144600D03*
X167584000Y-69779600D03*
X167584000Y-70440000D03*
X167584000Y-71075000D03*
X161996000Y-71075000D03*
X161996000Y-70427300D03*
X161996000Y-69779600D03*
X161996000Y-69131900D03*
D11*
X159640000Y-67950000D03*
X159640000Y-66250000D03*
X167990000Y-67350000D03*
X166290000Y-67350000D03*
X169240000Y-72600000D03*
X167540000Y-72600000D03*
X166050000Y-111050000D03*
X167750000Y-111050000D03*
X166040000Y-105850000D03*
X167740000Y-105850000D03*
X166040000Y-113600000D03*
X167740000Y-113600000D03*
X166040000Y-109350000D03*
X167740000Y-109350000D03*
D22*
X171890000Y-104549640D03*
X171890000Y-100150360D03*
D11*
X166040000Y-107600000D03*
X167740000Y-107600000D03*
X169890000Y-115250000D03*
X169890000Y-116950000D03*
X166390000Y-116950000D03*
X166390000Y-115250000D03*
X166390000Y-118750000D03*
X166390000Y-120450000D03*
X168140000Y-116950000D03*
X168140000Y-115250000D03*
X168140000Y-120450000D03*
X168140000Y-118750000D03*
X157790000Y-132850000D03*
X159490000Y-132850000D03*
D18*
X155219500Y-128350000D03*
X153060500Y-128350000D03*
D17*
X154890000Y-130330000D03*
X153937500Y-132870000D03*
X155842500Y-132870000D03*
D11*
X159490000Y-134600000D03*
X157790000Y-134600000D03*
X163990000Y-132850000D03*
X162290000Y-132850000D03*
X162290000Y-134600000D03*
X163990000Y-134600000D03*
D19*
X163738420Y-122405000D03*
X163738420Y-123675000D03*
X163738420Y-124945000D03*
X163738420Y-126215000D03*
X163738420Y-127485000D03*
X163738420Y-128755000D03*
X163738420Y-130025000D03*
X163738420Y-131295000D03*
X158541580Y-131295000D03*
X158541580Y-130025000D03*
X158541580Y-128755000D03*
X158541580Y-127485000D03*
X158541580Y-126215000D03*
X158541580Y-124945000D03*
X158541580Y-123675000D03*
X158541580Y-122405000D03*
D11*
X154390000Y-112200000D03*
X154390000Y-110500000D03*
D19*
X158541580Y-113545000D03*
X158541580Y-112275000D03*
X158541580Y-111005000D03*
X158541580Y-109735000D03*
X158541580Y-108465000D03*
X158541580Y-107195000D03*
X158541580Y-105925000D03*
X158541580Y-104655000D03*
X163738420Y-104655000D03*
X163738420Y-105925000D03*
X163738420Y-107195000D03*
X163738420Y-108465000D03*
X163738420Y-109735000D03*
X163738420Y-111005000D03*
X163738420Y-112275000D03*
X163738420Y-113545000D03*
D11*
X156140000Y-115200000D03*
X156140000Y-113500000D03*
X156140000Y-118450000D03*
X156140000Y-116750000D03*
X163040000Y-118600000D03*
X164740000Y-118600000D03*
X156140000Y-121450000D03*
X156140000Y-119750000D03*
X163740000Y-120600000D03*
X162040000Y-120600000D03*
D20*
X158446000Y-117055400D03*
X158446000Y-116420400D03*
X158446000Y-115760000D03*
X158446000Y-115125000D03*
X164034000Y-115125000D03*
X164034000Y-115772700D03*
X164034000Y-116420400D03*
X164034000Y-117068100D03*
D11*
X158540000Y-120600000D03*
X160240000Y-120600000D03*
X179250000Y-78450000D03*
X180950000Y-78450000D03*
X176390000Y-81700000D03*
X176390000Y-80000000D03*
X182140000Y-85500000D03*
X182140000Y-87200000D03*
X182140000Y-84200000D03*
X182140000Y-82500000D03*
D13*
X178434600Y-82406000D03*
X179069600Y-82406000D03*
X179730000Y-82406000D03*
X180365000Y-82406000D03*
X180365000Y-87994000D03*
X179717300Y-87994000D03*
X179069600Y-87994000D03*
X178421900Y-87994000D03*
D12*
X178645400Y-90600000D03*
X181134600Y-90600000D03*
D11*
X177240000Y-90600000D03*
X175540000Y-90600000D03*
X181240000Y-94100000D03*
X179540000Y-94100000D03*
X177890000Y-93950000D03*
X177890000Y-92250000D03*
X179540000Y-92350000D03*
X181240000Y-92350000D03*
X176390000Y-92250000D03*
X176390000Y-93950000D03*
X161040000Y-72600000D03*
X162740000Y-72600000D03*
X158140000Y-78700000D03*
X158140000Y-77000000D03*
D15*
X162240000Y-75900000D03*
X162240000Y-76850000D03*
X162240000Y-77800000D03*
X160040000Y-77800000D03*
X160040000Y-75900000D03*
D11*
X164040000Y-72600000D03*
X165740000Y-72600000D03*
X161990000Y-79100000D03*
X160290000Y-79100000D03*
X172140000Y-81700000D03*
X172140000Y-80000000D03*
X170390000Y-81700000D03*
X170390000Y-80000000D03*
X174640000Y-81700000D03*
X174640000Y-80000000D03*
X164040000Y-74600000D03*
X165740000Y-74600000D03*
D27*
X172140000Y-78050000D03*
D28*
X171140000Y-74800000D03*
X173140000Y-74800000D03*
D11*
X157040000Y-84100000D03*
X158740000Y-84100000D03*
X157040000Y-82350000D03*
X158740000Y-82350000D03*
D14*
X155390000Y-80520500D03*
X155390000Y-82679500D03*
D11*
X157040000Y-80600000D03*
X158740000Y-80600000D03*
X173790000Y-86850000D03*
X175490000Y-86850000D03*
D21*
X167370000Y-93100000D03*
X169910000Y-94052500D03*
X169910000Y-92147500D03*
D11*
X169240000Y-88600000D03*
X167540000Y-88600000D03*
D16*
X175890000Y-95700000D03*
X173890000Y-96350000D03*
X175890000Y-97000000D03*
X175890000Y-96350000D03*
X173890000Y-97000000D03*
X173890000Y-95700000D03*
D15*
X173740000Y-92150000D03*
X173740000Y-93100000D03*
X173740000Y-94050000D03*
X171540000Y-94050000D03*
X171540000Y-92150000D03*
D11*
X171640000Y-95750000D03*
X171640000Y-97450000D03*
D18*
X167560500Y-90600000D03*
X169719500Y-90600000D03*
D11*
X167490000Y-97850000D03*
X165790000Y-97850000D03*
X166140000Y-81700000D03*
X166140000Y-80000000D03*
X167640000Y-86950000D03*
X167640000Y-85250000D03*
X166140000Y-86950000D03*
X166140000Y-85250000D03*
X163740000Y-85850000D03*
X162040000Y-85850000D03*
D16*
X162140000Y-81700000D03*
X160140000Y-82350000D03*
X162140000Y-83000000D03*
X162140000Y-82350000D03*
X160140000Y-83000000D03*
X160140000Y-81700000D03*
D11*
X158790000Y-85850000D03*
X160490000Y-85850000D03*
D21*
X154910000Y-93100000D03*
X152370000Y-92147500D03*
X152370000Y-94052500D03*
D19*
X163738420Y-87655000D03*
X163738420Y-88925000D03*
X163738420Y-90195000D03*
X163738420Y-91465000D03*
X163738420Y-92735000D03*
X163738420Y-94005000D03*
X163738420Y-95275000D03*
X163738420Y-96545000D03*
X158541580Y-96545000D03*
X158541580Y-95275000D03*
X158541580Y-94005000D03*
X158541580Y-92735000D03*
X158541580Y-91465000D03*
X158541580Y-90195000D03*
X158541580Y-88925000D03*
X158541580Y-87655000D03*
D18*
X154719500Y-90600000D03*
X152560500Y-90600000D03*
D11*
X152790000Y-88600000D03*
X154490000Y-88600000D03*
X154490000Y-86850000D03*
X152790000Y-86850000D03*
X156740000Y-97850000D03*
X155040000Y-97850000D03*
X178640000Y-111200000D03*
X178640000Y-109500000D03*
D19*
X177738420Y-112905000D03*
X177738420Y-114175000D03*
X177738420Y-115445000D03*
X177738420Y-116715000D03*
X177738420Y-117985000D03*
X177738420Y-119255000D03*
X177738420Y-120525000D03*
X177738420Y-121795000D03*
X172541580Y-121795000D03*
X172541580Y-120525000D03*
X172541580Y-119255000D03*
X172541580Y-117985000D03*
X172541580Y-116715000D03*
X172541580Y-115445000D03*
X172541580Y-114175000D03*
X172541580Y-112905000D03*
D11*
X180390000Y-115200000D03*
X180390000Y-113500000D03*
X172140000Y-125950000D03*
X172140000Y-124250000D03*
X170390000Y-124250000D03*
X170390000Y-125950000D03*
X176890000Y-111200000D03*
X176890000Y-109500000D03*
X182140000Y-113500000D03*
X182140000Y-115200000D03*
X168390000Y-134750000D03*
X168390000Y-136450000D03*
X166490000Y-136350000D03*
X164790000Y-136350000D03*
D18*
X167060500Y-128600000D03*
X169219500Y-128600000D03*
D17*
X166640000Y-130580000D03*
X165687500Y-133120000D03*
X167592500Y-133120000D03*
D11*
X182140000Y-123200000D03*
X182140000Y-121500000D03*
X180390000Y-118000000D03*
X180390000Y-119700000D03*
X182140000Y-119700000D03*
X182140000Y-118000000D03*
X180390000Y-123200000D03*
X180390000Y-121500000D03*
X173890000Y-127250000D03*
X173890000Y-128950000D03*
X166490000Y-138100000D03*
X164790000Y-138100000D03*
X176640000Y-139700000D03*
X176640000Y-138000000D03*
D24*
X182250000Y-148250000D03*
D11*
X176140000Y-145700000D03*
X176140000Y-144000000D03*
D20*
X168446000Y-139805400D03*
X168446000Y-139170400D03*
X168446000Y-138510000D03*
X168446000Y-137875000D03*
X174034000Y-137875000D03*
X174034000Y-138522700D03*
X174034000Y-139170400D03*
X174034000Y-139818100D03*
D11*
X174240000Y-141350000D03*
X172540000Y-141350000D03*
X173240000Y-136350000D03*
X171540000Y-136350000D03*
X173240000Y-134850000D03*
X171540000Y-134850000D03*
X177740000Y-134850000D03*
X176040000Y-134850000D03*
X180740000Y-134850000D03*
X179040000Y-134850000D03*
X179040000Y-136600000D03*
X180740000Y-136600000D03*
D25*
X144089640Y-49350000D03*
X139690360Y-49350000D03*
D11*
X131890000Y-65700000D03*
X131890000Y-64000000D03*
D26*
X131690360Y-56600000D03*
X136089640Y-56600000D03*
D11*
X131290000Y-67350000D03*
X132990000Y-67350000D03*
D26*
X136089640Y-49350000D03*
X131690360Y-49350000D03*
D18*
X141810500Y-53850000D03*
X143969500Y-53850000D03*
D25*
X139500360Y-73650000D03*
X143899640Y-73650000D03*
D18*
X138820500Y-70550000D03*
X140979500Y-70550000D03*
D27*
X134140000Y-78050000D03*
D28*
X133140000Y-74800000D03*
X135140000Y-74800000D03*
D11*
X131240000Y-72600000D03*
X129540000Y-72600000D03*
X126040000Y-74600000D03*
X127740000Y-74600000D03*
X123040000Y-72600000D03*
X124740000Y-72600000D03*
X126040000Y-72600000D03*
X127740000Y-72600000D03*
D29*
X122700000Y-55200000D03*
X122700000Y-53500000D03*
D24*
X109750000Y-55750000D03*
D30*
X115840000Y-47325000D03*
X115840000Y-47975000D03*
X115840000Y-48625000D03*
X115840000Y-49275000D03*
X115840000Y-49925000D03*
X115840000Y-50575000D03*
X115840000Y-51225000D03*
X115840000Y-51875000D03*
X109940000Y-51875000D03*
X109940000Y-51225000D03*
X109940000Y-50575000D03*
X109940000Y-49925000D03*
X109940000Y-49275000D03*
X109940000Y-48625000D03*
X109940000Y-47975000D03*
X109940000Y-47325000D03*
D11*
X120240000Y-50350000D03*
X118540000Y-50350000D03*
X121240000Y-55350000D03*
X119540000Y-55350000D03*
D30*
X115840000Y-59825000D03*
X115840000Y-60475000D03*
X115840000Y-61125000D03*
X115840000Y-61775000D03*
X115840000Y-62425000D03*
X115840000Y-63075000D03*
X115840000Y-63725000D03*
X115840000Y-64375000D03*
X109940000Y-64375000D03*
X109940000Y-63725000D03*
X109940000Y-63075000D03*
X109940000Y-62425000D03*
X109940000Y-61775000D03*
X109940000Y-61125000D03*
X109940000Y-60475000D03*
X109940000Y-59825000D03*
D31*
X115840000Y-66150000D03*
X115840000Y-66800000D03*
X115840000Y-67450000D03*
X115840000Y-68100000D03*
X115840000Y-68750000D03*
X115840000Y-69400000D03*
X115840000Y-70050000D03*
X109940000Y-70050000D03*
X109940000Y-69400000D03*
X109940000Y-68750000D03*
X109940000Y-68100000D03*
X109940000Y-67450000D03*
X109940000Y-66800000D03*
X109940000Y-66150000D03*
D11*
X121640000Y-67950000D03*
X121640000Y-66250000D03*
X119890000Y-70950000D03*
X119890000Y-69250000D03*
X109640000Y-71750000D03*
X109640000Y-73450000D03*
X121640000Y-69250000D03*
X121640000Y-70950000D03*
X122540000Y-57100000D03*
X124240000Y-57100000D03*
X130140000Y-65700000D03*
X130140000Y-64000000D03*
D27*
X127140000Y-63550000D03*
D28*
X126140000Y-60300000D03*
X128140000Y-60300000D03*
D11*
X129990000Y-67350000D03*
X128290000Y-67350000D03*
D20*
X129584000Y-69144600D03*
X129584000Y-69779600D03*
X129584000Y-70440000D03*
X129584000Y-71075000D03*
X123996000Y-71075000D03*
X123996000Y-70427300D03*
X123996000Y-69779600D03*
X123996000Y-69131900D03*
D11*
X126990000Y-67350000D03*
X125290000Y-67350000D03*
D18*
X103810500Y-53850000D03*
X105969500Y-53850000D03*
D25*
X106089640Y-49350000D03*
X101690360Y-49350000D03*
D11*
X105040000Y-80100000D03*
X106740000Y-80100000D03*
X103250000Y-78450000D03*
X104950000Y-78450000D03*
D18*
X100820500Y-70550000D03*
X102979500Y-70550000D03*
D25*
X101500360Y-73650000D03*
X105899640Y-73650000D03*
D11*
X102040000Y-80100000D03*
X103740000Y-80100000D03*
D27*
X96140000Y-78050000D03*
D28*
X95140000Y-74800000D03*
X97140000Y-74800000D03*
D11*
X93290000Y-67350000D03*
X94990000Y-67350000D03*
X88990000Y-67350000D03*
X87290000Y-67350000D03*
X88040000Y-72600000D03*
X89740000Y-72600000D03*
X85040000Y-72600000D03*
X86740000Y-72600000D03*
D26*
X98089640Y-49350000D03*
X93690360Y-49350000D03*
D11*
X92140000Y-65700000D03*
X92140000Y-64000000D03*
D26*
X93690360Y-56600000D03*
X98089640Y-56600000D03*
D11*
X84540000Y-57100000D03*
X86240000Y-57100000D03*
X93890000Y-65700000D03*
X93890000Y-64000000D03*
X91990000Y-67350000D03*
X90290000Y-67350000D03*
X83640000Y-69250000D03*
X83640000Y-70950000D03*
D20*
X91584000Y-69144600D03*
X91584000Y-69779600D03*
X91584000Y-70440000D03*
X91584000Y-71075000D03*
X85996000Y-71075000D03*
X85996000Y-70427300D03*
X85996000Y-69779600D03*
X85996000Y-69131900D03*
D11*
X106140000Y-85500000D03*
X106140000Y-87200000D03*
X100390000Y-81700000D03*
X100390000Y-80000000D03*
X98640000Y-81700000D03*
X98640000Y-80000000D03*
X96140000Y-81700000D03*
X96140000Y-80000000D03*
X97790000Y-86850000D03*
X99490000Y-86850000D03*
D13*
X102434600Y-82406000D03*
X103069600Y-82406000D03*
X103730000Y-82406000D03*
X104365000Y-82406000D03*
X104365000Y-87994000D03*
X103717300Y-87994000D03*
X103069600Y-87994000D03*
X102421900Y-87994000D03*
D11*
X106140000Y-84200000D03*
X106140000Y-82500000D03*
D12*
X102645400Y-90600000D03*
X105134600Y-90600000D03*
D11*
X101240000Y-90600000D03*
X99540000Y-90600000D03*
X100390000Y-92250000D03*
X100390000Y-93950000D03*
X105240000Y-94100000D03*
X103540000Y-94100000D03*
X101890000Y-93950000D03*
X101890000Y-92250000D03*
X103540000Y-92350000D03*
X105240000Y-92350000D03*
X90050000Y-111050000D03*
X91750000Y-111050000D03*
X102640000Y-111200000D03*
X102640000Y-109500000D03*
X100890000Y-111200000D03*
X100890000Y-109500000D03*
X104390000Y-115200000D03*
X104390000Y-113500000D03*
X90040000Y-107600000D03*
X91740000Y-107600000D03*
X90040000Y-105850000D03*
X91740000Y-105850000D03*
D22*
X95890000Y-104549640D03*
X95890000Y-100150360D03*
D11*
X90040000Y-109350000D03*
X91740000Y-109350000D03*
X91490000Y-97850000D03*
X89790000Y-97850000D03*
D21*
X91370000Y-93100000D03*
X93910000Y-94052500D03*
X93910000Y-92147500D03*
D18*
X91560500Y-90600000D03*
X93719500Y-90600000D03*
D16*
X99890000Y-95700000D03*
X97890000Y-96350000D03*
X99890000Y-97000000D03*
X99890000Y-96350000D03*
X97890000Y-97000000D03*
X97890000Y-95700000D03*
D15*
X97740000Y-92150000D03*
X97740000Y-93100000D03*
X97740000Y-94050000D03*
X95540000Y-94050000D03*
X95540000Y-92150000D03*
D11*
X95640000Y-95750000D03*
X95640000Y-97450000D03*
X93240000Y-88600000D03*
X91540000Y-88600000D03*
X80740000Y-97850000D03*
X79040000Y-97850000D03*
D21*
X78910000Y-93100000D03*
X76370000Y-92147500D03*
X76370000Y-94052500D03*
D18*
X78719500Y-90600000D03*
X76560500Y-90600000D03*
D11*
X76790000Y-88600000D03*
X78490000Y-88600000D03*
D19*
X87738420Y-87655000D03*
X87738420Y-88925000D03*
X87738420Y-90195000D03*
X87738420Y-91465000D03*
X87738420Y-92735000D03*
X87738420Y-94005000D03*
X87738420Y-95275000D03*
X87738420Y-96545000D03*
X82541580Y-96545000D03*
X82541580Y-95275000D03*
X82541580Y-94005000D03*
X82541580Y-92735000D03*
X82541580Y-91465000D03*
X82541580Y-90195000D03*
X82541580Y-88925000D03*
X82541580Y-87655000D03*
D23*
X74890000Y-112855400D03*
X74890000Y-115344600D03*
D19*
X82541580Y-113545000D03*
X82541580Y-112275000D03*
X82541580Y-111005000D03*
X82541580Y-109735000D03*
X82541580Y-108465000D03*
X82541580Y-107195000D03*
X82541580Y-105925000D03*
X82541580Y-104655000D03*
X87738420Y-104655000D03*
X87738420Y-105925000D03*
X87738420Y-107195000D03*
X87738420Y-108465000D03*
X87738420Y-109735000D03*
X87738420Y-111005000D03*
X87738420Y-112275000D03*
X87738420Y-113545000D03*
D11*
X76640000Y-115200000D03*
X76640000Y-113500000D03*
X80140000Y-115200000D03*
X80140000Y-113500000D03*
X78390000Y-112200000D03*
X78390000Y-110500000D03*
X73290000Y-111100000D03*
X74990000Y-111100000D03*
D23*
X73190000Y-115344600D03*
X73190000Y-112855400D03*
D24*
X71750000Y-55750000D03*
D31*
X77840000Y-66150000D03*
X77840000Y-66800000D03*
X77840000Y-67450000D03*
X77840000Y-68100000D03*
X77840000Y-68750000D03*
X77840000Y-69400000D03*
X77840000Y-70050000D03*
X71940000Y-70050000D03*
X71940000Y-69400000D03*
X71940000Y-68750000D03*
X71940000Y-68100000D03*
X71940000Y-67450000D03*
X71940000Y-66800000D03*
X71940000Y-66150000D03*
D30*
X77840000Y-59825000D03*
X77840000Y-60475000D03*
X77840000Y-61125000D03*
X77840000Y-61775000D03*
X77840000Y-62425000D03*
X77840000Y-63075000D03*
X77840000Y-63725000D03*
X77840000Y-64375000D03*
X71940000Y-64375000D03*
X71940000Y-63725000D03*
X71940000Y-63075000D03*
X71940000Y-62425000D03*
X71940000Y-61775000D03*
X71940000Y-61125000D03*
X71940000Y-60475000D03*
X71940000Y-59825000D03*
D29*
X84700000Y-55200000D03*
X84700000Y-53500000D03*
D30*
X77840000Y-47325000D03*
X77840000Y-47975000D03*
X77840000Y-48625000D03*
X77840000Y-49275000D03*
X77840000Y-49925000D03*
X77840000Y-50575000D03*
X77840000Y-51225000D03*
X77840000Y-51875000D03*
X71940000Y-51875000D03*
X71940000Y-51225000D03*
X71940000Y-50575000D03*
X71940000Y-49925000D03*
X71940000Y-49275000D03*
X71940000Y-48625000D03*
X71940000Y-47975000D03*
X71940000Y-47325000D03*
D11*
X83240000Y-55350000D03*
X81540000Y-55350000D03*
X82240000Y-50350000D03*
X80540000Y-50350000D03*
X71640000Y-71750000D03*
X71640000Y-73450000D03*
X94390000Y-81700000D03*
X94390000Y-80000000D03*
X90140000Y-86950000D03*
X90140000Y-85250000D03*
X87740000Y-85850000D03*
X86040000Y-85850000D03*
X91640000Y-86950000D03*
X91640000Y-85250000D03*
X82790000Y-85850000D03*
X84490000Y-85850000D03*
D16*
X86140000Y-81700000D03*
X84140000Y-82350000D03*
X86140000Y-83000000D03*
X86140000Y-82350000D03*
X84140000Y-83000000D03*
X84140000Y-81700000D03*
D11*
X90140000Y-81700000D03*
X90140000Y-80000000D03*
X83640000Y-67950000D03*
X83640000Y-66250000D03*
X93240000Y-72600000D03*
X91540000Y-72600000D03*
X88040000Y-74600000D03*
X89740000Y-74600000D03*
D27*
X89140000Y-63550000D03*
D28*
X88140000Y-60300000D03*
X90140000Y-60300000D03*
D11*
X81890000Y-70950000D03*
X81890000Y-69250000D03*
X85990000Y-79100000D03*
X84290000Y-79100000D03*
X82140000Y-78700000D03*
X82140000Y-77000000D03*
X81040000Y-82350000D03*
X82740000Y-82350000D03*
D15*
X86240000Y-75900000D03*
X86240000Y-76850000D03*
X86240000Y-77800000D03*
X84040000Y-77800000D03*
X84040000Y-75900000D03*
D11*
X81040000Y-80600000D03*
X82740000Y-80600000D03*
X81040000Y-84100000D03*
X82740000Y-84100000D03*
D12*
X73895400Y-75100000D03*
X76384600Y-75100000D03*
D11*
X74540000Y-78850000D03*
X76240000Y-78850000D03*
X74040000Y-86850000D03*
X75740000Y-86850000D03*
X78490000Y-86850000D03*
X76790000Y-86850000D03*
D14*
X79390000Y-80520500D03*
X79390000Y-82679500D03*
D11*
X74540000Y-77100000D03*
X76240000Y-77100000D03*
X92140000Y-116950000D03*
X92140000Y-115250000D03*
X87040000Y-118600000D03*
X88740000Y-118600000D03*
X93890000Y-115250000D03*
X93890000Y-116950000D03*
X90390000Y-116950000D03*
X90390000Y-115250000D03*
X87740000Y-120600000D03*
X86040000Y-120600000D03*
X90040000Y-113600000D03*
X91740000Y-113600000D03*
X90390000Y-118750000D03*
X90390000Y-120450000D03*
X92140000Y-120450000D03*
X92140000Y-118750000D03*
X81790000Y-132850000D03*
X83490000Y-132850000D03*
D17*
X78890000Y-130330000D03*
X77937500Y-132870000D03*
X79842500Y-132870000D03*
D11*
X83490000Y-134600000D03*
X81790000Y-134600000D03*
D20*
X82446000Y-117055400D03*
X82446000Y-116420400D03*
X82446000Y-115760000D03*
X82446000Y-115125000D03*
X88034000Y-115125000D03*
X88034000Y-115772700D03*
X88034000Y-116420400D03*
X88034000Y-117068100D03*
D19*
X87738420Y-122405000D03*
X87738420Y-123675000D03*
X87738420Y-124945000D03*
X87738420Y-126215000D03*
X87738420Y-127485000D03*
X87738420Y-128755000D03*
X87738420Y-130025000D03*
X87738420Y-131295000D03*
X82541580Y-131295000D03*
X82541580Y-130025000D03*
X82541580Y-128755000D03*
X82541580Y-127485000D03*
X82541580Y-126215000D03*
X82541580Y-124945000D03*
X82541580Y-123675000D03*
X82541580Y-122405000D03*
D11*
X82540000Y-120600000D03*
X84240000Y-120600000D03*
X80140000Y-118450000D03*
X80140000Y-116750000D03*
X80140000Y-121450000D03*
X80140000Y-119750000D03*
D18*
X79219500Y-128350000D03*
X77060500Y-128350000D03*
D11*
X76640000Y-118200000D03*
X76640000Y-116500000D03*
X106140000Y-119700000D03*
X106140000Y-118000000D03*
X104390000Y-118000000D03*
X104390000Y-119700000D03*
X106140000Y-113500000D03*
X106140000Y-115200000D03*
D19*
X101738420Y-112905000D03*
X101738420Y-114175000D03*
X101738420Y-115445000D03*
X101738420Y-116715000D03*
X101738420Y-117985000D03*
X101738420Y-119255000D03*
X101738420Y-120525000D03*
X101738420Y-121795000D03*
X96541580Y-121795000D03*
X96541580Y-120525000D03*
X96541580Y-119255000D03*
X96541580Y-117985000D03*
X96541580Y-116715000D03*
X96541580Y-115445000D03*
X96541580Y-114175000D03*
X96541580Y-112905000D03*
D11*
X104390000Y-123200000D03*
X104390000Y-121500000D03*
X106140000Y-123200000D03*
X106140000Y-121500000D03*
X90490000Y-138100000D03*
X88790000Y-138100000D03*
X97240000Y-136350000D03*
X95540000Y-136350000D03*
X97240000Y-134850000D03*
X95540000Y-134850000D03*
X92390000Y-134750000D03*
X92390000Y-136450000D03*
D20*
X92446000Y-139805400D03*
X92446000Y-139170400D03*
X92446000Y-138510000D03*
X92446000Y-137875000D03*
X98034000Y-137875000D03*
X98034000Y-138522700D03*
X98034000Y-139170400D03*
X98034000Y-139818100D03*
D11*
X90490000Y-136350000D03*
X88790000Y-136350000D03*
X98240000Y-141350000D03*
X96540000Y-141350000D03*
X101740000Y-134850000D03*
X100040000Y-134850000D03*
X104740000Y-134850000D03*
X103040000Y-134850000D03*
X100640000Y-139700000D03*
X100640000Y-138000000D03*
X100140000Y-145700000D03*
X100140000Y-144000000D03*
D24*
X106250000Y-148250000D03*
D11*
X103040000Y-136600000D03*
X104740000Y-136600000D03*
X96140000Y-125950000D03*
X96140000Y-124250000D03*
X97890000Y-127250000D03*
X97890000Y-128950000D03*
X94390000Y-124250000D03*
X94390000Y-125950000D03*
X87990000Y-132850000D03*
X86290000Y-132850000D03*
X86290000Y-134600000D03*
X87990000Y-134600000D03*
D18*
X91060500Y-128600000D03*
X93219500Y-128600000D03*
D17*
X90640000Y-130580000D03*
X89687500Y-133120000D03*
X91592500Y-133120000D03*
D24*
X41000000Y-155000000D03*
X251000000Y-43000000D03*
X68250000Y-148250000D03*
D18*
X53560500Y-90600000D03*
X55719500Y-90600000D03*
D19*
X49738420Y-87655000D03*
X49738420Y-88925000D03*
X49738420Y-90195000D03*
X49738420Y-91465000D03*
X49738420Y-92735000D03*
X49738420Y-94005000D03*
X49738420Y-95275000D03*
X49738420Y-96545000D03*
X44541580Y-96545000D03*
X44541580Y-95275000D03*
X44541580Y-94005000D03*
X44541580Y-92735000D03*
X44541580Y-91465000D03*
X44541580Y-90195000D03*
X44541580Y-88925000D03*
X44541580Y-87655000D03*
X44541580Y-113545000D03*
X44541580Y-112275000D03*
X44541580Y-111005000D03*
X44541580Y-109735000D03*
X44541580Y-108465000D03*
X44541580Y-107195000D03*
X44541580Y-105925000D03*
X44541580Y-104655000D03*
X49738420Y-104655000D03*
X49738420Y-105925000D03*
X49738420Y-107195000D03*
X49738420Y-108465000D03*
X49738420Y-109735000D03*
X49738420Y-111005000D03*
X49738420Y-112275000D03*
X49738420Y-113545000D03*
X49738420Y-122405000D03*
X49738420Y-123675000D03*
X49738420Y-124945000D03*
X49738420Y-126215000D03*
X49738420Y-127485000D03*
X49738420Y-128755000D03*
X49738420Y-130025000D03*
X49738420Y-131295000D03*
X44541580Y-131295000D03*
X44541580Y-130025000D03*
X44541580Y-128755000D03*
X44541580Y-127485000D03*
X44541580Y-126215000D03*
X44541580Y-124945000D03*
X44541580Y-123675000D03*
X44541580Y-122405000D03*
X63738420Y-112905000D03*
X63738420Y-114175000D03*
X63738420Y-115445000D03*
X63738420Y-116715000D03*
X63738420Y-117985000D03*
X63738420Y-119255000D03*
X63738420Y-120525000D03*
X63738420Y-121795000D03*
X58541580Y-121795000D03*
X58541580Y-120525000D03*
X58541580Y-119255000D03*
X58541580Y-117985000D03*
X58541580Y-116715000D03*
X58541580Y-115445000D03*
X58541580Y-114175000D03*
X58541580Y-112905000D03*
D17*
X52640000Y-130580000D03*
X51687500Y-133120000D03*
X53592500Y-133120000D03*
X40890000Y-130330000D03*
X39937500Y-132870000D03*
X41842500Y-132870000D03*
D21*
X40910000Y-93100000D03*
X38370000Y-92147500D03*
X38370000Y-94052500D03*
X53370000Y-93100000D03*
X55910000Y-94052500D03*
X55910000Y-92147500D03*
D18*
X40719500Y-90600000D03*
X38560500Y-90600000D03*
X41219500Y-128350000D03*
X39060500Y-128350000D03*
X53060500Y-128600000D03*
X55219500Y-128600000D03*
D16*
X48140000Y-81700000D03*
X46140000Y-82350000D03*
X48140000Y-83000000D03*
X48140000Y-82350000D03*
X46140000Y-83000000D03*
X46140000Y-81700000D03*
X61890000Y-95700000D03*
X59890000Y-96350000D03*
X61890000Y-97000000D03*
X61890000Y-96350000D03*
X59890000Y-97000000D03*
X59890000Y-95700000D03*
D11*
X50990000Y-67350000D03*
X49290000Y-67350000D03*
X45640000Y-69250000D03*
X45640000Y-70950000D03*
X43890000Y-70950000D03*
X43890000Y-69250000D03*
X63240000Y-90600000D03*
X61540000Y-90600000D03*
X65540000Y-92350000D03*
X67240000Y-92350000D03*
X64040000Y-80100000D03*
X65740000Y-80100000D03*
X52040000Y-109350000D03*
X53740000Y-109350000D03*
X52040000Y-105850000D03*
X53740000Y-105850000D03*
X52040000Y-107600000D03*
X53740000Y-107600000D03*
X48290000Y-134600000D03*
X49990000Y-134600000D03*
X49740000Y-120600000D03*
X48040000Y-120600000D03*
X49990000Y-132850000D03*
X48290000Y-132850000D03*
X45240000Y-55350000D03*
X43540000Y-55350000D03*
X49040000Y-118600000D03*
X50740000Y-118600000D03*
X55890000Y-115250000D03*
X55890000Y-116950000D03*
X36540000Y-77100000D03*
X38240000Y-77100000D03*
X54140000Y-120450000D03*
X54140000Y-118750000D03*
X33640000Y-71750000D03*
X33640000Y-73450000D03*
X46540000Y-57100000D03*
X48240000Y-57100000D03*
X45490000Y-134600000D03*
X43790000Y-134600000D03*
X44540000Y-120600000D03*
X46240000Y-120600000D03*
X62890000Y-111200000D03*
X62890000Y-109500000D03*
X62140000Y-145700000D03*
X62140000Y-144000000D03*
X43790000Y-132850000D03*
X45490000Y-132850000D03*
X42140000Y-121450000D03*
X42140000Y-119750000D03*
X52390000Y-116950000D03*
X52390000Y-115250000D03*
X52390000Y-118750000D03*
X52390000Y-120450000D03*
X35290000Y-111100000D03*
X36990000Y-111100000D03*
X42140000Y-118450000D03*
X42140000Y-116750000D03*
X52040000Y-113600000D03*
X53740000Y-113600000D03*
X38640000Y-118200000D03*
X38640000Y-116500000D03*
X56390000Y-124250000D03*
X56390000Y-125950000D03*
X38640000Y-115200000D03*
X38640000Y-113500000D03*
X52140000Y-86950000D03*
X52140000Y-85250000D03*
X68140000Y-123200000D03*
X68140000Y-121500000D03*
X44240000Y-50350000D03*
X42540000Y-50350000D03*
X66390000Y-123200000D03*
X66390000Y-121500000D03*
X44790000Y-85850000D03*
X46490000Y-85850000D03*
X38790000Y-88600000D03*
X40490000Y-88600000D03*
X40490000Y-86850000D03*
X38790000Y-86850000D03*
X68140000Y-113500000D03*
X68140000Y-115200000D03*
X66390000Y-115200000D03*
X66390000Y-113500000D03*
X59890000Y-127250000D03*
X59890000Y-128950000D03*
X36040000Y-86850000D03*
X37740000Y-86850000D03*
X49740000Y-85850000D03*
X48040000Y-85850000D03*
X64640000Y-111200000D03*
X64640000Y-109500000D03*
X55240000Y-88600000D03*
X53540000Y-88600000D03*
X53640000Y-86950000D03*
X53640000Y-85250000D03*
X44140000Y-78700000D03*
X44140000Y-77000000D03*
X52140000Y-81700000D03*
X52140000Y-80000000D03*
X62640000Y-139700000D03*
X62640000Y-138000000D03*
X43040000Y-84100000D03*
X44740000Y-84100000D03*
X66390000Y-118000000D03*
X66390000Y-119700000D03*
X43040000Y-80600000D03*
X44740000Y-80600000D03*
X66740000Y-134850000D03*
X65040000Y-134850000D03*
X57640000Y-95750000D03*
X57640000Y-97450000D03*
X63890000Y-93950000D03*
X63890000Y-92250000D03*
X63740000Y-134850000D03*
X62040000Y-134850000D03*
X43040000Y-82350000D03*
X44740000Y-82350000D03*
X47040000Y-72600000D03*
X48740000Y-72600000D03*
X60640000Y-81700000D03*
X60640000Y-80000000D03*
X59240000Y-134850000D03*
X57540000Y-134850000D03*
X50040000Y-72600000D03*
X51740000Y-72600000D03*
X56390000Y-81700000D03*
X56390000Y-80000000D03*
X58140000Y-81700000D03*
X58140000Y-80000000D03*
X54140000Y-65700000D03*
X54140000Y-64000000D03*
X62390000Y-81700000D03*
X62390000Y-80000000D03*
X52490000Y-138100000D03*
X50790000Y-138100000D03*
X52490000Y-136350000D03*
X50790000Y-136350000D03*
X53990000Y-67350000D03*
X52290000Y-67350000D03*
X55890000Y-65700000D03*
X55890000Y-64000000D03*
X67240000Y-94100000D03*
X65540000Y-94100000D03*
X55290000Y-67350000D03*
X56990000Y-67350000D03*
X67040000Y-80100000D03*
X68740000Y-80100000D03*
X59790000Y-86850000D03*
X61490000Y-86850000D03*
D20*
X44446000Y-117055400D03*
X44446000Y-116420400D03*
X44446000Y-115760000D03*
X44446000Y-115125000D03*
X50034000Y-115125000D03*
X50034000Y-115772700D03*
X50034000Y-116420400D03*
X50034000Y-117068100D03*
X54446000Y-139805400D03*
X54446000Y-139170400D03*
X54446000Y-138510000D03*
X54446000Y-137875000D03*
X60034000Y-137875000D03*
X60034000Y-138522700D03*
X60034000Y-139170400D03*
X60034000Y-139818100D03*
D13*
X64434600Y-82406000D03*
X65069600Y-82406000D03*
X65730000Y-82406000D03*
X66365000Y-82406000D03*
X66365000Y-87994000D03*
X65717300Y-87994000D03*
X65069600Y-87994000D03*
X64421900Y-87994000D03*
D20*
X53584000Y-69144600D03*
X53584000Y-69779600D03*
X53584000Y-70440000D03*
X53584000Y-71075000D03*
X47996000Y-71075000D03*
X47996000Y-70427300D03*
X47996000Y-69779600D03*
X47996000Y-69131900D03*
D30*
X39840000Y-59825000D03*
X39840000Y-60475000D03*
X39840000Y-61125000D03*
X39840000Y-61775000D03*
X39840000Y-62425000D03*
X39840000Y-63075000D03*
X39840000Y-63725000D03*
X39840000Y-64375000D03*
X33940000Y-64375000D03*
X33940000Y-63725000D03*
X33940000Y-63075000D03*
X33940000Y-62425000D03*
X33940000Y-61775000D03*
X33940000Y-61125000D03*
X33940000Y-60475000D03*
X33940000Y-59825000D03*
X39840000Y-47325000D03*
X39840000Y-47975000D03*
X39840000Y-48625000D03*
X39840000Y-49275000D03*
X39840000Y-49925000D03*
X39840000Y-50575000D03*
X39840000Y-51225000D03*
X39840000Y-51875000D03*
X33940000Y-51875000D03*
X33940000Y-51225000D03*
X33940000Y-50575000D03*
X33940000Y-49925000D03*
X33940000Y-49275000D03*
X33940000Y-48625000D03*
X33940000Y-47975000D03*
X33940000Y-47325000D03*
D31*
X39840000Y-66150000D03*
X39840000Y-66800000D03*
X39840000Y-67450000D03*
X39840000Y-68100000D03*
X39840000Y-68750000D03*
X39840000Y-69400000D03*
X39840000Y-70050000D03*
X33940000Y-70050000D03*
X33940000Y-69400000D03*
X33940000Y-68750000D03*
X33940000Y-68100000D03*
X33940000Y-67450000D03*
X33940000Y-66800000D03*
X33940000Y-66150000D03*
D15*
X48240000Y-75900000D03*
X48240000Y-76850000D03*
X48240000Y-77800000D03*
X46040000Y-77800000D03*
X46040000Y-75900000D03*
X59740000Y-92150000D03*
X59740000Y-93100000D03*
X59740000Y-94050000D03*
X57540000Y-94050000D03*
X57540000Y-92150000D03*
D26*
X55690360Y-56600000D03*
X60089640Y-56600000D03*
X60089640Y-49350000D03*
X55690360Y-49350000D03*
D22*
X57890000Y-104549640D03*
X57890000Y-100150360D03*
D25*
X63500360Y-73650000D03*
X67899640Y-73650000D03*
X68089640Y-49350000D03*
X63690360Y-49350000D03*
D14*
X41390000Y-80520500D03*
X41390000Y-82679500D03*
D18*
X65810500Y-53850000D03*
X67969500Y-53850000D03*
X62820500Y-70550000D03*
X64979500Y-70550000D03*
D27*
X58140000Y-78050000D03*
D28*
X57140000Y-74800000D03*
X59140000Y-74800000D03*
D27*
X51140000Y-63550000D03*
D28*
X50140000Y-60300000D03*
X52140000Y-60300000D03*
D11*
X50040000Y-74600000D03*
X51740000Y-74600000D03*
X65250000Y-78450000D03*
X66950000Y-78450000D03*
X53490000Y-97850000D03*
X51790000Y-97850000D03*
X42740000Y-97850000D03*
X41040000Y-97850000D03*
X36540000Y-78850000D03*
X38240000Y-78850000D03*
D29*
X46700000Y-55200000D03*
X46700000Y-53500000D03*
D11*
X40390000Y-112200000D03*
X40390000Y-110500000D03*
X52050000Y-111050000D03*
X53750000Y-111050000D03*
X68140000Y-84200000D03*
X68140000Y-82500000D03*
X68140000Y-85500000D03*
X68140000Y-87200000D03*
X54390000Y-134750000D03*
X54390000Y-136450000D03*
X60240000Y-141350000D03*
X58540000Y-141350000D03*
X55240000Y-72600000D03*
X53540000Y-72600000D03*
X45640000Y-67950000D03*
X45640000Y-66250000D03*
X54140000Y-116950000D03*
X54140000Y-115250000D03*
X42140000Y-115200000D03*
X42140000Y-113500000D03*
X58140000Y-125950000D03*
X58140000Y-124250000D03*
X47990000Y-79100000D03*
X46290000Y-79100000D03*
X65040000Y-136600000D03*
X66740000Y-136600000D03*
X68140000Y-119700000D03*
X68140000Y-118000000D03*
X62390000Y-92250000D03*
X62390000Y-93950000D03*
X59240000Y-136350000D03*
X57540000Y-136350000D03*
D12*
X64645400Y-90600000D03*
X67134600Y-90600000D03*
X35895400Y-75100000D03*
X38384600Y-75100000D03*
D23*
X35190000Y-115344600D03*
X35190000Y-112855400D03*
X36890000Y-112855400D03*
X36890000Y-115344600D03*
D24*
X33750000Y-55750000D03*
M02*
