G04 #@! TF.FileFunction,Other,ECO2*
%FSLAX46Y46*%
G04 Gerber Fmt 4.6, Leading zero omitted, Abs format (unit mm)*
G04 Created by KiCad (PCBNEW 4.0.2-stable) date 2019-06-26 1:43:45 PM*
%MOMM*%
G01*
G04 APERTURE LIST*
%ADD10C,0.200000*%
%ADD11C,0.300000*%
%ADD12C,0.100000*%
G04 APERTURE END LIST*
D10*
D11*
X183178571Y-34535714D02*
X184678571Y-34035714D01*
X183178571Y-33535714D01*
X184107143Y-33035714D02*
X184107143Y-31892857D01*
X184535714Y-30321428D02*
X184607143Y-30392857D01*
X184678571Y-30607143D01*
X184678571Y-30750000D01*
X184607143Y-30964285D01*
X184464286Y-31107143D01*
X184321429Y-31178571D01*
X184035714Y-31250000D01*
X183821429Y-31250000D01*
X183535714Y-31178571D01*
X183392857Y-31107143D01*
X183250000Y-30964285D01*
X183178571Y-30750000D01*
X183178571Y-30607143D01*
X183250000Y-30392857D01*
X183321429Y-30321428D01*
X183178571Y-29678571D02*
X184392857Y-29678571D01*
X184535714Y-29607143D01*
X184607143Y-29535714D01*
X184678571Y-29392857D01*
X184678571Y-29107143D01*
X184607143Y-28964285D01*
X184535714Y-28892857D01*
X184392857Y-28821428D01*
X183178571Y-28821428D01*
X183178571Y-28321428D02*
X183178571Y-27464285D01*
X184678571Y-27892856D02*
X183178571Y-27892856D01*
X107178571Y-169535714D02*
X108678571Y-169035714D01*
X107178571Y-168535714D01*
X108107143Y-168035714D02*
X108107143Y-166892857D01*
X108535714Y-165321428D02*
X108607143Y-165392857D01*
X108678571Y-165607143D01*
X108678571Y-165750000D01*
X108607143Y-165964285D01*
X108464286Y-166107143D01*
X108321429Y-166178571D01*
X108035714Y-166250000D01*
X107821429Y-166250000D01*
X107535714Y-166178571D01*
X107392857Y-166107143D01*
X107250000Y-165964285D01*
X107178571Y-165750000D01*
X107178571Y-165607143D01*
X107250000Y-165392857D01*
X107321429Y-165321428D01*
X107178571Y-164678571D02*
X108392857Y-164678571D01*
X108535714Y-164607143D01*
X108607143Y-164535714D01*
X108678571Y-164392857D01*
X108678571Y-164107143D01*
X108607143Y-163964285D01*
X108535714Y-163892857D01*
X108392857Y-163821428D01*
X107178571Y-163821428D01*
X107178571Y-163321428D02*
X107178571Y-162464285D01*
X108678571Y-162892856D02*
X107178571Y-162892856D01*
D12*
X222000000Y-35000000D02*
X222000000Y-162000000D01*
D11*
X69178571Y-169535714D02*
X70678571Y-169035714D01*
X69178571Y-168535714D01*
X70107143Y-168035714D02*
X70107143Y-166892857D01*
X70535714Y-165321428D02*
X70607143Y-165392857D01*
X70678571Y-165607143D01*
X70678571Y-165750000D01*
X70607143Y-165964285D01*
X70464286Y-166107143D01*
X70321429Y-166178571D01*
X70035714Y-166250000D01*
X69821429Y-166250000D01*
X69535714Y-166178571D01*
X69392857Y-166107143D01*
X69250000Y-165964285D01*
X69178571Y-165750000D01*
X69178571Y-165607143D01*
X69250000Y-165392857D01*
X69321429Y-165321428D01*
X69178571Y-164678571D02*
X70392857Y-164678571D01*
X70535714Y-164607143D01*
X70607143Y-164535714D01*
X70678571Y-164392857D01*
X70678571Y-164107143D01*
X70607143Y-163964285D01*
X70535714Y-163892857D01*
X70392857Y-163821428D01*
X69178571Y-163821428D01*
X69178571Y-163321428D02*
X69178571Y-162464285D01*
X70678571Y-162892856D02*
X69178571Y-162892856D01*
X145178571Y-169535714D02*
X146678571Y-169035714D01*
X145178571Y-168535714D01*
X146107143Y-168035714D02*
X146107143Y-166892857D01*
X146535714Y-165321428D02*
X146607143Y-165392857D01*
X146678571Y-165607143D01*
X146678571Y-165750000D01*
X146607143Y-165964285D01*
X146464286Y-166107143D01*
X146321429Y-166178571D01*
X146035714Y-166250000D01*
X145821429Y-166250000D01*
X145535714Y-166178571D01*
X145392857Y-166107143D01*
X145250000Y-165964285D01*
X145178571Y-165750000D01*
X145178571Y-165607143D01*
X145250000Y-165392857D01*
X145321429Y-165321428D01*
X145178571Y-164678571D02*
X146392857Y-164678571D01*
X146535714Y-164607143D01*
X146607143Y-164535714D01*
X146678571Y-164392857D01*
X146678571Y-164107143D01*
X146607143Y-163964285D01*
X146535714Y-163892857D01*
X146392857Y-163821428D01*
X145178571Y-163821428D01*
X145178571Y-163321428D02*
X145178571Y-162464285D01*
X146678571Y-162892856D02*
X145178571Y-162892856D01*
X221178571Y-169535714D02*
X222678571Y-169035714D01*
X221178571Y-168535714D01*
X222107143Y-168035714D02*
X222107143Y-166892857D01*
X222535714Y-165321428D02*
X222607143Y-165392857D01*
X222678571Y-165607143D01*
X222678571Y-165750000D01*
X222607143Y-165964285D01*
X222464286Y-166107143D01*
X222321429Y-166178571D01*
X222035714Y-166250000D01*
X221821429Y-166250000D01*
X221535714Y-166178571D01*
X221392857Y-166107143D01*
X221250000Y-165964285D01*
X221178571Y-165750000D01*
X221178571Y-165607143D01*
X221250000Y-165392857D01*
X221321429Y-165321428D01*
X221178571Y-164678571D02*
X222392857Y-164678571D01*
X222535714Y-164607143D01*
X222607143Y-164535714D01*
X222678571Y-164392857D01*
X222678571Y-164107143D01*
X222607143Y-163964285D01*
X222535714Y-163892857D01*
X222392857Y-163821428D01*
X221178571Y-163821428D01*
X221178571Y-163321428D02*
X221178571Y-162464285D01*
X222678571Y-162892856D02*
X221178571Y-162892856D01*
X183178571Y-169535714D02*
X184678571Y-169035714D01*
X183178571Y-168535714D01*
X184107143Y-168035714D02*
X184107143Y-166892857D01*
X184535714Y-165321428D02*
X184607143Y-165392857D01*
X184678571Y-165607143D01*
X184678571Y-165750000D01*
X184607143Y-165964285D01*
X184464286Y-166107143D01*
X184321429Y-166178571D01*
X184035714Y-166250000D01*
X183821429Y-166250000D01*
X183535714Y-166178571D01*
X183392857Y-166107143D01*
X183250000Y-165964285D01*
X183178571Y-165750000D01*
X183178571Y-165607143D01*
X183250000Y-165392857D01*
X183321429Y-165321428D01*
X183178571Y-164678571D02*
X184392857Y-164678571D01*
X184535714Y-164607143D01*
X184607143Y-164535714D01*
X184678571Y-164392857D01*
X184678571Y-164107143D01*
X184607143Y-163964285D01*
X184535714Y-163892857D01*
X184392857Y-163821428D01*
X183178571Y-163821428D01*
X183178571Y-163321428D02*
X183178571Y-162464285D01*
X184678571Y-162892856D02*
X183178571Y-162892856D01*
X221178571Y-34535714D02*
X222678571Y-34035714D01*
X221178571Y-33535714D01*
X222107143Y-33035714D02*
X222107143Y-31892857D01*
X222535714Y-30321428D02*
X222607143Y-30392857D01*
X222678571Y-30607143D01*
X222678571Y-30750000D01*
X222607143Y-30964285D01*
X222464286Y-31107143D01*
X222321429Y-31178571D01*
X222035714Y-31250000D01*
X221821429Y-31250000D01*
X221535714Y-31178571D01*
X221392857Y-31107143D01*
X221250000Y-30964285D01*
X221178571Y-30750000D01*
X221178571Y-30607143D01*
X221250000Y-30392857D01*
X221321429Y-30321428D01*
X221178571Y-29678571D02*
X222392857Y-29678571D01*
X222535714Y-29607143D01*
X222607143Y-29535714D01*
X222678571Y-29392857D01*
X222678571Y-29107143D01*
X222607143Y-28964285D01*
X222535714Y-28892857D01*
X222392857Y-28821428D01*
X221178571Y-28821428D01*
X221178571Y-28321428D02*
X221178571Y-27464285D01*
X222678571Y-27892856D02*
X221178571Y-27892856D01*
X145178571Y-34535714D02*
X146678571Y-34035714D01*
X145178571Y-33535714D01*
X146107143Y-33035714D02*
X146107143Y-31892857D01*
X146535714Y-30321428D02*
X146607143Y-30392857D01*
X146678571Y-30607143D01*
X146678571Y-30750000D01*
X146607143Y-30964285D01*
X146464286Y-31107143D01*
X146321429Y-31178571D01*
X146035714Y-31250000D01*
X145821429Y-31250000D01*
X145535714Y-31178571D01*
X145392857Y-31107143D01*
X145250000Y-30964285D01*
X145178571Y-30750000D01*
X145178571Y-30607143D01*
X145250000Y-30392857D01*
X145321429Y-30321428D01*
X145178571Y-29678571D02*
X146392857Y-29678571D01*
X146535714Y-29607143D01*
X146607143Y-29535714D01*
X146678571Y-29392857D01*
X146678571Y-29107143D01*
X146607143Y-28964285D01*
X146535714Y-28892857D01*
X146392857Y-28821428D01*
X145178571Y-28821428D01*
X145178571Y-28321428D02*
X145178571Y-27464285D01*
X146678571Y-27892856D02*
X145178571Y-27892856D01*
X107178571Y-34535714D02*
X108678571Y-34035714D01*
X107178571Y-33535714D01*
X108107143Y-33035714D02*
X108107143Y-31892857D01*
X108535714Y-30321428D02*
X108607143Y-30392857D01*
X108678571Y-30607143D01*
X108678571Y-30750000D01*
X108607143Y-30964285D01*
X108464286Y-31107143D01*
X108321429Y-31178571D01*
X108035714Y-31250000D01*
X107821429Y-31250000D01*
X107535714Y-31178571D01*
X107392857Y-31107143D01*
X107250000Y-30964285D01*
X107178571Y-30750000D01*
X107178571Y-30607143D01*
X107250000Y-30392857D01*
X107321429Y-30321428D01*
X107178571Y-29678571D02*
X108392857Y-29678571D01*
X108535714Y-29607143D01*
X108607143Y-29535714D01*
X108678571Y-29392857D01*
X108678571Y-29107143D01*
X108607143Y-28964285D01*
X108535714Y-28892857D01*
X108392857Y-28821428D01*
X107178571Y-28821428D01*
X107178571Y-28321428D02*
X107178571Y-27464285D01*
X108678571Y-27892856D02*
X107178571Y-27892856D01*
X69178571Y-34535714D02*
X70678571Y-34035714D01*
X69178571Y-33535714D01*
X70107143Y-33035714D02*
X70107143Y-31892857D01*
X70535714Y-30321428D02*
X70607143Y-30392857D01*
X70678571Y-30607143D01*
X70678571Y-30750000D01*
X70607143Y-30964285D01*
X70464286Y-31107143D01*
X70321429Y-31178571D01*
X70035714Y-31250000D01*
X69821429Y-31250000D01*
X69535714Y-31178571D01*
X69392857Y-31107143D01*
X69250000Y-30964285D01*
X69178571Y-30750000D01*
X69178571Y-30607143D01*
X69250000Y-30392857D01*
X69321429Y-30321428D01*
X69178571Y-29678571D02*
X70392857Y-29678571D01*
X70535714Y-29607143D01*
X70607143Y-29535714D01*
X70678571Y-29392857D01*
X70678571Y-29107143D01*
X70607143Y-28964285D01*
X70535714Y-28892857D01*
X70392857Y-28821428D01*
X69178571Y-28821428D01*
X69178571Y-28321428D02*
X69178571Y-27464285D01*
X70678571Y-27892856D02*
X69178571Y-27892856D01*
X265464286Y-151178571D02*
X265964286Y-152678571D01*
X266464286Y-151178571D01*
X266964286Y-152107143D02*
X268107143Y-152107143D01*
X269678572Y-152535714D02*
X269607143Y-152607143D01*
X269392857Y-152678571D01*
X269250000Y-152678571D01*
X269035715Y-152607143D01*
X268892857Y-152464286D01*
X268821429Y-152321429D01*
X268750000Y-152035714D01*
X268750000Y-151821429D01*
X268821429Y-151535714D01*
X268892857Y-151392857D01*
X269035715Y-151250000D01*
X269250000Y-151178571D01*
X269392857Y-151178571D01*
X269607143Y-151250000D01*
X269678572Y-151321429D01*
X270321429Y-151178571D02*
X270321429Y-152392857D01*
X270392857Y-152535714D01*
X270464286Y-152607143D01*
X270607143Y-152678571D01*
X270892857Y-152678571D01*
X271035715Y-152607143D01*
X271107143Y-152535714D01*
X271178572Y-152392857D01*
X271178572Y-151178571D01*
X271678572Y-151178571D02*
X272535715Y-151178571D01*
X272107144Y-152678571D02*
X272107144Y-151178571D01*
X265464286Y-45178571D02*
X265964286Y-46678571D01*
X266464286Y-45178571D01*
X266964286Y-46107143D02*
X268107143Y-46107143D01*
X269678572Y-46535714D02*
X269607143Y-46607143D01*
X269392857Y-46678571D01*
X269250000Y-46678571D01*
X269035715Y-46607143D01*
X268892857Y-46464286D01*
X268821429Y-46321429D01*
X268750000Y-46035714D01*
X268750000Y-45821429D01*
X268821429Y-45535714D01*
X268892857Y-45392857D01*
X269035715Y-45250000D01*
X269250000Y-45178571D01*
X269392857Y-45178571D01*
X269607143Y-45250000D01*
X269678572Y-45321429D01*
X270321429Y-45178571D02*
X270321429Y-46392857D01*
X270392857Y-46535714D01*
X270464286Y-46607143D01*
X270607143Y-46678571D01*
X270892857Y-46678571D01*
X271035715Y-46607143D01*
X271107143Y-46535714D01*
X271178572Y-46392857D01*
X271178572Y-45178571D01*
X271678572Y-45178571D02*
X272535715Y-45178571D01*
X272107144Y-46678571D02*
X272107144Y-45178571D01*
D12*
X184000000Y-35000000D02*
X184000000Y-162000000D01*
X146000000Y-35000000D02*
X146000000Y-162000000D01*
X108000000Y-35000000D02*
X108000000Y-162000000D01*
X70000000Y-35000000D02*
X70000000Y-162000000D01*
D11*
X19964286Y-151178571D02*
X20464286Y-152678571D01*
X20964286Y-151178571D01*
X21464286Y-152107143D02*
X22607143Y-152107143D01*
X24178572Y-152535714D02*
X24107143Y-152607143D01*
X23892857Y-152678571D01*
X23750000Y-152678571D01*
X23535715Y-152607143D01*
X23392857Y-152464286D01*
X23321429Y-152321429D01*
X23250000Y-152035714D01*
X23250000Y-151821429D01*
X23321429Y-151535714D01*
X23392857Y-151392857D01*
X23535715Y-151250000D01*
X23750000Y-151178571D01*
X23892857Y-151178571D01*
X24107143Y-151250000D01*
X24178572Y-151321429D01*
X24821429Y-151178571D02*
X24821429Y-152392857D01*
X24892857Y-152535714D01*
X24964286Y-152607143D01*
X25107143Y-152678571D01*
X25392857Y-152678571D01*
X25535715Y-152607143D01*
X25607143Y-152535714D01*
X25678572Y-152392857D01*
X25678572Y-151178571D01*
X26178572Y-151178571D02*
X27035715Y-151178571D01*
X26607144Y-152678571D02*
X26607144Y-151178571D01*
X18964286Y-45178571D02*
X19464286Y-46678571D01*
X19964286Y-45178571D01*
X20464286Y-46107143D02*
X21607143Y-46107143D01*
X23178572Y-46535714D02*
X23107143Y-46607143D01*
X22892857Y-46678571D01*
X22750000Y-46678571D01*
X22535715Y-46607143D01*
X22392857Y-46464286D01*
X22321429Y-46321429D01*
X22250000Y-46035714D01*
X22250000Y-45821429D01*
X22321429Y-45535714D01*
X22392857Y-45392857D01*
X22535715Y-45250000D01*
X22750000Y-45178571D01*
X22892857Y-45178571D01*
X23107143Y-45250000D01*
X23178572Y-45321429D01*
X23821429Y-45178571D02*
X23821429Y-46392857D01*
X23892857Y-46535714D01*
X23964286Y-46607143D01*
X24107143Y-46678571D01*
X24392857Y-46678571D01*
X24535715Y-46607143D01*
X24607143Y-46535714D01*
X24678572Y-46392857D01*
X24678572Y-45178571D01*
X25178572Y-45178571D02*
X26035715Y-45178571D01*
X25607144Y-46678571D02*
X25607144Y-45178571D01*
D12*
X27000000Y-46000000D02*
X265000000Y-46000000D01*
X27000000Y-152000000D02*
X265000000Y-152000000D01*
M02*
