G04 #@! TF.FileFunction,Copper,L1,Top,Signal*
%FSLAX46Y46*%
G04 Gerber Fmt 4.6, Leading zero omitted, Abs format (unit mm)*
G04 Created by KiCad (PCBNEW 4.0.2-stable) date 2019-06-26 1:43:44 PM*
%MOMM*%
G01*
G04 APERTURE LIST*
%ADD10C,0.200000*%
%ADD11R,1.700000X1.700000*%
%ADD12O,1.700000X1.700000*%
%ADD13R,2.500000X3.500000*%
%ADD14R,2.500000X2.750000*%
%ADD15C,1.750000*%
%ADD16O,4.000000X2.500000*%
%ADD17O,2.500000X2.000000*%
%ADD18O,1.500000X3.500000*%
%ADD19R,2.500000X3.000000*%
%ADD20R,1.200000X1.400000*%
%ADD21C,1.400000*%
%ADD22R,1.400000X1.400000*%
%ADD23O,2.200000X1.400000*%
%ADD24O,2.250000X1.400000*%
%ADD25C,1.200000*%
%ADD26C,0.900000*%
%ADD27C,0.250000*%
%ADD28C,0.350000*%
G04 APERTURE END LIST*
D10*
D11*
X254300000Y-67550000D03*
D12*
X256840000Y-67550000D03*
X254300000Y-65010000D03*
X256840000Y-65010000D03*
X254300000Y-62470000D03*
X256840000Y-62470000D03*
X254300000Y-59930000D03*
X256840000Y-59930000D03*
X254300000Y-57390000D03*
X256840000Y-57390000D03*
D11*
X216300000Y-67550000D03*
D12*
X218840000Y-67550000D03*
X216300000Y-65010000D03*
X218840000Y-65010000D03*
X216300000Y-62470000D03*
X218840000Y-62470000D03*
X216300000Y-59930000D03*
X218840000Y-59930000D03*
X216300000Y-57390000D03*
X218840000Y-57390000D03*
D13*
X252800000Y-53250000D03*
D14*
X243200000Y-53250000D03*
D15*
X250500000Y-60750000D03*
X248000000Y-60750000D03*
X245500000Y-60750000D03*
D16*
X255000000Y-149700000D03*
D17*
X255000000Y-140300000D03*
D18*
X250100000Y-145000000D03*
X258300000Y-145000000D03*
D13*
X252800000Y-125250000D03*
D19*
X243200000Y-125250000D03*
D15*
X250500000Y-132750000D03*
X248000000Y-132750000D03*
X245500000Y-132750000D03*
D16*
X241000000Y-140300000D03*
D17*
X241000000Y-149700000D03*
D18*
X245900000Y-145000000D03*
X237700000Y-145000000D03*
D13*
X214800000Y-53250000D03*
D14*
X205200000Y-53250000D03*
D15*
X212500000Y-60750000D03*
X210000000Y-60750000D03*
X207500000Y-60750000D03*
D20*
X194580000Y-58250000D03*
D21*
X197120000Y-58250000D03*
D22*
X194580000Y-48250000D03*
D21*
X197120000Y-48250000D03*
D22*
X194580000Y-53250000D03*
D21*
X197120000Y-53250000D03*
D23*
X185750000Y-53500000D03*
X185750000Y-58000000D03*
D24*
X192250000Y-53500000D03*
X192250000Y-58000000D03*
D16*
X189000000Y-120550000D03*
D17*
X189000000Y-129950000D03*
D18*
X193900000Y-125250000D03*
X185700000Y-125250000D03*
D16*
X189000000Y-140300000D03*
D17*
X189000000Y-149700000D03*
D18*
X193900000Y-145000000D03*
X185700000Y-145000000D03*
D16*
X203000000Y-140300000D03*
D17*
X203000000Y-149700000D03*
D18*
X207900000Y-145000000D03*
X199700000Y-145000000D03*
D16*
X227000000Y-72550000D03*
D17*
X227000000Y-81950000D03*
D18*
X231900000Y-77250000D03*
X223700000Y-77250000D03*
D13*
X252800000Y-101250000D03*
X243200000Y-101250000D03*
D15*
X250500000Y-108750000D03*
X248000000Y-108750000D03*
X245500000Y-108750000D03*
D20*
X232580000Y-63250000D03*
D21*
X235120000Y-63250000D03*
D16*
X227000000Y-96550000D03*
D17*
X227000000Y-105950000D03*
D18*
X231900000Y-101250000D03*
X223700000Y-101250000D03*
D19*
X252800000Y-77250000D03*
X243200000Y-77250000D03*
D15*
X250500000Y-84750000D03*
X248000000Y-84750000D03*
X245500000Y-84750000D03*
D23*
X223750000Y-53500000D03*
X223750000Y-58000000D03*
D24*
X230250000Y-53500000D03*
X230250000Y-58000000D03*
D22*
X232580000Y-48250000D03*
D21*
X235120000Y-48250000D03*
D20*
X232580000Y-58250000D03*
D21*
X235120000Y-58250000D03*
D22*
X232580000Y-53250000D03*
D21*
X235120000Y-53250000D03*
D16*
X227000000Y-140300000D03*
D17*
X227000000Y-149700000D03*
D18*
X231900000Y-145000000D03*
X223700000Y-145000000D03*
D13*
X214800000Y-125250000D03*
D19*
X205200000Y-125250000D03*
D15*
X212500000Y-132750000D03*
X210000000Y-132750000D03*
X207500000Y-132750000D03*
D16*
X217000000Y-149700000D03*
D17*
X217000000Y-140300000D03*
D18*
X212100000Y-145000000D03*
X220300000Y-145000000D03*
D16*
X227000000Y-120550000D03*
D17*
X227000000Y-129950000D03*
D18*
X231900000Y-125250000D03*
X223700000Y-125250000D03*
D19*
X214800000Y-77250000D03*
X205200000Y-77250000D03*
D15*
X212500000Y-84750000D03*
X210000000Y-84750000D03*
X207500000Y-84750000D03*
D16*
X189000000Y-96550000D03*
D17*
X189000000Y-105950000D03*
D18*
X193900000Y-101250000D03*
X185700000Y-101250000D03*
D13*
X214800000Y-101250000D03*
X205200000Y-101250000D03*
D15*
X212500000Y-108750000D03*
X210000000Y-108750000D03*
X207500000Y-108750000D03*
D20*
X194580000Y-63250000D03*
D21*
X197120000Y-63250000D03*
D16*
X189000000Y-72550000D03*
D17*
X189000000Y-81950000D03*
D18*
X193900000Y-77250000D03*
X185700000Y-77250000D03*
D11*
X178300000Y-67550000D03*
D12*
X180840000Y-67550000D03*
X178300000Y-65010000D03*
X180840000Y-65010000D03*
X178300000Y-62470000D03*
X180840000Y-62470000D03*
X178300000Y-59930000D03*
X180840000Y-59930000D03*
X178300000Y-57390000D03*
X180840000Y-57390000D03*
D11*
X140300000Y-67550000D03*
D12*
X142840000Y-67550000D03*
X140300000Y-65010000D03*
X142840000Y-65010000D03*
X140300000Y-62470000D03*
X142840000Y-62470000D03*
X140300000Y-59930000D03*
X142840000Y-59930000D03*
X140300000Y-57390000D03*
X142840000Y-57390000D03*
D13*
X176800000Y-53250000D03*
D14*
X167200000Y-53250000D03*
D15*
X174500000Y-60750000D03*
X172000000Y-60750000D03*
X169500000Y-60750000D03*
D16*
X179000000Y-149700000D03*
D17*
X179000000Y-140300000D03*
D18*
X174100000Y-145000000D03*
X182300000Y-145000000D03*
D13*
X176800000Y-125250000D03*
D19*
X167200000Y-125250000D03*
D15*
X174500000Y-132750000D03*
X172000000Y-132750000D03*
X169500000Y-132750000D03*
D16*
X165000000Y-140300000D03*
D17*
X165000000Y-149700000D03*
D18*
X169900000Y-145000000D03*
X161700000Y-145000000D03*
D13*
X138800000Y-53250000D03*
D14*
X129200000Y-53250000D03*
D15*
X136500000Y-60750000D03*
X134000000Y-60750000D03*
X131500000Y-60750000D03*
D20*
X118580000Y-58250000D03*
D21*
X121120000Y-58250000D03*
D22*
X118580000Y-48250000D03*
D21*
X121120000Y-48250000D03*
D22*
X118580000Y-53250000D03*
D21*
X121120000Y-53250000D03*
D23*
X109750000Y-53500000D03*
X109750000Y-58000000D03*
D24*
X116250000Y-53500000D03*
X116250000Y-58000000D03*
D16*
X113000000Y-120550000D03*
D17*
X113000000Y-129950000D03*
D18*
X117900000Y-125250000D03*
X109700000Y-125250000D03*
D16*
X113000000Y-140300000D03*
D17*
X113000000Y-149700000D03*
D18*
X117900000Y-145000000D03*
X109700000Y-145000000D03*
D16*
X127000000Y-140300000D03*
D17*
X127000000Y-149700000D03*
D18*
X131900000Y-145000000D03*
X123700000Y-145000000D03*
D16*
X151000000Y-72550000D03*
D17*
X151000000Y-81950000D03*
D18*
X155900000Y-77250000D03*
X147700000Y-77250000D03*
D13*
X176800000Y-101250000D03*
X167200000Y-101250000D03*
D15*
X174500000Y-108750000D03*
X172000000Y-108750000D03*
X169500000Y-108750000D03*
D20*
X156580000Y-63250000D03*
D21*
X159120000Y-63250000D03*
D16*
X151000000Y-96550000D03*
D17*
X151000000Y-105950000D03*
D18*
X155900000Y-101250000D03*
X147700000Y-101250000D03*
D19*
X176800000Y-77250000D03*
X167200000Y-77250000D03*
D15*
X174500000Y-84750000D03*
X172000000Y-84750000D03*
X169500000Y-84750000D03*
D23*
X147750000Y-53500000D03*
X147750000Y-58000000D03*
D24*
X154250000Y-53500000D03*
X154250000Y-58000000D03*
D22*
X156580000Y-48250000D03*
D21*
X159120000Y-48250000D03*
D20*
X156580000Y-58250000D03*
D21*
X159120000Y-58250000D03*
D22*
X156580000Y-53250000D03*
D21*
X159120000Y-53250000D03*
D16*
X151000000Y-140300000D03*
D17*
X151000000Y-149700000D03*
D18*
X155900000Y-145000000D03*
X147700000Y-145000000D03*
D13*
X138800000Y-125250000D03*
D19*
X129200000Y-125250000D03*
D15*
X136500000Y-132750000D03*
X134000000Y-132750000D03*
X131500000Y-132750000D03*
D16*
X141000000Y-149700000D03*
D17*
X141000000Y-140300000D03*
D18*
X136100000Y-145000000D03*
X144300000Y-145000000D03*
D16*
X151000000Y-120550000D03*
D17*
X151000000Y-129950000D03*
D18*
X155900000Y-125250000D03*
X147700000Y-125250000D03*
D19*
X138800000Y-77250000D03*
X129200000Y-77250000D03*
D15*
X136500000Y-84750000D03*
X134000000Y-84750000D03*
X131500000Y-84750000D03*
D16*
X113000000Y-96550000D03*
D17*
X113000000Y-105950000D03*
D18*
X117900000Y-101250000D03*
X109700000Y-101250000D03*
D13*
X138800000Y-101250000D03*
X129200000Y-101250000D03*
D15*
X136500000Y-108750000D03*
X134000000Y-108750000D03*
X131500000Y-108750000D03*
D20*
X118580000Y-63250000D03*
D21*
X121120000Y-63250000D03*
D16*
X113000000Y-72550000D03*
D17*
X113000000Y-81950000D03*
D18*
X117900000Y-77250000D03*
X109700000Y-77250000D03*
D11*
X102300000Y-67550000D03*
D12*
X104840000Y-67550000D03*
X102300000Y-65010000D03*
X104840000Y-65010000D03*
X102300000Y-62470000D03*
X104840000Y-62470000D03*
X102300000Y-59930000D03*
X104840000Y-59930000D03*
X102300000Y-57390000D03*
X104840000Y-57390000D03*
D13*
X100800000Y-53250000D03*
D14*
X91200000Y-53250000D03*
D15*
X98500000Y-60750000D03*
X96000000Y-60750000D03*
X93500000Y-60750000D03*
D13*
X100800000Y-125250000D03*
D19*
X91200000Y-125250000D03*
D15*
X98500000Y-132750000D03*
X96000000Y-132750000D03*
X93500000Y-132750000D03*
D16*
X103000000Y-149700000D03*
D17*
X103000000Y-140300000D03*
D18*
X98100000Y-145000000D03*
X106300000Y-145000000D03*
D13*
X100800000Y-101250000D03*
X91200000Y-101250000D03*
D15*
X98500000Y-108750000D03*
X96000000Y-108750000D03*
X93500000Y-108750000D03*
D19*
X100800000Y-77250000D03*
X91200000Y-77250000D03*
D15*
X98500000Y-84750000D03*
X96000000Y-84750000D03*
X93500000Y-84750000D03*
D16*
X75000000Y-72550000D03*
D17*
X75000000Y-81950000D03*
D18*
X79900000Y-77250000D03*
X71700000Y-77250000D03*
D16*
X75000000Y-96550000D03*
D17*
X75000000Y-105950000D03*
D18*
X79900000Y-101250000D03*
X71700000Y-101250000D03*
D20*
X80580000Y-63250000D03*
D21*
X83120000Y-63250000D03*
D23*
X71750000Y-53500000D03*
X71750000Y-58000000D03*
D24*
X78250000Y-53500000D03*
X78250000Y-58000000D03*
D22*
X80580000Y-53250000D03*
D21*
X83120000Y-53250000D03*
D22*
X80580000Y-48250000D03*
D21*
X83120000Y-48250000D03*
D20*
X80580000Y-58250000D03*
D21*
X83120000Y-58250000D03*
D16*
X75000000Y-140300000D03*
D17*
X75000000Y-149700000D03*
D18*
X79900000Y-145000000D03*
X71700000Y-145000000D03*
D16*
X75000000Y-120550000D03*
D17*
X75000000Y-129950000D03*
D18*
X79900000Y-125250000D03*
X71700000Y-125250000D03*
D16*
X89000000Y-140300000D03*
D17*
X89000000Y-149700000D03*
D18*
X93900000Y-145000000D03*
X85700000Y-145000000D03*
D22*
X42580000Y-48250000D03*
D21*
X45120000Y-48250000D03*
D22*
X42580000Y-53250000D03*
D21*
X45120000Y-53250000D03*
D20*
X42580000Y-58250000D03*
D21*
X45120000Y-58250000D03*
D20*
X42580000Y-63250000D03*
D21*
X45120000Y-63250000D03*
D16*
X37000000Y-72550000D03*
D17*
X37000000Y-81950000D03*
D18*
X41900000Y-77250000D03*
X33700000Y-77250000D03*
D16*
X37000000Y-96550000D03*
D17*
X37000000Y-105950000D03*
D18*
X41900000Y-101250000D03*
X33700000Y-101250000D03*
D16*
X51000000Y-140300000D03*
D17*
X51000000Y-149700000D03*
D18*
X55900000Y-145000000D03*
X47700000Y-145000000D03*
D16*
X37000000Y-120550000D03*
D17*
X37000000Y-129950000D03*
D18*
X41900000Y-125250000D03*
X33700000Y-125250000D03*
D16*
X37000000Y-140300000D03*
D17*
X37000000Y-149700000D03*
D18*
X41900000Y-145000000D03*
X33700000Y-145000000D03*
D16*
X65000000Y-149700000D03*
D17*
X65000000Y-140300000D03*
D18*
X60100000Y-145000000D03*
X68300000Y-145000000D03*
D11*
X64300000Y-67550000D03*
D12*
X66840000Y-67550000D03*
X64300000Y-65010000D03*
X66840000Y-65010000D03*
X64300000Y-62470000D03*
X66840000Y-62470000D03*
X64300000Y-59930000D03*
X66840000Y-59930000D03*
X64300000Y-57390000D03*
X66840000Y-57390000D03*
D23*
X33750000Y-53500000D03*
X33750000Y-58000000D03*
D24*
X40250000Y-53500000D03*
X40250000Y-58000000D03*
D13*
X62800000Y-125250000D03*
D19*
X53200000Y-125250000D03*
D15*
X60500000Y-132750000D03*
X58000000Y-132750000D03*
X55500000Y-132750000D03*
D13*
X62800000Y-101250000D03*
X53200000Y-101250000D03*
D15*
X60500000Y-108750000D03*
X58000000Y-108750000D03*
X55500000Y-108750000D03*
D19*
X62800000Y-77250000D03*
X53200000Y-77250000D03*
D15*
X60500000Y-84750000D03*
X58000000Y-84750000D03*
X55500000Y-84750000D03*
D13*
X62800000Y-53250000D03*
D14*
X53200000Y-53250000D03*
D15*
X60500000Y-60750000D03*
X58000000Y-60750000D03*
X55500000Y-60750000D03*
D25*
X237934834Y-110733633D03*
X236290000Y-112250000D03*
X237640000Y-118975020D03*
X245890000Y-122100000D03*
X252340000Y-130700000D03*
X235889967Y-128750000D03*
X251890000Y-141800000D03*
X198165020Y-75000000D03*
X199640000Y-67950000D03*
X200889992Y-60350000D03*
X206140000Y-62350000D03*
X187590000Y-47400000D03*
X210440000Y-51700000D03*
X209090000Y-51700000D03*
X197540000Y-50350000D03*
X189115020Y-69872237D03*
X188417738Y-63100000D03*
X188417738Y-58906624D03*
X199640000Y-118975020D03*
X207890000Y-122100000D03*
X214340000Y-130700000D03*
X197889967Y-128750000D03*
X213890000Y-141800000D03*
X253640000Y-88000000D03*
X234692188Y-97938091D03*
X242890000Y-94350000D03*
X215640000Y-88000000D03*
X198290000Y-112250000D03*
X204890000Y-94350000D03*
X196692188Y-97938091D03*
X199934834Y-110733633D03*
X237640000Y-67950000D03*
X226417738Y-63100000D03*
X238889992Y-60350000D03*
X249190000Y-70350000D03*
X244140000Y-62350000D03*
X225590000Y-47400000D03*
X226417738Y-58906624D03*
X235540000Y-50350000D03*
X249740000Y-51700000D03*
X248440000Y-51700000D03*
X247090000Y-51700000D03*
X211740000Y-51700000D03*
X211190000Y-70350000D03*
X236165020Y-75000000D03*
X227115020Y-69872237D03*
X161934834Y-110733633D03*
X160290000Y-112250000D03*
X161640000Y-118975020D03*
X169890000Y-122100000D03*
X176340000Y-130700000D03*
X159889967Y-128750000D03*
X175890000Y-141800000D03*
X122165020Y-75000000D03*
X123640000Y-67950000D03*
X124889992Y-60350000D03*
X130140000Y-62350000D03*
X111590000Y-47400000D03*
X134440000Y-51700000D03*
X133090000Y-51700000D03*
X121540000Y-50350000D03*
X113115020Y-69872237D03*
X112417738Y-63100000D03*
X112417738Y-58906624D03*
X123640000Y-118975020D03*
X131890000Y-122100000D03*
X138340000Y-130700000D03*
X121889967Y-128750000D03*
X137890000Y-141800000D03*
X177640000Y-88000000D03*
X158692188Y-97938091D03*
X166890000Y-94350000D03*
X139640000Y-88000000D03*
X122290000Y-112250000D03*
X128890000Y-94350000D03*
X120692188Y-97938091D03*
X123934834Y-110733633D03*
X161640000Y-67950000D03*
X150417738Y-63100000D03*
X162889992Y-60350000D03*
X173190000Y-70350000D03*
X168140000Y-62350000D03*
X149590000Y-47400000D03*
X150417738Y-58906624D03*
X159540000Y-50350000D03*
X173740000Y-51700000D03*
X172440000Y-51700000D03*
X171090000Y-51700000D03*
X135740000Y-51700000D03*
X135190000Y-70350000D03*
X160165020Y-75000000D03*
X151115020Y-69872237D03*
X90890000Y-94350000D03*
X82692188Y-97938091D03*
X84290000Y-112250000D03*
X101640000Y-88000000D03*
X85934834Y-110733633D03*
X97190000Y-70350000D03*
X92140000Y-62350000D03*
X86889992Y-60350000D03*
X85640000Y-67950000D03*
X84165020Y-75000000D03*
X83540000Y-50350000D03*
X73590000Y-47400000D03*
X74417738Y-58906624D03*
X97740000Y-51700000D03*
X96440000Y-51700000D03*
X95090000Y-51700000D03*
X75115020Y-69872237D03*
X74417738Y-63100000D03*
X85640000Y-118975020D03*
X83889967Y-128750000D03*
X93890000Y-122100000D03*
X100340000Y-130700000D03*
X99890000Y-141800000D03*
X55890000Y-122100000D03*
X61890000Y-141800000D03*
X44692188Y-97938091D03*
X46165020Y-75000000D03*
X46290000Y-112250000D03*
X45889967Y-128750000D03*
X47934834Y-110733633D03*
X54140000Y-62350000D03*
X47640000Y-118975020D03*
X59190000Y-70350000D03*
X36417738Y-63100000D03*
X62340000Y-130700000D03*
X47640000Y-67950000D03*
X63640000Y-88000000D03*
X52890000Y-94350000D03*
X48889992Y-60350000D03*
X37115020Y-69872237D03*
X36417738Y-58906624D03*
X57090000Y-51700000D03*
X58440000Y-51700000D03*
X35590000Y-47400000D03*
X45540000Y-50350000D03*
X59740000Y-51700000D03*
X238636930Y-115166809D03*
X250340000Y-115450000D03*
X245090000Y-112050000D03*
X230390000Y-113500000D03*
X256790000Y-133450000D03*
X246440000Y-128650000D03*
X241655870Y-129467016D03*
X236491402Y-122400000D03*
X237990000Y-124950000D03*
X246190000Y-138250000D03*
X207690000Y-70500000D03*
X193323066Y-51907859D03*
X207690000Y-47600000D03*
X187428009Y-49278281D03*
X208190000Y-78700000D03*
X201490019Y-82414910D03*
X202040000Y-78900000D03*
X187890000Y-64850000D03*
X198491402Y-122400000D03*
X199990000Y-124950000D03*
X208440000Y-128650000D03*
X218790000Y-133450000D03*
X203655870Y-129467016D03*
X212340000Y-115450000D03*
X208190000Y-138250000D03*
X239490019Y-82414910D03*
X212890000Y-94050000D03*
X215800000Y-96650000D03*
X219400000Y-102750000D03*
X219400000Y-104250000D03*
X219400000Y-105750000D03*
X250890000Y-94050000D03*
X244879452Y-97810566D03*
X253800000Y-96650000D03*
X247200000Y-88550000D03*
X241624980Y-90200000D03*
X209200000Y-88550000D03*
X257400000Y-104250000D03*
X257400000Y-105750000D03*
X257400000Y-102750000D03*
X192390000Y-113500000D03*
X200636930Y-115166809D03*
X206879452Y-97810566D03*
X203624980Y-90200000D03*
X207090000Y-112050000D03*
X240040000Y-78900000D03*
X246190000Y-78700000D03*
X245690000Y-70500000D03*
X225428009Y-49278281D03*
X231323066Y-51907859D03*
X258090000Y-51700000D03*
X245690000Y-47600000D03*
X220090000Y-51700000D03*
X225890000Y-64850000D03*
X162636930Y-115166809D03*
X174340000Y-115450000D03*
X169090000Y-112050000D03*
X154390000Y-113500000D03*
X180790000Y-133450000D03*
X170440000Y-128650000D03*
X165655870Y-129467016D03*
X160491402Y-122400000D03*
X161990000Y-124950000D03*
X170190000Y-138250000D03*
X131690000Y-70500000D03*
X117323066Y-51907859D03*
X131690000Y-47600000D03*
X111428009Y-49278281D03*
X132190000Y-78700000D03*
X125490019Y-82414910D03*
X126040000Y-78900000D03*
X111890000Y-64850000D03*
X122491402Y-122400000D03*
X123990000Y-124950000D03*
X132440000Y-128650000D03*
X142790000Y-133450000D03*
X127655870Y-129467016D03*
X136340000Y-115450000D03*
X132190000Y-138250000D03*
X163490019Y-82414910D03*
X136890000Y-94050000D03*
X139800000Y-96650000D03*
X143400000Y-102750000D03*
X143400000Y-104250000D03*
X143400000Y-105750000D03*
X174890000Y-94050000D03*
X168879452Y-97810566D03*
X177800000Y-96650000D03*
X171200000Y-88550000D03*
X165624980Y-90200000D03*
X133200000Y-88550000D03*
X181400000Y-104250000D03*
X181400000Y-105750000D03*
X181400000Y-102750000D03*
X116390000Y-113500000D03*
X124636930Y-115166809D03*
X130879452Y-97810566D03*
X127624980Y-90200000D03*
X131090000Y-112050000D03*
X164040000Y-78900000D03*
X170190000Y-78700000D03*
X169690000Y-70500000D03*
X149428009Y-49278281D03*
X155323066Y-51907859D03*
X182090000Y-51700000D03*
X169690000Y-47600000D03*
X144090000Y-51700000D03*
X149890000Y-64850000D03*
X89624980Y-90200000D03*
X92879452Y-97810566D03*
X78390000Y-113500000D03*
X95200000Y-88550000D03*
X94190000Y-78700000D03*
X88040000Y-78900000D03*
X87490019Y-82414910D03*
X105400000Y-104250000D03*
X98890000Y-94050000D03*
X105400000Y-105750000D03*
X105400000Y-102750000D03*
X101800000Y-96650000D03*
X93090000Y-112050000D03*
X93690000Y-70500000D03*
X73428009Y-49278281D03*
X79323066Y-51907859D03*
X106090000Y-51700000D03*
X93690000Y-47600000D03*
X73890000Y-64850000D03*
X86636930Y-115166809D03*
X98340000Y-115450000D03*
X84491402Y-122400000D03*
X85990000Y-124950000D03*
X94440000Y-128650000D03*
X89655870Y-129467016D03*
X94190000Y-138250000D03*
X104790000Y-133450000D03*
X51624980Y-90200000D03*
X49490019Y-82414910D03*
X41323066Y-51907859D03*
X63800000Y-96650000D03*
X67400000Y-102750000D03*
X67400000Y-105750000D03*
X67400000Y-104250000D03*
X57200000Y-88550000D03*
X54879452Y-97810566D03*
X55690000Y-47600000D03*
X68090000Y-51700000D03*
X35890000Y-64850000D03*
X50040000Y-78900000D03*
X66790000Y-133450000D03*
X55690000Y-70500000D03*
X48636930Y-115166809D03*
X56190000Y-138250000D03*
X56190000Y-78700000D03*
X35428009Y-49278281D03*
X60340000Y-115450000D03*
X55090000Y-112050000D03*
X40390000Y-113500000D03*
X51655870Y-129467016D03*
X46491402Y-122400000D03*
X56440000Y-128650000D03*
X60890000Y-94050000D03*
X47990000Y-124950000D03*
X252040000Y-119250000D03*
X235946242Y-115600000D03*
X238290000Y-128800000D03*
X235990000Y-136300000D03*
X245625565Y-136304760D03*
X201490019Y-76900000D03*
X205540000Y-74350000D03*
X200290000Y-128800000D03*
X197990000Y-136300000D03*
X214040000Y-119250000D03*
X207625565Y-136304760D03*
X256362460Y-83788006D03*
X253690000Y-83800000D03*
X226040000Y-88200000D03*
X218362460Y-83788006D03*
X230355394Y-109351952D03*
X236614980Y-103200000D03*
X239890000Y-97694744D03*
X248639987Y-91194430D03*
X215690000Y-83800000D03*
X210639987Y-91194430D03*
X197946242Y-115600000D03*
X188040000Y-88200000D03*
X201890000Y-97694744D03*
X192355394Y-109351952D03*
X198614980Y-103200000D03*
X239490019Y-76900000D03*
X243540000Y-74350000D03*
X252400000Y-67450000D03*
X252400000Y-66150000D03*
X252400000Y-64850000D03*
X214400000Y-64850000D03*
X214400000Y-66150000D03*
X214400000Y-67450000D03*
X176040000Y-119250000D03*
X159946242Y-115600000D03*
X162290000Y-128800000D03*
X159990000Y-136300000D03*
X169625565Y-136304760D03*
X125490019Y-76900000D03*
X129540000Y-74350000D03*
X124290000Y-128800000D03*
X121990000Y-136300000D03*
X138040000Y-119250000D03*
X131625565Y-136304760D03*
X180362460Y-83788006D03*
X177690000Y-83800000D03*
X150040000Y-88200000D03*
X142362460Y-83788006D03*
X154355394Y-109351952D03*
X160614980Y-103200000D03*
X163890000Y-97694744D03*
X172639987Y-91194430D03*
X139690000Y-83800000D03*
X134639987Y-91194430D03*
X121946242Y-115600000D03*
X112040000Y-88200000D03*
X125890000Y-97694744D03*
X116355394Y-109351952D03*
X122614980Y-103200000D03*
X163490019Y-76900000D03*
X167540000Y-74350000D03*
X176400000Y-67450000D03*
X176400000Y-66150000D03*
X176400000Y-64850000D03*
X138400000Y-64850000D03*
X138400000Y-66150000D03*
X138400000Y-67450000D03*
X74040000Y-88200000D03*
X87890000Y-97694744D03*
X78355394Y-109351952D03*
X101690000Y-83800000D03*
X96639987Y-91194430D03*
X104362460Y-83788006D03*
X84614980Y-103200000D03*
X100400000Y-66150000D03*
X100400000Y-64850000D03*
X100400000Y-67450000D03*
X91540000Y-74350000D03*
X87490019Y-76900000D03*
X83946242Y-115600000D03*
X83990000Y-136300000D03*
X86290000Y-128800000D03*
X100040000Y-119250000D03*
X93625565Y-136304760D03*
X49490019Y-76900000D03*
X62400000Y-64850000D03*
X62400000Y-66150000D03*
X62400000Y-67450000D03*
X46614980Y-103200000D03*
X45990000Y-136300000D03*
X48290000Y-128800000D03*
X55625565Y-136304760D03*
X40355394Y-109351952D03*
X36040000Y-88200000D03*
X53540000Y-74350000D03*
X58639987Y-91194430D03*
X45946242Y-115600000D03*
X63690000Y-83800000D03*
X49890000Y-97694744D03*
X62040000Y-119250000D03*
X66362460Y-83788006D03*
D26*
X242390000Y-121600000D03*
X204390000Y-121600000D03*
X224290002Y-112850000D03*
X186290002Y-112850000D03*
X166390000Y-121600000D03*
X128390000Y-121600000D03*
X148290002Y-112850000D03*
X110290002Y-112850000D03*
X72290002Y-112850000D03*
X90390000Y-121600000D03*
X34290002Y-112850000D03*
X52390000Y-121600000D03*
X195890000Y-68300000D03*
X233890000Y-68300000D03*
X119890000Y-68300000D03*
X157890000Y-68300000D03*
X81890000Y-68300000D03*
X43890000Y-68300000D03*
X256390000Y-120600000D03*
X246400000Y-110749990D03*
X218390000Y-120600000D03*
X229600000Y-92150000D03*
X191600000Y-92150000D03*
X208400000Y-110749990D03*
X180390000Y-120600000D03*
X170400000Y-110749990D03*
X142390000Y-120600000D03*
X153600000Y-92150000D03*
X115600000Y-92150000D03*
X132400000Y-110749990D03*
X77600000Y-92150000D03*
X94400000Y-110749990D03*
X104390000Y-120600000D03*
X56400000Y-110749990D03*
X39600000Y-92150000D03*
X66390000Y-120600000D03*
X248140000Y-127400000D03*
X210140000Y-127400000D03*
X246940000Y-106950000D03*
X208940000Y-106950000D03*
X172140000Y-127400000D03*
X134140000Y-127400000D03*
X170940000Y-106950000D03*
X132940000Y-106950000D03*
X94940000Y-106950000D03*
X96140000Y-127400000D03*
X58140000Y-127400000D03*
X56940000Y-106950000D03*
X250240000Y-118000000D03*
X230840000Y-116700000D03*
X212240000Y-118000000D03*
X192840000Y-116700000D03*
X174240000Y-118000000D03*
X154840000Y-116700000D03*
X136240000Y-118000000D03*
X116840000Y-116700000D03*
X78840000Y-116700000D03*
X98240000Y-118000000D03*
X60240000Y-118000000D03*
X40840000Y-116700000D03*
X237425777Y-116710124D03*
X253390000Y-144000000D03*
X199425777Y-116710124D03*
X215390000Y-144000000D03*
X161425777Y-116710124D03*
X177390000Y-144000000D03*
X123425777Y-116710124D03*
X139390000Y-144000000D03*
X85425777Y-116710124D03*
X101390000Y-144000000D03*
X47425777Y-116710124D03*
X63390000Y-144000000D03*
X217890000Y-95400000D03*
X255890000Y-95400000D03*
X141890000Y-95400000D03*
X179890000Y-95400000D03*
X103890000Y-95400000D03*
X65890000Y-95400000D03*
X206990000Y-81650002D03*
X244990000Y-81650002D03*
X130990000Y-81650002D03*
X168990000Y-81650002D03*
X92990000Y-81650002D03*
X54990000Y-81650002D03*
X252390000Y-82849994D03*
X213140000Y-98200000D03*
X251140000Y-98200000D03*
X214390000Y-82849994D03*
X176390000Y-82849994D03*
X137140000Y-98200000D03*
X175140000Y-98200000D03*
X138390000Y-82849994D03*
X100390000Y-82849994D03*
X99140000Y-98200000D03*
X61140000Y-98200000D03*
X62390000Y-82849994D03*
X256390000Y-112450000D03*
X218390000Y-112450000D03*
X245900000Y-95050000D03*
X227740000Y-85700000D03*
X207900000Y-95050000D03*
X189740000Y-85700000D03*
X180390000Y-112450000D03*
X142390000Y-112450000D03*
X169900000Y-95050000D03*
X151740000Y-85700000D03*
X131900000Y-95050000D03*
X113740000Y-85700000D03*
X75740000Y-85700000D03*
X93900000Y-95050000D03*
X104390000Y-112450000D03*
X55900000Y-95050000D03*
X66390000Y-112450000D03*
X37740000Y-85700000D03*
X241600010Y-122850000D03*
X234055021Y-135840270D03*
X203600010Y-122850000D03*
X196055021Y-135840270D03*
X165600010Y-122850000D03*
X158055021Y-135840270D03*
X127600010Y-122850000D03*
X120055021Y-135840270D03*
X82055021Y-135840270D03*
X89600010Y-122850000D03*
X51600010Y-122850000D03*
X44055021Y-135840270D03*
X257500000Y-76350008D03*
X219500000Y-76350008D03*
X181500000Y-76350008D03*
X143500000Y-76350008D03*
X105500000Y-76350008D03*
X67500000Y-76350008D03*
X239690000Y-136300000D03*
X201690000Y-136300000D03*
X163690000Y-136300000D03*
X125690000Y-136300000D03*
X87690000Y-136300000D03*
X49690000Y-136300000D03*
X257000000Y-139450000D03*
X204090000Y-84200000D03*
X219000000Y-139450000D03*
X242090000Y-84200000D03*
X181000000Y-139450000D03*
X128090000Y-84200000D03*
X143000000Y-139450000D03*
X166090000Y-84200000D03*
X90090000Y-84200000D03*
X105000000Y-139450000D03*
X67000000Y-139450000D03*
X52090000Y-84200000D03*
X255690000Y-131600000D03*
X217690000Y-131600000D03*
X232690000Y-108500000D03*
X194690000Y-108500000D03*
X179690000Y-131600000D03*
X141690000Y-131600000D03*
X156690000Y-108500000D03*
X118690000Y-108500000D03*
X80690000Y-108500000D03*
X103690000Y-131600000D03*
X65690000Y-131600000D03*
X42690000Y-108500000D03*
X236164969Y-105831268D03*
X242072051Y-88225020D03*
X204072051Y-88225020D03*
X198164969Y-105831268D03*
X160164969Y-105831268D03*
X166072051Y-88225020D03*
X128072051Y-88225020D03*
X122164969Y-105831268D03*
X90072051Y-88225020D03*
X84164969Y-105831268D03*
X46164969Y-105831268D03*
X52072051Y-88225020D03*
X234219903Y-118455145D03*
X196219903Y-118455145D03*
X244790000Y-105800000D03*
X206790000Y-105800000D03*
X158219903Y-118455145D03*
X120219903Y-118455145D03*
X168790000Y-105800000D03*
X130790000Y-105800000D03*
X92790000Y-105800000D03*
X82219903Y-118455145D03*
X54790000Y-105800000D03*
X44219903Y-118455145D03*
X201200000Y-71100000D03*
X239200000Y-71100000D03*
X125200000Y-71100000D03*
X163200000Y-71100000D03*
X87200000Y-71100000D03*
X49200000Y-71100000D03*
X236197775Y-113599988D03*
X193382768Y-60094619D03*
X198197775Y-113599988D03*
X231382768Y-60094619D03*
X160197775Y-113599988D03*
X117382768Y-60094619D03*
X122197775Y-113599988D03*
X155382768Y-60094619D03*
X84197775Y-113599988D03*
X79382768Y-60094619D03*
X41382768Y-60094619D03*
X46197775Y-113599988D03*
X238090000Y-113600000D03*
X187215180Y-60517000D03*
X200090000Y-113600000D03*
X225215180Y-60517000D03*
X162090000Y-113600000D03*
X111215180Y-60517000D03*
X124090000Y-113600000D03*
X149215180Y-60517000D03*
X86090000Y-113600000D03*
X73215180Y-60517000D03*
X35215180Y-60517000D03*
X48090000Y-113600000D03*
X193404197Y-68100000D03*
X193414842Y-61194163D03*
X231404197Y-68100000D03*
X231414842Y-61194163D03*
X117404197Y-68100000D03*
X117414842Y-61194163D03*
X155404197Y-68100000D03*
X155414842Y-61194163D03*
X79414842Y-61194163D03*
X79404197Y-68100000D03*
X41414842Y-61194163D03*
X41404197Y-68100000D03*
D27*
X241940001Y-121150001D02*
X235840001Y-121150001D01*
X242390000Y-121600000D02*
X241940001Y-121150001D01*
X224740001Y-114150001D02*
X224740001Y-113299999D01*
X229690000Y-119100000D02*
X224740001Y-114150001D01*
X224740001Y-113299999D02*
X224290002Y-112850000D01*
X233790000Y-119100000D02*
X229690000Y-119100000D01*
X235840001Y-121150001D02*
X233790000Y-119100000D01*
X191690000Y-119100000D02*
X186740001Y-114150001D01*
X186740001Y-114150001D02*
X186740001Y-113299999D01*
X186740001Y-113299999D02*
X186290002Y-112850000D01*
X203940001Y-121150001D02*
X197840001Y-121150001D01*
X204390000Y-121600000D02*
X203940001Y-121150001D01*
X197840001Y-121150001D02*
X195790000Y-119100000D01*
X195790000Y-119100000D02*
X191690000Y-119100000D01*
X165940001Y-121150001D02*
X159840001Y-121150001D01*
X166390000Y-121600000D02*
X165940001Y-121150001D01*
X148740001Y-114150001D02*
X148740001Y-113299999D01*
X153690000Y-119100000D02*
X148740001Y-114150001D01*
X148740001Y-113299999D02*
X148290002Y-112850000D01*
X157790000Y-119100000D02*
X153690000Y-119100000D01*
X159840001Y-121150001D02*
X157790000Y-119100000D01*
X115690000Y-119100000D02*
X110740001Y-114150001D01*
X110740001Y-114150001D02*
X110740001Y-113299999D01*
X110740001Y-113299999D02*
X110290002Y-112850000D01*
X127940001Y-121150001D02*
X121840001Y-121150001D01*
X128390000Y-121600000D02*
X127940001Y-121150001D01*
X121840001Y-121150001D02*
X119790000Y-119100000D01*
X119790000Y-119100000D02*
X115690000Y-119100000D01*
X89940001Y-121150001D02*
X83840001Y-121150001D01*
X90390000Y-121600000D02*
X89940001Y-121150001D01*
X72740001Y-113299999D02*
X72290002Y-112850000D01*
X72740001Y-114150001D02*
X72740001Y-113299999D01*
X77690000Y-119100000D02*
X72740001Y-114150001D01*
X83840001Y-121150001D02*
X81790000Y-119100000D01*
X81790000Y-119100000D02*
X77690000Y-119100000D01*
X52390000Y-121600000D02*
X51940001Y-121150001D01*
X51940001Y-121150001D02*
X45840001Y-121150001D01*
X45840001Y-121150001D02*
X43790000Y-119100000D01*
X43790000Y-119100000D02*
X39690000Y-119100000D01*
X39690000Y-119100000D02*
X34740001Y-114150001D01*
X34740001Y-114150001D02*
X34740001Y-113299999D01*
X34740001Y-113299999D02*
X34290002Y-112850000D01*
X232390000Y-101250000D02*
X232390000Y-102250000D01*
D28*
X234540000Y-101250000D02*
X231890000Y-101250000D01*
D27*
X231890000Y-101250000D02*
X231890000Y-102250000D01*
D28*
X236490000Y-99300000D02*
X234540000Y-101250000D01*
X236490000Y-94800000D02*
X236490000Y-99300000D01*
X234790000Y-93100000D02*
X236490000Y-94800000D01*
X233890000Y-68300000D02*
X234790000Y-69200000D01*
X234790000Y-69200000D02*
X234790000Y-93100000D01*
D27*
X193890000Y-101250000D02*
X193890000Y-102250000D01*
X194390000Y-101250000D02*
X194390000Y-102250000D01*
D28*
X196540000Y-101250000D02*
X193890000Y-101250000D01*
X198490000Y-99300000D02*
X196540000Y-101250000D01*
X198490000Y-94800000D02*
X198490000Y-99300000D01*
X195890000Y-68300000D02*
X196790000Y-69200000D01*
X196790000Y-93100000D02*
X198490000Y-94800000D01*
X196790000Y-69200000D02*
X196790000Y-93100000D01*
D27*
X156390000Y-101250000D02*
X156390000Y-102250000D01*
D28*
X158540000Y-101250000D02*
X155890000Y-101250000D01*
D27*
X155890000Y-101250000D02*
X155890000Y-102250000D01*
D28*
X160490000Y-99300000D02*
X158540000Y-101250000D01*
X160490000Y-94800000D02*
X160490000Y-99300000D01*
X158790000Y-93100000D02*
X160490000Y-94800000D01*
X157890000Y-68300000D02*
X158790000Y-69200000D01*
X158790000Y-69200000D02*
X158790000Y-93100000D01*
D27*
X117890000Y-101250000D02*
X117890000Y-102250000D01*
X118390000Y-101250000D02*
X118390000Y-102250000D01*
D28*
X120540000Y-101250000D02*
X117890000Y-101250000D01*
X122490000Y-99300000D02*
X120540000Y-101250000D01*
X122490000Y-94800000D02*
X122490000Y-99300000D01*
X119890000Y-68300000D02*
X120790000Y-69200000D01*
X120790000Y-93100000D02*
X122490000Y-94800000D01*
X120790000Y-69200000D02*
X120790000Y-93100000D01*
X81890000Y-68300000D02*
X82790000Y-69200000D01*
X82790000Y-69200000D02*
X82790000Y-93100000D01*
D27*
X79890000Y-101250000D02*
X79890000Y-102250000D01*
D28*
X82540000Y-101250000D02*
X79890000Y-101250000D01*
D27*
X80390000Y-101250000D02*
X80390000Y-102250000D01*
D28*
X84490000Y-99300000D02*
X82540000Y-101250000D01*
X84490000Y-94800000D02*
X84490000Y-99300000D01*
X82790000Y-93100000D02*
X84490000Y-94800000D01*
X43890000Y-68300000D02*
X44790000Y-69200000D01*
X44790000Y-69200000D02*
X44790000Y-93100000D01*
X44790000Y-93100000D02*
X46490000Y-94800000D01*
X46490000Y-94800000D02*
X46490000Y-99300000D01*
X46490000Y-99300000D02*
X44540000Y-101250000D01*
X44540000Y-101250000D02*
X41890000Y-101250000D01*
D27*
X41890000Y-101250000D02*
X41890000Y-102250000D01*
X42390000Y-101250000D02*
X42390000Y-102250000D01*
X195800000Y-137800000D02*
X207196998Y-137800000D01*
X211605001Y-133928001D02*
X211605001Y-133624999D01*
X211605001Y-133624999D02*
X212480000Y-132750000D01*
X208258003Y-137274999D02*
X211605001Y-133928001D01*
X207721999Y-137274999D02*
X208258003Y-137274999D01*
X207196998Y-137800000D02*
X207721999Y-137274999D01*
X193890000Y-126300000D02*
X195990000Y-128400000D01*
X194500000Y-133590000D02*
X194500000Y-134750000D01*
X195990000Y-132100000D02*
X194500000Y-133590000D01*
X195990000Y-128400000D02*
X195990000Y-132100000D01*
X195280001Y-137280001D02*
X195800000Y-137800000D01*
X194500000Y-134750000D02*
X195280001Y-135530001D01*
X195280001Y-135530001D02*
X195280001Y-137280001D01*
X249605001Y-133624999D02*
X250480000Y-132750000D01*
X249605001Y-133928001D02*
X249605001Y-133624999D01*
X233280001Y-135530001D02*
X233280001Y-137280001D01*
X233280001Y-137280001D02*
X233800000Y-137800000D01*
X233990000Y-128400000D02*
X233990000Y-132100000D01*
X232500000Y-134750000D02*
X233280001Y-135530001D01*
X233990000Y-132100000D02*
X232500000Y-133590000D01*
X232500000Y-133590000D02*
X232500000Y-134750000D01*
X233800000Y-137800000D02*
X245196998Y-137800000D01*
X245721999Y-137274999D02*
X246258003Y-137274999D01*
X245196998Y-137800000D02*
X245721999Y-137274999D01*
X246258003Y-137274999D02*
X249605001Y-133928001D01*
X231890000Y-126300000D02*
X233990000Y-128400000D01*
X231890000Y-125250000D02*
X231890000Y-126300000D01*
X193890000Y-125250000D02*
X193890000Y-126300000D01*
X119800000Y-137800000D02*
X131196998Y-137800000D01*
X135605001Y-133928001D02*
X135605001Y-133624999D01*
X135605001Y-133624999D02*
X136480000Y-132750000D01*
X132258003Y-137274999D02*
X135605001Y-133928001D01*
X131721999Y-137274999D02*
X132258003Y-137274999D01*
X131196998Y-137800000D02*
X131721999Y-137274999D01*
X117890000Y-126300000D02*
X119990000Y-128400000D01*
X118500000Y-133590000D02*
X118500000Y-134750000D01*
X119990000Y-132100000D02*
X118500000Y-133590000D01*
X119990000Y-128400000D02*
X119990000Y-132100000D01*
X119280001Y-137280001D02*
X119800000Y-137800000D01*
X118500000Y-134750000D02*
X119280001Y-135530001D01*
X119280001Y-135530001D02*
X119280001Y-137280001D01*
X173605001Y-133624999D02*
X174480000Y-132750000D01*
X173605001Y-133928001D02*
X173605001Y-133624999D01*
X157280001Y-135530001D02*
X157280001Y-137280001D01*
X157280001Y-137280001D02*
X157800000Y-137800000D01*
X157990000Y-128400000D02*
X157990000Y-132100000D01*
X156500000Y-134750000D02*
X157280001Y-135530001D01*
X157990000Y-132100000D02*
X156500000Y-133590000D01*
X156500000Y-133590000D02*
X156500000Y-134750000D01*
X157800000Y-137800000D02*
X169196998Y-137800000D01*
X169721999Y-137274999D02*
X170258003Y-137274999D01*
X169196998Y-137800000D02*
X169721999Y-137274999D01*
X170258003Y-137274999D02*
X173605001Y-133928001D01*
X155890000Y-126300000D02*
X157990000Y-128400000D01*
X155890000Y-125250000D02*
X155890000Y-126300000D01*
X117890000Y-125250000D02*
X117890000Y-126300000D01*
X79890000Y-126300000D02*
X81990000Y-128400000D01*
X79890000Y-125250000D02*
X79890000Y-126300000D01*
X93196998Y-137800000D02*
X93721999Y-137274999D01*
X93721999Y-137274999D02*
X94258003Y-137274999D01*
X97605001Y-133928001D02*
X97605001Y-133624999D01*
X94258003Y-137274999D02*
X97605001Y-133928001D01*
X97605001Y-133624999D02*
X98480000Y-132750000D01*
X81280001Y-135530001D02*
X81280001Y-137280001D01*
X81800000Y-137800000D02*
X93196998Y-137800000D01*
X81280001Y-137280001D02*
X81800000Y-137800000D01*
X81990000Y-128400000D02*
X81990000Y-132100000D01*
X80500000Y-133590000D02*
X80500000Y-134750000D01*
X80500000Y-134750000D02*
X81280001Y-135530001D01*
X81990000Y-132100000D02*
X80500000Y-133590000D01*
X42500000Y-134750000D02*
X43280001Y-135530001D01*
X59605001Y-133928001D02*
X59605001Y-133624999D01*
X41890000Y-125250000D02*
X41890000Y-126300000D01*
X43990000Y-132100000D02*
X42500000Y-133590000D01*
X56258003Y-137274999D02*
X59605001Y-133928001D01*
X55196998Y-137800000D02*
X55721999Y-137274999D01*
X41890000Y-126300000D02*
X43990000Y-128400000D01*
X59605001Y-133624999D02*
X60480000Y-132750000D01*
X43990000Y-128400000D02*
X43990000Y-132100000D01*
X42500000Y-133590000D02*
X42500000Y-134750000D01*
X43280001Y-135530001D02*
X43280001Y-137280001D01*
X43280001Y-137280001D02*
X43800000Y-137800000D01*
X43800000Y-137800000D02*
X55196998Y-137800000D01*
X55721999Y-137274999D02*
X56258003Y-137274999D01*
X235087002Y-118000000D02*
X249603604Y-118000000D01*
X211603604Y-118000000D02*
X212240000Y-118000000D01*
X249603604Y-118000000D02*
X250240000Y-118000000D01*
X233787002Y-116700000D02*
X235087002Y-118000000D01*
X230840000Y-116700000D02*
X233787002Y-116700000D01*
X195787002Y-116700000D02*
X197087002Y-118000000D01*
X197087002Y-118000000D02*
X211603604Y-118000000D01*
X192840000Y-116700000D02*
X195787002Y-116700000D01*
X159087002Y-118000000D02*
X173603604Y-118000000D01*
X135603604Y-118000000D02*
X136240000Y-118000000D01*
X173603604Y-118000000D02*
X174240000Y-118000000D01*
X157787002Y-116700000D02*
X159087002Y-118000000D01*
X154840000Y-116700000D02*
X157787002Y-116700000D01*
X119787002Y-116700000D02*
X121087002Y-118000000D01*
X121087002Y-118000000D02*
X135603604Y-118000000D01*
X116840000Y-116700000D02*
X119787002Y-116700000D01*
X97603604Y-118000000D02*
X98240000Y-118000000D01*
X83087002Y-118000000D02*
X97603604Y-118000000D01*
X81787002Y-116700000D02*
X83087002Y-118000000D01*
X78840000Y-116700000D02*
X81787002Y-116700000D01*
X59603604Y-118000000D02*
X60240000Y-118000000D01*
X40840000Y-116700000D02*
X43787002Y-116700000D01*
X45087002Y-118000000D02*
X59603604Y-118000000D01*
X43787002Y-116700000D02*
X45087002Y-118000000D01*
D28*
X250800000Y-81150000D02*
X254240000Y-81150000D01*
X254240000Y-81150000D02*
X255190000Y-82100000D01*
X244990000Y-81650002D02*
X244990002Y-81650000D01*
X244990002Y-81650000D02*
X250300000Y-81650000D01*
X250300000Y-81650000D02*
X250800000Y-81150000D01*
X254900000Y-97271598D02*
X254419999Y-97751599D01*
X254900000Y-89990000D02*
X254900000Y-97271598D01*
X255190000Y-89700000D02*
X254900000Y-89990000D01*
X255190000Y-82100000D02*
X255190000Y-89700000D01*
X254419999Y-99194997D02*
X254425001Y-99199999D01*
X254425001Y-99199999D02*
X254425001Y-99753403D01*
X254419999Y-97751599D02*
X254419999Y-99194997D01*
X254425001Y-99753403D02*
X254900000Y-100228402D01*
X209640000Y-141100000D02*
X207890000Y-142850000D01*
X207890000Y-142850000D02*
X207890000Y-145750000D01*
X254900000Y-130142998D02*
X247640000Y-137402998D01*
X247640000Y-141100000D02*
X245890000Y-142850000D01*
X245890000Y-142850000D02*
X245890000Y-145750000D01*
X247640000Y-137402998D02*
X247640000Y-141100000D01*
X216900000Y-100228402D02*
X216900000Y-130142998D01*
X209640000Y-137402998D02*
X209640000Y-141100000D01*
X216900000Y-130142998D02*
X209640000Y-137402998D01*
X254900000Y-100228402D02*
X254900000Y-130142998D01*
X216900000Y-97271598D02*
X216419999Y-97751599D01*
X216900000Y-89990000D02*
X216900000Y-97271598D01*
X216419999Y-99194997D02*
X216425001Y-99199999D01*
X216419999Y-97751599D02*
X216419999Y-99194997D01*
X216425001Y-99199999D02*
X216425001Y-99753403D01*
X216425001Y-99753403D02*
X216900000Y-100228402D01*
X206990002Y-81650000D02*
X212300000Y-81650000D01*
X206990000Y-81650002D02*
X206990002Y-81650000D01*
X212300000Y-81650000D02*
X212800000Y-81150000D01*
X216240000Y-81150000D02*
X217190000Y-82100000D01*
X212800000Y-81150000D02*
X216240000Y-81150000D01*
X217190000Y-89700000D02*
X216900000Y-89990000D01*
X217190000Y-82100000D02*
X217190000Y-89700000D01*
X174800000Y-81150000D02*
X178240000Y-81150000D01*
X178240000Y-81150000D02*
X179190000Y-82100000D01*
X168990000Y-81650002D02*
X168990002Y-81650000D01*
X168990002Y-81650000D02*
X174300000Y-81650000D01*
X174300000Y-81650000D02*
X174800000Y-81150000D01*
X178900000Y-97271598D02*
X178419999Y-97751599D01*
X178900000Y-89990000D02*
X178900000Y-97271598D01*
X179190000Y-89700000D02*
X178900000Y-89990000D01*
X179190000Y-82100000D02*
X179190000Y-89700000D01*
X178419999Y-99194997D02*
X178425001Y-99199999D01*
X178425001Y-99199999D02*
X178425001Y-99753403D01*
X178419999Y-97751599D02*
X178419999Y-99194997D01*
X178425001Y-99753403D02*
X178900000Y-100228402D01*
X133640000Y-141100000D02*
X131890000Y-142850000D01*
X131890000Y-142850000D02*
X131890000Y-145750000D01*
X178900000Y-130142998D02*
X171640000Y-137402998D01*
X171640000Y-141100000D02*
X169890000Y-142850000D01*
X169890000Y-142850000D02*
X169890000Y-145750000D01*
X171640000Y-137402998D02*
X171640000Y-141100000D01*
X140900000Y-100228402D02*
X140900000Y-130142998D01*
X133640000Y-137402998D02*
X133640000Y-141100000D01*
X140900000Y-130142998D02*
X133640000Y-137402998D01*
X178900000Y-100228402D02*
X178900000Y-130142998D01*
X140900000Y-97271598D02*
X140419999Y-97751599D01*
X140900000Y-89990000D02*
X140900000Y-97271598D01*
X140419999Y-99194997D02*
X140425001Y-99199999D01*
X140419999Y-97751599D02*
X140419999Y-99194997D01*
X140425001Y-99199999D02*
X140425001Y-99753403D01*
X140425001Y-99753403D02*
X140900000Y-100228402D01*
X130990002Y-81650000D02*
X136300000Y-81650000D01*
X130990000Y-81650002D02*
X130990002Y-81650000D01*
X136300000Y-81650000D02*
X136800000Y-81150000D01*
X140240000Y-81150000D02*
X141190000Y-82100000D01*
X136800000Y-81150000D02*
X140240000Y-81150000D01*
X141190000Y-89700000D02*
X140900000Y-89990000D01*
X141190000Y-82100000D02*
X141190000Y-89700000D01*
X102900000Y-89990000D02*
X102900000Y-97271598D01*
X103190000Y-89700000D02*
X102900000Y-89990000D01*
X103190000Y-82100000D02*
X103190000Y-89700000D01*
X98800000Y-81150000D02*
X102240000Y-81150000D01*
X102240000Y-81150000D02*
X103190000Y-82100000D01*
X98300000Y-81650000D02*
X98800000Y-81150000D01*
X92990002Y-81650000D02*
X98300000Y-81650000D01*
X92990000Y-81650002D02*
X92990002Y-81650000D01*
X95640000Y-137402998D02*
X95640000Y-141100000D01*
X95640000Y-141100000D02*
X93890000Y-142850000D01*
X93890000Y-142850000D02*
X93890000Y-145750000D01*
X102425001Y-99199999D02*
X102425001Y-99753403D01*
X102419999Y-99194997D02*
X102425001Y-99199999D01*
X102900000Y-97271598D02*
X102419999Y-97751599D01*
X102425001Y-99753403D02*
X102900000Y-100228402D01*
X102419999Y-97751599D02*
X102419999Y-99194997D01*
X102900000Y-130142998D02*
X95640000Y-137402998D01*
X102900000Y-100228402D02*
X102900000Y-130142998D01*
X64240000Y-81150000D02*
X65190000Y-82100000D01*
X54990000Y-81650002D02*
X54990002Y-81650000D01*
X64425001Y-99753403D02*
X64900000Y-100228402D01*
X54990002Y-81650000D02*
X60300000Y-81650000D01*
X60300000Y-81650000D02*
X60800000Y-81150000D01*
X64419999Y-99194997D02*
X64425001Y-99199999D01*
X60800000Y-81150000D02*
X64240000Y-81150000D01*
X65190000Y-82100000D02*
X65190000Y-89700000D01*
X65190000Y-89700000D02*
X64900000Y-89990000D01*
X64900000Y-130142998D02*
X57640000Y-137402998D01*
X64900000Y-89990000D02*
X64900000Y-97271598D01*
X64900000Y-97271598D02*
X64419999Y-97751599D01*
X64419999Y-97751599D02*
X64419999Y-99194997D01*
X64425001Y-99199999D02*
X64425001Y-99753403D01*
X64900000Y-100228402D02*
X64900000Y-130142998D01*
X57640000Y-137402998D02*
X57640000Y-141100000D01*
X57640000Y-141100000D02*
X55890000Y-142850000D01*
X55890000Y-142850000D02*
X55890000Y-145750000D01*
X252390000Y-83486390D02*
X252390000Y-82849994D01*
X252390000Y-96950000D02*
X252390000Y-83486390D01*
X251140000Y-98200000D02*
X252390000Y-96950000D01*
X214390000Y-96950000D02*
X214390000Y-83486390D01*
X213140000Y-98200000D02*
X214390000Y-96950000D01*
X214390000Y-83486390D02*
X214390000Y-82849994D01*
X176390000Y-83486390D02*
X176390000Y-82849994D01*
X176390000Y-96950000D02*
X176390000Y-83486390D01*
X175140000Y-98200000D02*
X176390000Y-96950000D01*
X138390000Y-96950000D02*
X138390000Y-83486390D01*
X137140000Y-98200000D02*
X138390000Y-96950000D01*
X138390000Y-83486390D02*
X138390000Y-82849994D01*
X100390000Y-83486390D02*
X100390000Y-82849994D01*
X99140000Y-98200000D02*
X100390000Y-96950000D01*
X100390000Y-96950000D02*
X100390000Y-83486390D01*
X62390000Y-83486390D02*
X62390000Y-82849994D01*
X61140000Y-98200000D02*
X62390000Y-96950000D01*
X62390000Y-96950000D02*
X62390000Y-83486390D01*
D27*
X196055021Y-134579979D02*
X203600010Y-127034990D01*
X196055021Y-135840270D02*
X196055021Y-134579979D01*
X234055021Y-135840270D02*
X234055021Y-134579979D01*
X234055021Y-134579979D02*
X241600010Y-127034990D01*
X241600010Y-123486396D02*
X241600010Y-122850000D01*
X241600010Y-127034990D02*
X241600010Y-123486396D01*
X203600010Y-127034990D02*
X203600010Y-123486396D01*
X203600010Y-123486396D02*
X203600010Y-122850000D01*
X120055021Y-134579979D02*
X127600010Y-127034990D01*
X120055021Y-135840270D02*
X120055021Y-134579979D01*
X158055021Y-135840270D02*
X158055021Y-134579979D01*
X158055021Y-134579979D02*
X165600010Y-127034990D01*
X165600010Y-123486396D02*
X165600010Y-122850000D01*
X165600010Y-127034990D02*
X165600010Y-123486396D01*
X127600010Y-127034990D02*
X127600010Y-123486396D01*
X127600010Y-123486396D02*
X127600010Y-122850000D01*
X89600010Y-123486396D02*
X89600010Y-122850000D01*
X89600010Y-127034990D02*
X89600010Y-123486396D01*
X82055021Y-135840270D02*
X82055021Y-134579979D01*
X82055021Y-134579979D02*
X89600010Y-127034990D01*
X51600010Y-127034990D02*
X51600010Y-123486396D01*
X51600010Y-123486396D02*
X51600010Y-122850000D01*
X44055021Y-134579979D02*
X51600010Y-127034990D01*
X44055021Y-135840270D02*
X44055021Y-134579979D01*
X203190000Y-134800000D02*
X202139999Y-135850001D01*
X202139999Y-135850001D02*
X201690000Y-136300000D01*
X208990000Y-134800000D02*
X203190000Y-134800000D01*
X209980000Y-132750000D02*
X209990000Y-132760000D01*
X209990000Y-133800000D02*
X208990000Y-134800000D01*
X209990000Y-132760000D02*
X209990000Y-133800000D01*
X247990000Y-132760000D02*
X247990000Y-133800000D01*
X247980000Y-132750000D02*
X247990000Y-132760000D01*
X241190000Y-134800000D02*
X240139999Y-135850001D01*
X246990000Y-134800000D02*
X241190000Y-134800000D01*
X240139999Y-135850001D02*
X239690000Y-136300000D01*
X247990000Y-133800000D02*
X246990000Y-134800000D01*
X127190000Y-134800000D02*
X126139999Y-135850001D01*
X126139999Y-135850001D02*
X125690000Y-136300000D01*
X132990000Y-134800000D02*
X127190000Y-134800000D01*
X133980000Y-132750000D02*
X133990000Y-132760000D01*
X133990000Y-133800000D02*
X132990000Y-134800000D01*
X133990000Y-132760000D02*
X133990000Y-133800000D01*
X171990000Y-132760000D02*
X171990000Y-133800000D01*
X171980000Y-132750000D02*
X171990000Y-132760000D01*
X165190000Y-134800000D02*
X164139999Y-135850001D01*
X170990000Y-134800000D02*
X165190000Y-134800000D01*
X164139999Y-135850001D02*
X163690000Y-136300000D01*
X171990000Y-133800000D02*
X170990000Y-134800000D01*
X95990000Y-133800000D02*
X94990000Y-134800000D01*
X95990000Y-132760000D02*
X95990000Y-133800000D01*
X95980000Y-132750000D02*
X95990000Y-132760000D01*
X88139999Y-135850001D02*
X87690000Y-136300000D01*
X89190000Y-134800000D02*
X88139999Y-135850001D01*
X94990000Y-134800000D02*
X89190000Y-134800000D01*
X57980000Y-132750000D02*
X57990000Y-132760000D01*
X57990000Y-132760000D02*
X57990000Y-133800000D01*
X57990000Y-133800000D02*
X56990000Y-134800000D01*
X56990000Y-134800000D02*
X51190000Y-134800000D01*
X51190000Y-134800000D02*
X50139999Y-135850001D01*
X50139999Y-135850001D02*
X49690000Y-136300000D01*
D28*
X242090000Y-84200000D02*
X242090000Y-83307000D01*
X255640000Y-80000000D02*
X258580001Y-82940001D01*
X242090000Y-83307000D02*
X245397000Y-80000000D01*
X245397000Y-80000000D02*
X255640000Y-80000000D01*
X257449999Y-139000001D02*
X257000000Y-139450000D01*
X258580001Y-137869999D02*
X257449999Y-139000001D01*
X220580001Y-137869999D02*
X219449999Y-139000001D01*
X219449999Y-139000001D02*
X219000000Y-139450000D01*
X220580001Y-82940001D02*
X220580001Y-137869999D01*
X258580001Y-82940001D02*
X258580001Y-137869999D01*
X207397000Y-80000000D02*
X217640000Y-80000000D01*
X217640000Y-80000000D02*
X220580001Y-82940001D01*
X204090000Y-84200000D02*
X204090000Y-83307000D01*
X204090000Y-83307000D02*
X207397000Y-80000000D01*
X166090000Y-84200000D02*
X166090000Y-83307000D01*
X179640000Y-80000000D02*
X182580001Y-82940001D01*
X166090000Y-83307000D02*
X169397000Y-80000000D01*
X169397000Y-80000000D02*
X179640000Y-80000000D01*
X181449999Y-139000001D02*
X181000000Y-139450000D01*
X182580001Y-137869999D02*
X181449999Y-139000001D01*
X144580001Y-137869999D02*
X143449999Y-139000001D01*
X143449999Y-139000001D02*
X143000000Y-139450000D01*
X144580001Y-82940001D02*
X144580001Y-137869999D01*
X182580001Y-82940001D02*
X182580001Y-137869999D01*
X131397000Y-80000000D02*
X141640000Y-80000000D01*
X141640000Y-80000000D02*
X144580001Y-82940001D01*
X128090000Y-84200000D02*
X128090000Y-83307000D01*
X128090000Y-83307000D02*
X131397000Y-80000000D01*
X93397000Y-80000000D02*
X103640000Y-80000000D01*
X103640000Y-80000000D02*
X106580001Y-82940001D01*
X90090000Y-83307000D02*
X93397000Y-80000000D01*
X90090000Y-84200000D02*
X90090000Y-83307000D01*
X105449999Y-139000001D02*
X105000000Y-139450000D01*
X106580001Y-82940001D02*
X106580001Y-137869999D01*
X106580001Y-137869999D02*
X105449999Y-139000001D01*
X67449999Y-139000001D02*
X67000000Y-139450000D01*
X68580001Y-82940001D02*
X68580001Y-137869999D01*
X65640000Y-80000000D02*
X68580001Y-82940001D01*
X68580001Y-137869999D02*
X67449999Y-139000001D01*
X55397000Y-80000000D02*
X65640000Y-80000000D01*
X52090000Y-83307000D02*
X55397000Y-80000000D01*
X52090000Y-84200000D02*
X52090000Y-83307000D01*
X242072051Y-88225020D02*
X238540000Y-91757071D01*
X238540000Y-103456237D02*
X236614968Y-105381269D01*
X236614968Y-105381269D02*
X236164969Y-105831268D01*
X198614968Y-105381269D02*
X198164969Y-105831268D01*
X200540000Y-103456237D02*
X198614968Y-105381269D01*
X238540000Y-91757071D02*
X238540000Y-103456237D01*
X204072051Y-88225020D02*
X200540000Y-91757071D01*
X200540000Y-91757071D02*
X200540000Y-103456237D01*
X166072051Y-88225020D02*
X162540000Y-91757071D01*
X162540000Y-103456237D02*
X160614968Y-105381269D01*
X160614968Y-105381269D02*
X160164969Y-105831268D01*
X122614968Y-105381269D02*
X122164969Y-105831268D01*
X124540000Y-103456237D02*
X122614968Y-105381269D01*
X162540000Y-91757071D02*
X162540000Y-103456237D01*
X128072051Y-88225020D02*
X124540000Y-91757071D01*
X124540000Y-91757071D02*
X124540000Y-103456237D01*
X90072051Y-88225020D02*
X86540000Y-91757071D01*
X84614968Y-105381269D02*
X84164969Y-105831268D01*
X86540000Y-103456237D02*
X84614968Y-105381269D01*
X86540000Y-91757071D02*
X86540000Y-103456237D01*
X48540000Y-103456237D02*
X46614968Y-105381269D01*
X48540000Y-91757071D02*
X48540000Y-103456237D01*
X52072051Y-88225020D02*
X48540000Y-91757071D01*
X46614968Y-105381269D02*
X46164969Y-105831268D01*
D27*
X230250000Y-53500000D02*
X223750000Y-53500000D01*
X192250000Y-53500000D02*
X185750000Y-53500000D01*
X154250000Y-53500000D02*
X147750000Y-53500000D01*
X116250000Y-53500000D02*
X109750000Y-53500000D01*
X78250000Y-53500000D02*
X71750000Y-53500000D01*
X40250000Y-53500000D02*
X33750000Y-53500000D01*
D28*
X247980000Y-92542998D02*
X238464999Y-83027997D01*
X209980000Y-108750000D02*
X209980000Y-92542998D01*
X247980000Y-108750000D02*
X247980000Y-92542998D01*
X238464999Y-71835001D02*
X238750001Y-71549999D01*
X238464999Y-83027997D02*
X238464999Y-71835001D01*
X238750001Y-71549999D02*
X239200000Y-71100000D01*
X209980000Y-92542998D02*
X200464999Y-83027997D01*
X200464999Y-71835001D02*
X200750001Y-71549999D01*
X200464999Y-83027997D02*
X200464999Y-71835001D01*
X200750001Y-71549999D02*
X201200000Y-71100000D01*
X171980000Y-92542998D02*
X162464999Y-83027997D01*
X133980000Y-108750000D02*
X133980000Y-92542998D01*
X171980000Y-108750000D02*
X171980000Y-92542998D01*
X162464999Y-71835001D02*
X162750001Y-71549999D01*
X162464999Y-83027997D02*
X162464999Y-71835001D01*
X162750001Y-71549999D02*
X163200000Y-71100000D01*
X133980000Y-92542998D02*
X124464999Y-83027997D01*
X124464999Y-71835001D02*
X124750001Y-71549999D01*
X124464999Y-83027997D02*
X124464999Y-71835001D01*
X124750001Y-71549999D02*
X125200000Y-71100000D01*
X86750001Y-71549999D02*
X87200000Y-71100000D01*
X86464999Y-71835001D02*
X86750001Y-71549999D01*
X86464999Y-83027997D02*
X86464999Y-71835001D01*
X95980000Y-92542998D02*
X86464999Y-83027997D01*
X95980000Y-108750000D02*
X95980000Y-92542998D01*
X48750001Y-71549999D02*
X49200000Y-71100000D01*
X48464999Y-71835001D02*
X48750001Y-71549999D01*
X48464999Y-83027997D02*
X48464999Y-71835001D01*
X57980000Y-92542998D02*
X48464999Y-83027997D01*
X57980000Y-108750000D02*
X57980000Y-92542998D01*
X229990000Y-99600000D02*
X233890000Y-95700000D01*
X236197775Y-113599988D02*
X235561379Y-113599988D01*
X231690000Y-109728609D02*
X231690000Y-104500000D01*
X235561379Y-113599988D02*
X231690000Y-109728609D01*
X231690000Y-104500000D02*
X229990000Y-102800000D01*
X197561379Y-113599988D02*
X193690000Y-109728609D01*
X193690000Y-109728609D02*
X193690000Y-104500000D01*
X198197775Y-113599988D02*
X197561379Y-113599988D01*
X229990000Y-102800000D02*
X229990000Y-99600000D01*
X233890000Y-95700000D02*
X233890000Y-73000000D01*
X230746372Y-60094619D02*
X231382768Y-60094619D01*
X229990000Y-60850991D02*
X230746372Y-60094619D01*
X229990000Y-69100000D02*
X229990000Y-60850991D01*
X233890000Y-73000000D02*
X229990000Y-69100000D01*
X193690000Y-104500000D02*
X191990000Y-102800000D01*
X191990000Y-102800000D02*
X191990000Y-99600000D01*
X191990000Y-99600000D02*
X195890000Y-95700000D01*
X191990000Y-60850991D02*
X192746372Y-60094619D01*
X192746372Y-60094619D02*
X193382768Y-60094619D01*
X195890000Y-95700000D02*
X195890000Y-73000000D01*
X195890000Y-73000000D02*
X191990000Y-69100000D01*
X191990000Y-69100000D02*
X191990000Y-60850991D01*
X153990000Y-99600000D02*
X157890000Y-95700000D01*
X160197775Y-113599988D02*
X159561379Y-113599988D01*
X155690000Y-109728609D02*
X155690000Y-104500000D01*
X159561379Y-113599988D02*
X155690000Y-109728609D01*
X155690000Y-104500000D02*
X153990000Y-102800000D01*
X121561379Y-113599988D02*
X117690000Y-109728609D01*
X117690000Y-109728609D02*
X117690000Y-104500000D01*
X122197775Y-113599988D02*
X121561379Y-113599988D01*
X153990000Y-102800000D02*
X153990000Y-99600000D01*
X157890000Y-95700000D02*
X157890000Y-73000000D01*
X154746372Y-60094619D02*
X155382768Y-60094619D01*
X153990000Y-60850991D02*
X154746372Y-60094619D01*
X153990000Y-69100000D02*
X153990000Y-60850991D01*
X157890000Y-73000000D02*
X153990000Y-69100000D01*
X117690000Y-104500000D02*
X115990000Y-102800000D01*
X115990000Y-102800000D02*
X115990000Y-99600000D01*
X115990000Y-99600000D02*
X119890000Y-95700000D01*
X115990000Y-60850991D02*
X116746372Y-60094619D01*
X116746372Y-60094619D02*
X117382768Y-60094619D01*
X119890000Y-95700000D02*
X119890000Y-73000000D01*
X119890000Y-73000000D02*
X115990000Y-69100000D01*
X115990000Y-69100000D02*
X115990000Y-60850991D01*
X77990000Y-69100000D02*
X77990000Y-60850991D01*
X81890000Y-95700000D02*
X81890000Y-73000000D01*
X77990000Y-99600000D02*
X81890000Y-95700000D01*
X81890000Y-73000000D02*
X77990000Y-69100000D01*
X78746372Y-60094619D02*
X79382768Y-60094619D01*
X77990000Y-60850991D02*
X78746372Y-60094619D01*
X84197775Y-113599988D02*
X83561379Y-113599988D01*
X77990000Y-102800000D02*
X77990000Y-99600000D01*
X79690000Y-104500000D02*
X77990000Y-102800000D01*
X79690000Y-109728609D02*
X79690000Y-104500000D01*
X83561379Y-113599988D02*
X79690000Y-109728609D01*
X41690000Y-104500000D02*
X39990000Y-102800000D01*
X46197775Y-113599988D02*
X45561379Y-113599988D01*
X40746372Y-60094619D02*
X41382768Y-60094619D01*
X39990000Y-60850991D02*
X40746372Y-60094619D01*
X39990000Y-69100000D02*
X39990000Y-60850991D01*
X39990000Y-99600000D02*
X43890000Y-95700000D01*
X39990000Y-102800000D02*
X39990000Y-99600000D01*
X43890000Y-95700000D02*
X43890000Y-73000000D01*
X41690000Y-109728609D02*
X41690000Y-104500000D01*
X45561379Y-113599988D02*
X41690000Y-109728609D01*
X43890000Y-73000000D02*
X39990000Y-69100000D01*
X237690000Y-100300000D02*
X235290000Y-102700000D01*
X238726396Y-113600000D02*
X238090000Y-113600000D01*
X239990000Y-112336396D02*
X238726396Y-113600000D01*
X239090000Y-108800000D02*
X239990000Y-109700000D01*
X239990000Y-109700000D02*
X239990000Y-112336396D01*
X236790000Y-108800000D02*
X239090000Y-108800000D01*
X235290000Y-107300000D02*
X236790000Y-108800000D01*
X235290000Y-102700000D02*
X235290000Y-107300000D01*
X197290000Y-107300000D02*
X198790000Y-108800000D01*
X197290000Y-102700000D02*
X197290000Y-107300000D01*
X198790000Y-108800000D02*
X201090000Y-108800000D01*
X200726396Y-113600000D02*
X200090000Y-113600000D01*
X201990000Y-112336396D02*
X200726396Y-113600000D01*
X201990000Y-109700000D02*
X201990000Y-112336396D01*
X201090000Y-108800000D02*
X201990000Y-109700000D01*
X237690000Y-70200000D02*
X237690000Y-100300000D01*
X231896003Y-59325001D02*
X232971002Y-60400000D01*
X231679999Y-59325001D02*
X231896003Y-59325001D01*
X231604999Y-59250001D02*
X231679999Y-59325001D01*
X230239999Y-59250001D02*
X231604999Y-59250001D01*
X228973000Y-60517000D02*
X230239999Y-59250001D01*
X225215180Y-60517000D02*
X228973000Y-60517000D01*
X239690000Y-62900000D02*
X239690000Y-68200000D01*
X237190000Y-60400000D02*
X239690000Y-62900000D01*
X232971002Y-60400000D02*
X237190000Y-60400000D01*
X239690000Y-68200000D02*
X237690000Y-70200000D01*
X199690000Y-100300000D02*
X197290000Y-102700000D01*
X193896003Y-59325001D02*
X194971002Y-60400000D01*
X193679999Y-59325001D02*
X193896003Y-59325001D01*
X193604999Y-59250001D02*
X193679999Y-59325001D01*
X187215180Y-60517000D02*
X190973000Y-60517000D01*
X190973000Y-60517000D02*
X192239999Y-59250001D01*
X192239999Y-59250001D02*
X193604999Y-59250001D01*
X194971002Y-60400000D02*
X199190000Y-60400000D01*
X201690000Y-62900000D02*
X201690000Y-68200000D01*
X201690000Y-68200000D02*
X199690000Y-70200000D01*
X199190000Y-60400000D02*
X201690000Y-62900000D01*
X199690000Y-70200000D02*
X199690000Y-100300000D01*
X161690000Y-100300000D02*
X159290000Y-102700000D01*
X162726396Y-113600000D02*
X162090000Y-113600000D01*
X163990000Y-112336396D02*
X162726396Y-113600000D01*
X163090000Y-108800000D02*
X163990000Y-109700000D01*
X163990000Y-109700000D02*
X163990000Y-112336396D01*
X160790000Y-108800000D02*
X163090000Y-108800000D01*
X159290000Y-107300000D02*
X160790000Y-108800000D01*
X159290000Y-102700000D02*
X159290000Y-107300000D01*
X121290000Y-107300000D02*
X122790000Y-108800000D01*
X121290000Y-102700000D02*
X121290000Y-107300000D01*
X122790000Y-108800000D02*
X125090000Y-108800000D01*
X124726396Y-113600000D02*
X124090000Y-113600000D01*
X125990000Y-112336396D02*
X124726396Y-113600000D01*
X125990000Y-109700000D02*
X125990000Y-112336396D01*
X125090000Y-108800000D02*
X125990000Y-109700000D01*
X161690000Y-70200000D02*
X161690000Y-100300000D01*
X155896003Y-59325001D02*
X156971002Y-60400000D01*
X155679999Y-59325001D02*
X155896003Y-59325001D01*
X155604999Y-59250001D02*
X155679999Y-59325001D01*
X154239999Y-59250001D02*
X155604999Y-59250001D01*
X152973000Y-60517000D02*
X154239999Y-59250001D01*
X149215180Y-60517000D02*
X152973000Y-60517000D01*
X163690000Y-62900000D02*
X163690000Y-68200000D01*
X161190000Y-60400000D02*
X163690000Y-62900000D01*
X156971002Y-60400000D02*
X161190000Y-60400000D01*
X163690000Y-68200000D02*
X161690000Y-70200000D01*
X123690000Y-100300000D02*
X121290000Y-102700000D01*
X117896003Y-59325001D02*
X118971002Y-60400000D01*
X117679999Y-59325001D02*
X117896003Y-59325001D01*
X117604999Y-59250001D02*
X117679999Y-59325001D01*
X111215180Y-60517000D02*
X114973000Y-60517000D01*
X114973000Y-60517000D02*
X116239999Y-59250001D01*
X116239999Y-59250001D02*
X117604999Y-59250001D01*
X118971002Y-60400000D02*
X123190000Y-60400000D01*
X125690000Y-62900000D02*
X125690000Y-68200000D01*
X125690000Y-68200000D02*
X123690000Y-70200000D01*
X123190000Y-60400000D02*
X125690000Y-62900000D01*
X123690000Y-70200000D02*
X123690000Y-100300000D01*
X79679999Y-59325001D02*
X79896003Y-59325001D01*
X80971002Y-60400000D02*
X85190000Y-60400000D01*
X79896003Y-59325001D02*
X80971002Y-60400000D01*
X85190000Y-60400000D02*
X87690000Y-62900000D01*
X87690000Y-62900000D02*
X87690000Y-68200000D01*
X87690000Y-68200000D02*
X85690000Y-70200000D01*
X85690000Y-70200000D02*
X85690000Y-100300000D01*
X76973000Y-60517000D02*
X78239999Y-59250001D01*
X79604999Y-59250001D02*
X79679999Y-59325001D01*
X78239999Y-59250001D02*
X79604999Y-59250001D01*
X73215180Y-60517000D02*
X76973000Y-60517000D01*
X86726396Y-113600000D02*
X86090000Y-113600000D01*
X83290000Y-102700000D02*
X83290000Y-107300000D01*
X83290000Y-107300000D02*
X84790000Y-108800000D01*
X87090000Y-108800000D02*
X87990000Y-109700000D01*
X87990000Y-109700000D02*
X87990000Y-112336396D01*
X84790000Y-108800000D02*
X87090000Y-108800000D01*
X87990000Y-112336396D02*
X86726396Y-113600000D01*
X85690000Y-100300000D02*
X83290000Y-102700000D01*
X48726396Y-113600000D02*
X48090000Y-113600000D01*
X49990000Y-109700000D02*
X49990000Y-112336396D01*
X46790000Y-108800000D02*
X49090000Y-108800000D01*
X45290000Y-107300000D02*
X46790000Y-108800000D01*
X47690000Y-100300000D02*
X45290000Y-102700000D01*
X47690000Y-70200000D02*
X47690000Y-100300000D01*
X49690000Y-68200000D02*
X47690000Y-70200000D01*
X45290000Y-102700000D02*
X45290000Y-107300000D01*
X42971002Y-60400000D02*
X47190000Y-60400000D01*
X49690000Y-62900000D02*
X49690000Y-68200000D01*
X47190000Y-60400000D02*
X49690000Y-62900000D01*
X41679999Y-59325001D02*
X41896003Y-59325001D01*
X40239999Y-59250001D02*
X41604999Y-59250001D01*
X41604999Y-59250001D02*
X41679999Y-59325001D01*
X35215180Y-60517000D02*
X38973000Y-60517000D01*
X38973000Y-60517000D02*
X40239999Y-59250001D01*
X41896003Y-59325001D02*
X42971002Y-60400000D01*
X49990000Y-112336396D02*
X48726396Y-113600000D01*
X49090000Y-108800000D02*
X49990000Y-109700000D01*
D27*
X231404197Y-61204808D02*
X231414842Y-61194163D01*
X231404197Y-68100000D02*
X231404197Y-61204808D01*
X193404197Y-61204808D02*
X193414842Y-61194163D01*
X193404197Y-68100000D02*
X193404197Y-61204808D01*
X155404197Y-61204808D02*
X155414842Y-61194163D01*
X155404197Y-68100000D02*
X155404197Y-61204808D01*
X117404197Y-61204808D02*
X117414842Y-61194163D01*
X117404197Y-68100000D02*
X117404197Y-61204808D01*
X79404197Y-68100000D02*
X79404197Y-61204808D01*
X79404197Y-61204808D02*
X79414842Y-61194163D01*
X41404197Y-61204808D02*
X41414842Y-61194163D01*
X41404197Y-68100000D02*
X41404197Y-61204808D01*
M02*
